<svg width="32" height="32" viewBox="0 0 32 32" fill="none" xmlns="http://www.w3.org/2000/svg">
<path d="M24.0003 8H5.33366C3.8609 8 2.66699 9.19391 2.66699 10.6667V21.3333C2.66699 22.8061 3.8609 24 5.33366 24H24.0003C25.4731 24 26.667 22.8061 26.667 21.3333V10.6667C26.667 9.19391 25.4731 8 24.0003 8Z" fill="#2C3131" stroke="#2C3131" stroke-width="2" stroke-linecap="round" stroke-linejoin="round"/>
<path d="M7 13.3335V18.6668M12 13.3335V18.6668M17.0007 13.3335V18.6668M22.0007 13.3335V18.6668" stroke="white" stroke-width="2" stroke-linecap="round" stroke-linejoin="round"/>
<path d="M26 13H28C28.1768 13 28.3464 13.0702 28.4714 13.1953C28.5964 13.3203 28.6667 13.4899 28.6667 13.6667V17.6667C28.6667 17.8435 28.5964 18.013 28.4714 18.1381C28.3464 18.2631 28.1768 18.3333 28 18.3333H26V13Z" stroke="#2C3131" stroke-width="2" stroke-linecap="round" stroke-linejoin="round"/>
</svg>
