<svg width="80" height="80" viewBox="0 0 80 80" fill="none" xmlns="http://www.w3.org/2000/svg">
<circle cx="40" cy="40" r="40" fill="#F9FDFF"/>
<path fill-rule="evenodd" clip-rule="evenodd" d="M30.341 16.1979C29.6463 16.5542 29.5872 16.7642 29.5872 18.8792C29.5872 20.3609 29.6153 20.7549 29.7395 21.0167C30.2229 22.0355 31.7574 22.0398 32.2188 21.0234C32.3737 20.6824 32.3973 20.4005 32.3973 18.8949C32.3973 16.81 32.3041 16.479 31.6307 16.1733C31.1074 15.9358 30.8423 15.9409 30.341 16.1979ZM51.0691 16.1235C50.6305 16.1958 49.9129 16.3681 49.4743 16.5062C48.6204 16.775 46.8874 17.62 46.4265 17.9923L46.1461 18.2189L46.5672 18.3256C49.1633 18.9829 51.2723 20.0973 52.9805 21.7141C53.6364 22.3351 53.86 22.4867 54.3401 22.6362C56.4434 23.2908 57.8792 25.6184 57.5569 27.8509C57.3643 29.1853 57.0109 29.763 55.3594 31.4434C54.5733 32.2432 53.6864 33.0792 53.3884 33.3011C51.7988 34.4852 49.564 34.5254 47.8796 33.4C47.6474 33.2449 46.7821 32.4573 45.9566 31.6498C44.6346 30.3567 44.4027 30.1686 44.012 30.0721C43.1721 29.8645 42.2068 30.2591 41.8065 30.9739C41.6986 31.1666 41.5624 31.5896 41.5038 31.9138C41.3743 32.6319 41.1294 33.2213 40.7289 33.779L40.4268 34.1996L40.7756 34.8727C41.2519 35.7916 41.9065 36.6371 42.8106 37.5008C44.9008 39.4978 47.6119 40.5643 50.598 40.5643C52.9739 40.5643 54.8275 40.0248 56.7504 38.7737C57.6261 38.2039 60.9235 34.9939 61.7302 33.9258C62.6986 32.6436 63.4449 31.0047 63.7905 29.4013C64.0275 28.3016 64.0295 26.0946 63.7947 24.9923C62.8392 20.5099 59.5246 17.1685 55.0876 16.2151C54.1211 16.0074 52.0577 15.9604 51.0691 16.1235ZM20.9571 20.0321C20.1918 20.3372 19.7946 21.2957 20.1533 21.9717C20.3145 22.2755 23.7305 25.6784 24.023 25.8266C24.3859 26.0105 25.0096 25.9517 25.3823 25.6984C25.8144 25.4048 26.074 24.7832 25.9794 24.2694C25.9235 23.966 25.6351 23.6333 24.023 22.0123C21.9224 19.9 21.6804 19.7437 20.9571 20.0321ZM42.5575 20.8628C39.8888 21.1633 37.5419 22.2444 35.6645 24.0381C33.8866 25.7367 32.8054 27.8318 32.4366 30.2924C32.3593 30.8084 32.3214 31.3664 32.3525 31.5327C32.4248 31.92 32.8231 32.3929 33.2148 32.5566C33.6508 32.7387 37.4371 32.7387 37.8731 32.5566C38.3783 32.3455 38.6545 31.9293 38.7789 31.192C39.0919 29.3367 40.5327 27.8021 42.3919 27.3439C43.1073 27.1676 44.2638 27.203 44.9716 27.4228C45.8986 27.7108 46.3829 28.0715 48.0699 29.7306C49.5572 31.1934 49.6412 31.2598 50.1339 31.3621C50.5575 31.45 50.7354 31.4426 51.1502 31.3193C51.5906 31.1886 51.8077 31.019 52.899 29.953C54.2021 28.6805 54.5829 28.217 54.7208 27.7365C54.8018 27.4536 54.7628 27.408 52.6782 25.3465C50.554 23.2456 49.8694 22.6758 48.7239 22.0551C47.0183 21.131 44.4997 20.644 42.5575 20.8628ZM17.1578 29.5778C16.4248 29.7661 16.0795 30.2053 16.0799 30.9491C16.0803 31.4764 16.2777 31.8515 16.702 32.1312C16.943 32.2902 17.168 32.3081 18.9213 32.3086C21.0926 32.3094 21.2596 32.2723 21.6045 31.7142C21.8617 31.2981 21.8676 30.5901 21.6174 30.1798C21.2748 29.6178 21.0103 29.5483 19.1277 29.5257C18.199 29.5147 17.3126 29.538 17.1578 29.5778ZM28.1801 39.4033C26.337 39.6381 24.771 40.2108 23.2552 41.2043C22.4592 41.726 19.2997 44.8059 18.4746 45.8644C17.3525 47.304 16.7188 48.5735 16.3007 50.2195C15.2072 54.5238 17.1639 59.3788 21.07 62.0542C24.8405 64.6367 29.3969 64.6491 33.4008 62.0879L33.9396 61.7433L33.1001 61.5294C30.8725 60.9617 28.6887 59.7681 27.0307 58.2122C26.4666 57.6828 26.1427 57.4529 25.8349 57.3635C23.4225 56.6627 21.9513 53.9929 22.6017 51.4961C22.864 50.4892 23.1637 50.0782 24.9409 48.2894C26.2985 46.9228 26.7479 46.5292 27.2179 46.295C28.3615 45.725 29.4319 45.5903 30.6104 45.8682C31.6952 46.1239 32.2254 46.4885 33.91 48.1375C34.8199 49.0281 35.6071 49.7191 35.8066 49.8025C36.657 50.1578 37.7234 49.7988 38.2628 48.9757C38.3386 48.86 38.4621 48.4439 38.5373 48.0512C38.6771 47.3201 39.0028 46.5688 39.4132 46.0303L39.6444 45.727L39.3398 45.186C37.6688 42.2178 35.0532 40.2979 31.6979 39.5767C31.04 39.4353 28.7967 39.3248 28.1801 39.4033ZM41.9983 47.4994C41.5714 47.7634 41.4031 48.0679 41.256 48.8431C40.7477 51.5206 37.973 53.2962 35.3603 52.6156C34.2956 52.3383 33.7677 51.9695 32.1154 50.3485C31.1952 49.4458 30.4228 48.7669 30.2188 48.6817C29.7492 48.4855 29.1541 48.5044 28.6535 48.7315C28.1972 48.9386 26.1062 50.9309 25.6371 51.6057C25.0808 52.4057 25.004 52.2735 27.3994 54.6377C28.7126 55.9338 29.8222 56.943 30.2695 57.2479C33.1152 59.1888 36.6719 59.6515 40.0784 58.5242C44.2588 57.1406 47.3596 53.3053 47.6623 49.1438C47.7228 48.3116 47.6331 48.0257 47.1776 47.5999L46.9268 47.3653L44.6124 47.3396C42.446 47.3156 42.2789 47.3258 41.9983 47.4994ZM58.9693 47.7559C58.4813 47.9964 58.2453 48.4043 58.2453 49.007C58.2453 49.4012 58.2984 49.5973 58.4703 49.8384C58.8406 50.3575 59.1016 50.4141 61.1283 50.4141C63.2363 50.4141 63.4473 50.3546 63.8034 49.6602C64.0604 49.159 64.0655 48.8939 63.8279 48.3706C63.5207 47.6938 63.1963 47.604 61.0595 47.6041C59.6072 47.6041 59.2201 47.6322 58.9693 47.7559ZM54.8071 54.168C54.1572 54.5114 53.8711 55.3938 54.2053 56.0237C54.3665 56.3275 57.7825 59.7304 58.0749 59.8786C58.7609 60.2261 59.7547 59.7387 59.983 58.9427C60.1831 58.2451 60.0881 58.1008 58.115 56.1018C57.1032 55.0767 56.1395 54.1796 55.9735 54.1084C55.5661 53.9334 55.2173 53.9513 54.8071 54.168ZM48.7069 58.1973C48.3565 58.3044 48.0704 58.5192 47.8668 58.8281C47.712 59.0628 47.6931 59.3022 47.6926 61.0424C47.6919 63.2137 47.729 63.3807 48.2871 63.7256C48.7031 63.9828 49.4112 63.9887 49.8215 63.7384C50.4047 63.3829 50.4593 63.1537 50.4593 61.0612C50.4593 59.3432 50.4432 59.1576 50.2684 58.86C49.9584 58.3324 49.2494 58.0315 48.7069 58.1973Z" fill="#2C3131"/>
</svg>
