<svg width="80" height="80" viewBox="0 0 80 80" fill="none" xmlns="http://www.w3.org/2000/svg">
<circle cx="40" cy="40" r="40" fill="#F9FDFF"/>
<path fill-rule="evenodd" clip-rule="evenodd" d="M24.7262 20.0733C24.7262 20.1523 29.3782 28.1544 29.4899 28.2675C29.5269 28.305 31.4324 26.4602 33.7243 24.1678L37.8913 20H31.3088C27.6884 20 24.7262 20.033 24.7262 20.0733ZM46.2768 24.1678C48.5686 26.4602 50.4741 28.305 50.5111 28.2675C50.6228 28.1544 55.2748 20.1523 55.2748 20.0733C55.2748 20.033 52.3126 20 48.6922 20H42.1097L46.2768 24.1678ZM35.7368 24.6854L31.5207 28.9022H40.0005H48.4803L44.2642 24.6854C41.9454 22.3661 40.0268 20.4685 40.0005 20.4685C39.9743 20.4685 38.0556 22.3661 35.7368 24.6854ZM19.5723 24.7501C17.7427 26.9477 16.2316 28.7808 16.2145 28.8239C16.1973 28.867 18.7801 28.9022 21.9541 28.9022C25.128 28.9022 27.7249 28.8843 27.7249 28.8625C27.7249 28.7689 23.0118 20.7499 22.9581 20.7522C22.9256 20.7535 21.4019 22.5526 19.5723 24.7501ZM54.6319 24.7827C53.3363 27.0047 52.2762 28.8405 52.2762 28.8625C52.2762 28.8843 54.8695 28.9022 58.0392 28.9022C61.2088 28.9022 63.8022 28.8806 63.8022 28.8541C63.8022 28.7853 57.1421 20.8019 57.0578 20.7696C57.0192 20.7548 55.9276 22.5607 54.6319 24.7827ZM17.0599 32.0708C30.8919 50.2036 37.519 58.8712 37.537 58.8532C37.5493 58.8409 35.5646 52.508 33.1264 44.7802L28.6934 30.7295L22.3467 30.7054L16 30.6813L17.0599 32.0708ZM30.5621 30.7998C30.5851 30.8642 32.707 37.569 35.2775 45.6992C37.8481 53.8296 39.9734 60.4816 40.0005 60.4816C40.0276 60.4816 42.153 53.8296 44.7236 45.6992C47.294 37.569 49.4159 30.8642 49.4389 30.7998C49.4721 30.7065 47.5443 30.6826 40.0005 30.6826C32.4567 30.6826 30.5289 30.7065 30.5621 30.7998ZM51.2896 30.7998C51.1359 31.2127 42.4459 58.835 42.464 58.8531C42.4821 58.8712 49.1064 50.2071 62.9406 32.0715L64 30.6826H57.6666C52.6856 30.6826 51.3239 30.7077 51.2896 30.7998Z" fill="#2C3131"/>
</svg>
