<svg width="32" height="32" viewBox="0 0 32 32" fill="none" xmlns="http://www.w3.org/2000/svg">
<path d="M29.3337 26.6665V16.2319C29.3337 15.5059 29.1856 14.7876 28.8983 14.1209C28.6111 13.4541 28.1907 12.8531 27.663 12.3545L17.8323 3.06387C17.3372 2.59578 16.6817 2.33496 16.0003 2.33496C15.319 2.33496 14.6634 2.59578 14.1683 3.06387L4.33766 12.3545C3.80996 12.8531 3.3896 13.4541 3.10232 14.1209C2.81505 14.7876 2.66692 15.5059 2.66699 16.2319V26.6665C2.66699 27.3738 2.94794 28.0521 3.44804 28.5522C3.94814 29.0523 4.62641 29.3332 5.33366 29.3332H26.667C27.3742 29.3332 28.0525 29.0523 28.5526 28.5522C29.0527 28.0521 29.3337 27.3738 29.3337 26.6665Z" fill="#2C3131" stroke="#2C3131" stroke-width="2" stroke-linecap="round" stroke-linejoin="round"/>
<path d="M13.5 10C12.5656 10 11.7906 10.6406 11.5687 11.5063C11.5437 11.5063 11.525 11.5 11.5 11.5C10.3969 11.5 9.5 12.3969 9.5 13.5C9.5 13.65 9.51875 13.7969 9.55312 13.9375C8.64062 14.3125 8 15.2063 8 16.25C8 16.6438 8.1 17.0094 8.25937 17.3406C7.50937 17.7719 7 18.5719 7 19.5C7 20.5406 7.6375 21.4344 8.54375 21.8094C8.51562 21.9531 8.5 22.1 8.5 22.25C8.5 23.4937 9.50625 24.5 10.75 24.5C10.8781 24.5 11.0031 24.4844 11.125 24.4625C11.425 25.3531 12.2562 26 13.25 26C14.4938 26 15.5 24.9937 15.5 23.75V12C15.5 10.8969 14.6031 10 13.5 10ZM25 19.5C25 18.5719 24.4906 17.7719 23.7406 17.3406C23.9031 17.0094 24 16.6438 24 16.25C24 15.2063 23.3594 14.3125 22.4469 13.9375C22.4781 13.7969 22.5 13.65 22.5 13.5C22.5 12.3969 21.6031 11.5 20.5 11.5C20.475 11.5 20.4531 11.5063 20.4312 11.5063C20.2094 10.6406 19.4344 10 18.5 10C17.3969 10 16.5 10.8937 16.5 12V23.75C16.5 24.9937 17.5063 26 18.75 26C19.7437 26 20.575 25.3531 20.875 24.4625C20.9969 24.4844 21.1219 24.5 21.25 24.5C22.4937 24.5 23.5 23.4937 23.5 22.25C23.5 22.1 23.4844 21.9531 23.4562 21.8094C24.3625 21.4344 25 20.5406 25 19.5Z" fill="white"/>
</svg>
