<svg width="80" height="80" viewBox="0 0 80 80" fill="none" xmlns="http://www.w3.org/2000/svg">
<circle cx="40" cy="40" r="40" fill="#F9FDFF"/>
<path fill-rule="evenodd" clip-rule="evenodd" d="M52.1282 16.0331C44.5948 16.6182 38.6048 18.1888 32.8346 21.0915C29.1477 22.9463 26.5481 24.715 23.3138 27.5693C18.93 31.438 16.5657 36.0355 16.0679 41.6596C15.6826 46.0117 16.9525 50.8025 19.5118 54.6513C20.3453 55.9047 21.8116 57.6339 21.9273 57.4999C21.9716 57.4486 22.2256 56.7994 22.4918 56.0571C23.4502 53.3849 25.0767 50.0872 26.4776 47.9762C29.092 44.0364 34.0027 39.2899 37.9579 36.8796C38.8805 36.3175 40.7144 35.3839 40.7757 35.4452C40.7991 35.4685 39.8203 36.9883 38.6008 38.8224C34.5146 44.9682 33.8593 46.0731 30.8162 51.9522C29.2159 55.0439 26.543 60.8449 26.543 61.2263C26.543 61.3356 27.8358 61.99 28.9609 62.4499C31.545 63.5065 34.0831 63.9992 36.9458 64C43.3814 64.0016 48.5452 61.507 52.806 56.3383C55.2429 53.3822 56.8221 50.1949 57.4587 46.9476C57.7616 45.4034 57.8933 43.9292 58.0907 39.8758C58.2842 35.9024 58.4737 33.9126 58.8789 31.5965C59.6264 27.3244 61.245 22.3218 63.2796 17.9962C63.6948 17.1133 63.8439 16.6857 63.7555 16.6312C63.6174 16.5458 63.23 16.487 61.1253 16.2317C59.8371 16.0755 53.4092 15.9337 52.1282 16.0331Z" fill="#2C3131"/>
</svg>
