<svg width="88" height="40" viewBox="0 0 88 40" fill="none" xmlns="http://www.w3.org/2000/svg">
<path d="M22.995 36.9394V39.9741H22.7305L20.7796 37.5118V39.9741H20.4591V36.9394H20.7236L22.6805 39.4029V36.9394H22.995Z" fill="white"/>
<path d="M26.9966 39.697V39.9741H24.8494V36.9394H26.9303V37.2171H25.1711V38.2968H26.7375V38.5697H25.1711V39.697H26.9966Z" fill="white"/>
<path d="M30.482 39.9741L29.5023 38.639L28.5245 39.9741H28.1558L29.3089 38.4137L28.2293 36.9394H28.598L29.5126 38.1793L30.4229 36.9394H30.77L29.6945 38.4046L30.8525 39.9741H30.482Z" fill="white"/>
<path d="M32.7491 37.2171H31.6827V36.9394H34.1367V37.2171H33.0703V39.9741H32.7491V37.2171Z" fill="white"/>
<path d="M39.8934 37.9799C39.8934 38.6257 39.4253 39.0161 38.6535 39.0161H37.8389V39.9741H37.5178V36.9394H38.6535C39.4253 36.9394 39.8934 37.3298 39.8934 37.9799ZM39.5729 37.9799C39.5729 37.4943 39.2518 37.2171 38.6451 37.2171H37.8389V38.7342H38.6463C39.2518 38.7342 39.5729 38.457 39.5729 37.9799Z" fill="white"/>
<path d="M43.9902 36.9394V39.9741H43.6739V38.5739H41.7749V39.9741H41.4543V36.9394H41.7749V38.292H43.6739V36.9394H43.9902Z" fill="white"/>
<path d="M47.7485 39.162H46.0567L45.6952 39.9723H45.3615L46.7472 36.9376H47.0641L48.4498 39.9723H48.1118L47.7485 39.162ZM47.6316 38.9017L46.9032 37.2714L46.1772 38.9035L47.6316 38.9017Z" fill="white"/>
<path d="M49.5306 39.606L49.656 39.359C49.8729 39.571 50.2585 39.7271 50.6579 39.7271C51.2255 39.7271 51.4725 39.4861 51.4725 39.1897C51.4725 38.357 49.6047 38.8686 49.6047 37.7437C49.6047 37.2973 49.9518 36.9111 50.7236 36.9111C51.0565 36.9075 51.3833 37.0009 51.6641 37.1798L51.5556 37.4358C51.3077 37.2748 51.0192 37.1874 50.7236 37.184C50.1687 37.184 49.9211 37.4316 49.9211 37.7347C49.9211 38.5673 51.7888 38.0642 51.7888 39.1698C51.7888 39.6162 51.4333 39.9976 50.6573 39.9976C50.2024 40 49.756 39.8398 49.5306 39.606Z" fill="white"/>
<path d="M55.5001 39.697V39.9741H53.354V36.9394H55.435V37.2171H53.6751V38.2968H55.2416V38.5697H53.6751V39.697H55.5001Z" fill="white"/>
<path d="M58.8553 38.457C58.8553 37.5726 59.5319 36.9135 60.4507 36.9135C61.3695 36.9135 62.0419 37.5684 62.0419 38.457C62.0419 39.3457 61.3611 40 60.4507 40C59.5404 40 58.8553 39.3427 58.8553 38.457ZM61.7214 38.457C61.7214 37.7341 61.1791 37.1997 60.4507 37.1997C59.7223 37.1997 59.1716 37.7329 59.1716 38.457C59.1716 39.1812 59.7181 39.7144 60.4507 39.7144C61.1833 39.7144 61.7214 39.1812 61.7214 38.457Z" fill="white"/>
<path d="M63.9505 37.2171V38.4095H65.517V38.6866H63.9505V39.9741H63.6294V36.9394H65.7104V37.2171H63.9505Z" fill="white"/>
<path d="M69.2427 36.9394H69.5632V39.697H71.2628V39.9741H69.2427V36.9394Z" fill="white"/>
<path d="M72.663 36.9394H72.9835V39.9741H72.663V36.9394Z" fill="white"/>
<path d="M77.3256 36.9394L75.9821 39.9741H75.6652L74.3217 36.9394H74.6681L75.8303 39.5753L77.0009 36.9394H77.3256Z" fill="white"/>
<path d="M78.6323 36.9394H78.9522V39.9741H78.6311L78.6323 36.9394Z" fill="white"/>
<path d="M83.345 36.9394V39.9741H83.0806L81.1297 37.5118V39.9741H80.8086V36.9394H81.0731L83.0281 39.4029V36.9394H83.345Z" fill="white"/>
<path d="M87.3376 38.457H87.6455V39.6144C87.3593 39.8705 86.9514 40 86.5309 40C85.6079 40 84.9313 39.3457 84.9313 38.457C84.9313 37.5684 85.6079 36.9135 86.5351 36.9135C86.9948 36.9135 87.3936 37.0611 87.6623 37.3515L87.4629 37.5551C87.2075 37.3039 86.9038 37.1997 86.5483 37.1997C85.7982 37.1997 85.2476 37.7329 85.2476 38.457C85.2476 39.1812 85.7982 39.7144 86.5441 39.7144C86.827 39.7238 87.1053 39.6416 87.3376 39.4801V38.457Z" fill="white"/>
<path d="M5.88027 7.86358C4.05716 7.41413 3.61915 7.19362 3.66976 6.60198C3.72639 5.81876 4.5042 5.47414 5.53023 5.47414C6.74603 5.47414 8.0962 5.83563 8.91136 6.55861L10.2037 4.48245C8.96197 3.36063 7.01836 2.93588 5.39406 2.93588C2.85279 2.93588 0.328995 3.95046 0.333212 6.83394C0.333212 9.11674 1.9087 9.76019 4.95787 10.5362C6.46407 10.9236 7.30755 11.07 7.29369 11.8616C7.28104 12.6449 6.45022 13.1552 5.02956 13.1564C3.63662 13.1564 2.0774 12.6816 1.29779 11.7189L0.00305176 13.789C1.08752 15.0626 3.21549 15.7067 5.19163 15.7049C7.67446 15.7049 10.6326 14.7011 10.6423 11.7677C10.6525 8.96371 7.96847 8.37509 5.88027 7.86358Z" fill="white"/>
<path d="M33.1413 7.48221C33.1461 4.33786 31.3194 2.93588 29.1523 2.93588C27.5798 2.93588 25.8567 3.6444 24.4999 4.92407C23.8029 3.56427 22.5117 2.93588 21.0748 2.93588C19.6728 2.93588 18.1618 3.55343 16.943 4.73971V3.27267H13.5607V15.3681H16.9448V7.03517C17.8335 6.26339 18.8866 5.82599 19.7717 5.82418C20.8386 5.82418 21.6604 6.45799 21.6586 7.90696V15.3681H25.0452V7.48221C25.0452 7.28761 25.0385 7.10144 25.0253 6.9213C25.929 6.22302 26.9623 5.82418 27.8329 5.82117C28.927 5.82117 29.7608 6.44835 29.7572 7.90696V15.3681H29.7602V21.4032C28.5787 20.2843 27.1768 19.7493 25.9043 19.7493C22.7612 19.7367 20.6212 22.581 20.6212 26.1357C20.6212 29.6903 22.7756 32.522 25.8471 32.522C27.1557 32.522 28.548 32.0183 29.7632 30.8688V32.1834H33.1474V15.2536L33.1413 7.48221ZM29.7602 28.2106C28.8023 29.1746 27.5569 29.6566 26.6074 29.6602C24.9669 29.6602 24.0433 28.2371 24.0559 26.1363C24.0433 24.0336 24.9554 22.6123 26.5701 22.6105C27.5816 22.6105 28.7992 23.0985 29.7632 24.0613L29.7602 28.2106Z" fill="white"/>
<path d="M57.0743 7.65211C58.3395 6.61283 59.8457 6.07662 61.1712 6.07662C61.2994 6.07313 61.4278 6.07736 61.5555 6.08928L62.1128 2.92685C62.0062 2.92022 61.899 2.91721 61.7905 2.91721C60.2488 2.91721 58.4769 3.60765 57.0767 4.93552V3.27267H53.6908V15.3681H57.0767L57.0743 7.65211Z" fill="white"/>
<path d="M71.073 12.922C70.1692 12.922 69.5168 12.5286 69.5168 11.3628V5.89228H72.7702V3.27269H69.5168V0.000610352H66.1308V3.27329H66.0591L63.8088 3.76974V5.89288H66.1338V11.8026C66.1338 14.6427 67.975 15.7091 70.071 15.7043C71.1923 15.7043 72.384 15.3916 73.4052 14.8807L72.7207 12.6196C72.1719 12.7925 71.5881 12.9208 71.073 12.922Z" fill="white"/>
<path d="M42.9871 19.7494C39.1017 19.7253 36.537 22.581 36.537 26.1357C36.537 29.6656 39.1017 32.522 42.9871 32.522C46.8984 32.522 49.4337 29.6674 49.4337 26.1357C49.4337 22.6039 46.9002 19.7494 42.9871 19.7494ZM42.9871 29.621C41.1375 29.621 39.9687 28.1799 39.9687 26.1363C39.9494 24.0921 41.0984 22.6509 42.9871 22.6509C44.8548 22.6509 46.0038 24.0728 46.0038 26.1363C46.0038 28.1998 44.856 29.621 42.9871 29.621Z" fill="white"/>
<path d="M68.3756 19.7494C66.8031 19.7494 65.0819 20.4561 63.7233 21.7376C63.0262 20.3759 61.7351 19.7494 60.3 19.7494C58.898 19.7494 57.3858 20.3657 56.1682 21.5568V20.0886H52.7822V32.1822H56.1682V23.8505C57.055 23.0793 58.1088 22.6395 58.9938 22.6395C60.0602 22.6395 60.8838 23.2721 60.8802 24.7229V32.1822H64.2661V24.2981C64.2661 24.1035 64.2595 23.9173 64.2468 23.7354C65.1505 23.0383 66.185 22.6395 67.0538 22.6365C68.1479 22.6334 68.9817 23.2624 68.9817 24.7229V32.1822H72.3677V24.2981C72.3677 21.1531 70.5409 19.7494 68.3756 19.7494Z" fill="white"/>
<path d="M87.5871 26.3894C87.6046 22.4039 85.4422 19.75 81.7111 19.75C78.0166 19.7373 75.579 22.5817 75.579 26.1363C75.579 29.6663 78.0425 32.5226 81.7743 32.5226C83.5114 32.5201 85.1994 31.9466 86.5785 30.8905L85.7911 28.7607C84.509 29.3897 83.2444 29.756 82.0936 29.759C80.523 29.759 79.4108 28.8107 79.1107 27.1461C79.0999 27.0858 79.0884 27.0195 79.0788 26.9551H87.5678C87.5805 26.7635 87.5871 26.5755 87.5871 26.3894ZM79.1258 24.8904C79.427 23.4444 80.3543 22.5045 81.7918 22.5045C83.3366 22.5045 84.0385 23.4348 84.2463 24.8904H79.1258Z" fill="white"/>
<path d="M43.2137 3.20822C38.6216 3.20822 34.8994 7.65575 34.8994 13.1413C34.8988 13.8882 34.9695 14.6334 35.1103 15.3669H36.446C36.3195 13.9469 36.1447 8.8101 39.8597 5.74949L39.9163 5.70129L41.5587 5.60851L41.0399 6.05134C41.0092 6.07845 37.916 8.82275 38.4233 15.3669H48.0064C48.5137 8.82456 45.4212 6.07845 45.3886 6.05134L44.8765 5.60851L46.5123 5.70129L46.5725 5.74949C50.285 8.8083 50.1127 13.9469 49.985 15.3669H51.3219C51.4627 14.6334 51.5333 13.8882 51.5327 13.1413C51.5291 7.65575 47.804 3.20822 43.2137 3.20822Z" fill="white"/>
</svg>
