<svg width="190" height="33" viewBox="0 0 190 33" fill="none" xmlns="http://www.w3.org/2000/svg">
<g clip-path="url(#clip0_376_460)">
<path d="M39.9493 26.7539V32.1081H39.4806L36.0236 27.7636V32.1081H35.4551V26.7539H35.9237L39.3885 31.0984V26.7539H39.9493Z" fill="white"/>
<path d="M47.0401 31.6186V32.1081H43.2373V26.7539H46.9249V27.2434H43.8058V29.148H46.5868V29.6299H43.8058V31.6186H47.0401Z" fill="white"/>
<path d="M53.2164 32.1081L51.4802 29.7522L49.7516 32.1081H49.0986L51.1422 29.3545L49.2293 26.7539H49.8822L51.5032 28.9415L53.1165 26.7539H53.7311L51.8259 29.3392L53.8771 32.1081H53.2164Z" fill="white"/>
<path d="M57.2346 27.2434H55.3447V26.7539H59.693V27.2434H57.8031V32.1081H57.2346V27.2434Z" fill="white"/>
<path d="M69.8945 28.5896C69.8945 29.7293 69.0648 30.4177 67.6974 30.4177H66.2531V32.1081H65.6846V26.7539H67.6974C69.0648 26.7539 69.8945 27.4423 69.8945 28.5896ZM69.326 28.5896C69.326 27.733 68.7575 27.2434 67.682 27.2434H66.2531V29.9205H67.682C68.7575 29.9205 69.326 29.431 69.326 28.5896H69.326Z" fill="white"/>
<path d="M77.1543 26.7539V32.1081H76.5936V29.6375H73.2287V32.1081H72.6602V26.7539H73.2287V29.1403H76.5936V26.7539H77.1543Z" fill="white"/>
<path d="M83.815 30.6778H80.8189L80.1736 32.1081H79.582L82.0404 26.7539H82.6012L85.0596 32.1081H84.4604L83.815 30.6778ZM83.6076 30.2188L82.317 27.3429L81.0263 30.2188L83.6076 30.2188Z" fill="white"/>
<path d="M86.9717 31.4579L87.1945 31.0219C87.5786 31.3967 88.2623 31.6721 88.9691 31.6721C89.9755 31.6721 90.4134 31.2514 90.4134 30.7236C90.4134 29.2551 87.1023 30.1576 87.1023 28.1766C87.1023 27.3887 87.7169 26.708 89.0843 26.708C89.6912 26.708 90.3212 26.8839 90.7514 27.1822L90.5594 27.6335C90.1198 27.3496 89.6083 27.1958 89.0843 27.1899C88.101 27.1899 87.6631 27.6259 87.6631 28.1613C87.6631 29.6299 90.9742 28.7426 90.9742 30.693C90.9742 31.4808 90.3443 32.154 88.9691 32.154C88.1625 32.154 87.3712 31.8709 86.9717 31.4579Z" fill="white"/>
<path d="M97.5508 31.6186V32.1081H93.748V26.7539H97.4356V27.2434H94.3165V29.148H97.0976V29.6299H94.3165V31.6186H97.5508Z" fill="white"/>
<path d="M103.496 29.431C103.496 27.8706 104.695 26.708 106.323 26.708C107.937 26.708 109.143 27.863 109.143 29.431C109.143 30.999 107.937 32.154 106.323 32.154C104.695 32.154 103.496 30.9913 103.496 29.431ZM108.574 29.431C108.574 28.1536 107.614 27.2128 106.323 27.2128C105.025 27.2128 104.057 28.1536 104.057 29.431C104.057 30.7083 105.025 31.6491 106.323 31.6491C107.614 31.6491 108.574 30.7083 108.574 29.431V29.431Z" fill="white"/>
<path d="M112.523 27.2434V29.3469H115.304V29.8364H112.523V32.1081H111.954V26.7539H115.642V27.2434H112.523Z" fill="white"/>
<path d="M121.903 26.7539H122.472V31.6186H125.483V32.1081H121.903V26.7539Z" fill="white"/>
<path d="M127.964 26.7539H128.532V32.1081H127.964V26.7539Z" fill="white"/>
<path d="M136.23 26.7539L133.849 32.1081H133.288L130.906 26.7539H131.521L133.58 31.4044L135.654 26.7539H136.23Z" fill="white"/>
<path d="M138.543 26.7539H139.111V32.1081H138.543V26.7539Z" fill="white"/>
<path d="M146.894 26.7539V32.1081H146.425L142.968 27.7636V32.1081H142.399V26.7539H142.868L146.333 31.0984V26.7539H146.894Z" fill="white"/>
<path d="M153.969 29.431H154.514V31.4732C154.007 31.9245 153.285 32.154 152.54 32.154C150.904 32.154 149.705 30.999 149.705 29.431C149.705 27.863 150.904 26.708 152.548 26.708C153.362 26.708 154.069 26.9681 154.545 27.4805L154.192 27.84C153.738 27.3964 153.201 27.2128 152.571 27.2128C151.242 27.2128 150.266 28.1536 150.266 29.431C150.266 30.7007 151.242 31.6491 152.563 31.6491C153.078 31.6491 153.554 31.5344 153.969 31.2361V29.431Z" fill="white"/>
<path d="M7.76715 11.9449C5.35864 11.3545 4.78061 11.0645 4.84698 10.2866C4.92191 9.25275 5.94953 8.80297 7.30472 8.80297C8.91039 8.80724 10.6938 9.28048 11.7706 10.2269L13.4769 7.49637C11.837 6.02138 9.27006 5.46289 7.12488 5.46289C3.76796 5.46289 0.434595 6.79723 0.436737 10.5892C0.434598 13.5904 2.51769 14.4366 6.54471 15.4576C8.53145 15.967 9.64471 16.1589 9.62973 17.2033C9.61261 18.2329 8.51433 18.9043 6.63891 18.9064C4.79988 18.9043 2.74248 18.2819 1.71057 17.0158L0 19.7377C1.43654 21.4131 4.24325 22.2593 6.853 22.2572C10.1328 22.2593 14.04 20.9378 14.0528 17.0797C14.0699 13.3922 10.5246 12.6142 7.76715 11.9449Z" fill="white"/>
<path d="M38.5044 5.46502L38.5065 5.46289C36.4298 5.46289 34.1541 6.39439 32.3621 8.08041C31.4416 6.29208 29.7331 5.46289 27.8384 5.46289C25.9866 5.46289 23.9913 6.27501 22.3813 7.8353V5.9084H17.9111V21.8138H22.3813V10.8557C23.5545 9.84105 24.9461 9.26555 26.115 9.26341C27.5237 9.26341 28.6092 10.0968 28.607 12.0024L28.6049 21.8138H33.0772V11.444C33.0772 11.1882 33.0687 10.943 33.0515 10.7065C34.2461 9.78776 35.6099 9.26342 36.7596 9.25915C38.2047 9.25702 39.3093 10.0841 39.3008 12.0024V21.8138H43.7731V11.444C43.7795 7.30882 41.3667 5.46502 38.5044 5.46502Z" fill="white"/>
<path d="M75.3825 8.09514V5.9082H70.9102V21.8136H75.3825V11.6676C77.0502 10.3013 79.0391 9.59574 80.7904 9.59574C80.9597 9.59159 81.1291 9.59727 81.2978 9.61276L82.0342 5.45416C81.8929 5.44562 81.7516 5.44141 81.6082 5.44141C79.5722 5.44141 77.2344 6.34943 75.3825 8.09514Z" fill="white"/>
<path d="M93.872 18.598C92.6796 18.6001 91.8168 18.08 91.8168 16.5474V9.35353H96.1157V5.909H91.8168V1.60547H87.3444V5.909H87.246L84.2744 6.56126V9.35353H87.3444V17.1251C87.3444 20.8595 89.7765 22.262 92.5447 22.2556C94.0262 22.2535 95.5997 21.8443 96.9485 21.1729L96.045 18.1994C95.3236 18.4274 94.5528 18.5958 93.872 18.598Z" fill="white"/>
<path d="M113.621 8.09126C112.06 6.62053 110.209 5.91711 108.528 5.91711C104.377 5.90004 101.551 9.63874 101.551 14.3153C101.551 18.9897 104.396 22.7113 108.453 22.7113C110.181 22.7113 112.02 22.0485 113.623 20.5372V22.2659H118.093V0H113.621V8.09126ZM113.623 17.0437C112.358 18.3076 110.714 18.9471 109.459 18.9492C107.293 18.9471 106.072 17.0777 106.089 14.3153C106.072 11.5507 107.278 9.68136 109.41 9.67923C110.746 9.68136 112.354 10.3208 113.623 11.5869V17.0437Z" fill="white"/>
<path d="M131.093 5.9172C125.961 5.88519 122.574 9.63883 122.574 14.3154C122.574 18.9578 125.961 22.7114 131.093 22.7114C136.259 22.7114 139.611 18.9578 139.611 14.3154C139.611 9.67078 136.259 5.9172 131.093 5.9172ZM131.093 18.8982C128.65 18.8982 127.106 17.0033 127.106 14.3154C127.081 11.6275 128.599 9.7326 131.093 9.7326C133.561 9.7326 135.077 11.602 135.077 14.3154C135.077 17.0288 133.561 18.8982 131.093 18.8982Z" fill="white"/>
<path d="M164.626 5.91699C162.549 5.91699 160.275 6.84631 158.481 8.53451C157.561 6.744 155.854 5.91699 153.96 5.91699C152.108 5.91699 150.11 6.72698 148.503 8.28935V6.36245H144.03V22.2658H148.503V11.3098C149.674 10.2951 151.065 9.71746 152.234 9.71746C153.643 9.71538 154.73 10.5488 154.726 12.4565L154.724 22.2658H159.196V11.898C159.196 11.6422 159.188 11.3971 159.171 11.1584C160.365 10.2418 161.731 9.71746 162.879 9.7132C164.324 9.70893 165.428 10.536 165.422 12.4565L165.42 22.2658H169.892V11.898C169.899 7.76287 167.486 5.91699 164.626 5.91699Z" fill="white"/>
<path d="M190 14.6478C190.024 9.40633 187.168 5.91705 182.24 5.91705C177.361 5.89998 174.141 9.63868 174.141 14.3152C174.141 18.9577 177.395 22.7113 182.323 22.7113C184.618 22.708 186.847 21.9538 188.669 20.5649L187.628 17.764C185.935 18.5911 184.265 19.0728 182.745 19.0771C180.67 19.0792 179.202 17.8301 178.806 15.641C178.791 15.5579 178.776 15.4748 178.763 15.3895H189.977C189.992 15.1402 190 14.8929 190 14.6478ZM178.825 12.6761C179.223 10.7747 180.448 9.53851 182.347 9.53851C184.387 9.53851 185.314 10.762 185.588 12.6761H178.825Z" fill="white"/>
<path d="M57.0765 5.82324C51.0114 5.82324 46.0938 11.6722 46.0938 18.8852C46.093 19.8674 46.1862 20.8473 46.3721 21.8119H48.1362C47.9692 19.9446 47.7401 13.1898 52.6449 9.16551L52.7198 9.10155L54.8885 8.98004L54.2035 9.56194C54.1628 9.59821 50.078 13.209 50.7481 21.8119H63.405C64.0751 13.209 59.9903 9.59821 59.9475 9.56194L59.2709 8.98004L61.4311 9.10155L61.5082 9.16551C66.4108 13.1877 66.1839 19.9446 66.0148 21.8119H67.781C67.9669 20.8473 68.0601 19.8674 68.0593 18.8852C68.0593 11.6722 63.1417 5.82324 57.0765 5.82324Z" fill="white"/>
</g>
<defs>
<clipPath id="clip0_376_460">
<rect width="190" height="32.1538" fill="white"/>
</clipPath>
</defs>
</svg>
