<svg width="80" height="80" viewBox="0 0 80 80" fill="none" xmlns="http://www.w3.org/2000/svg">
<circle cx="40" cy="40" r="40" fill="#F9FDFF"/>
<path fill-rule="evenodd" clip-rule="evenodd" d="M62.5929 52.1162C63.5037 49.5812 64 46.8486 64 44C64 30.7452 53.2548 20 40 20C26.7452 20 16 30.7452 16 44C16 46.8486 16.4963 49.5812 17.4071 52.1162H62.5929Z" fill="#2C3131"/>
<path fill-rule="evenodd" clip-rule="evenodd" d="M39.2488 28.04C36.5246 28.2181 33.8841 29.2268 31.7028 30.9229C30.8004 31.6246 29.3401 33.0589 29.1607 33.4198C29.0158 33.7115 28.9636 34.0913 29.0259 34.401C29.097 34.7546 29.1955 34.9479 29.4254 35.1851C29.8245 35.597 30.4594 35.7406 30.9851 35.538C31.2092 35.4516 31.3366 35.3433 32.0373 34.644C33.1999 33.4835 33.9405 32.9036 34.9824 32.3376C36.0487 31.7583 37.1114 31.392 38.3863 31.1644C39.1334 31.031 40.6728 30.9991 41.4637 31.1005C42.7295 31.2629 43.8969 31.6189 45.0103 32.1823C46.187 32.7777 47.0042 33.3802 48.0427 34.4179C48.3621 34.7371 48.7008 35.0471 48.7954 35.1069C49.0488 35.267 49.3364 35.3349 49.6517 35.3089C50.6728 35.2247 51.2911 34.1322 50.8621 33.1704C50.6625 32.7229 49.3955 31.4981 48.2862 30.6801C46.1541 29.1079 43.7016 28.2219 40.9671 28.036C40.2475 27.9871 40.0513 27.9876 39.2488 28.04ZM39.053 33.581C37.6075 33.8038 36.2982 34.3714 35.1294 35.2819C34.5783 35.7113 33.278 37.058 33.1408 37.3416C32.733 38.1843 33.0527 39.153 33.8807 39.5836C34.1049 39.7002 34.1683 39.7123 34.5582 39.7123C35.1975 39.7123 35.3002 39.6518 36.2373 38.7222C37.2246 37.7431 37.7445 37.3851 38.6135 37.0863C39.6556 36.7279 40.8622 36.729 41.9098 37.0892C42.7272 37.3703 43.2921 37.7516 44.193 38.6301C44.8937 39.3134 45.1339 39.4476 45.6555 39.447C45.8447 39.4468 46.0782 39.4222 46.1742 39.3924C46.5984 39.2606 47.0115 38.845 47.1834 38.3769C47.3197 38.0061 47.2917 37.464 47.1184 37.1122C46.8803 36.6294 45.838 35.607 44.9243 34.9601C43.8848 34.2243 42.564 33.7194 41.2478 33.555C40.7398 33.4915 39.5419 33.5057 39.053 33.581ZM39.4904 39.802C38.6478 39.9898 37.9149 40.6714 37.6088 41.552C37.4466 42.0186 37.4562 42.7367 37.6315 43.2486C37.9082 44.0567 38.5998 44.7126 39.4025 44.9283C39.5705 44.9734 39.8361 45.0012 40.0881 45C40.8129 44.9965 41.4654 44.6945 41.9596 44.1339C42.5279 43.4894 42.747 42.5855 42.5381 41.7474C42.4144 41.2508 42.2227 40.9102 41.8503 40.525C41.2173 39.8704 40.361 39.6081 39.4904 39.802Z" fill="#E9E9E9"/>
<rect x="14" y="52" width="52" height="2" rx="1" fill="#2C3131"/>
</svg>
