<svg width="32" height="32" viewBox="0 0 32 32" fill="none" xmlns="http://www.w3.org/2000/svg">
<path d="M23.6563 4.18608C23.8407 4.26007 23.9883 4.40428 24.0664 4.58701C24.1446 4.76973 24.147 4.97602 24.073 5.1605L23.0192 7.79444C22.8048 8.33047 22.8048 8.92841 23.0192 9.46445L23.6278 10.9845C23.9852 11.8781 23.9852 12.8749 23.6278 13.7684L23.0192 15.29C22.8048 15.826 22.8048 16.424 23.0192 16.96L23.6278 18.4801C23.9852 19.3736 23.9852 20.3704 23.6278 21.2639L23.0192 22.7855C22.8048 23.3216 22.8048 23.9195 23.0192 24.4555L24.073 27.0895C24.1121 27.1813 24.1324 27.2799 24.1328 27.3797C24.1332 27.4794 24.1137 27.5782 24.0755 27.6703C24.0372 27.7625 23.9809 27.846 23.9099 27.9161C23.839 27.9862 23.7547 28.0414 23.6622 28.0785C23.5696 28.1156 23.4705 28.1339 23.3708 28.1322C23.271 28.1306 23.1727 28.109 23.0814 28.0688C22.9901 28.0287 22.9077 27.9707 22.8391 27.8983C22.7705 27.8258 22.7171 27.7405 22.6819 27.6471L21.628 25.0117C21.2706 24.1182 21.2706 23.1214 21.628 22.2279L22.2366 20.7078C22.451 20.1717 22.451 19.5738 22.2366 19.0378L21.628 17.5162C21.2706 16.6226 21.2706 15.6258 21.628 14.7323L22.2366 13.2122C22.451 12.6762 22.451 12.0782 22.2366 11.5422L21.628 10.0206C21.2706 9.12708 21.2706 8.1303 21.628 7.23677L22.6819 4.60283C22.7559 4.41838 22.9001 4.27086 23.0828 4.19271C23.2655 4.11456 23.4718 4.11217 23.6563 4.18608ZM19.159 4.18608C19.3434 4.26007 19.4909 4.40428 19.5691 4.58701C19.6472 4.76973 19.6496 4.97602 19.5757 5.1605L18.5218 7.79444C18.3075 8.33047 18.3075 8.92841 18.5218 9.46444L19.1305 10.9845C19.4879 11.8781 19.4879 12.8749 19.1305 13.7684L18.5218 15.29C18.3075 15.826 18.3075 16.424 18.5218 16.96L19.1305 18.4801C19.4879 19.3736 19.4879 20.3704 19.1305 21.2639L18.5218 22.7855C18.3075 23.3216 18.3075 23.9195 18.5218 24.4555L19.5757 27.0895C19.6147 27.1813 19.6351 27.2799 19.6355 27.3797C19.6359 27.4794 19.6164 27.5782 19.5781 27.6703C19.5399 27.7625 19.4836 27.846 19.4126 27.9161C19.3416 27.9862 19.2574 28.0414 19.1648 28.0785C19.0722 28.1156 18.9732 28.1339 18.8735 28.1322C18.7737 28.1306 18.6753 28.109 18.584 28.0688C18.4927 28.0287 18.4104 27.9707 18.3418 27.8983C18.2732 27.8258 18.2197 27.7405 18.1845 27.6471L17.1307 25.0117C16.7732 24.1182 16.7732 23.1214 17.1307 22.2279L17.7393 20.7078C17.9537 20.1717 17.9537 19.5738 17.7393 19.0378L17.1307 17.5162C16.7733 16.6226 16.7733 15.6258 17.1307 14.7323L17.7393 13.2122C17.9537 12.6762 17.9537 12.0782 17.7393 11.5422L17.1307 10.0206C16.7733 9.12708 16.7733 8.1303 17.1307 7.23677L18.1845 4.60283C18.2585 4.41838 18.4027 4.27086 18.5855 4.19271C18.7682 4.11456 18.9745 4.11217 19.159 4.18608ZM14.6616 4.18608C14.8461 4.26007 14.9936 4.40428 15.0718 4.58701C15.1499 4.76973 15.1523 4.97602 15.0784 5.1605L14.0245 7.79444C13.8101 8.33047 13.8101 8.92841 14.0245 9.46444L14.6332 10.9845C14.9906 11.8781 14.9906 12.8749 14.6332 13.7684L14.0245 15.29C13.8101 15.826 13.8101 16.424 14.0245 16.96L14.6332 18.4801C14.9906 19.3736 14.9906 20.3704 14.6332 21.2639L14.0245 22.7855C13.8101 23.3216 13.8101 23.9195 14.0245 24.4555L15.0784 27.0895C15.1174 27.1813 15.1377 27.2799 15.1381 27.3797C15.1386 27.4794 15.1191 27.5782 15.0808 27.6703C15.0425 27.7625 14.9863 27.846 14.9153 27.9161C14.8443 27.9862 14.7601 28.0414 14.6675 28.0785C14.5749 28.1156 14.4759 28.1339 14.3761 28.1322C14.2764 28.1306 14.178 28.109 14.0867 28.0688C13.9954 28.0287 13.913 27.9707 13.8445 27.8983C13.7759 27.8258 13.7224 27.7405 13.6872 27.6471L12.6333 25.0117C12.2759 24.1182 12.2759 23.1214 12.6333 22.2279L13.242 20.7078C13.4564 20.1717 13.4564 19.5738 13.242 19.0378L12.6333 17.5162C12.2759 16.6226 12.2759 15.6258 12.6333 14.7323L13.242 13.2122C13.4564 12.6762 13.4564 12.0782 13.242 11.5422L12.6333 10.0206C12.2759 9.12708 12.2759 8.1303 12.6333 7.23677L13.6872 4.60283C13.7612 4.41838 13.9054 4.27086 14.0881 4.19271C14.2709 4.11456 14.4772 4.11217 14.6616 4.18608ZM10.1643 4.18608C10.3488 4.26007 10.4963 4.40428 10.5744 4.58701C10.6526 4.76973 10.655 4.97602 10.5811 5.1605L9.52719 7.79444C9.31282 8.33047 9.31282 8.92841 9.52719 9.46444L10.1358 10.9845C10.4933 11.8781 10.4933 12.8749 10.1358 13.7684L9.52719 15.29C9.31282 15.826 9.31282 16.424 9.52719 16.96L10.1358 18.4801C10.4933 19.3736 10.4933 20.3704 10.1358 21.2639L9.52719 22.7855C9.31282 23.3216 9.31282 23.9195 9.52719 24.4555L10.5811 27.0895C10.6201 27.1813 10.6404 27.2799 10.6408 27.3797C10.6412 27.4794 10.6217 27.5782 10.5835 27.6703C10.5452 27.7625 10.4889 27.846 10.418 27.9161C10.347 27.9862 10.2628 28.0414 10.1702 28.0785C10.0776 28.1156 9.97853 28.1339 9.8788 28.1322C9.77907 28.1306 9.68067 28.109 9.58938 28.0688C9.49808 28.0287 9.41572 27.9707 9.34712 27.8983C9.27853 27.8258 9.22507 27.7405 9.18989 27.6471L8.13602 25.0117C7.77859 24.1182 7.77859 23.1214 8.13602 22.2279L8.74466 20.7078C8.95903 20.1717 8.95903 19.5738 8.74466 19.0378L8.13602 17.5162C7.77859 16.6226 7.77859 15.6258 8.13602 14.7323L8.74466 13.2122C8.95903 12.6762 8.95903 12.0782 8.74466 11.5422L8.13602 10.0206C7.77859 9.12708 7.77859 8.1303 8.13602 7.23677L9.18989 4.60283C9.26388 4.41838 9.40809 4.27086 9.59082 4.19271C9.77354 4.11456 9.97983 4.11217 10.1643 4.18608Z" fill="#2C3131"/>
</svg>
