<svg width="98" height="98" viewBox="0 0 98 98" fill="none" xmlns="http://www.w3.org/2000/svg"><circle opacity="0.7" cx="49" cy="49" r="48.5" transform="rotate(90 49 49)" fill="black" stroke="#707070"/><g opacity="0.9"><path d="M54.2178 56.2627V40.1606C54.2178 39.5731 53.7413 39.0967 53.1538 39.0967H24.1643C23.5764 39.0967 23.1004 39.5731 23.1004 40.1606V56.2627C23.1004 56.8502 23.5764 57.3266 24.1643 57.3266H53.1538C53.7413 57.3266 54.2178 56.8502 54.2178 56.2627Z" fill="white"/><path d="M50.1885 21.1338L76.6331 47.5783C76.983 47.9283 76.983 48.4955 76.6331 48.8454L50.1885 75.29C49.6243 75.8547 48.6589 75.4548 48.6589 74.6564V21.7674C48.6589 20.969 49.6243 20.5696 50.1885 21.1338Z" fill="white"/></g></svg>