<svg width="210" height="162" viewBox="0 0 210 162" fill="none" xmlns="http://www.w3.org/2000/svg"><g clip-path="url(#clip0_211_136)"><mask id="mask0_211_136" style="mask-type:alpha" maskUnits="userSpaceOnUse" x="-35" y="0" width="280" height="162"><path d="M245 0H-35V162H245V0Z" fill="#D9D9D9"/></mask><g mask="url(#mask0_211_136)"><path d="M192.195 44.0339C191.239 42.8707 190.01 42.0416 188.688 41.359C185.002 39.4569 181.048 38.5054 176.933 38.255C175.401 38.162 173.845 38.2416 172.315 38.3917C170.891 38.5316 169.456 38.7618 168.079 39.1443C165.48 39.867 163.82 41.6209 163.172 44.2383C162.938 45.182 162.651 45.9922 161.785 46.5455C161.354 46.8198 161.029 47.2571 160.655 47.6203C160.537 47.7345 160.418 47.8468 160.313 47.9472C160.241 47.9329 160.198 47.9329 160.162 47.9159C157.523 46.621 154.728 45.9526 151.797 45.8251C151.535 45.814 151.276 45.7657 150.975 45.7302C151.537 43.4475 151.485 41.3046 150.125 39.3676C148.774 37.4425 146.86 36.537 144.5 36.4436C144.744 35.6168 144.986 34.8453 145.197 34.0651C145.557 32.7389 145.671 31.4007 145.305 30.0538C144.178 25.909 139.71 23.832 135.821 25.6779C132.618 27.1983 129.496 28.8767 126.496 30.7663C123.515 32.6436 120.597 34.6202 117.609 36.4841C115.724 37.6598 114.57 39.2838 114.099 41.4303C114.071 41.5601 113.997 41.6803 113.944 41.8073C113.581 41.6863 113.267 41.5767 112.949 41.4763C109.903 40.5124 106.807 40.4655 103.678 40.9576C98.924 41.7056 94.734 43.6707 91.08 46.7862C90.368 47.3934 89.701 48.0535 89.003 48.6989C88.935 48.6625 88.856 48.6326 88.792 48.5838C86.221 46.6417 83.262 45.9185 80.109 45.8973C77.401 45.8794 74.822 46.516 72.383 47.6922C68.144 49.7356 64.8144 52.8119 62.202 56.6971C61.0692 58.3819 60.7635 60.2614 60.8818 62.2431C60.8979 62.5124 60.9697 62.8061 60.891 63.0482C60.6226 63.8755 60.2981 64.6847 59.9782 65.5464C59.7043 65.4889 59.4534 65.4364 59.226 65.389C59.2103 65.2776 59.1938 65.2357 59.2002 65.1975C59.783 61.6838 60.438 58.1826 61.4301 54.7596C61.8913 53.1691 62.0022 51.5649 61.9452 49.9372C61.889 48.3555 61.2768 46.9773 60.2074 45.8209C57.8492 43.2721 54.086 42.8615 51.2241 44.8772C50.0158 45.7284 48.8787 46.6822 47.7334 47.6185C46.9288 48.2763 46.1642 48.9829 45.3572 49.6891C45.2366 49.4897 45.1344 49.313 45.0253 49.1413C43.6549 46.9888 41.7059 45.8725 39.1423 45.8444C38.1029 45.8329 37.122 46.1118 36.1516 46.4304C33.4301 47.323 30.8491 48.5373 28.3283 49.8852C25.1976 51.5594 22.1852 53.4209 19.4136 55.648C15.0663 59.141 11.2584 63.1541 7.95462 67.6446C5.75062 70.6404 3.80712 73.7941 2.22862 77.167C1.75722 78.1737 1.38622 79.1984 1.32872 80.329C1.20622 82.7392 1.47002 85.0372 3.10512 86.9839C3.05492 87.1492 3.01212 87.3085 2.95822 87.4641C1.36142 92.0572 0.433818 96.7894 0.163618 101.638C0.0241177 104.132 -0.0794833 106.631 0.0821167 109.136C0.232617 111.472 0.536515 113.778 1.12942 116.041C2.31422 120.563 4.42942 124.582 7.70702 127.943C12.5372 132.895 18.5132 135.392 25.3237 136.042C27.6143 136.26 29.9013 136.163 32.1813 135.834C36.2193 135.254 39.9714 133.9 43.422 131.722C47.0273 129.446 49.9785 126.457 52.6571 123.182C53.5133 122.135 54.2568 120.996 55.0964 119.934C56.3641 118.332 57.665 116.756 58.9632 115.179C59.5777 114.432 60.1121 113.641 60.4169 112.718C60.5094 112.437 60.6963 112.345 60.9449 112.255C62.1228 111.826 63.1287 111.141 63.9522 110.189C65.152 108.802 66.343 107.405 67.569 106.042C69.453 103.949 71.378 101.895 73.494 100.031C74.134 99.4676 74.808 98.9382 75.418 98.3439C75.674 98.0944 75.892 98.0019 76.235 98.0636C78.104 98.3996 79.97 98.3366 81.824 97.9609C85.42 97.2331 88.485 95.5088 91.113 92.9747C91.274 92.8195 91.437 92.6676 91.61 92.5047C95.3 95.5695 99.508 97.0389 104.241 96.8842C108.938 96.7314 113.176 95.2528 116.89 92.1212C117.058 92.3371 117.182 92.5355 117.343 92.6966C118.771 94.1282 120.405 95.2662 122.25 96.0971C124.516 97.1176 126.893 97.5848 129.371 97.3671C132.304 97.1093 134.941 96.0114 137.347 94.3478C137.744 94.073 138.066 93.9961 138.539 94.1743C141.915 95.4434 145.397 95.6818 148.938 95.1133C152.756 94.5006 156.191 92.971 159.299 90.6864C159.448 90.5773 159.605 90.4801 159.723 90.4014C159.797 90.4051 159.82 90.4009 159.838 90.4083C159.895 90.4323 159.952 90.458 160.007 90.487C164.072 92.6381 168.382 93.3645 172.902 92.5383C179.106 91.4036 183.65 87.9456 186.656 82.4317C187.562 80.7704 188.05 78.9618 188.5 77.1375C189.396 73.5064 189.225 69.9481 187.806 66.4754C187.476 65.6693 187.061 64.8983 186.673 64.0877C186.713 64.0361 186.754 63.9638 186.812 63.9095C187.535 63.2269 188.062 62.4093 188.492 61.519C189.551 59.3233 190.617 57.1307 191.686 54.94C192.538 53.1968 193.374 51.4558 193.617 49.4911C193.867 47.473 193.507 45.6294 192.195 44.0339ZM64.3794 98.2233C62.5141 100.234 60.7041 102.297 58.8186 104.394C58.7726 103.554 58.7261 102.774 58.6874 101.994C58.4895 98.0175 58.1898 94.05 57.4045 90.1404C57.1633 88.9413 56.7849 87.7651 56.401 86.6014C56.2417 86.118 55.9508 85.6568 55.6354 85.2513C55.1051 84.5691 54.4878 84.5101 53.7702 84.9939C52.9964 85.515 52.5218 86.2658 52.177 87.1096C51.748 88.161 51.5482 89.2672 51.4345 90.389C51.2002 92.704 51.37 95.0088 51.6306 97.3114C52.0711 101.21 52.8652 105.039 53.871 108.827C53.9631 109.174 53.8839 109.407 53.6652 109.674C52.1489 111.531 50.6344 113.39 49.1471 115.27C48.2946 116.348 47.5254 117.493 46.6646 118.565C44.4094 121.373 41.7823 123.757 38.5683 125.437C35.9919 126.783 33.2552 127.599 30.3547 127.875C26.2205 128.268 22.2386 127.701 18.4731 125.929C13.0956 123.398 9.69102 119.17 8.01912 113.511C7.35442 111.262 7.04142 108.954 6.98892 106.61C6.93502 104.21 6.99032 101.814 7.28122 99.4308C7.81242 95.0848 8.89562 90.8825 10.6342 86.8573C13.0113 81.355 16.3073 76.4852 20.6551 72.3427C20.9971 72.0164 21.352 71.7033 21.6632 71.319C21.4865 71.4096 21.3083 71.4967 21.1338 71.591C17.286 73.6781 13.8091 76.2974 10.434 79.0621C9.80652 79.5763 9.17182 80.0822 8.54062 80.5918C8.49462 80.6107 8.44902 80.63 8.40352 80.6494C8.41172 80.5978 8.42002 80.5462 8.42792 80.4947L8.42692 80.4942C8.69902 79.9096 8.94532 79.3121 9.24682 78.7436C11.5346 74.4276 14.3679 70.4977 17.6814 66.9122C20.4507 63.9155 23.4622 61.1959 26.893 58.9674C30.2935 56.7588 33.8472 54.8452 37.6638 53.4472C38.091 53.2907 38.5338 53.1747 39.0194 53.0246C39.0194 53.2387 39.0411 53.4016 39.0162 53.5572C38.6212 56.0029 38.1987 58.444 37.8272 60.8934C37.4898 63.1164 37.1979 65.3467 36.9015 67.5756C36.6294 69.619 36.3744 71.6647 36.1217 73.7108C36.0724 74.1095 35.9265 74.3673 35.5297 74.5592C34.4341 75.0872 33.4716 75.8316 32.5666 76.6339C28.3237 80.3939 24.787 84.7026 22.4191 89.8951C21.0777 92.8365 20.2302 95.9125 19.9761 99.1495C19.7303 102.286 20.0369 105.356 21.0409 108.334C22.0112 111.213 23.8097 113.404 26.6541 114.618C28.6298 115.462 30.6985 115.693 32.8368 115.492C35.8671 115.207 38.642 114.222 41.1867 112.57C42.4024 111.781 43.4436 110.795 44.397 109.707C44.6313 109.439 44.6672 109.189 44.617 108.856C44.2 106.076 43.7631 103.299 43.405 100.512C43.0763 97.9513 42.8263 95.3799 42.5653 92.8112C42.4493 91.6715 42.3757 90.5271 42.3099 89.3832C42.1004 85.7401 41.9674 82.0948 42.047 78.4453C42.1432 74.0667 42.4503 69.7064 43.2475 65.3918C43.2545 65.3536 43.2393 65.3108 43.2291 65.2242C41.9508 65.8802 40.6849 66.5297 39.3822 67.1976C40.0326 64.5867 51.3636 52.828 55.0568 50.9209C52.7013 59.466 51.4971 68.1505 50.9024 76.9801C51.0096 76.8296 51.1187 76.6809 51.2237 76.529C52.3133 74.9542 53.6763 73.6998 55.4384 72.9076C57.3649 72.0417 59.1178 72.4168 60.5181 74.0018C61.2703 74.8538 61.8374 75.8219 62.3028 76.853C63.2958 79.0525 63.8762 81.3725 64.302 83.7354C64.8692 86.8813 65.138 90.0534 65.07 93.2513C65.067 93.4166 65.07 93.5823 65.07 93.8207C66.797 93.1473 68.484 92.5001 70.345 92.4775C68.208 94.2488 66.256 96.2002 64.3794 98.2233ZM88.11 84.6036C86.372 87.4084 83.892 89.2326 80.66 89.9682C78.216 90.5248 75.944 89.9788 73.822 88.7318C71.423 87.3223 69.657 85.2991 68.295 82.9022C67.074 80.7525 66.434 78.4089 66.064 75.9858C65.828 74.4386 65.762 72.885 65.902 71.3157C66.204 67.9277 67.343 64.8619 69.392 62.1584C70.192 61.102 71.139 60.1565 72.007 59.1746C70.609 59.547 69.275 60.2117 67.849 60.9671C67.914 60.8055 67.929 60.7374 67.965 60.6845C69.668 58.2185 71.717 56.1129 74.341 54.6173C76.131 53.5972 78.057 53.0246 80.125 53.0651C81.815 53.0982 83.437 53.4223 84.812 54.5197C85.936 55.4165 86.697 56.57 87.207 57.8944C87.991 59.935 88.194 62.0484 87.995 64.2198C87.822 66.1071 87.369 67.9139 86.564 69.625C85.558 71.7659 84.154 73.569 82.029 74.7166C80.31 75.6451 78.461 76.0056 76.532 75.7768C74.67 75.5554 73.282 74.5634 72.382 72.9108C72.224 72.6217 72.093 72.3183 71.847 72.0325C71.876 72.3782 71.886 72.7262 71.935 73.0691C72.307 75.6658 73.127 78.1014 74.742 80.1959C76.547 82.5385 79.007 83.3584 81.885 83.0081C83.609 82.7982 85.197 82.1984 86.587 81.1286C88.174 79.9064 89.214 78.3054 89.836 76.4171C89.899 76.2251 89.964 76.0341 90.064 75.7326C90.127 75.9084 90.171 75.9761 90.173 76.0452C90.262 79.0847 89.731 81.9857 88.11 84.6036ZM117.382 60.5358C117.128 63.2807 116.332 65.836 114.855 68.1708C113.003 71.0985 110.356 72.8187 106.926 73.2569C104.694 73.5419 102.556 73.222 100.671 71.8649C99.828 71.2577 99.161 70.495 98.641 69.5683C98.541 70.7601 98.72 71.9261 98.971 73.0802C99.382 74.9735 100.056 76.7545 101.318 78.2662C102.577 79.7747 104.205 80.6084 106.127 80.9348C108.761 81.3817 111.061 80.5292 113.211 79.1224C114.645 78.1843 115.845 77.0141 116.599 75.4417C116.621 75.3966 116.678 75.3685 116.813 75.2497C116.864 75.7805 116.96 76.2279 116.94 76.6698C116.737 81.2602 113.793 86.5577 108.022 88.2061C106.734 88.5739 105.428 88.8137 104.084 88.816C99.562 88.8252 96.121 86.85 93.673 83.0969C92.332 81.0402 91.588 78.7514 91.208 76.3379C90.804 73.7656 90.89 71.1914 91.179 68.6136C91.517 65.6123 92.216 62.709 93.469 59.9548C94.649 57.3627 96.222 55.0533 98.447 53.2317C98.716 53.0117 98.995 52.8041 99.246 52.55C97.229 52.8363 95.376 53.6083 93.541 54.4369C93.514 54.4019 93.486 54.3674 93.459 54.3329C93.593 54.1671 93.716 53.9917 93.862 53.8371C96.862 50.647 100.499 48.6602 104.848 47.9978C106.725 47.712 108.588 47.6788 110.424 48.1999C113.532 49.0814 115.532 51.1492 116.62 54.1386C117.372 56.2068 117.584 58.3437 117.382 60.5358ZM153.831 85.1689C150.997 86.8118 147.932 87.5603 144.657 87.2873C142.019 87.0672 139.618 86.2005 137.572 84.4669C137.493 84.4006 137.407 84.3426 137.266 84.2362C137.123 84.4673 137.015 84.6409 136.907 84.8158C135.893 86.4684 134.565 87.7914 132.821 88.6683C129.664 90.2564 126.186 89.7266 123.639 87.2749C121.861 85.5643 120.768 83.4597 120.123 81.1055C119.641 79.3494 119.42 77.5527 119.362 75.7358C119.239 71.8801 119.744 68.0856 120.543 64.3266C122.048 57.2486 124.442 50.4624 127.335 43.8429C127.441 43.5994 127.541 43.354 127.669 43.0516C125.508 43 123.421 42.9499 121.333 42.9001C121.319 42.8527 121.304 42.8058 121.289 42.7584C127.013 39.0895 132.565 35.1326 138.901 32.2596C137.396 36.8132 135.922 41.2715 134.415 45.8329C134.697 45.7836 134.892 45.7606 135.08 45.715C137.144 45.216 139.201 44.6867 141.273 44.2227C142.363 43.9782 143.478 43.8466 144.657 43.6514C144.604 43.8434 144.594 43.9446 144.551 44.0275C143.496 46.0276 142.305 47.9407 140.669 49.5201C138.437 51.6735 135.812 53.1705 132.797 53.9278C132.297 54.0534 132.092 54.2873 131.935 54.7481C130.314 59.5286 129.014 64.3929 128.153 69.3676C127.848 71.1307 127.615 72.9085 127.422 74.6876C127.276 76.0382 127.347 77.3925 127.715 78.7174C128.201 80.4638 129.286 81.6699 130.953 82.3627C132.389 82.9593 133.845 83.1268 135.337 82.5827C135.431 82.5487 135.52 82.5045 135.672 82.4386C133.188 78.6589 132.833 74.5472 133.802 70.3003C134.777 66.0312 137.286 62.7536 140.819 60.2011C139.898 60.2748 139.039 60.5487 138.199 60.8709C137.349 61.1977 136.522 61.583 135.618 61.9715C135.75 61.6553 135.955 61.4357 136.148 61.212C137.207 59.9792 138.485 59.0162 139.894 58.2249C141.501 57.3227 143.187 56.6156 145.002 56.2451C145.143 56.2165 145.279 56.165 145.535 56.0899C143.384 55.5246 141.359 55.776 139.289 56.0669C139.485 55.9274 139.674 55.7783 139.878 55.6503C141.503 54.6311 143.287 54.0014 145.137 53.5498C147.09 53.0729 149.074 52.8294 151.085 52.9252C154.064 53.0665 156.842 53.821 159.211 55.7373C160.959 57.1524 162.161 58.9578 162.916 61.0582C164.606 65.7564 164.454 70.4296 162.566 75.0292C160.786 79.3683 157.911 82.8032 153.831 85.1689ZM182.577 57.7167C182.289 57.5165 182.079 57.3526 181.852 57.2173C179.83 56.0094 177.661 55.5246 175.319 55.9132C175.156 55.9403 174.994 55.9863 174.835 56.0338C172.803 56.64 171.982 58.7313 173.059 60.5675C173.52 61.3538 174.188 61.9568 174.889 62.5193C175.846 63.2899 176.837 64.02 177.789 64.7984C178.922 65.726 179.973 66.7419 180.749 67.9982C182.519 70.8665 182.724 73.9161 181.466 76.9833C179.664 81.379 176.347 84.0051 171.626 84.6864C168.2 85.1808 165.05 84.3499 162.238 82.3079C161.784 81.9788 161.346 81.628 160.849 81.2478C162.356 79.3126 163.454 77.2434 164.357 74.9836C164.628 75.1945 164.852 75.3712 165.079 75.5448C166.2 76.4019 167.415 77.0685 168.81 77.3649C170.62 77.7493 172.255 77.0814 173.277 75.5752C173.846 74.7364 173.94 73.8406 173.695 72.8891C173.422 71.8304 172.824 70.9512 172.084 70.1769C171.582 69.6521 171.042 69.1481 170.457 68.7199C169.062 67.6985 167.634 66.7212 166.209 65.7412C165.933 65.5515 165.784 65.3605 165.748 65.0023C165.531 62.802 164.935 60.7084 163.839 58.7778C163.542 58.2544 163.188 57.7595 162.822 57.2803C162.627 57.0244 162.619 56.8283 162.767 56.5516C164.53 53.2653 167.044 50.7787 170.482 49.2692C172.065 48.5737 172.956 48.3454 175.531 47.9762C173.773 46.998 171.906 46.6131 170.042 46.0515C174.245 44.3801 184.192 45.9807 186.885 48.7795C185.467 51.7214 184.034 54.6942 182.577 57.7167Z" fill="white"/><path d="M80.812 68.9155C79.974 69.7841 78.94 70.1529 77.75 70.0019C76.673 69.8656 75.995 69.1871 75.594 68.2227C75.42 67.8066 75.323 67.3587 75.146 66.7736C74.033 68.097 73.009 69.3156 71.985 70.534C71.953 70.528 71.92 70.5225 71.887 70.517C71.947 69.9706 71.974 69.4186 72.072 68.8792C72.536 66.3395 73.567 64.0747 75.419 62.2352C76.29 61.3698 77.306 60.7359 78.526 60.4634C80.14 60.1021 81.364 60.7184 82.016 62.2352C82.88 64.2446 82.325 67.3462 80.812 68.9155ZM109.267 65.0492C108.732 65.9252 108.016 66.6028 107.08 67.0388C104.759 68.1196 102.224 66.8293 101.95 64.1962C101.945 64.1557 101.931 64.1157 101.887 63.9375C101.301 64.5189 100.779 65.0193 100.277 65.539C99.774 66.0615 99.291 66.6033 98.725 67.216C98.725 66.9973 98.709 66.8643 98.728 66.7368C99.115 64.1401 99.962 61.7247 101.596 59.6349C102.603 58.3477 103.82 57.3212 105.399 56.7988C106.136 56.5552 106.886 56.4176 107.672 56.5714C108.621 56.7569 109.328 57.2794 109.752 58.118C110.02 58.6484 110.239 59.239 110.316 59.8235C110.558 61.6723 110.251 63.4353 109.267 65.0492ZM152.098 77.1287C151.002 78.1317 149.729 78.8462 148.244 79.0741C146.245 79.3806 144.424 78.9682 142.933 77.52C141.89 76.5077 141.478 75.2105 141.386 73.7987C141.28 72.1645 141.657 70.6114 142.251 69.1052C142.94 67.3601 143.882 65.7765 145.285 64.4996C146.419 63.468 147.711 62.7466 149.233 62.4686C149.392 62.4396 149.548 62.3913 149.816 62.3241C148.152 61.3449 146.457 60.7879 144.575 60.5721C145.041 60.277 145.527 60.2738 145.985 60.1951C147.865 59.8696 149.72 59.9594 151.529 60.607C154.417 61.6414 156.2 64.0144 156.281 67.0788C156.386 71.0381 155.047 74.4312 152.098 77.1287Z" fill="white"/><path d="M200.28 70.6911C200.177 70.9503 200.078 71.1988 199.962 71.4907H198.3C198.076 71.1813 197.81 70.8144 197.545 70.4457C197.341 70.1617 197.084 70.0503 196.722 70.1773V71.5528C196.511 71.5727 196.297 71.5924 196.019 71.6182C195.975 70.4112 195.934 69.2581 195.89 68.0147C196.597 68.0147 197.237 67.9986 197.876 68.0198C198.411 68.0373 198.712 68.2997 198.811 68.7692C198.915 69.2636 198.763 69.6005 198.311 69.8694C198.246 69.9081 198.172 69.9297 198.096 69.961C198.467 70.4568 198.823 70.9309 199.214 71.4534C199.648 70.2505 200.061 69.1062 200.483 67.9374H201.272C201.76 69.0611 202.255 70.2027 202.77 71.3917H201.967C201.865 71.1661 201.764 70.942 201.651 70.6911H200.28ZM196.691 69.5292C197.068 69.5053 197.416 69.5048 197.757 69.4542C197.99 69.4192 198.1 69.2314 198.069 68.9929C198.042 68.7849 197.921 68.6491 197.701 68.6449C197.358 68.638 197.015 68.6431 196.691 68.6431V69.5292ZM201.382 70.013C201.225 69.6199 201.085 69.2701 200.945 68.9207L200.836 68.9496C200.722 69.2917 200.609 69.6342 200.483 70.013H201.382Z" fill="white"/><path d="M198.075 63.8958C198.077 65.6768 196.688 67.0656 194.906 67.0638C193.122 67.0624 191.729 65.6741 191.729 63.8995C191.729 62.1272 193.129 60.7273 194.902 60.726C196.679 60.7246 198.075 62.1185 198.075 63.8958ZM197.427 63.905C197.432 62.484 196.322 61.376 194.9 61.3815C193.512 61.3865 192.401 62.4826 192.385 63.8622C192.368 65.2823 193.469 66.4073 194.885 66.4161C196.31 66.4253 197.422 65.3265 197.427 63.905Z" fill="white"/><path d="M192.421 68.1082C192.958 68.1082 193.515 68.1123 194.072 68.1068C194.518 68.1026 194.912 68.2145 195.102 68.656C195.278 69.0634 195.134 69.4178 194.87 69.659C195.051 69.932 195.287 70.1626 195.367 70.4384C195.53 70.9944 195.101 71.5289 194.475 71.6297C194.333 71.6527 194.186 71.655 194.04 71.6559C193.523 71.6587 193.007 71.6569 192.421 71.6569V68.1082ZM193.161 71.0165C193.54 71.0165 193.866 71.0276 194.191 71.0128C194.448 71.0013 194.628 70.8651 194.63 70.5912C194.632 70.3219 194.466 70.1696 194.204 70.158C193.861 70.1424 193.518 70.1539 193.161 70.1539V71.0165ZM193.141 69.5315C193.499 69.5099 193.825 69.509 194.145 69.4647C194.351 69.4362 194.493 69.2692 194.428 69.0643C194.387 68.9382 194.231 68.7784 194.11 68.7623C193.791 68.7204 193.463 68.748 193.141 68.748V69.5315Z" fill="white"/><path d="M205.889 67.7699V71.2523C205.333 71.4474 205.297 71.4392 204.984 70.9632C204.62 70.4117 204.26 69.8575 203.824 69.1914V71.3618H203.168C203.128 70.2091 203.088 69.0726 203.046 67.8817C203.289 67.8619 203.509 67.844 203.748 67.8246C204.22 68.5363 204.682 69.2328 205.144 69.9288C205.172 69.9131 205.199 69.8975 205.226 69.8823V67.8132C205.43 67.7998 205.624 67.7874 205.889 67.7699Z" fill="white"/><path d="M206.678 71.2753V67.7506C207.258 67.7506 207.872 67.7257 208.482 67.7593C208.937 67.7842 209.276 68.0792 209.409 68.4903C209.548 68.9143 209.651 69.3806 209.627 69.8211C209.576 70.7611 209.039 71.2344 208.092 71.2725C207.641 71.2905 207.189 71.2753 206.678 71.2753ZM207.412 70.6553C207.941 70.612 208.498 70.8343 208.755 70.2667C208.994 69.7364 208.994 69.1417 208.667 68.6509C208.369 68.204 207.869 68.3301 207.412 68.3923V70.6553Z" fill="white"/><path d="M193.4 62.2348C194.012 62.2348 194.53 62.2298 195.048 62.2362C195.721 62.2445 196.038 62.4461 196.153 62.923C196.278 63.4386 196.087 63.7658 195.486 64.0812C195.793 64.5365 196.101 64.9936 196.464 65.5308H195.595C195.162 65.1026 195.158 64.2119 194.209 64.2639V65.6067C193.973 65.6205 193.778 65.632 193.525 65.6468C193.484 64.5158 193.443 63.4266 193.4 62.2348ZM194.167 63.6738C194.51 63.6549 194.795 63.6559 195.076 63.6185C195.273 63.5928 195.406 63.4694 195.417 63.2457C195.43 62.9948 195.296 62.8392 195.071 62.8157C194.775 62.7844 194.473 62.8079 194.167 62.8079V63.6738Z" fill="white"/><path d="M75.639 105.482C75.856 105.641 76.024 105.759 76.169 105.909C76.531 106.296 77.012 106.47 77.446 106.708C77.663 106.814 77.856 106.899 78.048 107.011C78.29 107.137 78.29 107.164 78.169 107.431C78.097 107.66 78 107.868 77.904 108.103C77.639 108.802 77.374 109.5 77.084 110.204C77.061 110.29 77.037 110.375 77.061 110.474C77.277 110.184 77.494 109.894 77.687 109.609C78.41 108.641 79.109 107.705 79.807 106.716C80.193 106.173 80.578 105.63 81.012 105.076C81.325 104.682 81.711 104.298 82.048 103.873C82.409 104.208 82.747 104.522 83.108 104.804C83.446 105.092 83.807 105.375 84.145 105.663C84.048 105.898 83.976 106.073 83.855 106.261C83.133 107.467 82.602 108.732 82.12 110.064C81.133 112.709 80.289 115.424 79.735 118.148C79.494 119.29 79.374 120.429 79.205 121.579C79.181 121.638 79.181 121.691 79.181 121.771C79.132 122.02 79.109 122.052 78.892 122.078C78.651 122.111 78.434 122.084 78.193 122.116C77.59 122.236 76.988 122.356 76.386 122.476C75.711 122.613 75.783 122.569 75.831 121.923C75.976 120.356 76.721 117.558 77.082 115.964C77.106 115.878 77.13 115.793 77.154 115.603C77.034 115.79 76.938 115.919 76.865 116.016C76.166 117.216 75.012 119.612 74.289 120.792C74.072 121.188 73.856 121.584 73.639 121.954C73.519 122.142 73.47 122.153 73.302 122.089C72.579 121.736 71.832 121.415 71.085 121.068C71.013 121.033 70.94 120.998 70.844 120.968C70.675 120.903 70.603 120.762 70.651 120.539C70.699 120.343 70.748 120.119 70.796 119.923C71.085 118.795 71.902 116.456 72.191 115.302C72.239 115.158 72.263 114.967 72.287 114.803C70.094 117.793 66.058 124.613 64.1303 127.804C63.9858 127.627 63.8652 127.498 63.745 127.395C63.3837 127.007 63.0218 126.646 62.6605 126.284C62.5159 126.134 62.3954 126.058 62.2029 126.026C61.8899 125.943 61.5765 125.861 61.2629 125.778C60.9738 125.716 60.9738 125.69 61.1184 125.364C61.5281 124.366 64.8199 117.78 65.254 116.724C65.302 116.58 65.375 116.457 65.422 116.313C65.206 116.286 65.037 116.539 64.8443 116.533C64.6275 116.216 63.8564 114.025 63.7602 113.387C63.8564 113.285 63.977 113.203 64.0972 113.12C65.615 112.039 66.941 110.739 68.169 109.252C68.676 108.601 69.182 107.949 69.687 107.298C69.856 107.072 70.025 106.793 70.193 106.567C70.338 106.347 70.386 106.309 70.555 106.426C70.844 106.62 71.109 106.82 71.422 106.982C71.832 107.279 72.266 107.517 72.699 107.782C72.772 107.843 72.868 107.873 72.94 107.908C72.916 108.152 72.772 108.346 72.675 108.554C72.362 109.158 72.025 109.795 71.711 110.4C71.663 110.491 71.639 110.602 71.615 110.714C72.964 108.985 74.217 107.202 75.639 105.482Z" fill="white"/><path d="M91.043 118.449C90.755 118.519 90.489 118.61 90.2 118.707C89.598 118.932 88.996 119.158 88.393 119.383C87.719 119.679 87.695 119.685 87.671 118.898C87.671 118.793 87.671 118.687 87.646 118.561C87.574 118.578 87.526 118.59 87.478 118.602C86.538 119.147 85.598 119.666 84.683 120.179C84.514 120.273 84.418 120.375 84.37 120.572C84.176 121.068 84.008 121.532 83.815 122.001C83.767 122.119 83.719 122.263 83.647 122.386C83.526 122.679 83.526 122.679 83.285 122.632C82.803 122.538 82.273 122.428 81.767 122.34C81.406 122.269 81.044 122.172 80.658 122.107C80.466 122.049 80.466 122.022 80.538 121.793C80.731 121.218 80.924 120.643 81.14 120.088C82.659 116.205 84.249 112.357 85.984 108.554C86.706 107.004 87.453 105.449 88.321 103.943C88.345 103.885 88.369 103.853 88.393 103.794C88.538 103.548 88.562 103.542 88.803 103.562C89.357 103.639 89.959 103.678 90.514 103.755C91.092 103.852 91.67 103.87 92.273 103.855C92.321 103.844 92.393 103.826 92.417 103.847C92.465 103.888 92.513 103.929 92.513 103.982C92.513 104.114 92.465 104.258 92.441 104.396C91.983 106.357 91.67 108.362 91.477 110.311C91.381 111.365 91.26 112.398 91.188 113.42C91.116 114.389 91.068 115.378 91.092 116.323V118.093C91.092 118.199 91.068 118.311 91.043 118.449ZM86.489 115.274C86.923 115.037 87.261 114.849 87.598 114.662C87.646 114.65 87.695 114.612 87.719 114.58C87.887 113.35 87.935 112.44 87.863 112.087C87.405 113.15 86.971 114.153 86.489 115.274Z" fill="white"/><path d="M102.163 108.359C102.091 108.351 102.018 108.342 101.946 108.333C101.15 108.13 100.356 107.926 99.585 107.717C99.367 107.664 99.247 107.588 99.295 107.285C99.319 107.174 99.295 107.021 99.247 106.927C99.199 106.727 99.031 106.662 98.838 106.789C98.718 106.871 98.573 106.985 98.453 107.12C97.994 107.575 97.633 108.112 97.32 108.664C96.501 110.104 95.947 111.613 95.729 113.145C95.657 113.559 95.657 114.008 95.681 114.425C95.681 114.769 95.826 115.077 95.995 115.301C96.139 115.53 96.356 115.556 96.621 115.412C96.886 115.295 97.103 115.137 97.32 114.873C97.73 114.324 98.138 113.776 98.525 113.233C98.645 113.071 98.741 112.916 98.862 112.728C99.127 112.822 99.295 113.045 99.489 113.184C99.705 113.342 99.898 113.507 100.115 113.665C100.332 113.824 100.524 113.962 100.765 114.089C100.958 114.253 101.175 114.386 101.416 114.539C101.368 114.656 101.32 114.747 101.247 114.844C100.742 115.654 100.163 116.455 99.536 117.188C98.645 118.224 97.633 118.946 96.452 119.232C95.176 119.542 94.139 119.239 93.344 118.296C92.525 117.359 92.212 116.113 92.236 114.628C92.284 113.242 92.597 111.819 93.055 110.439C93.657 108.707 94.476 107.029 95.609 105.538C96.187 104.764 96.814 104.083 97.585 103.553C98.187 103.142 98.789 102.863 99.44 102.706C100.718 102.422 101.681 102.848 102.307 103.885C102.934 104.949 102.909 106.249 102.476 107.623C102.428 107.819 102.356 107.996 102.283 108.198C102.259 108.257 102.211 108.295 102.163 108.359Z" fill="white"/><path d="M105.708 110.445C105.42 110.672 105.205 110.853 105.014 111.004C104.918 111.08 104.822 111.131 104.701 111.188C104.629 111.233 104.555 111.203 104.505 111.142C104.48 111.1 104.455 111.057 104.43 111.014C104.072 110.242 103.69 109.5 103.329 108.698C103.304 108.655 103.278 108.587 103.251 108.494C103.444 108.318 103.636 108.117 103.829 107.965C105.294 106.651 106.607 105.229 107.821 103.658C108.463 102.815 109.055 101.933 109.623 101.008C109.764 100.771 109.931 100.527 110.072 100.24C110.214 100.027 110.357 99.8644 110.598 99.8276C110.718 99.7968 110.839 99.7908 110.912 99.8469C111.178 99.9293 111.421 100.067 111.663 100.155C112.266 100.399 112.867 100.643 113.468 100.862C113.635 100.917 113.684 101.029 113.662 101.259C113.55 101.959 113.461 102.702 113.349 103.426C113.193 104.531 113.181 105.62 113.144 106.713C113.146 106.86 113.123 107.014 113.126 107.259C113.219 107.086 113.266 107 113.312 106.889C114.09 105.021 115.044 103.214 116.006 101.45C116.378 100.768 116.751 100.091 117.208 99.4695C117.349 99.2844 117.49 99.0989 117.654 98.8826C118.456 99.4446 119.231 100.01 120.003 100.549C119.956 100.66 119.933 100.74 119.886 100.826C118.722 102.508 118.378 103.327 117.472 105.112C116.475 107.163 115.574 109.186 114.838 111.281C114.402 112.467 114.108 113.684 113.86 114.886C113.815 115.139 113.771 115.368 113.703 115.628C113.635 115.911 113.612 115.942 113.378 115.96C112.955 115.983 112.532 116.006 112.108 116.005C111.589 116.03 111.047 116.159 110.481 116.342C110.245 116.408 110.245 116.408 110.17 116.212C110.146 116.122 110.121 116.032 110.095 115.942C109.888 114.715 109.679 113.434 109.684 112.091C109.67 111.115 109.656 110.113 109.642 109.109C109.595 109.22 109.548 109.282 109.502 109.368C108.391 112.078 107.307 114.751 106.346 117.456C106.231 117.755 106.116 118.031 106.002 118.33C105.978 118.361 105.955 118.392 105.908 118.454C105.812 118.457 105.691 118.442 105.572 118.452C104.798 118.306 103.973 118.172 103.17 118.032C102.901 117.985 102.876 117.943 102.967 117.648C103.127 117.212 103.263 116.782 103.424 116.345C104.137 114.501 104.853 112.679 105.545 110.835C105.592 110.748 105.614 110.643 105.708 110.445Z" fill="white"/><path d="M103.554 105.35C104.03 105.184 104.142 101.735 104.23 100.848C104.241 100.59 104.29 100.306 104.319 100.036C104.406 100.008 104.473 99.9941 104.52 99.9932C105.336 99.8754 106.12 99.81 106.913 99.7061C106.96 99.7051 107.007 99.7047 107.054 99.7032C107.128 99.7152 107.192 99.7649 107.197 99.8547C107.222 100.254 107.191 100.707 107.111 101.156C106.776 103.042 105.257 104.758 103.554 105.35Z" fill="white"/><path d="M128.741 106.879C128.663 106.862 128.585 106.845 128.507 106.828C127.661 106.527 126.814 106.226 125.994 105.921C125.763 105.842 125.64 105.747 125.724 105.426C125.762 105.308 125.752 105.142 125.709 105.035C125.678 104.815 125.501 104.728 125.277 104.844C125.136 104.92 124.967 105.028 124.821 105.161C124.273 105.604 123.822 106.145 123.422 106.707C122.376 108.174 121.612 109.742 121.214 111.37C121.092 111.809 121.044 112.293 121.027 112.744C120.99 113.114 121.115 113.461 121.276 113.719C121.41 113.981 121.644 114.032 121.948 113.905C122.25 113.805 122.503 113.657 122.768 113.395C123.273 112.847 123.778 112.298 124.256 111.753C124.404 111.592 124.526 111.434 124.678 111.244C124.957 111.373 125.118 111.631 125.313 111.8C125.533 111.993 125.726 112.19 125.946 112.384C126.166 112.577 126.362 112.745 126.612 112.907C126.805 113.103 127.028 113.269 127.275 113.458C127.21 113.58 127.148 113.673 127.059 113.77C126.421 114.59 125.705 115.393 124.943 116.118C123.861 117.142 122.68 117.815 121.361 118.001C119.935 118.204 118.836 117.77 118.067 116.672C117.271 115.578 117.061 114.205 117.244 112.607C117.442 111.119 117.934 109.618 118.579 108.179C119.419 106.376 120.491 104.652 121.884 103.164C122.597 102.389 123.352 101.72 124.25 101.228C124.951 100.849 125.638 100.611 126.365 100.507C127.788 100.334 128.796 100.893 129.371 102.074C129.943 103.284 129.779 104.683 129.161 106.118C129.088 106.325 128.99 106.507 128.89 106.717C128.858 106.778 128.801 106.814 128.741 106.879Z" fill="white"/><path d="M152.962 97.629C152.956 97.9669 152.955 98.2477 152.924 98.5608C152.895 99.4068 152.835 100.286 152.776 101.164C152.745 101.477 152.716 101.509 152.414 101.609C151.655 101.772 150.917 101.989 150.16 102.125C149.129 102.356 148.164 102.717 147.172 103.083C147.035 103.13 146.949 103.199 146.884 103.32C146.719 103.652 146.554 103.984 146.326 104.41C146.517 104.354 146.625 104.339 146.733 104.324C147.36 104.15 148.015 103.973 148.667 103.825C148.804 103.777 148.935 103.786 149.07 103.767C149.205 103.748 149.277 103.822 149.263 103.965C149.276 104.103 149.263 104.245 149.248 104.388C149.192 105.237 149.141 106.031 149.063 106.828C149.082 106.909 149.076 106.966 149.07 107.023C149.021 107.255 148.989 107.315 148.77 107.374C148.31 107.468 147.877 107.557 147.413 107.679C146.546 107.858 145.676 108.066 144.795 108.388C144.547 108.479 144.429 108.608 144.38 108.84C144.325 109.129 144.219 109.396 144.14 109.66C144.124 109.83 144.077 110.034 144.087 110.201C144.092 110.425 144.164 110.498 144.38 110.468C144.676 110.426 144.945 110.387 145.246 110.289C145.988 110.043 146.734 109.741 147.416 109.279C147.529 109.207 147.64 109.163 147.807 109.083C147.852 109.161 147.898 109.239 147.916 109.32C148.199 110.234 148.484 111.12 148.772 111.977C148.79 112.059 148.812 112.112 148.83 112.193C148.873 112.3 148.813 112.364 148.727 112.433C148.667 112.497 148.584 112.537 148.528 112.573C147.201 113.379 145.831 114.079 144.394 114.395C143.823 114.533 143.26 114.584 142.703 114.579C141.331 114.493 140.299 113.377 140.222 111.984C140.167 110.926 140.35 109.861 140.669 108.778C141.066 107.43 141.569 106.096 142.251 104.82C142.578 104.184 142.879 103.552 143.204 102.944C143.304 102.734 143.321 102.563 143.257 102.403C143.183 102.077 143.109 101.751 143.034 101.425C142.994 101.29 142.954 101.156 142.917 100.992C143.087 100.884 143.203 100.783 143.343 100.707C143.708 100.515 144.044 100.327 144.405 100.164C144.653 100.072 144.829 99.9067 144.985 99.66C145.18 99.2959 145.426 98.952 145.646 98.6123C145.71 98.4907 145.826 98.3899 145.918 98.2648C146.273 98.4388 146.63 98.5847 146.928 98.7945C147.226 99.005 147.52 98.9915 147.905 98.8526C148.87 98.4913 149.823 98.2432 150.825 98.0452C151.449 97.9001 152.074 97.7551 152.696 97.6388C152.777 97.6272 152.857 97.6157 152.962 97.629Z" fill="white"/><path d="M127.205 117.953C127.273 117.501 127.344 117.164 127.414 116.826C127.775 115.426 128.111 114.061 128.472 112.661C128.47 112.603 128.495 112.539 128.52 112.474C128.587 111.965 128.865 111.511 128.827 111.002C128.763 110.559 128.752 110.101 128.74 109.642C128.707 109.335 128.725 109.041 128.717 108.697C128.713 108.525 128.789 108.388 128.971 108.279C129.23 108.118 129.489 107.901 129.75 107.798C130.011 107.666 130.112 107.522 130.238 107.256C130.756 105.81 131.302 104.387 131.872 102.926C132.345 101.783 132.897 100.646 133.397 99.5228C133.672 98.8967 134.002 98.3706 134.359 97.8937C134.678 98.0056 136.687 99.2245 137.224 99.6484C137.077 100.065 136.823 100.455 136.595 100.866C136.395 101.297 136.141 101.715 135.94 102.119C135.74 102.551 135.566 103.004 135.392 103.428C135.219 103.853 135.019 104.313 134.87 104.73C134.696 105.154 134.496 105.587 134.375 106.053C134.953 105.947 135.505 105.848 136.029 105.728C136.108 105.706 136.185 105.627 136.235 105.526C136.362 105.317 136.436 105.123 136.51 104.9C137.281 102.979 138.103 101.044 139.113 99.1996C139.29 98.8898 139.492 98.5441 139.695 98.2266C139.746 98.1257 139.823 98.0465 139.925 97.9305C140.888 98.4654 141.85 98.9714 142.838 99.4699C142.738 99.6715 142.637 99.8445 142.562 100.01C140.793 103.194 139.426 106.554 138.401 109.931C137.866 111.756 137.408 113.53 136.899 115.348C136.851 115.534 136.829 115.714 136.78 115.872C136.733 116.087 136.655 116.138 136.47 116.133C136.312 116.12 136.153 116.107 135.995 116.095C135.228 116.024 134.435 115.96 133.668 115.889C133.535 115.84 133.403 115.82 133.218 115.815C133.267 115.628 133.263 115.485 133.312 115.355C133.746 113.703 134.181 112.08 134.615 110.428C134.639 110.334 134.663 110.213 134.66 110.126C134.108 110.168 133.584 110.345 133.035 110.501C132.8 110.597 132.697 110.712 132.573 111.008C132.18 112.215 131.893 113.421 131.579 114.606C131.29 115.698 131.001 116.819 130.712 117.939C130.686 117.976 130.661 118.011 130.637 118.105C129.528 118.045 128.366 117.999 127.205 117.953Z" fill="white"/><path d="M162.803 96.2329C162.797 96.5708 162.795 96.8516 162.765 97.1647C162.735 98.0108 162.676 98.8895 162.616 99.7678C162.585 100.081 162.556 100.113 162.254 100.212C161.495 100.376 160.757 100.593 160 100.729C158.969 100.96 158.004 101.321 157.013 101.686C156.876 101.734 156.789 101.802 156.725 101.924C156.559 102.256 156.394 102.588 156.167 103.014C156.358 102.958 156.465 102.943 156.573 102.927C157.2 102.754 157.855 102.577 158.507 102.428C158.644 102.381 158.776 102.39 158.911 102.371C159.045 102.352 159.117 102.426 159.103 102.568C159.117 102.707 159.103 102.849 159.089 102.992C159.032 103.841 158.981 104.634 158.903 105.432C158.922 105.513 158.917 105.57 158.911 105.627C158.861 105.858 158.829 105.919 158.61 105.978C158.151 106.072 157.717 106.161 157.253 106.283C156.386 106.462 155.517 106.67 154.636 106.992C154.388 107.083 154.269 107.212 154.22 107.444C154.165 107.732 154.06 108 153.98 108.264C153.964 108.434 153.917 108.638 153.928 108.805C153.932 109.029 154.004 109.102 154.22 109.072C154.516 109.03 154.786 108.991 155.087 108.892C155.828 108.647 156.574 108.344 157.257 107.883C157.369 107.811 157.48 107.767 157.647 107.687C157.693 107.765 157.738 107.842 157.757 107.924C158.039 108.838 158.324 109.724 158.612 110.581C158.63 110.663 158.652 110.716 158.67 110.797C158.713 110.904 158.654 110.968 158.567 111.037C158.508 111.101 158.424 111.141 158.368 111.177C157.041 111.983 155.672 112.683 154.234 112.999C153.663 113.137 153.1 113.188 152.543 113.183C151.172 113.097 150.139 111.981 150.063 110.588C150.007 109.53 150.19 108.465 150.509 107.382C150.906 106.034 151.409 104.7 152.091 103.424C152.418 102.788 152.72 102.156 153.044 101.548C153.145 101.338 153.161 101.167 153.097 101.007C153.023 100.681 152.949 100.355 152.874 100.029C152.835 99.8939 152.795 99.7595 152.757 99.5961C152.927 99.4879 153.044 99.3871 153.184 99.3112C153.548 99.1192 153.884 98.9309 154.246 98.7675C154.494 98.6764 154.669 98.5106 154.826 98.2639C155.021 97.8994 155.267 97.5559 155.486 97.2162C155.551 97.0946 155.667 96.9939 155.759 96.8687C156.114 97.0427 156.47 97.1886 156.769 97.3985C157.066 97.6088 157.36 97.5955 157.745 97.4566C158.71 97.0951 159.663 96.847 160.665 96.6491C161.29 96.504 161.915 96.3591 162.536 96.2426C162.617 96.2311 162.698 96.2196 162.803 96.2329Z" fill="white"/><path d="M164.872 101.666C165.402 101.674 165.827 101.67 166.28 101.662C166.917 101.656 167.582 101.646 168.214 101.697C168.846 101.747 169.408 101.976 169.81 102.48C170.4 103.238 170.415 104.162 169.941 105.212C169.699 105.78 169.332 106.281 168.911 106.79C168.222 107.589 167.461 108.315 166.654 108.963C165.356 110.017 164.045 110.933 162.684 111.828C162.317 112.048 161.95 112.269 161.61 112.486C161.497 112.558 161.387 112.602 161.246 112.678C161.136 112.721 161.061 112.676 161.018 112.57C160.972 112.492 160.9 112.418 160.885 112.308C160.575 111.398 160.263 110.516 159.978 109.63C159.957 109.577 159.935 109.524 159.917 109.443C160.03 109.37 160.092 109.277 160.203 109.233C161.314 108.458 162.449 107.707 163.59 106.9C164.046 106.582 164.483 106.183 164.999 105.802C164.713 105.73 164.444 105.768 164.208 105.746C163.704 105.733 163.228 105.716 162.701 105.679C162.308 105.622 161.951 105.477 161.623 105.299C160.495 104.617 160.158 103.177 160.731 101.664C161.087 100.744 161.668 99.9597 162.375 99.2416C162.966 98.6243 163.654 98.106 164.363 97.6402C165.728 96.7167 167.127 95.9843 168.611 95.465C169.215 95.2672 169.81 95.1549 170.437 94.9812C170.574 94.9338 170.674 95.0038 170.684 95.1704C170.676 95.2561 170.692 95.3661 170.71 95.4476C170.697 96.4041 170.712 97.328 170.695 98.3126C170.702 98.7887 170.67 98.8498 170.179 98.9755C168.577 99.3434 167.017 100.098 165.562 101.118C165.393 101.227 165.25 101.331 165.104 101.464C165.047 101.5 165.018 101.533 164.872 101.666Z" fill="white"/><path d="M178.554 94.4324C178.756 94.5779 178.768 94.8675 178.827 95.1801C178.951 95.8401 179.047 96.5058 179.111 97.1746C179.129 97.3583 179.143 97.5511 179.071 97.7188C178.859 98.2126 178.079 98.2325 177.653 98.3646C177.017 98.5621 176.397 98.806 175.769 99.0247C175.631 99.0726 175.545 99.1407 175.48 99.2622C175.315 99.5946 175.149 99.9265 174.923 100.352C175.113 100.297 175.221 100.281 175.329 100.266C175.956 100.093 176.611 99.9155 177.262 99.7668C177.399 99.7194 177.532 99.7286 177.666 99.7097C177.801 99.6904 177.873 99.7644 177.859 99.9067C177.873 100.045 177.858 100.187 177.845 100.33C177.788 101.18 177.737 101.973 177.659 102.77C177.678 102.851 177.672 102.909 177.666 102.965C177.617 103.197 177.585 103.257 177.366 103.317C176.906 103.41 176.473 103.5 176.009 103.622C175.142 103.801 174.272 104.009 173.392 104.33C173.144 104.422 173.025 104.55 172.976 104.783C172.921 105.071 172.815 105.339 172.736 105.602C172.719 105.773 172.673 105.976 172.684 106.143C172.688 106.367 172.76 106.441 172.976 106.41C173.272 106.368 173.541 106.33 173.843 106.231C174.583 105.985 175.33 105.683 176.012 105.221C176.125 105.149 176.236 105.105 176.403 105.025C176.448 105.103 176.494 105.181 176.512 105.262C176.795 106.176 177.079 107.062 177.368 107.92C177.386 108.001 177.408 108.055 177.426 108.136C177.469 108.242 177.41 108.306 177.323 108.375C177.264 108.439 177.18 108.479 177.124 108.516C175.797 109.321 174.428 110.021 172.99 110.338C172.419 110.475 171.856 110.526 171.299 110.521C169.927 110.436 168.895 109.319 168.819 107.927C168.763 106.868 168.946 105.803 169.265 104.72C169.662 103.372 170.164 102.038 170.847 100.762C171.175 100.126 171.475 99.4943 171.8 98.8867C171.9 98.6762 171.917 98.5049 171.853 98.3462C171.779 98.0198 171.705 97.6934 171.63 97.3671C171.591 97.2326 171.55 97.0978 171.513 96.9348C171.683 96.8261 171.799 96.7258 171.939 96.6498C172.303 96.4579 172.64 96.2692 173.001 96.1058C173.249 96.0146 173.425 95.8494 173.582 95.6021C173.776 95.238 174.022 94.8942 174.241 94.5544C174.307 94.4329 174.423 94.3321 174.514 94.2069C174.869 94.3813 175.226 94.5268 175.524 94.7372C175.822 94.9476 176.116 94.9338 176.501 94.7947C177.037 94.6014 177.73 94.2631 178.31 94.3432C178.413 94.3574 178.492 94.3882 178.554 94.4324Z" fill="white"/></g></g><defs><clipPath id="clip0_211_136"><rect width="210" height="162" fill="white"/></clipPath></defs></svg>