<svg width="280" height="162" viewBox="0 0 280 162" fill="none" xmlns="http://www.w3.org/2000/svg"><mask id="mask0_17_183" style="mask-type:alpha" maskUnits="userSpaceOnUse" x="0" y="0" width="280" height="162"><rect width="280" height="162" fill="#D9D9D9"/></mask><g mask="url(#mask0_17_183)"><path d="M227.195 44.0339C226.239 42.8707 225.01 42.0416 223.688 41.359C220.002 39.4569 216.048 38.5054 211.933 38.255C210.401 38.162 208.845 38.2416 207.315 38.3917C205.891 38.5316 204.456 38.7618 203.079 39.1443C200.48 39.867 198.82 41.6209 198.172 44.2383C197.938 45.182 197.651 45.9922 196.785 46.5455C196.354 46.8198 196.029 47.2571 195.655 47.6203C195.537 47.7345 195.418 47.8468 195.313 47.9472C195.241 47.9329 195.198 47.9329 195.162 47.9159C192.523 46.621 189.728 45.9526 186.797 45.8251C186.535 45.814 186.276 45.7657 185.975 45.7302C186.537 43.4475 186.485 41.3046 185.125 39.3676C183.774 37.4425 181.86 36.537 179.5 36.4436C179.744 35.6168 179.986 34.8453 180.197 34.0651C180.557 32.7389 180.671 31.4007 180.305 30.0538C179.178 25.909 174.71 23.832 170.821 25.6779C167.618 27.1983 164.496 28.8767 161.496 30.7663C158.515 32.6436 155.597 34.6202 152.609 36.4841C150.724 37.6598 149.57 39.2838 149.099 41.4303C149.071 41.5601 148.997 41.6803 148.944 41.8073C148.581 41.6863 148.267 41.5767 147.949 41.4763C144.903 40.5124 141.807 40.4655 138.678 40.9576C133.924 41.7056 129.734 43.6707 126.08 46.7862C125.368 47.3934 124.701 48.0535 124.003 48.6989C123.935 48.6625 123.856 48.6326 123.792 48.5838C121.221 46.6417 118.262 45.9185 115.109 45.8973C112.401 45.8794 109.822 46.516 107.383 47.6922C103.144 49.7356 99.8144 52.8119 97.202 56.6971C96.0692 58.3819 95.7635 60.2614 95.8818 62.2431C95.8979 62.5124 95.9697 62.8061 95.891 63.0482C95.6226 63.8755 95.2981 64.6847 94.9782 65.5464C94.7043 65.4889 94.4534 65.4364 94.226 65.389C94.2103 65.2776 94.1938 65.2357 94.2002 65.1975C94.783 61.6838 95.438 58.1826 96.4301 54.7596C96.8913 53.1691 97.0022 51.5649 96.9452 49.9372C96.889 48.3555 96.2768 46.9773 95.2074 45.8209C92.8492 43.2721 89.086 42.8615 86.2241 44.8772C85.0158 45.7284 83.8787 46.6822 82.7334 47.6185C81.9288 48.2763 81.1642 48.9829 80.3572 49.6891C80.2366 49.4897 80.1344 49.313 80.0253 49.1413C78.6549 46.9888 76.7059 45.8725 74.1423 45.8444C73.1029 45.8329 72.122 46.1118 71.1516 46.4304C68.4301 47.323 65.8491 48.5373 63.3283 49.8852C60.1976 51.5594 57.1852 53.4209 54.4136 55.648C50.0663 59.141 46.2584 63.1541 42.9546 67.6446C40.7506 70.6404 38.8071 73.7941 37.2286 77.167C36.7572 78.1737 36.3862 79.1984 36.3287 80.329C36.2062 82.7392 36.47 85.0372 38.1051 86.9839C38.0549 87.1492 38.0121 87.3085 37.9582 87.4641C36.3614 92.0572 35.4338 96.7894 35.1636 101.638C35.0241 104.132 34.9205 106.631 35.0821 109.136C35.2326 111.472 35.5365 113.778 36.1294 116.041C37.3142 120.563 39.4294 124.582 42.707 127.943C47.5372 132.895 53.5132 135.392 60.3237 136.042C62.6143 136.26 64.9013 136.163 67.1813 135.834C71.2193 135.254 74.9714 133.9 78.422 131.722C82.0273 129.446 84.9785 126.457 87.6571 123.182C88.5133 122.135 89.2568 120.996 90.0964 119.934C91.3641 118.332 92.665 116.756 93.9632 115.179C94.5777 114.432 95.1121 113.641 95.4169 112.718C95.5094 112.437 95.6963 112.345 95.9449 112.255C97.1228 111.826 98.1287 111.141 98.9522 110.189C100.152 108.802 101.343 107.405 102.569 106.042C104.453 103.949 106.378 101.895 108.494 100.031C109.134 99.4676 109.808 98.9382 110.418 98.3439C110.674 98.0944 110.892 98.0019 111.235 98.0636C113.104 98.3996 114.97 98.3366 116.824 97.9609C120.42 97.2331 123.485 95.5088 126.113 92.9747C126.274 92.8195 126.437 92.6676 126.61 92.5047C130.3 95.5695 134.508 97.0389 139.241 96.8842C143.938 96.7314 148.176 95.2528 151.89 92.1212C152.058 92.3371 152.182 92.5355 152.343 92.6966C153.771 94.1282 155.405 95.2662 157.25 96.0971C159.516 97.1176 161.893 97.5848 164.371 97.3671C167.304 97.1093 169.941 96.0114 172.347 94.3478C172.744 94.073 173.066 93.9961 173.539 94.1743C176.915 95.4434 180.397 95.6818 183.938 95.1133C187.756 94.5006 191.191 92.971 194.299 90.6864C194.448 90.5773 194.605 90.4801 194.723 90.4014C194.797 90.4051 194.82 90.4009 194.838 90.4083C194.895 90.4323 194.952 90.458 195.007 90.487C199.072 92.6381 203.382 93.3645 207.902 92.5383C214.106 91.4036 218.65 87.9456 221.656 82.4317C222.562 80.7704 223.05 78.9618 223.5 77.1375C224.396 73.5064 224.225 69.9481 222.806 66.4754C222.476 65.6693 222.061 64.8983 221.673 64.0877C221.713 64.0361 221.754 63.9638 221.812 63.9095C222.535 63.2269 223.062 62.4093 223.492 61.519C224.551 59.3233 225.617 57.1307 226.686 54.94C227.538 53.1968 228.374 51.4558 228.617 49.4911C228.867 47.473 228.507 45.6294 227.195 44.0339ZM99.3794 98.2233C97.5141 100.234 95.7041 102.297 93.8186 104.394C93.7726 103.554 93.7261 102.774 93.6874 101.994C93.4895 98.0175 93.1898 94.05 92.4045 90.1404C92.1633 88.9413 91.7849 87.7651 91.401 86.6014C91.2417 86.118 90.9508 85.6568 90.6354 85.2513C90.1051 84.5691 89.4878 84.5101 88.7702 84.9939C87.9964 85.515 87.5218 86.2658 87.177 87.1096C86.748 88.161 86.5482 89.2672 86.4345 90.389C86.2002 92.704 86.37 95.0088 86.6306 97.3114C87.0711 101.21 87.8652 105.039 88.871 108.827C88.9631 109.174 88.8839 109.407 88.6652 109.674C87.1489 111.531 85.6344 113.39 84.1471 115.27C83.2946 116.348 82.5254 117.493 81.6646 118.565C79.4094 121.373 76.7823 123.757 73.5683 125.437C70.9919 126.783 68.2552 127.599 65.3547 127.875C61.2205 128.268 57.2386 127.701 53.4731 125.929C48.0956 123.398 44.691 119.17 43.0191 113.511C42.3544 111.262 42.0414 108.954 41.9889 106.61C41.935 104.21 41.9903 101.814 42.2812 99.4308C42.8124 95.0848 43.8956 90.8825 45.6342 86.8573C48.0113 81.355 51.3073 76.4852 55.6551 72.3427C55.9971 72.0164 56.352 71.7033 56.6632 71.319C56.4865 71.4096 56.3083 71.4967 56.1338 71.591C52.286 73.6781 48.8091 76.2974 45.434 79.0621C44.8065 79.5763 44.1718 80.0822 43.5406 80.5918C43.4946 80.6107 43.449 80.63 43.4035 80.6494C43.4117 80.5978 43.42 80.5462 43.4279 80.4947L43.4269 80.4942C43.699 79.9096 43.9453 79.3121 44.2468 78.7436C46.5346 74.4276 49.3679 70.4977 52.6814 66.9122C55.4507 63.9155 58.4622 61.1959 61.893 58.9674C65.2935 56.7588 68.8472 54.8452 72.6638 53.4472C73.091 53.2907 73.5338 53.1747 74.0194 53.0246C74.0194 53.2387 74.0411 53.4016 74.0162 53.5572C73.6212 56.0029 73.1987 58.444 72.8272 60.8934C72.4898 63.1164 72.1979 65.3467 71.9015 67.5756C71.6294 69.619 71.3744 71.6647 71.1217 73.7108C71.0724 74.1095 70.9265 74.3673 70.5297 74.5592C69.4341 75.0872 68.4716 75.8316 67.5666 76.6339C63.3237 80.3939 59.787 84.7026 57.4191 89.8951C56.0777 92.8365 55.2302 95.9125 54.9761 99.1495C54.7303 102.286 55.0369 105.356 56.0409 108.334C57.0112 111.213 58.8097 113.404 61.6541 114.618C63.6298 115.462 65.6985 115.693 67.8368 115.492C70.8671 115.207 73.642 114.222 76.1867 112.57C77.4024 111.781 78.4436 110.795 79.397 109.707C79.6313 109.439 79.6672 109.189 79.617 108.856C79.2 106.076 78.7631 103.299 78.405 100.512C78.0763 97.9513 77.8263 95.3799 77.5653 92.8112C77.4493 91.6715 77.3757 90.5271 77.3099 89.3832C77.1004 85.7401 76.9674 82.0948 77.047 78.4453C77.1432 74.0667 77.4503 69.7064 78.2475 65.3918C78.2545 65.3536 78.2393 65.3108 78.2291 65.2242C76.9508 65.8802 75.6849 66.5297 74.3822 67.1976C75.0326 64.5867 86.3636 52.828 90.0568 50.9209C87.7013 59.466 86.4971 68.1505 85.9024 76.9801C86.0096 76.8296 86.1187 76.6809 86.2237 76.529C87.3133 74.9542 88.6763 73.6998 90.4384 72.9076C92.3649 72.0417 94.1178 72.4168 95.5181 74.0018C96.2703 74.8538 96.8374 75.8219 97.3028 76.853C98.2958 79.0525 98.8762 81.3725 99.302 83.7354C99.8692 86.8813 100.138 90.0534 100.07 93.2513C100.067 93.4166 100.07 93.5823 100.07 93.8207C101.797 93.1473 103.484 92.5001 105.345 92.4775C103.208 94.2488 101.256 96.2002 99.3794 98.2233ZM123.11 84.6036C121.372 87.4084 118.892 89.2326 115.66 89.9682C113.216 90.5248 110.944 89.9788 108.822 88.7318C106.423 87.3223 104.657 85.2991 103.295 82.9022C102.074 80.7525 101.434 78.4089 101.064 75.9858C100.828 74.4386 100.762 72.885 100.902 71.3157C101.204 67.9277 102.343 64.8619 104.392 62.1584C105.192 61.102 106.139 60.1565 107.007 59.1746C105.609 59.547 104.275 60.2117 102.849 60.9671C102.914 60.8055 102.929 60.7374 102.965 60.6845C104.668 58.2185 106.717 56.1129 109.341 54.6173C111.131 53.5972 113.057 53.0246 115.125 53.0651C116.815 53.0982 118.437 53.4223 119.812 54.5197C120.936 55.4165 121.697 56.57 122.207 57.8944C122.991 59.935 123.194 62.0484 122.995 64.2198C122.822 66.1071 122.369 67.9139 121.564 69.625C120.558 71.7659 119.154 73.569 117.029 74.7166C115.31 75.6451 113.461 76.0056 111.532 75.7768C109.67 75.5554 108.282 74.5634 107.382 72.9108C107.224 72.6217 107.093 72.3183 106.847 72.0325C106.876 72.3782 106.886 72.7262 106.935 73.0691C107.307 75.6658 108.127 78.1014 109.742 80.1959C111.547 82.5385 114.007 83.3584 116.885 83.0081C118.609 82.7982 120.197 82.1984 121.587 81.1286C123.174 79.9064 124.214 78.3054 124.836 76.4171C124.899 76.2251 124.964 76.0341 125.064 75.7326C125.127 75.9084 125.171 75.9761 125.173 76.0452C125.262 79.0847 124.731 81.9857 123.11 84.6036ZM152.382 60.5358C152.128 63.2807 151.332 65.836 149.855 68.1708C148.003 71.0985 145.356 72.8187 141.926 73.2569C139.694 73.5419 137.556 73.222 135.671 71.8649C134.828 71.2577 134.161 70.495 133.641 69.5683C133.541 70.7601 133.72 71.9261 133.971 73.0802C134.382 74.9735 135.056 76.7545 136.318 78.2662C137.577 79.7747 139.205 80.6084 141.127 80.9348C143.761 81.3817 146.061 80.5292 148.211 79.1224C149.645 78.1843 150.845 77.0141 151.599 75.4417C151.621 75.3966 151.678 75.3685 151.813 75.2497C151.864 75.7805 151.96 76.2279 151.94 76.6698C151.737 81.2602 148.793 86.5577 143.022 88.2061C141.734 88.5739 140.428 88.8137 139.084 88.816C134.562 88.8252 131.121 86.85 128.673 83.0969C127.332 81.0402 126.588 78.7514 126.208 76.3379C125.804 73.7656 125.89 71.1914 126.179 68.6136C126.517 65.6123 127.216 62.709 128.469 59.9548C129.649 57.3627 131.222 55.0533 133.447 53.2317C133.716 53.0117 133.995 52.8041 134.246 52.55C132.229 52.8363 130.376 53.6083 128.541 54.4369C128.514 54.4019 128.486 54.3674 128.459 54.3329C128.593 54.1671 128.716 53.9917 128.862 53.8371C131.862 50.647 135.499 48.6602 139.848 47.9978C141.725 47.712 143.588 47.6788 145.424 48.1999C148.532 49.0814 150.532 51.1492 151.62 54.1386C152.372 56.2068 152.584 58.3437 152.382 60.5358ZM188.831 85.1689C185.997 86.8118 182.932 87.5603 179.657 87.2873C177.019 87.0672 174.618 86.2005 172.572 84.4669C172.493 84.4006 172.407 84.3426 172.266 84.2362C172.123 84.4673 172.015 84.6409 171.907 84.8158C170.893 86.4684 169.565 87.7914 167.821 88.6683C164.664 90.2564 161.186 89.7266 158.639 87.2749C156.861 85.5643 155.768 83.4597 155.123 81.1055C154.641 79.3494 154.42 77.5527 154.362 75.7358C154.239 71.8801 154.744 68.0856 155.543 64.3266C157.048 57.2486 159.442 50.4624 162.335 43.8429C162.441 43.5994 162.541 43.354 162.669 43.0516C160.508 43 158.421 42.9499 156.333 42.9001C156.319 42.8527 156.304 42.8058 156.289 42.7584C162.013 39.0895 167.565 35.1326 173.901 32.2596C172.396 36.8132 170.922 41.2715 169.415 45.8329C169.697 45.7836 169.892 45.7606 170.08 45.715C172.144 45.216 174.201 44.6867 176.273 44.2227C177.363 43.9782 178.478 43.8466 179.657 43.6514C179.604 43.8434 179.594 43.9446 179.551 44.0275C178.496 46.0276 177.305 47.9407 175.669 49.5201C173.437 51.6735 170.812 53.1705 167.797 53.9278C167.297 54.0534 167.092 54.2873 166.935 54.7481C165.314 59.5286 164.014 64.3929 163.153 69.3676C162.848 71.1307 162.615 72.9085 162.422 74.6876C162.276 76.0382 162.347 77.3925 162.715 78.7174C163.201 80.4638 164.286 81.6699 165.953 82.3627C167.389 82.9593 168.845 83.1268 170.337 82.5827C170.431 82.5487 170.52 82.5045 170.672 82.4386C168.188 78.6589 167.833 74.5472 168.802 70.3003C169.777 66.0312 172.286 62.7536 175.819 60.2011C174.898 60.2748 174.039 60.5487 173.199 60.8709C172.349 61.1977 171.522 61.583 170.618 61.9715C170.75 61.6553 170.955 61.4357 171.148 61.212C172.207 59.9792 173.485 59.0162 174.894 58.2249C176.501 57.3227 178.187 56.6156 180.002 56.2451C180.143 56.2165 180.279 56.165 180.535 56.0899C178.384 55.5246 176.359 55.776 174.289 56.0669C174.485 55.9274 174.674 55.7783 174.878 55.6503C176.503 54.6311 178.287 54.0014 180.137 53.5498C182.09 53.0729 184.074 52.8294 186.085 52.9252C189.064 53.0665 191.842 53.821 194.211 55.7373C195.959 57.1524 197.161 58.9578 197.916 61.0582C199.606 65.7564 199.454 70.4296 197.566 75.0292C195.786 79.3683 192.911 82.8032 188.831 85.1689ZM217.577 57.7167C217.289 57.5165 217.079 57.3526 216.852 57.2173C214.83 56.0094 212.661 55.5246 210.319 55.9132C210.156 55.9403 209.994 55.9863 209.835 56.0338C207.803 56.64 206.982 58.7313 208.059 60.5675C208.52 61.3538 209.188 61.9568 209.889 62.5193C210.846 63.2899 211.837 64.02 212.789 64.7984C213.922 65.726 214.973 66.7419 215.749 67.9982C217.519 70.8665 217.724 73.9161 216.466 76.9833C214.664 81.379 211.347 84.0051 206.626 84.6864C203.2 85.1808 200.05 84.3499 197.238 82.3079C196.784 81.9788 196.346 81.628 195.849 81.2478C197.356 79.3126 198.454 77.2434 199.357 74.9836C199.628 75.1945 199.852 75.3712 200.079 75.5448C201.2 76.4019 202.415 77.0685 203.81 77.3649C205.62 77.7493 207.255 77.0814 208.277 75.5752C208.846 74.7364 208.94 73.8406 208.695 72.8891C208.422 71.8304 207.824 70.9512 207.084 70.1769C206.582 69.6521 206.042 69.1481 205.457 68.7199C204.062 67.6985 202.634 66.7212 201.209 65.7412C200.933 65.5515 200.784 65.3605 200.748 65.0023C200.531 62.802 199.935 60.7084 198.839 58.7778C198.542 58.2544 198.188 57.7595 197.822 57.2803C197.627 57.0244 197.619 56.8283 197.767 56.5516C199.53 53.2653 202.044 50.7787 205.482 49.2692C207.065 48.5737 207.956 48.3454 210.531 47.9762C208.773 46.998 206.906 46.6131 205.042 46.0515C209.245 44.3801 219.192 45.9807 221.885 48.7795C220.467 51.7214 219.034 54.6942 217.577 57.7167Z" fill="white"/><path d="M115.812 68.9155C114.974 69.7841 113.94 70.1529 112.75 70.0019C111.673 69.8656 110.995 69.1871 110.594 68.2227C110.42 67.8066 110.323 67.3587 110.146 66.7736C109.033 68.097 108.009 69.3156 106.985 70.534C106.953 70.528 106.92 70.5225 106.887 70.517C106.947 69.9706 106.974 69.4186 107.072 68.8792C107.536 66.3395 108.567 64.0747 110.419 62.2352C111.29 61.3698 112.306 60.7359 113.526 60.4634C115.14 60.1021 116.364 60.7184 117.016 62.2352C117.88 64.2446 117.325 67.3462 115.812 68.9155ZM144.267 65.0492C143.732 65.9252 143.016 66.6028 142.08 67.0388C139.759 68.1196 137.224 66.8293 136.95 64.1962C136.945 64.1557 136.931 64.1157 136.887 63.9375C136.301 64.5189 135.779 65.0193 135.277 65.539C134.774 66.0615 134.291 66.6033 133.725 67.216C133.725 66.9973 133.709 66.8643 133.728 66.7368C134.115 64.1401 134.962 61.7247 136.596 59.6349C137.603 58.3477 138.82 57.3212 140.399 56.7988C141.136 56.5552 141.886 56.4176 142.672 56.5714C143.621 56.7569 144.328 57.2794 144.752 58.118C145.02 58.6484 145.239 59.239 145.316 59.8235C145.558 61.6723 145.251 63.4353 144.267 65.0492ZM187.098 77.1287C186.002 78.1317 184.729 78.8462 183.244 79.0741C181.245 79.3806 179.424 78.9682 177.933 77.52C176.89 76.5077 176.478 75.2105 176.386 73.7987C176.28 72.1645 176.657 70.6114 177.251 69.1052C177.94 67.3601 178.882 65.7765 180.285 64.4996C181.419 63.468 182.711 62.7466 184.233 62.4686C184.392 62.4396 184.548 62.3913 184.816 62.3241C183.152 61.3449 181.457 60.7879 179.575 60.5721C180.041 60.277 180.527 60.2738 180.985 60.1951C182.865 59.8696 184.72 59.9594 186.529 60.607C189.417 61.6414 191.2 64.0144 191.281 67.0788C191.386 71.0381 190.047 74.4312 187.098 77.1287Z" fill="white"/><path d="M235.28 70.6911C235.177 70.9503 235.078 71.1988 234.962 71.4907H233.3C233.076 71.1813 232.81 70.8144 232.545 70.4457C232.341 70.1617 232.084 70.0503 231.722 70.1773V71.5528C231.511 71.5727 231.297 71.5924 231.019 71.6182C230.975 70.4112 230.934 69.2581 230.89 68.0147C231.597 68.0147 232.237 67.9986 232.876 68.0198C233.411 68.0373 233.712 68.2997 233.811 68.7692C233.915 69.2636 233.763 69.6005 233.311 69.8694C233.246 69.9081 233.172 69.9297 233.096 69.961C233.467 70.4568 233.823 70.9309 234.214 71.4534C234.648 70.2505 235.061 69.1062 235.483 67.9374H236.272C236.76 69.0611 237.255 70.2027 237.77 71.3917H236.967C236.865 71.1661 236.764 70.942 236.651 70.6911H235.28ZM231.691 69.5292C232.068 69.5053 232.416 69.5048 232.757 69.4542C232.99 69.4192 233.1 69.2314 233.069 68.9929C233.042 68.7849 232.921 68.6491 232.701 68.6449C232.358 68.638 232.015 68.6431 231.691 68.6431V69.5292ZM236.382 70.013C236.225 69.6199 236.085 69.2701 235.945 68.9207L235.836 68.9496C235.722 69.2917 235.609 69.6342 235.483 70.013H236.382Z" fill="white"/><path d="M233.075 63.8958C233.077 65.6768 231.688 67.0656 229.906 67.0638C228.122 67.0624 226.729 65.6741 226.729 63.8995C226.729 62.1272 228.129 60.7273 229.902 60.726C231.679 60.7246 233.075 62.1185 233.075 63.8958ZM232.427 63.905C232.432 62.484 231.322 61.376 229.9 61.3815C228.512 61.3865 227.401 62.4826 227.385 63.8622C227.368 65.2823 228.469 66.4073 229.885 66.4161C231.31 66.4253 232.422 65.3265 232.427 63.905Z" fill="white"/><path d="M227.421 68.1082C227.958 68.1082 228.515 68.1123 229.072 68.1068C229.518 68.1026 229.912 68.2145 230.102 68.656C230.278 69.0634 230.134 69.4178 229.87 69.659C230.051 69.932 230.287 70.1626 230.367 70.4384C230.53 70.9944 230.101 71.5289 229.475 71.6297C229.333 71.6527 229.186 71.655 229.04 71.6559C228.523 71.6587 228.007 71.6569 227.421 71.6569V68.1082ZM228.161 71.0165C228.54 71.0165 228.866 71.0276 229.191 71.0128C229.448 71.0013 229.628 70.8651 229.63 70.5912C229.632 70.3219 229.466 70.1696 229.204 70.158C228.861 70.1424 228.518 70.1539 228.161 70.1539V71.0165ZM228.141 69.5315C228.499 69.5099 228.825 69.509 229.145 69.4647C229.351 69.4362 229.493 69.2692 229.428 69.0643C229.387 68.9382 229.231 68.7784 229.11 68.7623C228.791 68.7204 228.463 68.748 228.141 68.748V69.5315Z" fill="white"/><path d="M240.889 67.7699V71.2523C240.333 71.4474 240.297 71.4392 239.984 70.9632C239.62 70.4117 239.26 69.8575 238.824 69.1914V71.3618H238.168C238.128 70.2091 238.088 69.0726 238.046 67.8817C238.289 67.8619 238.509 67.844 238.748 67.8246C239.22 68.5363 239.682 69.2328 240.144 69.9288C240.172 69.9131 240.199 69.8975 240.226 69.8823V67.8132C240.43 67.7998 240.624 67.7874 240.889 67.7699Z" fill="white"/><path d="M241.678 71.2753V67.7506C242.258 67.7506 242.872 67.7257 243.482 67.7593C243.937 67.7842 244.276 68.0792 244.409 68.4903C244.548 68.9143 244.651 69.3806 244.627 69.8211C244.576 70.7611 244.039 71.2344 243.092 71.2725C242.641 71.2905 242.189 71.2753 241.678 71.2753ZM242.412 70.6553C242.941 70.612 243.498 70.8343 243.755 70.2667C243.994 69.7364 243.994 69.1417 243.667 68.6509C243.369 68.204 242.869 68.3301 242.412 68.3923V70.6553Z" fill="white"/><path d="M228.4 62.2348C229.012 62.2348 229.53 62.2298 230.048 62.2362C230.721 62.2445 231.038 62.4461 231.153 62.923C231.278 63.4386 231.087 63.7658 230.486 64.0812C230.793 64.5365 231.101 64.9936 231.464 65.5308H230.595C230.162 65.1026 230.158 64.2119 229.209 64.2639V65.6067C228.973 65.6205 228.778 65.632 228.525 65.6468C228.484 64.5158 228.443 63.4266 228.4 62.2348ZM229.167 63.6738C229.51 63.6549 229.795 63.6559 230.076 63.6185C230.273 63.5928 230.406 63.4694 230.417 63.2457C230.43 62.9948 230.296 62.8392 230.071 62.8157C229.775 62.7844 229.473 62.8079 229.167 62.8079V63.6738Z" fill="white"/><path d="M110.639 105.482C110.856 105.641 111.024 105.759 111.169 105.909C111.531 106.296 112.012 106.47 112.446 106.708C112.663 106.814 112.856 106.899 113.048 107.011C113.29 107.137 113.29 107.164 113.169 107.431C113.097 107.66 113 107.868 112.904 108.103C112.639 108.802 112.374 109.5 112.084 110.204C112.061 110.29 112.037 110.375 112.061 110.474C112.277 110.184 112.494 109.894 112.687 109.609C113.41 108.641 114.109 107.705 114.807 106.716C115.193 106.173 115.578 105.63 116.012 105.076C116.325 104.682 116.711 104.298 117.048 103.873C117.409 104.208 117.747 104.522 118.108 104.804C118.446 105.092 118.807 105.375 119.145 105.663C119.048 105.898 118.976 106.073 118.855 106.261C118.133 107.467 117.602 108.732 117.12 110.064C116.133 112.709 115.289 115.424 114.735 118.148C114.494 119.29 114.374 120.429 114.205 121.579C114.181 121.638 114.181 121.691 114.181 121.771C114.132 122.02 114.109 122.052 113.892 122.078C113.651 122.111 113.434 122.084 113.193 122.116C112.59 122.236 111.988 122.356 111.386 122.476C110.711 122.613 110.783 122.569 110.831 121.923C110.976 120.356 111.721 117.558 112.082 115.964C112.106 115.878 112.13 115.793 112.154 115.603C112.034 115.79 111.938 115.919 111.865 116.016C111.166 117.216 110.012 119.612 109.289 120.792C109.072 121.188 108.856 121.584 108.639 121.954C108.519 122.142 108.47 122.153 108.302 122.089C107.579 121.736 106.832 121.415 106.085 121.068C106.013 121.033 105.94 120.998 105.844 120.968C105.675 120.903 105.603 120.762 105.651 120.539C105.699 120.343 105.748 120.119 105.796 119.923C106.085 118.795 106.902 116.456 107.191 115.302C107.239 115.158 107.263 114.967 107.287 114.803C105.094 117.793 101.058 124.613 99.1303 127.804C98.9858 127.627 98.8652 127.498 98.745 127.395C98.3837 127.007 98.0218 126.646 97.6605 126.284C97.5159 126.134 97.3954 126.058 97.2029 126.026C96.8899 125.943 96.5765 125.861 96.2629 125.778C95.9738 125.716 95.9738 125.69 96.1184 125.364C96.5281 124.366 99.8199 117.78 100.254 116.724C100.302 116.58 100.375 116.457 100.422 116.313C100.206 116.286 100.037 116.539 99.8443 116.533C99.6275 116.216 98.8564 114.025 98.7602 113.387C98.8564 113.285 98.977 113.203 99.0972 113.12C100.615 112.039 101.941 110.739 103.169 109.252C103.676 108.601 104.182 107.949 104.687 107.298C104.856 107.072 105.025 106.793 105.193 106.567C105.338 106.347 105.386 106.309 105.555 106.426C105.844 106.62 106.109 106.82 106.422 106.982C106.832 107.279 107.266 107.517 107.699 107.782C107.772 107.843 107.868 107.873 107.94 107.908C107.916 108.152 107.772 108.346 107.675 108.554C107.362 109.158 107.025 109.795 106.711 110.4C106.663 110.491 106.639 110.602 106.615 110.714C107.964 108.985 109.217 107.202 110.639 105.482Z" fill="white"/><path d="M126.043 118.449C125.755 118.519 125.489 118.61 125.2 118.707C124.598 118.932 123.996 119.158 123.393 119.383C122.719 119.679 122.695 119.685 122.671 118.898C122.671 118.793 122.671 118.687 122.646 118.561C122.574 118.578 122.526 118.59 122.478 118.602C121.538 119.147 120.598 119.666 119.683 120.179C119.514 120.273 119.418 120.375 119.37 120.572C119.176 121.068 119.008 121.532 118.815 122.001C118.767 122.119 118.719 122.263 118.647 122.386C118.526 122.679 118.526 122.679 118.285 122.632C117.803 122.538 117.273 122.428 116.767 122.34C116.406 122.269 116.044 122.172 115.658 122.107C115.466 122.049 115.466 122.022 115.538 121.793C115.731 121.218 115.924 120.643 116.14 120.088C117.659 116.205 119.249 112.357 120.984 108.554C121.706 107.004 122.453 105.449 123.321 103.943C123.345 103.885 123.369 103.853 123.393 103.794C123.538 103.548 123.562 103.542 123.803 103.562C124.357 103.639 124.959 103.678 125.514 103.755C126.092 103.852 126.67 103.87 127.273 103.855C127.321 103.844 127.393 103.826 127.417 103.847C127.465 103.888 127.513 103.929 127.513 103.982C127.513 104.114 127.465 104.258 127.441 104.396C126.983 106.357 126.67 108.362 126.477 110.311C126.381 111.365 126.26 112.398 126.188 113.42C126.116 114.389 126.068 115.378 126.092 116.323V118.093C126.092 118.199 126.068 118.311 126.043 118.449ZM121.489 115.274C121.923 115.037 122.261 114.849 122.598 114.662C122.646 114.65 122.695 114.612 122.719 114.58C122.887 113.35 122.935 112.44 122.863 112.087C122.405 113.15 121.971 114.153 121.489 115.274Z" fill="white"/><path d="M137.163 108.359C137.091 108.351 137.018 108.342 136.946 108.333C136.15 108.13 135.356 107.926 134.585 107.717C134.367 107.664 134.247 107.588 134.295 107.285C134.319 107.174 134.295 107.021 134.247 106.927C134.199 106.727 134.031 106.662 133.838 106.789C133.718 106.871 133.573 106.985 133.453 107.12C132.994 107.575 132.633 108.112 132.32 108.664C131.501 110.104 130.947 111.613 130.729 113.145C130.657 113.559 130.657 114.008 130.681 114.425C130.681 114.769 130.826 115.077 130.995 115.301C131.139 115.53 131.356 115.556 131.621 115.412C131.886 115.295 132.103 115.137 132.32 114.873C132.73 114.324 133.138 113.776 133.525 113.233C133.645 113.071 133.741 112.916 133.862 112.728C134.127 112.822 134.295 113.045 134.489 113.184C134.705 113.342 134.898 113.507 135.115 113.665C135.332 113.824 135.524 113.962 135.765 114.089C135.958 114.253 136.175 114.386 136.416 114.539C136.368 114.656 136.32 114.747 136.247 114.844C135.742 115.654 135.163 116.455 134.536 117.188C133.645 118.224 132.633 118.946 131.452 119.232C130.176 119.542 129.139 119.239 128.344 118.296C127.525 117.359 127.212 116.113 127.236 114.628C127.284 113.242 127.597 111.819 128.055 110.439C128.657 108.707 129.476 107.029 130.609 105.538C131.187 104.764 131.814 104.083 132.585 103.553C133.187 103.142 133.789 102.863 134.44 102.706C135.718 102.422 136.681 102.848 137.307 103.885C137.934 104.949 137.909 106.249 137.476 107.623C137.428 107.819 137.356 107.996 137.283 108.198C137.259 108.257 137.211 108.295 137.163 108.359Z" fill="white"/><path d="M140.708 110.445C140.42 110.672 140.205 110.853 140.014 111.004C139.918 111.08 139.822 111.131 139.701 111.188C139.629 111.233 139.555 111.203 139.505 111.142C139.48 111.1 139.455 111.057 139.43 111.014C139.072 110.242 138.69 109.5 138.329 108.698C138.304 108.655 138.278 108.587 138.251 108.494C138.444 108.318 138.636 108.117 138.829 107.965C140.294 106.651 141.607 105.229 142.821 103.658C143.463 102.815 144.055 101.933 144.623 101.008C144.764 100.771 144.931 100.527 145.072 100.24C145.214 100.027 145.357 99.8644 145.598 99.8276C145.718 99.7968 145.839 99.7908 145.912 99.8469C146.178 99.9293 146.421 100.067 146.663 100.155C147.266 100.399 147.867 100.643 148.468 100.862C148.635 100.917 148.684 101.029 148.662 101.259C148.55 101.959 148.461 102.702 148.349 103.426C148.193 104.531 148.181 105.62 148.144 106.713C148.146 106.86 148.123 107.014 148.126 107.259C148.219 107.086 148.266 107 148.312 106.889C149.09 105.021 150.044 103.214 151.006 101.45C151.378 100.768 151.751 100.091 152.208 99.4695C152.349 99.2844 152.49 99.0989 152.654 98.8826C153.456 99.4446 154.231 100.01 155.003 100.549C154.956 100.66 154.933 100.74 154.886 100.826C153.722 102.508 153.378 103.327 152.472 105.112C151.475 107.163 150.574 109.186 149.838 111.281C149.402 112.467 149.108 113.684 148.86 114.886C148.815 115.139 148.771 115.368 148.703 115.628C148.635 115.911 148.612 115.942 148.378 115.96C147.955 115.983 147.532 116.006 147.108 116.005C146.589 116.03 146.047 116.159 145.481 116.342C145.245 116.408 145.245 116.408 145.17 116.212C145.146 116.122 145.121 116.032 145.095 115.942C144.888 114.715 144.679 113.434 144.684 112.091C144.67 111.115 144.656 110.113 144.642 109.109C144.595 109.22 144.548 109.282 144.502 109.368C143.391 112.078 142.307 114.751 141.346 117.456C141.231 117.755 141.116 118.031 141.002 118.33C140.978 118.361 140.955 118.392 140.908 118.454C140.812 118.457 140.691 118.442 140.572 118.452C139.798 118.306 138.973 118.172 138.17 118.032C137.901 117.985 137.876 117.943 137.967 117.648C138.127 117.212 138.263 116.782 138.424 116.345C139.137 114.501 139.853 112.679 140.545 110.835C140.592 110.748 140.614 110.643 140.708 110.445Z" fill="white"/><path d="M138.554 105.35C139.03 105.184 139.142 101.735 139.23 100.848C139.241 100.59 139.29 100.306 139.319 100.036C139.406 100.008 139.473 99.9941 139.52 99.9932C140.336 99.8754 141.12 99.81 141.913 99.7061C141.96 99.7051 142.007 99.7047 142.054 99.7032C142.128 99.7152 142.192 99.7649 142.197 99.8547C142.222 100.254 142.191 100.707 142.111 101.156C141.776 103.042 140.257 104.758 138.554 105.35Z" fill="white"/><path d="M163.741 106.879C163.663 106.862 163.585 106.845 163.507 106.828C162.661 106.527 161.814 106.226 160.994 105.921C160.763 105.842 160.64 105.747 160.724 105.426C160.762 105.308 160.752 105.142 160.709 105.035C160.678 104.815 160.501 104.728 160.277 104.844C160.136 104.92 159.967 105.028 159.821 105.161C159.273 105.604 158.822 106.145 158.422 106.707C157.376 108.174 156.612 109.742 156.214 111.37C156.092 111.809 156.044 112.293 156.027 112.744C155.99 113.114 156.115 113.461 156.276 113.719C156.41 113.981 156.644 114.032 156.948 113.905C157.25 113.805 157.503 113.657 157.768 113.395C158.273 112.847 158.778 112.298 159.256 111.753C159.404 111.592 159.526 111.434 159.678 111.244C159.957 111.373 160.118 111.631 160.313 111.8C160.533 111.993 160.726 112.19 160.946 112.384C161.166 112.577 161.362 112.745 161.612 112.907C161.805 113.103 162.028 113.269 162.275 113.458C162.21 113.58 162.148 113.673 162.059 113.77C161.421 114.59 160.705 115.393 159.943 116.118C158.861 117.142 157.68 117.815 156.361 118.001C154.935 118.204 153.836 117.77 153.067 116.672C152.271 115.578 152.061 114.205 152.244 112.607C152.442 111.119 152.934 109.618 153.579 108.179C154.419 106.376 155.491 104.652 156.884 103.164C157.597 102.389 158.352 101.72 159.25 101.228C159.951 100.849 160.638 100.611 161.365 100.507C162.788 100.334 163.796 100.893 164.371 102.074C164.943 103.284 164.779 104.683 164.161 106.118C164.088 106.325 163.99 106.507 163.89 106.717C163.858 106.778 163.801 106.814 163.741 106.879Z" fill="white"/><path d="M187.962 97.629C187.956 97.9669 187.955 98.2477 187.924 98.5608C187.895 99.4068 187.835 100.286 187.776 101.164C187.745 101.477 187.716 101.509 187.414 101.609C186.655 101.772 185.917 101.989 185.16 102.125C184.129 102.356 183.164 102.717 182.172 103.083C182.035 103.13 181.949 103.199 181.884 103.32C181.719 103.652 181.554 103.984 181.326 104.41C181.517 104.354 181.625 104.339 181.733 104.324C182.36 104.15 183.015 103.973 183.667 103.825C183.804 103.777 183.935 103.786 184.07 103.767C184.205 103.748 184.277 103.822 184.263 103.965C184.276 104.103 184.263 104.245 184.248 104.388C184.192 105.237 184.141 106.031 184.063 106.828C184.082 106.909 184.076 106.966 184.07 107.023C184.021 107.255 183.989 107.315 183.77 107.374C183.31 107.468 182.877 107.557 182.413 107.679C181.546 107.858 180.676 108.066 179.795 108.388C179.547 108.479 179.429 108.608 179.38 108.84C179.325 109.129 179.219 109.396 179.14 109.66C179.124 109.83 179.077 110.034 179.087 110.201C179.092 110.425 179.164 110.498 179.38 110.468C179.676 110.426 179.945 110.387 180.246 110.289C180.988 110.043 181.734 109.741 182.416 109.279C182.529 109.207 182.64 109.163 182.807 109.083C182.852 109.161 182.898 109.239 182.916 109.32C183.199 110.234 183.484 111.12 183.772 111.977C183.79 112.059 183.812 112.112 183.83 112.193C183.873 112.3 183.813 112.364 183.727 112.433C183.667 112.497 183.584 112.537 183.528 112.573C182.201 113.379 180.831 114.079 179.394 114.395C178.823 114.533 178.26 114.584 177.703 114.579C176.331 114.493 175.299 113.377 175.222 111.984C175.167 110.926 175.35 109.861 175.669 108.778C176.066 107.43 176.569 106.096 177.251 104.82C177.578 104.184 177.879 103.552 178.204 102.944C178.304 102.734 178.321 102.563 178.257 102.403C178.183 102.077 178.109 101.751 178.034 101.425C177.994 101.29 177.954 101.156 177.917 100.992C178.087 100.884 178.203 100.783 178.343 100.707C178.708 100.515 179.044 100.327 179.405 100.164C179.653 100.072 179.829 99.9067 179.985 99.66C180.18 99.2959 180.426 98.952 180.646 98.6123C180.71 98.4907 180.826 98.3899 180.918 98.2648C181.273 98.4388 181.63 98.5847 181.928 98.7945C182.226 99.005 182.52 98.9915 182.905 98.8526C183.87 98.4913 184.823 98.2432 185.825 98.0452C186.449 97.9001 187.074 97.7551 187.696 97.6388C187.777 97.6272 187.857 97.6157 187.962 97.629Z" fill="white"/><path d="M162.205 117.953C162.273 117.501 162.344 117.164 162.414 116.826C162.775 115.426 163.111 114.061 163.472 112.661C163.47 112.603 163.495 112.539 163.52 112.474C163.587 111.965 163.865 111.511 163.827 111.002C163.763 110.559 163.752 110.101 163.74 109.642C163.707 109.335 163.725 109.041 163.717 108.697C163.713 108.525 163.789 108.388 163.971 108.279C164.23 108.118 164.489 107.901 164.75 107.798C165.011 107.666 165.112 107.522 165.238 107.256C165.756 105.81 166.302 104.387 166.872 102.926C167.345 101.783 167.897 100.646 168.397 99.5228C168.672 98.8967 169.002 98.3706 169.359 97.8937C169.678 98.0056 171.687 99.2245 172.224 99.6484C172.077 100.065 171.823 100.455 171.595 100.866C171.395 101.297 171.141 101.715 170.94 102.119C170.74 102.551 170.566 103.004 170.392 103.428C170.219 103.853 170.019 104.313 169.87 104.73C169.696 105.154 169.496 105.587 169.375 106.053C169.953 105.947 170.505 105.848 171.029 105.728C171.108 105.706 171.185 105.627 171.235 105.526C171.362 105.317 171.436 105.123 171.51 104.9C172.281 102.979 173.103 101.044 174.113 99.1996C174.29 98.8898 174.492 98.5441 174.695 98.2266C174.746 98.1257 174.823 98.0465 174.925 97.9305C175.888 98.4654 176.85 98.9714 177.838 99.4699C177.738 99.6715 177.637 99.8445 177.562 100.01C175.793 103.194 174.426 106.554 173.401 109.931C172.866 111.756 172.408 113.53 171.899 115.348C171.851 115.534 171.829 115.714 171.78 115.872C171.733 116.087 171.655 116.138 171.47 116.133C171.312 116.12 171.153 116.107 170.995 116.095C170.228 116.024 169.435 115.96 168.668 115.889C168.535 115.84 168.403 115.82 168.218 115.815C168.267 115.628 168.263 115.485 168.312 115.355C168.746 113.703 169.181 112.08 169.615 110.428C169.639 110.334 169.663 110.213 169.66 110.126C169.108 110.168 168.584 110.345 168.035 110.501C167.8 110.597 167.697 110.712 167.573 111.008C167.18 112.215 166.893 113.421 166.579 114.606C166.29 115.698 166.001 116.819 165.712 117.939C165.686 117.976 165.661 118.011 165.637 118.105C164.528 118.045 163.366 117.999 162.205 117.953Z" fill="white"/><path d="M197.803 96.2329C197.797 96.5708 197.795 96.8516 197.765 97.1647C197.735 98.0108 197.676 98.8895 197.616 99.7678C197.585 100.081 197.556 100.113 197.254 100.212C196.495 100.376 195.757 100.593 195 100.729C193.969 100.96 193.004 101.321 192.013 101.686C191.876 101.734 191.789 101.802 191.725 101.924C191.559 102.256 191.394 102.588 191.167 103.014C191.358 102.958 191.465 102.943 191.573 102.927C192.2 102.754 192.855 102.577 193.507 102.428C193.644 102.381 193.776 102.39 193.911 102.371C194.045 102.352 194.117 102.426 194.103 102.568C194.117 102.707 194.103 102.849 194.089 102.992C194.032 103.841 193.981 104.634 193.903 105.432C193.922 105.513 193.917 105.57 193.911 105.627C193.861 105.858 193.829 105.919 193.61 105.978C193.151 106.072 192.717 106.161 192.253 106.283C191.386 106.462 190.517 106.67 189.636 106.992C189.388 107.083 189.269 107.212 189.22 107.444C189.165 107.732 189.06 108 188.98 108.264C188.964 108.434 188.917 108.638 188.928 108.805C188.932 109.029 189.004 109.102 189.22 109.072C189.516 109.03 189.786 108.991 190.087 108.892C190.828 108.647 191.574 108.344 192.257 107.883C192.369 107.811 192.48 107.767 192.647 107.687C192.693 107.765 192.738 107.842 192.757 107.924C193.039 108.838 193.324 109.724 193.612 110.581C193.63 110.663 193.652 110.716 193.67 110.797C193.713 110.904 193.654 110.968 193.567 111.037C193.508 111.101 193.424 111.141 193.368 111.177C192.041 111.983 190.672 112.683 189.234 112.999C188.663 113.137 188.1 113.188 187.543 113.183C186.172 113.097 185.139 111.981 185.063 110.588C185.007 109.53 185.19 108.465 185.509 107.382C185.906 106.034 186.409 104.7 187.091 103.424C187.418 102.788 187.72 102.156 188.044 101.548C188.145 101.338 188.161 101.167 188.097 101.007C188.023 100.681 187.949 100.355 187.874 100.029C187.835 99.8939 187.795 99.7595 187.757 99.5961C187.927 99.4879 188.044 99.3871 188.184 99.3112C188.548 99.1192 188.884 98.9309 189.246 98.7675C189.494 98.6764 189.669 98.5106 189.826 98.2639C190.021 97.8994 190.267 97.5559 190.486 97.2162C190.551 97.0946 190.667 96.9939 190.759 96.8687C191.114 97.0427 191.47 97.1886 191.769 97.3985C192.066 97.6088 192.36 97.5955 192.745 97.4566C193.71 97.0951 194.663 96.847 195.665 96.6491C196.29 96.504 196.915 96.3591 197.536 96.2426C197.617 96.2311 197.698 96.2196 197.803 96.2329Z" fill="white"/><path d="M199.872 101.666C200.402 101.674 200.827 101.67 201.28 101.662C201.917 101.656 202.582 101.646 203.214 101.697C203.846 101.747 204.408 101.976 204.81 102.48C205.4 103.238 205.415 104.162 204.941 105.212C204.699 105.78 204.332 106.281 203.911 106.79C203.222 107.589 202.461 108.315 201.654 108.963C200.356 110.017 199.045 110.933 197.684 111.828C197.317 112.048 196.95 112.269 196.61 112.486C196.497 112.558 196.387 112.602 196.246 112.678C196.136 112.721 196.061 112.676 196.018 112.57C195.972 112.492 195.9 112.418 195.885 112.308C195.575 111.398 195.263 110.516 194.978 109.63C194.957 109.577 194.935 109.524 194.917 109.443C195.03 109.37 195.092 109.277 195.203 109.233C196.314 108.458 197.449 107.707 198.59 106.9C199.046 106.582 199.483 106.183 199.999 105.802C199.713 105.73 199.444 105.768 199.208 105.746C198.704 105.733 198.228 105.716 197.701 105.679C197.308 105.622 196.951 105.477 196.623 105.299C195.495 104.617 195.158 103.177 195.731 101.664C196.087 100.744 196.668 99.9597 197.375 99.2416C197.966 98.6243 198.654 98.106 199.363 97.6402C200.728 96.7167 202.127 95.9843 203.611 95.465C204.215 95.2672 204.81 95.1549 205.437 94.9812C205.574 94.9338 205.674 95.0038 205.684 95.1704C205.676 95.2561 205.692 95.3661 205.71 95.4476C205.697 96.4041 205.712 97.328 205.695 98.3126C205.702 98.7887 205.67 98.8498 205.179 98.9755C203.577 99.3434 202.017 100.098 200.562 101.118C200.393 101.227 200.25 101.331 200.104 101.464C200.047 101.5 200.018 101.533 199.872 101.666Z" fill="white"/><path d="M213.554 94.4324C213.756 94.5779 213.768 94.8675 213.827 95.1801C213.951 95.8401 214.047 96.5058 214.111 97.1746C214.129 97.3583 214.143 97.5511 214.071 97.7188C213.859 98.2126 213.079 98.2325 212.653 98.3646C212.017 98.5621 211.397 98.806 210.769 99.0247C210.631 99.0726 210.545 99.1407 210.48 99.2622C210.315 99.5946 210.149 99.9265 209.923 100.352C210.113 100.297 210.221 100.281 210.329 100.266C210.956 100.093 211.611 99.9155 212.262 99.7668C212.399 99.7194 212.532 99.7286 212.666 99.7097C212.801 99.6904 212.873 99.7644 212.859 99.9067C212.873 100.045 212.858 100.187 212.845 100.33C212.788 101.18 212.737 101.973 212.659 102.77C212.678 102.851 212.672 102.909 212.666 102.965C212.617 103.197 212.585 103.257 212.366 103.317C211.906 103.41 211.473 103.5 211.009 103.622C210.142 103.801 209.272 104.009 208.392 104.33C208.144 104.422 208.025 104.55 207.976 104.783C207.921 105.071 207.815 105.339 207.736 105.602C207.719 105.773 207.673 105.976 207.684 106.143C207.688 106.367 207.76 106.441 207.976 106.41C208.272 106.368 208.541 106.33 208.843 106.231C209.583 105.985 210.33 105.683 211.012 105.221C211.125 105.149 211.236 105.105 211.403 105.025C211.448 105.103 211.494 105.181 211.512 105.262C211.795 106.176 212.079 107.062 212.368 107.92C212.386 108.001 212.408 108.055 212.426 108.136C212.469 108.242 212.41 108.306 212.323 108.375C212.264 108.439 212.18 108.479 212.124 108.516C210.797 109.321 209.428 110.021 207.99 110.338C207.419 110.475 206.856 110.526 206.299 110.521C204.927 110.436 203.895 109.319 203.819 107.927C203.763 106.868 203.946 105.803 204.265 104.72C204.662 103.372 205.164 102.038 205.847 100.762C206.175 100.126 206.475 99.4943 206.8 98.8867C206.9 98.6762 206.917 98.5049 206.853 98.3462C206.779 98.0198 206.705 97.6934 206.63 97.3671C206.591 97.2326 206.55 97.0978 206.513 96.9348C206.683 96.8261 206.799 96.7258 206.939 96.6498C207.303 96.4579 207.64 96.2692 208.001 96.1058C208.249 96.0146 208.425 95.8494 208.582 95.6021C208.776 95.238 209.022 94.8942 209.241 94.5544C209.307 94.4329 209.423 94.3321 209.514 94.2069C209.869 94.3813 210.226 94.5268 210.524 94.7372C210.822 94.9476 211.116 94.9338 211.501 94.7947C212.037 94.6014 212.73 94.2631 213.31 94.3432C213.413 94.3574 213.492 94.3882 213.554 94.4324Z" fill="white"/></g></svg>