<svg width="46" height="46" viewBox="0 0 46 46" fill="none" xmlns="http://www.w3.org/2000/svg"><mask id="mask0_23_543" style="mask-type:alpha" maskUnits="userSpaceOnUse" x="0" y="0" width="46" height="46"><rect width="46" height="46" fill="#D9D9D9"/></mask><g mask="url(#mask0_23_543)"><path d="M12.6919 24.8511H17.3947V44.2126C17.3947 44.595 17.7045 44.9048 18.0869 44.9048H26.0612C26.4432 44.9048 26.753 44.595 26.753 44.2126V24.9423H32.1598C32.5111 24.9423 32.807 24.6783 32.8469 24.3293L33.6681 17.2014C33.6906 17.0054 33.6285 16.8089 33.4973 16.6618C33.366 16.5146 33.1781 16.43 32.9809 16.43H26.7534V11.962C26.7534 10.6152 27.4787 9.9319 28.909 9.9319H32.9809C33.3633 9.9319 33.6728 9.62208 33.6728 9.24004V2.69729C33.6728 2.31487 33.3633 2.00504 32.9809 2.00504H27.3696C27.33 2.0031 27.2418 2 27.1125 2C26.1388 2 22.7545 2.1914 20.081 4.65056C17.119 7.37606 17.5306 10.6393 17.6292 11.205V16.43H12.6919C12.3094 16.43 12 16.7398 12 17.1219V24.1588C12 24.5413 12.3094 24.8511 12.6919 24.8511Z" fill="white"/></g></svg>