<svg width="280" height="162" viewBox="0 0 280 162" fill="none" xmlns="http://www.w3.org/2000/svg"><mask id="mask0_17_179" style="mask-type:alpha" maskUnits="userSpaceOnUse" x="0" y="0" width="280" height="162"><rect width="280" height="162" fill="#D9D9D9"/></mask><g mask="url(#mask0_17_179)"><path d="M174.343 84.2315C176.2 84.2315 177.846 82.8823 178.019 81.2175C178.192 79.5536 176.828 78.2043 174.971 78.2043C173.114 78.2043 171.468 79.5536 171.295 81.2175C171.122 82.8823 172.486 84.2315 174.343 84.2315Z" fill="white"/><path d="M28.0208 73.3171C25.8896 73.3171 16.3601 73.3034 16.3601 73.3034C16.3508 73.3034 16.3427 73.3082 16.3334 73.3085H15.7176L15.2499 75.8319C15.2499 75.8319 16.5429 75.9949 17.6293 76.266C17.6315 76.2667 17.6348 76.2663 17.6348 76.2663C18.2934 76.4495 18.8328 76.7687 18.801 77.6223L13.8024 104.743C13.7148 105.227 13.392 105.643 12.9886 105.868C12.6928 106.017 11.9225 106.019 11.4767 105.993L11 108.551L22.0118 108.551C22.0141 108.551 22.0163 108.549 22.0186 108.549H22.7625L23.2157 106.047C22.4972 105.996 21.819 105.957 21.5654 105.637C21.4022 105.403 21.331 105.09 21.3938 104.743L22.8487 96.7235H24.9275C32.282 96.7235 41.0145 92.8994 42.0062 85.3419C43.1757 76.4344 36.3806 73.3171 28.0208 73.3171ZM34.7045 84.6634C33.9455 88.6533 31.186 93.5017 23.4632 93.336L26.5163 76.7471C33.6323 76.126 35.5028 80.4677 34.7045 84.6634Z" fill="white"/><path d="M56.7552 102.512C56.7098 102.541 56.6631 102.574 56.6142 102.61C54.9104 103.864 52.1763 104.799 50.0267 104.723C47.7494 104.643 45.1347 103.686 45.828 100.07C47.5186 100.571 51.8431 101.503 55.8655 99.4622C63.1958 95.7432 60.999 87.5825 55.13 86.3533C54.1846 86.0866 53.0802 85.963 51.7926 86.0532C46.6289 86.4139 40.8069 90.3841 39.3874 97.5027C37.9508 104.707 41.4419 109.008 47.5369 109.008C51.3516 109.008 55.465 107.143 57.8416 104.052C57.866 104.021 57.8902 103.99 57.914 103.96L56.7552 102.512ZM50.0126 90.655C51.0137 89.7595 52.3617 88.8666 53.6377 88.9977C56.1738 89.2584 55.4399 92.4513 54.3162 94.1302C52.1834 97.3172 47.6699 98.3381 46.158 97.6427C46.158 97.6427 46.9714 93.3763 50.0126 90.655Z" fill="white"/><path d="M80.8733 86.6493C80.5845 86.6493 79.1534 86.5213 77.5794 86.386C76.803 86.3194 76.0414 86.1346 75.2637 86.0834C71.7436 85.8519 68.2717 86.588 65.683 89.1074C63.4211 91.3088 62.1072 94.327 61.5139 97.3704C61.4724 97.583 61.4334 97.7965 61.3997 98.0105C60.3825 104.457 63.7813 109.208 69.5215 109.207C70.5597 109.207 71.5896 108.927 72.4971 108.433C72.9481 108.187 73.3607 107.884 73.7563 107.559C73.8396 107.49 74.6416 106.789 74.724 106.671C74.724 106.671 75.2808 107.523 76.3267 108.175C76.9537 108.566 77.7571 108.885 78.7218 108.906C79.996 108.933 81.4447 108.4 82.2654 107.458C82.7843 106.863 83.0473 106.295 83.0473 106.295L82.3891 105.414C82.1644 105.568 81.6062 105.607 81.2315 105.435C81.0825 105.35 80.9505 105.245 80.8492 105.113C80.554 104.709 80.5797 104.05 80.6502 103.572L81.8074 97.4202L82.4023 94.4356C82.4824 94.034 82.541 93.6533 82.5847 93.2871L83.1887 90.0752C83.3167 89.4293 83.9509 88.906 84.6159 88.9057L85.0276 86.6528L80.8733 86.6493ZM76.6685 89.7116L74.0563 102.84C73.7276 104.49 72.255 105.9 70.5326 105.825C67.3018 105.745 66.7211 101.639 67.9729 96.3065C68.9682 92.0661 70.9449 89.4674 74.1251 89.2737C74.4349 89.255 75.1723 89.221 76.6697 89.7011L76.6685 89.7116Z" fill="white"/><path d="M103.064 84.8815C99.8972 84.7231 96.8595 88.1703 95.4523 90.0393L96.5193 84.8091L95.3093 84.0492C92.5598 85.978 88.7013 86.4746 87.4848 86.587L87.0677 88.9612C87.3278 89.0204 88.8002 89.4223 88.7666 90.9236C88.7518 91.5904 88.4549 93.1486 88.4549 93.1486L88.4627 93.1461L86.0933 105.149C86.0347 105.445 85.8677 105.712 85.6446 105.919C85.3452 106.15 84.97 106.249 84.6207 106.288L84.2322 108.783H93.378C93.3867 108.783 93.3951 108.779 93.4037 108.779H94.1469L94.5571 106.347C93.8734 106.298 93.0967 106.359 92.8208 105.737C92.7529 105.563 92.7297 105.364 92.7722 105.149L94.3938 96.9232C94.6743 95.5044 95.7007 93.5611 97.0002 92.317C97.0257 92.2935 97.0509 92.2701 97.0764 92.2472C97.1685 92.1617 97.2612 92.0808 97.3558 92.0033C97.4105 91.9578 97.4666 91.914 97.5233 91.8715C97.549 91.8517 97.5751 91.8343 97.6009 91.8156C98.0792 91.4752 98.6476 91.2428 99.5595 91.1916C100.187 91.9769 101.164 92.4745 102.311 92.4745C104.437 92.4745 106.328 90.7747 106.536 88.678C106.744 86.5813 105.19 84.8815 103.064 84.8815Z" fill="white"/><path d="M157.599 76.8357L156.581 78.9118L156.585 78.9096L147.815 96.5247L145.793 78.893L145.798 78.8984L145.551 76.7681C145.551 76.7681 142.279 77.1942 139.038 76.6829C136.465 76.2768 133.914 75.416 130.743 75.4942C126.57 75.597 122.985 77.2354 122.187 80.795C121.68 83.0575 123.244 84.9596 125.252 85.4007C126.622 85.702 128.329 85.4235 129.486 83.9302C129.595 83.7908 129.558 83.5913 129.413 83.4901C128.38 82.7677 128.533 81.3876 128.785 80.6824C129.418 78.9073 132.402 78.1926 134.684 79.0829C134.949 79.1861 135.123 79.4338 135.07 79.7094L130.106 105.355C130.096 105.408 130.078 105.458 130.062 105.509C129.743 106.328 129.146 106.323 128.551 106.323C128.448 106.323 127.905 106.305 127.901 106.298L127.428 108.8L134.872 108.799C134.875 108.799 134.878 108.798 134.88 108.798H135.613L135.781 107.869L135.894 107.26C135.895 107.255 135.893 107.251 135.894 107.245L136.056 106.347C135.906 106.347 135.525 106.35 135.346 106.347C134.707 106.334 134.208 106.161 134.207 105.536C134.208 105.477 134.21 105.417 134.222 105.355L138.517 83.1877H138.574L140.925 102.73C141.077 104.027 141.25 105.504 141.25 105.504H147.43L149.961 100.511L149.959 100.512L158.862 83.1877H158.919L154.608 105.355C154.597 105.408 154.578 105.458 154.561 105.509C154.243 106.328 153.645 106.323 153.051 106.323C152.948 106.323 152.404 106.305 152.36 106.298L151.886 108.8L162.637 108.799C162.64 108.799 162.642 108.798 162.645 108.798H163.404L163.847 106.347C163.45 106.332 162.131 106.575 162.011 105.535C162.013 105.476 162.016 105.416 162.028 105.355L166.898 80.2804C166.978 79.8748 167.256 79.517 167.614 79.3055C168.176 79.0306 169.152 79.129 169.152 79.129L169.633 76.8357H157.599Z" fill="white"/><path d="M174.18 105.355L177.443 88.1319C177.678 86.5232 176.32 86.6118 176.145 86.6118L169.847 86.6162C169.843 86.6162 169.839 86.6185 169.835 86.6185H169.097L168.629 88.8978H169.592C169.666 88.8978 169.729 88.9124 169.792 88.9267C169.841 88.9403 169.89 88.9536 169.935 88.9737C169.942 88.9766 169.948 88.98 169.955 88.9832C170.014 89.0109 170.069 89.0435 170.118 89.0816C170.127 89.088 170.134 89.095 170.141 89.1013C170.183 89.135 170.22 89.1718 170.255 89.2118C170.273 89.2335 170.287 89.2554 170.303 89.2776C170.332 89.3173 170.36 89.3567 170.382 89.4011L170.383 89.4043C170.474 89.5919 170.504 89.8178 170.456 90.0609L168.067 102.43C168.047 102.531 168.027 102.639 168.005 102.755C167.648 104.654 167.538 105.875 168.116 106.988C168.663 108.042 169.575 108.713 172.332 108.781H174.791L174.796 108.78H175.551L175.793 107.447L175.83 107.26C175.831 107.254 175.829 107.25 175.83 107.245L175.993 106.347C175.289 106.299 174.412 106.475 174.167 105.675C174.158 105.573 174.158 105.467 174.18 105.355Z" fill="white"/><path d="M191.339 78.2755C191.573 76.6665 190.216 76.7551 190.041 76.7551L182.46 76.7548L181.979 79.3598C181.979 79.3598 183.409 79.3869 183.767 79.6447C183.802 79.6704 183.842 79.6984 183.88 79.7263C184.163 79.9676 184.365 80.4452 184.169 81.4505L180.011 102.89C179.674 104.71 179.582 105.903 180.145 106.988C180.702 108.06 181.639 108.735 184.508 108.783H186.852C186.856 108.783 186.859 108.78 186.864 108.78H187.592L188.036 106.347C187.342 106.3 186.59 106.351 186.296 105.778C186.227 105.603 186.202 105.401 186.245 105.182L191.339 78.2755Z" fill="white"/><path d="M203.332 78.2755C203.566 76.6665 202.208 76.7551 202.034 76.7551L194.453 76.7548L193.972 79.3598C193.972 79.3598 195.402 79.3869 195.76 79.6447C195.796 79.6704 195.834 79.6984 195.873 79.7263C196.156 79.9676 196.358 80.4452 196.162 81.4505L192.004 102.89C191.668 104.71 191.575 105.903 192.138 106.988C192.695 108.06 193.632 108.735 196.503 108.783H198.845C198.849 108.783 198.853 108.78 198.857 108.78H199.585L200.028 106.347C199.335 106.3 198.583 106.351 198.29 105.778C198.22 105.603 198.195 105.401 198.238 105.182L203.332 78.2755Z" fill="white"/><path d="M117.657 78.2755C117.891 76.6665 116.534 76.7551 116.359 76.7551L108.632 76.7548L108.15 79.3598C108.15 79.3598 109.581 79.3869 109.938 79.6447C110.077 79.7445 110.245 79.866 110.401 79.9781C110.56 80.263 110.631 80.7142 110.487 81.4505L106.329 102.89C105.993 104.71 105.9 105.903 106.463 106.988C107.02 108.06 107.957 108.735 110.828 108.783H113.17C113.174 108.783 113.178 108.78 113.181 108.78H113.91L114.353 106.347C113.66 106.3 112.908 106.351 112.614 105.778C112.544 105.603 112.52 105.401 112.563 105.182L117.657 78.2755Z" fill="white"/><path d="M210.268 84.2315C212.124 84.2315 213.77 82.8823 213.943 81.2175C214.117 79.5536 212.752 78.2043 210.895 78.2043C209.038 78.2043 207.392 79.5536 207.219 81.2175C207.046 82.8823 208.411 84.2315 210.268 84.2315Z" fill="white"/><path d="M213.368 88.1318C213.601 86.5228 212.244 86.6114 212.069 86.6114L205.771 86.6158C205.767 86.6158 205.763 86.618 205.759 86.618H205.021L204.553 88.8977H205.515C205.59 88.8977 205.652 88.9119 205.716 88.9266C205.765 88.9399 205.814 88.9533 205.859 88.9733C205.866 88.9764 205.872 88.9799 205.879 88.9831C205.937 89.0107 205.992 89.0431 206.042 89.0812C206.051 89.0876 206.058 89.0948 206.066 89.1016C206.107 89.1348 206.145 89.1718 206.179 89.2117C206.196 89.233 206.212 89.2553 206.227 89.2771C206.255 89.3168 206.284 89.3562 206.306 89.4007L206.308 89.4042C206.398 89.5915 206.428 89.8176 206.38 90.0605L204.545 99.5594C204.273 101.008 204.276 101.014 203.948 102.755C203.59 104.654 203.48 105.875 204.058 106.988C204.604 108.041 205.516 108.712 208.274 108.781H210.714L210.72 108.78H211.474L211.717 107.447L211.754 107.26C211.756 107.254 211.753 107.25 211.754 107.244L211.917 106.347C211.212 106.298 210.336 106.474 210.092 105.675C210.082 105.573 210.082 105.467 210.105 105.355L213.368 88.1318Z" fill="white"/><path d="M237.4 92.3849C238.261 88.1835 235.663 86.3659 232.378 86.3301C229.987 86.3044 227.262 87.297 225.359 89.0406L225.531 88.1317C225.765 86.5229 224.408 86.6114 224.233 86.6114L217.984 86.6158C217.98 86.6158 217.976 86.6181 217.972 86.6181H217.197L216.73 88.8977H217.692C217.79 88.8977 217.878 88.9117 217.957 88.9362C218.373 89.065 218.541 89.4784 218.599 89.6792C218.617 89.7992 218.62 89.9262 218.593 90.0605L215.638 105.355C215.608 105.509 215.547 105.655 215.466 105.79C214.895 106.447 213.804 106.322 213.393 106.298L212.929 108.782H213.637C213.646 108.782 213.652 108.786 213.661 108.786H222.919C222.932 108.786 222.944 108.78 222.957 108.78H223.454L223.862 106.334C223.192 106.312 222.404 106.311 222.299 105.632C222.295 105.542 222.298 105.451 222.317 105.355L224.381 94.4635C224.683 92.9854 226.068 90.7082 228.479 90.7082C230.057 90.7082 231.024 91.3831 230.416 94.0552L228.122 105.377C228.092 105.528 228.033 105.67 227.954 105.802C227.597 106.201 227.041 106.324 226.573 106.353L226.167 108.786H235.368C235.381 108.786 235.393 108.78 235.406 108.78H236.163L236.606 106.347C235.906 106.372 234.887 106.416 234.757 105.651C234.753 105.563 234.756 105.472 234.775 105.377L237.4 92.3849Z" fill="white"/><path d="M262.667 88.9058C262.684 88.9058 262.7 88.8981 262.717 88.897L263.092 86.6528L258.834 86.6489C258.22 86.6489 252.456 86.0716 251.093 86.072C244.526 86.073 240.416 91.487 239.36 98.0105C238.343 104.457 241.741 109.208 247.482 109.207C248.965 109.207 250.28 108.747 251.488 107.826C250.262 115.168 249.075 118.296 246.065 118.337C242.946 118.381 242.624 115.952 244.463 114.057C244.692 112.302 243.017 111.173 241.384 111.13C239.336 111.129 237.34 112.345 236.828 114.333C235.875 118.028 239.044 122.03 245.96 121.877C253.586 121.709 256.915 115.595 257.936 107.162L261.149 90.0752C261.277 89.4293 261.911 88.9058 262.566 88.9058H262.667ZM252.016 102.84C251.688 104.489 250.215 105.9 248.493 105.825C245.262 105.744 244.682 101.639 245.933 96.3063C246.929 92.0662 248.905 89.4671 252.085 89.2737C252.396 89.2547 253.132 89.221 254.631 89.7011L252.016 102.84Z" fill="white"/><path d="M263.723 83.2189L264.15 81.1377L263.515 81.1253C263.42 81.1234 263.349 81.0487 263.37 80.9484L263.415 80.7293C263.434 80.6379 263.535 80.5576 263.631 80.5595L265.508 80.5963C265.612 80.5985 265.671 80.6821 265.653 80.7731L265.608 80.9923C265.588 81.0927 265.496 81.1643 265.392 81.1622L264.757 81.1498L264.33 83.2309C264.311 83.3223 264.209 83.4024 264.114 83.4008L263.867 83.3958C263.763 83.3935 263.704 83.31 263.723 83.2189ZM265.466 83.2163L266.476 80.7072C266.51 80.6345 266.599 80.5719 266.684 80.5738L266.722 80.5744C266.78 80.5753 266.853 80.6318 266.863 80.6779L267.286 82.5098L268.475 80.7097C268.503 80.6643 268.6 80.6113 268.656 80.6122L268.695 80.6131C268.771 80.6147 268.843 80.6801 268.847 80.7536L268.83 83.2918C268.827 83.4017 268.722 83.4912 268.609 83.4888L268.362 83.4844C268.277 83.4824 268.216 83.4081 268.214 83.3256L268.221 81.9967L267.283 83.4078C267.255 83.4532 267.171 83.4881 267.114 83.4872L267.057 83.4859C267.01 83.4852 266.932 83.4469 266.915 83.3912L266.59 81.9649L266.031 83.2918C266.007 83.3646 265.897 83.4358 265.821 83.4342L265.603 83.43C265.48 83.4275 265.424 83.3259 265.466 83.2163Z" fill="white"/><path d="M98.1381 114.362C99.4795 114.362 100.449 114.806 101.352 115.575C101.472 115.679 101.472 115.836 101.365 115.94L100.781 116.527C100.688 116.644 100.569 116.644 100.449 116.527C99.8248 115.992 98.9747 115.653 98.1513 115.653C96.2522 115.653 94.8178 117.219 94.8178 119.044C94.8178 120.87 96.2655 122.421 98.1648 122.421C99.1341 122.421 99.8116 122.043 100.449 121.561C100.569 121.469 100.688 121.483 100.768 121.548L101.378 122.135C101.485 122.226 101.458 122.395 101.365 122.486C100.462 123.347 99.3201 123.752 98.1381 123.752C95.4818 123.752 93.3436 121.678 93.3436 119.07C93.3436 116.462 95.4818 114.362 98.1381 114.362Z" fill="white"/><path d="M110.876 114.362C113.532 114.362 115.657 116.461 115.657 119.07C115.657 121.678 113.532 123.752 110.876 123.752C108.22 123.752 106.108 121.678 106.108 119.07C106.108 116.461 108.22 114.362 110.876 114.362ZM110.876 122.447C112.775 122.447 114.329 120.934 114.329 119.07C114.329 117.218 112.775 115.666 110.876 115.666C108.99 115.666 107.436 117.218 107.436 119.07C107.436 120.934 108.99 122.447 110.876 122.447Z" fill="white"/><path d="M122.269 114.558C122.296 114.454 122.403 114.362 122.509 114.362H122.721C122.801 114.362 122.92 114.427 122.947 114.506L125.723 121.169H125.776L128.538 114.506C128.565 114.427 128.671 114.362 128.764 114.362H128.977C129.083 114.362 129.189 114.454 129.215 114.558L130.849 123.321C130.889 123.503 130.796 123.621 130.61 123.621H129.747C129.627 123.621 129.521 123.53 129.495 123.438L128.512 117.609H128.472L126.081 123.608C126.054 123.686 125.975 123.752 125.856 123.752H125.616C125.51 123.752 125.417 123.686 125.391 123.608L122.987 117.609H122.933L121.977 123.438C121.964 123.53 121.844 123.621 121.738 123.621H120.875C120.689 123.621 120.596 123.503 120.623 123.321L122.269 114.558Z" fill="white"/><path d="M136.54 114.74C136.54 114.61 136.646 114.492 136.792 114.492H139.82C141.454 114.492 142.795 115.796 142.795 117.375C142.795 118.991 141.454 120.308 139.834 120.308H137.908V123.373C137.908 123.503 137.788 123.621 137.655 123.621H136.792C136.646 123.621 136.54 123.503 136.54 123.373V114.74ZM139.741 119.03C140.657 119.03 141.427 118.3 141.427 117.361C141.427 116.475 140.657 115.796 139.741 115.796H137.908V119.03H139.741Z" fill="white"/><path d="M146.323 123.282L150.4 114.506C150.44 114.427 150.559 114.362 150.626 114.362H150.758C150.825 114.362 150.945 114.427 150.984 114.506L155.035 123.282C155.115 123.452 155.008 123.621 154.809 123.621H153.973C153.813 123.621 153.72 123.543 153.667 123.426L152.844 121.639H148.501C148.235 122.239 147.956 122.826 147.691 123.426C147.651 123.517 147.544 123.621 147.385 123.621H146.548C146.349 123.621 146.243 123.452 146.323 123.282ZM152.339 120.517L150.705 116.944H150.639L149.018 120.517H152.339Z" fill="white"/><path d="M160.197 114.597C160.197 114.467 160.317 114.362 160.449 114.362H160.781L166.545 120.909H166.559V114.741C166.559 114.61 166.665 114.493 166.811 114.493H167.661C167.794 114.493 167.913 114.61 167.913 114.741V123.517C167.913 123.647 167.794 123.752 167.661 123.752H167.316L161.552 117.023H161.538V123.373C161.538 123.504 161.432 123.621 161.286 123.621H160.449C160.317 123.621 160.197 123.504 160.197 123.373V114.597Z" fill="white"/><path d="M176.178 119.226L173.07 114.871C172.964 114.701 173.07 114.493 173.282 114.493H174.265C174.371 114.493 174.438 114.558 174.478 114.61L176.882 117.936L179.286 114.61C179.325 114.558 179.405 114.493 179.498 114.493H180.494C180.706 114.493 180.812 114.701 180.706 114.871L177.559 119.214V123.373C177.559 123.504 177.439 123.621 177.307 123.621H176.43C176.284 123.621 176.178 123.504 176.178 123.373V119.226Z" fill="white"/><path d="M88.241 61.1982L88.5014 60.7581C88.5591 60.6587 88.682 60.6587 88.747 60.7082C88.7834 60.7298 89.369 61.1486 89.8393 61.1486C90.2152 61.1486 90.4971 60.907 90.4971 60.6019C90.4971 60.2398 90.1861 59.9912 89.5787 59.7499C88.899 59.4803 88.2194 59.0542 88.2194 58.2162C88.2194 57.5846 88.6965 56.8533 89.8463 56.8533C90.5837 56.8533 91.148 57.2223 91.2925 57.329C91.3646 57.3715 91.3865 57.4922 91.336 57.563L91.0611 57.9679C91.0031 58.053 90.8947 58.1098 90.808 58.053C90.7502 58.0174 90.2007 57.6627 89.8028 57.6627C89.3907 57.6627 89.1664 57.9323 89.1664 58.1597C89.1664 58.4934 89.4342 58.7204 90.0198 58.9548C90.7211 59.2317 91.5311 59.6432 91.5311 60.5593C91.5311 61.2906 90.8876 61.9651 89.8679 61.9651C88.9569 61.9651 88.422 61.5462 88.277 61.4113C88.212 61.3471 88.176 61.3119 88.241 61.1982Z" fill="white"/><path d="M93.1305 57.3491C93.1305 57.1143 93.3208 56.9241 93.5555 56.9241H93.7035C93.9393 56.9241 94.1305 57.1152 94.1305 57.3511V61.4669C94.1305 61.7027 93.9393 61.8939 93.7035 61.8939H93.5545C93.3203 61.8939 93.1305 61.704 93.1305 61.4699V57.3491Z" fill="white"/><path d="M96.0233 56.981C96.0233 56.9098 96.0882 56.853 96.1607 56.853H96.3415L99.3493 59.9912H99.3568V57.0591C99.3568 56.9879 99.4147 56.9241 99.4943 56.9241H100.159C100.232 56.9241 100.297 56.9879 100.297 57.0591V61.8374C100.297 61.9082 100.232 61.9651 100.159 61.9651H99.9859L96.9633 58.7061H96.9563V61.7593C96.9563 61.8301 96.8983 61.8939 96.8188 61.8939H96.1607C96.0882 61.8939 96.0233 61.8301 96.0233 61.7593V56.981Z" fill="white"/><path d="M104.522 56.853C105.252 56.853 105.78 57.08 106.272 57.5135C106.336 57.57 106.336 57.6554 106.279 57.7119L105.838 58.1594C105.787 58.2162 105.715 58.2162 105.657 58.1594C105.353 57.8967 104.948 57.7405 104.543 57.7405C103.618 57.7405 102.931 58.5004 102.931 59.3949C102.931 60.2824 103.625 61.035 104.551 61.035C104.984 61.035 105.353 60.8715 105.657 60.6301C105.715 60.5806 105.794 60.5876 105.838 60.6301L106.286 61.0845C106.344 61.134 106.329 61.2265 106.279 61.276C105.787 61.7447 105.165 61.9647 104.522 61.9647C103.076 61.9647 101.911 60.8359 101.911 59.4159C101.911 57.9962 103.076 56.853 104.522 56.853Z" fill="white"/><path d="M107.839 57.0591C107.839 56.9879 107.897 56.9241 107.976 56.9241H110.919C110.999 56.9241 111.057 56.9879 111.057 57.0591V57.6411C111.057 57.7122 110.999 57.7761 110.919 57.7761H108.779V58.9405H110.565C110.637 58.9405 110.702 59.0043 110.702 59.0751V59.6648C110.702 59.7429 110.637 59.7994 110.565 59.7994H108.779V61.0419H110.919C110.999 61.0419 111.057 61.1058 111.057 61.1769V61.7593C111.057 61.8301 110.999 61.8939 110.919 61.8939H107.976C107.897 61.8939 107.839 61.8301 107.839 61.7593V57.0591Z" fill="white"/><path d="M164.249 58.3581L163.613 58.4931C163.548 58.5074 163.475 58.4648 163.468 58.4007L163.424 58.053C163.417 57.9961 163.432 57.9536 163.461 57.925L164.502 57.0661H165.009C165.08 57.0661 165.138 57.1299 165.138 57.201V61.759C165.138 61.8301 165.08 61.8939 165.009 61.8939H164.387C164.307 61.8939 164.249 61.8301 164.249 61.759V58.3581Z" fill="white"/><path d="M167.69 59.4162V59.3949C167.394 59.2387 166.945 58.8481 166.945 58.2943C166.945 57.5065 167.64 56.9949 168.515 56.9949C169.419 56.9949 170.112 57.5065 170.112 58.2943C170.112 58.8341 169.664 59.2174 169.368 59.3876V59.4162C169.693 59.5794 170.243 59.9912 170.243 60.6019C170.243 61.3757 169.577 61.9651 168.515 61.9651C167.48 61.9651 166.815 61.3757 166.815 60.6019C166.815 59.9839 167.488 59.5156 167.69 59.4162ZM168.529 61.2407C168.927 61.2407 169.281 60.9781 169.281 60.5876C169.281 60.2681 169.013 59.9417 168.529 59.835C168.045 59.9417 167.777 60.2681 167.777 60.5876C167.777 60.9781 168.139 61.2407 168.529 61.2407ZM169.187 58.3299C169.187 57.9891 168.891 57.7266 168.515 57.7266C168.168 57.7266 167.871 57.9891 167.871 58.3299C167.871 58.6493 168.074 58.8979 168.529 59.0043C168.977 58.9049 169.187 58.635 169.187 58.3299Z" fill="white"/><path d="M172.507 59.4162V59.3949C172.21 59.2387 171.762 58.8481 171.762 58.2943C171.762 57.5065 172.456 56.9949 173.331 56.9949C174.235 56.9949 174.929 57.5065 174.929 58.2943C174.929 58.8341 174.481 59.2174 174.184 59.3876V59.4162C174.51 59.5794 175.059 59.9912 175.059 60.6019C175.059 61.3757 174.394 61.9651 173.331 61.9651C172.297 61.9651 171.632 61.3757 171.632 60.6019C171.632 59.9839 172.304 59.5156 172.507 59.4162ZM173.345 61.2407C173.743 61.2407 174.097 60.9781 174.097 60.5876C174.097 60.2681 173.83 59.9417 173.345 59.835C172.861 59.9417 172.593 60.2681 172.593 60.5876C172.593 60.9781 172.955 61.2407 173.345 61.2407ZM174.003 58.3299C174.003 57.9891 173.707 57.7266 173.331 57.7266C172.984 57.7266 172.688 57.9891 172.688 58.3299C172.688 58.6493 172.89 58.8979 173.345 59.0043C173.794 58.9049 174.003 58.635 174.003 58.3299Z" fill="white"/><path d="M176.976 61.2833C177.316 61.1769 178.343 60.7012 178.567 59.9201C178.444 59.9912 178.082 60.1189 177.742 60.1189C177.019 60.1189 176.267 59.5937 176.267 58.5785C176.267 57.6837 177.012 56.9524 177.901 56.9524C179.037 56.9524 179.622 57.8469 179.622 58.9119C179.622 60.9851 177.836 61.8085 177.214 62.0076C177.113 62.0359 177.041 62.0003 177.012 61.9082L176.846 61.4894C176.81 61.4039 176.838 61.3258 176.976 61.2833ZM178.755 58.8055C178.755 58.3226 178.494 57.7618 177.909 57.7618C177.453 57.7618 177.084 58.1451 177.084 58.5925C177.084 59.0469 177.453 59.4232 177.916 59.4232C178.393 59.4232 178.675 59.0612 178.755 58.8055Z" fill="white"/><path d="M157.821 45.5172L146.724 39L136.018 45.7194V48.9866L127.389 43.9184L116.683 50.6381V70.4329H131.009C125.437 70.4078 120.927 65.9448 120.927 60.4421C120.927 54.9243 125.462 50.4511 131.055 50.4511C136.649 50.4511 141.183 54.9243 141.183 60.4421C141.183 61.1325 141.112 61.8063 140.977 62.4569C142.404 61.7117 144.282 61.8117 145.568 62.77C146.907 63.7655 147.531 65.6288 147.109 67.2346C148.364 66.5024 149.943 66.3264 151.322 66.7812C152.491 67.1663 153.493 68.0043 154.111 69.0598C154.325 69.4018 154.484 69.7756 154.582 70.1639C154.605 70.2528 154.62 70.343 154.636 70.4335H157.821V45.5172ZM145.114 53.8135L140.297 53.8138L140.298 50.2336C140.29 48.9164 141.362 47.8384 142.692 47.8254C144.022 47.8127 145.106 48.8697 145.114 50.1869V53.8135ZM153.466 62.9475L148.65 62.9478L148.651 59.3676C148.643 58.0504 149.715 56.9724 151.045 56.9594C152.375 56.9463 153.459 58.0038 153.466 59.3209V62.9475ZM153.466 53.8135L148.65 53.8138L148.651 50.2336C148.643 48.9164 149.715 47.8384 151.045 47.8254C152.375 47.8127 153.459 48.8697 153.466 50.1869V53.8135Z" fill="white"/><path d="M130.074 52.617L130.106 58.214L126.092 54.2987C127.213 53.4064 128.578 52.806 130.074 52.617ZM124.776 55.6229L128.791 59.5378L123.14 59.593C123.308 58.1085 123.893 56.7469 124.776 55.6229ZM123.151 61.4468L128.8 61.3916L124.83 65.3856C123.908 64.2485 123.33 62.8945 123.151 61.4468ZM126.161 66.6853L130.132 62.691L130.164 68.2882C128.694 68.1342 127.322 67.583 126.161 66.6853ZM138.96 59.4393L133.31 59.4943L137.281 55.5003C138.203 56.6377 138.781 57.9914 138.96 59.4393ZM131.947 52.5961C133.411 52.7514 134.786 53.3045 135.949 54.2009L131.979 58.1952L131.947 52.5961ZM132.036 68.2688L132.005 62.6716L136.019 66.5868C134.898 67.4791 133.532 68.0793 132.036 68.2688ZM137.335 65.263L133.32 61.3481L138.97 61.2925C138.803 62.777 138.218 64.1386 137.335 65.263Z" fill="white"/></g></svg>