<svg width="46" height="46" viewBox="0 0 46 46" fill="none" xmlns="http://www.w3.org/2000/svg"><mask id="mask0_23_544" style="mask-type:alpha" maskUnits="userSpaceOnUse" x="0" y="0" width="46" height="46"><rect width="46" height="46" fill="#D9D9D9"/></mask><g mask="url(#mask0_23_544)"><path d="M17.0535 43.95C17.2054 43.6945 17.3499 43.4573 17.4897 43.2177C18.1819 42.032 18.8201 40.8191 19.3203 39.5375C19.5717 38.8942 19.7408 38.2272 19.9155 37.5613C20.2772 36.1873 20.6382 34.8137 20.9993 33.4397C21.014 33.3819 21.0305 33.3244 21.0878 33.2308C21.0958 33.2568 21.0987 33.286 21.1119 33.3085C21.4802 33.9468 22.0189 34.4103 22.6432 34.7807C23.5681 35.3293 24.5706 35.6356 25.6446 35.6772C27.639 35.7541 29.4901 35.2606 31.1889 34.2166C32.9062 33.1617 34.204 31.707 35.1841 29.9587C36.1525 28.2283 36.7136 26.3666 36.9517 24.4025C37.0534 23.565 37.0999 22.7248 37.0662 21.8824C36.978 19.6771 36.3641 17.6322 35.1567 15.7779C33.7642 13.6391 31.8611 12.1071 29.525 11.1058C27.8462 10.3867 26.0882 10.0299 24.2646 9.98606C22.5502 9.94452 20.8597 10.1212 19.2024 10.575C17.0839 11.1551 15.1896 12.1494 13.5846 13.6628C12.321 14.8531 11.3622 16.2567 10.6981 17.8597C10.0617 19.3972 9.73291 20.9999 9.71045 22.6639C9.67962 25.014 10.3274 27.1625 11.6481 29.1041C12.1435 29.834 12.7516 30.4603 13.5023 30.9347C13.696 31.057 13.9021 31.1595 14.1064 31.2636C14.1783 31.3001 14.2601 31.3226 14.3403 31.3358C14.5087 31.3637 14.6262 31.302 14.7049 31.1502C14.7343 31.0927 14.7567 31.0299 14.7731 30.9666C14.975 30.1555 15.1738 29.3437 15.3748 28.5323C15.4262 28.323 15.4003 28.1285 15.2643 27.9584C14.6163 27.1497 14.224 26.2187 13.9514 25.2302C13.5701 23.8426 13.5539 22.4449 13.861 21.043C14.2649 19.198 15.139 17.6105 16.504 16.304C17.475 15.3757 18.6066 14.7095 19.8791 14.2785C21.158 13.8452 22.4756 13.683 23.8199 13.7385C24.998 13.7874 26.1407 14.0141 27.23 14.4781C29.2307 15.3303 30.6882 16.7392 31.5634 18.7352C32.0285 19.7944 32.254 20.909 32.2902 22.0625C32.3367 23.5417 32.1791 24.9992 31.7824 26.426C31.4777 27.5232 31.0305 28.5594 30.3775 29.4974C29.6669 30.517 28.7854 31.342 27.627 31.8324C26.7434 32.2066 25.82 32.3794 24.8707 32.1868C23.5832 31.9259 22.7114 31.1758 22.3672 29.8806C22.2167 29.3119 22.2653 28.7396 22.4274 28.1797C22.7737 26.9886 23.1266 25.7998 23.4778 24.6102C23.71 23.824 23.9355 23.0362 24.0696 22.2256C24.1674 21.6288 24.2045 21.0302 24.0837 20.4319C23.9551 19.7936 23.6885 19.2298 23.1805 18.8004C22.7463 18.4328 22.2354 18.2619 21.676 18.2262C20.6282 18.1591 19.7654 18.559 19.0489 19.2993C18.3689 20.0021 17.9758 20.8589 17.7526 21.8016C17.5444 22.6849 17.5286 23.5774 17.6387 24.4735C17.725 25.1763 17.8935 25.8592 18.1676 26.5142C18.195 26.5774 18.1876 26.664 18.1714 26.7339C17.9299 27.7713 17.6834 28.8079 17.4393 29.8453C16.8619 32.3021 16.2818 34.759 15.7077 37.217C15.5338 37.9647 15.4677 38.7269 15.4449 39.4937C15.4072 40.736 15.4731 41.9738 15.6102 43.208C15.6171 43.2659 15.6193 43.3241 15.6256 43.4107C15.3841 43.3101 15.1664 43.2235 14.9517 43.1308C12.7341 42.171 10.7329 40.877 8.95471 39.2425C6.72223 37.191 4.99389 34.7764 3.77948 31.9966C2.97174 30.1466 2.44165 28.2189 2.18145 26.2179C1.96393 24.5519 1.94183 22.8821 2.11596 21.2119C2.43097 18.1971 3.34198 15.3714 4.85467 12.7434C5.77063 11.1527 6.87555 9.70497 8.16308 8.39697C9.68133 6.85523 11.3919 5.56936 13.2975 4.544C15.0746 3.58774 16.9505 2.89744 18.9249 2.47503C20.2167 2.19859 21.5221 2.04408 22.842 2.00835C25.1004 1.94662 27.3131 2.22655 29.4817 2.86211C31.9411 3.58309 34.1966 4.7125 36.2496 6.24607C38.121 7.64454 39.7228 9.30663 41.0532 11.2288C42.0888 12.724 42.9206 14.3251 43.5449 16.0326C44.0821 17.5006 44.4523 19.0097 44.6569 20.56C44.8062 21.6952 44.8687 22.8347 44.8397 23.9781C44.7819 26.2404 44.3898 28.4426 43.6363 30.5791C42.7358 33.1349 41.3995 35.4384 39.6274 37.486C37.7618 39.6408 35.5554 41.3603 33.0073 42.6404C31.1581 43.5691 29.2142 44.212 27.1782 44.5754C26.1324 44.7618 25.0789 44.8654 24.0168 44.8953C22.4476 44.9396 20.8909 44.8239 19.3523 44.5199C18.6243 44.3759 17.9082 44.1728 17.1873 43.9958C17.1503 43.9865 17.115 43.9713 17.0535 43.95Z" fill="white"/></g></svg>