<svg width="158" height="162" viewBox="0 0 158 162" fill="none" xmlns="http://www.w3.org/2000/svg"><g clip-path="url(#clip0_211_135)"><mask id="mask0_211_135" style="mask-type:alpha" maskUnits="userSpaceOnUse" x="-61" y="0" width="280" height="162"><path d="M219 0H-61V162H219V0Z" fill="#D9D9D9"/></mask><g mask="url(#mask0_211_135)"><path d="M66.546 37.6505C65.894 37.9197 65.262 38.919 65.445 39.8617C65.802 39.3545 66.976 38.8183 67.772 38.6478C68.592 38.3242 68.365 37.407 68.365 37.407C68.365 37.407 66.884 37.5113 66.546 37.6505Z" fill="white"/><path d="M70.356 52.5978C70.308 52.6858 69.636 53.9321 68.313 53.8735C67.764 55.7952 67.672 59.1814 69.32 60.3711C69.686 59.9138 70.509 58.6615 70.844 58.5096C70.204 58.0833 70.174 57.1078 70.357 56.3757C70.507 55.7714 69.38 56.0097 69.076 55.215C69.962 54.5654 70.334 52.7131 70.356 52.5978Z" fill="white"/><path d="M71.073 39.7807C70.753 39.5063 70.188 39.2622 69.761 39.2622C69.456 39.3841 68.93 39.8046 68.922 39.918C69.639 39.9333 70.737 39.8723 71.286 40.3603C71.439 40.2384 71.269 39.9487 71.073 39.7807Z" fill="white"/><path d="M34.9088 31.8488C36.8971 21.9395 47.005 22.8323 59.216 24.4219C75.412 26.5301 84.35 23.4066 91.604 20.7052C97.503 18.5103 101.971 16.203 106.902 18.6704C111.716 21.0771 114.798 26.4822 113.55 32.7992C115.184 25.9916 112.214 19.9826 107.268 17.5097C102.337 15.0443 98.207 15.8344 92.625 17.8764C85.897 20.3372 74.475 23.6556 59.889 22.3215C59.466 19.6951 58.341 17.2666 58.341 17.1639C61.584 15.3481 66.532 13.5127 73.712 13.0183C83.543 12.341 89.944 15.9797 90.765 17.0123C90.828 16.6078 90.883 15.9797 90.231 15.4817C89.576 14.9807 88.492 14.3839 86.387 13.6516C83.45 12.6304 78.969 11.7187 73.712 12.0812C65.75 12.6304 61.418 14.2464 57.697 16.2597C56.348 16.9885 54.579 18.1912 55.023 19.8327C55.22 20.5634 55.348 21.2622 55.378 21.5677C45.067 20.0722 35.9339 21.48 34.4512 30.2621C34.0138 32.8517 34.2882 35.1655 35.046 37.2193C34.6526 35.6192 34.5118 33.8272 34.9088 31.8488Z" fill="white"/><path d="M68.011 42.4656C67.781 42.3026 67.596 41.9646 67.522 41.6791C67.034 41.842 66.871 42.1777 66.871 42.1777C67.156 42.4222 67.503 42.5669 68.161 42.653C68.11 42.7886 68.161 43.3048 68.26 43.8482C68.45 43.8889 68.871 43.916 69.102 43.9567C68.828 44.1399 68.558 44.3916 68.287 44.6631C65.931 47.0186 67.328 49.028 67.328 49.028C67.328 49.028 69.291 48.2379 70.786 46.7817C71.729 45.8625 72.415 44.3642 71.183 43.7677C71.475 43.5392 71.736 42.3544 71.736 42.3544C71.736 42.3544 70.959 42.3407 70.741 42.2592C70.85 42.1507 70.945 42.1781 70.741 41.8828C70.537 41.5875 70.079 41.3632 69.967 41.3124C69.926 41.5875 69.845 41.8828 69.845 41.8828L69.139 41.6347C69.139 41.6347 69.285 42.1602 69.397 42.4656C69.22 42.4926 68.337 42.5063 68.011 42.4656Z" fill="white"/><path d="M62.274 58.5158C63.687 61.457 67.042 62.8296 67.146 62.8697C65.958 62.015 65.389 60.7615 65.134 59.431C64.768 57.5089 64.684 53.1821 64.342 52.3529C63.701 50.7972 62.597 48.3811 63.121 46.3752C63.67 44.2702 65.075 43.6516 65.807 43.2856C65.518 43.0226 65.18 42.8942 64.838 42.8671C63.967 42.798 63.17 43.2589 63.123 43.2853C63.145 43.223 63.551 42.0464 63.403 41.0669C64.459 40.6862 64.245 39.4894 64.757 38.4079C64.361 38.5064 63.597 38.9102 63.224 39.1833C63.051 39.3094 62.944 38.8319 62.934 38.7641C63.416 38.0027 64.159 36.7952 64.159 36.7952L63.857 33.9725C60.006 36.2825 56.569 34.5498 56.133 34.3079C55.419 35.2013 55.038 36.1749 54.859 37.112C54.502 38.9881 52.256 38.5269 50.832 41.5966C49.948 43.5037 50.807 44.6096 50.421 46.0809C49.935 47.9332 47.354 46.7109 46.798 46.0264C46.798 46.0264 47.167 47.3566 47.737 49.028C43.634 52.1117 44.176 58.7436 47.286 61.3782C50.502 64.1027 55.639 63.7957 57.563 61.7064C54.111 62.5777 50.971 61.5434 49.696 58.5767C49.163 57.0813 49.272 55.4969 49.814 54.772C50.722 57.7114 54.25 58.9535 57.055 57.0024C59.861 55.0494 58.886 51.9983 58.886 51.9983L60.986 50.5476C61.21 52.5387 61.413 56.7188 62.274 58.5158ZM60.741 41.1533C60.741 43.3498 60.315 46.5528 60.315 46.5528C60.315 46.5528 57.813 44.5395 57.606 41.6328C57.498 40.1357 58.82 37.4011 60.833 36.1198C60.833 36.1198 59.918 39.3228 60.741 41.1533Z" fill="white"/><path d="M72.771 48.8091C72.447 49.5062 72.614 50.2129 72.614 50.2129L73.712 50.03C73.529 49.1148 73.809 47.5698 73.809 47.5698C73.809 47.5698 73.059 48.1904 72.771 48.8091Z" fill="white"/><path d="M128.379 85.9046C127.402 83.4646 124.596 80.291 122.156 81.8779C122.156 81.8779 110.645 77.9132 101.4 74.7375C102.13 75.4094 103.428 77.0768 103.821 77.8509C110.777 80.3219 120.478 82.3355 122.136 84.0542C122.136 84.0542 123.814 83.2358 125.409 83.9496C127.464 84.8668 129.519 89.2928 130.819 98.7169C131.167 101.23 131.712 103.267 131.883 103.104C131.438 96.7254 130.393 89.6715 128.379 85.9046Z" fill="white"/><path d="M24.9021 82.0004C22.219 83.5854 19.2901 97.3752 18.5581 100.547C18.1555 102.29 18.3423 103.406 18.5727 104.241C18.9114 98.1018 24.7685 84.5574 25.8796 83.9514C27.2212 83.2194 29.5406 83.2194 29.5406 83.2194L56.384 75.2883C56.384 74.3222 56.701 73.1012 57.199 72.0377C53.749 72.9292 37.3869 77.256 28.6854 81.389C28.6854 81.389 26.5038 81.0542 24.9021 82.0004Z" fill="white"/><path d="M115.956 89.411C109.976 88.7393 100.581 81.6611 96.554 78.3666C92.528 75.0719 85.953 70.0694 85.953 70.0694C85.953 70.0694 86.967 69.5039 87.468 68.7024C87.792 68.1825 87.661 66.9179 87.554 67.0036C87.097 67.3697 86.059 67.8126 86.059 67.8126L86.273 63.2058L86.914 62.3218C89.354 60.0631 89.476 56.8307 90.148 54.0231C90.32 53.3054 90.486 52.5824 90.638 51.8778C90.794 52.3901 90.923 52.9002 91.032 53.1388C91.856 53.2304 92.924 52.6574 93.595 52.2236C92.679 53.7796 91.733 56.6475 92.771 58.4158C93.97 60.4604 97.896 61.1612 99.604 59.4536L99.603 59.4624C98.609 61.0758 96.886 62.3147 94.77 62.728C93.831 62.9115 92.903 62.9144 92.027 62.7641C93.584 64.3639 96.024 65.1637 98.541 64.6725C101.295 64.1347 103.382 62.1996 104.066 59.8604C104.734 57.7369 104.634 53.9651 101.74 51.9491C102.125 49.4003 101.962 45.5705 99.483 42.2485C97.64 39.7799 96.005 40.1746 95.333 36.88C94.68 33.6714 92.522 30.869 88.241 31.118L88.805 32.8533C85.387 29.985 71.63 29.8934 68.61 31.9984C69.068 33.6457 67.755 35.4762 67.755 35.4762C68.305 35.1704 69.708 35.0495 70.501 35.1101C71.296 35.7816 73.552 36.3914 73.552 36.3914L72.943 36.88C72.943 36.88 73.796 37.1838 74.345 37.4292C74.894 37.6723 75.869 38.465 75.809 39.8688C75.749 41.271 76.023 45.4515 76.023 45.4515L76.481 45.5428C75.871 46.458 75.566 47.9225 76.115 48.7149C76.664 49.5075 77.334 49.8755 78.128 49.5698C78.921 49.266 79.775 49.4472 80.264 49.9961C80.753 50.5453 79.958 50.9114 79.958 50.9114C79.958 50.9114 78.86 50.5453 78.434 50.9114C78.333 50.9955 78.185 51.1053 78.029 51.2151L78.265 52.91L76.939 53.6424L76.9 51.8429L75.871 52.2549L74.711 54.7551C74.711 54.7551 75.505 54.6342 75.932 54.8174C76.358 55.0003 77.519 55.1212 77.519 55.1212C77.519 55.1212 78.311 54.8174 78.86 54.6949C79.409 54.5719 80.264 54.4514 81.423 54.6949C82.581 54.938 82.982 54.5739 83.193 54.2682C83.742 53.4739 82.827 52.4984 82.827 52.4984C83.253 52.2549 83.619 51.5831 83.619 51.5831C84.9 52.8041 86.731 51.8888 86.731 51.8888C86.974 53.9625 85.572 56.8288 84.291 58.112C83.985 57.9894 83.496 56.7685 83.68 55.6704C83.76 55.1851 82.643 55.304 82.643 55.304C82.643 55.304 82.155 55.6704 81.666 55.8532C81.179 56.0364 78.8 56.525 77.762 56.4025C76.724 56.2815 74.834 56.9517 74.345 57.9289C75.994 58.6592 78.617 58.2329 78.617 58.2329L78.86 60.6123C77.335 60.0631 75.04 61.0478 74.65 62.4424C74.224 63.9692 74.65 65.3107 74.65 65.3107C74.65 65.3107 72.637 65.1276 71.844 64.7615C71.213 64.4688 70.807 64.9447 70.807 64.9447C70.807 64.9447 71.722 65.7993 73.492 66.3485C75.26 66.8977 78.311 67.2015 80.324 66.226C82.338 65.2504 83.68 64.3351 83.68 64.3351L84.412 64.3955C84.412 64.3955 82.643 66.2863 81.972 67.0805C81.3 67.8733 81.179 68.545 81.179 68.545C81.179 68.545 78.555 68.9713 77.945 69.2771C77.335 69.5808 77.273 70.0091 77.273 70.0091C77.273 70.0091 74.59 69.2148 74.041 69.2148C73.492 69.2148 73.003 69.4602 72.881 70.0694C70.014 69.2771 67.419 67.9648 65.499 66.8664C62.936 65.4023 61.838 64.152 61.838 64.152C61.838 64.152 61.576 65.2211 61.655 65.7683C61.746 66.4088 62.57 67.4156 64.4 68.4221C68.034 70.4211 72.76 72.2659 72.76 72.2659C72.76 72.2659 72.577 75.0116 73.735 80.6856C74.894 86.3595 80.996 93.498 84.595 93.9246C88.195 94.3529 92.465 92.2167 95.639 92.0941C98.811 91.9732 98.139 95.3888 96.554 97.2192C94.967 99.0494 94.113 100.697 93.929 101.674C93.076 101.186 93.197 99.7211 94.418 98.1341C95.608 96.5895 96.217 94.4041 96.247 94.2943C96.194 94.3712 95.125 95.9158 94.113 95.085C93.076 94.23 91.246 94.4735 91.429 95.0227C91.429 95.0227 92.588 98.6833 92.648 100.331C92.71 101.978 93.26 103.687 95.639 103.259C98.018 102.833 99.909 100.942 99.909 100.942C99.909 100.942 101.434 101.857 103.021 102.101C104.608 102.344 105.949 100.514 105.949 100.514C105.949 100.514 106.438 100.759 107.474 100.636C108.512 100.514 112.233 98.3795 113.454 95.2059C114.674 92.0339 116.199 90.5694 117.724 90.2034C119.25 89.8374 118.822 90.63 118.822 90.63C116.626 91.9732 116.809 93.7414 116.809 93.7414C116.809 93.7414 115.101 95.0227 115.161 95.5719C119.371 93.9869 119.677 90.3865 119.311 89.7771C118.945 89.1656 117.358 88.9827 115.956 89.411ZM91.466 38.3154C91.527 39.9627 91.995 41.6961 93.54 44.4783C94.984 47.0793 92.415 49.9433 90.842 50.8752C91.16 49.2556 91.358 47.7986 91.283 46.7954C91.16 45.1481 89.819 43.8668 90.124 40.7554C90.428 37.6437 89.513 35.1434 89.513 35.1434C89.513 35.1434 91.385 36.1593 91.466 38.3154ZM81.483 50.2129C81.789 49.3579 81.545 48.4427 80.751 47.8938L80.874 47.2843C82.581 47.5278 83.13 49.6636 83.13 49.6636L81.483 50.2129ZM86.3 43.0712L86.443 41.875C86.443 41.875 85.967 41.9174 85.899 41.9043C85.71 41.4285 85.156 41.2133 85.003 41.197C85.003 41.4676 84.908 41.7414 84.908 41.7414L84.132 41.4858L84.269 42.1488L83.067 42.139C82.832 41.9793 82.679 41.6175 82.64 41.3046C82.124 41.3858 81.795 41.978 81.795 42.0399C82.042 42.079 82.297 42.1195 82.522 42.1456L82.819 43.2211C82.819 43.2211 83.494 43.5047 83.983 43.5862C84.439 43.6644 85.489 43.71 85.489 43.71C83.66 44.5673 81.782 44.2316 81.114 43.9251C80.746 43.4395 80.198 42.3411 80.198 42.3411H79.709L79.954 40.9982L78.793 41.2427C78.793 41.2427 78.435 39.1469 80.149 37.4487L79.556 36.5459L81.052 35.1867C81.052 35.1867 83.207 34.8217 83.82 35.0042C84.43 35.1867 85.557 36.1026 85.557 36.1026L86.909 36.1939L88.464 38.495L88.099 39.1078L86.495 36.9729C86.495 36.9729 85.515 36.8067 84.645 36.7871C84.061 36.7741 83.412 36.9272 82.695 37.3933L82.043 38.8503C82.043 38.8503 82.721 38.7688 83.265 39.0132C82.532 39.3946 82.098 40.154 82.098 40.154C83.321 39.4761 84.611 39.6358 85.791 40.1247C85.98 40.0237 85.791 39.4304 85.302 39.1469C85.547 39.0654 85.993 39.1469 86.525 39.7173C87.072 40.3072 87.014 41.0601 87.786 40.7766C88.021 40.6918 87.783 41.9369 87.708 42.6083C87.056 42.302 86.3 43.0712 86.3 43.0712ZM77.09 65.7103L77.213 64.1233C77.213 64.1233 78.617 64.8554 78.555 65.2214C78.494 65.5874 77.09 65.7103 77.09 65.7103ZM76.397 71.7503L77.616 71.6278L77.982 75.4109L76.397 71.7503ZM83.026 72.0055L83.453 70.9303C83.453 70.9303 84.105 73.4817 86.197 75.7199C84.68 75.3389 82.581 72.5586 82.581 72.5586L83.026 72.0055ZM83.473 82.4871C80.178 77.9735 81.156 77.1188 81.156 77.1188C81.156 77.1188 81.231 77.4024 82.62 78.949C86.89 83.708 94.578 89.6877 94.578 89.6877C94.578 89.6877 86.768 87.0027 83.473 82.4871ZM105.071 98.8395L99.459 94.0808L98.97 92.4938L108.245 97.9849L105.071 98.8395ZM111.906 92.6163C111.051 92.6163 108.977 92.7372 108.977 92.7372V94.2013C108.977 94.2013 102.265 89.8086 99.703 88.1007C97.181 86.4205 94.067 82.9633 93.97 82.8551C96.291 83.9551 107.149 91.1522 112.638 91.3953C112.638 91.3953 112.759 92.6163 111.906 92.6163Z" fill="white"/><path d="M51.451 64.1031C53.194 65.4117 55.801 65.2276 57.47 64.0917L57.198 65.9982C55.199 66.8853 52.617 66.1177 51.451 64.1031Z" fill="white"/><path d="M45.65 149.837C46.765 149.837 46.926 149.609 46.926 148.265V143.899C46.926 142.556 46.765 142.341 45.65 142.341V142.058H51.776L51.897 143.832H51.615L51.548 143.563C51.36 142.864 51.226 142.556 49.99 142.556H48.001V145.605H48.673C50.017 145.605 50.232 145.444 50.232 144.315H50.514V147.392H50.232C50.232 146.263 50.017 146.102 48.673 146.102H48.001V148.063C48.001 149.407 48.162 149.622 49.278 149.622H50.433C51.669 149.622 51.817 149.313 51.992 148.601L52.059 148.332H52.341L52.233 150.119H45.65V149.837Z" fill="white"/><path d="M55.368 150.347H55.099V147.391H55.368C55.368 147.391 55.394 149.81 57.853 149.81C58.807 149.81 59.532 149.192 59.532 148.332C59.532 147.714 58.914 147.19 57.987 146.706L56.698 146.048C55.918 145.645 55.206 144.852 55.206 143.831C55.206 142.717 56.133 141.83 57.436 141.83C58.229 141.83 58.672 142.085 59.076 142.381C59.237 142.246 59.398 142.044 59.465 141.763H59.734V144.718H59.451C59.358 143.643 58.954 142.367 57.396 142.367C56.644 142.367 56.093 142.891 56.093 143.563C56.093 144.262 56.563 144.624 57.718 145.229L59.008 145.887C60.043 146.411 60.405 147.19 60.405 147.929C60.405 149.393 59.237 150.347 57.853 150.347C56.832 150.347 56.187 149.81 55.757 149.716C55.596 149.85 55.435 150.051 55.368 150.347Z" fill="white"/><path d="M69.84 143.872H69.558L69.491 143.603C69.303 142.891 69.169 142.582 67.933 142.582H66.476V148.265C66.476 149.609 66.65 149.837 67.766 149.837V150.119H64.125V149.837C65.24 149.837 65.414 149.609 65.414 148.265V142.582H63.957C62.722 142.582 62.588 142.891 62.399 143.603L62.332 143.872H62.05L62.171 142.058H69.719L69.84 143.872Z" fill="white"/><path d="M74.485 150.227C74.068 150.227 73.746 149.904 73.746 149.528C73.746 149.139 74.068 148.816 74.485 148.816C74.901 148.816 75.25 149.139 75.25 149.528C75.25 149.904 74.901 150.227 74.485 150.227Z" fill="white"/><path d="M71.935 146.331C72.688 146.331 72.808 146.157 72.808 145.203V143.484C72.808 142.53 72.688 142.368 71.935 142.368V142.113H74.34C76.261 142.113 77.094 143.121 77.094 144.343C77.094 145.566 76.261 146.587 74.34 146.587H71.935V146.331ZM74.38 142.516H73.736V145.431C73.736 146.049 73.803 146.171 74.286 146.171H74.38C75.778 146.171 76.033 145.15 76.033 144.33C76.033 143.537 75.778 142.516 74.38 142.516Z" fill="white"/><path d="M94.741 148.006C94.741 149.349 93.519 150.356 92.028 150.356C90.536 150.356 89.327 149.362 89.327 148.113C89.327 146.729 90.308 146.138 91.289 145.722C90.483 145.225 89.784 144.687 89.784 143.773C89.784 142.658 90.805 141.839 92.028 141.839C93.264 141.839 94.284 142.672 94.284 143.666C94.284 144.606 93.465 145.117 92.565 145.533C93.626 146.071 94.741 146.622 94.741 148.006ZM90.402 148.113C90.402 148.932 90.913 149.833 92.028 149.833C93.143 149.833 93.653 148.932 93.653 148.22C93.653 147.119 92.74 146.541 91.719 145.963C90.939 146.407 90.402 147.132 90.402 148.113ZM93.196 143.558C93.196 143.035 92.887 142.363 92.028 142.363C91.168 142.363 90.872 143.035 90.872 143.558C90.872 144.432 91.396 144.902 92.149 145.319C92.807 144.956 93.196 144.297 93.196 143.558Z" fill="white"/><path d="M97.492 142.064L97.109 144.307H97.391L97.458 144.039C97.633 143.313 97.781 143.018 99.017 143.018H101.207L98.009 149.682C97.768 150.165 98.023 150.433 98.224 150.487C98.614 150.595 98.922 150.299 99.097 149.856L102.052 142.44V142.064H97.492Z" fill="white"/><path d="M104.89 142.064L104.507 144.307H104.789L104.856 144.039C105.031 143.313 105.179 143.018 106.415 143.018H108.605L105.407 149.682C105.165 150.165 105.42 150.433 105.622 150.487C106.012 150.595 106.319 150.299 106.494 149.856L109.45 142.44V142.064H104.89Z" fill="white"/><path d="M42.469 145.388V146.732L35.1333 146.06L42.469 145.388Z" fill="white"/><path d="M111.76 146.733V145.388L119.096 146.06L111.76 146.733Z" fill="white"/><path d="M85.56 141.895V148.265C85.56 149.609 85.734 149.837 86.849 149.837V150.119H83.238V149.837C84.353 149.837 84.528 149.609 84.528 148.265V144.03C84.526 143.756 84.517 143.516 84.488 143.347C84.436 143.043 84.327 142.848 84.16 142.764C83.993 142.679 83.706 142.637 83.3 142.637L83.305 142.369L85.56 141.895Z" fill="white"/><path d="M28.5198 134.362C25.9996 136.645 23.7421 136.896 20.9019 136.361C23.5925 134.233 25.1518 131.165 24.4018 128.007L21.5857 116.144C20.4267 111.262 14.4414 109.05 8.9116 110.363C3.3813 111.676 -0.970597 116.342 0.188103 121.224L3.00451 133.087C3.79891 136.433 6.8611 138.524 10.4898 139.086C10.8962 140.82 11.1648 141.963 11.6022 143.829C14.0001 141.132 16.5499 141.173 20.4857 141.897C24.0589 142.556 26.847 143.329 29.4128 140.255C29.0651 138.176 28.8675 136.441 28.5198 134.362ZM9.4096 128.943L7.7724 122.046L7.09871 119.208C6.67071 117.406 8.06831 115.899 10.1107 115.414C12.153 114.929 14.0787 115.647 14.5066 117.45L15.1804 120.288L16.8175 127.184L17.4913 130.022C17.9192 131.825 16.5216 133.332 14.4793 133.817C12.4369 134.301 10.5113 133.584 10.0833 131.781L9.4096 128.943Z" fill="white"/><path d="M76.275 130.612C76.275 130.612 72.702 109.657 72.131 106.232C72.327 105.584 72.524 104.937 72.722 104.29C66.825 104.347 60.665 104.538 54.776 104.929C55.019 105.56 55.26 106.19 55.5 106.821C55.373 107.998 53.393 129.641 53.236 131.54C53.042 132.207 52.85 132.841 52.66 133.509C55.156 133.306 57.72 133.17 60.219 133.034C60.255 132.599 60.467 130.22 60.746 127.115C61.956 127.437 63.227 127.583 64.516 127.53C65.872 127.475 67.188 127.206 68.414 126.75C68.953 129.892 69.371 132.329 69.435 132.728C71.94 132.674 74.628 132.636 77.134 132.649C76.888 131.98 76.275 130.612 76.275 130.612ZM64.287 121.905C63.219 121.948 62.178 121.7 61.281 121.213C61.696 116.64 62.121 112.037 62.321 110.038C62.34 110.037 62.36 110.036 62.379 110.035C63.467 109.988 64.433 109.947 65.522 109.911C65.541 109.91 65.544 109.91 65.563 109.909C65.535 109.91 66.453 115.303 67.403 120.852C66.516 121.483 65.434 121.859 64.287 121.905Z" fill="white"/><path d="M40.386 135.214C35.1786 135.857 29.7285 133.088 28.8735 128.024C27.9098 122.075 26.9459 116.127 25.9825 110.178C25.6768 109.574 25.3707 108.97 25.063 108.367C27.8732 107.906 30.4821 107.491 33.3011 107.107C33.202 107.772 33.104 108.436 33.0075 109.101C33.9174 115.094 34.9314 120.664 35.8783 126.734C36.1414 128.613 37.7085 129.697 39.676 129.451C41.642 129.204 42.886 127.888 42.677 126.002C42.095 120.03 41.563 114.164 41.02 108.047C40.773 107.437 40.525 106.828 40.276 106.219C43.094 105.897 45.783 105.646 48.608 105.401C48.456 106.061 48.306 106.722 48.157 107.383C48.691 113.386 49.225 119.405 49.758 125.407C50.179 130.526 45.593 134.552 40.386 135.214Z" fill="white"/><path d="M149.263 122.774C150.292 117.965 146.728 112.911 139.861 111.125C135.641 110.027 132.834 109.399 129.301 108.735C129.405 109.411 129.508 110.087 129.609 110.763C128.091 118.751 126.641 126.602 125.123 134.59C124.791 135.22 124.461 135.851 124.132 136.482C126.677 136.96 129.534 137.569 132.154 138.172C132.113 137.481 132.072 136.789 132.029 136.098L133.283 129.736C133.283 129.736 134.624 130.031 135.485 130.224C135.756 130.284 136.027 130.336 136.296 130.379C136.836 131.724 137.788 137.593 137.788 137.593C137.788 137.593 137.89 138.918 137.942 139.616C140.79 140.379 143.918 141.366 146.711 142.279C146.299 141.475 145.33 139.479 145.33 139.479L142.993 129.69C145.38 129.015 148.195 127.763 149.263 122.774ZM142.145 121.707C141.819 123.248 141.125 123.935 140.104 124.461C139.081 124.986 137.871 125.127 136.685 124.862C135.807 124.665 135.179 124.526 134.299 124.338L135.92 115.651C135.92 115.651 137.517 116.053 138.695 116.335C139.872 116.615 141.004 117.264 141.712 118.196C142.419 119.128 142.47 120.165 142.145 121.707Z" fill="white"/><path d="M124.101 114.009C124.413 112.059 124.724 110.009 125.036 108.059C119.086 107.109 113.115 106.331 107.131 105.727C107.239 106.386 107.345 107.045 107.451 107.705C106.619 115.807 105.787 124.007 104.955 132.109C104.705 132.754 104.457 133.252 104.21 133.897C109.674 134.448 115.524 135.125 120.958 135.993C121.269 134.044 121.552 132.275 121.863 130.326C120.914 130.359 119.967 130.398 119.021 130.441C116.849 130.116 112.368 129.571 112.368 129.571L112.984 123.665L119.463 124.572L120.3 118.982L113.584 118.054L114.173 111.98C114.173 111.98 118.848 112.537 121.34 112.957C122.263 113.276 123.183 113.681 124.101 114.009Z" fill="white"/><path d="M104.235 105.47C101.453 105.172 98.515 104.991 95.512 104.807C95.627 105.364 95.742 105.922 95.855 106.479C95.842 106.53 95.83 106.581 95.814 106.634C95.72 106.954 95.614 107.314 95.498 107.708C95.363 108.093 95.192 108.499 95.03 108.94C94.834 109.362 94.623 109.806 94.391 110.258C94.262 110.477 94.131 110.699 93.999 110.923C93.931 111.035 93.871 111.153 93.797 111.262L93.569 111.586C93.413 111.801 93.268 112.028 93.105 112.241L92.591 112.863C92.428 113.081 92.23 113.26 92.047 113.455C91.859 113.644 91.686 113.852 91.482 114.016C91.285 114.19 91.09 114.364 90.898 114.536C90.695 114.689 90.494 114.842 90.296 114.992C90.103 115.152 89.897 115.272 89.698 115.399C89.499 115.52 89.31 115.666 89.113 115.757C88.919 115.86 88.731 115.961 88.548 116.059C88.365 116.147 88.186 116.212 88.016 116.29C87.93 116.327 87.847 116.364 87.765 116.4C87.683 116.43 87.605 116.451 87.528 116.476C87.374 116.527 87.228 116.576 87.091 116.621C87.06 116.629 87.034 116.635 87.006 116.642L87.095 106.381C87.326 105.744 87.559 105.108 87.792 104.472C84.938 104.358 82.396 104.35 79.54 104.315C79.711 104.945 79.88 105.575 80.048 106.205C79.933 114.38 79.819 122.505 79.704 130.68C79.509 131.331 79.282 132.014 79.088 132.666C81.638 132.703 84.607 132.745 87.303 132.833C87.164 132.146 87.024 131.46 86.883 130.773L86.951 123.003H86.96C87.39 122.951 87.954 122.884 88.528 122.771C88.782 122.707 89.052 122.64 89.337 122.569C89.478 122.531 89.627 122.496 89.772 122.453C89.914 122.404 90.059 122.354 90.208 122.303C90.272 122.279 90.34 122.256 90.407 122.232C91.289 125.156 93.531 132.597 93.67 133.142C96.592 133.279 99.588 133.499 102.459 133.767C102.012 133.055 101.106 131.717 101.106 131.717L96.302 118.764C96.452 118.629 96.6 118.492 96.751 118.356C97.042 118.087 97.348 117.828 97.611 117.532C97.882 117.242 98.154 116.952 98.424 116.664C98.684 116.366 98.923 116.054 99.169 115.751C99.29 115.598 99.411 115.445 99.531 115.294C99.649 115.141 99.751 114.978 99.861 114.822C100.074 114.505 100.286 114.192 100.493 113.885C100.877 113.252 101.228 112.626 101.546 112.026C101.83 111.413 102.11 110.834 102.338 110.289C102.541 109.735 102.727 109.228 102.892 108.779C103.056 108.328 103.143 107.923 103.242 107.594C103.304 107.364 103.357 107.171 103.4 107.013L104.235 105.47Z" fill="white"/><path d="M148.444 138.834V138.332H152.031V138.834H150.536V142.816H149.939V138.834H148.444Z" fill="white"/><path d="M153.356 138.332L154.769 142.1L156.188 138.332H157.005V142.816H156.44V139.085H156.427L155.027 142.816H154.517L153.117 139.085H153.104V142.816H152.539V138.332H153.356Z" fill="white"/></g></g><defs><clipPath id="clip0_211_135"><rect width="158" height="162" fill="white"/></clipPath></defs></svg>