<svg width="280" height="162" viewBox="0 0 280 162" fill="none" xmlns="http://www.w3.org/2000/svg"><mask id="mask0_17_184" style="mask-type:alpha" maskUnits="userSpaceOnUse" x="0" y="0" width="280" height="162"><rect width="280" height="162" fill="#D9D9D9"/></mask><g mask="url(#mask0_17_184)"><path d="M68.3882 52.5073H65.5993V67.1666C65.5993 69.3983 64.3216 70.6788 62.0843 70.6788H54.8377C54.1116 70.6788 53.5066 70.5353 53 70.2876C53.5263 71.3711 54.5816 71.9621 56.1182 71.9621H62.9989C65.2334 71.9621 66.8854 70.3129 66.8854 68.0812V53.7906H69.0298L68.3882 52.5073Z" fill="#1C1B1A"/><path d="M66.9472 33.4973H74.9312C75.6263 33.4973 76.2876 33.714 76.8617 34.0629C76.2004 32.9823 74.9818 32.214 73.6479 32.214H65.6611V39.7617H66.9472V33.4973Z" fill="#1C1B1A"/><path d="M84.6686 50.8047C89.3486 47.6978 92.8411 42.7673 92.8411 36.7899C92.8411 32.1408 91.0456 28.1193 87.9837 25.0377C87.8543 24.9054 87.7924 24.9589 87.9049 25.1052C90.2464 28.0151 91.6619 31.6905 91.6619 35.6923C91.6619 41.6557 88.3496 47.0956 82.8928 50.3179L90.7304 64.8393C92.2248 67.4565 92.3233 68.3908 91.6619 69.4602C91.13 70.3214 89.7961 70.6788 87.964 70.6788L79.4369 70.676C78.8263 70.676 78.3478 70.5437 77.9595 70.3495C78.2944 70.9968 79.0289 71.9621 80.723 71.9621H88.6479C90.8514 71.9621 92.5484 71.4921 93.3111 70.2201C94.2088 68.7116 93.5925 67.0906 92.0475 64.0372L84.6686 50.8047Z" fill="#1C1B1A"/><path d="M68.3882 122.399H65.5993V137.058C65.5993 139.29 64.3216 140.567 62.0843 140.567H54.8377C54.1116 140.567 53.5066 140.427 53 140.179C53.5263 141.262 54.5816 141.851 56.1182 141.851H62.9989C65.2334 141.851 66.8854 140.204 66.8854 137.973V123.682H69.0298L68.3882 122.399Z" fill="#1C1B1A"/><path d="M66.9472 103.389H74.9312C75.6263 103.389 76.2876 103.605 76.8617 103.954C76.2004 102.871 74.9818 102.105 73.6479 102.105H65.6611V109.653H66.9472V103.389Z" fill="#1C1B1A"/><path d="M84.6686 120.693C89.3486 117.589 92.8411 112.659 92.8411 106.681C92.8411 102.032 91.0456 98.0077 87.9837 94.929C87.8543 94.7939 87.7924 94.8502 87.9049 94.9937C90.2464 97.9064 91.6619 101.579 91.6619 105.581C91.6619 111.544 88.3496 116.987 82.8928 120.209L90.7304 134.731C92.2248 137.345 92.3233 138.279 91.6619 139.349C91.13 140.21 89.7961 140.567 87.964 140.567H79.4369C78.8263 140.567 78.3478 140.432 77.9595 140.238C78.2944 140.888 79.0289 141.851 80.723 141.851L88.6479 141.853C90.8514 141.853 92.5484 141.381 93.3111 140.109C94.2088 138.6 93.5925 136.979 92.0475 133.926L84.6686 120.693Z" fill="#1C1B1A"/><path d="M174.082 27.7759C174.124 29.1887 173.165 30.1455 172.588 30.7168L168.541 34.8987C168.071 35.4363 167.207 36.3846 165.769 36.4606C164.736 36.5141 164.497 36.1454 162.791 34.8593C160.391 33.0245 157.577 31.8819 154.605 31.8819C147.899 31.8819 142.642 37.4287 142.642 44.5093C142.642 48.1622 144.082 51.3985 146.41 53.664C146.531 53.7822 146.615 53.7259 146.511 53.5936C144.893 51.4717 143.925 48.7729 143.925 45.7926C143.925 38.712 149.179 33.1652 155.888 33.1652C158.863 33.1652 161.776 34.2937 164.055 36.289C164.736 36.804 165.659 37.7608 166.971 37.7608C168.409 37.7608 169.354 36.7195 169.827 36.182L173.874 32.0029C174.448 31.4288 175.408 30.4691 175.368 29.0592C175.323 27.6268 174.273 26.6953 173.626 26.1184C173.545 26.0424 173.508 26.0846 173.57 26.1831C173.857 26.6277 174.065 27.1512 174.082 27.7759Z" fill="#1C1B1A"/><path d="M173.837 59.5457C173.739 59.4331 173.621 59.4838 173.705 59.6301C173.913 60.0213 174.068 60.4744 174.091 60.9894C174.136 62.4584 173.094 63.4997 172.54 64.0625C167.621 68.8355 161.365 71.3401 154.405 71.3401C148.293 71.3401 142.647 69.2801 138.136 65.8271C137.911 65.6554 137.818 65.7933 138.012 65.9622C142.729 70.1047 148.819 72.508 155.59 72.508C162.547 72.508 168.946 69.9949 173.756 65.1911C174.321 64.6338 175.346 63.6911 175.295 62.222C175.256 60.8543 174.307 59.9538 173.837 59.5457Z" fill="#1C1B1A"/><path d="M116.731 20.2788C116.987 20.7854 117.128 21.3932 117.128 22.1109V67.1554C117.128 69.387 115.85 70.6647 113.621 70.6647H106.304C105.589 70.6647 104.982 70.5184 104.472 70.2651C105.007 71.3457 106.071 71.948 107.588 71.948H114.533C116.762 71.948 118.414 70.2988 118.414 68.0672V23.3913C118.414 21.8773 117.806 20.8107 116.731 20.2788Z" fill="#1C1B1A"/><path d="M197.105 57.0692H198.389V52.3948H212.15C214.41 52.3948 216.028 50.7823 216.028 48.5168V42.2355C216.028 40.7186 215.423 39.6548 214.348 39.1229C214.598 39.6323 214.745 40.2345 214.745 40.9494V47.6022C214.745 49.8676 213.495 51.1143 211.235 51.1143H197.105V57.0692Z" fill="#1C1B1A"/><path d="M217.604 58.7408C217.852 59.2502 217.992 59.8553 217.992 60.5785V67.1666C217.992 69.4293 216.749 70.676 214.483 70.676H186.344C185.623 70.676 185.015 70.5353 184.509 70.2904C185.038 71.3711 186.093 71.9564 187.627 71.9564H215.395C217.66 71.9564 219.276 70.3411 219.276 68.0813V61.8618C219.276 60.3224 218.688 59.2671 217.604 58.7408Z" fill="#1C1B1A"/><path d="M217.604 20.2788C217.852 20.7854 217.992 21.3932 217.992 22.1137V28.7018C217.992 30.9672 216.749 32.2139 214.483 32.2139H197.105V37.4428H198.389V33.4972H215.395C217.66 33.4972 219.276 31.8819 219.276 29.6164V23.3998C219.276 21.8604 218.688 20.8051 217.604 20.2788Z" fill="#1C1B1A"/><path d="M144.471 86.7143L138.662 74.2275H134.365L128.559 86.7143C128.424 87.0069 128.601 87.3024 128.942 87.3024H131.427C131.88 87.3024 132.125 87.0294 132.24 86.7593L133.056 84.9526H139.203L140.016 86.7368C140.216 87.1673 140.396 87.3024 140.804 87.3024H144.088C144.429 87.3024 144.606 87.0069 144.471 86.7143ZM134.407 81.8794L136.104 78.1506H136.127L137.843 81.8794H134.407Z" fill="#1C1B1A"/><path d="M217.047 89.1936C217.303 89.7058 217.446 90.308 217.446 91.0229V136.07C217.446 138.302 216.169 139.579 213.934 139.579H206.62C205.902 139.579 205.297 139.439 204.788 139.186C205.326 140.261 206.389 140.866 207.903 140.866H214.849C217.078 140.866 218.73 139.214 218.73 136.985V92.3061C218.73 90.7893 218.127 89.7283 217.047 89.1936Z" fill="#1C1B1A"/><path d="M113.171 122.376C111.73 120.482 110.869 118.124 110.869 115.566C110.869 109.273 115.932 104.157 122.151 104.157C124.678 104.157 127.039 105.04 128.95 106.507C129.113 106.633 129.159 106.591 129.018 106.445C126.941 104.261 124.031 102.874 120.868 102.874C114.648 102.874 109.588 107.99 109.588 114.282C109.588 117.479 110.925 120.37 113.072 122.424C113.233 122.576 113.3 122.545 113.171 122.376Z" fill="#1C1B1A"/><path d="M140.964 97.6166C144.71 102.145 146.964 107.953 146.964 114.282C146.964 128.88 135.502 140.314 120.865 140.314C114.564 140.314 108.851 138.178 104.391 134.576C104.23 134.444 104.163 134.539 104.315 134.683C108.947 138.991 115.186 141.597 122.151 141.597C136.788 141.597 148.248 130.163 148.248 115.566C148.248 108.578 145.498 102.226 141.032 97.5322C140.891 97.3802 140.829 97.4562 140.964 97.6166Z" fill="#1C1B1A"/><path d="M166.495 115.084V134.773C166.495 137.241 165.079 138.656 162.617 138.656H155.691C154.867 138.656 154.169 138.476 153.581 138.161C154.194 139.295 155.362 139.94 156.972 139.94H163.523C165.994 139.94 167.778 138.153 167.778 135.687V116.438L166.495 115.084Z" fill="#1C1B1A"/><path d="M195.324 89.506C195.636 90.0857 195.816 90.7864 195.816 91.611V135.474C195.816 137.86 194.364 139.287 191.936 139.287H189.501L190.723 140.57H192.847C195.276 140.57 197.1 138.775 197.1 136.388V92.8943C197.1 91.2874 196.452 90.1195 195.324 89.506Z" fill="#1C1B1A"/><path d="M79.4397 68.6216C78.5251 68.6216 78.5138 68.0926 78.269 67.6001L69.6575 50.453H63.545V67.1667C63.545 68.2502 63.1735 68.6216 62.0872 68.6216H54.8406C53.7177 68.6216 53.3828 68.2868 53.3828 67.1667V22.1813C53.3828 21.0612 53.7796 20.6616 54.9025 20.6616H74.3797C82.7746 20.6616 89.6047 27.4045 89.6047 35.6924C89.6047 41.5769 85.9856 46.7889 80.0983 49.4624L88.7858 65.5626C89.146 66.238 89.8777 67.2708 89.4133 67.9941C88.9574 68.7004 88.3299 68.6216 87.5531 68.6216H79.4397ZM73.648 41.8162C76.7915 41.8162 79.4454 39.0723 79.4454 35.8219C79.4454 32.7543 76.7915 30.1596 73.648 30.1596H63.6125V41.8162H73.648Z" fill="white"/><path d="M171.071 62.6273C171.482 62.2108 172.056 61.6423 172.036 61.057C172.016 60.5392 171.473 60.041 171.141 59.754L167.021 55.5045C166.675 55.1527 166.216 54.6912 165.701 54.6912C165.212 54.6912 164.688 55.1358 164.331 55.4482C161.379 57.8431 158.125 59.0589 154.672 59.0589C146.778 59.0589 140.59 52.665 140.59 44.5121C140.59 36.2777 146.747 29.8275 154.605 29.8275C158.094 29.8275 161.629 31.184 164.277 33.517C164.68 33.9166 165.189 34.4231 165.684 34.4231C166.205 34.4231 166.683 33.9053 167.027 33.5057L171.071 29.3378C171.479 28.9242 172.047 28.3923 172.03 27.835C172.016 27.2778 171.408 26.7544 170.972 26.3632C166.07 21.9618 160.959 20.0002 154.405 20.0002C140.787 20.0002 129.702 31.0827 129.702 44.7063C129.702 58.2568 140.787 69.283 154.405 69.283C160.819 69.283 166.579 66.9865 171.071 62.6273Z" fill="white"/><path d="M104.843 21.1719C104.843 20.8858 105.074 20.6539 105.361 20.6539H114.561C114.846 20.6539 115.078 20.8854 115.078 21.1709V68.096C115.078 68.382 114.846 68.6139 114.56 68.6139H105.36C105.074 68.6139 104.843 68.3825 104.843 68.097V21.1719Z" fill="white"/><path d="M214.483 68.6216C215.603 68.6216 215.941 68.2839 215.941 67.1667V60.5786C215.941 59.4613 215.603 59.1208 214.483 59.1208H195.048V49.06H211.236C212.353 49.06 212.685 48.7223 212.685 47.6022V40.9494C212.685 39.8687 212.316 39.4972 211.236 39.4972H195.048V30.1596H214.483C215.603 30.1596 215.941 29.8247 215.941 28.7019V22.1166C215.941 20.9965 215.603 20.6616 214.483 20.6616H186.344C185.226 20.6616 184.892 20.9965 184.892 22.1166V67.1667C184.892 68.2839 185.226 68.6216 186.344 68.6216H214.483Z" fill="white"/><path d="M142.78 85.794L136.971 73.3073H133.448L127.636 85.794C127.507 86.0895 127.684 86.3821 128.022 86.3821H130.507C130.957 86.3821 131.207 86.112 131.317 85.839L132.133 84.0323H138.277L139.093 85.8165C139.296 86.2471 139.478 86.3821 139.887 86.3821H142.394C142.732 86.3821 142.915 86.0895 142.78 85.794ZM133.49 80.9591L135.187 77.2303H135.206L136.926 80.9591H133.49Z" fill="white"/><path d="M205.161 90.0848C205.161 89.7987 205.393 89.5668 205.679 89.5668H214.873C215.159 89.5668 215.391 89.7987 215.391 90.0848V137.009C215.391 137.295 215.159 137.527 214.873 137.527H205.679C205.393 137.527 205.161 137.295 205.161 137.009V90.0848Z" fill="white"/><path d="M120.868 138.26C107.421 138.26 96.8877 127.726 96.8877 114.282C96.8877 100.988 107.646 90.173 120.868 90.173C134.126 90.173 144.912 100.988 144.912 114.282C144.912 127.726 134.351 138.26 120.868 138.26ZM120.868 100.819C113.517 100.819 107.531 106.859 107.531 114.282C107.531 121.633 113.517 127.619 120.868 127.619C128.255 127.619 134.272 121.633 134.272 114.282C134.272 106.982 128.131 100.819 120.868 100.819Z" fill="white"/><path d="M191.935 137.235C193.236 137.235 193.762 136.74 193.762 135.474V91.611C193.762 90.3108 193.236 89.7846 191.935 89.7846H184.945C183.622 89.7846 183.116 90.2855 183.116 91.611V115.442L157.329 89.1458H157.008H155.691C154.385 89.1458 153.856 89.6439 153.856 90.9131V134.776C153.856 136.079 154.385 136.602 155.691 136.602H162.617C163.937 136.602 164.44 136.101 164.44 134.776V109.932L190.323 137.235H190.672H191.935Z" fill="white"/><path d="M79.4451 138.513C78.5248 138.513 78.5136 137.984 78.2687 137.491L69.6572 120.344H63.5447V137.058C63.5447 138.139 63.1732 138.513 62.0926 138.513H54.8403C53.7231 138.513 53.3882 138.178 53.3882 137.058V92.0697C53.3882 90.9497 53.7794 90.5529 54.9022 90.5529H74.3795C82.7743 90.5529 89.6045 97.2957 89.6045 105.581C89.6045 111.468 85.9854 116.677 80.1008 119.354L88.7855 135.454C89.1457 136.129 89.8774 137.162 89.4131 137.882C88.9572 138.592 88.3296 138.513 87.5585 138.513H79.4451ZM73.6478 111.707C76.7913 111.707 79.4451 108.964 79.4451 105.716C79.4451 102.646 76.7913 100.051 73.6478 100.051H63.6123V111.707H73.6478Z" fill="white"/><path d="M221.675 131.263V128.905H222.871C222.967 128.905 223.071 128.932 223.184 128.988C223.297 129.041 223.393 129.124 223.472 129.237C223.553 129.348 223.593 129.489 223.593 129.659C223.593 129.832 223.551 129.979 223.468 130.1C223.385 130.219 223.284 130.31 223.165 130.372C223.048 130.433 222.937 130.464 222.832 130.464H221.969V130.081H222.673C222.743 130.081 222.818 130.046 222.899 129.975C222.983 129.905 223.024 129.8 223.024 129.659C223.024 129.514 222.983 129.416 222.899 129.365C222.818 129.314 222.747 129.288 222.685 129.288H222.193V131.263H221.675ZM223.101 130.151L223.689 131.263H223.12L222.545 130.151H223.101ZM222.57 132.67C222.217 132.67 221.885 132.604 221.576 132.471C221.267 132.339 220.996 132.156 220.761 131.922C220.527 131.687 220.344 131.416 220.212 131.107C220.08 130.798 220.013 130.466 220.013 130.113C220.013 129.759 220.08 129.428 220.212 129.119C220.344 128.81 220.527 128.538 220.761 128.304C220.996 128.069 221.267 127.886 221.576 127.754C221.885 127.622 222.217 127.556 222.57 127.556C222.924 127.556 223.255 127.622 223.564 127.754C223.873 127.886 224.145 128.069 224.379 128.304C224.614 128.538 224.797 128.81 224.929 129.119C225.061 129.428 225.127 129.759 225.127 130.113C225.127 130.466 225.061 130.798 224.929 131.107C224.797 131.416 224.614 131.687 224.379 131.922C224.145 132.156 223.873 132.339 223.564 132.471C223.255 132.604 222.924 132.67 222.57 132.67ZM222.57 132.056C222.928 132.056 223.254 131.969 223.548 131.794C223.842 131.619 224.077 131.385 224.251 131.091C224.426 130.797 224.513 130.471 224.513 130.113C224.513 129.755 224.426 129.429 224.251 129.135C224.077 128.841 223.842 128.606 223.548 128.432C223.254 128.257 222.928 128.17 222.57 128.17C222.212 128.17 221.886 128.257 221.592 128.432C221.298 128.606 221.064 128.841 220.889 129.135C220.714 129.429 220.627 129.755 220.627 130.113C220.627 130.471 220.714 130.797 220.889 131.091C221.064 131.385 221.298 131.619 221.592 131.794C221.886 131.969 222.212 132.056 222.57 132.056Z" fill="white"/></g></svg>