<svg width="46" height="46" viewBox="0 0 46 46" fill="none" xmlns="http://www.w3.org/2000/svg"><mask id="mask0_23_545" style="mask-type:alpha" maskUnits="userSpaceOnUse" x="0" y="0" width="46" height="46"><rect width="46" height="46" fill="#D9D9D9"/></mask><g mask="url(#mask0_23_545)"><path d="M2 44.9044C2.65501 44.1415 3.30956 43.3786 3.96524 42.6165C7.76398 38.2009 11.5634 33.7858 15.3623 29.3706C16.3438 28.23 17.3245 27.0893 18.3083 25.9513C18.3705 25.8795 18.381 25.8341 18.3233 25.7506C17.0267 23.8699 15.7339 21.9866 14.4399 20.1039C13.1153 18.1763 11.7903 16.2483 10.4653 14.321C9.07658 12.3002 7.68761 10.2793 6.29866 8.2589C4.88696 6.20546 3.47569 4.15124 2.06442 2.09741C2.0481 2.07334 2.03314 2.04888 2.01733 2.02403C2.03723 1.98754 2.07024 2.00346 2.09576 2.00346C6.2028 2.00268 10.3097 2.00268 14.417 2.00151C14.478 2.00151 14.5148 2.01976 14.5501 2.07101C16.2882 4.60316 18.0277 7.13453 19.7674 9.66591C21.5995 12.332 23.432 14.9985 25.2647 17.665C25.3398 17.7748 25.3404 17.7745 25.4245 17.6766C29.8959 12.4799 34.3674 7.28323 38.8373 2.08499C38.89 2.02364 38.9421 2.00074 39.0226 2.00074C40.1741 2.00346 41.3255 2.00268 42.4771 2.00268H42.5874C42.5865 2.05509 42.5493 2.07683 42.5248 2.10556C39.9283 5.12419 37.3316 8.14242 34.7346 11.1603C32.1783 14.1315 29.6218 17.1032 27.0629 20.0721C26.9976 20.1478 26.9997 20.1929 27.055 20.2732C29.0011 23.1 30.9441 25.9292 32.8883 28.7576C34.9273 31.7242 36.9668 34.6904 39.0055 37.657C40.6443 40.0408 42.2822 42.4255 43.9211 44.8093C43.9393 44.8353 43.9487 44.8695 43.9827 44.8827C43.9782 44.8893 43.9935 44.9052 43.9719 44.9044C43.9428 44.9036 43.9136 44.9044 43.884 44.9044H31.4753C31.4551 44.8703 31.4366 44.8349 31.414 44.8023C30.3891 43.3099 29.3633 41.8179 28.338 40.3258C26.9162 38.2572 25.4948 36.189 24.0735 34.1201C22.7489 32.1928 21.4232 30.2659 20.1006 28.3371C20.043 28.2529 20.0162 28.2634 19.9568 28.3325C18.1053 30.4876 16.2518 32.6409 14.3991 34.7937C11.6053 38.0406 8.81093 41.2871 6.01848 44.5348C5.91512 44.6552 5.7982 44.7654 5.71707 44.9044H2ZM38.8885 42.2391C38.8867 42.1867 38.8598 42.1642 38.842 42.1382C36.2993 38.5014 33.7567 34.8651 31.2138 31.2292C28.5247 27.3832 25.8357 23.538 23.1469 19.6924C19.6936 14.7539 16.2404 9.81577 12.7895 4.8761C12.7404 4.80621 12.6889 4.78797 12.6089 4.78797C10.7981 4.78952 8.98701 4.78913 7.17567 4.78991C7.13762 4.78991 7.09576 4.7771 7.05411 4.81009C7.07681 4.8431 7.09796 4.8761 7.12073 4.90832C8.30862 6.60729 9.49623 8.30626 10.6844 10.0048C13.7972 14.4565 16.9099 18.9085 20.0229 23.3598C22.1835 26.4499 24.3444 29.5399 26.5054 32.63C28.7223 35.8008 30.9396 38.9716 33.1549 42.1436C33.2046 42.2146 33.2552 42.241 33.3413 42.241C35.1526 42.2383 36.9634 42.2391 38.7744 42.2391H38.8885Z" fill="white"/></g></svg>