<svg width="75" height="75" viewBox="0 0 75 75" fill="none" xmlns="http://www.w3.org/2000/svg">
<path d="M56.9372 48.5223H44.7854V45.6932H54.1081V30.1107H21.1079V45.6932H30.0006V48.5223H18.2788V27.2816H56.9372V48.5223Z" fill="white"/>
<path d="M50.3464 30.0017H24.8706V20.3574H50.3464V30.0017ZM27.6997 27.1727H47.5174V23.1865H27.6997V27.1727Z" fill="white"/>
<path d="M46.1265 56.68H29.0898V37.1848H46.1265V56.68ZM31.9189 53.8509H43.2975V40.0139H31.9189V53.8509Z" fill="white"/>
<path d="M37.608 74.4559C17.2142 74.4559 0.622559 57.8653 0.622559 37.4714C0.622559 17.0785 17.2142 0.486938 37.608 0.486938C58.001 0.486938 74.5925 17.0785 74.5925 37.4714C74.5925 57.8653 58.001 74.4559 37.608 74.4559ZM37.608 5.20206C19.814 5.20206 5.33771 19.6784 5.33771 37.4714C5.33771 55.2654 19.814 69.7408 37.608 69.7408C55.401 69.7408 69.8774 55.2654 69.8774 37.4714C69.8774 19.6784 55.401 5.20206 37.608 5.20206Z" fill="white"/>
</svg>
