<svg width="75" height="75" viewBox="0 0 75 75" fill="none" xmlns="http://www.w3.org/2000/svg">
<path d="M27.2989 39.9407H31.8877V58.8333C31.8877 59.2057 32.1902 59.5085 32.5628 59.5085H40.3437C40.7172 59.5085 41.0189 59.2057 41.0189 58.8333V40.0293H46.2941C46.6375 40.0293 46.926 39.7719 46.9656 39.4315L47.7663 32.4766C47.7888 32.2852 47.7276 32.0938 47.6003 31.9495C47.472 31.8062 47.2881 31.7241 47.0958 31.7241H41.0198V27.3636C41.0198 26.0499 41.7272 25.3832 43.1228 25.3832H47.0958C47.4692 25.3832 47.7711 25.0805 47.7711 24.708V18.3237C47.7711 17.9512 47.4692 17.6485 47.0958 17.6485H41.6206C41.5819 17.6466 41.4961 17.6438 41.3698 17.6438C40.42 17.6438 37.1177 17.8305 34.5092 20.2296C31.6189 22.8889 32.0205 26.0735 32.1167 26.6252V31.7241H27.2989C26.9254 31.7241 26.6235 32.0259 26.6235 32.3993V39.2655C26.6235 39.638 26.9254 39.9407 27.2989 39.9407Z" fill="white"/>
<path d="M37.3521 74.512C16.9583 74.512 0.366699 57.9213 0.366699 37.5275C0.366699 17.1346 16.9583 0.542969 37.3521 0.542969C57.7451 0.542969 74.3366 17.1346 74.3366 37.5275C74.3366 57.9213 57.7451 74.512 37.3521 74.512ZM37.3521 5.25809C19.5582 5.25809 5.08185 19.7345 5.08185 37.5275C5.08185 55.3214 19.5582 69.7969 37.3521 69.7969C55.1451 69.7969 69.6215 55.3214 69.6215 37.5275C69.6215 19.7345 55.1451 5.25809 37.3521 5.25809Z" fill="white"/>
</svg>
