<svg width="74" height="75" viewBox="0 0 74 75" fill="none" xmlns="http://www.w3.org/2000/svg">
<path d="M55.7517 50.9086H20.1128V24.2417H55.7517V50.9086ZM22.942 48.0795H52.9224V27.0708H22.942V48.0795Z" fill="white"/>
<path d="M37.9293 40.5555L21.6611 27.8095L23.3595 25.6425L37.9369 37.0634L52.5839 25.6792L54.2728 27.852L37.9293 40.5555Z" fill="white"/>
<path d="M36.989 74.4559C16.5961 74.4559 0.00439453 57.8653 0.00439453 37.4714C0.00439453 17.0785 16.5961 0.486938 36.989 0.486938C57.3818 0.486938 73.9734 17.0785 73.9734 37.4714C73.9734 57.8653 57.3818 74.4559 36.989 74.4559ZM36.989 5.20206C19.196 5.20206 4.7196 19.6784 4.7196 37.4714C4.7196 55.2654 19.196 69.7408 36.989 69.7408C54.7819 69.7408 69.2584 55.2654 69.2584 37.4714C69.2584 19.6784 54.7819 5.20206 36.989 5.20206Z" fill="white"/>
</svg>
