<svg width="75" height="75" viewBox="0 0 75 75" fill="none" xmlns="http://www.w3.org/2000/svg">
<path d="M32.2135 55.734C32.3483 55.5077 32.4756 55.2974 32.6 55.0852C33.213 54.0347 33.778 52.9606 34.2221 51.8252C34.4446 51.2556 34.5936 50.6643 34.7492 50.0749C35.069 48.8575 35.3886 47.64 35.7083 46.4236C35.7224 46.3726 35.7366 46.3208 35.7875 46.2387C35.7941 46.2614 35.796 46.2868 35.8082 46.3076C36.1346 46.8724 36.6117 47.2826 37.1653 47.6108C37.9838 48.0974 38.8721 48.369 39.8236 48.4058C41.5899 48.4737 43.2299 48.0361 44.7359 47.112C46.256 46.1774 47.4066 44.8883 48.2741 43.3399C49.1323 41.8065 49.6303 40.1571 49.8405 38.4173C49.9301 37.676 49.9715 36.932 49.9423 36.1851C49.864 34.2312 49.32 32.4196 48.2505 30.7778C47.0171 28.8823 45.331 27.5253 43.2611 26.6389C41.7738 26.0014 40.2168 25.6855 38.6025 25.6468C37.0822 25.61 35.5849 25.7666 34.1174 26.1683C32.2398 26.6823 30.5631 27.563 29.1402 28.904C28.0217 29.9583 27.172 31.2012 26.5836 32.6214C26.0197 33.9841 25.7282 35.4034 25.7085 36.8773C25.6812 38.9595 26.2544 40.8625 27.4248 42.5826C27.8642 43.2295 28.4027 43.784 29.0675 44.2046C29.2392 44.3131 29.4221 44.4036 29.6022 44.496C29.6663 44.5281 29.739 44.5479 29.8096 44.5601C29.9586 44.5846 30.0633 44.53 30.1331 44.3951C30.1595 44.3442 30.1793 44.2885 30.1926 44.2329C30.3718 43.5143 30.548 42.7948 30.7263 42.0762C30.7725 41.8904 30.7489 41.7179 30.6282 41.5679C30.0549 40.8512 29.7068 40.0261 29.4654 39.1509C29.1269 37.9212 29.1137 36.684 29.3852 35.4411C29.7427 33.8068 30.5169 32.4008 31.7269 31.2437C32.5859 30.4214 33.5894 29.831 34.7163 29.4491C35.8498 29.0653 37.0163 28.922 38.2073 28.971C39.2512 29.0144 40.2631 29.2152 41.2278 29.6264C43.0008 30.3808 44.2918 31.6294 45.0669 33.3975C45.4789 34.3358 45.6789 35.3232 45.711 36.3445C45.7525 37.6553 45.6129 38.9463 45.2612 40.21C44.9915 41.1822 44.5953 42.0998 44.0163 42.9315C43.3874 43.834 42.6065 44.5648 41.5805 44.9996C40.7969 45.3306 39.9793 45.4843 39.138 45.3136C37.998 45.0826 37.2257 44.4177 36.921 43.2701C36.7871 42.7665 36.8305 42.2601 36.9747 41.7641C37.2804 40.7088 37.5934 39.6555 37.9046 38.6021C38.1102 37.9052 38.3101 37.2074 38.4281 36.4888C38.5157 35.9607 38.5478 35.4298 38.4412 34.8998C38.3271 34.3349 38.0913 33.8351 37.6415 33.4551C37.2567 33.1288 36.8042 32.9779 36.3081 32.9458C35.3801 32.8864 34.6154 33.241 33.9807 33.8964C33.379 34.5197 33.0302 35.2789 32.833 36.1135C32.6482 36.8962 32.634 37.6864 32.7312 38.4804C32.8075 39.1028 32.9575 39.7083 33.2008 40.2882C33.2245 40.3439 33.2177 40.4212 33.2036 40.4825C32.9896 41.4019 32.7708 42.3204 32.5548 43.239C32.0428 45.4154 31.5298 47.592 31.0215 49.7694C30.8668 50.4323 30.8083 51.1076 30.7886 51.7865C30.7555 52.887 30.813 53.9828 30.9357 55.0767C30.9413 55.1277 30.9431 55.1795 30.9488 55.2559C30.7338 55.1673 30.5415 55.0909 30.352 55.0079C28.3876 54.1582 26.6138 53.0115 25.038 51.564C23.0614 49.7468 21.5299 47.608 20.4548 45.1448C19.7392 43.5058 19.2694 41.799 19.0385 40.0261C18.846 38.5502 18.8263 37.0706 18.9809 35.591C19.26 32.9204 20.0663 30.4176 21.4074 28.0893C22.2184 26.6804 23.1962 25.3979 24.3373 24.2389C25.683 22.8734 27.1984 21.7342 28.8864 20.8261C30.4603 19.9783 32.122 19.3672 33.8713 18.9928C35.0152 18.7477 36.1723 18.6109 37.3416 18.5798C39.3417 18.5251 41.3023 18.7731 43.2223 19.3361C45.4016 19.9745 47.4 20.9751 49.218 22.333C50.8769 23.5722 52.2952 25.0452 53.474 26.7473C54.3915 28.0723 55.128 29.4906 55.6806 31.0032C56.1569 32.3036 56.4851 33.6399 56.6661 35.0139C56.799 36.0192 56.8538 37.0291 56.8283 38.0419C56.7774 40.0459 56.4294 41.997 55.7627 43.8896C54.9648 46.1538 53.7805 48.1936 52.2104 50.008C50.5581 51.9167 48.6031 53.4397 46.3466 54.5741C44.7084 55.3964 42.9856 55.966 41.1826 56.2876C40.2565 56.4536 39.3221 56.545 38.3818 56.5714C36.9917 56.611 35.6131 56.5083 34.2494 56.2386C33.6053 56.1112 32.9707 55.9311 32.3313 55.7746C32.2993 55.7661 32.2682 55.7529 32.2135 55.734Z" fill="white"/>
<path d="M37.7536 74.4559C17.3608 74.4559 0.769043 57.8653 0.769043 37.4714C0.769043 17.0785 17.3608 0.486938 37.7536 0.486938C58.1474 0.486938 74.739 17.0785 74.739 37.4714C74.739 57.8653 58.1474 74.4559 37.7536 74.4559ZM37.7536 5.20206C19.9607 5.20206 5.48425 19.6784 5.48425 37.4714C5.48425 55.2654 19.9607 69.7408 37.7536 69.7408C55.5475 69.7408 70.0239 55.2654 70.0239 37.4714C70.0239 19.6784 55.5475 5.20206 37.7536 5.20206Z" fill="white"/>
</svg>
