<svg width="55" height="55" viewBox="0 0 55 55" fill="none" xmlns="http://www.w3.org/2000/svg">
<circle opacity="0.248661" cx="27.5" cy="27.5" r="27" transform="rotate(90 27.5 27.5)" fill="white" stroke="#707070"/>
<g opacity="0.50138">
<path d="M30.4275 31.576V22.5391C30.4275 22.2094 30.1601 21.942 29.8304 21.942H13.5608C13.2308 21.942 12.9637 22.2094 12.9637 22.5391V31.576C12.9637 31.9057 13.2308 32.1731 13.5608 32.1731H29.8304C30.1601 32.1731 30.4275 31.9057 30.4275 31.576Z" fill="white"/>
<path d="M28.1669 11.8607L43.0082 26.702C43.2046 26.8984 43.2046 27.2167 43.0082 27.4131L28.1669 42.2544C27.8502 42.5713 27.3084 42.3469 27.3084 41.8989V12.2162C27.3084 11.7682 27.8502 11.544 28.1669 11.8607Z" fill="white"/>
</g>
</svg>
