<svg width="46" height="46" viewBox="0 0 46 46" fill="none" xmlns="http://www.w3.org/2000/svg">
<mask id="mask0_23_548" style="mask-type:alpha" maskUnits="userSpaceOnUse" x="0" y="0" width="46" height="46">
<rect width="46" height="46" fill="#D9D9D9"/>
</mask>
<g mask="url(#mask0_23_548)">
<path d="M44.8376 13.3587C44.8368 13.2783 44.842 13.198 44.8355 13.118C44.7838 12.4902 44.7163 11.8643 44.6083 11.2431C44.4721 10.4562 44.2865 9.68199 44.0219 8.92801C43.9583 8.74554 43.88 8.56811 43.8082 8.38796C43.7573 8.2579 43.711 8.12512 43.655 7.99738C43.1446 6.84468 42.4662 5.80223 41.5958 4.88946C40.4052 3.64164 39.0035 2.70479 37.3971 2.07622C37.2974 2.0374 37.1943 2.00867 37.0925 1.97567C37.0658 1.9648 37.039 1.95392 37.0128 1.94305C37.0013 1.93335 36.9889 1.93063 36.975 1.93451L36.8909 1.9019C36.8806 1.89219 36.8685 1.88948 36.8549 1.89375C36.8267 1.88326 36.7985 1.87239 36.7702 1.86191C36.7592 1.85259 36.7465 1.84987 36.7323 1.85376C36.6904 1.84056 36.6483 1.82736 36.6062 1.81415C36.5176 1.77533 36.4303 1.73262 36.3305 1.73223C36.288 1.71981 36.2457 1.70778 36.2036 1.69535L36.0398 1.65148C36.0152 1.64333 35.9913 1.63478 35.9672 1.62624C35.9391 1.62158 35.9099 1.61731 35.8817 1.61265C35.8332 1.57499 35.7772 1.57034 35.7196 1.57344L35.7151 1.5715C35.6775 1.56141 35.6403 1.55092 35.6021 1.54083C35.5746 1.53656 35.547 1.53268 35.5197 1.52879C35.4796 1.5187 35.4399 1.5086 35.3998 1.49851C35.1567 1.436 34.9113 1.38864 34.661 1.37C34.6124 1.36068 34.5644 1.35136 34.516 1.34205C34.4711 1.33816 34.4253 1.33428 34.3803 1.33001C34.3028 1.31875 34.2254 1.30788 34.148 1.29662L34.0533 1.28963C33.9645 1.27915 33.8757 1.26828 33.7869 1.2578C33.6613 1.24537 33.5363 1.22945 33.4105 1.22091C33.1255 1.20189 32.8408 1.18636 32.5558 1.16966C32.4005 1.1584 32.2458 1.14753 32.0908 1.13666C31.9574 1.132 31.8246 1.12773 31.6911 1.12346C31.5972 1.08503 31.4984 1.09357 31.4001 1.09978C31.2651 1.09629 31.1295 1.0924 30.9943 1.08891C30.7782 1.07843 30.5623 1.06794 30.3465 1.05707C30.1586 1.05435 29.9706 1.05125 29.7823 1.04853C29.562 1.03805 29.3416 1.02019 29.1209 1.01825C28.2037 1.01048 27.2866 1.00738 26.3691 1.00272C26.3225 1.00272 26.2755 1.00776 26.229 1.01009C26.1758 1.00699 26.1223 1.00155 26.069 1.00155C24.5602 1.00039 23.0516 1 21.543 1C21.4892 1 21.4362 1.00582 21.3828 1.00854C21.221 1.00893 21.0595 1.00971 20.8983 1.01009C20.8241 1.00738 20.751 1.00233 20.6771 1.00272C20.1203 1.00388 19.5634 1.00582 19.0065 1.00776C18.7916 1.00854 18.5767 1.00971 18.362 1.01281C18.3105 1.01359 18.2537 1.00078 18.2108 1.04504C18.1858 1.03727 18.1613 1.02252 18.1369 1.02291C17.765 1.03222 17.3934 1.04348 17.0212 1.05435C16.7978 1.05668 16.5738 1.05785 16.35 1.06173C16.3247 1.06251 16.3007 1.07687 16.2761 1.08464L16.1324 1.0858C16.0923 1.08697 16.0526 1.08774 16.0123 1.08891C15.8924 1.0893 15.7725 1.08736 15.6522 1.09085C15.6298 1.09163 15.6079 1.11298 15.5862 1.12502C15.5565 1.11492 15.5259 1.09551 15.4969 1.09667C15.2102 1.10754 14.9246 1.12191 14.6384 1.13511C14.5278 1.13511 14.4166 1.13162 14.3064 1.13627C14.2364 1.13938 14.1662 1.1553 14.0965 1.16539C13.9538 1.1685 13.8113 1.17199 13.669 1.17549C13.5026 1.17316 13.3355 1.15491 13.1723 1.20577C13.1256 1.20499 13.0785 1.20034 13.0323 1.20344C12.636 1.23062 12.2418 1.271 11.8506 1.34049C11.7888 1.35214 11.7272 1.3634 11.6654 1.37466C11.5793 1.38941 11.4932 1.40455 11.4069 1.41931C11.3557 1.43057 11.304 1.44183 11.2528 1.45308C11.1999 1.46007 11.1458 1.46124 11.0943 1.47444C10.7235 1.56878 10.3512 1.65653 9.98456 1.76329C8.77728 2.11427 7.6442 2.62792 6.60089 3.33337C6.26187 3.56243 5.93005 3.80159 5.63397 4.08618C5.60172 4.10947 5.56781 4.13005 5.53827 4.15645C4.98724 4.64526 4.48785 5.18181 4.0491 5.77389C3.99405 5.84843 3.94617 5.92841 3.89484 6.00606C3.85739 6.05265 3.81702 6.0973 3.78265 6.14622C3.40826 6.682 3.09848 7.25467 2.81155 7.84014C2.80307 7.85723 2.80411 7.87936 2.80106 7.89877C2.77518 7.94536 2.74518 7.98962 2.72479 8.03815C2.62393 8.27848 2.51947 8.51725 2.42871 8.76146C2.26337 9.206 2.11557 9.65637 2.01559 10.1211C1.90427 10.4946 1.83875 10.8774 1.77255 11.2606C1.67368 11.8364 1.60577 12.4156 1.5654 12.998C1.55255 13.1851 1.55609 13.3731 1.55206 13.5606C1.5416 13.6732 1.52695 13.785 1.52142 13.8976C1.50693 14.2031 1.49646 14.5087 1.48483 14.8142C1.48389 14.8402 1.48941 14.8666 1.49188 14.893C1.4877 14.9257 1.48065 14.9583 1.47931 14.9913C1.46732 15.3093 1.45609 15.6272 1.44626 15.9456C1.44427 15.998 1.45029 16.0512 1.452 16.104C1.44778 16.1502 1.43988 16.1968 1.43857 16.2434C1.42789 16.8393 1.41388 17.4353 1.4079 18.0313C1.40219 18.614 1.40436 19.1968 1.4039 19.7795C1.4039 19.8323 1.41208 19.8855 1.41693 19.9387C1.41208 20.0971 1.40436 20.2559 1.4039 20.4147C1.40359 20.6461 1.4079 20.8779 1.41055 21.1093C1.40686 21.1559 1.40036 21.2021 1.40036 21.2483C1.39761 21.7208 1.39627 22.1933 1.39514 22.6658C1.39514 22.712 1.40085 22.7586 1.4039 22.8048C1.40085 22.8513 1.39474 22.8979 1.39474 22.9441C1.39322 23.7727 1.39285 24.6008 1.39209 25.4293C1.39209 25.4825 1.39761 25.5353 1.40161 25.5885C1.39865 25.8339 1.39389 26.0792 1.39474 26.3246C1.39514 26.5234 1.40219 26.7222 1.40637 26.9213C1.4057 27.1795 1.40219 27.4381 1.4057 27.6967C1.4079 27.8555 1.42102 28.0143 1.42981 28.1731C1.43152 28.5108 1.43314 28.849 1.43619 29.1872C1.43723 29.2796 1.4455 29.372 1.45056 29.4644C1.448 29.4842 1.44257 29.504 1.44324 29.5238C1.45609 29.9295 1.46951 30.3352 1.48389 30.7409C1.48465 30.7603 1.49246 30.7794 1.49731 30.7988C1.50037 30.9261 1.50418 31.0531 1.50742 31.1804C1.52551 31.8529 1.57446 32.523 1.64264 33.1919C1.66428 33.4055 1.70129 33.6175 1.73111 33.8298C1.73111 33.8434 1.72836 33.857 1.73044 33.8698C1.82541 34.5392 1.95969 35.2007 2.14929 35.8499C2.22794 36.1189 2.32327 36.3829 2.41098 36.6493C2.41443 36.6687 2.41583 36.6893 2.42233 36.7075C2.65356 37.3524 2.93622 37.9736 3.27942 38.5668C3.29239 38.5893 3.31094 38.6084 3.32724 38.6289C3.34732 38.6709 3.36258 38.7163 3.3877 38.7547C3.57599 39.0405 3.75787 39.3317 3.95874 39.6081C4.13235 39.8465 4.32889 40.0682 4.51453 40.2969C4.53052 40.3186 4.54529 40.3415 4.56241 40.3617C4.93964 40.7973 5.34579 41.203 5.7955 41.566C6.15073 41.853 6.51385 42.1267 6.89801 42.3728C6.95374 42.4085 7.01422 42.4369 7.07315 42.4683C7.11603 42.4994 7.15735 42.5332 7.2023 42.5603C7.65646 42.8317 8.12701 43.0697 8.61624 43.272C8.7507 43.3279 8.88947 43.3753 9.02707 43.4265C9.0564 43.4417 9.08536 43.4595 9.11581 43.4712C9.49362 43.6113 9.87808 43.7317 10.2668 43.8369C11.1313 44.071 12.0119 44.2143 12.9006 44.3152C13.6562 44.4006 14.4146 44.4414 15.1736 44.4697C15.7642 44.4919 16.3565 44.5066 16.9482 44.5089C19.0527 44.5167 21.1573 44.5183 23.2617 44.5214C23.3761 44.5218 23.4899 44.5171 23.6043 44.5144C23.9944 44.5136 24.3851 44.5132 24.7751 44.5125C24.8217 44.5144 24.8679 44.5187 24.9146 44.5187C25.3403 44.5179 25.7664 44.5171 26.1918 44.5152C26.2448 44.5152 26.2979 44.5093 26.3509 44.5059C26.3905 44.5086 26.4304 44.514 26.4702 44.514C27.0044 44.5117 27.5383 44.5101 28.072 44.5047C28.2522 44.5031 28.4319 44.4915 28.6118 44.4845C28.6579 44.4872 28.7046 44.493 28.7512 44.493C29.4994 44.4884 30.2477 44.4837 30.9964 44.4779C31.0495 44.4775 31.1026 44.4717 31.1558 44.4686C31.6256 44.4534 32.0951 44.4422 32.5646 44.4212C32.8259 44.4096 33.0866 44.3839 33.3473 44.3595C33.5206 44.3428 33.6926 44.3175 33.8651 44.2958C34.0978 44.2655 34.3304 44.2383 34.5619 44.2038C35.3253 44.0904 36.0732 43.9095 36.8063 43.6699C36.9771 43.614 37.1431 43.5438 37.3116 43.4801C37.35 43.4696 37.3894 43.4618 37.4269 43.4475C38.302 43.1124 39.1251 42.6788 39.8919 42.1391C40.0395 42.035 40.1795 41.9193 40.3226 41.8091C40.5229 41.6452 40.7282 41.4868 40.9213 41.3152C41.0851 41.17 41.2344 41.0089 41.3901 40.8548C41.4154 40.8334 41.443 40.8144 41.4659 40.7903C42.1413 40.0806 42.7418 39.3154 43.2035 38.4472C43.2346 38.389 43.2855 38.3413 43.2846 38.269C43.3533 38.2372 43.3656 38.1654 43.3957 38.1079C43.7238 37.4832 43.982 36.8294 44.1907 36.1566C44.2484 35.9714 44.2911 35.7815 44.3412 35.594C44.3553 35.5494 44.3722 35.5055 44.3834 35.4601C44.5765 34.682 44.6953 33.8916 44.7633 33.0933C44.7881 32.8052 44.811 32.5172 44.8315 32.2287C44.8388 32.1285 44.8366 32.0276 44.8391 31.927C44.8448 31.7698 44.8511 31.6125 44.8568 31.4553L44.8754 31.458L44.8866 31.4425V14.2874C44.8701 13.9779 44.8537 13.6681 44.8376 13.3587ZM41.045 27.2238C41.0332 27.8493 41.0236 28.4747 41.0087 29.1002C40.9943 29.7187 40.9743 30.3371 40.9572 30.9556C40.9559 31.0092 40.9583 31.0632 40.959 31.1167C40.9514 31.1761 40.9406 31.2352 40.937 31.2949C40.9219 31.5295 40.9098 31.764 40.896 31.9988C40.8493 32.7843 40.7462 33.5619 40.5675 34.3291C40.5601 34.3617 40.5593 34.3955 40.5554 34.4289C40.5141 34.5694 40.4718 34.7096 40.4302 34.8501C40.2617 35.4162 40.0395 35.9597 39.7556 36.4781C39.7368 36.513 39.7221 36.5507 39.7057 36.5872C39.6691 36.6427 39.6307 36.6974 39.5959 36.7541C39.3822 37.1035 39.1422 37.4343 38.8718 37.7422C38.7975 37.8268 38.7296 37.9185 38.6271 37.9755C38.593 37.9945 38.5678 38.0295 38.5411 38.0594C38.4329 38.1766 38.3257 38.2943 38.218 38.4123C37.936 38.6289 37.654 38.8456 37.3718 39.0622C37.209 39.1535 37.0471 39.2459 36.8835 39.3344C36.8321 39.3623 36.7728 39.3755 36.7217 39.4043C36.6714 39.433 36.6323 39.4722 36.569 39.4874C36.4951 39.5056 36.4323 39.5639 36.3606 39.5957C35.9008 39.8011 35.4219 39.9513 34.935 40.0767C34.8576 40.0965 34.7798 40.1167 34.7024 40.1365C34.3136 40.2068 33.9269 40.2856 33.5366 40.345C33.2389 40.39 32.9381 40.4184 32.6374 40.4413C31.8824 40.4984 31.125 40.5259 30.3676 40.529C30.3346 40.529 30.3013 40.5349 30.268 40.538C30.0549 40.5384 29.8419 40.5364 29.6282 40.5395C29.2415 40.545 28.8547 40.5527 28.4681 40.5605C28.4214 40.5613 28.3752 40.5659 28.3286 40.569C28.2822 40.5667 28.2354 40.5617 28.1891 40.5617C27.259 40.5655 26.3294 40.5694 25.3991 40.5745C25.3393 40.5745 25.2795 40.5814 25.2198 40.5853C24.9996 40.5838 24.7793 40.5791 24.5591 40.5814C24.045 40.5869 23.5309 40.5958 23.0167 40.6036C22.9567 40.6047 22.8964 40.6086 22.837 40.6113C22.7903 40.609 22.7434 40.6047 22.6967 40.6047C21.5721 40.6051 20.4471 40.6059 19.3225 40.6071C19.2821 40.6071 19.242 40.611 19.2019 40.6129C19.1825 40.611 19.1623 40.6071 19.1424 40.6067C18.3645 40.5927 17.5867 40.5838 16.8088 40.5636C16.1856 40.5477 15.5623 40.5197 14.9391 40.4945C14.437 40.4739 13.9347 40.4491 13.4326 40.4262C13.2459 40.406 13.0603 40.385 12.8736 40.3656C12.2854 40.3046 11.7068 40.1909 11.1408 40.0235C10.5747 39.8566 10.0288 39.6337 9.50885 39.3519C9.45621 39.3231 9.40097 39.2998 9.34686 39.2738C9.32077 39.254 9.29572 39.2319 9.26764 39.2148C8.73032 38.8941 8.23529 38.5199 7.7959 38.0726C7.77283 38.0493 7.74484 38.0303 7.71875 38.0093C7.6517 37.9445 7.57648 37.8862 7.51904 37.814C7.21564 37.432 6.92935 37.0375 6.68698 36.6128C6.65375 36.5549 6.61823 36.4982 6.5831 36.4412C6.46872 36.1911 6.34756 35.9442 6.24216 35.6907C5.9975 35.0998 5.83542 34.4844 5.71332 33.8578C5.70322 33.8054 5.68597 33.7545 5.67188 33.7029C5.64084 33.4707 5.60495 33.2385 5.58038 33.0056C5.54086 32.6317 5.5036 32.2578 5.47781 31.8831C5.45474 31.5485 5.44904 31.2126 5.43494 30.8772C5.4339 30.8504 5.42886 30.824 5.42563 30.7976C5.42563 30.6384 5.43039 30.4789 5.42496 30.3201C5.41571 30.0483 5.39972 29.7765 5.38751 29.5047L5.36047 28.2538C5.36295 28.0022 5.36667 27.751 5.36639 27.4998C5.36639 27.374 5.35828 27.2486 5.3537 27.1232C5.35696 27.0704 5.36353 27.0176 5.36353 26.9648C5.36295 26.6061 5.36115 26.2473 5.35895 25.8886C5.35828 25.8424 5.35239 25.7962 5.34933 25.75C5.3519 25.6968 5.3576 25.644 5.3576 25.5908C5.3559 24.7689 5.35342 23.9474 5.35019 23.1258C5.34991 23.0726 5.3443 23.0195 5.34085 22.9663C5.3443 22.9267 5.34991 22.8871 5.34991 22.8471C5.34991 22.3548 5.34933 21.8621 5.34781 21.3698C5.34781 21.3368 5.3421 21.3038 5.33942 21.2708C5.34256 21.1252 5.34839 20.9796 5.34781 20.8344C5.34781 20.5894 5.34363 20.3444 5.34143 20.0998C5.34448 20.0331 5.35019 19.9663 5.35086 19.8995C5.35266 19.3839 5.34991 18.8683 5.3559 18.3527C5.36353 17.6768 5.37866 17.0005 5.3898 16.3245C5.39124 16.2511 5.38705 16.1778 5.38522 16.104C5.39954 15.7006 5.41437 15.2968 5.42886 14.893C5.43808 14.7739 5.44971 14.6551 5.45627 14.5355C5.47458 14.2101 5.49066 13.8848 5.50684 13.559C5.50934 13.5194 5.50684 13.4798 5.50638 13.4398C5.53323 13.1471 5.55655 12.854 5.58771 12.5612C5.67941 11.7141 5.85379 10.8856 6.1571 10.0865C6.16406 10.0683 6.16452 10.0473 6.16779 10.0279C6.23166 9.88854 6.29605 9.74955 6.35861 9.60978C6.52185 9.24249 6.72708 8.89851 6.93774 8.55724C7.07336 8.3371 7.22858 8.13172 7.37259 7.91779C7.41324 7.8844 7.45801 7.85529 7.49323 7.81724C7.66702 7.6301 7.8338 7.43714 8.01111 7.25389C8.10739 7.15372 8.21338 7.05938 8.32587 6.97824C8.66327 6.73558 8.99316 6.48167 9.35916 6.28017C9.45096 6.22931 9.53668 6.16835 9.62543 6.11244C9.80923 6.02819 9.99197 5.94045 10.1778 5.86125C10.2926 5.81233 10.413 5.77583 10.5311 5.7339C10.6635 5.68654 10.7955 5.63917 10.9276 5.5918C10.9492 5.58287 10.9712 5.57356 10.9924 5.56463L11.004 5.55958L11.1215 5.52697C11.1917 5.50911 11.2612 5.49086 11.331 5.473C11.3562 5.46446 11.3816 5.45592 11.4073 5.44699C11.4357 5.44194 11.4638 5.43728 11.4924 5.43223C11.5184 5.42369 11.544 5.41554 11.5696 5.407L11.6536 5.39418C11.6905 5.38409 11.7276 5.37438 11.7645 5.36468C11.7816 5.3608 11.7984 5.3573 11.8155 5.35342C11.8555 5.34449 11.8942 5.33556 11.9336 5.32663C12.0286 5.30916 12.1237 5.29208 12.2188 5.2746C12.2706 5.2649 12.3231 5.2548 12.3752 5.2451C12.6058 5.21365 12.8367 5.18259 13.0676 5.15153C13.1436 5.14144 13.2203 5.13173 13.2964 5.12164C13.3408 5.11853 13.3852 5.11542 13.4295 5.11193L13.4923 5.0898C13.6334 5.08359 13.7744 5.07776 13.915 5.07155C14.0005 5.07932 14.0854 5.08436 14.1662 5.04632C14.3243 5.04166 14.4826 5.037 14.6404 5.03195C14.8279 5.02224 15.0163 5.01215 15.2036 5.00244C15.3103 5.00283 15.4171 5.00555 15.5235 5.00283C16.0246 4.98963 16.5251 4.97527 17.0258 4.96051C17.0657 4.95935 17.1055 4.95391 17.1453 4.95042C17.2432 4.95197 17.341 4.95741 17.4385 4.95352C17.4955 4.95158 17.5519 4.93567 17.6088 4.92557L17.6697 4.93256C17.7101 4.93489 17.7497 4.93877 17.7899 4.93877C19.8567 4.93372 21.9234 4.92868 23.9901 4.92285C24.0638 4.92285 24.1377 4.91858 24.2111 4.91625C24.2913 4.91858 24.3718 4.92246 24.452 4.92285C25.759 4.92829 27.0656 4.93372 28.373 4.93799C28.4189 4.93838 28.4658 4.93101 28.5122 4.92751C28.6637 4.97333 28.8184 4.95469 28.9722 4.94848C29.2696 4.95314 29.5671 4.9578 29.8645 4.96284C30.3418 4.99895 30.8205 5.01331 31.299 5.00866C31.3547 5.04321 31.4154 5.03894 31.4763 5.02613L31.8947 5.04127C32.0236 5.04981 32.1525 5.05796 32.2814 5.0665C32.4828 5.08359 32.6839 5.0964 32.884 5.11892C33.2249 5.15697 33.565 5.20123 33.9053 5.24199C33.9319 5.24549 33.9587 5.24393 33.9858 5.24471C34.0242 5.25325 34.0628 5.26218 34.1012 5.27111L34.1967 5.28392C34.2314 5.29169 34.2659 5.29945 34.2998 5.30722C34.3427 5.31343 34.3849 5.31964 34.4277 5.32624L34.5042 5.34837C35.027 5.47028 35.5431 5.61238 36.0434 5.80883C36.6012 6.02781 37.1265 6.30657 37.6151 6.65094C38.2054 7.06637 38.7248 7.55672 39.1585 8.13521C39.1786 8.16161 39.2042 8.18374 39.2271 8.20782C39.244 8.23654 39.2581 8.26722 39.2779 8.29401C39.8004 8.99945 40.1569 9.78488 40.4024 10.6235C40.5998 11.2955 40.7359 11.9804 40.8143 12.6765C40.8263 12.7833 40.8446 12.8893 40.8599 12.9957C40.8697 13.1289 40.8796 13.262 40.8897 13.3952C40.9364 14.0234 40.9616 14.6523 40.9657 15.2821C40.9682 15.6101 40.9697 15.9386 40.9728 16.2667C40.9732 16.3334 40.9798 16.4002 40.9833 16.4666C40.9808 16.5198 40.9745 16.573 40.9755 16.6258C40.9822 17.1724 40.9895 17.7187 40.997 18.265C40.9981 18.298 41.0044 18.331 41.0078 18.364C41.0048 18.4168 40.9995 18.47 40.9999 18.5228C41.0015 18.9417 41.0044 19.361 41.0071 19.7799C41.0078 19.8327 41.0136 19.8859 41.0168 19.9387C41.0138 19.9853 41.0087 20.0319 41.0087 20.0781C41.0121 20.8262 41.0151 21.5744 41.0194 22.3222C41.0194 22.3754 41.0262 22.4285 41.0302 22.4817C41.0271 22.5349 41.021 22.5881 41.0211 22.6413C41.0269 23.4698 41.0332 24.2983 41.0405 25.1269C41.0405 25.1599 41.0465 25.1933 41.0497 25.2263C41.0471 25.286 41.0411 25.3454 41.0411 25.4052C41.042 25.9383 41.0434 26.4714 41.045 27.0044C41.0452 27.044 41.0511 27.084 41.0534 27.1236C41.0511 27.157 41.0457 27.1904 41.045 27.2238Z" fill="white"/>
<path d="M35.7939 8.70224C35.5899 8.61796 35.3773 8.55198 35.1514 8.55352C34.9383 8.50111 34.7254 8.50189 34.5125 8.5547C34.4685 8.55897 34.4245 8.56285 34.3806 8.56712C34.3437 8.57644 34.3071 8.58575 34.2705 8.59546C34.2368 8.59858 34.2025 8.59662 34.1709 8.60518C33.6093 8.75542 33.1363 9.04738 32.7729 9.50277C32.335 10.0518 32.1432 10.678 32.2152 11.3808C32.2158 11.4137 32.2133 11.4475 32.2179 11.4801C32.2522 11.7197 32.3228 11.948 32.4078 12.1751C32.5066 12.4411 32.6771 12.6585 32.8413 12.8821C32.9816 12.9819 33.0592 13.1523 33.226 13.223C33.4138 13.4074 33.655 13.5048 33.8902 13.6015C34.3079 13.7731 34.7481 13.8003 35.1932 13.7549C35.2257 13.7514 35.257 13.7363 35.2888 13.7262C35.3073 13.7238 35.3261 13.7211 35.3444 13.7188C35.6785 13.6687 35.9787 13.5308 36.2608 13.353C36.5227 13.1884 36.751 12.9826 36.9274 12.728C37.0367 12.5707 37.1525 12.4154 37.2112 12.2287C37.2417 12.1619 37.2769 12.0967 37.3009 12.028C37.4472 11.609 37.4957 11.18 37.4205 10.7405C37.2523 9.7633 36.7114 9.08039 35.7939 8.70224Z" fill="white"/>
<path d="M34.4033 22.3779C34.3952 21.9609 34.3559 21.5466 34.2952 21.1351C34.27 20.9635 34.2277 20.7942 34.1933 20.6238C34.1874 20.5714 34.1868 20.5174 34.1754 20.465C34.0028 19.6734 33.7577 18.905 33.4177 18.1681C33.3844 18.0963 33.3398 18.0291 33.3003 17.96C33.2836 17.9099 33.272 17.8579 33.2486 17.8109C32.6728 16.6532 31.9185 15.6255 30.9896 14.7255C30.9513 14.6883 30.9069 14.658 30.8662 14.6242C30.7801 14.5396 30.6984 14.451 30.6087 14.3715C30.1952 14.0065 29.7581 13.6734 29.2947 13.3733C29.229 13.3306 29.1701 13.27 29.084 13.2642C29.0413 13.1873 28.9499 13.1892 28.888 13.1446C28.7164 13.0215 28.5351 12.9144 28.3463 12.8224C28.021 12.6643 27.693 12.5098 27.3598 12.3696C27.1382 12.2753 26.9054 12.2078 26.6777 12.1282C26.4287 12.0552 26.1804 11.9806 25.9302 11.9107C25.8472 11.8871 25.7612 11.8769 25.6767 11.861C25.6382 11.8253 25.5916 11.8242 25.5435 11.8284C25.5294 11.8261 25.5154 11.8242 25.5019 11.8218C25.4776 11.8141 25.4537 11.8067 25.4287 11.7989C25.3058 11.7799 25.1827 11.7601 25.0593 11.7403C25.0203 11.7314 24.9822 11.7228 24.9436 11.7143C24.7914 11.6968 24.6401 11.6793 24.4883 11.6619C24.4109 11.6526 24.3335 11.6421 24.2558 11.632C24.1266 11.6277 23.9971 11.6242 23.8678 11.6199C23.8294 11.6098 23.7913 11.5924 23.753 11.5916C23.41 11.5889 23.0673 11.5881 22.7248 11.5897C22.6866 11.5897 22.6495 11.6095 22.6118 11.6199C22.5864 11.6145 22.5607 11.6013 22.5359 11.6036C22.2706 11.6262 22.0051 11.651 21.7396 11.6755C21.6892 11.6848 21.6395 11.6937 21.5892 11.7026L21.4576 11.7143C21.4187 11.7232 21.3801 11.7321 21.3414 11.7407C21.2883 11.7453 21.2341 11.7461 21.1814 11.7551C20.4987 11.8742 19.8347 12.0598 19.1893 12.3102C18.9335 12.4093 18.6864 12.5296 18.4352 12.6406C18.3803 12.6643 18.3237 12.6853 18.2702 12.7117C17.5261 13.0762 16.8326 13.5204 16.1887 14.0418C16.0956 14.1175 16.0085 14.2006 15.9182 14.2802C15.8898 14.295 15.8564 14.3051 15.8336 14.326C15.7591 14.3928 15.691 14.4666 15.6168 14.5341C15.0088 15.0936 14.4717 15.7144 14.001 16.3923C13.9666 16.4412 13.9394 16.4948 13.9091 16.5468C13.8731 16.5934 13.8321 16.638 13.8015 16.6889C13.6347 16.97 13.465 17.2499 13.3063 17.5357C13.2092 17.7104 13.1299 17.8956 13.043 18.0753C12.9007 18.3483 12.7817 18.6313 12.6943 18.9267C12.682 18.9497 12.6658 18.9714 12.6571 18.9958C12.5312 19.3399 12.4242 19.69 12.3356 20.0461C12.3182 20.1171 12.3089 20.1894 12.2956 20.2608C12.2842 20.2918 12.2677 20.3221 12.2621 20.354C12.2077 20.642 12.1486 20.9293 12.1048 21.219C12.0756 21.4092 12.0692 21.603 12.0525 21.7955C12.0417 21.8674 12.0243 21.9392 12.0204 22.0122C11.9932 22.5138 11.9919 23.0162 12.0204 23.5178C12.0308 23.6971 12.0609 23.8758 12.0816 24.0547C12.0822 24.0815 12.0804 24.1087 12.0836 24.1351C12.124 24.5098 12.1894 24.8801 12.2759 25.2467C12.3541 25.5801 12.4327 25.9137 12.5575 26.234C12.6425 26.545 12.7645 26.8427 12.8911 27.1374C13.0452 27.4938 13.2062 27.8467 13.4088 28.1787C13.4278 28.221 13.442 28.266 13.4662 28.3053C13.7383 28.7482 14.0116 29.1905 14.3387 29.5958C14.447 29.7301 14.562 29.8594 14.6734 29.9914C14.7449 30.0862 14.8136 30.1844 14.8896 30.2756C14.9358 30.3311 14.9957 30.3746 15.047 30.4255C15.1416 30.5202 15.2372 30.6138 15.3274 30.7124C15.421 30.8157 15.5294 30.903 15.6193 31.0121C15.7013 31.1119 15.8212 31.1806 15.9254 31.2625C15.9773 31.3037 16.0306 31.3448 16.0829 31.3852C16.1176 31.417 16.1501 31.4509 16.1865 31.48C17.4668 32.5096 18.902 33.2278 20.4941 33.6309C21.3171 33.839 22.1538 33.9504 23.0041 33.9597C23.6979 33.9675 24.3871 33.9263 25.0712 33.8079C25.2425 33.778 25.4113 33.7345 25.5815 33.6969C25.7041 33.6709 25.828 33.6495 25.9493 33.6177C26.2623 33.535 26.5754 33.4546 26.8752 33.33C26.9945 33.2896 27.116 33.2547 27.2327 33.2088C27.6846 33.0318 28.1218 32.8225 28.5496 32.5935C28.6481 32.5402 28.7415 32.4762 28.8371 32.4172C28.9968 32.3493 29.1378 32.2479 29.2819 32.154C29.7461 31.8496 30.1916 31.5208 30.6005 31.1453C30.697 31.0611 30.7949 30.9791 30.8887 30.8929C30.9778 30.8114 31.0576 30.7186 31.1504 30.6417C31.2441 30.5649 31.2826 30.4395 31.393 30.3804C31.4355 30.2674 31.5549 30.2279 31.6233 30.1362C31.8029 29.8963 31.993 29.6649 32.1779 29.4293C32.2393 29.3508 32.297 29.2697 32.3568 29.1897C32.4667 29.0309 32.5844 28.8771 32.6848 28.7125C32.8312 28.4703 32.9699 28.2222 33.1034 27.9721C33.2288 27.7376 33.3449 27.4977 33.4617 27.2582C33.4874 27.2053 33.4967 27.1448 33.5142 27.0881C33.5461 27.0306 33.5851 26.9763 33.6091 26.9157C33.7746 26.4925 33.9262 26.0643 34.0398 25.624C34.1283 25.2812 34.2146 24.9376 34.2557 24.5851C34.2723 24.4935 34.2921 24.4022 34.306 24.3102C34.3706 23.8874 34.3942 23.4611 34.4116 23.0344C34.4195 22.8356 34.4355 22.6353 34.3967 22.4369C34.3992 22.4171 34.4039 22.3973 34.4033 22.3779ZM30.4384 23.1202C30.409 23.8625 30.2525 24.5789 29.9979 25.2754C29.975 25.3383 29.9578 25.4023 29.9376 25.466C29.9219 25.4947 29.9033 25.5223 29.8902 25.5522C29.607 26.2239 29.2323 26.84 28.7648 27.3999C28.7433 27.4251 28.7265 27.4538 28.7073 27.4814C28.5579 27.6235 28.3983 27.7567 28.2608 27.91C27.751 28.4749 27.1264 28.881 26.4586 29.2297C26.435 29.2421 26.413 29.2584 26.3904 29.2724C26.0502 29.4238 25.7035 29.5613 25.3473 29.675C24.9047 29.8163 24.4531 29.906 23.9914 29.958C23.5228 30.0109 23.0524 30.0147 22.5836 29.9786C21.8705 29.9239 21.1795 29.76 20.516 29.4902C20.2531 29.3831 19.9894 29.2786 19.7389 29.1415C19.5585 29.0429 19.394 28.9179 19.205 28.836C18.9519 28.6058 18.662 28.4217 18.4069 28.1934C18.0904 27.9104 17.801 27.6033 17.5351 27.2733C17.5018 27.2318 17.464 27.1941 17.4286 27.1545C17.4117 27.1257 17.3978 27.0959 17.3778 27.0691C16.8554 26.3609 16.4748 25.5833 16.2317 24.7381C16.2208 24.6996 16.2068 24.6619 16.1942 24.6239C16.146 24.3816 16.0944 24.1401 16.051 23.8971C15.9694 23.4413 15.9559 22.9808 15.9665 22.5188C15.969 22.412 15.969 22.3053 15.9702 22.1985C16.0066 21.9539 16.0414 21.7089 16.0789 21.4647C16.1424 21.0544 16.2606 20.6587 16.3933 20.2666C16.4793 20.0702 16.5605 19.8717 16.6513 19.678C16.7976 19.3647 16.9623 19.0615 17.1472 18.7695C17.184 18.7225 17.2214 18.6763 17.2573 18.6301C17.424 18.4147 17.5909 18.2004 17.7568 17.9845C17.8126 17.9115 17.865 17.8362 17.9192 17.7616C17.9679 17.7166 18.0215 17.6758 18.0648 17.6269C18.2063 17.4669 18.3833 17.347 18.5367 17.2006C18.6165 17.1234 18.7263 17.0779 18.81 17.0034C18.9312 16.8943 19.072 16.812 19.1944 16.7045C19.2363 16.6672 19.2968 16.6513 19.3468 16.6209C19.4348 16.5674 19.5213 16.5107 19.6074 16.4556C19.6955 16.3989 19.791 16.3604 19.8873 16.3228C19.9304 16.3061 19.969 16.2781 20.0093 16.2545C20.3148 16.1228 20.6169 15.9823 20.9362 15.8848C21.1461 15.8208 21.3573 15.7614 21.5682 15.6993L21.5668 15.6989C21.6201 15.686 21.6726 15.674 21.7255 15.6608C21.7384 15.6589 21.751 15.6573 21.7641 15.6562C21.8179 15.6449 21.8719 15.6332 21.9258 15.622C21.9406 15.6205 21.9555 15.6185 21.9705 15.6166C22.1679 15.5906 22.3657 15.5645 22.5633 15.5385L22.5729 15.5474L22.5812 15.5374C22.9821 15.5366 23.383 15.5362 23.784 15.5354L23.9091 15.5424C24.0207 15.5595 24.1333 15.5746 24.2445 15.594C24.441 15.6274 24.6384 15.6632 24.8349 15.6985L24.8312 15.6996C25.0824 15.773 25.3363 15.8387 25.5846 15.9217C25.9478 16.0421 26.2947 16.202 26.633 16.381C26.9409 16.5553 27.2422 16.7417 27.5279 16.9521C27.9349 17.2515 28.3063 17.5916 28.6369 17.9732C28.8961 18.2714 29.1389 18.5832 29.3475 18.9198C29.3792 18.9706 29.4165 19.0184 29.4511 19.0669C29.5341 19.2269 29.6194 19.3853 29.6992 19.5468C29.8799 19.9133 30.0331 20.2899 30.1459 20.6832C30.1638 20.7465 30.1898 20.8078 30.2126 20.8703C30.2449 21.021 30.2775 21.1716 30.3096 21.3223C30.4132 21.8103 30.4437 22.3053 30.4527 22.8022C30.4538 22.8558 30.4569 22.909 30.4595 22.9626C30.4519 23.015 30.4401 23.0674 30.4384 23.1202Z" fill="white"/>
</g>
</svg>
