<svg width="211" height="50" viewBox="0 0 211 50" fill="none" xmlns="http://www.w3.org/2000/svg">
<path d="M97.3894 5.91796L98.1842 3.2019H75.2352L76.0142 5.91796L70.3772 40.2858L69.3359 43.0229H80.0435L80.775 35.6688C82.593 36.3823 84.5579 36.762 86.5665 36.762C87.8262 36.762 89.0588 36.5978 90.2545 36.3137L90.2552 36.3235C90.3886 36.2919 90.519 36.249 90.6516 36.215C90.8844 36.1525 91.1179 36.0953 91.3462 36.0229C91.7764 35.8896 92.1998 35.7411 92.6142 35.5709L93.3593 43.0229H104.084L103.015 40.2142L97.3894 5.91796ZM86.5665 28.9514C84.8631 28.9514 83.2274 28.3667 81.9443 27.3217L84.4683 10.8355H84.5444H88.8577H88.9338L90.2718 20.7105L91.4291 27.1168C91.252 27.275 91.0667 27.4227 90.8746 27.5613C90.849 27.5802 90.8218 27.596 90.7955 27.6141C90.6207 27.7369 90.4414 27.8551 90.2552 27.9614L90.2432 27.9682C89.8213 28.2085 89.3806 28.4051 88.9232 28.5581L88.924 28.5596C88.1751 28.812 87.381 28.9514 86.5665 28.9514Z" fill="white"/>
<path d="M57.4284 5.86751V31.8181C57.4284 34.4807 55.1682 36.1231 52.3888 36.1231C49.6095 36.1231 47.3485 34.4807 47.3485 31.8181V5.91799L48.0778 3.20117H37.0327L37.8328 5.91799V31.2938C37.8328 38.5032 44.8637 43.582 52.3888 43.582C59.9132 43.582 66.9456 38.5032 66.9456 31.2938V5.91799L67.7555 3.20117H56.7368L57.4284 5.86751Z" fill="white"/>
<path d="M23.2172 40.2209C28.1333 38.0525 31.7007 33.7189 31.7007 28.2747V13.4596C31.7007 5.56228 24.1922 -0.00244141 15.9483 -0.00244141C7.70442 -0.00244141 0 5.56228 0 13.4596V28.2747C0 33.7724 3.73543 38.1324 8.78407 40.2796V47.7799C13.1991 44.7316 16.8358 45.6018 22.4133 47.7799C27.4635 49.7516 31.4664 51.5944 36.0441 47.7799V39.8532C31.3827 42.8156 27.7317 42.2348 23.2172 40.2209ZM21.4701 28.8496C21.4701 31.7668 18.9936 33.566 15.9483 33.566C12.9037 33.566 10.4265 31.7668 10.4265 28.8496V12.8855C10.4265 9.96976 12.9037 8.1706 15.9483 8.1706C18.9936 8.1706 21.4701 9.96976 21.4701 12.8855V28.8496Z" fill="white"/>
<path d="M143.623 5.91772V40.2139L142.848 43.0234H166.322V34.711L162.429 35.4825H153.231V27.1663H162.335V19.2328H153.231V10.7675H162.532L166.322 11.5186V3.20166H142.948L143.623 5.91772Z" fill="white"/>
<path d="M128.215 23.9201C128.701 23.4688 129.173 22.9979 129.627 22.5052C132.588 19.2919 136.753 13.9547 137.798 5.91799L138.569 3.20117H126.873L127.555 5.91799C126.643 11.326 125.17 14.8836 123.175 17.0489C121.302 19.0817 119.201 20.4009 117.413 21.0827V5.91799L118.223 3.20117H107.113L107.805 5.84566V40.2715L107.011 43.0237H118.121L117.413 40.1554V29.643C118.619 29.4215 119.846 29.0569 121.064 28.5574L126.721 40.2134L127.641 43.0237H139.969L137.781 40.2127L128.215 23.9201Z" fill="white"/>
<path d="M181.019 40.1998L181.094 30.5177C181.094 30.5177 182.89 30.5094 184.046 30.5087C184.409 30.5087 184.77 30.4958 185.126 30.4732C186.145 32.0969 189.871 40.4206 189.871 40.4206C189.871 40.4206 190.291 42.0208 190.532 42.9521H202.479C201.719 41.9575 200.097 39.7425 200.097 39.7425L193.576 27.5636C196.484 25.9558 199.802 22.8751 199.968 15.9376C200.129 9.24879 194.321 3.60571 185.053 3.28099C179.358 3.08359 175.592 3.08585 170.886 3.25839C171.185 4.12406 171.481 4.99049 171.775 5.85691C171.754 16.9095 171.789 29.206 171.769 40.2578C171.499 41.1793 171.222 42.0314 170.956 42.9521H181.771C181.552 42.0645 181.236 41.0821 181.019 40.1998ZM184.813 10.5416C186.396 10.5627 188.009 11.0871 189.145 12.1133C190.282 13.1394 190.598 14.4993 190.552 16.642C190.506 18.7848 189.78 20.4837 188.592 21.4858C187.405 22.4863 185.881 23.0355 184.292 23.0363C183.114 23.037 182.272 23.0408 181.095 23.0536L181.077 10.4625C181.077 10.4625 183.23 10.5206 184.813 10.5416Z" fill="white"/>
<path d="M210.469 39.3598C210.469 41.3548 208.865 42.937 206.828 42.937C204.79 42.937 203.164 41.3548 203.164 39.3598C203.164 37.3662 204.79 35.8052 206.85 35.8052C208.865 35.8052 210.469 37.3662 210.469 39.3598ZM204.075 39.3598C204.075 40.9427 205.267 42.1994 206.85 42.1994C208.388 42.2213 209.559 40.9427 209.559 39.3816C209.559 37.7995 208.388 36.5202 206.806 36.5202C205.267 36.5202 204.075 37.7995 204.075 39.3598ZM206.265 41.2026H205.44V37.648C205.765 37.6043 206.221 37.5388 206.806 37.5388C207.478 37.5388 207.781 37.648 208.02 37.8213C208.236 37.9727 208.388 38.2327 208.388 38.5792C208.388 39.014 208.063 39.2957 207.652 39.4246V39.4683C207.998 39.5775 208.171 39.8593 208.281 40.3355C208.388 40.8772 208.474 41.0731 208.54 41.2026H207.673C207.565 41.0731 207.499 40.7687 207.391 40.3355C207.326 39.967 207.109 39.793 206.655 39.793H206.265V41.2026ZM206.286 39.2084H206.676C207.131 39.2084 207.499 39.0569 207.499 38.6877C207.499 38.363 207.261 38.146 206.74 38.146C206.525 38.146 206.373 38.1679 206.286 38.1897V39.2084Z" fill="white"/>
</svg>
