<svg width="260" height="162" viewBox="0 0 260 162" fill="none" xmlns="http://www.w3.org/2000/svg">
<mask id="mask0_211_133" style="mask-type:alpha" maskUnits="userSpaceOnUse" x="-11" y="0" width="280" height="162">
<path d="M269 0H-11V162H269V0Z" fill="#D9D9D9"/>
</mask>
<g mask="url(#mask0_211_133)">
<path d="M163.343 84.2315C165.2 84.2315 166.846 82.8823 167.019 81.2175C167.192 79.5536 165.828 78.2043 163.971 78.2043C162.114 78.2043 160.468 79.5536 160.295 81.2175C160.122 82.8823 161.486 84.2315 163.343 84.2315Z" fill="white"/>
<path d="M17.0208 73.3171C14.8896 73.3171 5.3601 73.3034 5.3601 73.3034C5.3508 73.3034 5.3427 73.3082 5.3334 73.3085H4.7176L4.2499 75.8319C4.2499 75.8319 5.5429 75.9949 6.6293 76.266C6.6315 76.2667 6.6348 76.2663 6.6348 76.2663C7.2934 76.4495 7.8328 76.7687 7.801 77.6223L2.8024 104.743C2.7148 105.227 2.392 105.643 1.9886 105.868C1.6928 106.017 0.9225 106.019 0.4767 105.993L0 108.551H11.0118C11.0141 108.551 11.0163 108.549 11.0186 108.549H11.7625L12.2157 106.047C11.4972 105.996 10.819 105.957 10.5654 105.637C10.4022 105.403 10.331 105.09 10.3938 104.743L11.8487 96.7235H13.9275C21.282 96.7235 30.0145 92.8994 31.0062 85.3419C32.1757 76.4344 25.3806 73.3171 17.0208 73.3171ZM23.7045 84.6634C22.9455 88.6533 20.186 93.5017 12.4632 93.336L15.5163 76.7471C22.6323 76.126 24.5028 80.4677 23.7045 84.6634Z" fill="white"/>
<path d="M45.7552 102.512C45.7098 102.541 45.6631 102.574 45.6142 102.61C43.9104 103.864 41.1763 104.799 39.0267 104.723C36.7494 104.643 34.1347 103.686 34.828 100.07C36.5186 100.571 40.8431 101.503 44.8655 99.4622C52.1958 95.7432 49.999 87.5825 44.13 86.3533C43.1846 86.0866 42.0802 85.963 40.7926 86.0532C35.6289 86.4139 29.8069 90.3841 28.3874 97.5027C26.9508 104.707 30.4419 109.008 36.5369 109.008C40.3516 109.008 44.465 107.143 46.8416 104.052C46.866 104.021 46.8902 103.99 46.914 103.96L45.7552 102.512ZM39.0126 90.655C40.0137 89.7595 41.3617 88.8666 42.6377 88.9977C45.1738 89.2584 44.4399 92.4513 43.3162 94.1302C41.1834 97.3172 36.6699 98.3381 35.158 97.6427C35.158 97.6427 35.9714 93.3763 39.0126 90.655Z" fill="white"/>
<path d="M69.8733 86.6493C69.5845 86.6493 68.1534 86.5213 66.5794 86.386C65.803 86.3194 65.0414 86.1346 64.2637 86.0834C60.7436 85.8519 57.2717 86.588 54.683 89.1074C52.4211 91.3088 51.1072 94.327 50.5139 97.3704C50.4724 97.583 50.4334 97.7965 50.3997 98.0105C49.3825 104.457 52.7813 109.208 58.5215 109.207C59.5597 109.207 60.5896 108.927 61.4971 108.433C61.9481 108.187 62.3607 107.884 62.7563 107.559C62.8396 107.49 63.6416 106.789 63.724 106.671C63.724 106.671 64.2808 107.523 65.3267 108.175C65.9537 108.566 66.7571 108.885 67.7218 108.906C68.996 108.933 70.4447 108.4 71.2654 107.458C71.7843 106.863 72.0473 106.295 72.0473 106.295L71.3891 105.414C71.1644 105.568 70.6062 105.607 70.2315 105.435C70.0825 105.35 69.9505 105.245 69.8492 105.113C69.554 104.709 69.5797 104.05 69.6502 103.572L70.8074 97.4202L71.4023 94.4356C71.4824 94.034 71.541 93.6533 71.5847 93.2871L72.1887 90.0752C72.3167 89.4293 72.9509 88.906 73.6159 88.9057L74.0276 86.6528L69.8733 86.6493ZM65.6685 89.7116L63.0563 102.84C62.7276 104.49 61.255 105.9 59.5326 105.825C56.3018 105.745 55.7211 101.639 56.9729 96.3065C57.9682 92.0661 59.9449 89.4674 63.1251 89.2737C63.4349 89.255 64.1723 89.221 65.6697 89.7011L65.6685 89.7116Z" fill="white"/>
<path d="M92.064 84.8815C88.8972 84.7231 85.8595 88.1703 84.4523 90.0393L85.5193 84.8091L84.3093 84.0492C81.5598 85.978 77.7013 86.4746 76.4848 86.587L76.0677 88.9612C76.3278 89.0204 77.8002 89.4223 77.7666 90.9236C77.7518 91.5904 77.4549 93.1486 77.4549 93.1486L77.4627 93.1461L75.0933 105.149C75.0347 105.445 74.8677 105.712 74.6446 105.919C74.3452 106.15 73.97 106.249 73.6207 106.288L73.2322 108.783H82.378C82.3867 108.783 82.3951 108.779 82.4037 108.779H83.1469L83.5571 106.347C82.8734 106.298 82.0967 106.359 81.8208 105.737C81.7529 105.563 81.7297 105.364 81.7722 105.149L83.3938 96.9232C83.6743 95.5044 84.7007 93.5611 86.0002 92.317C86.0257 92.2935 86.0509 92.2701 86.0764 92.2472C86.1685 92.1617 86.2612 92.0808 86.3558 92.0033C86.4105 91.9578 86.4666 91.914 86.5233 91.8715C86.549 91.8517 86.5751 91.8343 86.6009 91.8156C87.0792 91.4752 87.6476 91.2428 88.5595 91.1916C89.187 91.9769 90.164 92.4745 91.311 92.4745C93.437 92.4745 95.328 90.7747 95.536 88.678C95.744 86.5813 94.19 84.8815 92.064 84.8815Z" fill="white"/>
<path d="M146.599 76.8357L145.581 78.9118L145.585 78.9096L136.815 96.5247L134.793 78.893L134.798 78.8984L134.551 76.7681C134.551 76.7681 131.279 77.1942 128.038 76.6829C125.465 76.2768 122.914 75.416 119.743 75.4942C115.57 75.597 111.985 77.2354 111.187 80.795C110.68 83.0575 112.244 84.9596 114.252 85.4007C115.622 85.702 117.329 85.4235 118.486 83.9302C118.595 83.7908 118.558 83.5913 118.413 83.4901C117.38 82.7677 117.533 81.3876 117.785 80.6824C118.418 78.9073 121.402 78.1926 123.684 79.0829C123.949 79.1861 124.123 79.4338 124.07 79.7094L119.106 105.355C119.096 105.408 119.078 105.458 119.062 105.509C118.743 106.328 118.146 106.323 117.551 106.323C117.448 106.323 116.905 106.305 116.901 106.298L116.428 108.8L123.872 108.799C123.875 108.799 123.878 108.798 123.88 108.798H124.613L124.781 107.869L124.894 107.26C124.895 107.255 124.893 107.251 124.894 107.245L125.056 106.347C124.906 106.347 124.525 106.35 124.346 106.347C123.707 106.334 123.208 106.161 123.207 105.536C123.208 105.477 123.21 105.417 123.222 105.355L127.517 83.1877H127.574L129.925 102.73C130.077 104.027 130.25 105.504 130.25 105.504H136.43L138.961 100.511L138.959 100.512L147.862 83.1877H147.919L143.608 105.355C143.597 105.408 143.578 105.458 143.561 105.509C143.243 106.328 142.645 106.323 142.051 106.323C141.948 106.323 141.404 106.305 141.36 106.298L140.886 108.8L151.637 108.799C151.64 108.799 151.642 108.798 151.645 108.798H152.404L152.847 106.347C152.45 106.332 151.131 106.575 151.011 105.535C151.013 105.476 151.016 105.416 151.028 105.355L155.898 80.2804C155.978 79.8748 156.256 79.517 156.614 79.3055C157.176 79.0306 158.152 79.129 158.152 79.129L158.633 76.8357H146.599Z" fill="white"/>
<path d="M163.18 105.355L166.443 88.1319C166.678 86.5232 165.32 86.6118 165.145 86.6118L158.847 86.6162C158.843 86.6162 158.839 86.6185 158.835 86.6185H158.097L157.629 88.8978H158.592C158.666 88.8978 158.729 88.9124 158.792 88.9267C158.841 88.9403 158.89 88.9536 158.935 88.9737C158.942 88.9766 158.948 88.98 158.955 88.9832C159.014 89.0109 159.069 89.0435 159.118 89.0816C159.127 89.088 159.134 89.095 159.141 89.1013C159.183 89.135 159.22 89.1718 159.255 89.2118C159.273 89.2335 159.287 89.2554 159.303 89.2776C159.332 89.3173 159.36 89.3567 159.382 89.4011L159.383 89.4043C159.474 89.5919 159.504 89.8178 159.456 90.0609L157.067 102.43C157.047 102.531 157.027 102.639 157.005 102.755C156.648 104.654 156.538 105.875 157.116 106.988C157.663 108.042 158.575 108.713 161.332 108.781H163.791L163.796 108.78H164.551L164.793 107.447L164.83 107.26C164.831 107.254 164.829 107.25 164.83 107.245L164.993 106.347C164.289 106.299 163.412 106.475 163.167 105.675C163.158 105.573 163.158 105.467 163.18 105.355Z" fill="white"/>
<path d="M180.339 78.2755C180.573 76.6665 179.216 76.7551 179.041 76.7551L171.46 76.7548L170.979 79.3598C170.979 79.3598 172.409 79.3869 172.767 79.6447C172.802 79.6704 172.842 79.6984 172.88 79.7263C173.163 79.9676 173.365 80.4452 173.169 81.4505L169.011 102.89C168.674 104.71 168.582 105.903 169.145 106.988C169.702 108.06 170.639 108.735 173.508 108.783H175.852C175.856 108.783 175.859 108.78 175.864 108.78H176.592L177.036 106.347C176.342 106.3 175.59 106.351 175.296 105.778C175.227 105.603 175.202 105.401 175.245 105.182L180.339 78.2755Z" fill="white"/>
<path d="M192.332 78.2755C192.566 76.6665 191.208 76.7551 191.034 76.7551L183.453 76.7548L182.972 79.3598C182.972 79.3598 184.402 79.3869 184.76 79.6447C184.796 79.6704 184.834 79.6984 184.873 79.7263C185.156 79.9676 185.358 80.4452 185.162 81.4505L181.004 102.89C180.668 104.71 180.575 105.903 181.138 106.988C181.695 108.06 182.632 108.735 185.503 108.783H187.845C187.849 108.783 187.853 108.78 187.857 108.78H188.585L189.028 106.347C188.335 106.3 187.583 106.351 187.29 105.778C187.22 105.603 187.195 105.401 187.238 105.182L192.332 78.2755Z" fill="white"/>
<path d="M106.657 78.2755C106.891 76.6665 105.534 76.7551 105.359 76.7551L97.632 76.7548L97.15 79.3598C97.15 79.3598 98.581 79.3869 98.938 79.6447C99.077 79.7445 99.245 79.866 99.401 79.9781C99.56 80.263 99.631 80.7142 99.487 81.4505L95.329 102.89C94.993 104.71 94.9 105.903 95.463 106.988C96.02 108.06 96.957 108.735 99.828 108.783H102.17C102.174 108.783 102.178 108.78 102.181 108.78H102.91L103.353 106.347C102.66 106.3 101.908 106.351 101.614 105.778C101.544 105.603 101.52 105.401 101.563 105.182L106.657 78.2755Z" fill="white"/>
<path d="M199.268 84.2315C201.124 84.2315 202.77 82.8823 202.943 81.2175C203.117 79.5536 201.752 78.2043 199.895 78.2043C198.038 78.2043 196.392 79.5536 196.219 81.2175C196.046 82.8823 197.411 84.2315 199.268 84.2315Z" fill="white"/>
<path d="M202.368 88.1318C202.601 86.5228 201.244 86.6114 201.069 86.6114L194.771 86.6158C194.767 86.6158 194.763 86.618 194.759 86.618H194.021L193.553 88.8977H194.515C194.59 88.8977 194.652 88.9119 194.716 88.9266C194.765 88.9399 194.814 88.9533 194.859 88.9733C194.866 88.9764 194.872 88.9799 194.879 88.9831C194.937 89.0107 194.992 89.0431 195.042 89.0812C195.051 89.0876 195.058 89.0948 195.066 89.1016C195.107 89.1348 195.145 89.1718 195.179 89.2117C195.196 89.233 195.212 89.2553 195.227 89.2771C195.255 89.3168 195.284 89.3562 195.306 89.4007L195.308 89.4042C195.398 89.5915 195.428 89.8176 195.38 90.0605L193.545 99.5594C193.273 101.008 193.276 101.014 192.948 102.755C192.59 104.654 192.48 105.875 193.058 106.988C193.604 108.041 194.516 108.712 197.274 108.781H199.714L199.72 108.78H200.474L200.717 107.447L200.754 107.26C200.756 107.254 200.753 107.25 200.754 107.244L200.917 106.347C200.212 106.298 199.336 106.474 199.092 105.675C199.082 105.573 199.082 105.467 199.105 105.355L202.368 88.1318Z" fill="white"/>
<path d="M226.4 92.3849C227.261 88.1835 224.663 86.3659 221.378 86.3301C218.987 86.3044 216.262 87.297 214.359 89.0406L214.531 88.1317C214.765 86.5229 213.408 86.6114 213.233 86.6114L206.984 86.6158C206.98 86.6158 206.976 86.6181 206.972 86.6181H206.197L205.73 88.8977H206.692C206.79 88.8977 206.878 88.9117 206.957 88.9362C207.373 89.065 207.541 89.4784 207.599 89.6792C207.617 89.7992 207.62 89.9262 207.593 90.0605L204.638 105.355C204.608 105.509 204.547 105.655 204.466 105.79C203.895 106.447 202.804 106.322 202.393 106.298L201.929 108.782H202.637C202.646 108.782 202.652 108.786 202.661 108.786H211.919C211.932 108.786 211.944 108.78 211.957 108.78H212.454L212.862 106.334C212.192 106.312 211.404 106.311 211.299 105.632C211.295 105.542 211.298 105.451 211.317 105.355L213.381 94.4635C213.683 92.9854 215.068 90.7082 217.479 90.7082C219.057 90.7082 220.024 91.3831 219.416 94.0552L217.122 105.377C217.092 105.528 217.033 105.67 216.954 105.802C216.597 106.201 216.041 106.324 215.573 106.353L215.167 108.786H224.368C224.381 108.786 224.393 108.78 224.406 108.78H225.163L225.606 106.347C224.906 106.372 223.887 106.416 223.757 105.651C223.753 105.563 223.756 105.472 223.775 105.377L226.4 92.3849Z" fill="white"/>
<path d="M251.667 88.9058C251.684 88.9058 251.7 88.8981 251.717 88.897L252.092 86.6528L247.834 86.6489C247.22 86.6489 241.456 86.0716 240.093 86.072C233.526 86.073 229.416 91.487 228.36 98.0105C227.343 104.457 230.741 109.208 236.482 109.207C237.965 109.207 239.28 108.747 240.488 107.826C239.262 115.168 238.075 118.296 235.065 118.337C231.946 118.381 231.624 115.952 233.463 114.057C233.692 112.302 232.017 111.173 230.384 111.13C228.336 111.129 226.34 112.345 225.828 114.333C224.875 118.028 228.044 122.03 234.96 121.877C242.586 121.709 245.915 115.595 246.936 107.162L250.149 90.0752C250.277 89.4293 250.911 88.9058 251.566 88.9058H251.667ZM241.016 102.84C240.688 104.489 239.215 105.9 237.493 105.825C234.262 105.744 233.682 101.639 234.933 96.3063C235.929 92.0662 237.905 89.4671 241.085 89.2737C241.396 89.2547 242.132 89.221 243.631 89.7011L241.016 102.84Z" fill="white"/>
<path d="M252.723 83.2189L253.15 81.1377L252.515 81.1253C252.42 81.1234 252.349 81.0487 252.37 80.9484L252.415 80.7293C252.434 80.6379 252.535 80.5576 252.631 80.5595L254.508 80.5963C254.612 80.5985 254.671 80.6821 254.653 80.7731L254.608 80.9923C254.588 81.0927 254.496 81.1643 254.392 81.1622L253.757 81.1498L253.33 83.2309C253.311 83.3223 253.209 83.4024 253.114 83.4008L252.867 83.3958C252.763 83.3935 252.704 83.31 252.723 83.2189ZM254.466 83.2163L255.476 80.7072C255.51 80.6345 255.599 80.5719 255.684 80.5738L255.722 80.5744C255.78 80.5753 255.853 80.6318 255.863 80.6779L256.286 82.5098L257.475 80.7097C257.503 80.6643 257.6 80.6113 257.656 80.6122L257.695 80.6131C257.771 80.6147 257.843 80.6801 257.847 80.7536L257.83 83.2918C257.827 83.4017 257.722 83.4912 257.609 83.4888L257.362 83.4844C257.277 83.4824 257.216 83.4081 257.214 83.3256L257.221 81.9967L256.283 83.4078C256.255 83.4532 256.171 83.4881 256.114 83.4872L256.057 83.4859C256.01 83.4852 255.932 83.4469 255.915 83.3912L255.59 81.9649L255.031 83.2918C255.007 83.3646 254.897 83.4358 254.821 83.4342L254.603 83.43C254.48 83.4275 254.424 83.3259 254.466 83.2163Z" fill="white"/>
<path d="M87.1381 114.362C88.4795 114.362 89.449 114.806 90.352 115.575C90.472 115.679 90.472 115.836 90.365 115.94L89.781 116.527C89.688 116.644 89.569 116.644 89.449 116.527C88.8248 115.992 87.9747 115.653 87.1513 115.653C85.2522 115.653 83.8178 117.219 83.8178 119.044C83.8178 120.87 85.2655 122.421 87.1648 122.421C88.1341 122.421 88.8116 122.043 89.449 121.561C89.569 121.469 89.688 121.483 89.768 121.548L90.378 122.135C90.485 122.226 90.458 122.395 90.365 122.486C89.462 123.347 88.3201 123.752 87.1381 123.752C84.4818 123.752 82.3436 121.678 82.3436 119.07C82.3436 116.462 84.4818 114.362 87.1381 114.362Z" fill="white"/>
<path d="M99.876 114.362C102.532 114.362 104.657 116.461 104.657 119.07C104.657 121.678 102.532 123.752 99.876 123.752C97.22 123.752 95.108 121.678 95.108 119.07C95.108 116.461 97.22 114.362 99.876 114.362ZM99.876 122.447C101.775 122.447 103.329 120.934 103.329 119.07C103.329 117.218 101.775 115.666 99.876 115.666C97.99 115.666 96.436 117.218 96.436 119.07C96.436 120.934 97.99 122.447 99.876 122.447Z" fill="white"/>
<path d="M111.269 114.558C111.296 114.454 111.403 114.362 111.509 114.362H111.721C111.801 114.362 111.92 114.427 111.947 114.506L114.723 121.169H114.776L117.538 114.506C117.565 114.427 117.671 114.362 117.764 114.362H117.977C118.083 114.362 118.189 114.454 118.215 114.558L119.849 123.321C119.889 123.503 119.796 123.621 119.61 123.621H118.747C118.627 123.621 118.521 123.53 118.495 123.438L117.512 117.609H117.472L115.081 123.608C115.054 123.686 114.975 123.752 114.856 123.752H114.616C114.51 123.752 114.417 123.686 114.391 123.608L111.987 117.609H111.933L110.977 123.438C110.964 123.53 110.844 123.621 110.738 123.621H109.875C109.689 123.621 109.596 123.503 109.623 123.321L111.269 114.558Z" fill="white"/>
<path d="M125.54 114.74C125.54 114.61 125.646 114.492 125.792 114.492H128.82C130.454 114.492 131.795 115.796 131.795 117.375C131.795 118.991 130.454 120.308 128.834 120.308H126.908V123.373C126.908 123.503 126.788 123.621 126.655 123.621H125.792C125.646 123.621 125.54 123.503 125.54 123.373V114.74ZM128.741 119.03C129.657 119.03 130.427 118.3 130.427 117.361C130.427 116.475 129.657 115.796 128.741 115.796H126.908V119.03H128.741Z" fill="white"/>
<path d="M135.323 123.282L139.4 114.506C139.44 114.427 139.559 114.362 139.626 114.362H139.758C139.825 114.362 139.945 114.427 139.984 114.506L144.035 123.282C144.115 123.452 144.008 123.621 143.809 123.621H142.973C142.813 123.621 142.72 123.543 142.667 123.426L141.844 121.639H137.501C137.235 122.239 136.956 122.826 136.691 123.426C136.651 123.517 136.544 123.621 136.385 123.621H135.548C135.349 123.621 135.243 123.452 135.323 123.282ZM141.339 120.517L139.705 116.944H139.639L138.018 120.517H141.339Z" fill="white"/>
<path d="M149.197 114.597C149.197 114.467 149.317 114.362 149.449 114.362H149.781L155.545 120.909H155.559V114.741C155.559 114.61 155.665 114.493 155.811 114.493H156.661C156.794 114.493 156.913 114.61 156.913 114.741V123.517C156.913 123.647 156.794 123.752 156.661 123.752H156.316L150.552 117.023H150.538V123.373C150.538 123.504 150.432 123.621 150.286 123.621H149.449C149.317 123.621 149.197 123.504 149.197 123.373V114.597Z" fill="white"/>
<path d="M165.178 119.226L162.07 114.871C161.964 114.701 162.07 114.493 162.282 114.493H163.265C163.371 114.493 163.438 114.558 163.478 114.61L165.882 117.936L168.286 114.61C168.325 114.558 168.405 114.493 168.498 114.493H169.494C169.706 114.493 169.812 114.701 169.706 114.871L166.559 119.214V123.373C166.559 123.504 166.439 123.621 166.307 123.621H165.43C165.284 123.621 165.178 123.504 165.178 123.373V119.226Z" fill="white"/>
<path d="M77.241 61.1982L77.5014 60.7581C77.5591 60.6587 77.682 60.6587 77.747 60.7082C77.7834 60.7298 78.369 61.1486 78.8393 61.1486C79.2152 61.1486 79.4971 60.907 79.4971 60.6019C79.4971 60.2398 79.1861 59.9912 78.5787 59.7499C77.899 59.4803 77.2194 59.0542 77.2194 58.2162C77.2194 57.5846 77.6965 56.8533 78.8463 56.8533C79.5837 56.8533 80.148 57.2223 80.2925 57.329C80.3646 57.3715 80.3865 57.4922 80.336 57.563L80.0611 57.9679C80.0031 58.053 79.8947 58.1098 79.808 58.053C79.7502 58.0174 79.2007 57.6627 78.8028 57.6627C78.3907 57.6627 78.1664 57.9323 78.1664 58.1597C78.1664 58.4934 78.4342 58.7204 79.0198 58.9548C79.7211 59.2317 80.5311 59.6432 80.5311 60.5593C80.5311 61.2906 79.8876 61.9651 78.8679 61.9651C77.9569 61.9651 77.422 61.5462 77.277 61.4113C77.212 61.3471 77.176 61.3119 77.241 61.1982Z" fill="white"/>
<path d="M82.1305 57.3491C82.1305 57.1143 82.3208 56.9241 82.5555 56.9241H82.7035C82.9393 56.9241 83.1305 57.1152 83.1305 57.3511V61.4669C83.1305 61.7027 82.9393 61.8939 82.7035 61.8939H82.5545C82.3203 61.8939 82.1305 61.704 82.1305 61.4699V57.3491Z" fill="white"/>
<path d="M85.0233 56.981C85.0233 56.9098 85.0882 56.853 85.1607 56.853H85.3415L88.3493 59.9912H88.3568V57.0591C88.3568 56.9879 88.4147 56.9241 88.4943 56.9241H89.159C89.232 56.9241 89.297 56.9879 89.297 57.0591V61.8374C89.297 61.9082 89.232 61.9651 89.159 61.9651H88.9859L85.9633 58.7061H85.9563V61.7593C85.9563 61.8301 85.8983 61.8939 85.8188 61.8939H85.1607C85.0882 61.8939 85.0233 61.8301 85.0233 61.7593V56.981Z" fill="white"/>
<path d="M93.522 56.853C94.252 56.853 94.78 57.08 95.272 57.5135C95.336 57.57 95.336 57.6554 95.279 57.7119L94.838 58.1594C94.787 58.2162 94.715 58.2162 94.657 58.1594C94.353 57.8967 93.948 57.7405 93.543 57.7405C92.618 57.7405 91.931 58.5004 91.931 59.3949C91.931 60.2824 92.625 61.035 93.551 61.035C93.984 61.035 94.353 60.8715 94.657 60.6301C94.715 60.5806 94.794 60.5876 94.838 60.6301L95.286 61.0845C95.344 61.134 95.329 61.2265 95.279 61.276C94.787 61.7447 94.165 61.9647 93.522 61.9647C92.076 61.9647 90.911 60.8359 90.911 59.4159C90.911 57.9962 92.076 56.853 93.522 56.853Z" fill="white"/>
<path d="M96.839 57.0591C96.839 56.9879 96.897 56.9241 96.976 56.9241H99.919C99.999 56.9241 100.057 56.9879 100.057 57.0591V57.6411C100.057 57.7122 99.999 57.7761 99.919 57.7761H97.779V58.9405H99.565C99.637 58.9405 99.702 59.0043 99.702 59.0751V59.6648C99.702 59.7429 99.637 59.7994 99.565 59.7994H97.779V61.0419H99.919C99.999 61.0419 100.057 61.1058 100.057 61.1769V61.7593C100.057 61.8301 99.999 61.8939 99.919 61.8939H96.976C96.897 61.8939 96.839 61.8301 96.839 61.7593V57.0591Z" fill="white"/>
<path d="M153.249 58.3581L152.613 58.4931C152.548 58.5074 152.475 58.4648 152.468 58.4007L152.424 58.053C152.417 57.9961 152.432 57.9536 152.461 57.925L153.502 57.0661H154.009C154.08 57.0661 154.138 57.1299 154.138 57.201V61.759C154.138 61.8301 154.08 61.8939 154.009 61.8939H153.387C153.307 61.8939 153.249 61.8301 153.249 61.759V58.3581Z" fill="white"/>
<path d="M156.69 59.4162V59.3949C156.394 59.2387 155.945 58.8481 155.945 58.2943C155.945 57.5065 156.64 56.9949 157.515 56.9949C158.419 56.9949 159.112 57.5065 159.112 58.2943C159.112 58.8341 158.664 59.2174 158.368 59.3876V59.4162C158.693 59.5794 159.243 59.9912 159.243 60.6019C159.243 61.3757 158.577 61.9651 157.515 61.9651C156.48 61.9651 155.815 61.3757 155.815 60.6019C155.815 59.9839 156.488 59.5156 156.69 59.4162ZM157.529 61.2407C157.927 61.2407 158.281 60.9781 158.281 60.5876C158.281 60.2681 158.013 59.9417 157.529 59.835C157.045 59.9417 156.777 60.2681 156.777 60.5876C156.777 60.9781 157.139 61.2407 157.529 61.2407ZM158.187 58.3299C158.187 57.9891 157.891 57.7266 157.515 57.7266C157.168 57.7266 156.871 57.9891 156.871 58.3299C156.871 58.6493 157.074 58.8979 157.529 59.0043C157.977 58.9049 158.187 58.635 158.187 58.3299Z" fill="white"/>
<path d="M161.507 59.4162V59.3949C161.21 59.2387 160.762 58.8481 160.762 58.2943C160.762 57.5065 161.456 56.9949 162.331 56.9949C163.235 56.9949 163.929 57.5065 163.929 58.2943C163.929 58.8341 163.481 59.2174 163.184 59.3876V59.4162C163.51 59.5794 164.059 59.9912 164.059 60.6019C164.059 61.3757 163.394 61.9651 162.331 61.9651C161.297 61.9651 160.632 61.3757 160.632 60.6019C160.632 59.9839 161.304 59.5156 161.507 59.4162ZM162.345 61.2407C162.743 61.2407 163.097 60.9781 163.097 60.5876C163.097 60.2681 162.83 59.9417 162.345 59.835C161.861 59.9417 161.593 60.2681 161.593 60.5876C161.593 60.9781 161.955 61.2407 162.345 61.2407ZM163.003 58.3299C163.003 57.9891 162.707 57.7266 162.331 57.7266C161.984 57.7266 161.688 57.9891 161.688 58.3299C161.688 58.6493 161.89 58.8979 162.345 59.0043C162.794 58.9049 163.003 58.635 163.003 58.3299Z" fill="white"/>
<path d="M165.976 61.2833C166.316 61.1769 167.343 60.7012 167.567 59.9201C167.444 59.9912 167.082 60.1189 166.742 60.1189C166.019 60.1189 165.267 59.5937 165.267 58.5785C165.267 57.6837 166.012 56.9524 166.901 56.9524C168.037 56.9524 168.622 57.8469 168.622 58.9119C168.622 60.9851 166.836 61.8085 166.214 62.0076C166.113 62.0359 166.041 62.0003 166.012 61.9082L165.846 61.4894C165.81 61.4039 165.838 61.3258 165.976 61.2833ZM167.755 58.8055C167.755 58.3226 167.494 57.7618 166.909 57.7618C166.453 57.7618 166.084 58.1451 166.084 58.5925C166.084 59.0469 166.453 59.4232 166.916 59.4232C167.393 59.4232 167.675 59.0612 167.755 58.8055Z" fill="white"/>
<path d="M146.821 45.5172L135.724 39L125.018 45.7194V48.9866L116.389 43.9184L105.683 50.6381V70.4329H120.009C114.437 70.4078 109.927 65.9448 109.927 60.4421C109.927 54.9243 114.462 50.4511 120.055 50.4511C125.649 50.4511 130.183 54.9243 130.183 60.4421C130.183 61.1325 130.112 61.8063 129.977 62.4569C131.404 61.7117 133.282 61.8117 134.568 62.77C135.907 63.7655 136.531 65.6288 136.109 67.2346C137.364 66.5024 138.943 66.3264 140.322 66.7812C141.491 67.1663 142.493 68.0043 143.111 69.0598C143.325 69.4018 143.484 69.7756 143.582 70.1639C143.605 70.2528 143.62 70.343 143.636 70.4335H146.821V45.5172ZM134.114 53.8135L129.297 53.8138L129.298 50.2336C129.29 48.9164 130.362 47.8384 131.692 47.8254C133.022 47.8127 134.106 48.8697 134.114 50.1869V53.8135ZM142.466 62.9475L137.65 62.9478L137.651 59.3676C137.643 58.0504 138.715 56.9724 140.045 56.9594C141.375 56.9463 142.459 58.0038 142.466 59.3209V62.9475ZM142.466 53.8135L137.65 53.8138L137.651 50.2336C137.643 48.9164 138.715 47.8384 140.045 47.8254C141.375 47.8127 142.459 48.8697 142.466 50.1869V53.8135Z" fill="white"/>
<path d="M119.074 52.617L119.106 58.214L115.092 54.2987C116.213 53.4064 117.578 52.806 119.074 52.617ZM113.776 55.6229L117.791 59.5378L112.14 59.593C112.308 58.1085 112.893 56.7469 113.776 55.6229ZM112.151 61.4468L117.8 61.3916L113.83 65.3856C112.908 64.2485 112.33 62.8945 112.151 61.4468ZM115.161 66.6853L119.132 62.691L119.164 68.2882C117.694 68.1342 116.322 67.583 115.161 66.6853ZM127.96 59.4393L122.31 59.4943L126.281 55.5003C127.203 56.6377 127.781 57.9914 127.96 59.4393ZM120.947 52.5961C122.411 52.7514 123.786 53.3045 124.949 54.2009L120.979 58.1952L120.947 52.5961ZM121.036 68.2688L121.005 62.6716L125.019 66.5868C123.898 67.4791 122.532 68.0793 121.036 68.2688ZM126.335 65.263L122.32 61.3481L127.97 61.2925C127.803 62.777 127.218 64.1386 126.335 65.263Z" fill="white"/>
</g>
</svg>
