<svg width="280" height="162" viewBox="0 0 280 162" fill="none" xmlns="http://www.w3.org/2000/svg">
<mask id="mask0_17_181" style="mask-type:alpha" maskUnits="userSpaceOnUse" x="0" y="0" width="280" height="162">
<rect width="280" height="162" fill="#D9D9D9"/>
</mask>
<g mask="url(#mask0_17_181)">
<path d="M127.546 37.6505C126.894 37.9197 126.262 38.919 126.445 39.8617C126.802 39.3545 127.976 38.8183 128.772 38.6478C129.592 38.3242 129.365 37.407 129.365 37.407C129.365 37.407 127.884 37.5113 127.546 37.6505Z" fill="white"/>
<path d="M131.356 52.5978C131.308 52.6858 130.636 53.9321 129.313 53.8735C128.764 55.7952 128.672 59.1814 130.32 60.3711C130.686 59.9138 131.509 58.6615 131.844 58.5096C131.204 58.0833 131.174 57.1078 131.357 56.3757C131.507 55.7714 130.38 56.0097 130.076 55.215C130.962 54.5654 131.334 52.7131 131.356 52.5978Z" fill="white"/>
<path d="M132.073 39.7807C131.753 39.5063 131.188 39.2622 130.761 39.2622C130.456 39.3841 129.93 39.8046 129.922 39.918C130.639 39.9333 131.737 39.8723 132.286 40.3603C132.439 40.2384 132.269 39.9487 132.073 39.7807Z" fill="white"/>
<path d="M95.9088 31.8488C97.8971 21.9395 108.005 22.8323 120.216 24.4219C136.412 26.5301 145.35 23.4066 152.604 20.7052C158.503 18.5103 162.971 16.203 167.902 18.6704C172.716 21.0771 175.798 26.4822 174.55 32.7992C176.184 25.9916 173.214 19.9826 168.268 17.5097C163.337 15.0443 159.207 15.8344 153.625 17.8764C146.897 20.3372 135.475 23.6556 120.889 22.3215C120.466 19.6951 119.341 17.2666 119.341 17.1639C122.584 15.3481 127.532 13.5127 134.712 13.0183C144.543 12.341 150.944 15.9797 151.765 17.0123C151.828 16.6078 151.883 15.9797 151.231 15.4817C150.576 14.9807 149.492 14.3839 147.387 13.6516C144.45 12.6304 139.969 11.7187 134.712 12.0812C126.75 12.6304 122.418 14.2464 118.697 16.2597C117.348 16.9885 115.579 18.1912 116.023 19.8327C116.22 20.5634 116.348 21.2622 116.378 21.5677C106.067 20.0722 96.9339 21.48 95.4512 30.2621C95.0138 32.8517 95.2882 35.1655 96.046 37.2193C95.6526 35.6192 95.5118 33.8272 95.9088 31.8488Z" fill="white"/>
<path d="M129.011 42.4656C128.781 42.3026 128.596 41.9646 128.522 41.6791C128.034 41.842 127.871 42.1777 127.871 42.1777C128.156 42.4222 128.503 42.5669 129.161 42.653C129.11 42.7886 129.161 43.3048 129.26 43.8482C129.45 43.8889 129.871 43.916 130.102 43.9567C129.828 44.1399 129.558 44.3916 129.287 44.6631C126.931 47.0186 128.328 49.028 128.328 49.028C128.328 49.028 130.291 48.2379 131.786 46.7817C132.729 45.8625 133.415 44.3642 132.183 43.7677C132.475 43.5392 132.736 42.3544 132.736 42.3544C132.736 42.3544 131.959 42.3407 131.741 42.2592C131.85 42.1507 131.945 42.1781 131.741 41.8828C131.537 41.5875 131.079 41.3632 130.967 41.3124C130.926 41.5875 130.845 41.8828 130.845 41.8828L130.139 41.6347C130.139 41.6347 130.285 42.1602 130.397 42.4656C130.22 42.4926 129.337 42.5063 129.011 42.4656Z" fill="white"/>
<path d="M123.274 58.5158C124.687 61.457 128.042 62.8296 128.146 62.8697C126.958 62.015 126.389 60.7615 126.134 59.431C125.768 57.5089 125.684 53.1821 125.342 52.3529C124.701 50.7972 123.597 48.3811 124.121 46.3752C124.67 44.2702 126.075 43.6516 126.807 43.2856C126.518 43.0226 126.18 42.8942 125.838 42.8671C124.967 42.798 124.17 43.2589 124.123 43.2853C124.145 43.223 124.551 42.0464 124.403 41.0669C125.459 40.6862 125.245 39.4894 125.757 38.4079C125.361 38.5064 124.597 38.9102 124.224 39.1833C124.051 39.3094 123.944 38.8319 123.934 38.7641C124.416 38.0027 125.159 36.7952 125.159 36.7952L124.857 33.9725C121.006 36.2825 117.569 34.5498 117.133 34.3079C116.419 35.2013 116.038 36.1749 115.859 37.112C115.502 38.9881 113.256 38.5269 111.832 41.5966C110.948 43.5037 111.807 44.6096 111.421 46.0809C110.935 47.9332 108.354 46.7109 107.798 46.0264C107.798 46.0264 108.167 47.3566 108.737 49.028C104.634 52.1117 105.176 58.7436 108.286 61.3782C111.502 64.1027 116.639 63.7957 118.563 61.7064C115.111 62.5777 111.971 61.5434 110.696 58.5767C110.163 57.0813 110.272 55.4969 110.814 54.772C111.722 57.7114 115.25 58.9535 118.055 57.0024C120.861 55.0494 119.886 51.9983 119.886 51.9983L121.986 50.5476C122.21 52.5387 122.413 56.7188 123.274 58.5158ZM121.741 41.1533C121.741 43.3498 121.315 46.5528 121.315 46.5528C121.315 46.5528 118.813 44.5395 118.606 41.6328C118.498 40.1357 119.82 37.4011 121.833 36.1198C121.833 36.1198 120.918 39.3228 121.741 41.1533Z" fill="white"/>
<path d="M133.771 48.8091C133.447 49.5062 133.614 50.2129 133.614 50.2129L134.712 50.03C134.529 49.1148 134.809 47.5698 134.809 47.5698C134.809 47.5698 134.059 48.1904 133.771 48.8091Z" fill="white"/>
<path d="M189.379 85.9046C188.402 83.4646 185.596 80.291 183.156 81.8779C183.156 81.8779 171.645 77.9132 162.4 74.7375C163.13 75.4094 164.428 77.0768 164.821 77.8509C171.777 80.3219 181.478 82.3355 183.136 84.0542C183.136 84.0542 184.814 83.2358 186.409 83.9496C188.464 84.8668 190.519 89.2928 191.819 98.7169C192.167 101.23 192.712 103.267 192.883 103.104C192.438 96.7254 191.393 89.6715 189.379 85.9046Z" fill="white"/>
<path d="M85.9021 82.0004C83.219 83.5854 80.2901 97.3752 79.5581 100.547C79.1555 102.29 79.3423 103.406 79.5727 104.241C79.9114 98.1018 85.7685 84.5574 86.8796 83.9514C88.2212 83.2194 90.5406 83.2194 90.5406 83.2194L117.384 75.2883C117.384 74.3222 117.701 73.1012 118.199 72.0377C114.749 72.9292 98.3869 77.256 89.6854 81.389C89.6854 81.389 87.5038 81.0542 85.9021 82.0004Z" fill="white"/>
<path d="M176.956 89.411C170.976 88.7393 161.581 81.6611 157.554 78.3666C153.528 75.0719 146.953 70.0694 146.953 70.0694C146.953 70.0694 147.967 69.5039 148.468 68.7024C148.792 68.1825 148.661 66.9179 148.554 67.0036C148.097 67.3697 147.059 67.8126 147.059 67.8126L147.273 63.2058L147.914 62.3218C150.354 60.0631 150.476 56.8307 151.148 54.0231C151.32 53.3054 151.486 52.5824 151.638 51.8778C151.794 52.3901 151.923 52.9002 152.032 53.1388C152.856 53.2304 153.924 52.6574 154.595 52.2236C153.679 53.7796 152.733 56.6475 153.771 58.4158C154.97 60.4604 158.896 61.1612 160.604 59.4536L160.603 59.4624C159.609 61.0758 157.886 62.3147 155.77 62.728C154.831 62.9115 153.903 62.9144 153.027 62.7641C154.584 64.3639 157.024 65.1637 159.541 64.6725C162.295 64.1347 164.382 62.1996 165.066 59.8604C165.734 57.7369 165.634 53.9651 162.74 51.9491C163.125 49.4003 162.962 45.5705 160.483 42.2485C158.64 39.7799 157.005 40.1746 156.333 36.88C155.68 33.6714 153.522 30.869 149.241 31.118L149.805 32.8533C146.387 29.985 132.63 29.8934 129.61 31.9984C130.068 33.6457 128.755 35.4762 128.755 35.4762C129.305 35.1704 130.708 35.0495 131.501 35.1101C132.296 35.7816 134.552 36.3914 134.552 36.3914L133.943 36.88C133.943 36.88 134.796 37.1838 135.345 37.4292C135.894 37.6723 136.869 38.465 136.809 39.8688C136.749 41.271 137.023 45.4515 137.023 45.4515L137.481 45.5428C136.871 46.458 136.566 47.9225 137.115 48.7149C137.664 49.5075 138.334 49.8755 139.128 49.5698C139.921 49.266 140.775 49.4472 141.264 49.9961C141.753 50.5453 140.958 50.9114 140.958 50.9114C140.958 50.9114 139.86 50.5453 139.434 50.9114C139.333 50.9955 139.185 51.1053 139.029 51.2151L139.265 52.91L137.939 53.6424L137.9 51.8429L136.871 52.2549L135.711 54.7551C135.711 54.7551 136.505 54.6342 136.932 54.8174C137.358 55.0003 138.519 55.1212 138.519 55.1212C138.519 55.1212 139.311 54.8174 139.86 54.6949C140.409 54.5719 141.264 54.4514 142.423 54.6949C143.581 54.938 143.982 54.5739 144.193 54.2682C144.742 53.4739 143.827 52.4984 143.827 52.4984C144.253 52.2549 144.619 51.5831 144.619 51.5831C145.9 52.8041 147.731 51.8888 147.731 51.8888C147.974 53.9625 146.572 56.8288 145.291 58.112C144.985 57.9894 144.496 56.7685 144.68 55.6704C144.76 55.1851 143.643 55.304 143.643 55.304C143.643 55.304 143.155 55.6704 142.666 55.8532C142.179 56.0364 139.8 56.525 138.762 56.4025C137.724 56.2815 135.834 56.9517 135.345 57.9289C136.994 58.6592 139.617 58.2329 139.617 58.2329L139.86 60.6123C138.335 60.0631 136.04 61.0478 135.65 62.4424C135.224 63.9692 135.65 65.3107 135.65 65.3107C135.65 65.3107 133.637 65.1276 132.844 64.7615C132.213 64.4688 131.807 64.9447 131.807 64.9447C131.807 64.9447 132.722 65.7993 134.492 66.3485C136.26 66.8977 139.311 67.2015 141.324 66.226C143.338 65.2504 144.68 64.3351 144.68 64.3351L145.412 64.3955C145.412 64.3955 143.643 66.2863 142.972 67.0805C142.3 67.8733 142.179 68.545 142.179 68.545C142.179 68.545 139.555 68.9713 138.945 69.2771C138.335 69.5808 138.273 70.0091 138.273 70.0091C138.273 70.0091 135.59 69.2148 135.041 69.2148C134.492 69.2148 134.003 69.4602 133.881 70.0694C131.014 69.2771 128.419 67.9648 126.499 66.8664C123.936 65.4023 122.838 64.152 122.838 64.152C122.838 64.152 122.576 65.2211 122.655 65.7683C122.746 66.4088 123.57 67.4156 125.4 68.4221C129.034 70.4211 133.76 72.2659 133.76 72.2659C133.76 72.2659 133.577 75.0116 134.735 80.6856C135.894 86.3595 141.996 93.498 145.595 93.9246C149.195 94.3529 153.465 92.2167 156.639 92.0941C159.811 91.9732 159.139 95.3888 157.554 97.2192C155.967 99.0494 155.113 100.697 154.929 101.674C154.076 101.186 154.197 99.7211 155.418 98.1341C156.608 96.5895 157.217 94.4041 157.247 94.2943C157.194 94.3712 156.125 95.9158 155.113 95.085C154.076 94.23 152.246 94.4735 152.429 95.0227C152.429 95.0227 153.588 98.6833 153.648 100.331C153.71 101.978 154.26 103.687 156.639 103.259C159.018 102.833 160.909 100.942 160.909 100.942C160.909 100.942 162.434 101.857 164.021 102.101C165.608 102.344 166.949 100.514 166.949 100.514C166.949 100.514 167.438 100.759 168.474 100.636C169.512 100.514 173.233 98.3795 174.454 95.2059C175.674 92.0339 177.199 90.5694 178.724 90.2034C180.25 89.8374 179.822 90.63 179.822 90.63C177.626 91.9732 177.809 93.7414 177.809 93.7414C177.809 93.7414 176.101 95.0227 176.161 95.5719C180.371 93.9869 180.677 90.3865 180.311 89.7771C179.945 89.1656 178.358 88.9827 176.956 89.411ZM152.466 38.3154C152.527 39.9627 152.995 41.6961 154.54 44.4783C155.984 47.0793 153.415 49.9433 151.842 50.8752C152.16 49.2556 152.358 47.7986 152.283 46.7954C152.16 45.1481 150.819 43.8668 151.124 40.7554C151.428 37.6437 150.513 35.1434 150.513 35.1434C150.513 35.1434 152.385 36.1593 152.466 38.3154ZM142.483 50.2129C142.789 49.3579 142.545 48.4427 141.751 47.8938L141.874 47.2843C143.581 47.5278 144.13 49.6636 144.13 49.6636L142.483 50.2129ZM147.3 43.0712L147.443 41.875C147.443 41.875 146.967 41.9174 146.899 41.9043C146.71 41.4285 146.156 41.2133 146.003 41.197C146.003 41.4676 145.908 41.7414 145.908 41.7414L145.132 41.4858L145.269 42.1488L144.067 42.139C143.832 41.9793 143.679 41.6175 143.64 41.3046C143.124 41.3858 142.795 41.978 142.795 42.0399C143.042 42.079 143.297 42.1195 143.522 42.1456L143.819 43.2211C143.819 43.2211 144.494 43.5047 144.983 43.5862C145.439 43.6644 146.489 43.71 146.489 43.71C144.66 44.5673 142.782 44.2316 142.114 43.9251C141.746 43.4395 141.198 42.3411 141.198 42.3411H140.709L140.954 40.9982L139.793 41.2427C139.793 41.2427 139.435 39.1469 141.149 37.4487L140.556 36.5459L142.052 35.1867C142.052 35.1867 144.207 34.8217 144.82 35.0042C145.43 35.1867 146.557 36.1026 146.557 36.1026L147.909 36.1939L149.464 38.495L149.099 39.1078L147.495 36.9729C147.495 36.9729 146.515 36.8067 145.645 36.7871C145.061 36.7741 144.412 36.9272 143.695 37.3933L143.043 38.8503C143.043 38.8503 143.721 38.7688 144.265 39.0132C143.532 39.3946 143.098 40.154 143.098 40.154C144.321 39.4761 145.611 39.6358 146.791 40.1247C146.98 40.0237 146.791 39.4304 146.302 39.1469C146.547 39.0654 146.993 39.1469 147.525 39.7173C148.072 40.3072 148.014 41.0601 148.786 40.7766C149.021 40.6918 148.783 41.9369 148.708 42.6083C148.056 42.302 147.3 43.0712 147.3 43.0712ZM138.09 65.7103L138.213 64.1233C138.213 64.1233 139.617 64.8554 139.555 65.2214C139.494 65.5874 138.09 65.7103 138.09 65.7103ZM137.397 71.7503L138.616 71.6278L138.982 75.4109L137.397 71.7503ZM144.026 72.0055L144.453 70.9303C144.453 70.9303 145.105 73.4817 147.197 75.7199C145.68 75.3389 143.581 72.5586 143.581 72.5586L144.026 72.0055ZM144.473 82.4871C141.178 77.9735 142.156 77.1188 142.156 77.1188C142.156 77.1188 142.231 77.4024 143.62 78.949C147.89 83.708 155.578 89.6877 155.578 89.6877C155.578 89.6877 147.768 87.0027 144.473 82.4871ZM166.071 98.8395L160.459 94.0808L159.97 92.4938L169.245 97.9849L166.071 98.8395ZM172.906 92.6163C172.051 92.6163 169.977 92.7372 169.977 92.7372V94.2013C169.977 94.2013 163.265 89.8086 160.703 88.1007C158.181 86.4205 155.067 82.9633 154.97 82.8551C157.291 83.9551 168.149 91.1522 173.638 91.3953C173.638 91.3953 173.759 92.6163 172.906 92.6163Z" fill="white"/>
<path d="M112.451 64.1031C114.194 65.4117 116.801 65.2276 118.47 64.0917L118.198 65.9982C116.199 66.8853 113.617 66.1177 112.451 64.1031Z" fill="white"/>
<path d="M106.65 149.837C107.765 149.837 107.926 149.609 107.926 148.265V143.899C107.926 142.556 107.765 142.341 106.65 142.341V142.058H112.776L112.897 143.832H112.615L112.548 143.563C112.36 142.864 112.226 142.556 110.99 142.556H109.001V145.605H109.673C111.017 145.605 111.232 145.444 111.232 144.315H111.514V147.392H111.232C111.232 146.263 111.017 146.102 109.673 146.102H109.001V148.063C109.001 149.407 109.162 149.622 110.278 149.622H111.433C112.669 149.622 112.817 149.313 112.992 148.601L113.059 148.332H113.341L113.233 150.119H106.65V149.837Z" fill="white"/>
<path d="M116.368 150.347H116.099V147.391H116.368C116.368 147.391 116.394 149.81 118.853 149.81C119.807 149.81 120.532 149.192 120.532 148.332C120.532 147.714 119.914 147.19 118.987 146.706L117.698 146.048C116.918 145.645 116.206 144.852 116.206 143.831C116.206 142.717 117.133 141.83 118.436 141.83C119.229 141.83 119.672 142.085 120.076 142.381C120.237 142.246 120.398 142.044 120.465 141.763H120.734V144.718H120.451C120.358 143.643 119.954 142.367 118.396 142.367C117.644 142.367 117.093 142.891 117.093 143.563C117.093 144.262 117.563 144.624 118.718 145.229L120.008 145.887C121.043 146.411 121.405 147.19 121.405 147.929C121.405 149.393 120.237 150.347 118.853 150.347C117.832 150.347 117.187 149.81 116.757 149.716C116.596 149.85 116.435 150.051 116.368 150.347Z" fill="white"/>
<path d="M130.84 143.872H130.558L130.491 143.603C130.303 142.891 130.169 142.582 128.933 142.582H127.476V148.265C127.476 149.609 127.65 149.837 128.766 149.837V150.119H125.125V149.837C126.24 149.837 126.414 149.609 126.414 148.265V142.582H124.957C123.722 142.582 123.588 142.891 123.399 143.603L123.332 143.872H123.05L123.171 142.058H130.719L130.84 143.872Z" fill="white"/>
<path d="M135.485 150.227C135.068 150.227 134.746 149.904 134.746 149.528C134.746 149.139 135.068 148.816 135.485 148.816C135.901 148.816 136.25 149.139 136.25 149.528C136.25 149.904 135.901 150.227 135.485 150.227Z" fill="white"/>
<path d="M132.935 146.331C133.688 146.331 133.808 146.157 133.808 145.203V143.484C133.808 142.53 133.688 142.368 132.935 142.368V142.113H135.34C137.261 142.113 138.094 143.121 138.094 144.343C138.094 145.566 137.261 146.587 135.34 146.587H132.935V146.331ZM135.38 142.516H134.736V145.431C134.736 146.049 134.803 146.171 135.286 146.171H135.38C136.778 146.171 137.033 145.15 137.033 144.33C137.033 143.537 136.778 142.516 135.38 142.516Z" fill="white"/>
<path d="M155.741 148.006C155.741 149.349 154.519 150.356 153.028 150.356C151.536 150.356 150.327 149.362 150.327 148.113C150.327 146.729 151.308 146.138 152.289 145.722C151.483 145.225 150.784 144.687 150.784 143.773C150.784 142.658 151.805 141.839 153.028 141.839C154.264 141.839 155.284 142.672 155.284 143.666C155.284 144.606 154.465 145.117 153.565 145.533C154.626 146.071 155.741 146.622 155.741 148.006ZM151.402 148.113C151.402 148.932 151.913 149.833 153.028 149.833C154.143 149.833 154.653 148.932 154.653 148.22C154.653 147.119 153.74 146.541 152.719 145.963C151.939 146.407 151.402 147.132 151.402 148.113ZM154.196 143.558C154.196 143.035 153.887 142.363 153.028 142.363C152.168 142.363 151.872 143.035 151.872 143.558C151.872 144.432 152.396 144.902 153.149 145.319C153.807 144.956 154.196 144.297 154.196 143.558Z" fill="white"/>
<path d="M158.492 142.064L158.109 144.307H158.391L158.458 144.039C158.633 143.313 158.781 143.018 160.017 143.018H162.207L159.009 149.682C158.768 150.165 159.023 150.433 159.224 150.487C159.614 150.595 159.922 150.299 160.097 149.856L163.052 142.44V142.064H158.492Z" fill="white"/>
<path d="M165.89 142.064L165.507 144.307H165.789L165.856 144.039C166.031 143.313 166.179 143.018 167.415 143.018H169.605L166.407 149.682C166.165 150.165 166.42 150.433 166.622 150.487C167.012 150.595 167.319 150.299 167.494 149.856L170.45 142.44V142.064H165.89Z" fill="white"/>
<path d="M103.469 145.388V146.732L96.1333 146.06L103.469 145.388Z" fill="white"/>
<path d="M172.76 146.733V145.388L180.096 146.06L172.76 146.733Z" fill="white"/>
<path d="M146.56 141.895V148.265C146.56 149.609 146.734 149.837 147.849 149.837V150.119H144.238V149.837C145.353 149.837 145.528 149.609 145.528 148.265V144.03C145.526 143.756 145.517 143.516 145.488 143.347C145.436 143.043 145.327 142.848 145.16 142.764C144.993 142.679 144.706 142.637 144.3 142.637L144.305 142.369L146.56 141.895Z" fill="white"/>
<path d="M89.5198 134.362C86.9996 136.645 84.7421 136.896 81.9019 136.361C84.5925 134.233 86.1518 131.165 85.4018 128.007L82.5857 116.144C81.4267 111.262 75.4414 109.05 69.9116 110.363C64.3813 111.676 60.0294 116.342 61.1881 121.224L64.0045 133.087C64.7989 136.433 67.8611 138.524 71.4898 139.086C71.8962 140.82 72.1648 141.963 72.6022 143.829C75.0001 141.132 77.5499 141.173 81.4857 141.897C85.0589 142.556 87.847 143.329 90.4128 140.255C90.0651 138.176 89.8675 136.441 89.5198 134.362ZM70.4096 128.943L68.7724 122.046L68.0987 119.208C67.6707 117.406 69.0683 115.899 71.1107 115.414C73.153 114.929 75.0787 115.647 75.5066 117.45L76.1804 120.288L77.8175 127.184L78.4913 130.022C78.9192 131.825 77.5216 133.332 75.4793 133.817C73.4369 134.301 71.5113 133.584 71.0833 131.781L70.4096 128.943Z" fill="white"/>
<path d="M137.275 130.612C137.275 130.612 133.702 109.657 133.131 106.232C133.327 105.584 133.524 104.937 133.722 104.29C127.825 104.347 121.665 104.538 115.776 104.929C116.019 105.56 116.26 106.19 116.5 106.821C116.373 107.998 114.393 129.641 114.236 131.54C114.042 132.207 113.85 132.841 113.66 133.509C116.156 133.306 118.72 133.17 121.219 133.034C121.255 132.599 121.467 130.22 121.746 127.115C122.956 127.437 124.227 127.583 125.516 127.53C126.872 127.475 128.188 127.206 129.414 126.75C129.953 129.892 130.371 132.329 130.435 132.728C132.94 132.674 135.628 132.636 138.134 132.649C137.888 131.98 137.275 130.612 137.275 130.612ZM125.287 121.905C124.219 121.948 123.178 121.7 122.281 121.213C122.696 116.64 123.121 112.037 123.321 110.038C123.34 110.037 123.36 110.036 123.379 110.035C124.467 109.988 125.433 109.947 126.522 109.911C126.541 109.91 126.544 109.91 126.563 109.909C126.535 109.91 127.453 115.303 128.403 120.852C127.516 121.483 126.434 121.859 125.287 121.905Z" fill="white"/>
<path d="M101.386 135.214C96.1786 135.857 90.7285 133.088 89.8735 128.024C88.9098 122.075 87.9459 116.127 86.9825 110.178C86.6768 109.574 86.3707 108.97 86.063 108.367C88.8732 107.906 91.4821 107.491 94.3011 107.107C94.202 107.772 94.104 108.436 94.0075 109.101C94.9174 115.094 95.9314 120.664 96.8783 126.734C97.1414 128.613 98.7085 129.697 100.676 129.451C102.642 129.204 103.886 127.888 103.677 126.002C103.095 120.03 102.563 114.164 102.02 108.047C101.773 107.437 101.525 106.828 101.276 106.219C104.094 105.897 106.783 105.646 109.608 105.401C109.456 106.061 109.306 106.722 109.157 107.383C109.691 113.386 110.225 119.405 110.758 125.407C111.179 130.526 106.593 134.552 101.386 135.214Z" fill="white"/>
<path d="M210.263 122.774C211.292 117.965 207.728 112.911 200.861 111.125C196.641 110.027 193.834 109.399 190.301 108.735C190.405 109.411 190.508 110.087 190.609 110.763C189.091 118.751 187.641 126.602 186.123 134.59C185.791 135.22 185.461 135.851 185.132 136.482C187.677 136.96 190.534 137.569 193.154 138.172C193.113 137.481 193.072 136.789 193.029 136.098L194.283 129.736C194.283 129.736 195.624 130.031 196.485 130.224C196.756 130.284 197.027 130.336 197.296 130.379C197.836 131.724 198.788 137.593 198.788 137.593C198.788 137.593 198.89 138.918 198.942 139.616C201.79 140.379 204.918 141.366 207.711 142.279C207.299 141.475 206.33 139.479 206.33 139.479L203.993 129.69C206.38 129.015 209.195 127.763 210.263 122.774ZM203.145 121.707C202.819 123.248 202.125 123.935 201.104 124.461C200.081 124.986 198.871 125.127 197.685 124.862C196.807 124.665 196.179 124.526 195.299 124.338L196.92 115.651C196.92 115.651 198.517 116.053 199.695 116.335C200.872 116.615 202.004 117.264 202.712 118.196C203.419 119.128 203.47 120.165 203.145 121.707Z" fill="white"/>
<path d="M185.101 114.009C185.413 112.059 185.724 110.009 186.036 108.059C180.086 107.109 174.115 106.331 168.131 105.727C168.239 106.386 168.345 107.045 168.451 107.705C167.619 115.807 166.787 124.007 165.955 132.109C165.705 132.754 165.457 133.252 165.21 133.897C170.674 134.448 176.524 135.125 181.958 135.993C182.269 134.044 182.552 132.275 182.863 130.326C181.914 130.359 180.967 130.398 180.021 130.441C177.849 130.116 173.368 129.571 173.368 129.571L173.984 123.665L180.463 124.572L181.3 118.982L174.584 118.054L175.173 111.98C175.173 111.98 179.848 112.537 182.34 112.957C183.263 113.276 184.183 113.681 185.101 114.009Z" fill="white"/>
<path d="M165.235 105.47C162.453 105.172 159.515 104.991 156.512 104.807C156.627 105.364 156.742 105.922 156.855 106.479C156.842 106.53 156.83 106.581 156.814 106.634C156.72 106.954 156.614 107.314 156.498 107.708C156.363 108.093 156.192 108.499 156.03 108.94C155.834 109.362 155.623 109.806 155.391 110.258C155.262 110.477 155.131 110.699 154.999 110.923C154.931 111.035 154.871 111.153 154.797 111.262L154.569 111.586C154.413 111.801 154.268 112.028 154.105 112.241L153.591 112.863C153.428 113.081 153.23 113.26 153.047 113.455C152.859 113.644 152.686 113.852 152.482 114.016C152.285 114.19 152.09 114.364 151.898 114.536C151.695 114.689 151.494 114.842 151.296 114.992C151.103 115.152 150.897 115.272 150.698 115.399C150.499 115.52 150.31 115.666 150.113 115.757C149.919 115.86 149.731 115.961 149.548 116.059C149.365 116.147 149.186 116.212 149.016 116.29C148.93 116.327 148.847 116.364 148.765 116.4C148.683 116.43 148.605 116.451 148.528 116.476C148.374 116.527 148.228 116.576 148.091 116.621C148.06 116.629 148.034 116.635 148.006 116.642L148.095 106.381C148.326 105.744 148.559 105.108 148.792 104.472C145.938 104.358 143.396 104.35 140.54 104.315C140.711 104.945 140.88 105.575 141.048 106.205C140.933 114.38 140.819 122.505 140.704 130.68C140.509 131.331 140.282 132.014 140.088 132.666C142.638 132.703 145.607 132.745 148.303 132.833C148.164 132.146 148.024 131.46 147.883 130.773L147.951 123.003L147.96 123.003C148.39 122.951 148.954 122.884 149.528 122.771C149.782 122.707 150.052 122.64 150.337 122.569C150.478 122.531 150.627 122.496 150.772 122.453C150.914 122.404 151.059 122.354 151.208 122.303C151.272 122.279 151.34 122.256 151.407 122.232C152.289 125.156 154.531 132.597 154.67 133.142C157.592 133.279 160.588 133.499 163.459 133.767C163.012 133.055 162.106 131.717 162.106 131.717L157.302 118.764C157.452 118.629 157.6 118.492 157.751 118.356C158.042 118.087 158.348 117.828 158.611 117.532C158.882 117.242 159.154 116.952 159.424 116.664C159.684 116.366 159.923 116.054 160.169 115.751C160.29 115.598 160.411 115.445 160.531 115.294C160.649 115.141 160.751 114.978 160.861 114.822C161.074 114.505 161.286 114.192 161.493 113.885C161.877 113.252 162.228 112.626 162.546 112.026C162.83 111.413 163.11 110.834 163.338 110.289C163.541 109.735 163.727 109.228 163.892 108.779C164.056 108.328 164.143 107.923 164.242 107.594C164.304 107.364 164.357 107.171 164.4 107.013L165.235 105.47Z" fill="white"/>
<path d="M209.444 138.834V138.332H213.031V138.834H211.536V142.816H210.939V138.834H209.444Z" fill="white"/>
<path d="M214.356 138.332L215.769 142.1L217.188 138.332H218.005V142.816H217.44V139.085H217.427L216.027 142.816H215.517L214.117 139.085H214.104V142.816H213.539V138.332H214.356Z" fill="white"/>
</g>
</svg>
