<svg width="174" height="162" viewBox="0 0 174 162" fill="none" xmlns="http://www.w3.org/2000/svg">
<g clip-path="url(#clip0_211_134)">
<mask id="mask0_211_134" style="mask-type:alpha" maskUnits="userSpaceOnUse" x="-53" y="0" width="280" height="162">
<path d="M227 0H-53V162H227V0Z" fill="#D9D9D9"/>
</mask>
<g mask="url(#mask0_211_134)">
<path d="M15.3882 52.5073H12.5993V67.1666C12.5993 69.3983 11.3216 70.6788 9.0843 70.6788H1.8377C1.1116 70.6788 0.5066 70.5353 0 70.2876C0.5263 71.3711 1.5816 71.9621 3.1182 71.9621H9.9989C12.2334 71.9621 13.8854 70.3129 13.8854 68.0812V53.7906H16.0298L15.3882 52.5073Z" fill="#1C1B1A"/>
<path d="M13.9472 33.4973H21.9312C22.6263 33.4973 23.2876 33.714 23.8617 34.0629C23.2004 32.9823 21.9818 32.214 20.6479 32.214H12.6611V39.7617H13.9472V33.4973Z" fill="#1C1B1A"/>
<path d="M31.6686 50.8047C36.3486 47.6978 39.8411 42.7673 39.8411 36.7899C39.8411 32.1408 38.0456 28.1193 34.9837 25.0377C34.8543 24.9054 34.7924 24.9589 34.9049 25.1052C37.2464 28.0151 38.6619 31.6905 38.6619 35.6923C38.6619 41.6557 35.3496 47.0956 29.8928 50.3179L37.7304 64.8393C39.2248 67.4565 39.3233 68.3908 38.6619 69.4602C38.13 70.3214 36.7961 70.6788 34.964 70.6788L26.4369 70.676C25.8263 70.676 25.3478 70.5437 24.9595 70.3495C25.2944 70.9968 26.0289 71.9621 27.723 71.9621H35.6479C37.8514 71.9621 39.5484 71.4921 40.3111 70.2201C41.2088 68.7116 40.5925 67.0906 39.0475 64.0372L31.6686 50.8047Z" fill="#1C1B1A"/>
<path d="M15.3882 122.399H12.5993V137.058C12.5993 139.29 11.3216 140.567 9.0843 140.567H1.8377C1.1116 140.567 0.5066 140.427 0 140.179C0.5263 141.262 1.5816 141.851 3.1182 141.851H9.9989C12.2334 141.851 13.8854 140.204 13.8854 137.973V123.682H16.0298L15.3882 122.399Z" fill="#1C1B1A"/>
<path d="M13.9472 103.389H21.9312C22.6263 103.389 23.2876 103.605 23.8617 103.954C23.2004 102.871 21.9818 102.105 20.6479 102.105H12.6611V109.653H13.9472V103.389Z" fill="#1C1B1A"/>
<path d="M31.6686 120.693C36.3486 117.589 39.8411 112.659 39.8411 106.681C39.8411 102.032 38.0456 98.0077 34.9837 94.929C34.8543 94.7939 34.7924 94.8502 34.9049 94.9937C37.2464 97.9064 38.6619 101.579 38.6619 105.581C38.6619 111.544 35.3496 116.987 29.8928 120.209L37.7304 134.731C39.2248 137.345 39.3233 138.279 38.6619 139.349C38.13 140.21 36.7961 140.567 34.964 140.567H26.4369C25.8263 140.567 25.3478 140.432 24.9595 140.238C25.2944 140.888 26.0289 141.851 27.723 141.851L35.6479 141.853C37.8514 141.853 39.5484 141.381 40.3111 140.109C41.2088 138.6 40.5925 136.979 39.0475 133.926L31.6686 120.693Z" fill="#1C1B1A"/>
<path d="M121.082 27.7759C121.124 29.1887 120.165 30.1455 119.588 30.7168L115.541 34.8987C115.071 35.4363 114.207 36.3846 112.769 36.4606C111.736 36.5141 111.497 36.1454 109.791 34.8593C107.391 33.0245 104.577 31.8819 101.605 31.8819C94.899 31.8819 89.642 37.4287 89.642 44.5093C89.642 48.1622 91.082 51.3985 93.41 53.664C93.531 53.7822 93.615 53.7259 93.511 53.5936C91.893 51.4717 90.925 48.7729 90.925 45.7926C90.925 38.712 96.179 33.1652 102.888 33.1652C105.863 33.1652 108.776 34.2937 111.055 36.289C111.736 36.804 112.659 37.7608 113.971 37.7608C115.409 37.7608 116.354 36.7195 116.827 36.182L120.874 32.0029C121.448 31.4288 122.408 30.4691 122.368 29.0592C122.323 27.6268 121.273 26.6953 120.626 26.1184C120.545 26.0424 120.508 26.0846 120.57 26.1831C120.857 26.6277 121.065 27.1512 121.082 27.7759Z" fill="#1C1B1A"/>
<path d="M120.837 59.5457C120.739 59.4331 120.621 59.4838 120.705 59.6301C120.913 60.0213 121.068 60.4744 121.091 60.9894C121.136 62.4584 120.094 63.4997 119.54 64.0625C114.621 68.8355 108.365 71.3401 101.405 71.3401C95.293 71.3401 89.647 69.2801 85.136 65.8271C84.911 65.6554 84.818 65.7933 85.012 65.9622C89.729 70.1047 95.819 72.508 102.59 72.508C109.547 72.508 115.946 69.9949 120.756 65.1911C121.321 64.6338 122.346 63.6911 122.295 62.222C122.256 60.8543 121.307 59.9538 120.837 59.5457Z" fill="#1C1B1A"/>
<path d="M63.731 20.2788C63.987 20.7854 64.128 21.3932 64.128 22.1109V67.1554C64.128 69.387 62.85 70.6647 60.621 70.6647H53.304C52.589 70.6647 51.982 70.5184 51.472 70.2651C52.007 71.3457 53.071 71.948 54.588 71.948H61.533C63.762 71.948 65.414 70.2988 65.414 68.0672V23.3913C65.414 21.8773 64.806 20.8107 63.731 20.2788Z" fill="#1C1B1A"/>
<path d="M144.105 57.0692H145.389V52.3948H159.15C161.41 52.3948 163.028 50.7823 163.028 48.5168V42.2355C163.028 40.7186 162.423 39.6548 161.348 39.1229C161.598 39.6323 161.745 40.2345 161.745 40.9494V47.6022C161.745 49.8676 160.495 51.1143 158.235 51.1143H144.105V57.0692Z" fill="#1C1B1A"/>
<path d="M164.604 58.7408C164.852 59.2502 164.992 59.8553 164.992 60.5785V67.1666C164.992 69.4293 163.749 70.676 161.483 70.676H133.344C132.623 70.676 132.015 70.5353 131.509 70.2904C132.038 71.3711 133.093 71.9564 134.627 71.9564H162.395C164.66 71.9564 166.276 70.3411 166.276 68.0813V61.8618C166.276 60.3224 165.688 59.2671 164.604 58.7408Z" fill="#1C1B1A"/>
<path d="M164.604 20.2788C164.852 20.7854 164.992 21.3932 164.992 22.1137V28.7018C164.992 30.9672 163.749 32.2139 161.483 32.2139H144.105V37.4428H145.389V33.4972H162.395C164.66 33.4972 166.276 31.8819 166.276 29.6164V23.3998C166.276 21.8604 165.688 20.8051 164.604 20.2788Z" fill="#1C1B1A"/>
<path d="M91.471 86.7143L85.662 74.2275H81.365L75.559 86.7143C75.424 87.0069 75.601 87.3024 75.942 87.3024H78.427C78.88 87.3024 79.125 87.0294 79.24 86.7593L80.056 84.9526H86.203L87.016 86.7368C87.216 87.1673 87.396 87.3024 87.804 87.3024H91.088C91.429 87.3024 91.606 87.0069 91.471 86.7143ZM81.407 81.8794L83.104 78.1506H83.127L84.843 81.8794H81.407Z" fill="#1C1B1A"/>
<path d="M164.047 89.1936C164.303 89.7058 164.446 90.308 164.446 91.0229V136.07C164.446 138.302 163.169 139.579 160.934 139.579H153.62C152.902 139.579 152.297 139.439 151.788 139.186C152.326 140.261 153.389 140.866 154.903 140.866H161.849C164.078 140.866 165.73 139.214 165.73 136.985V92.3061C165.73 90.7893 165.127 89.7283 164.047 89.1936Z" fill="#1C1B1A"/>
<path d="M60.171 122.376C58.73 120.482 57.869 118.124 57.869 115.566C57.869 109.273 62.932 104.157 69.151 104.157C71.678 104.157 74.039 105.04 75.95 106.507C76.113 106.633 76.159 106.591 76.018 106.445C73.941 104.261 71.031 102.874 67.868 102.874C61.648 102.874 56.588 107.99 56.588 114.282C56.588 117.479 57.925 120.37 60.072 122.424C60.233 122.576 60.3 122.545 60.171 122.376Z" fill="#1C1B1A"/>
<path d="M87.964 97.6166C91.71 102.145 93.964 107.953 93.964 114.282C93.964 128.88 82.502 140.314 67.865 140.314C61.564 140.314 55.851 138.178 51.391 134.576C51.23 134.444 51.163 134.539 51.315 134.683C55.947 138.991 62.186 141.597 69.151 141.597C83.788 141.597 95.248 130.163 95.248 115.566C95.248 108.578 92.498 102.226 88.032 97.5322C87.891 97.3802 87.829 97.4562 87.964 97.6166Z" fill="#1C1B1A"/>
<path d="M113.495 115.084V134.773C113.495 137.241 112.079 138.656 109.617 138.656H102.691C101.867 138.656 101.169 138.476 100.581 138.161C101.194 139.295 102.362 139.94 103.972 139.94H110.523C112.994 139.94 114.778 138.153 114.778 135.687V116.438L113.495 115.084Z" fill="#1C1B1A"/>
<path d="M142.324 89.506C142.636 90.0857 142.816 90.7864 142.816 91.611V135.474C142.816 137.86 141.364 139.287 138.936 139.287H136.501L137.723 140.57H139.847C142.276 140.57 144.1 138.775 144.1 136.388V92.8943C144.1 91.2874 143.452 90.1195 142.324 89.506Z" fill="#1C1B1A"/>
<path d="M26.4397 68.6216C25.5251 68.6216 25.5138 68.0926 25.269 67.6001L16.6575 50.453H10.545V67.1667C10.545 68.2502 10.1735 68.6216 9.08721 68.6216H1.84061C0.71771 68.6216 0.382812 68.2868 0.382812 67.1667V22.1813C0.382812 21.0612 0.779612 20.6616 1.90251 20.6616H21.3797C29.7746 20.6616 36.6047 27.4045 36.6047 35.6924C36.6047 41.5769 32.9856 46.7889 27.0983 49.4624L35.7858 65.5626C36.146 66.238 36.8777 67.2708 36.4133 67.9941C35.9574 68.7004 35.3299 68.6216 34.5531 68.6216H26.4397ZM20.648 41.8162C23.7915 41.8162 26.4454 39.0723 26.4454 35.8219C26.4454 32.7543 23.7915 30.1596 20.648 30.1596H10.6125V41.8162H20.648Z" fill="white"/>
<path d="M118.071 62.6273C118.482 62.2108 119.056 61.6423 119.036 61.057C119.016 60.5392 118.473 60.041 118.141 59.754L114.021 55.5045C113.675 55.1527 113.216 54.6912 112.701 54.6912C112.212 54.6912 111.688 55.1358 111.331 55.4482C108.379 57.8431 105.125 59.0589 101.672 59.0589C93.778 59.0589 87.59 52.665 87.59 44.5121C87.59 36.2777 93.747 29.8275 101.605 29.8275C105.094 29.8275 108.629 31.184 111.277 33.517C111.68 33.9166 112.189 34.4231 112.684 34.4231C113.205 34.4231 113.683 33.9053 114.027 33.5057L118.071 29.3378C118.479 28.9242 119.047 28.3923 119.03 27.835C119.016 27.2778 118.408 26.7544 117.972 26.3632C113.07 21.9618 107.959 20.0002 101.405 20.0002C87.787 20.0002 76.702 31.0827 76.702 44.7063C76.702 58.2568 87.787 69.283 101.405 69.283C107.819 69.283 113.579 66.9865 118.071 62.6273Z" fill="white"/>
<path d="M51.843 21.1719C51.843 20.8858 52.074 20.6539 52.361 20.6539H61.561C61.846 20.6539 62.078 20.8854 62.078 21.1709V68.096C62.078 68.382 61.846 68.6139 61.56 68.6139H52.36C52.074 68.6139 51.843 68.3825 51.843 68.097V21.1719Z" fill="white"/>
<path d="M161.483 68.6216C162.603 68.6216 162.941 68.2839 162.941 67.1667V60.5786C162.941 59.4613 162.603 59.1208 161.483 59.1208H142.048V49.06H158.236C159.353 49.06 159.685 48.7223 159.685 47.6022V40.9494C159.685 39.8687 159.316 39.4972 158.236 39.4972H142.048V30.1596H161.483C162.603 30.1596 162.941 29.8247 162.941 28.7019V22.1166C162.941 20.9965 162.603 20.6616 161.483 20.6616H133.344C132.226 20.6616 131.892 20.9965 131.892 22.1166V67.1667C131.892 68.2839 132.226 68.6216 133.344 68.6216H161.483Z" fill="white"/>
<path d="M89.78 85.794L83.971 73.3073H80.448L74.636 85.794C74.507 86.0895 74.684 86.3821 75.022 86.3821H77.507C77.957 86.3821 78.207 86.112 78.317 85.839L79.133 84.0323H85.277L86.093 85.8165C86.296 86.2471 86.478 86.3821 86.887 86.3821H89.394C89.732 86.3821 89.915 86.0895 89.78 85.794ZM80.49 80.9591L82.187 77.2303H82.206L83.926 80.9591H80.49Z" fill="white"/>
<path d="M152.161 90.0848C152.161 89.7987 152.393 89.5668 152.679 89.5668H161.873C162.159 89.5668 162.391 89.7987 162.391 90.0848V137.009C162.391 137.295 162.159 137.527 161.873 137.527H152.679C152.393 137.527 152.161 137.295 152.161 137.009V90.0848Z" fill="white"/>
<path d="M67.868 138.26C54.421 138.26 43.8877 127.726 43.8877 114.282C43.8877 100.988 54.646 90.173 67.868 90.173C81.126 90.173 91.912 100.988 91.912 114.282C91.912 127.726 81.351 138.26 67.868 138.26ZM67.868 100.819C60.517 100.819 54.531 106.859 54.531 114.282C54.531 121.633 60.517 127.619 67.868 127.619C75.255 127.619 81.272 121.633 81.272 114.282C81.272 106.982 75.131 100.819 67.868 100.819Z" fill="white"/>
<path d="M138.935 137.235C140.236 137.235 140.762 136.74 140.762 135.474V91.611C140.762 90.3108 140.236 89.7846 138.935 89.7846H131.945C130.622 89.7846 130.116 90.2855 130.116 91.611V115.442L104.329 89.1458H104.008H102.691C101.385 89.1458 100.856 89.6439 100.856 90.9131V134.776C100.856 136.079 101.385 136.602 102.691 136.602H109.617C110.937 136.602 111.44 136.101 111.44 134.776V109.932L137.323 137.235H137.672H138.935Z" fill="white"/>
<path d="M26.4451 138.513C25.5248 138.513 25.5136 137.984 25.2687 137.491L16.6572 120.344H10.5447V137.058C10.5447 138.139 10.1732 138.513 9.09259 138.513H1.84029C0.723086 138.513 0.388184 138.178 0.388184 137.058V92.0697C0.388184 90.9497 0.779384 90.5529 1.90218 90.5529H21.3795C29.7743 90.5529 36.6045 97.2957 36.6045 105.581C36.6045 111.468 32.9854 116.677 27.1008 119.354L35.7855 135.454C36.1457 136.129 36.8774 137.162 36.4131 137.882C35.9572 138.592 35.3296 138.513 34.5585 138.513H26.4451ZM20.6478 111.707C23.7913 111.707 26.4451 108.964 26.4451 105.716C26.4451 102.646 23.7913 100.051 20.6478 100.051H10.6123V111.707H20.6478Z" fill="white"/>
<path d="M168.675 131.263V128.905H169.871C169.967 128.905 170.071 128.932 170.184 128.988C170.297 129.041 170.393 129.124 170.472 129.237C170.553 129.348 170.593 129.489 170.593 129.659C170.593 129.832 170.551 129.979 170.468 130.1C170.385 130.219 170.284 130.31 170.165 130.372C170.048 130.433 169.937 130.464 169.832 130.464H168.969V130.081H169.673C169.743 130.081 169.818 130.046 169.899 129.975C169.983 129.905 170.024 129.8 170.024 129.659C170.024 129.514 169.983 129.416 169.899 129.365C169.818 129.314 169.747 129.288 169.685 129.288H169.193V131.263H168.675ZM170.101 130.151L170.689 131.263H170.12L169.545 130.151H170.101ZM169.57 132.67C169.217 132.67 168.885 132.604 168.576 132.471C168.267 132.339 167.996 132.156 167.761 131.922C167.527 131.687 167.344 131.416 167.212 131.107C167.08 130.798 167.013 130.466 167.013 130.113C167.013 129.759 167.08 129.428 167.212 129.119C167.344 128.81 167.527 128.538 167.761 128.304C167.996 128.069 168.267 127.886 168.576 127.754C168.885 127.622 169.217 127.556 169.57 127.556C169.924 127.556 170.255 127.622 170.564 127.754C170.873 127.886 171.145 128.069 171.379 128.304C171.614 128.538 171.797 128.81 171.929 129.119C172.061 129.428 172.127 129.759 172.127 130.113C172.127 130.466 172.061 130.798 171.929 131.107C171.797 131.416 171.614 131.687 171.379 131.922C171.145 132.156 170.873 132.339 170.564 132.471C170.255 132.604 169.924 132.67 169.57 132.67ZM169.57 132.056C169.928 132.056 170.254 131.969 170.548 131.794C170.842 131.619 171.077 131.385 171.251 131.091C171.426 130.797 171.513 130.471 171.513 130.113C171.513 129.755 171.426 129.429 171.251 129.135C171.077 128.841 170.842 128.606 170.548 128.432C170.254 128.257 169.928 128.17 169.57 128.17C169.212 128.17 168.886 128.257 168.592 128.432C168.298 128.606 168.064 128.841 167.889 129.135C167.714 129.429 167.627 129.755 167.627 130.113C167.627 130.471 167.714 130.797 167.889 131.091C168.064 131.385 168.298 131.619 168.592 131.794C168.886 131.969 169.212 132.056 169.57 132.056Z" fill="white"/>
</g>
</g>
<defs>
<clipPath id="clip0_211_134">
<rect width="174" height="162" fill="white"/>
</clipPath>
</defs>
</svg>
