<svg xmlns="http://www.w3.org/2000/svg" width="24" height="20" fill="none" viewBox="0 0 18 18"><path fill="#71717A" d="M10.1789 0.303827C10.3908 0.222937 10.7323 0.113158 10.9443 0.0669357C11.1975 0.00915725 11.539 -0.00817629 11.9453 0.0033794C12.3986 0.0207129 12.6871 0.0669357 13.0345 0.176715C13.2936 0.257605 13.6704 0.419384 13.8706 0.540719C14.0767 0.662054 14.3946 0.893167 14.5772 1.05495C14.7656 1.21673 15.0541 1.54029 15.219 1.77718C15.3838 2.01407 15.584 2.36074 15.6664 2.55141C15.7489 2.74208 15.8666 3.11764 15.9196 3.3892C15.9962 3.74164 16.0138 4.02476 15.9903 4.40032C15.9726 4.7181 15.902 5.09944 15.8078 5.38255C15.7253 5.63678 15.5605 6.01234 15.4368 6.22034C15.2602 6.52657 14.5065 7.29502 11.4742 10.2706C8.36539 13.3329 7.6765 13.98 7.3821 14.1302C7.1878 14.2284 6.88751 14.3498 6.72265 14.396C6.5519 14.4422 6.21629 14.4827 5.98666 14.4827C5.75114 14.4827 5.40964 14.4422 5.233 14.3902C5.05636 14.3382 4.81495 14.2458 4.70308 14.1764C4.59121 14.1071 4.39691 13.9742 4.27326 13.8818C4.14962 13.7835 3.94943 13.5582 3.82578 13.3849C3.70802 13.2115 3.54316 12.9226 3.46661 12.7493C3.37241 12.5297 3.3253 12.2755 3.30175 11.9115C3.28409 11.536 3.30175 11.2991 3.36652 11.0737C3.41951 10.9004 3.53138 10.6288 3.6197 10.4671C3.73157 10.2648 4.66776 9.30571 6.78742 7.21991C9.30157 4.75277 9.83738 4.25009 10.0317 4.19809C10.1612 4.15765 10.3614 4.14032 10.4733 4.15765C10.5851 4.17498 10.7618 4.26743 10.8619 4.3541C10.962 4.44076 11.0797 4.61988 11.1209 4.74699C11.1622 4.88566 11.1798 5.07055 11.1504 5.20922C11.1151 5.41722 10.8442 5.70033 8.17697 8.32925C6.56368 9.91816 5.19767 11.3106 5.14468 11.4204C5.07795 11.5552 5.05243 11.7093 5.06814 11.8826C5.07991 12.0271 5.15057 12.2293 5.22122 12.3333C5.29188 12.4315 5.45674 12.5702 5.58628 12.6337C5.71581 12.6973 5.916 12.7493 6.02787 12.7493C6.13974 12.7493 6.32227 12.7089 6.42825 12.6626C6.52835 12.6164 8.22408 10.9928 10.2142 9.03993C13.4644 5.839 13.8235 5.46344 13.9648 5.15144C14.0531 4.96077 14.1474 4.64877 14.1827 4.4581C14.2219 4.22698 14.2219 3.99587 14.1827 3.76476C14.1474 3.57409 14.059 3.29097 13.9884 3.12919C13.9118 2.97319 13.7116 2.70163 13.5468 2.53985C13.3466 2.34341 13.0816 2.15852 12.7872 2.01985C12.3515 1.81184 12.2985 1.80029 11.7392 1.80029C11.2152 1.80029 11.1092 1.8234 10.7677 1.96785C10.4085 2.12963 10.1318 2.38963 6.65788 5.78122C4.60299 7.78614 2.81305 9.57149 2.67763 9.74482C2.53632 9.91816 2.35968 10.1782 2.27136 10.3226C2.18893 10.4671 2.05351 10.7848 1.97107 11.0333C1.88275 11.2933 1.80032 11.6862 1.78266 11.9866C1.75322 12.3506 1.77088 12.628 1.84154 12.9804C1.90042 13.2751 2.02995 13.6564 2.17126 13.9338C2.29491 14.188 2.52454 14.5462 2.67174 14.7311C2.81894 14.9102 3.08978 15.176 3.2782 15.3204C3.46073 15.4649 3.74923 15.6613 3.90821 15.7538C4.07307 15.8462 4.40869 15.9849 4.66187 16.0658C4.92683 16.1525 5.32721 16.2333 5.63338 16.2507C6.00432 16.2796 6.28105 16.2622 6.64611 16.1929C6.92284 16.1409 7.30556 16.0253 7.49986 15.9329C7.69416 15.8462 7.98856 15.6902 8.14753 15.5862C8.30651 15.4764 9.80794 14.0551 11.4742 12.4257C13.9884 9.97016 14.5477 9.45593 14.742 9.39815C14.8716 9.35771 15.0718 9.34038 15.1836 9.35771C15.2955 9.37504 15.4721 9.46749 15.5722 9.55416C15.6723 9.64082 15.7901 9.81994 15.8313 9.94705C15.8725 10.0857 15.8902 10.2706 15.8666 10.4093C15.8254 10.6231 15.5546 10.9004 12.7225 13.6795C10.1494 16.1987 9.53709 16.7707 9.11905 17.0365C8.84231 17.2098 8.43016 17.4294 8.20641 17.5276C7.98267 17.6258 7.57051 17.7645 7.29378 17.8338C7.01705 17.9031 6.52246 17.9783 6.17507 17.9898C5.81591 18.0129 5.34487 17.9956 5.05636 17.9494C4.77963 17.9147 4.34392 17.8165 4.08485 17.7356C3.82578 17.6547 3.4254 17.4987 3.20166 17.3774C2.97791 17.2618 2.63052 17.048 2.43622 16.9094C2.24192 16.7707 1.90042 16.476 1.67668 16.2507C1.45293 16.0253 1.13499 15.6324 0.964235 15.3782C0.799372 15.124 0.581518 14.7369 0.481423 14.5115C0.381328 14.2862 0.240017 13.8875 0.169361 13.616C0.0987059 13.3444 0.0221625 12.8591 0.0103866 12.5182C-0.0131652 12.1657 0.00449867 11.7035 0.0516023 11.4204C0.08693 11.1488 0.187025 10.7213 0.269456 10.4671C0.351888 10.2128 0.487311 9.87772 0.563854 9.71594C0.646285 9.55993 0.8347 9.24793 0.981898 9.02259C1.18209 8.72792 2.29491 7.58969 5.11524 4.81632C7.74715 2.22207 9.10138 0.927834 9.384 0.737166C9.60775 0.586942 9.96691 0.390495 10.1789 0.303827Z"/></svg>