<svg xmlns="http://www.w3.org/2000/svg" width="72" height="66" fill="none" viewBox="0 0 72 66"><path stroke="black" stroke-linecap="round" stroke-linejoin="round" stroke-miterlimit="10" d="M55.4169 13.7823C55.0681 13.6625 54.6758 13.597 54.3051 13.5316C53.2479 13.3682 52.2015 13.2154 51.1442 13.063C50.8173 13.0193 50.4794 12.9866 50.1523 12.9757C50.2831 11.8857 50.3159 10.8176 49.7055 9.94552C48.9207 8.8119 47.3838 8.53941 46.0214 8.36511C41.6724 7.7983 37.3125 7.23149 32.9635 6.66495C32.2005 6.56676 31.4157 6.46856 30.6636 6.58858C29.8243 6.71924 29.1376 7.18812 28.9196 8.04897C28.8215 8.4633 28.8324 8.88828 28.8433 9.30261C28.8542 9.61874 28.887 9.97825 28.9196 10.3598C28.4836 10.1419 27.9823 10.0546 27.5027 9.98916C26.4563 9.81486 25.399 9.66238 24.3526 9.52055C23.7313 9.43326 23.0774 9.35689 22.467 9.466C22.3689 6.16334 22.5542 2.85004 26.271 1.52003C28.5273 0.702553 31.0233 1.00778 33.3994 1.33482C37.9447 1.93436 42.4789 2.54455 47.0241 3.155C48.7245 3.38385 50.4685 3.62388 51.929 4.50656C54.8393 6.27244 55.4932 10.131 55.4169 13.7823Z"/><path stroke="black" stroke-linecap="round" stroke-linejoin="round" stroke-miterlimit="10" d="M30.3576 13.8914L28.6682 13.6516L22.4771 12.7905L20.6568 12.5398C20.2535 11.5587 20.6351 10.2944 21.5615 9.76031C21.8449 9.59692 22.1501 9.49872 22.4662 9.46599C23.0766 9.35689 23.7306 9.43326 24.3519 9.52054C25.3983 9.66238 26.4555 9.81486 27.5019 9.98916C27.9815 10.0546 28.4828 10.1419 28.9189 10.3598C29.0278 10.4035 29.126 10.4687 29.2241 10.5341C29.8345 10.9485 30.1832 11.6787 30.3031 12.4089C30.3903 12.8993 30.3903 13.39 30.3576 13.8914Z"/><path stroke="black" stroke-linecap="round" stroke-linejoin="round" stroke-miterlimit="10" d="M57.1389 17.6412L55.1661 17.3687L50.0541 16.6494L47.5472 16.3005C46.9913 15.3088 47.3618 13.8808 48.3537 13.314C48.8987 12.9979 49.52 12.9433 50.1522 12.9761C50.4792 12.987 50.8171 13.0197 51.1441 13.0634C52.2013 13.2158 53.2477 13.3686 54.305 13.532C54.6756 13.5974 55.068 13.6629 55.4168 13.7826C55.6348 13.859 55.831 13.9572 56.0162 14.0879C56.6375 14.5022 56.9863 15.2324 57.1062 15.9626C57.2043 16.5185 57.1825 17.0744 57.1389 17.6412Z"/><path fill="#F2F2F2" stroke="black" stroke-linecap="round" stroke-linejoin="round" stroke-miterlimit="10" d="M67.341 59.3215C67.2102 59.4415 67.0575 59.5613 66.9049 59.6486C65.0302 60.7167 63.1554 61.7849 61.2698 62.853C59.5803 63.8233 57.8909 65.2182 55.8308 64.9675C52.9206 64.6189 49.9995 64.2701 47.0892 63.9212C40.8437 63.1692 34.5981 62.4171 28.3525 61.6651C22.5866 60.9783 16.8206 60.2154 11.0437 59.4958C7.63215 59.0818 4.50386 58.297 2.61822 55.1471C2.31307 54.6346 2.08415 54.1114 1.93154 53.5664C1.39746 51.7353 1.56098 49.7733 1.49558 47.8004C1.38655 44.9339 1.27758 42.0674 1.17945 39.2006C0.994172 33.4783 0.85247 27.745 0.874291 22.0117C0.874291 19.6247 2.85805 18.2295 4.73278 17.0741C6.73836 15.8425 8.84201 14.7853 11.022 13.9023C10.477 14.6653 10.1717 15.5919 10.1608 16.6055C10.1391 22.3387 10.2808 28.072 10.477 33.7944C10.5641 36.6718 10.6732 39.5277 10.793 42.3942C10.8475 44.378 10.6732 46.3291 11.2291 48.1602C11.3708 48.7052 11.5996 49.2283 11.9048 49.7515C13.7905 52.9017 16.9187 53.6755 20.3412 54.0896C26.1181 54.8201 31.8732 55.5721 37.65 56.2695C43.8847 57.0218 50.1303 57.7629 56.3758 58.5259C59.2969 58.8747 62.2071 59.2233 65.1174 59.5722C65.9022 59.6704 66.6543 59.5722 67.341 59.3215Z"/><path stroke="black" stroke-linecap="round" stroke-linejoin="round" stroke-miterlimit="10" d="M70.6214 54.5258C70.7303 56.7494 69.3243 58.6459 67.3405 59.3216C66.6538 59.5722 65.9018 59.6704 65.117 59.5722C62.2067 59.2234 59.2965 58.8748 56.3754 58.5259C50.1298 57.763 43.8842 57.0219 37.6496 56.2696C31.8728 55.5721 26.1177 54.8201 20.3408 54.0896C16.9183 53.6756 13.79 52.9017 11.9044 49.7516C11.5992 49.2284 11.3703 48.7052 11.2286 48.1602C10.6727 46.3291 10.8471 44.378 10.7926 42.3942C10.6727 39.5277 10.5637 36.6718 10.4765 33.7944C10.2804 28.0721 10.1387 22.3388 10.1604 16.6055C10.1713 15.5919 10.4765 14.6653 11.0215 13.9024C11.6646 12.9867 12.6129 12.3002 13.7028 11.9949C14.3459 11.7988 15.0435 11.7552 15.7629 11.8531L64.79 18.7091C65.4985 18.8073 66.1524 19.0579 66.7301 19.4177C68.0599 20.2243 68.9646 21.6522 69.0409 23.2872L70.6214 54.5258Z"/><path stroke="black" stroke-linecap="round" stroke-linejoin="round" stroke-miterlimit="10" d="M5.63867 57.6997C7.63757 55.3719 10.0499 53.4001 12.7289 51.9043"/><path fill="white" stroke="black" stroke-linecap="round" stroke-linejoin="round" stroke-miterlimit="10" d="M36.2218 39.1896C36.3308 39.473 36.4398 39.7455 36.5597 40.0071C36.4616 39.9744 36.3635 39.9525 36.2654 39.9092C35.1318 39.5712 34.031 39.146 32.9628 38.6446C29.1588 36.8463 25.3111 34.1974 22.7061 30.8732C20.1229 27.5815 19.2182 23.6684 18.3571 19.6573C17.7249 16.6599 16.5369 13.4227 13.2451 12.5725V12.5616C13.7138 12.4307 14.2043 12.3655 14.7275 12.3761C17.2562 13.5643 18.2481 16.4311 18.8149 19.0905C19.676 23.1016 20.5806 27.0147 23.1639 30.2955C25.7689 33.6306 29.6166 36.2795 33.4206 38.0778C34.249 38.4594 35.0991 38.808 35.9602 39.1023C34.8593 36.0613 34.1399 32.1048 34.4451 27.0583C34.4451 27.0583 34.467 27.0583 34.5105 27.0583C34.2599 32.1812 35.0555 36.1704 36.2218 39.1896Z"/><path fill="white" stroke="black" stroke-linecap="round" stroke-linejoin="round" stroke-miterlimit="10" d="M61.128 32.6172C58.6538 35.8001 55.3185 38.3505 51.5144 39.7348C50.8714 39.9745 50.2174 40.1706 49.5525 40.3452C49.5089 40.3561 49.4653 40.367 49.4326 40.367C49.5198 40.1925 49.607 40.0291 49.6942 39.8548C50.4354 38.2959 50.9259 36.7264 51.2419 35.2658C50.9586 36.7046 50.5008 38.2744 49.8032 39.822C50.5335 39.6475 51.2638 39.4295 51.9723 39.1679C55.5474 37.8709 58.7083 35.5382 61.128 32.6172Z"/><path stroke="black" stroke-linecap="round" stroke-linejoin="round" stroke-miterlimit="10" d="M66.7304 19.4177C66.5778 20.3986 66.2618 21.4231 66.0437 22.3388C65.7059 23.7449 65.3244 25.1401 64.7902 26.4698C64.0382 28.3882 63.0245 30.1866 61.7711 31.8215C61.6294 32.0176 61.4658 32.2031 61.3133 32.3883C61.2587 32.4647 61.1933 32.5408 61.1279 32.6172C58.7082 35.5382 55.5473 37.8709 51.9722 39.1679C51.2637 39.4295 50.5334 39.6475 49.8031 39.822C50.5007 38.2743 50.9585 36.7046 51.2419 35.2657C51.2964 34.9932 51.3509 34.7319 51.3945 34.4701C51.994 31.2111 51.776 28.7152 51.776 28.7152C44.8874 25.7285 34.5326 26.666 34.5326 26.666C34.5217 26.7966 34.5217 26.9275 34.5108 27.0585C34.4672 27.0585 34.4454 27.0585 34.4454 27.0585C34.1402 32.1049 34.8596 36.0614 35.9605 39.1025C35.0993 38.8082 34.2492 38.4596 33.4208 38.078C29.6168 36.2796 25.7692 33.6308 23.1642 30.2957C20.5809 27.0148 19.6762 23.1017 18.8151 19.0907C18.2484 16.4312 17.2565 13.5644 14.7277 12.3763C14.4116 12.2238 14.0737 12.0931 13.7031 12.0058V11.9949C14.3462 11.7988 15.0438 11.7552 15.7632 11.8531L20.6572 12.5399L30.358 13.8915L47.5469 16.3003L57.1387 17.6409L64.7902 18.7091C65.4988 18.8073 66.1527 19.0579 66.7304 19.4177Z"/><path fill="white" stroke="black" stroke-linecap="round" stroke-linejoin="round" stroke-miterlimit="10" d="M36.2221 39.1899C36.1349 39.1681 36.0477 39.1353 35.9606 39.1026C34.8597 36.0615 34.1403 32.1051 34.4455 27.0586C34.4455 27.0586 34.4673 27.0586 34.5109 27.0586C34.2602 32.1814 35.0559 36.1706 36.2221 39.1899Z"/><path fill="white" stroke="black" stroke-linecap="round" stroke-linejoin="round" stroke-miterlimit="10" d="M51.2421 35.2656C50.9587 36.7045 50.5009 38.2742 49.8033 39.8219C49.7597 39.8437 49.7271 39.8546 49.6943 39.8546C50.4355 38.2958 50.926 36.7263 51.2421 35.2656Z"/><path fill="white" stroke="black" stroke-linecap="round" stroke-linejoin="round" stroke-miterlimit="10" d="M51.242 35.2659C50.9586 36.7047 50.5008 38.2745 49.8032 39.8222C49.727 39.9965 49.6397 40.1708 49.5525 40.3453C48.1574 43.2227 45.8684 46.0022 42.1407 47.7681C42.1407 47.7681 38.5656 45.5988 36.2657 39.9094C36.1567 39.6476 36.0586 39.386 35.9606 39.1026C34.8597 36.0615 34.1403 32.1051 34.4455 27.0586C34.4455 27.0586 34.4673 27.0586 34.5109 27.0586C34.2602 32.1814 35.0559 36.1706 36.2221 39.1899C36.3311 39.4733 36.4402 39.7458 36.56 40.0074C38.849 45.3375 42.2279 47.3756 42.2279 47.3756C45.7703 45.697 48.0157 43.103 49.4326 40.3671C49.5199 40.1926 49.607 40.0292 49.6942 39.8549C50.4354 38.296 50.9259 36.7265 51.242 35.2659Z"/><path fill="#0870EE" stroke="black" stroke-linecap="round" stroke-linejoin="round" stroke-miterlimit="10" d="M51.3948 34.4699C51.3512 34.7318 51.2968 34.9931 51.2422 35.2656C50.9261 36.7263 50.4356 38.2958 49.6945 39.8546C49.6072 40.0289 49.5201 40.1923 49.4329 40.3669C48.0159 43.1027 45.7706 45.6967 42.2282 47.3753C42.2282 47.3753 38.8492 45.3372 36.5603 40.0071C36.4404 39.7455 36.3314 39.473 36.2224 39.1896C35.0561 36.1704 34.2604 32.1811 34.5111 27.0583C34.522 26.9274 34.522 26.7965 34.5329 26.6658C34.5329 26.6658 44.8877 25.7283 51.7764 28.7151C51.7764 28.7151 51.9943 31.2109 51.3948 34.4699Z"/><path fill="white" stroke="black" stroke-linecap="round" stroke-linejoin="round" stroke-miterlimit="10" d="M46.9189 38.1384C48.2616 36.2795 47.7174 33.5932 45.7034 32.1385C43.6895 30.6838 40.9683 31.0115 39.6256 32.8704C38.2828 34.7294 38.827 37.4156 40.841 38.8703C42.855 40.3251 45.5761 39.9974 46.9189 38.1384Z"/><path stroke="black" stroke-linecap="round" stroke-linejoin="round" stroke-miterlimit="10" d="M41.708 35.1395C41.8447 35.4216 42.0888 36.2867 42.5299 36.2098C42.6281 36.1927 42.7045 36.1258 42.7761 36.0613C43.566 35.3491 44.3559 34.637 45.1459 33.9248"/></svg>