<svg xmlns="http://www.w3.org/2000/svg" width="65" height="66" fill="none" viewBox="0 0 65 66"><path stroke="black" stroke-linecap="round" stroke-linejoin="round" stroke-miterlimit="10" d="M62.1207 35.9968C61.5107 35.927 60.8607 36.0369 60.3107 36.177C59.8807 36.2969 59.4608 36.4668 59.1007 36.7368C59.0807 36.707 59.0807 36.687 59.0707 36.657C59.0007 36.437 58.9307 36.2168 58.8607 35.9968C58.7607 35.657 58.6508 35.3169 58.5507 34.9771C58.4107 34.5269 58.2708 34.0769 58.1307 33.627C57.9608 33.0869 57.8007 32.5469 57.6307 32.0068C57.4407 31.387 57.2507 30.7668 57.0607 30.157C56.8507 29.4771 56.6407 28.8069 56.4307 28.127C56.2108 27.417 55.9907 26.6968 55.7708 25.9771C55.5407 25.2368 55.3107 24.4968 55.0807 23.7468C54.9708 23.407 54.8607 23.0569 54.7607 22.7168C55.4907 22.9668 55.9207 23.0369 55.9207 23.0369C56.5308 22.3169 57.0707 21.5869 57.5308 20.8369C57.5507 20.927 57.5807 21.0269 57.6107 21.1169C57.8408 21.8569 58.0607 22.6069 58.2907 23.3469C58.5107 24.0769 58.7307 24.8169 58.9608 25.5469C59.1707 26.2568 59.3907 26.957 59.6007 27.667C59.8007 28.3369 60.0107 29.0068 60.2108 29.677C60.3907 30.2869 60.5807 30.897 60.7607 31.5068C60.9307 32.0469 61.0908 32.5969 61.2607 33.137C61.3907 33.5869 61.5308 34.0469 61.6707 34.4968C61.7808 34.8569 61.8907 35.207 61.9907 35.5669C62.0407 35.707 62.0807 35.8469 62.1207 35.9968Z"/><path fill="#0870EE" stroke="black" stroke-linecap="round" stroke-linejoin="round" stroke-miterlimit="10" d="M58.7611 52.1074C58.6911 53.3675 58.5711 54.6475 58.3711 55.8975C58.3311 56.1074 58.3011 56.3174 58.2611 56.5274C58.231 56.7373 58.1911 56.9473 58.1411 57.1475C58.0111 57.8074 57.9011 58.8374 57.5811 59.6575C57.4411 59.7874 57.3111 59.9375 57.2211 60.1074C57.1411 60.2473 57.0711 60.3975 57.0211 60.5574C56.9011 60.6775 56.7611 60.7674 56.6111 60.8374C56.1311 61.0474 55.2711 61.1074 54.7811 60.8775C54.4411 60.7173 54.5211 60.6875 54.5811 60.2874C54.6311 59.9275 54.6811 59.5774 54.7111 59.2276C54.8411 57.9175 54.8111 56.5674 54.3611 55.3174C53.5611 53.0874 51.3711 51.4473 49.0111 51.2373C46.7811 51.0474 44.6311 51.9776 43.5511 53.9375C43.0811 54.7774 42.7711 55.7075 42.6211 56.6575C42.4611 57.6575 42.7011 58.6475 42.5911 59.6175C42.4511 60.8374 40.981 60.3775 40.0611 60.1973C38.9311 59.9673 37.8411 59.5574 36.7611 59.1575C29.5511 56.4673 22.731 53.2874 15.541 50.5374C15.011 50.3374 16.0311 49.1375 16.161 48.8975C16.551 48.1875 16.8411 47.4275 17.0211 46.6475C17.0311 46.6074 17.041 46.5774 17.051 46.5374C17.051 46.5174 17.061 46.4973 17.061 46.4776C17.061 46.4673 17.071 46.4575 17.071 46.4473C17.131 46.1375 17.191 45.8074 17.231 45.4776C17.311 44.7373 17.311 43.9673 17.191 43.2173C17.061 42.3775 16.7811 41.5674 16.291 40.8875C15.811 40.2173 15.191 39.6475 14.491 39.2075C14.4711 39.1973 14.451 39.1775 14.431 39.1675C13.381 38.4673 12.131 38.0574 10.7811 38.0574C7.16101 38.0574 4.22107 40.9973 4.22107 44.6175C4.22107 44.7373 4.22107 44.8574 4.24103 44.9776V44.9873C3.81104 45.7974 2.60101 45.4275 2.02106 44.9873C1.38104 44.4873 1.08105 43.6475 1.08105 42.8374C1.08105 41.5374 1.57104 40.0874 2.11102 38.9275C2.82104 37.3875 3.53107 35.8474 4.24103 34.3174C4.55103 33.6475 4.86102 32.9673 5.33105 32.3975C5.54102 32.1375 5.61102 31.9375 5.97107 31.8675C6.16101 31.8374 6.35101 31.8374 6.52106 31.7574C7.07104 31.5174 7.14105 30.6973 7.64105 30.3675C10.001 25.1973 14.4711 21.7874 20.011 20.5674C25.561 19.3474 31.6511 20.8875 35.9511 24.5874C40.4911 28.4873 42.2211 34.5774 41.5211 40.3875C40.5611 39.8174 39.5511 39.3374 38.5011 38.9673C38.2411 38.8574 37.9711 38.7674 37.7011 38.6875C37.2111 38.5274 36.6711 38.3975 36.1811 38.5574C35.4311 38.8174 35.0811 39.6575 34.8111 40.4075C34.6211 40.9473 34.4311 41.4873 34.3811 42.0574C34.3711 42.1275 34.3711 42.2075 34.3711 42.2774C34.3611 42.7674 34.481 43.2774 34.7811 43.6775C35.1411 44.1475 35.7211 44.3975 36.2811 44.5974C37.601 45.0674 39.1211 45.4575 40.5311 45.4473C40.9211 45.4375 41.0711 45.2473 41.1811 44.9776C41.4911 45.2173 41.9211 45.3074 42.2811 45.1275C42.6711 44.9275 42.9311 44.5574 43.2211 44.2276C43.5111 43.9075 43.9011 43.6074 44.3411 43.6575C45.4011 43.7874 45.5111 45.7774 46.5911 45.7473C47.2111 45.7276 47.541 45.0074 47.6911 44.4075C47.8411 43.7974 48.0611 43.0674 48.6711 42.9275C49.1111 42.8274 49.5511 43.1074 49.8711 43.4375C50.1911 43.7674 50.4511 44.1575 50.851 44.3875C51.7111 44.8875 52.8711 44.3574 53.411 43.5174C54.0011 42.5974 53.7411 41.3875 54.3311 40.5574C54.9511 39.6775 56.1311 39.2774 56.9911 40.0374C57.4911 40.4776 57.6911 41.1775 57.851 41.8274C58.6411 45.1875 58.9511 48.6675 58.7611 52.1074Z"/><path fill="#F2F2F2" stroke="black" stroke-linecap="round" stroke-linejoin="round" stroke-miterlimit="10" d="M38.501 38.9669C38.2409 38.857 37.971 38.767 37.701 38.6871C37.211 38.527 36.6709 38.3971 36.1809 38.557C35.4309 38.817 35.081 39.6571 34.811 40.4071C34.621 40.9469 34.4309 41.4869 34.381 42.057C34.371 42.1271 34.371 42.2071 34.371 42.277L22.0009 37.1771C21.7709 37.077 21.651 36.807 21.7409 36.577L27.021 22.7272C27.1109 22.4772 27.381 22.357 27.631 22.4571C29.8609 23.3671 39.831 28.067 38.501 38.9669Z"/><path stroke="black" stroke-linecap="round" stroke-linejoin="round" stroke-miterlimit="10" d="M40.8584 45.6758C41.0342 45.9708 41.6645 47.028 41.8403 47.323"/><path fill="#0870EE" d="M21.6661 36.7158C21.2677 37.5895 20.8693 38.4632 20.4709 39.3369C20.2771 39.7619 20.0834 40.187 19.8895 40.6119C19.7568 40.9027 19.5743 41.1012 19.6092 41.4353C19.6418 41.7477 19.8121 42.0541 19.8877 42.3583C20.073 43.1036 20.1029 43.8942 19.9462 44.6475C19.8177 45.2649 19.5709 45.8568 19.2275 46.3855C19.0161 46.711 18.7018 46.9991 18.634 47.3965C18.5461 47.9124 19.1187 48.1536 19.5031 48.389C20.4178 48.9492 21.4327 49.3163 22.419 49.7263C24.5736 50.6221 26.7537 51.4565 28.9556 52.2283C30.0567 52.6142 31.1631 52.9845 32.2746 53.3389C32.8304 53.5161 33.3873 53.6896 33.9456 53.8587C34.2958 53.9648 34.8068 54.3763 35.1348 54.0461C35.4812 53.6975 35.4321 52.7627 35.5432 52.2928C35.7189 51.5487 35.9299 50.8129 36.175 50.0887C36.674 48.6143 37.3141 47.1877 38.0857 45.8358"/><path stroke="black" stroke-linecap="round" stroke-linejoin="round" stroke-miterlimit="10" d="M21.6661 36.7158C21.2677 37.5895 20.8693 38.4632 20.4709 39.3369C20.2771 39.7619 20.0834 40.187 19.8895 40.6119C19.7568 40.9027 19.5743 41.1012 19.6092 41.4353C19.6418 41.7477 19.8121 42.0541 19.8877 42.3583C20.073 43.1036 20.1029 43.8942 19.9462 44.6475C19.8177 45.2649 19.5709 45.8568 19.2275 46.3855C19.0161 46.711 18.7018 46.9991 18.634 47.3965C18.5461 47.9124 19.1187 48.1536 19.5031 48.389C20.4178 48.9492 21.4327 49.3163 22.419 49.7263C24.5736 50.6221 26.7537 51.4565 28.9556 52.2283C30.0567 52.6142 31.1631 52.9845 32.2746 53.3389C32.8304 53.5161 33.3873 53.6896 33.9456 53.8587C34.2958 53.9648 34.8068 54.3763 35.1348 54.0461C35.4812 53.6975 35.4321 52.7627 35.5432 52.2928C35.7189 51.5487 35.9299 50.8129 36.175 50.0887C36.674 48.6143 37.3141 47.1877 38.0857 45.8358"/><path stroke="black" stroke-linecap="round" stroke-linejoin="round" stroke-miterlimit="10" d="M24.8087 41.9877C25.0854 42.0581 25.4154 42.1018 25.6241 41.9069C25.7821 41.7594 25.8136 41.5108 25.748 41.3048C25.6823 41.0987 25.5358 40.9285 25.3783 40.7803C24.7504 40.1895 23.8827 39.8616 23.021 39.8893C22.776 39.8972 22.5186 39.9381 22.3276 40.0918C21.2625 40.9484 24.3131 41.8618 24.8087 41.9877Z"/><path stroke="black" stroke-linecap="round" stroke-linejoin="round" stroke-miterlimit="10" d="M58.1377 56.3001C57.5804 56.6619 56.7235 56.398 56.4663 55.7854C56.3149 55.4246 56.3582 55.0155 56.4059 54.6272C56.5708 53.2853 56.7574 51.946 56.9654 50.6101C57.0121 50.3104 57.0613 50.0062 57.1905 49.7318C57.5331 49.0045 58.1668 49.0271 58.8152 49.2684"/><path stroke="black" stroke-linecap="round" stroke-linejoin="round" stroke-miterlimit="10" d="M48.5627 63.139C51.8156 63.139 54.4525 60.5021 54.4525 57.2492C54.4525 53.9963 51.8156 51.3594 48.5627 51.3594C45.3098 51.3594 42.6729 53.9963 42.6729 57.2492C42.6729 60.5021 45.3098 63.139 48.5627 63.139Z"/><path stroke="black" stroke-linecap="round" stroke-linejoin="round" stroke-miterlimit="10" d="M48.6471 60.3489C50.431 60.3489 51.8772 58.9027 51.8772 57.1188C51.8772 55.3348 50.431 53.8887 48.6471 53.8887C46.8632 53.8887 45.417 55.3348 45.417 57.1188C45.417 58.9027 46.8632 60.3489 48.6471 60.3489Z"/><path stroke="black" stroke-linecap="round" stroke-linejoin="round" stroke-miterlimit="10" d="M17.2307 45.4778C17.1907 45.8076 17.1307 46.1377 17.0707 46.4475C17.0707 46.4578 17.0607 46.4675 17.0607 46.4778C17.0607 46.4976 17.0507 46.5176 17.0507 46.5376C17.0406 46.5776 17.0307 46.6077 17.0207 46.6477C16.1707 49.2876 13.7007 51.1777 10.7807 51.1777C7.2807 51.1777 4.42065 48.4475 4.24066 44.9875V44.9778C4.2207 44.8577 4.2207 44.7375 4.2207 44.6177C4.2207 40.9976 7.16064 38.0576 10.7807 38.0576C12.1307 38.0576 13.3807 38.4675 14.4307 39.1677C14.4507 39.1777 14.4707 39.1975 14.4907 39.2078C14.6689 39.3303 14.8398 39.4629 15.0049 39.6023C15.4877 39.9758 15.9363 40.3931 16.2906 40.8877C16.7807 41.5676 17.0607 42.3777 17.1907 43.2175C17.3107 43.9675 17.3107 44.7375 17.2307 45.4778Z"/><path stroke="black" stroke-linecap="round" stroke-linejoin="round" stroke-miterlimit="10" d="M17.2313 45.4771C17.3113 44.7368 17.3113 43.9668 17.1913 43.2168C17.2913 43.667 17.3413 44.137 17.3413 44.6169C17.3413 45.2568 17.2413 45.8669 17.0713 46.4468C17.1313 46.137 17.1913 45.8069 17.2313 45.4771Z"/><path stroke="black" stroke-linecap="round" stroke-linejoin="round" stroke-miterlimit="10" d="M10.8784 48.0723C12.8656 48.0723 14.4766 46.4613 14.4766 44.4741C14.4766 42.4869 12.8656 40.876 10.8784 40.876C8.89122 40.876 7.28027 42.4869 7.28027 44.4741C7.28027 46.4613 8.89122 48.0723 10.8784 48.0723Z"/><path fill="#F2F2F2" d="M10.373 31.0573C14.2864 21.6408 22.6492 21.676 24.7489 21.843C24.9946 21.8625 25.15 22.1116 25.0599 22.3409L20.0758 35.0241C19.9987 35.2203 19.7721 35.3106 19.5812 35.2214L13.531 32.3916"/><path stroke="black" stroke-linecap="round" stroke-linejoin="round" stroke-miterlimit="10" d="M10.373 31.0573C14.2864 21.6408 22.6492 21.676 24.7489 21.843C24.9946 21.8625 25.15 22.1116 25.0599 22.3409L20.0758 35.0241C19.9987 35.2203 19.7721 35.3106 19.5812 35.2214L13.531 32.3916"/><path stroke="black" stroke-linecap="round" stroke-linejoin="round" stroke-miterlimit="10" d="M4.09027 34.8506C4.37006 34.8939 4.655 34.9387 4.90839 35.065C5.1618 35.1912 5.38327 35.4143 5.43451 35.6927C5.48764 35.9812 5.35431 36.2679 5.22461 36.531C4.76144 37.4706 4.29831 38.4102 3.83514 39.3498C3.70761 39.6086 3.56335 39.8847 3.30527 40.0136C3.07309 40.1296 2.7894 40.0995 2.5517 39.9953C2.314 39.8911 2.11264 39.7204 1.91504 39.5522"/><path stroke="black" stroke-linecap="round" stroke-linejoin="round" stroke-miterlimit="10" d="M42.2307 42.3574C41.9407 43.0674 41.6507 43.7874 41.3607 44.5073C41.2907 44.6775 41.2407 44.8374 41.1807 44.9775C41.0707 45.2473 40.9207 45.4375 40.5307 45.4473C39.1207 45.4575 37.6007 45.0674 36.2807 44.5974C35.7207 44.3975 35.1407 44.1475 34.7807 43.6775C34.4807 43.2773 34.3607 42.7673 34.3707 42.2773C34.3707 42.2075 34.3707 42.1274 34.3807 42.0574C34.4307 41.4873 34.6207 40.9473 34.8107 40.4075C35.0807 39.6575 35.4307 38.8174 36.1807 38.5574C36.6707 38.3975 37.2107 38.5273 37.7007 38.6875C37.9707 38.7673 38.2407 38.8574 38.5007 38.9673C39.5507 39.3374 40.5607 39.8174 41.5207 40.3875C41.5507 40.3975 41.5707 40.4075 41.6007 40.4275C41.9307 40.6274 42.2807 40.8674 42.4007 41.2373C42.5207 41.6074 42.3707 41.9973 42.2307 42.3574Z"/><path stroke="black" stroke-linecap="round" stroke-linejoin="round" stroke-miterlimit="10" d="M63.981 39.8072C63.9611 41.6573 63.951 43.5072 63.921 45.3573C63.871 49.5572 63.801 53.7672 63.611 57.9672C63.541 59.5272 63.631 61.3373 63.161 62.8573C63.1411 62.9471 62.431 63.0172 61.811 63.0673C61.821 62.6874 61.5811 62.3072 61.2211 62.1674C60.811 62.0072 60.291 62.1874 60.071 62.5773C60.0911 61.8673 60.111 61.0873 59.911 60.3873C59.7711 59.8673 59.3911 59.3773 58.871 59.2472C58.511 59.1573 58.1411 59.2572 57.8311 59.4672C57.941 58.4872 58.101 57.5072 58.261 56.5272C58.301 56.3173 58.3311 56.1073 58.371 55.8973C58.601 54.5973 58.8311 53.2972 58.951 52.0272C59.201 49.4672 59.241 46.8973 59.071 44.3373C58.991 43.0572 58.851 41.7772 58.671 40.5072C58.5311 39.5372 57.871 38.0172 58.561 37.1971C58.7211 37.0172 58.9011 36.8573 59.101 36.7372C59.4611 36.4672 59.881 36.2972 60.311 36.1774C60.861 36.0372 61.511 35.9274 62.121 35.9972C62.5311 36.0472 62.931 36.1874 63.251 36.4471C64.311 37.3173 63.991 38.6273 63.981 39.8072Z"/><path stroke="black" stroke-linecap="round" stroke-linejoin="round" stroke-miterlimit="10" d="M64.1577 64.9971C64.3825 64.8158 64.4621 64.4931 64.3996 64.2113C64.337 63.9294 64.1514 63.6872 63.929 63.503C63.3436 63.0182 62.4691 62.9147 61.7867 63.2496C61.8924 62.8181 61.6382 62.3279 61.2246 62.1657C60.8111 62.0035 60.2914 62.1901 60.0756 62.5784C60.0878 61.8623 60.1081 61.0835 59.9123 60.3865C59.7667 59.8681 59.3955 59.3789 58.8732 59.2472C58.2266 59.0842 57.5498 59.5232 57.2197 60.1026C56.8897 60.6821 56.8263 61.3704 56.7701 62.0349C56.4341 61.5903 55.6813 61.5918 55.1712 61.8162C54.6611 62.0407 54.32 62.5726 54.259 63.1266C54.1982 63.6805 54.3947 64.2444 54.7301 64.6894"/><path fill="white" stroke="black" stroke-linecap="round" stroke-linejoin="round" stroke-miterlimit="10" d="M55.9806 23.447C55.9806 23.447 46.2506 21.9573 41.6406 6.56714C41.6406 6.56714 41.6606 6.55713 41.7006 6.53711C46.3406 21.5671 55.9206 23.0371 55.9206 23.0371C60.2106 18.0371 60.5506 12.1172 59.9306 7.66724C60.6306 12.1572 60.4006 18.2971 55.9806 23.447Z"/><path stroke="black" stroke-linecap="round" stroke-linejoin="round" stroke-miterlimit="10" d="M57.5311 20.8373C57.071 21.5873 56.5311 22.3173 55.921 23.0372C55.921 23.0372 55.491 22.9672 54.761 22.7172C52.071 21.7972 45.351 18.3673 41.701 6.53724C41.661 6.41737 41.621 6.28724 41.5811 6.15736C41.5811 6.15736 50.741 0.967171 58.101 0.9972C58.101 0.9972 59.351 3.68739 59.911 7.51722C59.921 7.56727 59.921 7.61732 59.931 7.66737C60.4611 11.4774 60.291 16.3673 57.5311 20.8373Z"/><path stroke="black" stroke-linecap="round" stroke-linejoin="round" stroke-miterlimit="10" d="M52.6978 15.4933C55.1241 15.4933 57.0909 13.5264 57.0909 11.1002C57.0909 8.6739 55.1241 6.70703 52.6978 6.70703C50.2716 6.70703 48.3047 8.6739 48.3047 11.1002C48.3047 13.5264 50.2716 15.4933 52.6978 15.4933Z"/><path stroke="black" stroke-linecap="round" stroke-linejoin="round" stroke-miterlimit="10" d="M51.1367 11.3938C51.3613 11.6105 51.8896 12.3475 52.2667 12.0903C52.3505 12.0331 52.397 11.9366 52.4398 11.8445C52.9124 10.8273 53.3851 9.81015 53.8578 8.79297"/></svg>