<svg xmlns="http://www.w3.org/2000/svg" width="67" height="66" fill="none" viewBox="0 0 67 66"><path fill="white" stroke="black" stroke-linecap="round" stroke-linejoin="round" stroke-miterlimit="10" d="M29.8867 58.537C29.8867 61.4095 27.5561 63.7402 24.6734 63.7402C24.4179 63.7402 24.1623 63.7198 23.917 63.6788C26.7792 63.6686 29.0997 61.3379 29.0997 58.4654C29.0997 57.0139 28.5067 55.7055 27.5459 54.7549H28.2512C29.2632 55.7055 29.8867 57.0446 29.8867 58.537Z"/><path fill="white" stroke="black" stroke-linecap="round" stroke-linejoin="round" stroke-miterlimit="10" d="M50.9548 59.6105C50.9548 62.4216 48.7467 64.7216 45.9766 64.8543C48.3174 64.333 50.0654 62.2376 50.0654 59.733C50.0654 57.5046 48.6752 55.5932 46.7125 54.8365C47.0601 54.8266 47.4076 54.8061 47.7552 54.7754C49.6361 55.5728 50.9548 57.433 50.9548 59.6105Z"/><path stroke="black" stroke-linecap="round" stroke-linejoin="round" stroke-miterlimit="10" d="M29.0996 58.4644C29.0996 61.3369 26.7791 63.6676 23.9169 63.6779C23.9067 63.6779 23.9067 63.6779 23.8964 63.6779C21.024 63.6779 18.6934 61.3472 18.6934 58.4644C18.6934 56.7574 19.5214 55.2445 20.7889 54.2939C20.8502 54.3144 20.9218 54.3349 20.9831 54.3551C21.1364 54.396 21.2795 54.4369 21.4329 54.4676C23.4058 54.9174 25.532 54.7744 27.5458 54.7539C28.5066 55.7045 29.0996 57.013 29.0996 58.4644Z"/><path stroke="black" stroke-linecap="round" stroke-linejoin="round" stroke-miterlimit="10" d="M50.0656 59.7324C50.0656 62.237 48.3175 64.3324 45.9767 64.8537C45.5984 64.9561 45.21 64.997 44.8113 64.997C41.9082 64.997 39.5469 62.6356 39.5469 59.7324C39.5469 57.5961 40.8246 55.7561 42.6545 54.9485H43.278C44.4229 54.9485 45.5678 54.9076 46.7126 54.8359C48.6753 55.5926 50.0656 57.504 50.0656 59.7324Z"/><path fill="white" stroke="black" stroke-linecap="round" stroke-linejoin="round" stroke-miterlimit="10" d="M66.4624 46.4536C66.4624 48.948 64.5099 51.0024 62.0361 51.1354C64.1215 50.655 65.6752 48.7843 65.6752 46.5662C65.6752 45.0226 64.929 43.6527 63.7739 42.8042C63.8557 42.6919 63.9477 42.5691 64.0192 42.4466C64.0397 42.4159 64.0602 42.3852 64.0703 42.3545C65.5015 43.1621 66.4624 44.6954 66.4624 46.4536Z"/><path stroke="black" stroke-linecap="round" stroke-linejoin="round" stroke-miterlimit="10" d="M65.675 46.5666C65.675 48.7848 64.1213 50.6555 62.0359 51.1359C61.6986 51.2178 61.3408 51.2585 60.9831 51.2585C59.2555 51.2585 57.7528 50.3283 56.9453 48.9485C56.9964 48.9178 57.0373 48.8769 57.0884 48.8359C57.1498 48.7848 57.3542 48.6418 57.5586 48.4985C57.8039 48.3146 58.0595 48.1102 58.0595 48.0283C59.6133 46.7199 61.1773 45.4216 62.6493 44.0213C63.0479 43.643 63.4466 43.2444 63.7737 42.8047C64.9288 43.6532 65.675 45.0231 65.675 46.5666Z"/><path stroke="black" stroke-linecap="round" stroke-linejoin="round" stroke-miterlimit="10" d="M29.6825 5.57489C29.4984 6.28016 29.3349 6.98568 29.1918 7.70119C28.7727 9.72516 28.466 11.7696 28.3024 13.8243C27.7505 12.3216 27.1984 10.8292 26.6362 9.31638C26.6771 10.124 26.2274 10.9415 25.5323 11.3404C24.8269 11.7491 23.9069 11.7184 23.222 11.2892C22.67 10.9313 22.302 10.3591 22.0362 9.75586C21.4638 8.50878 21.2593 7.07752 21.6069 5.74859C21.9545 4.4199 22.8949 3.23397 24.1829 2.74332C25.9105 2.07898 27.8016 2.96843 28.8953 4.34828C29.202 4.72637 29.4576 5.14564 29.6825 5.57489Z"/><path fill="white" d="M26.6388 9.31654C26.1238 8.27687 25.7127 7.14018 25.2393 6.07129Z"/><path stroke="black" stroke-linecap="round" stroke-linejoin="round" stroke-miterlimit="10" d="M26.6388 9.31654C26.1238 8.27687 25.7127 7.14018 25.2393 6.07129"/><path stroke="black" stroke-linecap="round" stroke-linejoin="round" stroke-miterlimit="10" d="M64.0702 42.355C64.06 42.3857 64.0396 42.4164 64.0191 42.4471C63.9475 42.5696 63.8556 42.6924 63.7738 42.8047C63.4467 43.2444 63.048 43.643 62.6494 44.0213C61.1774 45.4217 59.6133 46.7199 58.0595 48.0284C58.0595 48.1102 57.804 48.3146 57.5587 48.4985C57.3542 48.6418 57.1498 48.7848 57.0885 48.836C57.0373 48.8769 56.9964 48.9178 56.9454 48.9485C56.6387 49.214 56.332 49.4696 56.0253 49.7252C55.32 50.3079 54.6147 50.9009 53.9093 51.4836C53.204 52.0763 52.5191 52.7204 51.7729 53.252C51.2311 53.6403 50.7712 54.1719 50.1373 54.407C49.6058 54.6114 49.0231 54.6728 48.4507 54.724C48.2156 54.7444 47.9907 54.7649 47.7556 54.7751C47.408 54.8058 47.0605 54.8263 46.7129 54.8363C45.568 54.9079 44.4232 54.9488 43.2783 54.9488H42.6547C42.5014 54.9386 42.3379 54.9386 42.1743 54.9386C41.4689 54.9386 40.7534 54.9079 40.0379 54.8772C38.7805 54.8158 37.5334 54.7547 36.276 54.7547H27.5463C25.5326 54.7751 23.4063 54.9181 21.4334 54.4684C21.2801 54.4377 21.137 54.3968 20.9837 54.3558C20.9223 54.3356 20.8508 54.3152 20.7894 54.2947C19.3379 53.8345 18.0908 52.8532 17.1401 51.6573C15.3819 49.4596 14.7277 46.7608 13.8384 44.1541C12.4379 40.055 11.0374 35.9559 9.63698 31.8568C9.03391 30.1088 8.45124 28.3609 7.85833 26.6129C7.60278 25.836 7.37792 25.0386 7.03034 24.2924C6.84634 23.8936 6.72368 23.4644 6.57032 23.0454C6.44766 22.7284 6.14101 22.2275 6.14101 21.8901C6.04904 22.5343 6.07968 23.1068 6.10014 23.7506C6.12054 24.3129 6.06945 24.8854 5.79349 25.3658C5.16989 26.4187 3.59569 26.3676 2.7166 25.7235C2.13392 25.2942 1.72501 24.6603 1.43882 23.996C0.273477 21.2565 1.72501 17.5357 4.89393 16.9325C7.44948 16.4521 9.51432 18.4147 10.4241 20.5819C11.0068 21.9925 11.5792 23.403 12.1517 24.824L10.5059 25.7439L15.9134 40.7503C16.0463 41.1284 16.261 41.4658 16.5268 41.7418C16.9765 42.2018 17.5797 42.5085 18.2441 42.5696L18.6939 42.6105C19.0517 43.6635 19.3992 44.7164 19.7468 45.7693C20.1659 47.0471 20.5032 48.7134 21.8321 49.3471C22.6908 49.7559 23.6619 49.7866 24.6023 49.807C27.2294 49.8684 29.8565 49.9298 32.4836 49.9807C32.4836 50.0114 39.9356 50.1547 40.6205 50.1751C41.9698 50.2058 43.3294 50.2363 44.6787 50.267C45.3738 50.2772 46.0689 50.3079 46.764 50.3079C47.4387 50.3181 48.2156 50.4307 48.7982 50.0216C51.8138 47.8854 54.7169 45.5854 57.4871 43.1421C57.5894 43.0503 57.6916 42.9582 57.7631 42.8357C57.8244 42.7129 57.8347 42.5492 57.7529 42.4471C57.6507 42.3141 57.4769 42.2936 57.3133 42.2836C55.8107 42.1813 54.308 42.1199 52.7951 42.0994C52.5089 42.0994 51.7014 42.1915 51.0574 42.1301L56.4547 38.072C57.5587 38.072 58.6627 38.0617 59.7565 38.0413C60.6151 38.0413 61.484 38.031 62.3018 38.2661C63.2729 38.5524 64.3769 39.4009 64.52 40.4538C64.612 41.1079 64.4075 41.7825 64.0702 42.355Z"/><path stroke="black" stroke-linecap="round" stroke-linejoin="round" stroke-miterlimit="10" d="M29.008 24.5065C29.3351 25.815 29.7644 27.0825 30.3063 28.2887L12.6219 26.0194L10.5059 25.7434L12.1516 24.8235L28.18 15.9404C28.0982 18.8434 28.3231 21.7568 29.008 24.5065Z"/><path stroke="black" stroke-linecap="round" stroke-linejoin="round" stroke-miterlimit="10" d="M63.6004 17.7301L56.4653 22.5754L54.7275 23.7611C55.9235 21.502 56.7924 19.2225 57.4466 17.1064L58.4791 17.219L63.6004 17.7301Z"/><path fill="#0870EE" stroke="black" stroke-linecap="round" stroke-linejoin="round" stroke-miterlimit="10" d="M63.6 17.7295V31.3248C63.6 32.1938 63.1911 33.0116 62.4959 33.533L56.4547 38.0716L51.0573 42.1298L47.6738 44.6751C47.3364 44.9204 46.9582 45.0841 46.5595 45.1555C46.2836 45.2271 46.0178 45.2373 45.7417 45.2169L18.6939 42.6102L18.2441 42.5692C17.5796 42.5081 16.9765 42.2014 16.5267 41.7414C16.261 41.4654 16.0463 41.128 15.9134 40.7499L10.5059 25.7435L12.6219 26.0196L33.2911 28.6774L34.0476 28.7797L45.2409 30.221L55.78 23.045L57.6404 21.7774L63.6 17.7295Z"/><path stroke="black" stroke-linecap="round" stroke-linejoin="round" stroke-miterlimit="10" d="M16.5262 41.7411C16.2502 41.465 16.0458 41.1276 15.9026 40.7595L10.4951 25.7432H10.5053L15.9129 40.7495C16.0458 41.1276 16.2605 41.465 16.5262 41.7411Z"/><path fill="#0870EE" stroke="black" stroke-linecap="round" stroke-linejoin="round" stroke-miterlimit="10" d="M46.5595 45.1653C46.2836 45.2165 46.0178 45.237 45.7417 45.2063L18.6938 42.6098L18.2441 42.5689C17.1809 42.4668 16.2712 41.7615 15.9134 40.7495L10.5059 25.7432L12.6219 26.0192L45.2306 30.2206C45.4249 32.3467 45.6191 34.4832 45.8031 36.6095C45.9462 38.2449 46.0996 39.8805 46.2426 41.5162C46.3244 42.4873 46.8049 44.1022 46.5595 45.1653Z"/><path fill="white" d="M6.30506 22.4203C6.05038 21.6393 5.7957 20.8582 5.54102 20.0771Z"/><path stroke="black" stroke-linecap="round" stroke-linejoin="round" stroke-miterlimit="10" d="M6.30506 22.4203C6.05038 21.6393 5.7957 20.8582 5.54102 20.0771"/><path stroke="black" stroke-linecap="round" stroke-linejoin="round" stroke-miterlimit="10" d="M8.07422 54.6348H15.2172"/><path stroke="black" stroke-linecap="round" stroke-linejoin="round" stroke-miterlimit="10" d="M11.2773 58.5371H14.7427"/><path fill="white" d="M5.09668 14.5785C4.89453 14.0732 4.69238 13.5678 4.49023 13.0625Z"/><path stroke="black" stroke-linecap="round" stroke-linejoin="round" stroke-miterlimit="10" d="M5.09668 14.5785C4.89453 14.0732 4.69238 13.5678 4.49023 13.0625"/><path fill="white" d="M7.31055 15.1648C7.64334 14.6691 7.9762 14.1734 8.309 13.6777Z"/><path stroke="black" stroke-linecap="round" stroke-linejoin="round" stroke-miterlimit="10" d="M7.31055 15.1648C7.64334 14.6691 7.9762 14.1734 8.309 13.6777"/><path fill="white" stroke="black" stroke-linecap="round" stroke-linejoin="round" stroke-miterlimit="10" d="M47.3977 1.79291C48.2155 2.61074 49.9021 4.06221 52.6213 5.41161C49.4319 3.99084 47.4693 2.33472 46.5391 1.4248C46.8559 1.4248 47.1626 1.55782 47.3977 1.79291Z"/><path fill="white" stroke="black" stroke-linecap="round" stroke-linejoin="round" stroke-miterlimit="10" d="M60.1248 9.27521C59.9408 10.9004 59.4911 13.824 58.4791 17.2179C57.968 18.9249 57.3035 20.7445 56.4653 22.5743L54.7275 23.76C55.9235 21.5009 56.7924 19.2214 57.4466 17.1053C58.5404 13.589 59.0106 10.5223 59.1946 8.83548C59.2457 8.35507 59.0821 7.89512 58.7857 7.59863C58.8982 7.62933 59.0004 7.64979 59.1026 7.67026C59.7773 7.82374 60.2066 8.50855 60.1248 9.27521Z"/><path fill="#F2F2F2" stroke="black" stroke-linecap="round" stroke-linejoin="round" stroke-miterlimit="10" d="M59.1943 8.83612C59.0103 10.5229 58.54 13.5896 57.4462 17.106C56.792 19.222 55.9231 21.5016 54.7272 23.7606L45.2409 30.2211L36.0716 29.0354L31.1036 28.4015L30.3063 28.289C29.7645 27.0828 29.3352 25.8153 29.0081 24.5068C28.3232 21.7571 28.0983 18.8437 28.1801 15.9407C28.1801 15.8282 28.1903 15.7057 28.1903 15.6033C28.2108 15.0104 28.2516 14.4176 28.3027 13.8247C28.4663 11.77 28.773 9.72557 29.1921 7.70159C29.3352 6.98609 29.4987 6.28057 29.6828 5.5753C29.9383 4.50217 30.245 3.43902 30.5823 2.39633C30.8379 1.62967 31.5534 1.16947 32.2383 1.34342C34.6916 1.96683 40.5285 3.09137 45.0978 1.10833C45.568 0.89345 46.0996 0.995772 46.4676 1.36388L46.5392 1.42502C47.4694 2.33494 49.432 3.99106 52.6214 5.41183C52.6725 5.44253 52.7134 5.46299 52.7542 5.47322C54.3898 6.27059 56.3831 7.02677 58.7853 7.59927C59.0818 7.89576 59.2453 8.3557 59.1943 8.83612Z"/><path fill="white" stroke="black" stroke-linecap="round" stroke-linejoin="round" stroke-miterlimit="10" d="M58.785 7.59968C56.3828 7.02718 54.3895 6.27099 52.7539 5.47363C54.2668 6.13798 56.066 6.76164 58.1717 7.24205C58.4068 7.29321 58.6317 7.42598 58.785 7.59968Z"/><path fill="#F2F2F2" stroke="black" stroke-linecap="round" stroke-linejoin="round" stroke-miterlimit="10" d="M48.5392 21.873C50.5165 18.1465 49.0494 13.4967 45.2623 11.4873C41.4753 9.47796 36.8025 10.8699 34.8252 14.5964C32.848 18.3228 34.3151 22.9727 38.1021 24.982C41.8891 26.9914 46.562 25.5994 48.5392 21.873Z"/><path stroke="black" stroke-linecap="round" stroke-linejoin="round" stroke-miterlimit="10" d="M39.3564 17.1943C39.5095 17.5969 39.6128 18.0164 39.774 18.417C39.8632 18.6388 39.9573 18.8787 40.1031 19.0708C40.259 19.2763 40.3296 19.3099 40.5383 19.2033C42.1968 18.3557 43.7973 17.3179 45.4176 16.3906"/></svg>