<svg xmlns="http://www.w3.org/2000/svg" width="54" height="66" fill="none" viewBox="0 0 54 66"><path stroke="black" stroke-linecap="round" stroke-linejoin="round" stroke-miterlimit="10" d="M48.6265 20.25C48.6064 20.98 48.4965 21.7102 48.2964 22.4102C37.6865 21.9202 29.8665 14.1401 27.0364 10.8901C26.8464 10.6802 26.5964 10.5801 26.3564 10.5801V10.5701C25.1765 10.6602 23.9565 10.8601 22.7665 11.0103C21.9365 11.1201 20.5964 11.03 19.8464 11.3801C19.4365 11.5801 19.4064 12.0103 19.2565 12.4402C18.9865 13.23 18.6865 14.0103 18.3564 14.78C17.5165 16.7002 16.4965 18.54 15.3065 20.25C12.6064 24.1101 8.99646 27.2202 4.81647 29.3201C2.78644 27.73 1.27643 25.4602 0.646484 22.9602C1.45648 23.75 2.56647 24.2402 3.69647 24.3301C4.83643 24.4202 5.71643 23.75 6.22644 22.7202C6.57648 22.02 6.37646 21.1501 6.17645 20.4102C5.81647 19.1101 5.00647 17.9902 4.20648 16.9001C6.99646 16.7002 9.82648 18.3701 10.9965 20.9102C11.4965 19.54 11.4265 17.98 10.8965 16.6301C10.6664 16.04 10.2964 15.2002 9.77643 14.8201C9.35645 14.52 8.81647 14.54 8.32648 14.4001C8.89648 13.6001 10.1165 13.3201 11.0264 13.5901C11.5165 13.73 11.9465 14.0103 12.4265 14.1802C12.8965 14.3601 13.4664 14.4102 13.8865 14.1301C14.6165 13.6301 13.9565 12.6001 13.9565 11.9102C13.9664 10.9402 14.3665 10 14.8165 9.16016C15.4164 8.04004 16.1465 6.97021 16.3965 5.72998C16.7465 3.9502 15.9365 2 14.4265 1C16.6365 1.6001 18.5065 3.12012 19.9164 4.92017C20.5264 5.69019 21.3065 6.54004 21.6564 7.47021C22.0264 8.4502 22.2665 9.28003 23.0065 10.1001C23.2164 10.3301 23.4565 10.5601 23.7665 10.6201C24.2964 10.73 24.8265 10.27 24.9865 9.75C25.1765 9.13013 25.1365 8.47021 25.2565 7.84009C25.4565 6.72998 25.9064 5.79004 26.7065 5C27.4865 4.22021 28.3965 3.58008 29.3865 3.12012C28.5065 4.1001 28.0665 5.46021 28.2065 6.77002C28.2465 7.22998 28.3265 7.87012 28.5464 8.28003C28.8564 8.86011 29.6165 9.3501 30.0964 9.79004C31.0364 10.6802 32.0364 11.6702 32.1765 12.9502C32.2264 11.54 32.5864 10.1401 33.2065 8.88013C33.6265 8.03003 34.1664 7.24023 34.5165 6.36011C34.6765 5.94019 34.7964 5.5 34.8265 5.05005C34.8464 4.75 34.5964 3.92017 34.9465 3.77002C35.4064 3.58008 36.5165 5.11011 36.7565 5.44019C37.7964 6.84009 38.4265 8.55005 38.5065 10.3C38.5665 11.7603 38.0765 13.79 38.8865 15.1101C39.3165 15.8201 40.1064 16.03 40.6765 15.2402C40.9664 14.8501 41.1365 13.79 41.2864 13.3201C41.5765 12.3801 41.6965 11.3801 41.6064 10.4001C43.5364 12.3201 44.3065 15.3201 43.5665 17.9402C44.4265 17.4102 45.1165 16.6201 45.5765 15.7202C45.7864 15.29 46.0165 14.77 46.0565 14.29C46.0765 14.0601 46.0165 13.2603 46.4064 13.8201C46.9365 14.5801 47.4565 15.4602 47.8364 16.3101C48.3865 17.54 48.6664 18.9001 48.6265 20.25Z"/><path stroke="black" stroke-linecap="round" stroke-linejoin="round" stroke-miterlimit="10" d="M26.3567 10.5703V10.5803C25.9767 10.5803 25.5967 10.8203 25.4867 11.2502C24.4367 15.1504 20.9867 24.5105 10.9767 29.7605C10.0867 30.2405 9.13673 30.6704 8.13673 31.0703C7.7267 31.2302 7.48671 31.6504 7.56672 32.0703C8.1067 35.0503 10.6467 46.4104 18.6067 55.0303C18.5267 55.7903 18.3767 56.5403 18.2367 57.2903C18.1467 57.7803 18.0667 58.2703 18.0167 58.7703C15.7767 57.1904 13.7467 55.3203 11.9567 53.2104C8.68672 49.3604 6.2267 44.8704 4.42671 40.1604C3.34669 37.3203 2.46669 34.3804 1.9167 31.3804C1.83668 30.9604 2.07673 30.5403 2.4767 30.3804C3.27668 30.0603 4.05671 29.7104 4.81672 29.3203C8.99672 27.2205 12.6067 24.1104 15.3067 20.2502C16.4967 18.5403 17.5167 16.7004 18.3567 14.7803C18.6867 14.0105 18.9867 13.2302 19.2567 12.4404C19.4067 12.0105 19.4367 11.5803 19.8467 11.3804C20.5967 11.0303 21.9367 11.1204 22.7667 11.0105C23.9567 10.8604 25.1767 10.6604 26.3567 10.5703Z"/><path stroke="black" stroke-linecap="round" stroke-linejoin="round" stroke-miterlimit="10" d="M37.3767 65C35.9367 64.8101 34.4967 64.6401 33.0667 64.4402C32.3267 64.3401 31.5867 64.2202 30.8467 64.0901C30.9967 63.8801 31.1467 63.6702 31.2967 63.4502C33.0367 64.0601 34.8967 64.54 36.8867 64.8601C36.9267 64.8701 36.9667 64.8701 37.0167 64.8701H37.0267C37.1367 64.9202 37.2567 64.9702 37.3767 65Z"/><path fill="#086EE9" stroke="black" stroke-linecap="round" stroke-linejoin="round" stroke-miterlimit="10" d="M38.9061 63.8C38.4261 64.1101 37.9861 64.4402 37.5161 64.73C37.3661 64.8201 37.1961 64.8701 37.0261 64.8701H37.0161C36.9661 64.8701 36.9261 64.8701 36.8861 64.8601C34.8961 64.54 33.0361 64.0601 31.2961 63.4502C32.2861 61.8901 32.8261 60.02 32.7861 58.1702V58.1001C32.6861 54.3201 30.3561 51.0103 28.1261 47.9502C28.6261 50.02 28.3561 52.27 27.3861 54.1602C26.5261 49.5 22.7561 45.4902 18.1561 44.3601C20.4761 46.4001 22.0061 49.3201 22.4461 52.3801C22.5861 53.3101 22.6161 54.2603 22.5461 55.2002C21.2261 52.8201 19.0761 50.9202 16.5461 49.9302C17.7261 50.4902 18.4361 51.8101 18.6161 53.1101C18.6961 53.75 18.6761 54.3901 18.6061 55.03C10.6461 46.4102 8.10607 35.05 7.56609 32.0701C7.48608 31.6501 7.72607 31.23 8.1361 31.0701C9.1361 30.6702 10.0861 30.2402 10.9761 29.7603C20.9861 24.5103 24.4361 15.1501 25.4861 11.25C25.5961 10.8201 25.9761 10.5801 26.3561 10.5801C26.5961 10.5801 26.8461 10.6802 27.0361 10.8901C29.8661 14.1401 37.6861 21.9202 48.2961 22.4102C49.0061 22.4402 49.7261 22.4402 50.4661 22.4001C50.8961 22.3801 51.2861 22.6501 51.3961 23.0801C52.5261 27.55 57.5261 51.52 38.9061 63.8Z"/><path fill="#F2F2F2" stroke="black" stroke-linecap="round" stroke-linejoin="round" stroke-miterlimit="10" d="M36.8263 57.8798C36.4564 58.1198 36.1163 58.3698 35.7563 58.5998C35.6063 58.6899 35.4363 58.7199 35.2663 58.6899C34.4063 58.5497 33.5763 58.3798 32.7863 58.1698V58.0998C32.6863 54.3197 30.3563 51.0099 28.1263 47.9499C28.6263 50.0197 28.3563 52.2697 27.3863 54.1598C26.5263 49.4997 22.7563 45.4899 18.1563 44.3598C20.4763 46.3998 22.0063 49.3197 22.4463 52.3798C15.3363 45.6398 13.1563 35.8998 12.7063 33.4599C12.6464 33.1298 12.8363 32.8097 13.1464 32.6899C22.5363 28.9599 25.6163 20.6999 26.4963 17.4299C26.6363 16.8898 27.3263 16.7297 27.6863 17.1498C30.0163 19.8298 36.7163 26.4599 45.7163 26.0099C46.0563 25.9997 46.3563 26.2099 46.4363 26.5397C47.3063 29.9797 51.1563 48.4299 36.8263 57.8798Z"/><path stroke="black" stroke-linecap="round" stroke-linejoin="round" stroke-miterlimit="10" d="M27.3281 40.0721L31.1282 43.1597L37.0537 32.2832"/><path stroke="black" stroke-linecap="round" stroke-linejoin="round" stroke-miterlimit="10" d="M9.49194 26.0786C9.22119 25.8252 9.13745 25.4264 9.14899 25.0558C9.16052 24.6852 9.25208 24.3209 9.27002 23.9506C9.31226 23.0771 8.91534 22.1934 8.23438 21.6447C8.91205 21.5988 9.60413 21.816 10.134 22.2408C10.664 22.6657 11.0266 23.294 11.1292 23.9654"/><path stroke="black" stroke-linecap="round" stroke-linejoin="round" stroke-miterlimit="10" d="M33.7534 16.6356C33.4496 16.2783 33.4944 15.7286 33.7036 15.3089C33.9127 14.8891 34.2556 14.5542 34.5389 14.1805C35.1508 13.3735 35.4872 12.3614 35.48 11.3486C36.3922 12.8196 36.8586 14.563 36.8026 16.293C36.781 16.9588 36.637 17.7023 36.087 18.0781"/><path stroke="black" stroke-linecap="round" stroke-linejoin="round" stroke-miterlimit="10" d="M21.2318 64.7319C19.7769 64.2036 18.6054 62.9518 18.1745 61.4652C17.7833 60.1155 17.9833 58.6713 18.238 57.2893C18.4926 55.9072 18.8002 54.5024 18.6146 53.1094C18.4288 51.7164 17.6313 50.3068 16.3086 49.8322C18.9351 50.8033 21.1905 52.744 22.5428 55.1961C22.8626 51.1667 21.1862 47.0269 18.1527 44.3555C22.7589 45.4944 26.5255 49.4949 27.3851 54.1614C28.3607 52.2686 28.628 50.021 28.1236 47.9522C30.3574 51.0073 32.6833 54.3197 32.7875 58.1029C32.8558 60.5833 31.8936 63.0762 30.1765 64.8675"/><path stroke="black" stroke-linecap="round" stroke-linejoin="round" stroke-miterlimit="10" d="M23.3995 63.7946C22.7903 63.4404 22.3777 62.8134 22.1437 62.1487C21.9096 61.4839 21.8353 60.7753 21.7626 60.0743C21.6584 59.0704 21.5543 58.0665 21.4502 57.0627C22.9604 57.6936 24.118 59.1071 24.4388 60.7121C25.4648 58.4896 25.3301 55.7685 24.0898 53.6582C25.8503 55.0557 26.9637 57.2373 27.0624 59.4829C27.9654 58.7285 28.5504 57.605 28.6507 56.4326C29.2808 57.6302 29.5092 59.035 29.2907 60.3706C29.0723 61.7062 28.4083 62.965 27.4294 63.8995"/></svg>