<svg xmlns="http://www.w3.org/2000/svg" xmlns:xlink="http://www.w3.org/1999/xlink" width="49" height="66" fill="none" viewBox="0 0 49 66"><path stroke="url(#pattern0_137_3233)" stroke-linecap="round" stroke-linejoin="round" stroke-miterlimit="10" d="M40.525 55.4402C40.405 56.4902 40.1949 57.5403 39.895 58.5603C39.6749 59.3203 39.5649 59.9402 39.0649 60.5803C38.2149 61.6602 36.995 62.4001 35.765 62.9602C30.9549 65.1501 25.1649 65.2502 19.995 64.7402C14.9749 64.2402 9.71493 63.0303 5.36496 60.3801C3.89499 59.4902 2.43491 58.3801 1.52499 56.9001C0.82492 55.7402 0.81491 54.7502 0.934906 53.4302C1.02499 52.5403 1.13498 51.6501 1.33493 50.7803C1.39499 50.5103 1.46493 50.2402 1.54489 49.9702C1.59494 49.8003 1.655 49.6301 1.77499 49.5303C1.71493 49.7703 1.6749 50.0103 1.66489 50.2603C1.45493 54.9001 10.0449 59.5303 20.8549 60.6101C30.625 61.5803 38.865 59.3103 40.525 55.4402Z"/><path stroke="#1F1D1A" stroke-linecap="round" stroke-linejoin="round" stroke-miterlimit="10" stroke-opacity="0.96" d="M40.525 55.4402C40.405 56.4902 40.1949 57.5403 39.895 58.5603C39.6749 59.3203 39.5649 59.9402 39.0649 60.5803C38.2149 61.6602 36.995 62.4001 35.765 62.9602C30.9549 65.1501 25.1649 65.2502 19.995 64.7402C14.9749 64.2402 9.71493 63.0303 5.36496 60.3801C3.89499 59.4902 2.43491 58.3801 1.52499 56.9001C0.82492 55.7402 0.81491 54.7502 0.934906 53.4302C1.02499 52.5403 1.13498 51.6501 1.33493 50.7803C1.39499 50.5103 1.46493 50.2402 1.54489 49.9702C1.59494 49.8003 1.655 49.6301 1.77499 49.5303C1.71493 49.7703 1.6749 50.0103 1.66489 50.2603C1.45493 54.9001 10.0449 59.5303 20.8549 60.6101C30.625 61.5803 38.865 59.3103 40.525 55.4402Z"/><path stroke="url(#pattern1_137_3233)" stroke-linecap="round" stroke-linejoin="round" stroke-miterlimit="10" d="M40.8249 54.1504C40.8049 54.6006 40.7049 55.0305 40.525 55.4404C38.865 59.3105 30.625 61.5806 20.855 60.6104C10.0449 59.5305 1.45494 54.9004 1.6649 50.2605C1.67491 50.0105 1.71495 49.7705 1.77501 49.5305C2.53502 46.5505 7.015 44.4104 13.1849 43.7705C13.735 44.5305 14.3049 45.2705 14.895 45.9905C15.9649 47.2905 17.005 48.6304 18.145 49.8706C19.125 50.9504 20.475 52.9304 22.105 52.3506C22.9549 52.0505 23.6849 51.4705 24.405 50.9104C26.595 49.2004 28.775 47.4805 30.975 45.7605C36.985 47.7905 40.975 50.9705 40.8249 54.1504Z"/><path stroke="#1F1D1A" stroke-linecap="round" stroke-linejoin="round" stroke-miterlimit="10" stroke-opacity="0.96" d="M40.8249 54.1504C40.8049 54.6006 40.7049 55.0305 40.525 55.4404C38.865 59.3105 30.625 61.5806 20.855 60.6104C10.0449 59.5305 1.45494 54.9004 1.6649 50.2605C1.67491 50.0105 1.71495 49.7705 1.77501 49.5305C2.53502 46.5505 7.015 44.4104 13.1849 43.7705C13.735 44.5305 14.3049 45.2705 14.895 45.9905C15.9649 47.2905 17.005 48.6304 18.145 49.8706C19.125 50.9504 20.475 52.9304 22.105 52.3506C22.9549 52.0505 23.6849 51.4705 24.405 50.9104C26.595 49.2004 28.775 47.4805 30.975 45.7605C36.985 47.7905 40.975 50.9705 40.8249 54.1504Z"/><path stroke="url(#pattern2_137_3233)" stroke-linecap="round" stroke-linejoin="round" stroke-miterlimit="10" d="M29.8047 4.48047C34.5947 5.97049 39.0547 9.17047 41.5947 13.5305C45.0747 19.4905 43.3147 26.8805 42.6348 33.3205C42.5048 33.3205 41.8447 40.7605 41.7748 41.4505C41.4948 44.1305 41.1747 46.8105 40.9847 49.5005C40.9048 50.6805 40.8147 51.8605 40.7347 53.0405"/><path stroke="#1F1D1A" stroke-linecap="round" stroke-linejoin="round" stroke-miterlimit="10" stroke-opacity="0.96" d="M29.8047 4.48047C34.5947 5.97049 39.0547 9.17047 41.5947 13.5305C45.0747 19.4905 43.3147 26.8805 42.6348 33.3205C42.5048 33.3205 41.8447 40.7605 41.7748 41.4505C41.4948 44.1305 41.1747 46.8105 40.9847 49.5005C40.9048 50.6805 40.8147 51.8605 40.7347 53.0405"/><path stroke="url(#pattern3_137_3233)" stroke-linecap="round" stroke-linejoin="round" stroke-miterlimit="10" d="M1.33496 50.7803C1.42493 48.3003 1.51501 45.8203 1.60498 43.3403C1.76501 38.6703 1.93494 34.0003 2.10498 29.3203C2.23499 25.5003 1.97498 21.3603 3.15503 17.6903C4.17493 14.5203 6.005 11.6303 8.38501 9.31033C9.46497 8.27032 10.6649 7.34033 11.9449 6.56033C14.725 4.87033 17.895 3.87033 21.135 3.57031"/><path stroke="#1F1D1A" stroke-linecap="round" stroke-linejoin="round" stroke-miterlimit="10" stroke-opacity="0.96" d="M1.33496 50.7803C1.42493 48.3003 1.51501 45.8203 1.60498 43.3403C1.76501 38.6703 1.93494 34.0003 2.10498 29.3203C2.23499 25.5003 1.97498 21.3603 3.15503 17.6903C4.17493 14.5203 6.005 11.6303 8.38501 9.31033C9.46497 8.27032 10.6649 7.34033 11.9449 6.56033C14.725 4.87033 17.895 3.87033 21.135 3.57031"/><path stroke="url(#pattern4_137_3233)" stroke-linecap="round" stroke-linejoin="round" stroke-miterlimit="10" d="M30.0246 4.88037C29.9946 5.2605 29.9645 5.63037 29.9345 6.00049C29.9145 6.14038 29.9145 6.27051 29.8846 6.39038C29.8646 6.50049 29.8245 6.60059 29.7546 6.70044C29.5346 7.0105 29.2246 7.21045 28.8746 7.35059C27.8045 7.81055 26.5545 7.87061 25.4145 7.81055C24.2045 7.75049 22.8746 7.56055 21.8145 6.94043C21.5046 6.77051 21.1645 6.53052 21.0346 6.18042C20.8045 5.54053 20.9046 4.65039 20.9846 4.00049C20.9946 3.90039 21.0146 3.79053 21.0845 3.72046C21.0945 3.71045 21.1046 3.70044 21.1246 3.69043C21.1645 4.58057 23.1346 5.40039 25.5346 5.5105C27.9145 5.63037 29.8646 5.02051 29.9445 4.14038C29.9846 4.20044 30.0046 4.2605 30.0146 4.32056C30.0545 4.5105 30.0445 4.70044 30.0246 4.88037Z"/><path stroke="#1F1D1A" stroke-linecap="round" stroke-linejoin="round" stroke-miterlimit="10" stroke-opacity="0.96" d="M30.0246 4.88037C29.9946 5.2605 29.9645 5.63037 29.9345 6.00049C29.9145 6.14038 29.9145 6.27051 29.8846 6.39038C29.8646 6.50049 29.8245 6.60059 29.7546 6.70044C29.5346 7.0105 29.2246 7.21045 28.8746 7.35059C27.8045 7.81055 26.5545 7.87061 25.4145 7.81055C24.2045 7.75049 22.8746 7.56055 21.8145 6.94043C21.5046 6.77051 21.1645 6.53052 21.0346 6.18042C20.8045 5.54053 20.9046 4.65039 20.9846 4.00049C20.9946 3.90039 21.0146 3.79053 21.0845 3.72046C21.0945 3.71045 21.1046 3.70044 21.1246 3.69043C21.1645 4.58057 23.1346 5.40039 25.5346 5.5105C27.9145 5.63037 29.8646 5.02051 29.9445 4.14038C29.9846 4.20044 30.0046 4.2605 30.0146 4.32056C30.0545 4.5105 30.0445 4.70044 30.0246 4.88037Z"/><path stroke="url(#pattern5_137_3233)" stroke-linecap="round" stroke-linejoin="round" stroke-miterlimit="10" d="M29.955 4.08057C29.955 4.10059 29.955 4.12061 29.9449 4.14038C29.9349 4.2605 29.895 4.37061 29.8049 4.48047C29.335 5.17041 27.595 5.61035 25.535 5.5105C23.135 5.40039 21.1649 4.58057 21.125 3.69043V3.6604C21.125 3.63037 21.125 3.60059 21.135 3.57056C21.245 2.86035 22.5549 2.33057 24.335 2.23047C24.265 2.44043 24.205 2.65039 24.155 2.83057C24.095 3.08057 24.0649 3.36035 24.1949 3.58057C24.355 3.87061 24.705 3.96045 25.025 4.03052C25.345 4.10059 25.6849 4.17041 26.025 4.13037C26.355 4.10059 26.6949 3.96045 26.895 3.70044C27.145 3.38037 27.155 2.94043 27.085 2.54053C27.075 2.49048 27.0649 2.45044 27.0549 2.40039C28.745 2.71045 29.955 3.38037 29.955 4.08057Z"/><path stroke="#1F1D1A" stroke-linecap="round" stroke-linejoin="round" stroke-miterlimit="10" stroke-opacity="0.96" d="M29.955 4.08057C29.955 4.10059 29.955 4.12061 29.9449 4.14038C29.9349 4.2605 29.895 4.37061 29.8049 4.48047C29.335 5.17041 27.595 5.61035 25.535 5.5105C23.135 5.40039 21.1649 4.58057 21.125 3.69043V3.6604C21.125 3.63037 21.125 3.60059 21.135 3.57056C21.245 2.86035 22.5549 2.33057 24.335 2.23047C24.265 2.44043 24.205 2.65039 24.155 2.83057C24.095 3.08057 24.0649 3.36035 24.1949 3.58057C24.355 3.87061 24.705 3.96045 25.025 4.03052C25.345 4.10059 25.6849 4.17041 26.025 4.13037C26.355 4.10059 26.6949 3.96045 26.895 3.70044C27.145 3.38037 27.155 2.94043 27.085 2.54053C27.075 2.49048 27.0649 2.45044 27.0549 2.40039C28.745 2.71045 29.955 3.38037 29.955 4.08057Z"/><path stroke="url(#pattern6_137_3233)" stroke-linecap="round" stroke-linejoin="round" stroke-miterlimit="10" d="M26.8949 3.70016C26.6948 3.96016 26.3548 4.1003 26.0249 4.13009C25.6848 4.17013 25.3448 4.1003 25.0249 4.03023C24.7048 3.96016 24.3548 3.87032 24.1948 3.58028C24.0648 3.36007 24.0948 3.08028 24.1549 2.83028C24.2048 2.65011 24.2649 2.44015 24.3348 2.23018C24.4848 1.8503 24.6948 1.46016 24.9648 1.21016C25.3548 0.860067 26.0648 0.980184 26.4348 1.29024C26.7749 1.56026 26.9648 1.98018 27.0548 2.40011C27.0648 2.45015 27.0748 2.49019 27.0848 2.54024C27.1549 2.94015 27.1449 3.38009 26.8949 3.70016Z"/><path stroke="#1F1D1A" stroke-linecap="round" stroke-linejoin="round" stroke-miterlimit="10" stroke-opacity="0.96" d="M26.8949 3.70016C26.6948 3.96016 26.3548 4.1003 26.0249 4.13009C25.6848 4.17013 25.3448 4.1003 25.0249 4.03023C24.7048 3.96016 24.3548 3.87032 24.1948 3.58028C24.0648 3.36007 24.0948 3.08028 24.1549 2.83028C24.2048 2.65011 24.2649 2.44015 24.3348 2.23018C24.4848 1.8503 24.6948 1.46016 24.9648 1.21016C25.3548 0.860067 26.0648 0.980184 26.4348 1.29024C26.7749 1.56026 26.9648 1.98018 27.0548 2.40011C27.0648 2.45015 27.0748 2.49019 27.0848 2.54024C27.1549 2.94015 27.1449 3.38009 26.8949 3.70016Z"/><path fill="#0870EE" d="M38.9253 36.9606C37.5753 40.5106 34.4453 43.0406 31.4654 45.3805C31.3053 45.5106 31.1354 45.6405 30.9754 45.7606C28.7754 47.4806 26.5954 49.2006 24.4054 50.9105C23.6853 51.4706 22.9553 52.0507 22.1054 52.3507C20.4754 52.9305 19.1254 50.9506 18.1454 49.8707C17.0054 48.6305 15.9654 47.2906 14.8954 45.9906C14.3053 45.2706 13.7354 44.5306 13.1853 43.7706C11.8354 41.9205 10.5854 39.9706 9.44534 38.0406C8.28543 36.0707 7.26541 34.0406 6.49539 31.9105C5.62539 29.4706 5.17532 26.8307 5.62539 24.2806C6.44534 19.6905 10.4553 16.1007 15.1853 16.3404C17.8654 16.4806 20.4153 17.8107 22.2154 19.7806C22.7953 20.4305 23.2953 21.1505 23.6653 21.9305C23.8554 22.3307 24.0154 22.7406 24.1354 23.1705C24.2654 23.6007 24.2854 24.0607 24.4153 24.4806C24.6454 24.4205 24.8954 24.1905 25.1054 24.0707C25.3654 23.9305 25.6354 23.7906 25.9054 23.6705C26.4453 23.4405 27.0154 23.2506 27.5954 23.1207C28.5753 22.9105 29.6554 22.7306 30.6454 22.8805C32.9453 23.2406 35.1454 24.3307 36.7454 26.0306C39.4353 28.8805 40.3153 33.3007 38.9253 36.9606Z"/><path stroke="url(#pattern7_137_3233)" stroke-linecap="round" stroke-linejoin="round" stroke-miterlimit="10" d="M38.9253 36.9606C37.5753 40.5106 34.4453 43.0406 31.4654 45.3805C31.3053 45.5106 31.1354 45.6405 30.9754 45.7606C28.7754 47.4806 26.5954 49.2006 24.4054 50.9105C23.6853 51.4706 22.9553 52.0507 22.1054 52.3507C20.4754 52.9305 19.1254 50.9506 18.1454 49.8707C17.0054 48.6305 15.9654 47.2906 14.8954 45.9906C14.3053 45.2706 13.7354 44.5306 13.1853 43.7706C11.8354 41.9205 10.5854 39.9706 9.44534 38.0406C8.28543 36.0707 7.26541 34.0406 6.49539 31.9105C5.62539 29.4706 5.17532 26.8307 5.62539 24.2806C6.44534 19.6905 10.4553 16.1007 15.1853 16.3404C17.8654 16.4806 20.4153 17.8107 22.2154 19.7806C22.7953 20.4305 23.2953 21.1505 23.6653 21.9305C23.8554 22.3307 24.0154 22.7406 24.1354 23.1705C24.2654 23.6007 24.2854 24.0607 24.4153 24.4806C24.6454 24.4205 24.8954 24.1905 25.1054 24.0707C25.3654 23.9305 25.6354 23.7906 25.9054 23.6705C26.4453 23.4405 27.0154 23.2506 27.5954 23.1207C28.5753 22.9105 29.6554 22.7306 30.6454 22.8805C32.9453 23.2406 35.1454 24.3307 36.7454 26.0306C39.4353 28.8805 40.3153 33.3007 38.9253 36.9606Z"/><path stroke="#1F1D1A" stroke-linecap="round" stroke-linejoin="round" stroke-miterlimit="10" stroke-opacity="0.96" d="M38.9253 36.9606C37.5753 40.5106 34.4453 43.0406 31.4654 45.3805C31.3053 45.5106 31.1354 45.6405 30.9754 45.7606C28.7754 47.4806 26.5954 49.2006 24.4054 50.9105C23.6853 51.4706 22.9553 52.0507 22.1054 52.3507C20.4754 52.9305 19.1254 50.9506 18.1454 49.8707C17.0054 48.6305 15.9654 47.2906 14.8954 45.9906C14.3053 45.2706 13.7354 44.5306 13.1853 43.7706C11.8354 41.9205 10.5854 39.9706 9.44534 38.0406C8.28543 36.0707 7.26541 34.0406 6.49539 31.9105C5.62539 29.4706 5.17532 26.8307 5.62539 24.2806C6.44534 19.6905 10.4553 16.1007 15.1853 16.3404C17.8654 16.4806 20.4153 17.8107 22.2154 19.7806C22.7953 20.4305 23.2953 21.1505 23.6653 21.9305C23.8554 22.3307 24.0154 22.7406 24.1354 23.1705C24.2654 23.6007 24.2854 24.0607 24.4153 24.4806C24.6454 24.4205 24.8954 24.1905 25.1054 24.0707C25.3654 23.9305 25.6354 23.7906 25.9054 23.6705C26.4453 23.4405 27.0154 23.2506 27.5954 23.1207C28.5753 22.9105 29.6554 22.7306 30.6454 22.8805C32.9453 23.2406 35.1454 24.3307 36.7454 26.0306C39.4353 28.8805 40.3153 33.3007 38.9253 36.9606Z"/><path fill="#F2F2F2" stroke="#282623" d="M18.8929 31.7158L25.3214 23.9971L22.75 31.1221L27.25 34.6846L18.25 42.9971L23.3929 34.6846L18.8929 31.7158Z"/><path stroke="url(#pattern8_137_3233)" stroke-linecap="round" stroke-linejoin="round" stroke-miterlimit="10" d="M47.6234 11.1894C47.4807 10.1493 46.5184 9.38538 45.51 9.09369C44.5014 8.80203 43.43 8.87259 42.3806 8.84137C41.3313 8.81015 40.2242 8.64966 39.4073 7.9902C38.6777 7.40125 38.2845 6.50037 37.6977 5.76895C36.0771 3.74869 32.8157 3.31079 30.7196 4.83203C30.5644 3.83051 31.4121 2.36768 32.4151 2.2226C33.2568 2.10086 34.1876 2.52756 34.9298 2.1123"/><path stroke="#1F1D1A" stroke-linecap="round" stroke-linejoin="round" stroke-miterlimit="10" stroke-opacity="0.96" d="M47.6234 11.1894C47.4807 10.1493 46.5184 9.38538 45.51 9.09369C44.5014 8.80203 43.43 8.87259 42.3806 8.84137C41.3313 8.81015 40.2242 8.64966 39.4073 7.9902C38.6777 7.40125 38.2845 6.50037 37.6977 5.76895C36.0771 3.74869 32.8157 3.31079 30.7196 4.83203C30.5644 3.83051 31.4121 2.36768 32.4151 2.2226C33.2568 2.10086 34.1876 2.52756 34.9298 2.1123"/><path stroke="url(#pattern9_137_3233)" stroke-linecap="round" stroke-linejoin="round" stroke-miterlimit="10" d="M30.7676 10.3027C33.5194 11.425 35.7528 13.756 36.7563 16.5534"/><path stroke="#1F1D1A" stroke-linecap="round" stroke-linejoin="round" stroke-miterlimit="10" stroke-opacity="0.96" d="M30.7676 10.3027C33.5194 11.425 35.7528 13.756 36.7563 16.5534"/><path stroke="url(#pattern10_137_3233)" stroke-linecap="round" stroke-linejoin="round" stroke-miterlimit="10" d="M37.3916 18.8242C37.4493 19.1273 37.5071 19.4305 37.5648 19.7336"/><path stroke="#1F1D1A" stroke-linecap="round" stroke-linejoin="round" stroke-miterlimit="10" stroke-opacity="0.96" d="M37.3916 18.8242C37.4493 19.1273 37.5071 19.4305 37.5648 19.7336"/></svg>