<svg xmlns="http://www.w3.org/2000/svg" width="71" height="66" fill="none" viewBox="0 0 71 66"><path fill="white" stroke="black" stroke-linecap="round" stroke-linejoin="round" stroke-miterlimit="10" d="M15.1233 8.18896C15.2633 9.89102 15.5218 11.582 15.8773 13.2517C16.3836 15.6754 17.0838 18.0668 18.0425 20.3613C19.1413 22.9681 20.5631 25.4457 22.3943 27.6001C22.5882 27.8262 22.7822 28.0524 22.9976 28.2681L22.1574 28.4295C21.9096 28.1602 21.6619 27.8801 21.4141 27.6001C19.5829 25.4457 18.161 22.9681 17.073 20.3613C16.1143 18.0668 15.4033 15.6754 14.8971 13.2517C14.5524 11.582 14.2939 9.89102 14.143 8.18896C14.0784 7.44576 14.6062 6.77777 15.3387 6.65943C17.9886 6.21761 24.1179 4.86059 27.7588 1.39179C28.1466 1.02571 28.696 0.907102 29.2022 1.06884C29.2238 1.07936 29.2346 1.07936 29.2561 1.07936C29.0622 1.14405 28.8899 1.25188 28.739 1.39179C25.0873 4.86059 18.9581 6.21761 16.3082 6.65943C15.5757 6.77777 15.0586 7.44576 15.1233 8.18896Z"/><path fill="white" stroke="black" stroke-linecap="round" stroke-linejoin="round" stroke-miterlimit="10" d="M43.6475 1.48842C41.0946 1.96232 38.8432 2.11328 36.9365 2.08093C38.6924 2.05937 40.6959 1.87633 42.9365 1.44529C43.1843 1.40216 43.4213 1.42373 43.6475 1.48842Z"/><path stroke="black" stroke-linecap="round" stroke-linejoin="round" stroke-miterlimit="10" d="M43.0553 28.1708L42.366 27.7613L38.5526 25.5317C38.3372 25.4023 38.0787 25.3592 37.8309 25.4023L22.9979 28.2678C22.7825 28.0522 22.5886 27.826 22.3947 27.5998C20.5634 25.4454 19.1416 22.9678 18.0428 20.3611C17.0841 18.0665 16.384 15.6752 15.8777 13.2515C15.5222 11.5818 15.2637 9.89077 15.1236 8.18871C15.059 7.44551 15.5761 6.77752 16.3086 6.65918C18.9584 6.21736 25.0877 4.86034 28.7394 1.39154C28.8902 1.25163 29.0625 1.1438 29.2564 1.07911C29.5473 0.971546 29.8704 0.971545 30.1829 1.06859C31.3247 1.44545 33.6191 2.03796 36.9368 2.08109C38.8435 2.11344 41.0949 1.96248 43.6478 1.48858H43.6585C43.7447 1.4778 43.8309 1.46701 43.9171 1.44545C44.6173 1.31632 45.3175 1.72553 45.5436 2.40404C46.7717 6.22814 49.8524 18.4005 43.0553 28.1708Z"/><path fill="#0870EE" stroke="black" stroke-linecap="round" stroke-linejoin="round" stroke-miterlimit="10" d="M69.2956 45.7189L54.7535 47.3132C54.915 46.4945 55.0766 45.665 55.1197 44.8248C55.1305 44.5123 55.1197 44.2431 55.0659 43.9845C54.9042 43.0799 54.3441 42.4981 53.5577 41.7223C51.6512 39.8804 49.2382 38.5986 46.793 37.5968C43.4214 36.2072 39.8666 35.2163 36.258 34.6561C36.0533 34.6238 35.8486 34.5914 35.644 34.5591C35.5901 34.5483 35.5363 34.5483 35.4824 34.5375C34.8146 34.4407 34.1467 34.3652 33.4789 34.3005C32.9833 34.2466 32.4986 34.2145 32.0031 34.1819C29.7948 34.0312 27.5758 34.042 25.3675 34.2035C22.3837 34.4299 19.0336 34.6345 16.5561 36.4765C15.759 37.0582 15.662 37.8553 15.5219 38.76C15.4142 39.4064 15.3173 40.0529 15.2096 40.7098L1.86309 34.2574C0.969068 33.8266 1.14139 32.4909 2.12161 32.3079L22.1575 28.4299L22.9977 28.2684L37.8307 25.4029C38.0784 25.3598 38.337 25.4029 38.5524 25.5323L42.3657 27.7619L43.0551 28.1714L69.705 43.7907C70.5667 44.297 70.2866 45.6111 69.2956 45.7189Z"/><path fill="#0870EE" stroke="black" stroke-linecap="round" stroke-linejoin="round" stroke-miterlimit="10" d="M55.1201 44.8244C55.077 45.6646 54.9154 46.4941 54.7539 47.3128C54.6246 47.9484 54.4953 48.573 54.4199 49.2087C54.1937 51.1153 53.9675 53.022 53.7413 54.9176C53.6659 55.564 53.5259 56.3072 53.0627 56.7059C53.0734 56.6412 53.0734 56.5765 53.0734 56.5013C53.0627 56.0163 52.8472 55.5209 52.4379 55.0254C50.2189 52.2677 42.463 49.327 33.2422 47.9484C25.2171 46.7418 18.3446 47.065 15.2746 48.5299C14.5098 48.907 13.9819 49.3486 13.7342 49.8548C13.6696 49.3162 13.9497 48.4975 14.0251 48.0883C14.3267 46.2356 14.6175 44.3721 14.9191 42.5193C15.0161 41.916 15.113 41.3127 15.21 40.7094C15.3177 40.0525 15.4146 39.4061 15.5223 38.7596C15.6624 37.855 15.7593 37.0578 16.5565 36.4761C19.034 34.6342 22.3841 34.4295 25.3679 34.2031C28.7934 33.9449 32.2404 34.0632 35.6444 34.5587C39.4685 35.1081 43.2279 36.1313 46.7934 37.5964C49.2386 38.5982 51.6515 39.88 53.5581 41.7219C54.3445 42.4977 54.9046 43.0795 55.0662 43.9841C55.1201 44.2427 55.1309 44.512 55.1201 44.8244Z"/><path stroke="black" stroke-linecap="round" stroke-linejoin="round" stroke-miterlimit="10" d="M53.0732 56.5004C53.0732 56.5756 53.0732 56.6403 53.0624 56.705C52.7069 59.6458 44.057 60.7445 33.3927 59.1503C22.4915 57.5129 13.6047 53.678 13.5615 50.5758C13.5615 50.3173 13.6154 50.0804 13.7339 49.8539C13.9816 49.3477 14.5095 48.9061 15.2743 48.529C18.3443 47.0642 25.2168 46.741 33.2419 47.9476C42.4627 49.3261 50.2186 52.2669 52.4376 55.0245C52.8469 55.52 53.0624 56.0155 53.0732 56.5004Z"/><path stroke="black" stroke-linecap="round" stroke-linejoin="round" stroke-miterlimit="10" d="M52.4375 55.0201C49.3673 56.4993 42.4818 56.822 34.4617 55.6208C25.2402 54.2303 17.476 51.2824 15.2734 48.5349C18.3436 47.0665 25.2179 46.7439 33.2381 47.9453C42.4595 49.3247 50.2239 52.2723 52.4375 55.0201Z"/><path stroke="black" stroke-linecap="round" stroke-linejoin="round" stroke-miterlimit="10" d="M29.2666 9.41935C29.9294 8.2608 31.2882 7.6615 32.6115 7.48763C35.025 7.17053 37.5684 8.08878 39.2228 9.87453C40.8771 11.6603 41.5987 14.2663 41.0984 16.6486"/><path stroke="black" stroke-linecap="round" stroke-linejoin="round" stroke-miterlimit="10" d="M26.4513 15.3174C26.0611 17.1325 26.5563 19.1169 27.7537 20.5359C28.951 21.9548 30.8239 22.7768 32.6788 22.6974"/><path stroke="black" stroke-linecap="round" stroke-linejoin="round" stroke-miterlimit="10" d="M30.874 15.9245C31.0461 16.2949 31.2254 16.6756 31.5262 16.9518C31.827 17.2281 32.283 17.3769 32.6532 17.2043C32.8858 17.0958 33.0487 16.882 33.2021 16.6762C34.0851 15.4912 34.9681 14.3061 35.8511 13.1211"/><path stroke="black" stroke-linecap="round" stroke-linejoin="round" stroke-miterlimit="10" d="M49.21 31.449C51.1399 27.3549 56.2432 25.0611 60.5863 26.3357C62.4739 26.8896 64.3292 28.5755 65.2957 30.2891C65.8938 31.3497 66.0481 32.7523 65.3528 33.7518C64.6574 34.7514 62.9753 35.0077 62.2239 34.0495C61.5598 33.2025 61.9572 31.8285 62.8737 31.2642C63.7902 30.6998 65.0166 30.8451 65.9426 31.3938C68.0406 32.6369 68.6074 35.5275 68.0118 37.8923C67.0487 41.7165 64.1188 44.6188 62.1962 47.9557C61.4721 49.2124 60.7932 50.6509 61.1273 52.0622C61.4264 53.3255 62.4618 54.2521 63.3041 55.2399C63.9885 56.0426 64.5879 57.0857 64.5236 58.0926"/><path stroke="black" stroke-linecap="round" stroke-linejoin="round" stroke-miterlimit="10" d="M62.5859 59.954C62.9256 59.2975 63.5464 58.7836 64.2652 58.6114C65.2733 58.3699 66.3621 58.8199 67.0731 59.5742C67.7841 60.3285 68.1612 61.3436 68.3487 62.3631C68.4534 62.9324 68.4989 63.5455 68.2481 64.0672C67.9973 64.5889 67.3598 64.9618 66.8249 64.7406C66.4399 64.5813 66.1305 64.1481 65.7206 64.2228C65.4198 64.2775 65.2449 64.5843 65.0056 64.7746C64.4478 65.2181 63.567 64.9496 63.1154 64.3983C62.2441 63.3346 61.9545 61.1745 62.5859 59.954Z"/></svg>