<svg xmlns="http://www.w3.org/2000/svg" width="60" height="66" fill="none" viewBox="0 0 60 66"><path stroke="black" stroke-linecap="round" stroke-linejoin="round" stroke-miterlimit="10" d="M30.1582 38.3379C32.4571 41.3976 35.0781 44.6711 38.8203 45.4732C41.0253 45.9459 43.4226 45.4341 45.2424 44.1022C46.1036 43.4719 46.8694 42.6532 47.8866 42.33C49.221 41.9061 50.6691 42.4376 51.887 43.1282C53.105 43.8187 54.2585 44.6881 55.6191 45.0181C56.9798 45.3481 58.6643 44.9385 59.2475 43.6656C59.0231 44.7023 58.7899 45.7614 58.2346 46.6652C57.6794 47.5689 56.7312 48.3036 55.6705 48.3107C53.7132 48.3238 52.5529 46.0847 50.7598 45.2998C49.239 44.6341 47.4577 45.1078 45.9719 45.8483C44.4861 46.5888 43.1134 47.5932 41.5184 48.0536C38.7452 48.8541 35.5243 47.7298 33.8516 45.3775"/><path fill="#0870EE" stroke="black" stroke-linecap="round" stroke-linejoin="round" stroke-miterlimit="10" d="M39.4702 55.9734C38.8102 57.4033 37.1002 64.9934 37.1002 64.9934C35.9102 63.5332 28.3802 59.6533 28.3802 59.6533L23.7002 40.5833C24.0502 40.7632 24.4202 40.9033 24.8002 40.9834C26.5302 41.3733 28.4502 40.7134 29.5802 39.3333C29.8502 39.0034 30.0602 38.6533 30.2302 38.2734L39.4702 55.9734Z"/><path fill="#0870EE" stroke="black" stroke-linecap="round" stroke-linejoin="round" stroke-miterlimit="10" d="M30.2303 38.2736C30.0604 38.6535 29.8503 39.0036 29.5803 39.3334C28.4503 40.7135 26.5303 41.3735 24.8004 40.9836C24.4203 40.9035 24.0504 40.7633 23.7003 40.5834C22.4803 39.9435 21.5203 38.7834 21.1903 37.4335L21.0703 37.3034C21.4304 36.5133 21.8604 35.7536 22.3403 35.0236C22.4503 34.8434 22.5703 34.6735 22.6903 34.5036C22.7903 34.3634 22.8903 34.2035 23.0003 34.0436C23.2703 33.6335 23.5703 33.2135 23.9304 32.9535C24.2903 32.6935 24.6804 32.6635 25.0803 32.7135C25.1903 32.7336 25.3004 32.7536 25.4103 32.7736C25.6303 32.8234 25.8403 32.8735 26.0504 32.9235C26.3903 32.9936 26.7203 33.0734 27.0504 33.1735C27.2503 33.2135 27.4603 33.2736 27.6503 33.3434C28.5803 33.6134 29.4803 33.9635 30.3503 34.3735C30.3903 34.5934 30.4304 34.8234 30.4904 35.0534C30.7503 36.1335 30.6603 37.2736 30.2303 38.2736Z"/><path fill="#0870EE" stroke="black" stroke-linecap="round" stroke-linejoin="round" stroke-miterlimit="10" d="M40.65 35.0835C40.18 36.6736 39.6 38.4436 38.69 39.8435C38.02 40.8835 37.19 39.5535 36.65 38.9636C36.09 38.3535 35.49 37.7834 34.86 37.2537C33.6 36.1836 32.2 35.2737 30.72 34.5437C30.6 34.4836 30.48 34.4236 30.35 34.3735C29.48 33.9636 28.58 33.6135 27.65 33.3435C27.13 33.1736 26.59 33.0334 26.05 32.9236C25.73 32.8535 25.4 32.7537 25.08 32.7136C24.68 32.6636 24.29 32.6936 23.93 32.9536C23.57 33.2136 23.27 33.6335 23 34.0437C22.89 34.2036 22.79 34.3635 22.69 34.5037C22.57 34.6736 22.45 34.8435 22.34 35.0237C21.86 35.7537 21.43 36.5134 21.07 37.3035C20.92 37.5935 20.79 37.8936 20.67 38.1936C19.61 40.7634 19.11 43.5535 19.25 46.3335C19.26 46.7136 19.29 47.1335 19.08 47.4536C18.5 48.3235 14.95 46.2036 14.29 45.7937C12.82 44.8735 11.45 43.7336 10.16 42.6335C7.29 40.1736 4.70998 37.3135 2.81997 34.0334C2.18996 32.9336 1.62997 31.7737 1.37997 30.5334C1.12997 29.2834 1.23 27.9436 1.85 26.8435C1.87997 26.7937 1.91 26.7437 1.93996 26.7036C1.94997 26.8335 1.99001 26.9536 2.05001 27.0835C2.68996 28.3735 4.38998 29.5835 5.56002 30.3535C8.30001 32.1836 11.62 33.1335 14.91 33.2737C17.48 33.3735 20.07 33.0437 22.52 32.2937C22.73 32.2336 22.95 32.1636 23.15 32.0935C24.5 31.6335 25.8 31.0635 27.04 30.3635C27.05 30.3635 27.06 30.3435 27.07 30.3435C29.35 29.0437 31.26 27.4736 32.78 25.4736C33.27 24.8135 33.73 24.1235 34.14 23.3735C35.14 21.5334 35.96 19.5935 36.56 17.5835C36.99 16.1536 37.52 14.6836 36.73 13.6836C38.32 13.8535 39.31 16.2236 39.84 17.4736C40.81 19.8335 41.42 22.3335 41.66 24.8635C41.99 28.2937 41.64 31.7834 40.65 35.0835Z"/><path stroke="black" stroke-linecap="round" stroke-linejoin="round" stroke-miterlimit="10" d="M15.6598 29.6941C17.9697 31.0042 20.5097 31.854 23.1497 32.094C22.9497 32.1641 22.7298 32.2341 22.5197 32.2942C20.0697 33.0442 17.4798 33.374 14.9098 33.2742C11.6198 33.134 8.29977 32.1841 5.55977 30.354C4.38973 29.584 2.68972 28.374 2.04977 27.084C1.98977 26.9541 1.94973 26.834 1.93972 26.7041C1.74972 25.4541 3.54977 24.1741 4.44973 23.5042C5.18972 22.9441 5.95974 22.4041 6.72976 21.874L7.17977 21.584C7.44973 21.9441 7.71975 22.324 7.99972 22.6941C8.57973 23.4541 9.17977 24.1841 9.82973 24.894C10.8797 26.0442 12.0197 27.124 13.2597 28.074C13.7697 28.4641 14.2998 28.834 14.8297 29.1741C15.0998 29.354 15.3797 29.5242 15.6598 29.6941Z"/><path stroke="black" stroke-linecap="round" stroke-linejoin="round" stroke-miterlimit="10" d="M36.5603 17.5834C35.9603 19.5934 35.1403 21.5333 34.1403 23.3734C33.7303 24.1234 33.2703 24.8134 32.7803 25.4735C33.3603 23.8434 33.7003 22.2436 33.8503 20.6835C34.1403 17.8034 33.8003 15.0436 33.1302 12.5534C33.9103 12.5333 34.6703 12.5934 35.4003 12.8434C36.0303 13.0534 36.4603 13.3434 36.7303 13.6835C37.5203 14.6835 36.9903 16.1535 36.5603 17.5834Z"/><path stroke="black" stroke-linecap="round" stroke-linejoin="round" stroke-miterlimit="10" d="M7.90039 31.2139C8.31039 29.1939 9.28038 27.3039 10.6404 25.7539"/><path stroke="black" stroke-linecap="round" stroke-linejoin="round" stroke-miterlimit="10" d="M26.4883 52.2317C30.8298 51.6731 35.3591 52.7134 39.0219 55.1104"/><path stroke="black" stroke-linecap="round" stroke-linejoin="round" stroke-miterlimit="10" d="M25.6406 45.3181C28.4754 44.5958 31.5789 44.9893 34.1437 46.3962"/><path stroke="black" stroke-linecap="round" stroke-linejoin="round" stroke-miterlimit="10" d="M28.5938 59.0014C31.7519 58.5746 35.0358 59.1301 37.8779 60.5718"/><path fill="white" stroke="black" stroke-linecap="round" stroke-linejoin="round" stroke-miterlimit="10" d="M23.1504 32.0935C22.9504 32.1636 22.7304 32.2336 22.5204 32.2937C22.0504 32.2437 21.5804 32.1536 21.1204 32.0735C19.0004 31.6936 16.9804 30.9236 15.1204 29.8635C14.9704 29.7737 14.8204 29.6736 14.6804 29.5835C14.2504 29.3335 13.8304 29.0635 13.4304 28.7834C11.9104 27.7036 10.5304 26.4436 9.28038 25.0635C8.71038 24.4336 8.15038 23.7634 7.63036 23.0935C7.32036 22.6936 7.02037 22.2834 6.7304 21.8735C6.4804 21.5334 6.25035 21.1836 6.02037 20.8335C5.77037 20.4736 5.54039 20.1035 5.31041 19.7336C4.87041 18.9937 4.43041 18.2537 4.04039 17.4836C3.75035 16.9536 3.15038 16.2236 3.29039 15.5835C3.35039 15.3435 3.45037 15.1235 3.59038 14.9336C3.58037 15.1335 3.6104 15.3335 3.71038 15.5237C4.33037 16.9236 5.06041 18.2537 5.8604 19.5535C6.04039 19.8635 6.24041 20.1636 6.4204 20.4536C6.66039 20.8335 6.9204 21.2036 7.18041 21.5835C7.45037 21.9436 7.72039 22.3235 8.00035 22.6936C8.58037 23.4536 9.18041 24.1836 9.83037 24.8936C10.8804 26.0437 12.0204 27.1235 13.2604 28.0735C13.7704 28.4636 14.3004 28.8335 14.8304 29.1736C15.1004 29.3535 15.3804 29.5237 15.6604 29.6936C17.9704 31.0037 20.5104 31.8535 23.1504 32.0935Z"/><path stroke="black" stroke-linecap="round" stroke-linejoin="round" stroke-miterlimit="10" d="M33.8497 20.6836C33.6997 22.2437 33.3597 23.8435 32.7797 25.4737C31.2597 27.4737 29.3497 29.0437 27.0697 30.3435C27.0597 30.3435 27.0497 30.3635 27.0397 30.3635C25.7997 31.0635 24.4997 31.6336 23.1497 32.0935C20.5097 31.8535 17.9697 31.0037 15.6597 29.6936C15.3797 29.5237 15.0997 29.3535 14.8297 29.1736C14.2997 28.8335 13.7697 28.4636 13.2597 28.0735C12.0197 27.1236 10.8797 26.0437 9.8297 24.8936C9.17974 24.1836 8.5797 23.4536 7.99969 22.6936C7.71972 22.3235 7.4497 21.9436 7.17974 21.5835C6.91973 21.2036 6.65972 20.8335 6.41973 20.4536C6.23974 20.1636 6.03973 19.8635 5.85973 19.5535C5.05974 18.2537 4.3297 16.9236 3.70971 15.5237C3.60973 15.3335 3.5797 15.1336 3.58971 14.9336C3.58971 14.8235 3.61974 14.7237 3.64971 14.6236C3.72973 14.3135 3.93969 14.0335 4.23974 13.8635C6.33971 12.7036 11.0897 9.71364 13.1297 5.69362C13.3397 5.2737 13.7797 4.99367 14.2497 4.99367C15.9697 4.94362 20.3297 4.47365 25.9297 1.1736C26.4797 0.853534 27.1997 0.973651 27.5997 1.49367C28.7697 3.0237 31.1097 6.4236 32.6097 10.8235C32.7997 11.3936 32.9697 11.9636 33.1297 12.5535C33.7997 15.0437 34.1397 17.8035 33.8497 20.6836Z"/><path stroke="black" stroke-linecap="round" stroke-linejoin="round" stroke-miterlimit="10" d="M20.9114 24.6216C24.8919 24.6216 28.1187 21.3948 28.1187 17.4143C28.1187 13.4338 24.8919 10.207 20.9114 10.207C16.9309 10.207 13.7041 13.4338 13.7041 17.4143C13.7041 21.3948 16.9309 24.6216 20.9114 24.6216Z"/><path stroke="black" stroke-linecap="round" stroke-linejoin="round" stroke-miterlimit="10" d="M18.8633 18.4394C19.1843 18.7145 19.5143 18.9951 19.9108 19.1419C20.3072 19.2887 20.7903 19.2765 21.1117 19.0018C21.3503 18.7981 21.464 18.4879 21.5681 18.1919C22.0893 16.7113 22.6105 15.2306 23.1317 13.75"/></svg>