<svg xmlns="http://www.w3.org/2000/svg" width="70" height="66" fill="none" viewBox="0 0 70 66"><path fill="white" stroke="black" stroke-linecap="round" stroke-linejoin="round" stroke-miterlimit="10" d="M9.18318 34.9773C8.53954 35.0724 7.85365 34.8508 7.29445 34.4497C6.5242 33.8907 6.12323 32.867 6.32371 31.9385C6.54526 30.9256 7.32607 30.229 8.27575 29.7754C8.41292 29.786 8.53954 29.7965 8.67672 29.7965C7.74816 30.2502 6.98841 30.9362 6.77743 31.9385C6.57694 32.867 6.96735 33.8907 7.74816 34.4497C8.18075 34.7558 8.68728 34.9562 9.18318 34.9773Z"/><path fill="white" stroke="black" stroke-linecap="round" stroke-linejoin="round" stroke-miterlimit="10" d="M10.3434 34.7344C10.0479 41.4876 9.76298 48.2511 9.46757 55.0041C9.31983 55.0147 9.17209 55.0252 9.02441 55.0252C9.30927 48.3251 9.58362 41.6247 9.8791 34.9245C10.0373 34.8928 10.1956 34.8294 10.3434 34.7344Z"/><path stroke="black" stroke-linecap="round" stroke-linejoin="round" stroke-miterlimit="10" d="M21.033 33.0152C20.6531 34.2813 19.2708 35.0727 17.9835 34.9777C17.9729 34.9777 17.9624 34.9777 17.9624 34.9777C17.5614 35.0093 17.1604 34.9671 16.7912 34.8195C16.3691 41.4777 15.947 48.1358 15.5144 54.7937C13.5096 54.8571 11.4942 54.9311 9.46829 55.0047C9.76371 48.2518 10.0486 41.4882 10.3441 34.735C10.1964 34.83 10.0381 34.8934 9.87982 34.9251C9.87982 34.8617 9.89032 34.7984 9.89032 34.735C9.66878 34.8723 9.42611 34.9462 9.18338 34.9777C8.68748 34.9565 8.18095 34.7561 7.74836 34.4501C6.96755 33.8911 6.57714 32.8673 6.77763 31.9389C6.98861 30.9365 7.74836 30.2505 8.67692 29.7969C12.4649 30.0501 16.3058 30.24 20.1782 30.3773C20.326 30.3773 20.4843 30.3878 20.6425 30.3878C21.1701 31.0102 21.3706 31.865 21.033 33.0152Z"/><path fill="white" stroke="black" stroke-linecap="round" stroke-linejoin="round" stroke-miterlimit="10" d="M9.88956 34.7344C9.88956 34.7977 9.87906 34.8611 9.87906 34.9245C9.64689 34.9982 9.41479 35.0087 9.18262 34.977C9.42535 34.9456 9.66802 34.8717 9.88956 34.7344Z"/><path fill="white" stroke="black" stroke-linecap="round" stroke-linejoin="round" stroke-miterlimit="10" d="M52.0965 35.0202C51.5268 35.0624 50.9359 34.8726 50.44 34.5454C49.638 34.0284 49.1948 33.026 49.3531 32.0868C49.4797 31.3165 49.9229 30.7258 50.5349 30.2508C50.6299 30.2508 50.7248 30.2402 50.8198 30.2402C50.2078 30.715 49.7435 31.3165 49.6169 32.0868C49.4692 33.026 49.9124 34.0284 50.7038 34.5454C51.1258 34.8198 51.6112 34.9991 52.0965 35.0202Z"/><path fill="white" stroke="black" stroke-linecap="round" stroke-linejoin="round" stroke-miterlimit="10" d="M53.3845 54.7409C53.2895 54.7409 53.1946 54.7306 53.1102 54.7306C53.0891 48.1039 53.068 41.4777 53.0469 34.8617C53.1419 34.8195 53.2262 34.7667 53.3107 34.7139C53.3424 41.3932 53.3529 48.0619 53.3845 54.7409Z"/><path fill="white" stroke="black" stroke-linecap="round" stroke-linejoin="round" stroke-miterlimit="10" d="M60.907 34.598C60.5166 34.6297 60.1262 34.5663 59.7568 34.4187V34.292C60.1156 34.4924 60.506 34.5875 60.907 34.598Z"/><path stroke="black" stroke-linecap="round" stroke-linejoin="round" stroke-miterlimit="10" d="M63.9146 32.4986C63.5875 33.7964 62.2158 34.6617 60.9074 34.5983C60.5064 34.5878 60.116 34.4927 59.7572 34.2923V34.4191C59.6412 41.2668 59.5251 48.1254 59.3985 54.9737C57.4042 54.8787 55.3994 54.8047 53.384 54.7413C53.3523 48.0623 53.3418 41.3936 53.3102 34.7143C53.2257 34.7671 53.1414 34.8199 53.0464 34.8621V34.7143C52.7614 34.9044 52.4343 35.0097 52.0967 35.0203C51.6113 34.9992 51.1259 34.8199 50.7039 34.5455C49.9125 34.0285 49.4693 33.0262 49.6171 32.0869C49.7437 31.3167 50.208 30.7151 50.82 30.2404C54.7874 30.0822 58.7865 29.8818 62.8172 29.6285C62.9017 29.6285 62.986 29.618 63.081 29.6074C63.8724 30.2192 64.2417 31.1479 63.9146 32.4986Z"/><path fill="white" stroke="black" stroke-linecap="round" stroke-linejoin="round" stroke-miterlimit="10" d="M53.0464 34.7139V34.8617C52.7404 34.9988 52.4238 35.0516 52.0967 35.0199C52.4343 35.0093 52.7614 34.904 53.0464 34.7139Z"/><path fill="white" stroke="black" stroke-linecap="round" stroke-linejoin="round" stroke-miterlimit="10" d="M66.9424 23.6977C66.858 23.6238 66.763 23.5395 66.6681 23.4762L36.3742 2.11957C35.3506 1.40213 33.9895 1.41243 32.9871 2.1407L2.74593 24.2464C1.99673 24.7846 1.55358 25.6604 1.55358 26.5889C1.55358 27.1587 1.72238 27.6968 2.00729 28.1399C1.97561 28.1082 1.94399 28.0874 1.9123 28.0554C1.38472 27.5278 1.05762 26.7998 1.05762 25.9979C1.05762 25.0695 1.50083 24.1936 2.24996 23.6449L32.4912 1.54974C33.5041 0.821736 34.8653 0.811174 35.8782 1.52862L66.1827 22.8852C66.4992 23.1068 66.7524 23.3811 66.9424 23.6977Z"/><path stroke="black" stroke-linecap="round" stroke-linejoin="round" stroke-miterlimit="10" d="M67.9037 25.8503V26.5888C67.9037 28.1927 66.6058 29.4905 65.002 29.4905C64.3583 29.5328 63.7146 29.575 63.0816 29.6067C62.9866 29.6173 62.9022 29.6278 62.8178 29.6278C58.787 29.8811 54.788 30.0815 50.8205 30.2397C50.7255 30.2397 50.6306 30.2502 50.5356 30.2502C40.3427 30.6408 30.3608 30.7041 20.6426 30.3875C20.4844 30.3875 20.3261 30.377 20.1784 30.377C16.3059 30.2397 12.4651 30.0498 8.67707 29.7966C8.5399 29.7966 8.41328 29.786 8.2761 29.7754C6.99933 29.691 5.72261 29.5962 4.4564 29.4905C3.65446 29.4905 2.92639 29.1634 2.39881 28.6463C2.25107 28.4987 2.11389 28.33 2.0084 28.1399C1.72349 27.6968 1.55469 27.1587 1.55469 26.5888C1.55469 25.6604 1.99784 24.7845 2.74703 24.2464L32.9882 2.14066C33.9906 1.41239 35.3517 1.40209 36.3753 2.11953L66.6692 23.4761C66.7641 23.5395 66.8591 23.6237 66.9435 23.6977C66.954 23.7082 66.9646 23.7082 66.9646 23.7188C67.566 24.2675 67.9037 25.0378 67.9037 25.8503Z"/><path stroke="black" stroke-linecap="round" stroke-linejoin="round" stroke-miterlimit="10" d="M35.309 7.5218C34.9081 7.43757 34.4755 7.5218 34.1378 7.77529L14.7965 21.9778C13.9418 22.6002 14.0579 23.7715 14.7438 24.3203C13.5197 24.1093 13.066 22.4632 14.1423 21.6718L33.4836 7.46925C34.0006 7.08928 34.7181 7.08928 35.2457 7.47956L35.309 7.5218Z"/><path stroke="black" stroke-linecap="round" stroke-linejoin="round" stroke-miterlimit="10" d="M54.1123 24.659C40.6589 25.5029 27.828 25.524 15.6725 24.659C15.3032 24.659 14.9866 24.5322 14.744 24.3212C14.0581 23.7725 13.942 22.6012 14.7967 21.9788L34.138 7.77628C34.4757 7.52279 34.9082 7.43855 35.3092 7.52279C35.5203 7.56504 35.7207 7.64953 35.9001 7.78658L54.9881 21.9891C56.1382 22.8333 55.5368 24.659 54.1123 24.659Z"/><path fill="white" stroke="black" stroke-linecap="round" stroke-linejoin="round" stroke-miterlimit="10" d="M63.9882 55.3736C63.8088 55.2365 63.5978 55.1521 63.3551 55.1521C44.9635 54.2128 25.8227 54.2762 6.08051 55.1521C5.51074 55.1521 5.0359 55.6268 5.0359 56.1967C5.0359 57.4417 5.08865 58.687 5.09921 59.9426H4.77211C4.76155 58.5391 4.69824 57.1356 4.69824 55.7324C4.69824 55.1626 5.17308 54.6878 5.74285 54.6878C25.4851 53.812 44.6259 53.738 63.028 54.6878C63.4712 54.6878 63.851 54.9728 63.9882 55.3736Z"/><path fill="white" stroke="black" stroke-linecap="round" stroke-linejoin="round" stroke-miterlimit="10" d="M68.1036 60.9557C67.9032 60.7764 67.6394 60.6708 67.3439 60.6708C46.5149 59.6051 24.8523 59.6684 2.50376 60.6708C1.84956 60.6708 1.32197 61.1984 1.32197 61.8527V64.5326H0.984375V61.3882C0.984375 60.7342 1.51196 60.2066 2.16616 60.2066C24.5146 59.204 46.1772 59.1303 67.0062 60.2066C67.5128 60.2066 67.9348 60.5126 68.1036 60.9557Z"/><path stroke="black" stroke-linecap="round" stroke-linejoin="round" stroke-miterlimit="10" d="M64.4105 60.3645H60.728C43.9191 59.7102 26.5932 59.7524 8.80309 60.4173H5.09944V59.9425C5.08888 58.6869 5.03613 57.4417 5.03613 56.1966C5.03613 55.6268 5.51097 55.152 6.08074 55.152C7.06204 55.1098 8.04334 55.0675 9.0247 55.0253C9.17237 55.0253 9.32011 55.0147 9.46785 55.0042C11.4938 54.9305 13.5092 54.8565 15.5139 54.7932C28.3237 54.3923 40.8697 54.3606 53.1096 54.7301C53.1941 54.7301 53.289 54.7404 53.384 54.7404C55.3993 54.8037 57.4042 54.8777 59.3985 54.9727C60.728 55.0253 62.0364 55.0887 63.3553 55.152C63.598 55.152 63.8091 55.2365 63.9884 55.3736C64.2416 55.5634 64.3999 55.8589 64.3999 56.1966V58.9822C64.3788 59.4675 64.4316 59.8792 64.4105 60.3645Z"/><path stroke="black" stroke-linecap="round" stroke-linejoin="round" stroke-miterlimit="10" d="M68.5154 64.9966V61.8521C68.5154 61.4934 68.3571 61.1663 68.1038 60.9553C67.9034 60.7759 67.6396 60.6704 67.3442 60.6704C65.1494 60.5543 62.9441 60.4594 60.7282 60.3644C43.9194 59.7102 26.5935 59.7524 8.8034 60.4171C6.71416 60.491 4.61439 60.5754 2.50405 60.6704C1.84985 60.6704 1.32227 61.1979 1.32227 61.8521V64.9966"/><path fill="black" stroke="black" stroke-linecap="round" stroke-linejoin="round" stroke-miterlimit="10" stroke-width="0.35" d="M37.6163 14.4582C37.6189 14.5509 37.5792 14.6457 37.4968 14.741C37.4148 14.8369 37.3309 14.8863 37.2458 14.8889C37.1722 14.891 37.0892 14.8606 36.9985 14.7977C36.7368 14.6122 36.4648 14.4494 36.1829 14.3098C35.9016 14.1692 35.61 14.0558 35.3081 13.9677C35.3153 14.298 35.3236 14.6277 35.3344 14.959C35.3452 15.2903 35.3534 15.6221 35.3607 15.9554C35.3684 15.9554 35.4003 15.9564 35.4565 15.958C35.5132 15.9606 35.5915 15.9637 35.6925 15.9678C37.2675 16.0069 38.2315 16.5577 38.5839 17.6201C38.6606 17.8504 38.7034 18.0822 38.7106 18.3141C38.724 18.7324 38.623 19.1508 38.4077 19.5681C37.9955 20.3724 37.3417 20.917 36.4473 21.2014C36.1443 21.2967 35.8321 21.3492 35.5106 21.3595L35.5312 22.1963C35.5348 22.3086 35.4982 22.3998 35.4209 22.4698C35.3437 22.5399 35.2571 22.577 35.1602 22.5801C35.0593 22.5832 34.9712 22.5492 34.8949 22.4781C34.8233 22.4111 34.7774 22.0669 34.7573 21.4477C34.7558 21.3972 34.7542 21.3467 34.7527 21.2962C34.2256 21.1895 33.748 20.9613 33.3199 20.6125C32.8922 20.2637 32.5718 19.8582 32.3595 19.3955C32.3255 19.327 32.308 19.2636 32.3064 19.2054C32.3033 19.1163 32.3456 19.0344 32.4327 18.9602C32.5192 18.8855 32.6187 18.8463 32.7315 18.8427C32.867 18.8386 32.9721 18.9164 33.0468 19.0771C33.3884 19.818 33.949 20.2967 34.7275 20.5115C34.7105 19.8726 34.694 19.2348 34.6775 18.5975C34.661 17.9601 34.644 17.3218 34.628 16.6824C33.8742 16.6252 33.3137 16.4511 32.9479 16.1605C32.3987 15.721 32.1158 15.2491 32.0993 14.7452C32.0937 14.5633 32.123 14.3783 32.1864 14.1903C32.3039 13.8415 32.5187 13.5612 32.8314 13.35C33.1447 13.1382 33.5394 13.0243 34.0154 13.0094C34.1782 13.0042 34.3493 13.012 34.5286 13.0336C34.5229 12.8512 34.5327 12.6853 34.559 12.5349C34.5853 12.3849 34.6934 12.3072 34.883 12.301C34.9835 12.2979 35.0726 12.3329 35.151 12.4056C35.2288 12.4787 35.2695 12.5658 35.2731 12.6663L35.289 13.1779C36.0588 13.3778 36.7734 13.7116 37.4324 14.1795C37.5514 14.2614 37.6127 14.3536 37.6163 14.4582ZM34.0278 13.7585C33.831 13.7652 33.6398 13.8075 33.4564 13.8848C33.2725 13.9626 33.1215 14.0661 33.004 14.1959C32.8866 14.3263 32.8299 14.4757 32.8356 14.6462C32.8376 14.7122 32.8515 14.7797 32.8768 14.8482C32.9829 15.1285 33.155 15.3634 33.3936 15.5525C33.6362 15.7473 34.0396 15.8699 34.6033 15.9214L34.5471 13.7946C34.3601 13.7657 34.187 13.7539 34.0278 13.7585ZM35.4864 20.6042C36.2072 20.5811 36.8089 20.3255 37.2938 19.8371C37.7518 19.3718 37.9728 18.8844 37.9563 18.3728C37.9512 18.2069 37.9203 18.0348 37.8641 17.8581C37.658 17.2296 37.1114 16.8627 36.2236 16.7592C36.1149 16.7437 35.9727 16.7319 35.7986 16.7236C35.6234 16.7154 35.4853 16.7112 35.3849 16.7107C35.4014 17.3578 35.4189 18.007 35.4354 18.6572C35.4524 19.3085 35.4694 19.9571 35.4864 20.6042Z"/><path fill="white" stroke="black" stroke-linecap="round" stroke-linejoin="round" stroke-miterlimit="10" d="M32.1642 53.7912C32.2063 53.8229 32.2485 53.844 32.2908 53.8651C32.048 53.939 31.8265 53.981 31.5943 53.8017C23.9549 48.1987 26.4346 37.9531 27.2787 35.1676C27.4053 34.7665 27.7746 34.5238 28.144 34.5872C28.2073 34.5977 28.2706 34.6083 28.3233 34.6188C28.1017 34.7031 27.9223 34.8932 27.8485 35.157C26.9938 37.932 24.5142 48.1882 32.1642 53.7912Z"/><path fill="white" stroke="black" stroke-linecap="round" stroke-linejoin="round" stroke-miterlimit="10" d="M35.7947 34.197C35.1194 34.4608 33.7265 34.8724 31.7217 34.8724C33.4627 34.7985 34.6762 34.4291 35.2777 34.197C35.4465 34.123 35.6364 34.1339 35.7947 34.197Z"/><path fill="#0870EE" stroke="black" stroke-linecap="round" stroke-linejoin="round" stroke-miterlimit="10" d="M43.5605 38.1427C43.4655 39.1453 43.3073 40.1265 43.1068 41.1078C42.8113 42.5323 42.4209 43.9355 41.8933 45.2862C41.2918 46.8164 40.5216 48.283 39.5403 49.5597C38.4851 50.9526 37.1767 52.0922 35.6995 52.8517C35.1297 53.1474 34.5282 53.3584 33.9162 53.5482C33.5997 53.643 33.2832 53.7275 32.9666 53.8226C32.7239 53.8965 32.5128 53.9596 32.2913 53.8648C32.249 53.8437 32.2069 53.8226 32.1647 53.7909C24.5147 48.1879 26.9943 37.9317 27.849 35.1567C27.9229 34.8929 28.1022 34.7028 28.3239 34.6186C29.5689 34.8507 30.6769 34.9035 31.6265 34.8718H31.7215C33.7263 34.8718 35.1191 34.4602 35.7945 34.1964C35.8155 34.1964 35.8261 34.1858 35.8366 34.1858C36.1004 34.0804 36.3854 34.1436 36.5858 34.3548C38.4324 36.3278 41.5979 37.0453 42.959 37.2671C43.3494 37.3302 43.6027 37.7102 43.5605 38.1427Z"/><path fill="white" stroke="black" stroke-linecap="round" stroke-linejoin="round" stroke-miterlimit="10" d="M31.6259 34.8719C30.6762 34.9036 29.5683 34.8508 28.3232 34.6187C28.4393 34.5658 28.5765 34.5447 28.7031 34.5764C29.7794 34.7768 30.7607 34.8613 31.6259 34.8719Z"/><path stroke="black" stroke-linecap="round" stroke-linejoin="round" stroke-miterlimit="10" d="M32.8096 42.598L34.0733 45.0359L37.4267 41.5996"/></svg>