<svg xmlns="http://www.w3.org/2000/svg" width="64" height="66" fill="none" viewBox="0 0 64 66"><path fill="#0870EE" d="M16.9164 28.8108C17.4664 33.3808 15.1964 37.7608 11.3364 40.2108C8.57642 41.9708 5.11642 42.4508 1.87643 41.9608C4.93643 40.1508 6.94644 36.7008 7.00644 33.1508C5.28644 34.4808 3.00644 35.0808 0.856445 34.7608C3.41644 33.4808 5.40643 31.0908 6.20642 28.3408C6.86642 26.0608 6.69644 23.5608 5.77643 21.3708C4.79642 19.0408 4.09644 16.8208 3.94644 14.2408C3.80643 11.8408 4.15643 9.37083 5.22644 7.2208C6.62643 4.4008 9.26642 2.23081 12.2964 1.39079C15.3264 0.560831 18.7064 1.07084 21.3564 2.7808C21.3664 2.7808 21.3664 2.79081 21.3764 2.80082"/><path stroke="black" stroke-linecap="round" stroke-linejoin="round" stroke-miterlimit="10" d="M16.9164 28.8108C17.4664 33.3808 15.1964 37.7608 11.3364 40.2108C8.57642 41.9708 5.11642 42.4508 1.87643 41.9608C4.93643 40.1508 6.94644 36.7008 7.00644 33.1508C5.28644 34.4808 3.00644 35.0808 0.856445 34.7608C3.41644 33.4808 5.40643 31.0908 6.20642 28.3408C6.86642 26.0608 6.69644 23.5608 5.77643 21.3708C4.79642 19.0408 4.09644 16.8208 3.94644 14.2408C3.80643 11.8408 4.15643 9.37083 5.22644 7.2208C6.62643 4.4008 9.26642 2.23081 12.2964 1.39079C15.3264 0.560831 18.7064 1.07084 21.3564 2.7808C21.3664 2.7808 21.3664 2.79081 21.3764 2.80082"/><path fill="#F2F2F2" stroke="black" stroke-linecap="round" stroke-linejoin="round" stroke-miterlimit="10" d="M28.3162 5.0607C27.8561 5.24064 27.4161 5.4506 26.9962 5.7006C26.5161 5.99064 24.5961 7.27066 25.2161 8.09073C24.2861 6.86075 22.7061 6.23063 21.1661 6.25065C19.6262 6.26066 18.1361 6.87052 16.8661 7.73063C16.2562 8.15055 15.6862 8.63077 15.1761 9.16056C14.9561 8.8505 14.7761 8.52066 14.7061 8.17057C14.5361 7.28067 14.9261 6.43058 15.5062 5.78067C16.0461 5.18058 16.7462 4.74064 17.4561 4.36075C18.9861 3.53067 20.6262 2.92057 22.3261 2.5607C24.6862 2.0607 27.4461 2.64054 28.3162 5.0607Z"/><path stroke="black" stroke-linecap="round" stroke-linejoin="round" stroke-miterlimit="10" d="M45.6461 26.2109C45.6061 27.2809 44.9962 28.3009 44.1161 28.9108C43.2361 29.5209 42.1061 29.7409 41.0361 29.581C41.0361 29.571 41.0361 29.5609 41.0361 29.5609C41.9761 27.581 42.5161 25.4108 42.6262 23.2209C43.1561 23.1508 43.7161 23.2509 44.1862 23.5209C45.1262 24.0409 45.6862 25.131 45.6461 26.2109Z"/><path stroke="black" stroke-linecap="round" stroke-linejoin="round" stroke-miterlimit="10" d="M33.6166 39.5608C33.5966 39.5608 33.5766 39.5508 33.5566 39.5508"/><path stroke="black" stroke-linecap="round" stroke-linejoin="round" stroke-miterlimit="10" d="M2.69629 63.5505C2.94629 60.9005 3.54626 58.6805 4.69629 56.2005C8.19629 48.6905 14.6463 41.4105 23.0063 39.6205C23.2463 39.5705 23.4963 39.5204 23.7563 39.4805"/><path stroke="black" stroke-linecap="round" stroke-linejoin="round" stroke-miterlimit="10" d="M25.2161 8.09082C25.0861 7.92065 24.9461 7.76074 24.7861 7.61084C24.9061 7.56079 25.0261 7.51074 25.1461 7.4707C25.0662 7.69067 25.0761 7.90063 25.2161 8.09082Z"/><path stroke="black" stroke-linecap="round" stroke-linejoin="round" stroke-miterlimit="10" d="M42.6164 23.2908C42.5064 25.4607 41.9664 27.6006 41.0364 29.5608C41.0364 29.5608 41.0364 29.5708 41.0364 29.5808C40.3664 30.9707 39.5064 32.2708 38.4464 33.4207C37.7064 34.2207 36.8664 34.9407 35.9564 35.5508C35.5064 35.8506 35.0364 36.1206 34.5564 36.3608C34.2164 36.5308 33.6564 36.6707 33.5064 37.0708C33.4164 37.3108 33.5064 37.6907 33.5164 37.9507C33.5164 38.3308 33.5264 38.7107 33.5264 39.1006C33.5264 39.2407 33.5364 39.3906 33.5564 39.5508C33.5464 39.5808 33.5564 39.6108 33.5564 39.6406C33.3164 39.9006 33.1964 40.2507 33.2264 40.6206C33.3064 41.4106 33.4064 42.2007 33.5364 42.9907C33.4864 43.1907 33.4064 43.3809 33.3064 43.5508C33.0864 43.9307 32.7664 44.2407 32.2764 44.4607C31.6864 44.7207 31.0264 44.8108 30.3764 44.8608C28.9564 44.9607 27.4764 44.9006 26.1963 44.2607C24.2564 43.3008 23.8764 41.4106 23.7564 39.4807C23.7264 38.9507 23.7064 38.4207 23.6864 37.9006C23.6664 37.4907 23.6564 37.1006 23.7264 36.7007C23.7764 36.3809 23.8464 36.3408 23.5464 36.1506C22.9164 35.7407 22.2064 35.4807 21.5864 35.0208C21.0164 34.6006 20.4864 34.1206 19.9964 33.6006C18.4964 32.0408 17.3764 30.1707 16.6364 28.1506C16.1264 28.0408 15.6364 27.8308 15.2064 27.5408C14.3264 26.9307 13.7164 25.9106 13.6764 24.8408C13.6564 24.2307 13.8264 23.6108 14.1564 23.1006C14.6564 22.9707 15.3164 22.0608 15.9064 21.9607C16.8164 21.8008 17.7964 22.3008 18.4864 22.8706C18.9864 23.2808 19.2964 23.9807 19.7864 24.3608C20.3864 24.8308 20.9164 24.3208 21.5564 23.9507C22.8964 23.1606 24.1364 22.2007 25.2464 21.1108C27.4364 18.9507 29.1264 16.2708 30.0564 13.3408C29.9664 13.6406 30.8164 14.7708 30.9864 15.0408C31.3664 15.6606 31.7864 16.2507 32.2464 16.8108C32.8564 17.5708 33.5364 18.2808 34.2664 18.9307C34.6264 19.2407 34.9864 19.5408 35.3664 19.8308C36.5264 20.7007 37.7864 21.4407 39.1264 22.0007C40.2064 22.4607 41.4364 23.0107 42.6164 23.2908Z"/><path fill="#F2F2F2" d="M18.1247 22.4911C17.3524 21.7446 16.0752 21.6228 15.1367 22.1452C14.1982 22.6676 13.6347 23.7628 13.6759 24.8361C13.7172 25.9094 14.3277 26.9272 15.2105 27.5391C16.0933 28.1509 17.2218 28.368 18.2846 28.2126"/><path stroke="black" stroke-linecap="round" stroke-linejoin="round" stroke-miterlimit="10" d="M18.1247 22.4911C17.3524 21.7446 16.0752 21.6228 15.1367 22.1452C14.1982 22.6676 13.6347 23.7628 13.6759 24.8361C13.7172 25.9094 14.3277 26.9272 15.2105 27.5391C16.0933 28.1509 17.2218 28.368 18.2846 28.2126"/><path fill="#0870EE" stroke="black" stroke-linecap="round" stroke-linejoin="round" stroke-miterlimit="10" d="M45.9167 17.3206C46.0267 19.5105 44.8167 21.7806 43.4466 23.4505C43.1767 23.4205 42.8967 23.3606 42.6167 23.2906C41.4367 23.0105 40.2067 22.4605 39.1267 22.0005C37.7867 21.4405 36.5267 20.7005 35.3667 19.8306C34.9867 19.5406 34.6267 19.2405 34.2667 18.9305C33.5367 18.2806 32.8567 17.5706 32.2467 16.8106C31.7867 16.2505 31.3667 15.6604 30.9867 15.0406C30.8167 14.7705 29.9667 13.6404 30.0567 13.3406C29.1267 16.2705 27.4367 18.9505 25.2467 21.1106C24.1366 22.2005 22.8967 23.1604 21.5567 23.9505C20.9167 24.3206 20.3866 24.8306 19.7867 24.3606C19.2967 23.9805 18.9867 23.2806 18.4867 22.8704C17.7967 22.3006 16.8167 21.8006 15.9067 21.9605C15.3167 22.0606 14.6567 22.9705 14.1567 23.1004C14.1067 23.1204 14.0567 23.1204 14.0067 23.1204C13.3767 23.0706 12.9767 21.5306 12.7967 21.0606C11.9867 18.9405 11.7767 16.6204 12.2967 14.4004C12.7467 12.4405 13.7667 10.6106 15.1767 9.16044C15.6867 8.63066 16.2567 8.15043 16.8667 7.73051C18.1366 6.8704 19.6267 6.26054 21.1667 6.25053C22.4867 6.23051 23.8467 6.70048 24.7867 7.61064C24.9466 7.76054 25.0867 7.92045 25.2167 8.09062C25.0767 7.90043 25.0667 7.69047 25.1467 7.4705C25.4067 6.73051 26.6267 5.92045 26.9967 5.70048C27.4167 5.45048 27.8567 5.24052 28.3167 5.06059C29.0567 4.78056 29.8267 4.60038 30.6067 4.51054C32.5467 4.29057 34.5367 4.65043 36.3667 5.36064C39.3467 6.53056 41.9167 8.68046 43.6867 11.3406C44.8567 13.0906 45.8167 15.1805 45.9167 17.3206Z"/><path fill="white" stroke="black" stroke-linecap="round" stroke-linejoin="round" stroke-miterlimit="10" d="M34.9651 23.5366C35.209 23.5366 35.4067 23.3389 35.4067 23.095C35.4067 22.8511 35.209 22.6533 34.9651 22.6533C34.7212 22.6533 34.5234 22.8511 34.5234 23.095C34.5234 23.3389 34.7212 23.5366 34.9651 23.5366Z"/><path fill="white" stroke="black" stroke-linecap="round" stroke-linejoin="round" stroke-miterlimit="10" d="M26.4921 22.7029C26.7342 22.7029 26.9304 22.5066 26.9304 22.2645C26.9304 22.0224 26.7342 21.8262 26.4921 21.8262C26.25 21.8262 26.0537 22.0224 26.0537 22.2645C26.0537 22.5066 26.25 22.7029 26.4921 22.7029Z"/><path stroke="black" stroke-linecap="round" stroke-linejoin="round" stroke-miterlimit="10" d="M30.5515 25.2861C30.8032 25.4765 31.0589 25.671 31.243 25.9272C31.4271 26.1835 31.532 26.5159 31.4453 26.8193C31.3778 27.0557 31.2017 27.2493 30.9975 27.3862C30.7933 27.5231 30.5605 27.6101 30.3301 27.6959"/><path stroke="black" stroke-linecap="round" stroke-linejoin="round" stroke-miterlimit="10" d="M29.9875 30.5221C29.5427 30.7726 28.9648 30.7673 28.5246 30.5087C28.0844 30.2501 27.7985 29.7478 27.8008 29.2373"/><path stroke="black" stroke-linecap="round" stroke-linejoin="round" stroke-miterlimit="10" d="M33.6317 36.9434C33.6317 36.9434 30.5735 37.6496 29.3438 37.1577"/><path fill="white" stroke="black" stroke-linecap="round" stroke-linejoin="round" stroke-miterlimit="10" d="M45.5661 34.2808C43.886 35.9207 41.6061 37.0608 39.4561 37.8308C41.3161 37.0708 43.196 36.0408 44.636 34.6406C44.8961 34.3906 45.2361 34.2607 45.5861 34.2607C45.576 34.2708 45.576 34.2708 45.5661 34.2808Z"/><path fill="white" stroke="black" stroke-linecap="round" stroke-linejoin="round" stroke-miterlimit="10" d="M52.246 64.6404C52.176 64.6904 52.096 64.7405 52.0259 64.7905C51.556 65.1106 51.126 65.0005 50.616 64.8806C50.056 64.7605 49.506 64.6404 48.9459 64.5105C47.8859 64.2505 46.8259 63.9604 45.816 63.5205C43.246 62.4204 40.976 60.7104 39.1359 58.6106C37.4459 56.6604 36.116 54.4104 35.096 52.0505C34.1959 49.9705 33.5259 47.8005 33.036 45.5906C32.6959 44.0706 32.4459 42.5305 32.296 40.9805C32.226 40.3005 32.6959 39.6904 33.366 39.5706C33.4559 39.5505 33.556 39.5405 33.656 39.5205C33.356 39.7805 33.186 40.1904 33.226 40.6204C33.376 42.1704 33.626 43.7104 33.9659 45.2305C34.4559 47.4404 35.126 49.6106 36.0259 51.6904C37.046 54.0505 38.366 56.3005 40.066 58.2505C41.906 60.3503 44.176 62.0605 46.746 63.1604C47.756 63.5906 48.816 63.8904 49.876 64.1504C50.426 64.2805 50.986 64.4004 51.546 64.5205C51.796 64.5806 52.0259 64.6306 52.246 64.6404Z"/><path stroke="black" stroke-linecap="round" stroke-linejoin="round" stroke-miterlimit="10" d="M52.9462 64.431C52.7062 64.5912 52.4762 64.641 52.2462 64.641C52.0262 64.6312 51.7962 64.5812 51.5462 64.5211C50.9862 64.401 50.4262 64.2811 49.8762 64.151C48.8162 63.891 47.7562 63.5912 46.7462 63.161C44.1762 62.0611 41.9062 60.3509 40.0662 58.2511C38.3662 56.3011 37.0462 54.0511 36.0262 51.691C35.1262 49.6112 34.4562 47.441 33.9662 45.2311C33.7962 44.4911 33.6562 43.7411 33.5362 42.9911C33.4062 42.201 33.3062 41.411 33.2262 40.621C33.1962 40.2511 33.3162 39.901 33.5562 39.641C33.5762 39.6009 33.6162 39.5611 33.6562 39.5211C35.0362 39.2611 37.2362 38.7511 39.4462 37.8312C39.4462 37.8312 39.4462 37.8312 39.4562 37.8312C41.6062 37.0611 43.8862 35.921 45.5662 34.2811C45.5762 34.2711 45.5762 34.2711 45.5862 34.2611C45.9362 33.941 46.4262 33.8212 46.8762 33.961C48.5462 34.4911 52.9162 35.4811 59.4062 34.161C60.0462 34.0311 60.6962 34.391 60.8962 35.0211C62.3462 39.3111 66.4962 55.211 52.9462 64.431Z"/><path fill="white" stroke="black" stroke-linecap="round" stroke-linejoin="round" stroke-miterlimit="10" d="M39.4462 37.8311C37.2363 38.751 35.0363 39.261 33.6562 39.521C33.8362 39.3611 34.0463 39.251 34.2963 39.2109C35.4662 39.011 37.3862 38.5811 39.4462 37.8311Z"/><path stroke="black" stroke-linecap="round" stroke-linejoin="round" stroke-miterlimit="10" d="M46.2773 48.876L49.4823 51.3937L54.334 43.9229"/><path stroke="black" stroke-linecap="round" stroke-linejoin="round" stroke-miterlimit="10" d="M42.9753 50.1463C42.1669 47.6178 42.982 44.6476 44.9678 42.8859C46.9535 41.1242 49.9996 40.6688 52.4138 41.7726"/><path stroke="black" stroke-linecap="round" stroke-linejoin="round" stroke-miterlimit="10" d="M47.3457 54.1982C49.0376 55.0394 51.1248 55.0352 52.8134 54.1873C54.5019 53.3395 55.7519 51.668 56.0878 49.8086"/><path stroke="black" stroke-linecap="round" stroke-linejoin="round" stroke-miterlimit="10" d="M16.5098 64.1806V55.6309"/></svg>