<svg xmlns="http://www.w3.org/2000/svg" xmlns:xlink="http://www.w3.org/1999/xlink" width="66" height="66" fill="none" viewBox="0 0 66 66"><path stroke="url(#pattern0_137_3449)" stroke-linecap="round" stroke-linejoin="round" stroke-miterlimit="10" d="M46.0605 47.4122C50.4105 40.5011 53.5905 32.8502 55.4406 24.875"/><path stroke="#1F1D1A" stroke-linecap="round" stroke-linejoin="round" stroke-miterlimit="10" stroke-opacity="0.96" d="M46.0605 47.4122C50.4105 40.5011 53.5905 32.8502 55.4406 24.875"/><path stroke="url(#pattern1_137_3449)" stroke-linecap="round" stroke-linejoin="round" stroke-miterlimit="10" d="M5.53125 33.2158C8.82123 41.3937 14.8812 48.396 22.4612 52.7737C24.8112 54.1317 27.3412 55.2464 29.9812 55.8037"/><path stroke="#1F1D1A" stroke-linecap="round" stroke-linejoin="round" stroke-miterlimit="10" stroke-opacity="0.96" d="M5.53125 33.2158C8.82123 41.3937 14.8812 48.396 22.4612 52.7737C24.8112 54.1317 27.3412 55.2464 29.9812 55.8037"/><path fill="#EDEDED" d="M57.4802 19.1094C57.4302 20.599 57.0902 22.0785 56.4702 23.4263C56.2603 23.8823 56.0103 24.3383 55.6002 24.6221C55.2003 24.9058 54.6002 24.9563 54.2302 24.6322C53.8602 24.2977 53.8502 23.7099 54.0103 23.2336C54.1702 22.7574 54.4702 22.3521 54.6602 21.8962C55.1502 20.7408 54.9202 18.7343 53.5502 18.3291C53.3402 18.2682 52.8203 18.3088 52.3002 18.319C52.2902 16.5557 52.1702 14.8632 51.9902 13.2826C52.6702 13.1 53.4002 13.1101 54.0802 13.2521C55.0703 13.4649 55.8902 13.9716 56.4503 14.7012C57.3802 15.9172 57.5202 17.6198 57.4802 19.1094Z"/><path stroke="url(#pattern2_137_3449)" stroke-linecap="round" stroke-linejoin="round" stroke-miterlimit="10" d="M57.4802 19.1094C57.4302 20.599 57.0902 22.0785 56.4702 23.4263C56.2603 23.8823 56.0103 24.3383 55.6002 24.6221C55.2003 24.9058 54.6002 24.9563 54.2302 24.6322C53.8602 24.2977 53.8502 23.7099 54.0103 23.2336C54.1702 22.7574 54.4702 22.3521 54.6602 21.8962C55.1502 20.7408 54.9202 18.7343 53.5502 18.3291C53.3402 18.2682 52.8203 18.3088 52.3002 18.319C52.2902 16.5557 52.1702 14.8632 51.9902 13.2826C52.6702 13.1 53.4002 13.1101 54.0802 13.2521C55.0703 13.4649 55.8902 13.9716 56.4503 14.7012C57.3802 15.9172 57.5202 17.6198 57.4802 19.1094Z"/><path stroke="#1F1D1A" stroke-linecap="round" stroke-linejoin="round" stroke-miterlimit="10" stroke-opacity="0.96" d="M57.4802 19.1094C57.4302 20.599 57.0902 22.0785 56.4702 23.4263C56.2603 23.8823 56.0103 24.3383 55.6002 24.6221C55.2003 24.9058 54.6002 24.9563 54.2302 24.6322C53.8602 24.2977 53.8502 23.7099 54.0103 23.2336C54.1702 22.7574 54.4702 22.3521 54.6602 21.8962C55.1502 20.7408 54.9202 18.7343 53.5502 18.3291C53.3402 18.2682 52.8203 18.3088 52.3002 18.319C52.2902 16.5557 52.1702 14.8632 51.9902 13.2826C52.6702 13.1 53.4002 13.1101 54.0802 13.2521C55.0703 13.4649 55.8902 13.9716 56.4503 14.7012C57.3802 15.9172 57.5202 17.6198 57.4802 19.1094Z"/><path stroke="url(#pattern3_137_3449)" stroke-linecap="round" stroke-linejoin="round" stroke-miterlimit="10" d="M36.9207 48.5277C36.4607 49.0141 35.6707 49.3281 35.1607 49.6524C33.4007 50.7774 32.0107 50.8583 29.9907 50.4632C26.5907 49.8147 23.4508 48.3756 20.4707 46.6427C17.5807 44.9705 15.0008 42.7513 12.8507 40.1877C10.2907 37.1373 8.31076 33.6311 6.79074 29.9527C6.32077 28.8176 5.89071 27.6625 5.51077 26.4969C6.05075 26.3552 6.72073 26.1931 6.98074 25.8992C6.34073 25.3114 5.89071 24.5006 5.73074 23.6394C5.60073 22.9907 5.64071 22.322 5.81076 21.6939C5.81076 21.6835 5.81076 21.6835 5.81076 21.6835C5.66073 21.5011 5.49075 21.4707 5.17074 21.4504C4.82077 21.4301 4.46072 21.4605 4.12075 21.5518C3.99075 21.0046 3.87075 20.4675 3.76077 19.9205C3.48074 18.5828 3.25076 17.245 3.06076 15.8972C2.93075 14.965 2.42074 13.5464 2.96072 12.6849C3.45077 11.8742 4.46072 11.4385 5.26077 11.0028C6.01077 10.5973 6.77072 10.2428 7.56076 9.93873C7.64071 9.9083 7.71072 9.86772 7.79074 9.82715C7.52072 10.2022 7.39071 10.6683 7.43075 11.1649C7.63076 13.5667 7.99075 15.9581 8.48074 18.3091C9.18075 21.7443 10.1707 25.1189 11.5108 28.3515C13.0307 32.0301 15.0108 35.5363 17.5608 38.5866C20.3307 41.88 23.7707 44.5653 27.6907 46.3184C29.2207 47.0077 30.8307 47.4941 32.4507 47.9095C33.3007 48.1222 34.1407 48.3147 34.9907 48.5173C35.6907 48.6898 36.2907 48.8417 36.9207 48.5277Z"/><path stroke="#1F1D1A" stroke-linecap="round" stroke-linejoin="round" stroke-miterlimit="10" stroke-opacity="0.96" d="M36.9207 48.5277C36.4607 49.0141 35.6707 49.3281 35.1607 49.6524C33.4007 50.7774 32.0107 50.8583 29.9907 50.4632C26.5907 49.8147 23.4508 48.3756 20.4707 46.6427C17.5807 44.9705 15.0008 42.7513 12.8507 40.1877C10.2907 37.1373 8.31076 33.6311 6.79074 29.9527C6.32077 28.8176 5.89071 27.6625 5.51077 26.4969C6.05075 26.3552 6.72073 26.1931 6.98074 25.8992C6.34073 25.3114 5.89071 24.5006 5.73074 23.6394C5.60073 22.9907 5.64071 22.322 5.81076 21.6939C5.81076 21.6835 5.81076 21.6835 5.81076 21.6835C5.66073 21.5011 5.49075 21.4707 5.17074 21.4504C4.82077 21.4301 4.46072 21.4605 4.12075 21.5518C3.99075 21.0046 3.87075 20.4675 3.76077 19.9205C3.48074 18.5828 3.25076 17.245 3.06076 15.8972C2.93075 14.965 2.42074 13.5464 2.96072 12.6849C3.45077 11.8742 4.46072 11.4385 5.26077 11.0028C6.01077 10.5973 6.77072 10.2428 7.56076 9.93873C7.64071 9.9083 7.71072 9.86772 7.79074 9.82715C7.52072 10.2022 7.39071 10.6683 7.43075 11.1649C7.63076 13.5667 7.99075 15.9581 8.48074 18.3091C9.18075 21.7443 10.1707 25.1189 11.5108 28.3515C13.0307 32.0301 15.0108 35.5363 17.5608 38.5866C20.3307 41.88 23.7707 44.5653 27.6907 46.3184C29.2207 47.0077 30.8307 47.4941 32.4507 47.9095C33.3007 48.1222 34.1407 48.3147 34.9907 48.5173C35.6907 48.6898 36.2907 48.8417 36.9207 48.5277Z"/><path stroke="url(#pattern4_137_3449)" stroke-linecap="round" stroke-linejoin="round" stroke-miterlimit="10" d="M52.3009 18.3191C52.4009 28.1284 49.4609 40.1165 37.1509 48.3956C37.0709 48.4464 37.0009 48.4869 36.9209 48.5275C36.2909 48.8415 35.6909 48.6896 34.9909 48.5171C34.1409 48.3145 33.3009 48.122 32.4509 47.9092C30.8309 47.4939 29.2209 47.0075 27.6909 46.3182C23.7709 44.5651 20.3309 41.8798 17.561 38.5863C15.011 35.5361 13.0309 32.0299 11.511 28.3513C10.1709 25.1187 9.18095 21.7441 8.48094 18.3089C7.99095 15.9578 7.63096 13.5664 7.43095 11.1646C7.39091 10.6681 7.52091 10.202 7.79093 9.82694C8.08091 9.4014 8.54093 9.0872 9.09092 8.99591C12.7809 8.3779 21.321 6.4625 26.4109 1.55797C26.9409 1.04115 27.7109 0.868956 28.4209 1.10201C30.9609 1.95308 37.6209 3.56442 47.5609 1.63912C48.5409 1.4464 49.5209 2.02408 49.8309 2.99687C50.4809 5.0236 51.4909 8.72253 51.9909 13.2827C52.1709 14.8633 52.2909 16.5558 52.3009 18.3191Z"/><path stroke="#1F1D1A" stroke-linecap="round" stroke-linejoin="round" stroke-miterlimit="10" stroke-opacity="0.96" d="M52.3009 18.3191C52.4009 28.1284 49.4609 40.1165 37.1509 48.3956C37.0709 48.4464 37.0009 48.4869 36.9209 48.5275C36.2909 48.8415 35.6909 48.6896 34.9909 48.5171C34.1409 48.3145 33.3009 48.122 32.4509 47.9092C30.8309 47.4939 29.2209 47.0075 27.6909 46.3182C23.7709 44.5651 20.3309 41.8798 17.561 38.5863C15.011 35.5361 13.0309 32.0299 11.511 28.3513C10.1709 25.1187 9.18095 21.7441 8.48094 18.3089C7.99095 15.9578 7.63096 13.5664 7.43095 11.1646C7.39091 10.6681 7.52091 10.202 7.79093 9.82694C8.08091 9.4014 8.54093 9.0872 9.09092 8.99591C12.7809 8.3779 21.321 6.4625 26.4109 1.55797C26.9409 1.04115 27.7109 0.868956 28.4209 1.10201C30.9609 1.95308 37.6209 3.56442 47.5609 1.63912C48.5409 1.4464 49.5209 2.02408 49.8309 2.99687C50.4809 5.0236 51.4909 8.72253 51.9909 13.2827C52.1709 14.8633 52.2909 16.5558 52.3009 18.3191Z"/><path fill="#EDEDED" d="M5.64082 31.584C5.92085 31.9895 6.06087 32.5672 5.79085 32.9826C5.53084 33.4081 4.94087 33.5095 4.47084 33.3475C4.01088 33.1953 3.64082 32.8205 3.32088 32.4454C2.36086 31.3104 1.64082 29.983 1.19087 28.5642C0.750871 27.1456 0.430864 25.4632 1.00087 24.0446C1.35085 23.1832 2.00087 22.4739 2.90083 21.9976C3.28084 21.795 3.69087 21.6329 4.12087 21.5518C4.46083 21.4605 4.82088 21.4301 5.17085 21.4503C5.49086 21.4706 5.66084 21.5011 5.81087 21.6834C5.81087 21.6834 5.81087 21.6834 5.81087 21.6938C5.64082 22.3219 5.60085 22.9907 5.73085 23.6394C5.89082 24.5006 6.34084 25.3113 6.98085 25.8992C6.72084 26.1931 6.05086 26.3551 5.51088 26.4969C5.18086 26.578 4.89082 26.6592 4.76088 26.7403C3.55086 27.5003 3.87087 29.4966 4.65083 30.4694C4.96083 30.8544 5.36086 31.1686 5.64082 31.584Z"/><path stroke="url(#pattern5_137_3449)" stroke-linecap="round" stroke-linejoin="round" stroke-miterlimit="10" d="M5.64082 31.584C5.92085 31.9895 6.06087 32.5672 5.79085 32.9826C5.53084 33.4081 4.94087 33.5095 4.47084 33.3475C4.01088 33.1953 3.64082 32.8205 3.32088 32.4454C2.36086 31.3104 1.64082 29.983 1.19087 28.5642C0.750871 27.1456 0.430864 25.4632 1.00087 24.0446C1.35085 23.1832 2.00087 22.4739 2.90083 21.9976C3.28084 21.795 3.69087 21.6329 4.12087 21.5518C4.46083 21.4605 4.82088 21.4301 5.17085 21.4503C5.49086 21.4706 5.66084 21.5011 5.81087 21.6834C5.81087 21.6834 5.81087 21.6834 5.81087 21.6938C5.64082 22.3219 5.60085 22.9907 5.73085 23.6394C5.89082 24.5006 6.34084 25.3113 6.98085 25.8992C6.72084 26.1931 6.05086 26.3551 5.51088 26.4969C5.18086 26.578 4.89082 26.6592 4.76088 26.7403C3.55086 27.5003 3.87087 29.4966 4.65083 30.4694C4.96083 30.8544 5.36086 31.1686 5.64082 31.584Z"/><path stroke="#1F1D1A" stroke-linecap="round" stroke-linejoin="round" stroke-miterlimit="10" stroke-opacity="0.96" d="M5.64082 31.584C5.92085 31.9895 6.06087 32.5672 5.79085 32.9826C5.53084 33.4081 4.94087 33.5095 4.47084 33.3475C4.01088 33.1953 3.64082 32.8205 3.32088 32.4454C2.36086 31.3104 1.64082 29.983 1.19087 28.5642C0.750871 27.1456 0.430864 25.4632 1.00087 24.0446C1.35085 23.1832 2.00087 22.4739 2.90083 21.9976C3.28084 21.795 3.69087 21.6329 4.12087 21.5518C4.46083 21.4605 4.82088 21.4301 5.17085 21.4503C5.49086 21.4706 5.66084 21.5011 5.81087 21.6834C5.81087 21.6834 5.81087 21.6834 5.81087 21.6938C5.64082 22.3219 5.60085 22.9907 5.73085 23.6394C5.89082 24.5006 6.34084 25.3113 6.98085 25.8992C6.72084 26.1931 6.05086 26.3551 5.51088 26.4969C5.18086 26.578 4.89082 26.6592 4.76088 26.7403C3.55086 27.5003 3.87087 29.4966 4.65083 30.4694C4.96083 30.8544 5.36086 31.1686 5.64082 31.584Z"/><path stroke="url(#pattern6_137_3449)" stroke-linecap="round" stroke-linejoin="round" stroke-miterlimit="10" d="M6.70126 20.002C6.28128 20.4782 5.98126 21.066 5.81127 21.6841C5.81127 21.6841 5.81127 21.6841 5.81127 21.6943C5.64126 22.3226 5.60125 22.9914 5.73126 23.6399C5.89126 24.5013 6.34127 25.312 6.98126 25.8997C7.28128 26.2037 7.62127 26.447 7.99127 26.6294"/><path stroke="#1F1D1A" stroke-linecap="round" stroke-linejoin="round" stroke-miterlimit="10" stroke-opacity="0.96" d="M6.70126 20.002C6.28128 20.4782 5.98126 21.066 5.81127 21.6841C5.81127 21.6841 5.81127 21.6841 5.81127 21.6943C5.64126 22.3226 5.60125 22.9914 5.73126 23.6399C5.89126 24.5013 6.34127 25.312 6.98126 25.8997C7.28128 26.2037 7.62127 26.447 7.99127 26.6294"/><path fill="#086EEA" d="M42.6209 55.5501C40.0409 57.5261 36.7809 58.6308 33.5409 58.4282C32.4509 58.3572 31.2909 58.114 30.5509 57.3032C30.1508 56.8574 29.9709 56.3203 29.9809 55.8035C30.0009 54.871 30.6508 54.0199 31.7909 54.0504C31.9809 54.0504 32.1609 54.0706 32.3509 54.1011C32.7509 54.1617 33.1508 54.2733 33.5509 54.344C37.5109 55.0434 40.7809 52.8039 42.6309 49.4192C43.0509 48.6592 43.2909 47.8586 44.1009 47.5241C44.7309 47.2708 45.4409 47.1594 46.0609 47.4128C46.2108 47.4635 46.3509 47.5444 46.4909 47.6458C49.0109 49.5711 44.0709 54.4455 42.6209 55.5501Z"/><path stroke="url(#pattern7_137_3449)" stroke-linecap="round" stroke-linejoin="round" stroke-miterlimit="10" d="M42.6209 55.5501C40.0409 57.5261 36.7809 58.6308 33.5409 58.4282C32.4509 58.3572 31.2909 58.114 30.5509 57.3032C30.1508 56.8574 29.9709 56.3203 29.9809 55.8035C30.0009 54.871 30.6508 54.0199 31.7909 54.0504C31.9809 54.0504 32.1609 54.0706 32.3509 54.1011C32.7509 54.1617 33.1508 54.2733 33.5509 54.344C37.5109 55.0434 40.7809 52.8039 42.6309 49.4192C43.0509 48.6592 43.2909 47.8586 44.1009 47.5241C44.7309 47.2708 45.4409 47.1594 46.0609 47.4128C46.2108 47.4635 46.3509 47.5444 46.4909 47.6458C49.0109 49.5711 44.0709 54.4455 42.6209 55.5501Z"/><path stroke="#1F1D1A" stroke-linecap="round" stroke-linejoin="round" stroke-miterlimit="10" stroke-opacity="0.96" d="M42.6209 55.5501C40.0409 57.5261 36.7809 58.6308 33.5409 58.4282C32.4509 58.3572 31.2909 58.114 30.5509 57.3032C30.1508 56.8574 29.9709 56.3203 29.9809 55.8035C30.0009 54.871 30.6508 54.0199 31.7909 54.0504C31.9809 54.0504 32.1609 54.0706 32.3509 54.1011C32.7509 54.1617 33.1508 54.2733 33.5509 54.344C37.5109 55.0434 40.7809 52.8039 42.6309 49.4192C43.0509 48.6592 43.2909 47.8586 44.1009 47.5241C44.7309 47.2708 45.4409 47.1594 46.0609 47.4128C46.2108 47.4635 46.3509 47.5444 46.4909 47.6458C49.0109 49.5711 44.0709 54.4455 42.6209 55.5501Z"/><path stroke="url(#pattern8_137_3449)" stroke-linecap="round" stroke-linejoin="round" stroke-miterlimit="10" d="M59.9106 55.7026C59.9106 55.6925 59.9006 55.6824 59.9006 55.6722C59.5607 54.8615 59.7707 53.909 60.1207 53.0983C60.4807 52.2977 60.9706 51.5377 61.2106 50.6966C61.4507 49.8454 61.3907 48.8219 60.7607 48.2139C60.2206 47.6768 59.3406 47.5755 58.6207 47.8491C57.9106 48.1125 57.3406 48.68 56.9106 49.3184C56.2106 50.3622 55.8506 51.5782 55.4006 52.7537C54.9606 53.9191 54.3907 55.0946 53.4207 55.8749C52.8506 56.3309 52.1207 56.6147 51.4207 56.6248M51.4207 56.6248C50.9006 56.6248 50.4006 56.5032 49.9807 56.1992C49.0807 55.5405 48.7906 54.3143 48.8007 53.1895C48.8207 51.9836 49.4307 50.5041 50.6307 50.4737C51.3406 50.4534 51.9807 51.0006 52.2507 51.6593C52.5306 52.3281 52.5007 53.078 52.3907 53.7874C52.2307 54.7805 51.9006 55.7432 51.4207 56.6248ZM51.4207 56.6248C50.2707 58.763 48.2806 60.4452 45.9606 61.1241C42.6907 62.0767 38.9207 60.9519 36.6807 58.3577"/><path stroke="#1F1D1A" stroke-linecap="round" stroke-linejoin="round" stroke-miterlimit="10" stroke-opacity="0.96" d="M59.9106 55.7026C59.9106 55.6925 59.9006 55.6824 59.9006 55.6722C59.5607 54.8615 59.7707 53.909 60.1207 53.0983C60.4807 52.2977 60.9706 51.5377 61.2106 50.6966C61.4507 49.8454 61.3907 48.8219 60.7607 48.2139C60.2206 47.6768 59.3406 47.5755 58.6207 47.8491C57.9106 48.1125 57.3406 48.68 56.9106 49.3184C56.2106 50.3622 55.8506 51.5782 55.4006 52.7537C54.9606 53.9191 54.3907 55.0946 53.4207 55.8749C52.8506 56.3309 52.1207 56.6147 51.4207 56.6248M51.4207 56.6248C50.9006 56.6248 50.4006 56.5032 49.9807 56.1992C49.0807 55.5405 48.7906 54.3143 48.8007 53.1895C48.8207 51.9836 49.4307 50.5041 50.6307 50.4737C51.3406 50.4534 51.9807 51.0006 52.2507 51.6593C52.5306 52.3281 52.5007 53.078 52.3907 53.7874C52.2307 54.7805 51.9006 55.7432 51.4207 56.6248ZM51.4207 56.6248C50.2707 58.763 48.2806 60.4452 45.9606 61.1241C42.6907 62.0767 38.9207 60.9519 36.6807 58.3577"/><path stroke="url(#pattern9_137_3449)" stroke-linecap="round" stroke-linejoin="round" stroke-miterlimit="10" d="M64.6453 60.3127C64.7332 57.7239 63.144 55.5674 61.0957 55.496C59.0473 55.4245 57.3156 57.4652 57.2276 60.0539C57.1397 62.6426 58.7289 64.7991 60.7772 64.8706C62.8255 64.9421 64.5573 62.9014 64.6453 60.3127Z"/><path stroke="#1F1D1A" stroke-linecap="round" stroke-linejoin="round" stroke-miterlimit="10" stroke-opacity="0.96" d="M64.6453 60.3127C64.7332 57.7239 63.144 55.5674 61.0957 55.496C59.0473 55.4245 57.3156 57.4652 57.2276 60.0539C57.1397 62.6426 58.7289 64.7991 60.7772 64.8706C62.8255 64.9421 64.5573 62.9014 64.6453 60.3127Z"/><path stroke="url(#pattern10_137_3449)" stroke-linecap="round" stroke-linejoin="round" stroke-miterlimit="10" d="M64.6892 60.1786C64.7526 58.3136 63.6076 56.7599 62.1319 56.7084C60.6562 56.6569 59.4086 58.1271 59.3452 59.9922C59.2818 61.8572 60.4268 63.4109 61.9025 63.4624C63.3782 63.5138 64.6258 62.0437 64.6892 60.1786Z"/><path stroke="#1F1D1A" stroke-linecap="round" stroke-linejoin="round" stroke-miterlimit="10" stroke-opacity="0.96" d="M64.6892 60.1786C64.7526 58.3136 63.6076 56.7599 62.1319 56.7084C60.6562 56.6569 59.4086 58.1271 59.3452 59.9922C59.2818 61.8572 60.4268 63.4109 61.9025 63.4624C63.3782 63.5138 64.6258 62.0437 64.6892 60.1786Z"/><path fill="#0870EE" d="M31.8624 35.3565C28.9551 34.5574 26.1946 33.2132 23.7624 31.4123C22.1002 30.1816 20.5706 28.7135 19.5401 26.9075C18.5096 25.1016 18.013 22.9264 18.4662 20.8915C18.9194 18.8565 20.4154 17.0198 22.3983 16.4595C24.053 15.9919 25.8564 16.4303 27.3536 17.2838C28.8508 18.1373 30.0938 19.3751 31.3001 20.6145C31.3432 18.28 32.1072 15.864 33.82 14.3022C35.5329 12.7405 38.2978 12.275 40.1881 13.6101C42.1306 14.982 42.6264 17.6822 42.5396 20.08C42.3768 24.5715 40.707 28.9933 37.8692 32.4475"/><path stroke="url(#pattern11_137_3449)" stroke-linecap="round" stroke-linejoin="round" stroke-miterlimit="10" d="M31.8624 35.3565C28.9551 34.5574 26.1946 33.2132 23.7624 31.4123C22.1002 30.1816 20.5706 28.7135 19.5401 26.9075C18.5096 25.1016 18.013 22.9264 18.4662 20.8915C18.9194 18.8565 20.4154 17.0198 22.3983 16.4595C24.053 15.9919 25.8564 16.4303 27.3536 17.2838C28.8508 18.1373 30.0938 19.3751 31.3001 20.6145C31.3432 18.28 32.1072 15.864 33.82 14.3022C35.5329 12.7405 38.2978 12.275 40.1881 13.6101C42.1306 14.982 42.6264 17.6822 42.5396 20.08C42.3768 24.5715 40.707 28.9933 37.8692 32.4475"/><path stroke="#1F1D1A" stroke-linecap="round" stroke-linejoin="round" stroke-miterlimit="10" stroke-opacity="0.96" d="M31.8624 35.3565C28.9551 34.5574 26.1946 33.2132 23.7624 31.4123C22.1002 30.1816 20.5706 28.7135 19.5401 26.9075C18.5096 25.1016 18.013 22.9264 18.4662 20.8915C18.9194 18.8565 20.4154 17.0198 22.3983 16.4595C24.053 15.9919 25.8564 16.4303 27.3536 17.2838C28.8508 18.1373 30.0938 19.3751 31.3001 20.6145C31.3432 18.28 32.1072 15.864 33.82 14.3022C35.5329 12.7405 38.2978 12.275 40.1881 13.6101C42.1306 14.982 42.6264 17.6822 42.5396 20.08C42.3768 24.5715 40.707 28.9933 37.8692 32.4475"/><path stroke="url(#pattern12_137_3449)" stroke-linecap="round" stroke-linejoin="round" stroke-miterlimit="10" d="M17.1768 29.5532L25.0746 27.1133L25.2729 22.5907L29.5679 28.1442L30.9223 24.9273L33.7771 26.4349L34.4208 21.8776L35.8646 24.1794L46.1315 21.3975"/><path stroke="#1F1D1A" stroke-linecap="round" stroke-linejoin="round" stroke-miterlimit="10" stroke-opacity="0.96" d="M17.1768 29.5532L25.0746 27.1133L25.2729 22.5907L29.5679 28.1442L30.9223 24.9273L33.7771 26.4349L34.4208 21.8776L35.8646 24.1794L46.1315 21.3975"/></svg>