<svg xmlns="http://www.w3.org/2000/svg" width="63" height="66" fill="none" viewBox="0 0 63 66"><path stroke="black" stroke-linecap="round" stroke-linejoin="round" stroke-miterlimit="10" d="M13.2475 36.2568C9.44516 39.0005 6.95786 44.0282 7.8147 48.696C8.25315 51.0844 9.1413 53.366 10.1119 55.592C11.5169 58.8145 13.1054 61.957 14.8671 64.9992"/><path stroke="black" stroke-linecap="round" stroke-linejoin="round" stroke-miterlimit="10" d="M34.7667 56.751C35.3003 58.9753 35.2211 61.3494 34.4912 63.5187"/><path stroke="black" stroke-linecap="round" stroke-linejoin="round" stroke-miterlimit="10" d="M36.8311 3.04586C37.7077 2.79096 38.7728 2.16212 39.6711 2.23539C40.2587 2.28333 40.2922 2.4343 40.6741 2.89573C41.1912 3.52026 41.6654 4.18707 42.1513 4.83587C43.6019 6.77291 45.0104 8.7416 46.3789 10.7375C52.8488 20.1735 58.9691 30.4614 61.9916 41.5802"/><path stroke="black" stroke-linecap="round" stroke-linejoin="round" stroke-miterlimit="10" d="M61.5616 41.8235C57.8916 43.8538 32.0316 58.1636 27.0316 60.8635C26.7116 61.0337 26.3116 60.8936 26.1816 60.5537C25.9516 60.5537 24.5516 56.5637 24.4016 56.2336C24.4016 56.2236 24.3916 56.2236 24.3916 56.2136C24.5617 53.5237 23.3616 50.7236 21.1217 49.2036C23.2517 47.1436 28.0516 39.5237 23.4016 37.5337C22.3316 37.0837 21.0617 37.3037 20.0617 37.8936C19.0617 38.4736 18.2916 39.3936 17.6316 40.3435C17.3516 40.7637 17.0816 41.1836 16.8416 41.6235C13.8516 36.6636 10.5017 31.9336 6.86164 27.3936C5.50166 25.7036 4.11164 24.0337 2.68165 22.4136C1.93165 21.5537 -0.278372 20.4636 0.801645 19.2236C2.74165 16.9836 5.77162 15.1636 8.18165 13.4736C10.7316 11.6836 13.3616 10.0237 16.0816 8.50366C21.4616 5.48364 27.1516 3.0237 33.0416 1.18361C34.4016 0.763687 34.8116 1.05373 35.6916 2.04372C36.5316 3.00368 37.3916 3.9436 38.2416 4.89355C39.7916 6.62354 41.4016 8.42358 42.8816 10.1436C50.6716 19.2437 58.2216 29.5437 61.8416 41.1038C61.9316 41.3835 61.8116 41.6836 61.5616 41.8235Z"/><path fill="#086EE9" stroke="black" stroke-linecap="round" stroke-linejoin="round" stroke-miterlimit="10" d="M13.479 20.4637C13.4974 21.1611 13.5883 21.8894 13.7368 22.6856C14.6626 27.6503 17.9869 32.1158 22.8122 33.8827C28.2513 35.8744 34.9048 33.9873 38.3919 29.3623C41.1006 25.7697 41.8083 20.7621 40.2014 16.5596C37.208 8.73132 26.8274 6.03561 19.8524 10.1885C17.6208 11.5171 15.8042 13.5075 14.6209 15.8145C13.7621 17.4886 13.4379 18.8984 13.479 20.4637Z"/><path stroke="black" stroke-linecap="round" stroke-linejoin="round" stroke-miterlimit="10" d="M25.3125 41.7025C31.8069 38.2673 38.1024 34.4559 44.1568 30.2939"/><path stroke="black" stroke-linecap="round" stroke-linejoin="round" stroke-miterlimit="10" d="M28.7197 43.7247C31.5088 42.1892 34.2978 40.6537 37.0869 39.1182"/><path stroke="black" stroke-linecap="round" stroke-linejoin="round" stroke-miterlimit="10" d="M44.2891 45.7118C45.5855 45.0526 46.4394 43.6063 46.3901 42.1527C46.3408 40.6992 45.3909 39.314 44.0527 38.7443C44.2128 40.1738 44.7073 41.5648 45.4854 42.7746C46.0461 43.6463 46.9197 44.4952 47.9515 44.397C49.046 44.2929 49.7519 43.1755 50.0508 42.1174C50.3498 41.0594 50.4359 39.9013 51.0682 39.0019C50.9762 39.6962 51.6624 40.3792 52.3562 40.2839C52.9211 40.2063 53.3366 39.7332 53.6977 39.2919C54.596 38.194 55.4943 37.096 56.3926 35.998"/><path fill="#F2F2F2" stroke="black" stroke-linecap="round" stroke-linejoin="round" stroke-miterlimit="10" d="M35.6418 20.9636C35.5418 21.3137 35.3719 21.6436 35.1618 21.9436C35.2718 22.4136 35.3318 22.8835 35.3318 23.3635C35.3318 27.5935 30.2618 30.4736 26.4518 29.2637C24.8818 28.7637 23.5419 27.6436 22.7119 26.2336C22.4919 25.8635 22.2919 25.4436 22.1318 24.9937C23.4518 24.4536 24.5419 23.3337 25.0318 21.9937C25.8719 22.4436 26.9218 22.4636 27.7818 22.0537C28.9919 21.4736 29.6018 20.0935 30.2519 19.0037C30.8618 19.7236 31.4718 20.4436 32.0818 21.1636C32.0718 20.6636 32.0818 20.1636 32.2218 19.6836C32.3018 19.4036 32.4319 19.1335 32.6118 18.8936L32.6219 18.8835C32.6918 18.7136 32.7918 18.5637 32.9218 18.4336C32.9618 18.4036 32.9919 18.3635 33.0418 18.3435C33.0718 18.3635 33.1018 18.3936 33.1318 18.4236C33.1718 18.3936 33.2218 18.3735 33.2718 18.3538C33.4718 18.2637 33.6918 18.2236 33.9018 18.2236C34.0118 18.2236 34.1318 18.2437 34.2419 18.2737C34.6318 18.3538 34.9919 18.5735 35.2519 18.8835C35.7218 19.4436 35.8318 20.2537 35.6418 20.9636Z"/><path fill="#D9D9D9" stroke="black" stroke-linecap="round" stroke-linejoin="round" stroke-miterlimit="10" d="M34.2412 18.2741C34.1312 18.2441 34.0112 18.2241 33.9012 18.2241C33.8812 18.2041 33.8512 18.194 33.8212 18.184C33.5612 18.1042 33.2712 18.184 33.0412 18.3439C32.9912 18.364 32.9612 18.404 32.9212 18.434C32.7912 18.5642 32.6911 18.7141 32.6212 18.884L32.6112 18.894C32.4312 19.134 32.3012 19.404 32.2212 19.684C32.0812 20.164 32.0712 20.664 32.0812 21.164C31.4712 20.444 30.8612 19.7241 30.2512 19.0041C29.6012 20.0939 28.9912 21.4741 27.7812 22.0542C26.9212 22.4641 25.8712 22.444 25.0312 21.9941C24.5412 23.3342 23.4512 24.4541 22.1312 24.9941C22.1012 25.0141 22.0812 25.0241 22.0512 25.0341C21.8512 25.1042 21.6512 25.174 21.4412 25.2241C20.2312 25.5141 18.9012 25.364 17.7912 24.7741C17.0112 24.3542 16.3212 23.7041 15.9812 22.884C15.6312 22.0542 15.6812 21.0542 16.2112 20.3342C16.5012 19.944 16.9312 19.664 17.4012 19.5441C17.7412 19.4641 18.2912 19.614 18.5812 19.4641C19.4012 19.0341 18.3712 18.134 18.1112 17.5542C17.7212 16.684 18.0712 15.5542 18.8812 15.0642C19.6912 14.5642 20.8612 14.7741 21.4612 15.5141C21.0312 14.2041 21.7712 12.624 23.0512 12.1042C24.3312 11.5939 25.9512 12.2141 26.5612 13.444C26.3912 12.384 27.2912 11.364 28.3412 11.134C29.3912 10.904 30.4912 11.3142 31.3612 11.944C32.4312 12.7141 33.2312 13.8239 33.6612 15.0642C33.8812 15.684 33.9712 16.3142 34.0312 16.9641C34.0512 17.2341 34.1812 17.7941 34.2412 18.2741Z"/><path stroke="black" stroke-linecap="round" stroke-linejoin="round" stroke-miterlimit="10" d="M32.0819 21.4236C32.0819 21.3336 32.0819 21.2536 32.0819 21.1636C32.072 20.6636 32.0819 20.1636 32.2219 19.6836C32.3019 19.4036 32.4319 19.1336 32.6119 18.8936L32.6219 18.8836C32.7919 18.6536 33.012 18.4636 33.2719 18.3536C33.4719 18.2636 33.692 18.2236 33.9019 18.2236C34.012 18.2236 34.132 18.2436 34.2419 18.2736C34.632 18.3536 34.9919 18.5736 35.252 18.8836C35.7219 19.4436 35.8319 20.2536 35.6419 20.9636C35.442 21.6636 34.9719 22.2736 34.4119 22.7436"/><path stroke="black" stroke-linecap="round" stroke-linejoin="round" stroke-miterlimit="10" d="M14.4502 48.3898C14.9586 45.5298 15.9935 42.7453 17.6323 40.3469C18.2873 39.3883 19.0573 38.4757 20.059 37.8887C21.0606 37.3017 22.3299 37.0811 23.3978 37.5365C28.0498 39.5201 23.249 47.1421 21.1224 49.1985C24.1944 51.2939 25.3219 55.7965 23.5998 59.0923"/></svg>