<svg xmlns="http://www.w3.org/2000/svg" width="65" height="66" fill="none" viewBox="0 0 65 66"><path stroke="black" stroke-linecap="round" stroke-linejoin="round" stroke-miterlimit="10" d="M31.1756 8.86069C30.2003 8.66968 29.2047 8.47842 28.2092 8.28745L28.179 5.73325C28.1488 3.12875 30.2606 0.99707 32.8649 0.99707C34.142 0.99707 35.3085 1.50992 36.1532 2.3446C36.9979 3.17908 37.5308 4.32556 37.551 5.60263L37.5911 10.2281C35.4895 9.75552 33.3577 9.30307 31.1756 8.86069Z"/><path stroke="black" stroke-linecap="round" stroke-linejoin="round" stroke-miterlimit="10" d="M37.8026 35.1862L28.491 35.2365L28.4307 29.3438L31.5178 29.7159L37.7623 30.4802L37.8026 35.1862Z"/><path stroke="black" stroke-linecap="round" stroke-linejoin="round" stroke-miterlimit="10" d="M28.8193 64.9971L28.6924 53.2564C29.7582 53.1158 30.8342 52.9748 31.9001 52.8442C33.9113 52.5727 35.9325 52.3112 37.9436 52.0498L38.0413 64.1079"/><path stroke="black" stroke-linecap="round" stroke-linejoin="round" stroke-miterlimit="10" d="M31.608 35.2163L31.5176 29.7158"/><path stroke="black" stroke-linecap="round" stroke-linejoin="round" stroke-miterlimit="10" d="M32.0613 62.7285L31.9004 52.8438"/><path stroke="black" stroke-linecap="round" stroke-linejoin="round" stroke-miterlimit="10" d="M31.176 8.86035L31.0654 2.12305"/><path fill="#0870EE" stroke="black" stroke-linecap="round" stroke-linejoin="round" stroke-miterlimit="10" d="M55.8327 28.7404C55.3902 29.3839 54.8573 29.9873 54.2741 30.5203C53.5199 31.1939 52.3533 32.28 51.2573 32.1391L37.7626 30.48L31.518 29.7158L28.4309 29.3436L12.724 27.413C11.9396 27.3123 11.3564 26.6387 11.3765 25.8543L11.7888 11.1329C11.8189 10.1374 12.9854 9.12177 13.6692 8.46799C14.5138 7.65344 15.4792 6.94958 16.5149 6.39648C16.4747 6.4166 16.4446 6.46692 16.4245 6.52731C16.4245 6.52731 16.4245 6.52731 16.4144 6.52731C15.8814 6.7485 15.4792 7.26135 15.4591 7.90482L15.0569 22.6265C15.0267 23.4109 15.6099 24.0845 16.3942 24.1852L28.3907 25.6633L31.4577 26.0352L37.7324 26.8096L54.9276 28.9214C55.2494 28.9515 55.5612 28.8911 55.8327 28.7404Z"/><path fill="#0870EE" stroke="black" stroke-linecap="round" stroke-linejoin="round" stroke-miterlimit="10" d="M59.8146 23.5116L56.3555 28.2982C56.2147 28.4894 56.0337 28.6401 55.8325 28.7408C55.5611 28.8915 55.2493 28.9519 54.9275 28.9217L37.7323 26.8099L31.4576 26.0356L28.3906 25.6637L16.3941 24.1855C15.6098 24.0849 15.0266 23.4112 15.0568 22.6269L15.4589 7.90518C15.4791 7.26171 15.8813 6.74887 16.4143 6.52767C16.4243 6.52767 16.4243 6.52767 16.4243 6.52767C16.6958 6.41696 17.0076 6.3767 17.3193 6.44717C21.06 7.01034 24.6901 7.62384 28.2096 8.28744C29.2051 8.47842 30.2006 8.66967 31.176 8.86068C33.3581 9.30307 35.4899 9.75552 37.5915 10.2281C43.3836 11.5153 48.8941 12.9532 54.1834 14.4817C54.5554 14.5622 54.8772 14.7733 55.0985 15.0851L59.8146 21.7317C60.1967 22.2647 60.1967 22.9789 59.8146 23.5116Z"/><path fill="#F2F2F2" stroke="black" stroke-linecap="round" stroke-linejoin="round" stroke-miterlimit="10" d="M52.7655 47.0016C52.4939 47.5949 52.2827 48.2686 52.0013 48.8617C51.6191 49.6463 51.1163 50.2898 50.1711 50.4506C49.8392 50.511 49.5074 50.5412 49.1856 50.5814C45.9075 51.0138 42.6293 51.436 39.3612 51.8686C38.8886 51.9287 38.416 51.9891 37.9434 52.0495C35.9323 52.311 33.911 52.5724 31.8999 52.844C30.834 52.9745 29.758 53.1155 28.6922 53.2562C27.9983 53.3467 27.3045 53.4371 26.6106 53.5277C24.4889 53.8093 22.3772 54.0808 20.2554 54.3523C19.813 54.4124 19.3604 54.2718 19.0186 53.9801L11.7684 47.5244C11.145 46.9713 11.0746 46.0161 11.6076 45.3727L12.7237 44.0352C12.8042 44.1456 12.8846 44.2563 12.9952 44.347L20.2453 50.7925C20.5772 51.0943 21.0298 51.235 21.4822 51.1746L28.662 50.2394L31.8496 49.8272L37.9132 49.0328L51.4281 47.2731C52.1822 47.1624 52.7252 46.539 52.7655 45.815C52.8057 45.845 52.8358 45.8853 52.866 45.9255C53.0772 46.2373 52.9263 46.6596 52.7655 47.0016Z"/><path fill="#F2F2F2" stroke="black" stroke-linecap="round" stroke-linejoin="round" stroke-miterlimit="10" d="M52.7657 45.8154C52.7254 46.5394 52.1824 47.1627 51.4283 47.2735L37.9134 49.0332L31.8498 49.8276L28.6622 50.2398L21.4824 51.1749C21.03 51.2353 20.5774 51.0947 20.2456 50.7929L12.9954 44.3473C12.8848 44.2567 12.8044 44.146 12.7239 44.0355C12.3519 43.4724 12.382 42.7182 12.8345 42.1852L18.1239 35.8501C18.4154 35.4983 18.8479 35.2972 19.3104 35.2869L28.4912 35.2368L31.6085 35.2167L37.8028 35.1865L49.6383 35.1261C50.3925 35.116 51.0462 35.6591 51.1769 36.4133L52.7556 45.4634C52.7758 45.5842 52.7858 45.7047 52.7657 45.8154Z"/></svg>