<svg xmlns="http://www.w3.org/2000/svg" width="71" height="66" fill="none" viewBox="0 0 71 66"><path stroke="black" stroke-linecap="round" stroke-linejoin="round" stroke-miterlimit="10" d="M44.8587 61.6003C44.7289 61.9357 44.6424 62.5198 44.3395 62.7686C44.0583 63.0065 43.5391 63.0498 43.1821 63.1362C42.1979 63.4066 41.2027 63.6448 40.1968 63.8503C38.2066 64.2612 36.173 64.5641 34.1395 64.7481C30.0617 65.1374 25.9406 65.0724 21.8844 64.5857C19.5047 64.2936 17.1467 63.8611 14.8428 63.277C12.528 62.7036 10.2457 61.9682 8.05002 61.1028C6.25443 60.389 4.49133 59.5778 2.79312 58.6691C1.77637 58.1283 1.7223 57.9228 1.45188 56.8303C1.20312 55.835 0.954364 54.84 0.705539 53.845C0.651469 53.6287 0.597399 53.3907 0.673123 53.185C0.705539 53.1203 0.73802 53.0554 0.792089 53.0012C0.921883 53.1092 1.1274 53.2067 1.24637 53.2716C3.27988 54.4291 5.41078 55.4458 7.6065 56.3112C9.81312 57.1871 12.0846 57.912 14.3993 58.4961C16.714 59.08 19.0613 59.5128 21.4409 59.7941C25.4971 60.2916 29.6182 60.3457 33.696 59.967C35.7404 59.7724 37.763 59.4803 39.7641 59.0583C40.7592 58.8529 41.7544 58.6258 42.7387 58.3554C43.0956 58.2582 43.6148 58.2149 43.896 57.9878C44.1989 57.739 44.2855 57.1441 44.4152 56.8195C44.837 55.7703 45.1399 54.6887 45.3238 53.5962C45.5726 52.1683 45.7673 50.5242 45.2697 49.1396C45.432 49.3129 45.5185 49.5508 45.5942 49.7887C46.8381 53.6501 46.3622 57.8795 44.8587 61.6003Z"/><path stroke="black" stroke-linecap="round" stroke-linejoin="round" stroke-miterlimit="10" d="M45.3236 53.5956C45.1397 54.6881 44.8368 55.7698 44.415 56.8189C44.2853 57.1435 44.1987 57.7384 43.8958 57.9872C43.6146 58.2143 43.0954 58.2576 42.7385 58.3548C41.7542 58.6252 40.7591 58.8523 39.7639 59.0578C37.7628 59.4798 35.7402 59.7718 33.6958 59.9664C29.618 60.3451 25.4969 60.291 21.4407 59.7935C19.0611 59.5122 16.7138 59.0794 14.3991 58.4955C12.0844 57.9114 9.81292 57.1865 7.6063 56.3106C5.41057 55.4452 3.27968 54.4285 1.24616 53.2711C1.1272 53.2061 0.921679 53.1087 0.791885 53.0007C0.640438 52.8816 0.597195 52.7519 0.910851 52.6545C1.47333 52.4923 2.02499 52.2974 2.56582 52.1028C3.50685 51.7566 4.42623 51.3565 5.30237 50.9023C6.60037 50.2207 7.83347 49.3878 8.80692 48.3495C9.46678 47.6357 10.0076 46.8136 10.3213 45.9266C10.5376 45.3208 10.6349 44.672 10.6133 44.0337C10.6025 43.7091 10.5593 43.3738 10.4619 43.0603C10.4619 43.0387 10.4511 43.017 10.4402 42.9953C17.7198 42.9737 21.9599 41.427 24.4044 39.8262C24.4585 39.88 24.5234 39.9342 24.5775 39.9883C26.4812 41.7082 28.7526 43.0062 31.208 43.7416C33.7066 44.4987 36.9408 44.9857 39.4719 44.1961C39.9586 44.0445 40.4346 43.8174 40.8456 43.5362C42.7493 45.072 44.4583 46.9108 45.2587 49.0958C45.2587 49.1066 45.2695 49.1282 45.2695 49.1391C45.7671 50.5236 45.5724 52.1678 45.3236 53.5956Z"/><path stroke="black" stroke-linecap="round" stroke-linejoin="round" stroke-miterlimit="10" d="M26.8974 54.9244C32.376 54.9244 36.8172 52.7439 36.8172 50.054C36.8172 47.3642 32.376 45.1836 26.8974 45.1836C21.4188 45.1836 16.9775 47.3642 16.9775 50.054C16.9775 52.7439 21.4188 54.9244 26.8974 54.9244Z"/><path fill="#0870EE" stroke="black" stroke-linecap="round" stroke-linejoin="round" stroke-miterlimit="10" d="M48.4062 23.8942C47.7139 24.6188 46.8702 24.9975 45.9508 25.3976C45.9076 26.0034 45.8643 26.5984 45.7778 27.1931C45.6588 28.1126 45.5074 29.0321 45.291 29.9297C44.5555 29.6268 43.7659 29.3888 43.0303 29.6051C42.0244 29.908 41.2564 31.2493 41.2781 32.2662C41.2889 33.0775 41.581 33.5966 42.0136 33.9751C42.4571 34.3537 43.052 34.5808 43.6794 34.7971C43.4414 35.3596 43.171 35.9113 42.8897 36.4521C42.7924 36.647 42.695 36.8199 42.5977 37.0037C42.4463 37.2633 42.2948 37.5229 42.1434 37.7825C41.8081 38.345 41.6242 38.4099 41.9595 38.9508C42.4138 39.6754 42.522 40.119 42.4463 41.0058C42.3381 42.1091 41.6999 42.9528 40.8454 43.537C40.4344 43.8182 39.9585 44.0453 39.4717 44.1969C36.9406 44.9865 33.7065 44.4995 31.2079 43.7424C28.7525 43.007 26.481 41.709 24.5773 39.9891C24.5232 39.935 24.4583 39.8808 24.4043 39.827C23.831 39.3078 23.2901 38.7128 22.9873 38.0096C22.3167 36.4413 23.3118 33.3693 25.4426 33.7696C25.3994 32.8934 25.3994 32.0283 25.421 31.1629C25.4968 29.3672 25.7347 27.5934 26.2863 25.8951C26.957 23.7859 28.1792 21.7848 29.8234 20.303C30.137 20.0002 30.4832 19.7406 30.8401 19.481C30.0181 18.778 29.4881 17.7286 29.4231 16.6469C29.369 15.5653 29.7585 14.4514 30.494 13.6618C30.6779 13.4669 30.8726 13.3481 31.0672 13.2939C30.905 13.5427 30.8509 13.8348 30.9158 14.181C31.2728 16.2468 35.6102 19.2755 40.5966 20.9519C45.0314 22.4447 48.4927 22.3581 48.9362 20.8655C48.9794 20.9413 49.0335 21.0385 49.0768 21.1251C49.4987 22.0446 49.1201 23.1693 48.4062 23.8942Z"/><path fill="#0870EE" stroke="black" stroke-linecap="round" stroke-linejoin="round" stroke-miterlimit="10" d="M41.2779 32.2659C41.2888 33.0771 41.5808 33.5963 42.0134 33.9747C42.457 34.3534 43.0519 34.5805 43.6792 34.7968C43.4412 35.3593 43.1708 35.9109 42.8896 36.4518C42.7923 36.6467 42.6949 36.8196 42.5976 37.0034C42.5002 37.0359 42.4028 37.0576 42.3055 37.09C38.9199 37.9876 35.2423 37.7389 31.9973 36.3868C29.8016 35.4784 27.8113 34.0614 26.2105 32.2984C25.8968 31.9522 25.6372 31.5627 25.4209 31.1626C25.4966 29.3669 25.7346 27.5931 26.2862 25.8948C26.9568 23.7856 28.1791 21.7845 29.8232 20.3027V20.3136C29.8232 20.8327 30.1801 21.4602 30.4397 21.8927C31.0563 22.8986 31.9757 23.699 32.9383 24.3589C36.4754 26.7818 40.9318 27.831 45.1827 27.2577C45.3774 27.2252 45.5721 27.1927 45.7777 27.1927C45.6586 28.1123 45.5072 29.0318 45.2909 29.9294C44.5554 29.6265 43.7657 29.3885 43.0302 29.6048C42.0243 29.9077 41.2563 31.2489 41.2779 32.2659Z"/><path fill="#0870EE" stroke="black" stroke-linecap="round" stroke-linejoin="round" stroke-miterlimit="10" d="M69.6604 40.692C69.3576 41.6115 68.8167 42.5093 67.9622 42.9744C66.8265 43.5802 65.6691 42.8447 64.5874 42.4444C62.846 41.7847 61.1154 41.0165 59.3631 40.4326C55.361 38.994 51.348 37.5553 47.3351 36.1166C46.2642 35.7273 45.1934 35.3486 44.1225 34.9594C43.9711 34.9053 43.8305 34.8511 43.6791 34.797C43.0517 34.5807 42.4568 34.3536 42.0133 33.9749C41.5807 33.5965 41.2886 33.0773 41.2778 32.2661C41.2561 31.2491 42.0241 29.9079 43.0301 29.605C43.7656 29.3887 44.5552 29.6267 45.2908 29.9295C45.691 30.092 46.0695 30.2649 46.4265 30.384C48.2004 31.0004 49.9743 31.6062 51.7482 32.2228C56.4642 33.8453 61.1262 35.5974 65.9287 36.9062C67.0536 37.2199 68.8059 37.339 69.5306 38.3665C69.9957 39.0264 69.9092 39.924 69.6604 40.692Z"/><path fill="#0870EE" stroke="black" stroke-linecap="round" stroke-linejoin="round" stroke-miterlimit="10" d="M48.9368 20.8656C48.4933 22.3581 45.0321 22.4448 40.5972 20.9519C35.6108 19.2756 31.2734 16.2469 30.9164 14.181C30.8515 13.8348 30.9057 13.5428 31.0679 13.294C31.8359 12.0608 35.1349 12.0716 39.2885 13.467C44.2749 15.1436 48.6123 18.1723 48.9692 20.2381C49.0125 20.4652 49.0017 20.6815 48.9368 20.8656Z"/><path stroke="black" stroke-linecap="round" stroke-linejoin="round" stroke-miterlimit="10" d="M44.0996 9.51934C45.7233 5.88117 48.6154 2.82396 52.1579 1.00098"/><path stroke="black" stroke-linecap="round" stroke-linejoin="round" stroke-miterlimit="10" d="M47.0449 12.8087C48.3227 10.4972 50.0451 8.43241 52.0899 6.76074"/><path stroke="black" stroke-linecap="round" stroke-linejoin="round" stroke-miterlimit="10" d="M16.0086 38.3882L9.84824 37.113C9.4787 37.0365 9.43258 36.5273 9.78238 36.3857L13.7571 34.7762C14.0092 34.6741 14.0766 34.3486 13.8857 34.1548L9.44664 29.6467C9.17016 29.3659 9.44886 28.9014 9.82672 29.0131L15.7346 30.7601C15.9721 30.8302 16.2125 30.6592 16.224 30.4119L16.431 25.9619C16.4496 25.5619 16.9931 25.457 17.1593 25.8212L19.7609 31.5238"/></svg>