<svg xmlns="http://www.w3.org/2000/svg" width="196" height="29" fill="none" viewBox="0 0 196 29"><ellipse cx="14.1733" cy="13.9411" fill="black" rx="12.6176" ry="12.383"/><path fill="white" d="M5.46616 20.6701C5.46584 20.6802 5.46139 20.6879 5.43789 20.698C5.41654 20.7121 5.4101 20.7215 5.40367 20.7309C5.40367 20.7309 5.40342 20.728 5.39694 20.7311C5.38446 20.7435 5.37846 20.7528 5.37247 20.7621C5.37247 20.7621 5.37211 20.7592 5.36549 20.7626C5.3529 20.7755 5.34693 20.7851 5.34095 20.7947C5.3168 20.8222 5.29264 20.8498 5.25159 20.884C5.22839 20.9002 5.22208 20.9099 5.21577 20.9196C5.16082 20.9782 5.10586 21.0367 5.03354 21.1023C5.0098 21.1186 5.00343 21.1279 4.99705 21.1372C4.99705 21.1372 4.99683 21.1344 4.99032 21.1375C4.97783 21.15 4.97185 21.1592 4.96587 21.1685C4.96587 21.1685 4.96557 21.1657 4.95904 21.1688C4.94657 21.1813 4.94062 21.1905 4.93468 21.1998C4.93468 21.1998 4.93436 21.197 4.92784 21.2001C4.91534 21.2125 4.90937 21.2218 4.90339 21.2311C4.90339 21.2311 4.90308 21.2283 4.89656 21.2314C4.88406 21.2438 4.87808 21.2531 4.87211 21.2623C4.87211 21.2623 4.87176 21.2595 4.86513 21.2629C4.85254 21.2758 4.84658 21.2854 4.84062 21.295C4.76495 21.3742 4.68929 21.4535 4.59595 21.5401C4.57195 21.5572 4.56563 21.567 4.5593 21.5768C4.5589 21.587 4.55436 21.5947 4.53077 21.6047C4.5095 21.6188 4.50312 21.6281 4.49674 21.6375C4.49674 21.6375 4.49646 21.6347 4.48981 21.6381C4.47721 21.651 4.47127 21.6606 4.46532 21.6702C4.46474 21.6805 4.46006 21.6884 4.42954 21.6952C4.36919 21.7043 4.33057 21.712 4.29195 21.7197C4.29195 21.7197 4.28885 21.7152 4.29154 21.7031C4.274 21.6744 4.25376 21.6579 4.23352 21.6414C4.23352 21.6414 4.23783 21.6391 4.2368 21.6323C4.22609 21.619 4.21641 21.6124 4.20674 21.6058C4.20674 21.6058 4.21089 21.6049 4.20819 21.5984C4.19589 21.5855 4.18628 21.579 4.17668 21.5726C4.16582 21.5715 4.158 21.566 4.152 21.5373C4.12795 21.4948 4.10513 21.4713 4.08231 21.4478C4.07179 21.4468 4.06414 21.4416 4.05746 21.4145C4.03326 21.3723 4.01096 21.3479 3.98866 21.3236C3.98866 21.3236 3.99182 21.3232 3.99188 21.3138C3.95975 21.269 3.92756 21.2336 3.89536 21.1982C3.89536 21.1982 3.89835 21.1979 3.89801 21.1886C3.88271 21.1704 3.86775 21.1615 3.85278 21.1527C3.85278 21.1527 3.85156 21.1486 3.85564 21.137C3.84083 21.1079 3.82194 21.0905 3.80305 21.0731C3.80305 21.0731 3.80595 21.0718 3.80597 21.0615C3.78368 21.0277 3.76137 21.0041 3.73905 20.9805C3.73905 20.9805 3.74218 20.9789 3.74203 20.9696C3.71937 20.9359 3.69686 20.9114 3.67435 20.887C3.67435 20.887 3.67785 20.8863 3.67806 20.8771C3.66338 20.8584 3.64849 20.849 3.63359 20.8396C3.63359 20.8396 3.63376 20.836 3.63616 20.8255C3.62943 20.808 3.6203 20.801 3.61117 20.7939C3.61117 20.7939 3.61467 20.7931 3.61532 20.7832C3.5803 20.7331 3.54464 20.6929 3.50898 20.6527C3.50898 20.6527 3.50856 20.6487 3.51107 20.6381C3.50464 20.6203 3.4957 20.6131 3.48675 20.6059C3.48675 20.6059 3.49005 20.6052 3.49058 20.5958C3.46941 20.5611 3.44771 20.5357 3.42601 20.5103C3.42601 20.5103 3.42906 20.51 3.42921 20.5007C3.40808 20.4661 3.38681 20.4408 3.36554 20.4154C3.36554 20.4154 3.36815 20.4151 3.36758 20.4052C3.33442 20.3504 3.30184 20.3054 3.26925 20.2604C3.26925 20.2604 3.27245 20.26 3.27261 20.2503C3.24057 20.1949 3.20837 20.1493 3.17617 20.1036C3.17617 20.1036 3.17914 20.1033 3.17911 20.0943C3.16657 20.0712 3.15406 20.057 3.14155 20.0429C3.14155 20.0429 3.14624 20.0419 3.14477 20.0359C3.13531 20.0223 3.12731 20.0148 3.11931 20.0073C3.11931 20.0073 3.11939 20.0075 3.1193 19.9962C3.10298 19.9668 3.08673 19.9488 3.07048 19.9307C3.07048 19.9307 3.07143 19.9278 3.07391 19.9179C3.06803 19.9002 3.05967 19.8925 3.0513 19.8847C3.0513 19.8847 3.05416 19.8845 3.05408 19.8755C3.04169 19.8522 3.0294 19.8379 3.01711 19.8236C3.01711 19.8236 3.02095 19.8229 3.02134 19.8128C2.9488 19.6733 2.87587 19.544 2.80293 19.4146C2.80293 19.4146 2.80551 19.4143 2.80501 19.4055C2.79336 19.3818 2.7822 19.3669 2.77104 19.3521C2.77104 19.3521 2.77364 19.352 2.77397 19.3409C2.70595 19.1982 2.6376 19.0666 2.56924 18.9349C2.56924 18.9349 2.56635 18.9282 2.57267 18.914C2.54824 18.8427 2.51747 18.7856 2.48671 18.7286C2.48671 18.7286 2.48998 18.7279 2.49109 18.7169C2.46522 18.6575 2.43825 18.609 2.41128 18.5606C2.41128 18.5606 2.40832 18.553 2.41603 18.5379C2.34042 18.3203 2.25711 18.1179 2.17379 17.9154C2.17379 17.9154 2.17718 17.9148 2.17833 17.9031C2.17435 17.8453 2.17757 17.7963 2.16284 17.7536C1.9429 17.1152 1.78015 16.4628 1.70982 15.791C1.64901 15.21 1.58784 14.6279 1.5629 14.0448C1.54704 13.6739 1.59141 13.2998 1.61923 12.9279C1.64468 12.5876 1.65057 12.2409 1.72455 11.9103C1.87474 11.2391 2.06563 10.5771 2.23808 9.91086C2.25469 9.84666 2.25963 9.77944 2.26999 9.71361C2.26999 9.71361 2.27105 9.71707 2.27962 9.71254C2.38632 9.44924 2.48445 9.19048 2.58258 8.93172C2.58258 8.93172 2.58363 8.93521 2.59208 8.93081C2.64181 8.82311 2.6831 8.71982 2.7244 8.61653C2.7244 8.61653 2.72425 8.61132 2.73595 8.61089C2.74953 8.59159 2.7514 8.57272 2.75328 8.55386C2.75328 8.55386 2.75424 8.54815 2.7667 8.54773C2.78711 8.5195 2.79505 8.49169 2.80299 8.46388C2.80299 8.46388 2.80391 8.46698 2.81164 8.46241C2.82373 8.43848 2.8281 8.41913 2.83246 8.39978C2.83246 8.39978 2.83366 8.40344 2.84145 8.39939C2.8543 8.37612 2.85936 8.35691 2.86441 8.3377C2.86441 8.3377 2.86552 8.34127 2.87319 8.33709C2.88596 8.31383 2.89108 8.29474 2.89619 8.27566C2.89619 8.27566 2.8971 8.27875 2.90635 8.27518C2.93062 8.23193 2.94565 8.19224 2.96067 8.15255C2.96067 8.15255 2.96149 8.15497 2.96893 8.15038C2.98186 8.12754 2.98734 8.10928 2.99282 8.09102C2.99282 8.09102 2.99391 8.09306 3.00308 8.08869C3.03565 8.03306 3.05904 7.98182 3.08243 7.93057C3.08243 7.93057 3.08367 7.9342 3.09143 7.93036C3.10475 7.90759 3.1103 7.88867 3.11584 7.86975C3.11584 7.86975 3.11672 7.87256 3.12354 7.86878C3.1315 7.85391 3.13264 7.84283 3.13378 7.83174C3.13378 7.83174 3.13493 7.82944 3.14641 7.83033C3.17457 7.79146 3.19125 7.7517 3.20793 7.71195C3.20793 7.71195 3.20914 7.71555 3.21672 7.71169C3.2303 7.68934 3.23629 7.67084 3.24228 7.65234C3.24228 7.65234 3.24355 7.65495 3.25358 7.65354C3.28769 7.6 3.31177 7.54789 3.33585 7.49577C3.33585 7.49577 3.3368 7.49823 3.34554 7.49442C3.36844 7.46047 3.38261 7.43033 3.39677 7.40018C3.39677 7.40018 3.39781 7.40347 3.40531 7.39936C3.41893 7.37683 3.42507 7.35842 3.4312 7.34001C3.43026 7.3304 3.43294 7.32194 3.45527 7.30832C3.4784 7.28334 3.48551 7.26465 3.49262 7.24596C3.49262 7.24596 3.49359 7.2483 3.50031 7.24458C3.51158 7.23051 3.51613 7.22016 3.52068 7.20982C3.52068 7.20982 3.52144 7.21432 3.5281 7.2111C3.53534 7.19687 3.53592 7.18585 3.53649 7.17483C3.53649 7.17483 3.53867 7.17079 3.5508 7.17202C3.58119 7.13498 3.59944 7.09672 3.6177 7.05845C3.6177 7.05845 3.6188 7.06075 3.62548 7.05698C3.63672 7.04288 3.64127 7.03255 3.64583 7.02221C3.64583 7.02221 3.6465 7.02684 3.65506 7.02404C3.67862 6.99096 3.69363 6.96068 3.70864 6.93039C3.70864 6.93039 3.70962 6.9337 3.71842 6.93074C3.74249 6.89797 3.75777 6.86816 3.77305 6.83835C3.77305 6.83835 3.77435 6.84132 3.78432 6.84005C3.80833 6.80768 3.82236 6.77658 3.83639 6.74548C3.83639 6.74548 3.83746 6.74785 3.84413 6.7444C3.85603 6.73106 3.86127 6.72117 3.8665 6.71129C3.8665 6.71129 3.86712 6.71543 3.87422 6.71162C3.88787 6.69006 3.89442 6.67231 3.90098 6.65455C3.90098 6.65455 3.90123 6.65506 3.90816 6.65124C3.92019 6.63804 3.92529 6.62865 3.93038 6.61927C3.93038 6.61927 3.93081 6.62233 3.93747 6.61878C3.94874 6.60475 3.95335 6.59427 3.95796 6.58379C3.95796 6.58379 3.95884 6.58844 3.96571 6.58546C3.97541 6.57114 3.97824 6.55979 3.98106 6.54843C3.98106 6.54843 3.98118 6.55641 3.99084 6.55285C4.00817 6.5311 4.01584 6.5129 4.02351 6.4947C4.02351 6.4947 4.02442 6.49721 4.03122 6.49385C4.0431 6.48037 4.04819 6.47024 4.05328 6.46011C4.05328 6.46011 4.05385 6.46452 4.06223 6.46162C4.08633 6.42918 4.10206 6.39963 4.11778 6.37009C4.11778 6.37009 4.1187 6.37253 4.1254 6.36908C4.13737 6.35575 4.14265 6.34586 4.14793 6.33597C4.14793 6.33597 4.14811 6.33926 4.15837 6.33905C4.19337 6.29717 4.21812 6.25549 4.24286 6.21382C4.24286 6.21382 4.24389 6.21624 4.25052 6.21287C4.26272 6.19988 4.26829 6.19025 4.27385 6.18062C4.27385 6.18062 4.27434 6.18413 4.28098 6.18077C4.29233 6.1669 4.29704 6.15638 4.30175 6.14586C4.30175 6.14586 4.30241 6.15054 4.31094 6.14821C4.32948 6.123 4.33949 6.10013 4.3495 6.07726C4.3495 6.07726 4.3531 6.07689 4.36347 6.07772C4.38222 6.061 4.39059 6.04346 4.39896 6.02592C4.39896 6.02592 4.4 6.02837 4.40666 6.02521C4.41902 6.01251 4.42472 6.00299 4.43042 5.99346C4.43042 5.99346 4.43086 5.99669 4.43756 5.99319C4.44868 5.97908 4.45311 5.96847 4.45754 5.95786C4.45754 5.95786 4.45862 5.9624 4.46562 5.95986C4.47698 5.9463 4.48132 5.93528 4.48567 5.92425C4.48567 5.92425 4.48676 5.92885 4.49582 5.92749C4.51501 5.90355 4.52514 5.88097 4.53526 5.85839C4.53526 5.85839 4.53914 5.85651 4.55026 5.85766C4.57019 5.84122 4.579 5.82362 4.5878 5.80603C4.58808 5.79584 4.59242 5.78787 4.61586 5.77712C4.63711 5.76253 4.64335 5.75294 4.64959 5.74335C4.64959 5.74335 4.64992 5.74666 4.6565 5.74331C4.66826 5.72982 4.67343 5.71968 4.67861 5.70955C4.67861 5.70955 4.67925 5.7138 4.68768 5.71122C4.71873 5.6756 4.74135 5.64255 4.76398 5.6095C4.76398 5.6095 4.76884 5.61839 4.77682 5.6156C4.79668 5.59033 4.80857 5.56786 4.82045 5.54538C4.82045 5.54538 4.82348 5.54624 4.83353 5.54699C4.84598 5.53694 4.84837 5.52615 4.85076 5.51535C4.85076 5.51535 4.85429 5.51358 4.8643 5.51481C4.87598 5.50563 4.87764 5.49523 4.87931 5.48482C4.87931 5.48482 4.88337 5.48017 4.89435 5.48207C4.90674 5.47397 4.90815 5.46398 4.90956 5.45398C4.90956 5.45398 4.91384 5.44818 4.92523 5.45031C4.93798 5.44255 4.93934 5.43266 4.94069 5.42277C4.94069 5.42277 4.945 5.41687 4.95643 5.419C4.96919 5.41127 4.97051 5.40141 4.97183 5.39155C4.97183 5.39155 4.97516 5.38636 4.9868 5.38779C5.00719 5.37222 5.01592 5.35521 5.02466 5.3382C5.02466 5.3382 5.02559 5.34063 5.0322 5.33737C5.04461 5.32471 5.05041 5.3153 5.05621 5.30589C5.05621 5.30589 5.05658 5.30895 5.06309 5.30591C5.07562 5.29354 5.08164 5.28421 5.08765 5.27487C5.08765 5.27487 5.08804 5.27784 5.09469 5.27449C5.10728 5.26141 5.11321 5.25168 5.11914 5.24194C5.11952 5.23184 5.12402 5.22412 5.14754 5.21409C5.16885 5.19998 5.17524 5.19058 5.18163 5.18119C5.18163 5.18119 5.18194 5.18413 5.18854 5.18079C5.20113 5.16785 5.20711 5.15826 5.2131 5.14867C5.21366 5.13845 5.2183 5.13066 5.24197 5.12028C5.26322 5.10573 5.26952 5.0962 5.27582 5.08667C5.27627 5.07635 5.28088 5.06846 5.3046 5.05786C5.32583 5.04321 5.33211 5.03368 5.33839 5.02416C5.33896 5.01377 5.34366 5.00584 5.37007 4.99775C5.39561 4.97996 5.40358 4.96478 5.41156 4.9496C5.41156 4.9496 5.41599 4.94792 5.42651 4.95014C5.43872 4.94219 5.44042 4.93202 5.44212 4.92185C5.44212 4.92185 5.44551 4.91729 5.45763 4.91946C5.48281 4.90003 5.49587 4.87844 5.50892 4.85685C5.50892 4.85685 5.51192 4.85818 5.52275 4.85958C5.54849 4.83952 5.5634 4.81806 5.57832 4.7966C5.57832 4.7966 5.58129 4.80023 5.59016 4.80013C5.61555 4.77801 5.63207 4.75599 5.64859 4.73396C6.35941 4.07058 7.15045 3.51932 8.00253 3.05417C9.16297 2.42069 10.3973 2.00222 11.6986 1.77022C12.8262 1.56919 13.9603 1.50805 15.1006 1.59262C17.7478 1.78897 20.1395 2.66486 22.2199 4.33052C24.4262 6.09701 25.8492 8.36567 26.5001 11.1158C26.6666 11.8193 26.7584 12.5347 26.7801 13.2813C26.7663 13.5881 26.7608 13.871 26.761 14.1539C26.7611 14.239 26.7772 14.3241 26.786 14.4093C26.738 14.9049 26.7073 15.4029 26.6387 15.8957C26.4672 17.1284 26.0618 18.289 25.5072 19.399C24.785 20.8448 23.8089 22.0972 22.6114 23.1798C21.1252 24.5233 19.4124 25.4535 17.4855 25.9932C16.6285 26.2333 15.7561 26.372 14.8664 26.4237C12.5452 26.5585 10.3744 26.0352 8.32317 24.9654C8.27813 24.9419 8.21496 24.9299 8.16616 24.9403C6.3535 25.326 4.54155 25.715 2.72939 26.1031C2.69584 26.1103 2.66099 26.1113 2.65735 26.1118C2.82325 25.9338 3.00294 25.741 3.20113 25.5414C3.22676 25.5241 3.23388 25.5137 3.241 25.5033C3.241 25.5033 3.24132 25.5081 3.24779 25.5053C3.26026 25.4926 3.26626 25.4827 3.27227 25.4727C3.27227 25.4727 3.27296 25.4769 3.27947 25.4742C3.29183 25.4614 3.29767 25.4514 3.30352 25.4415C3.30352 25.4415 3.30421 25.4457 3.31073 25.4429C3.32293 25.4299 3.3286 25.4198 3.33427 25.4096C3.33427 25.4096 3.33506 25.414 3.34162 25.4114C3.35405 25.3987 3.35992 25.3886 3.3658 25.3786C3.3658 25.3786 3.36681 25.3831 3.37353 25.3798C3.38614 25.3657 3.39203 25.3549 3.39792 25.344C3.39758 25.3348 3.40134 25.3279 3.42444 25.3194C3.44653 25.3054 3.4534 25.2952 3.46028 25.285C3.46028 25.285 3.46064 25.2895 3.46709 25.2867C3.47941 25.2738 3.48527 25.2638 3.49113 25.2538C3.49113 25.2538 3.49183 25.258 3.49833 25.2553C3.51079 25.2427 3.51675 25.2328 3.5227 25.2229C3.5227 25.2229 3.52333 25.227 3.52982 25.2242C3.54231 25.2117 3.54831 25.2019 3.55431 25.1921C3.55431 25.1921 3.55487 25.196 3.56137 25.1931C3.57359 25.1801 3.57931 25.1702 3.58504 25.1602C3.58504 25.1602 3.5857 25.1643 3.59222 25.1615C3.60459 25.1488 3.61045 25.1388 3.6163 25.1288C3.6163 25.1288 3.61698 25.1331 3.62349 25.1302C3.63582 25.1174 3.64163 25.1074 3.64745 25.0974C3.64745 25.0974 3.64815 25.1017 3.65466 25.0989C3.66702 25.0861 3.67286 25.0761 3.67871 25.0661C3.67871 25.0661 3.67942 25.0704 3.68591 25.0677C3.6984 25.0551 3.70442 25.0452 3.71043 25.0354C3.71043 25.0354 3.71104 25.0395 3.7175 25.0367C3.73001 25.0241 3.73608 25.0144 3.74214 25.0047C3.74214 25.0047 3.74266 25.0086 3.74912 25.0056C3.76145 24.9928 3.7673 24.983 3.77316 24.9732C3.77316 24.9732 3.77372 24.9771 3.7802 24.9743C3.7927 24.9617 3.79872 24.952 3.80475 24.9423C3.80475 24.9423 3.80525 24.9461 3.81174 24.9431C3.82397 24.9301 3.8297 24.9202 3.83544 24.9103C3.83544 24.9103 3.83607 24.9144 3.84254 24.9116C3.85507 24.899 3.86113 24.8893 3.86719 24.8796C3.86719 24.8796 3.86769 24.8835 3.87416 24.8805C3.88661 24.8679 3.89259 24.8582 3.89857 24.8485C3.89857 24.8485 3.89908 24.8523 3.90554 24.8493C3.91797 24.8367 3.92392 24.827 3.92987 24.8173C3.92987 24.8173 3.93037 24.821 3.93684 24.8181C3.94927 24.8055 3.95524 24.7958 3.9612 24.7861C3.9612 24.7861 3.96169 24.7898 3.96815 24.7869C3.98059 24.7742 3.98658 24.7646 3.99256 24.7549C3.99256 24.7549 3.99303 24.7586 3.99949 24.7557C4.01196 24.7431 4.01798 24.7335 4.024 24.7239C4.024 24.7239 4.02443 24.7275 4.03089 24.7245C4.04332 24.7118 4.04929 24.7022 4.05525 24.6926C4.05525 24.6926 4.0557 24.6962 4.06216 24.6931C4.07454 24.6804 4.08046 24.6708 4.08639 24.6612C4.08639 24.6612 4.08685 24.6648 4.09329 24.6618C4.10571 24.6491 4.11168 24.6395 4.11765 24.6299C4.11765 24.6299 4.11809 24.6336 4.12456 24.6306C4.13698 24.6179 4.14292 24.6082 4.14886 24.5985C4.14886 24.5985 4.14936 24.6022 4.15581 24.5993C4.16834 24.5868 4.17441 24.5773 4.18048 24.5678C4.18048 24.5678 4.18091 24.5712 4.18735 24.5682C4.1998 24.5556 4.2058 24.5461 4.21181 24.5366C4.21181 24.5366 4.21221 24.54 4.21864 24.537C4.23116 24.5245 4.23724 24.5151 4.24332 24.5057C4.24332 24.5057 4.24367 24.5089 4.25013 24.5058C4.26258 24.4933 4.26858 24.4839 4.27458 24.4744C4.27458 24.4744 4.27493 24.4777 4.28139 24.4746C4.29384 24.462 4.29981 24.4525 4.30579 24.4431C4.30579 24.4431 4.30615 24.4464 4.31264 24.4432C4.32492 24.4303 4.33071 24.4206 4.33649 24.411C4.33649 24.411 4.33696 24.4146 4.34342 24.4117C4.35599 24.3993 4.36211 24.3898 4.36822 24.3803C4.36822 24.3803 4.36861 24.3837 4.37509 24.3806C4.3875 24.368 4.39344 24.3585 4.39937 24.3489C4.39937 24.3489 4.39978 24.3524 4.40626 24.3493C4.4187 24.3367 4.42468 24.3272 4.43066 24.3177C4.43066 24.3177 4.43107 24.3211 4.43752 24.3181C4.45 24.3055 4.45603 24.2961 4.46207 24.2866C4.46207 24.2866 4.46245 24.2899 4.4689 24.2868C4.4813 24.2742 4.48725 24.2646 4.4932 24.2551C4.4932 24.2551 4.49361 24.2585 4.50005 24.2555C4.51255 24.243 4.51861 24.2336 4.52467 24.2241C4.52467 24.2241 4.52504 24.2274 4.5315 24.2243C4.54395 24.2118 4.54994 24.2023 4.55592 24.1929C4.55592 24.1929 4.55629 24.1962 4.56277 24.1931C4.57518 24.1804 4.58111 24.1709 4.58704 24.1614C4.58704 24.1614 4.58745 24.1648 4.59389 24.1617C4.60636 24.1492 4.61238 24.1397 4.61841 24.1302C4.61841 24.1302 4.61877 24.1336 4.62523 24.1305C4.63771 24.118 4.64375 24.1086 4.64978 24.0991C4.64978 24.0991 4.65022 24.1024 4.6568 24.0991C4.66938 24.0858 4.67538 24.076 4.68137 24.0661C4.69516 24.0488 4.70896 24.0315 4.7391 24.0085C4.76201 23.9933 4.76857 23.9838 4.77513 23.9743C4.77513 23.9743 4.77537 23.9775 4.78181 23.9743C4.79428 23.9618 4.8003 23.9525 4.80632 23.9431C4.80632 23.9431 4.80665 23.9462 4.81309 23.9431C4.82559 23.9306 4.83164 23.9213 4.8377 23.912C4.8377 23.912 4.838 23.915 4.84445 23.9118C4.85694 23.8994 4.86297 23.8901 4.869 23.8808C4.869 23.8808 4.86929 23.8838 4.87575 23.8806C4.88823 23.8681 4.89425 23.8588 4.90028 23.8495C4.90028 23.8495 4.90057 23.8525 4.90703 23.8493C4.9195 23.8368 4.92552 23.8276 4.93154 23.8183C4.93154 23.8183 4.93162 23.8208 4.9411 23.82C4.96484 23.7981 4.9791 23.7771 4.99336 23.756C4.99336 23.756 4.99404 23.7585 5.0007 23.7555C5.01338 23.7431 5.0194 23.7338 5.02543 23.7246C5.02543 23.7246 5.02571 23.7275 5.03219 23.7243C5.04467 23.7118 5.05067 23.7025 5.05667 23.6933C5.05667 23.6933 5.05696 23.6962 5.06343 23.693C5.07588 23.6805 5.08187 23.6712 5.08786 23.6618C5.08786 23.6618 5.08791 23.6644 5.09742 23.6636C5.12114 23.6417 5.13536 23.6206 5.14958 23.5995C5.14958 23.5995 5.15032 23.6021 5.15707 23.5988C5.16982 23.5858 5.17582 23.5761 5.18182 23.5664C5.19578 23.549 5.20973 23.5315 5.23997 23.5083C5.26269 23.493 5.26912 23.4836 5.27555 23.4741C5.27555 23.4741 5.27578 23.4772 5.28223 23.4741C5.2947 23.4616 5.30072 23.4522 5.30674 23.4429C5.30674 23.4429 5.30709 23.446 5.31361 23.4426C5.32618 23.4297 5.33222 23.4202 5.33826 23.4106C5.33858 23.4003 5.34313 23.3925 5.36682 23.3822C5.38809 23.3681 5.39446 23.3588 5.40083 23.3495C5.40083 23.3495 5.40109 23.3524 5.40765 23.3489C5.42019 23.3358 5.42616 23.3262 5.43214 23.3165C5.4461 23.2991 5.46005 23.2816 5.49028 23.2582C5.51294 23.2429 5.51933 23.2335 5.52573 23.224C5.52573 23.224 5.52596 23.2271 5.53242 23.2239C5.54488 23.2114 5.55089 23.2021 5.5569 23.1928C5.5569 23.1928 5.5572 23.1958 5.56367 23.1926C5.57617 23.1802 5.58222 23.1709 5.58826 23.1616C5.58826 23.1616 5.58859 23.1646 5.59515 23.1612C5.60773 23.1482 5.61375 23.1386 5.61977 23.129C5.65419 23.0912 5.68861 23.0534 5.74004 23.0089C5.76343 22.993 5.76981 22.9837 5.77619 22.9745C5.77619 22.9745 5.77638 22.9772 5.78285 22.9739C5.79534 22.9615 5.80136 22.9524 5.80739 22.9432C5.80739 22.9432 5.80766 22.9459 5.81424 22.9425C5.8268 22.9295 5.83279 22.9201 5.83878 22.9106C5.83916 22.9002 5.84378 22.8922 5.87025 22.8842C5.89568 22.8665 5.90351 22.8513 5.91134 22.8361C5.91134 22.8361 5.9154 22.8352 5.92624 22.8368C5.94596 22.8208 5.95484 22.8033 5.96372 22.7858C5.97788 22.7681 5.99203 22.7504 6.02237 22.7268C6.04494 22.7116 6.05131 22.7024 6.05769 22.6932C6.05769 22.6932 6.05791 22.6958 6.06449 22.6923C6.07704 22.6794 6.083 22.6698 6.08895 22.6603C6.08923 22.65 6.09375 22.642 6.12028 22.6338C6.15281 22.6095 6.16757 22.588 6.18233 22.5664C6.20651 22.5388 6.2307 22.5111 6.27178 22.4768C6.29499 22.4605 6.3013 22.4508 6.30761 22.4411C6.32169 22.4236 6.33578 22.4061 6.36606 22.3827C6.38858 22.3674 6.39492 22.3581 6.40125 22.3487C6.40125 22.3487 6.40149 22.3515 6.40803 22.3483C6.42052 22.336 6.42648 22.3267 6.43243 22.3174C6.43243 22.3174 6.43277 22.3201 6.44221 22.3191C6.46586 22.2971 6.48007 22.2761 6.49428 22.2552C6.49428 22.2552 6.49511 22.2576 6.50188 22.2543C6.51455 22.2413 6.52046 22.2316 6.52637 22.222C6.52681 22.2118 6.53134 22.204 6.55488 22.1939C6.57611 22.1797 6.58245 22.1704 6.5888 22.1611C6.5888 22.1611 6.5891 22.1637 6.59868 22.1626C6.62261 22.1402 6.63696 22.1188 6.65132 22.0974C6.69614 22.0492 6.74095 22.0011 6.80308 21.9458C6.82666 21.929 6.83293 21.9194 6.8392 21.9098C6.83973 21.8995 6.84435 21.8916 6.86794 21.8813C6.88911 21.8672 6.8954 21.8579 6.90169 21.8486C6.90169 21.8486 6.90196 21.8512 6.91136 21.8503C6.92815 21.8343 6.93556 21.8192 6.94296 21.8042C6.94296 21.8042 6.94706 21.803 6.95775 21.8046C6.97712 21.7891 6.98581 21.772 6.99451 21.7548C6.99451 21.7548 6.99541 21.7573 7.00215 21.7539C7.01485 21.741 7.02081 21.7314 7.02676 21.7218C7.02717 21.7116 7.03169 21.7038 7.05534 21.6935C7.07669 21.6788 7.08302 21.6691 7.08935 21.6595C7.08983 21.6493 7.09442 21.6414 7.11799 21.6311C7.13918 21.617 7.14549 21.6076 7.1518 21.5983C7.1518 21.5983 7.15208 21.6011 7.15871 21.5977C7.17128 21.5848 7.17722 21.5752 7.18316 21.5656C7.21752 21.5277 7.25188 21.4899 7.30338 21.4451C7.32684 21.4287 7.33316 21.4191 7.33948 21.4095C7.38404 21.3613 7.4286 21.313 7.49046 21.2579C7.51411 21.2415 7.52046 21.2321 7.52681 21.2226C7.52681 21.2226 7.52709 21.2256 7.53359 21.2225C7.54607 21.2101 7.55204 21.2008 7.55802 21.1915C7.55802 21.1915 7.55838 21.1944 7.56505 21.1911C7.57767 21.1781 7.58363 21.1684 7.5896 21.1588C7.59007 21.1486 7.59465 21.1408 7.6183 21.1305C7.63959 21.1159 7.64591 21.1063 7.65223 21.0967C7.71767 21.0277 7.78311 20.9588 7.86608 20.8826C7.88991 20.8659 7.89623 20.8564 7.90254 20.8469C7.94721 20.7986 7.99187 20.7503 8.05384 20.6949C8.07746 20.6782 8.08376 20.6686 8.09006 20.6591C8.13487 20.6108 8.17967 20.5626 8.24174 20.5073C8.26528 20.4907 8.27155 20.4812 8.27781 20.4716C8.30211 20.4439 8.3264 20.4161 8.36734 20.382C8.39026 20.3664 8.39653 20.3572 8.4028 20.348C8.4028 20.348 8.40327 20.3505 8.4126 20.3495C8.42911 20.3334 8.4363 20.3185 8.44349 20.3035C8.44349 20.3035 8.44767 20.3018 8.45872 20.3034C8.4787 20.2877 8.48763 20.2704 8.49656 20.2531C8.54165 20.2047 8.58674 20.1564 8.65159 20.1033C8.67894 20.0835 8.68651 20.0684 8.69409 20.0534C8.69409 20.0534 8.69886 20.0506 8.70958 20.0531C8.72177 20.0456 8.72323 20.0357 8.72468 20.0258C8.72468 20.0258 8.72894 20.0202 8.74026 20.0223C8.75303 20.0144 8.75448 20.0045 8.75592 19.9946C8.75592 19.9946 8.75928 19.9898 8.77076 19.9912C8.79108 19.9757 8.79992 19.9588 8.80876 19.9419C8.80876 19.9419 8.80974 19.9442 8.81625 19.9409C8.8287 19.9285 8.83464 19.9194 8.84058 19.9103C8.84058 19.9103 8.84107 19.9128 8.8504 19.9117C8.8669 19.8957 8.87407 19.8807 8.88124 19.8658C8.88124 19.8658 8.88617 19.8627 8.89705 19.8653C8.90932 19.858 8.91072 19.8481 8.91212 19.8382C8.91212 19.8382 8.91641 19.8325 8.92781 19.8346C8.94063 19.8267 8.94206 19.8168 8.94348 19.8069C8.94348 19.8069 8.94775 19.8013 8.95914 19.8034C8.97205 19.7954 8.97359 19.7854 8.97513 19.7754C8.97513 19.7754 8.97934 19.7704 8.99063 19.7723C9.00371 19.7641 9.00551 19.754 9.00731 19.7438C9.00731 19.7438 9.01134 19.7398 9.02223 19.7415C9.03474 19.7331 9.03636 19.7229 9.03799 19.7128C9.03799 19.7128 9.04213 19.708 9.05324 19.7099C9.06598 19.7017 9.06761 19.6916 9.06923 19.6815C9.06923 19.6815 9.07338 19.6768 9.0845 19.6786C9.09726 19.6704 9.0989 19.6603 9.10054 19.6502C9.10054 19.6502 9.1047 19.6456 9.11591 19.6474C9.12931 19.6389 9.13148 19.6286 9.13366 19.6183C9.13366 19.6183 9.13747 19.6158 9.14797 19.6172C9.16056 19.6081 9.16265 19.5976 9.16474 19.5871C9.16474 19.5871 9.16857 19.5843 9.17913 19.5857C9.19179 19.5767 9.19388 19.5663 9.19597 19.5559C9.19597 19.5559 9.19981 19.553 9.21038 19.5545C9.223 19.5455 9.22504 19.5351 9.22707 19.5247C9.22707 19.5247 9.23041 19.5213 9.24214 19.5232C9.26579 19.5035 9.2777 19.4819 9.28961 19.4602C9.28961 19.4602 9.29369 19.4589 9.3043 19.4606C9.31706 19.4517 9.31923 19.4412 9.32139 19.4307C9.32139 19.4307 9.32516 19.4282 9.3356 19.4296C9.34798 19.4205 9.34992 19.4101 9.35185 19.3997C9.35185 19.3997 9.35577 19.3963 9.3665 19.3978C9.3792 19.3891 9.38116 19.3787 9.38312 19.3684C9.38312 19.3684 9.38705 19.365 9.39782 19.3666C9.41068 19.3578 9.41278 19.3473 9.41488 19.3369C9.41488 19.3369 9.41872 19.3341 9.42931 19.3356C9.442 19.3266 9.44411 19.3161 9.44622 19.3057C9.44622 19.3057 9.45003 19.3029 9.46053 19.3043C9.47286 19.2954 9.47469 19.2851 9.47653 19.2747C9.47653 19.2747 9.48053 19.2709 9.49149 19.2725C9.50463 19.2638 9.50682 19.2534 9.50901 19.243C9.50901 19.243 9.51279 19.2406 9.52328 19.242C9.53595 19.2328 9.53813 19.2223 9.54032 19.2118C9.54032 19.2118 9.54408 19.2092 9.55449 19.2107C9.56681 19.2017 9.5687 19.1913 9.5706 19.1809C9.5706 19.1809 9.57394 19.1778 9.58483 19.179C9.60475 19.1632 9.61377 19.1462 9.6228 19.1292C9.62361 19.1183 9.62865 19.1099 9.65561 19.1011C9.68106 19.083 9.68881 19.0679 9.69656 19.0528C9.69656 19.0528 9.70059 19.052 9.71093 19.0538C9.72333 19.0451 9.72538 19.0347 9.72742 19.0243C9.72742 19.0243 9.73129 19.0213 9.74192 19.0228C9.75459 19.0139 9.75662 19.0035 9.75866 18.9931C9.75866 18.9931 9.76253 18.99 9.7732 18.9915C9.78589 18.9826 9.78792 18.9722 9.78994 18.9618C9.78994 18.9618 9.79381 18.9587 9.80446 18.9603C9.81713 18.9514 9.81916 18.9409 9.82118 18.9305C9.82118 18.9305 9.82505 18.9274 9.83569 18.929C9.84828 18.9201 9.85023 18.9097 9.85219 18.8993C9.85219 18.8993 9.85611 18.8959 9.86687 18.8975C9.8797 18.8887 9.88177 18.8783 9.88385 18.868C9.88385 18.868 9.88769 18.865 9.89825 18.8665C9.91059 18.8577 9.91238 18.8474 9.91417 18.8371C9.91417 18.8371 9.91819 18.8329 9.92912 18.8347C9.94183 18.8262 9.9436 18.816 9.94537 18.8058C9.94537 18.8058 9.94941 18.8016 9.96035 18.8034C9.97308 18.7949 9.97487 18.7847 9.97666 18.7745C9.97666 18.7745 9.98003 18.7709 9.991 18.7722C10.0109 18.7567 10.0199 18.7399 10.0289 18.7231C10.0289 18.7231 10.0299 18.7252 10.0393 18.7239C10.0563 18.7076 10.0638 18.6926 10.0714 18.6776C10.0714 18.6776 10.0756 18.6765 10.0861 18.6784C10.0987 18.6699 10.1007 18.6594 10.1028 18.649C10.1028 18.649 10.1067 18.6462 10.1173 18.6477C10.13 18.6387 10.1321 18.6282 10.1342 18.6178C10.1342 18.6178 10.138 18.615 10.1486 18.6164C10.1612 18.6074 10.1633 18.5969 10.1654 18.5865C10.1654 18.5865 10.1688 18.5834 10.1804 18.5854C10.214 18.5552 10.2359 18.5231 10.2578 18.491C10.2578 18.491 10.2623 18.4883 10.2732 18.4904C10.2858 18.4823 10.2876 18.472 10.2894 18.4618C10.2894 18.4618 10.2934 18.4578 10.3045 18.4595C10.3176 18.4508 10.3197 18.4405 10.3217 18.4301C10.3217 18.4301 10.3256 18.4274 10.3362 18.4288C10.3489 18.4198 10.3511 18.4093 10.3532 18.3988C10.3532 18.3988 10.357 18.3962 10.3675 18.3976C10.3801 18.3885 10.3822 18.3781 10.3843 18.3676C10.3843 18.3676 10.3881 18.3647 10.3987 18.3662C10.4114 18.3572 10.4135 18.3468 10.4155 18.3364C10.4155 18.3364 10.4194 18.3335 10.43 18.335C10.4427 18.326 10.4448 18.3155 10.4469 18.305C10.4469 18.305 10.4507 18.3023 10.4612 18.3037C10.4737 18.2948 10.4756 18.2844 10.4775 18.274C10.4775 18.274 10.4809 18.2702 10.4927 18.2722C10.5165 18.2526 10.5283 18.231 10.5402 18.2093C10.5402 18.2093 10.5443 18.2079 10.555 18.2096C10.5677 18.2009 10.5698 18.1904 10.5719 18.1799C10.5719 18.1799 10.5758 18.1772 10.5864 18.1786C10.5994 18.1695 10.6018 18.159 10.6042 18.1484C10.6042 18.1484 10.6078 18.1467 10.6181 18.1479C10.6308 18.1385 10.6332 18.1278 10.6356 18.1172C10.6356 18.1172 10.6392 18.1156 10.6495 18.1167C10.6622 18.1072 10.6647 18.0965 10.6673 18.0858C10.6673 18.0858 10.6708 18.0846 10.6809 18.0857C10.6935 18.076 10.696 18.0653 10.6985 18.0546C10.6985 18.0546 10.702 18.0533 10.7121 18.0544C10.7247 18.0447 10.7272 18.034 10.7296 18.0233C10.7296 18.0233 10.7332 18.0219 10.7433 18.023C10.7555 18.0135 10.7576 18.0029 10.7597 17.9924C10.7597 17.9924 10.7634 17.9896 10.774 17.991C10.7866 17.982 10.7887 17.9715 10.7909 17.9611C10.7909 17.9611 10.7942 17.958 10.8059 17.96C10.8399 17.9298 10.8621 17.8976 10.8844 17.8655C10.8844 17.8655 10.8885 17.8641 10.8991 17.8658C10.9123 17.8568 10.9148 17.8462 10.9173 17.8356C10.9173 17.8356 10.9209 17.8343 10.9309 17.8354C10.9431 17.8259 10.9452 17.8153 10.9473 17.8048C10.9473 17.8048 10.9511 17.802 10.9616 17.8034C10.9743 17.7944 10.9764 17.7839 10.9785 17.7735C10.9785 17.7735 10.9824 17.7707 10.9929 17.7721C11.0056 17.7631 11.0077 17.7526 11.0098 17.7422C11.0098 17.7422 11.0136 17.7394 11.0241 17.7409C11.0363 17.732 11.0381 17.7216 11.0399 17.7113C11.0399 17.7113 11.0439 17.7071 11.0548 17.7089C11.0676 17.7004 11.0694 17.6902 11.0712 17.6799C11.0712 17.6799 11.0753 17.676 11.0861 17.6777C11.0988 17.6692 11.1007 17.6589 11.1025 17.6487C11.1025 17.6487 11.1065 17.6447 11.1175 17.6464C11.1307 17.6378 11.133 17.6274 11.1352 17.617C11.1352 17.617 11.139 17.6147 11.1495 17.616C11.1621 17.6068 11.1643 17.5963 11.1666 17.5858C11.1666 17.5858 11.1698 17.583 11.1813 17.5849C11.2045 17.565 11.2162 17.5433 11.2279 17.5215C11.2279 17.5215 11.2322 17.5198 11.2429 17.5216C11.2555 17.513 11.2575 17.5026 11.2594 17.4922C11.2594 17.4922 11.2633 17.4889 11.274 17.4904C11.2867 17.4816 11.2886 17.4713 11.2906 17.4609C11.2906 17.4609 11.2945 17.4575 11.3053 17.4591C11.3184 17.4502 11.3206 17.4398 11.3229 17.4293C11.3229 17.4293 11.3266 17.4271 11.337 17.4284C11.3496 17.4192 11.3518 17.4087 11.354 17.3982C11.354 17.3982 11.3578 17.3956 11.3683 17.397C11.3809 17.3879 11.3831 17.3774 11.3852 17.3669C11.3852 17.3669 11.389 17.3643 11.3995 17.3657C11.4121 17.3567 11.4142 17.3462 11.4163 17.3357C11.4163 17.3357 11.4201 17.3329 11.4306 17.3344C11.4432 17.3254 11.4452 17.315 11.4472 17.3045C11.4472 17.3045 11.4511 17.3013 11.4617 17.3029C11.4744 17.294 11.4764 17.2836 11.4784 17.2733C11.4784 17.2733 11.4823 17.2701 11.493 17.2716C11.5057 17.2627 11.5076 17.2524 11.5096 17.242C11.5096 17.242 11.5135 17.2387 11.5242 17.2402C11.5369 17.2314 11.5389 17.2211 11.5409 17.2107C11.5409 17.2107 11.5448 17.2074 11.5555 17.209C11.5681 17.2002 11.5701 17.1898 11.5721 17.1795C11.5721 17.1795 11.576 17.1761 11.5867 17.1777C11.5994 17.1689 11.6014 17.1586 11.6033 17.1482C11.6033 17.1482 11.6073 17.1448 11.618 17.1464C11.6307 17.1376 11.6326 17.1273 11.6346 17.1169C11.6346 17.1169 11.6385 17.1135 11.6492 17.1151C11.6619 17.1064 11.6638 17.0961 11.6657 17.0857C11.6657 17.0857 11.6696 17.0821 11.6804 17.0838C11.693 17.0751 11.6948 17.0648 11.6966 17.0545C11.6966 17.0545 11.7006 17.0506 11.7115 17.0523C11.7242 17.0437 11.726 17.0335 11.7278 17.0233C11.7278 17.0233 11.7312 17.0201 11.7423 17.0212C11.7623 17.0048 11.7712 16.9874 11.7801 16.97C11.7808 16.9595 11.7856 16.9515 11.8121 16.943C11.8442 16.9192 11.8588 16.8983 11.8733 16.8773C11.8733 16.8773 11.8742 16.8797 11.8807 16.8764C11.8932 16.864 11.8991 16.8549 11.9051 16.8458C11.9051 16.8458 11.9056 16.8483 11.9149 16.8472C11.9314 16.8312 11.9386 16.8163 11.9458 16.8013C11.9458 16.8013 11.9507 16.7983 11.9616 16.8009C11.9738 16.7935 11.9753 16.7836 11.9767 16.7737C11.9767 16.7737 11.981 16.768 11.9923 16.7701C12.0051 16.7623 12.0065 16.7524 12.008 16.7425C12.008 16.7425 12.0114 16.7378 12.023 16.739C12.0436 16.7231 12.0526 16.7059 12.0615 16.6888C12.148 16.5986 12.2345 16.5085 12.341 16.4136C12.3689 16.3936 12.3767 16.3785 12.3844 16.3634C12.3844 16.3634 12.3891 16.3611 12.3996 16.3635C12.4116 16.3559 12.413 16.346 12.4143 16.336C12.4143 16.336 12.4186 16.3301 12.4301 16.3322C12.4428 16.3245 12.4442 16.3147 12.4455 16.3048C12.4455 16.3048 12.4489 16.2999 12.4607 16.3012C12.4814 16.2851 12.4903 16.2677 12.4992 16.2504C12.5647 16.1813 12.6303 16.1123 12.7132 16.036C12.7368 16.0196 12.743 16.0103 12.7493 16.0011C12.7493 16.0011 12.7495 16.0037 12.756 16.0006C12.7685 15.9882 12.7744 15.979 12.7804 15.9697C12.7804 15.9697 12.7808 15.9724 12.7929 15.9726C12.8404 15.9727 12.8759 15.9725 12.9114 15.9724C12.9218 15.973 12.9298 15.9777 12.9382 16.0042C12.962 16.0364 12.983 16.051 13.004 16.0655C13.004 16.0655 13.0014 16.0668 13.0026 16.0761C13.0187 16.0924 13.0336 16.0995 13.0486 16.1066C13.0486 16.1066 13.0506 16.1109 13.0489 16.1221C13.0646 16.1422 13.082 16.151 13.0993 16.1599C13.117 16.1743 13.1347 16.1886 13.1561 16.2218C13.1749 16.2483 13.19 16.2559 13.2051 16.2636C13.2051 16.2636 13.2079 16.2684 13.2053 16.2792C13.2128 16.2915 13.2228 16.2931 13.2328 16.2947C13.2328 16.2947 13.2378 16.2989 13.2359 16.3101C13.244 16.3229 13.254 16.3245 13.2641 16.3261C13.2641 16.3261 13.269 16.3303 13.267 16.3414C13.2752 16.3542 13.2853 16.3558 13.2953 16.3574C13.2953 16.3574 13.3001 16.3615 13.2983 16.3728C13.3066 16.3858 13.3168 16.3875 13.327 16.3893C13.327 16.3893 13.3309 16.3933 13.3292 16.4042C13.3377 16.4168 13.3479 16.4185 13.3581 16.4202C13.3581 16.4202 13.3626 16.4243 13.3607 16.4353C13.3691 16.4481 13.3792 16.4498 13.3894 16.4515C13.3894 16.4515 13.3938 16.4556 13.392 16.4666C13.4004 16.4795 13.4106 16.4813 13.4208 16.4831C13.4208 16.4831 13.4248 16.4871 13.4231 16.498C13.4316 16.5108 13.4418 16.5126 13.452 16.5144C13.452 16.5144 13.4561 16.5184 13.4543 16.5293C13.4628 16.542 13.473 16.5438 13.4833 16.5456C13.4833 16.5456 13.4874 16.5496 13.4856 16.5606C13.4941 16.5733 13.5043 16.575 13.5145 16.5767C13.5145 16.5767 13.5187 16.5808 13.5169 16.5918C13.5254 16.6045 13.5356 16.6063 13.5458 16.608C13.5458 16.608 13.55 16.6121 13.5482 16.6231C13.5566 16.6358 13.5668 16.6376 13.5771 16.6393C13.5771 16.6393 13.5813 16.6434 13.5795 16.6544C13.5879 16.6672 13.5981 16.669 13.6083 16.6708C13.6083 16.6708 13.6123 16.6748 13.6106 16.6858C13.6191 16.6985 13.6293 16.7003 13.6396 16.7021C13.6396 16.7021 13.6435 16.7061 13.6418 16.7171C13.6505 16.7302 13.6609 16.7322 13.6712 16.7343C13.6712 16.7343 13.6743 16.7377 13.6724 16.7493C13.713 16.7939 13.7557 16.8268 13.7983 16.8597C13.7983 16.8597 13.7991 16.8636 13.7976 16.8741C13.8066 16.8868 13.8172 16.8891 13.8278 16.8913C13.8278 16.8913 13.8299 16.895 13.8286 16.9054C13.8378 16.9178 13.8483 16.9199 13.8588 16.922C13.8588 16.922 13.8617 16.9258 13.8602 16.9365C13.8693 16.9494 13.8798 16.9517 13.8904 16.954C13.8904 16.954 13.8923 16.9577 13.8911 16.968C13.9004 16.9807 13.911 16.983 13.9216 16.9853C13.9216 16.9853 13.9235 16.989 13.9223 16.9993C13.9317 17.012 13.9423 17.0143 13.9529 17.0166C13.9529 17.0166 13.9549 17.0202 13.9536 17.0306C13.963 17.0432 13.9736 17.0455 13.9841 17.0478C13.9841 17.0478 13.9862 17.0514 13.9849 17.0618C13.9942 17.0744 14.0048 17.0766 14.0153 17.0789C14.0153 17.0789 14.0176 17.0826 14.0163 17.093C14.0255 17.1057 14.0361 17.108 14.0466 17.1102C14.0466 17.1102 14.0488 17.1139 14.0475 17.1243C14.0568 17.1371 14.0674 17.1394 14.078 17.1417C14.078 17.1417 14.0799 17.1453 14.0787 17.1556C14.0879 17.1678 14.0983 17.1697 14.1088 17.1716C14.1088 17.1716 14.1123 17.1755 14.1107 17.1864C14.1196 17.1995 14.13 17.2018 14.1405 17.204C14.1405 17.204 14.1425 17.2078 14.1412 17.2182C14.1506 17.2308 14.1612 17.2331 14.1718 17.2354C14.1718 17.2354 14.1738 17.2391 14.1725 17.2493C14.1817 17.2616 14.1922 17.2635 14.2026 17.2655C14.2026 17.2655 14.2061 17.2694 14.2045 17.2801C14.2132 17.2928 14.2236 17.2947 14.2339 17.2966C14.2339 17.2966 14.2374 17.3005 14.2358 17.3113C14.2446 17.3241 14.2549 17.3261 14.2653 17.328C14.2653 17.328 14.2685 17.3319 14.267 17.3427C14.2758 17.3554 14.2862 17.3574 14.2966 17.3594C14.2966 17.3594 14.2998 17.3633 14.2982 17.374C14.3071 17.3867 14.3175 17.3887 14.3279 17.3907C14.3279 17.3907 14.331 17.3946 14.3295 17.4052C14.3383 17.418 14.3487 17.4201 14.3591 17.4221C14.3591 17.4221 14.3622 17.426 14.3607 17.4366C14.3695 17.4493 14.38 17.4513 14.3904 17.4534C14.3904 17.4534 14.3934 17.4572 14.3919 17.4679C14.4009 17.4806 14.4113 17.4827 14.4218 17.4847C14.4218 17.4847 14.4247 17.4885 14.4232 17.4992C14.4321 17.5118 14.4426 17.5139 14.453 17.516C14.453 17.516 14.4563 17.5192 14.4543 17.5308C14.4741 17.5539 14.4958 17.5653 14.5175 17.5768C14.5175 17.5768 14.5203 17.5814 14.5181 17.5924C14.526 17.6051 14.5362 17.6068 14.5464 17.6085C14.5464 17.6085 14.55 17.6118 14.5488 17.623C14.565 17.6426 14.5824 17.651 14.5998 17.6594C14.5998 17.6594 14.5973 17.6602 14.6007 17.667C14.6146 17.6785 14.6249 17.6831 14.6353 17.6877C14.6353 17.6877 14.6306 17.6886 14.6342 17.6961C14.6564 17.7096 14.6751 17.7156 14.6938 17.7216C14.6938 17.7216 14.6911 17.7224 14.6954 17.7321C14.8905 17.8521 15.0373 17.8406 15.1403 17.7071C15.1403 17.7071 15.1438 17.7075 15.1539 17.71C15.1714 17.7037 15.1787 17.6949 15.186 17.686C15.186 17.686 15.1869 17.6901 15.1932 17.6879C15.2064 17.6767 15.2131 17.6678 15.2198 17.6588C15.2198 17.6588 15.2201 17.6613 15.2295 17.6603C15.2473 17.6442 15.2557 17.6292 15.2642 17.6141C15.2642 17.6141 15.2675 17.6148 15.2776 17.6162C15.2901 17.6069 15.2925 17.5963 15.2949 17.5856C15.2949 17.5856 15.2985 17.5839 15.3088 17.5851C15.3214 17.5756 15.3238 17.565 15.3262 17.5543C15.3262 17.5543 15.3298 17.5528 15.3401 17.5539C15.3528 17.5443 15.3554 17.5337 15.3579 17.523C15.3579 17.523 15.3612 17.5215 15.3723 17.5231C15.4272 17.4716 15.471 17.4184 15.5148 17.3652C15.5148 17.3652 15.518 17.3659 15.5281 17.3669C15.5409 17.357 15.5437 17.3461 15.5464 17.3353C15.5464 17.3353 15.5497 17.3349 15.5596 17.3357C15.5722 17.3257 15.5749 17.3148 15.5777 17.304C15.5777 17.304 15.581 17.3037 15.5909 17.3045C15.6035 17.2944 15.6062 17.2836 15.6089 17.2727C15.6089 17.2727 15.6123 17.2724 15.6221 17.2732C15.6347 17.2631 15.6374 17.2523 15.6401 17.2415C15.6401 17.2415 15.6435 17.241 15.6533 17.2419C15.6659 17.2319 15.6686 17.221 15.6712 17.2102C15.6712 17.2102 15.6746 17.2096 15.6845 17.2105C15.697 17.2006 15.6997 17.1898 15.7023 17.179C15.7023 17.179 15.7055 17.1775 15.7164 17.1792C15.7395 17.1589 15.7515 17.137 15.7636 17.115C15.7636 17.115 15.7673 17.1145 15.7786 17.1163C15.8126 17.0858 15.8353 17.0535 15.858 17.0212C15.858 17.0212 15.8616 17.0209 15.8726 17.0226C15.8952 17.0024 15.9068 16.9806 15.9184 16.9587C15.9184 16.9587 15.9227 16.9568 15.9334 16.9586C15.9462 16.95 15.9483 16.9396 15.9503 16.9292C15.9503 16.9292 15.9542 16.9263 15.9648 16.9277C15.9775 16.9188 15.9796 16.9084 15.9816 16.8979C15.9816 16.8979 15.9855 16.895 15.9962 16.8965C16.0093 16.8874 16.0117 16.8769 16.0142 16.8663C16.0142 16.8663 16.0178 16.8649 16.0281 16.866C16.0409 16.8564 16.0435 16.8457 16.046 16.835C16.046 16.835 16.0495 16.834 16.0596 16.835C16.0722 16.8252 16.0748 16.8145 16.0774 16.8037C16.0774 16.8037 16.0808 16.8028 16.0909 16.8038C16.1036 16.794 16.1063 16.7832 16.109 16.7724C16.109 16.7724 16.112 16.7699 16.1241 16.7732C16.1474 16.7541 16.1586 16.7317 16.1699 16.7093C16.1699 16.7093 16.1735 16.7089 16.1842 16.71C16.1976 16.7003 16.2003 16.6894 16.203 16.6786C16.203 16.6786 16.2063 16.6782 16.2162 16.679C16.2289 16.669 16.2316 16.6582 16.2343 16.6473C16.2343 16.6473 16.2377 16.6469 16.2476 16.6478C16.2604 16.6377 16.2633 16.6269 16.2662 16.616C16.2662 16.616 16.2693 16.6154 16.28 16.6169C16.3136 16.5859 16.3365 16.5533 16.3594 16.5208C16.3594 16.5208 16.3627 16.5215 16.3735 16.5229C16.3959 16.5024 16.4075 16.4804 16.4192 16.4584C16.4192 16.4584 16.4233 16.4569 16.434 16.4586C16.4475 16.4496 16.4502 16.439 16.453 16.4284C16.453 16.4284 16.4563 16.4279 16.4663 16.4288C16.4789 16.4188 16.4816 16.408 16.4843 16.3972C16.4843 16.3972 16.4876 16.3967 16.4977 16.3975C16.5108 16.3875 16.5139 16.3766 16.5171 16.3658C16.5171 16.3658 16.5201 16.3654 16.5304 16.3668C16.5526 16.3462 16.5645 16.3242 16.5764 16.3021C16.5764 16.3021 16.5802 16.3013 16.5905 16.3027C16.6029 16.2936 16.6049 16.2832 16.6069 16.2727C16.6069 16.2727 16.6103 16.2692 16.6221 16.2712C16.6563 16.2411 16.6787 16.209 16.701 16.1768C16.701 16.1768 16.705 16.1758 16.7155 16.1773C16.7282 16.1684 16.7304 16.1579 16.7326 16.1473C16.7326 16.1473 16.7364 16.145 16.7468 16.1463C16.7595 16.1371 16.7617 16.1266 16.7639 16.1161C16.7639 16.1161 16.7676 16.1137 16.7781 16.115C16.7907 16.1058 16.7928 16.0953 16.795 16.0848C16.795 16.0848 16.7988 16.0823 16.8092 16.0837C16.8217 16.0746 16.8237 16.0641 16.8257 16.0537C16.8257 16.0537 16.8296 16.0505 16.8402 16.052C16.8526 16.0433 16.8544 16.033 16.8562 16.0227C16.8562 16.0227 16.8602 16.0186 16.8711 16.0204C16.8838 16.0119 16.8856 16.0016 16.8873 15.9914C16.8873 15.9914 16.8914 15.9872 16.9023 15.989C16.9148 15.9806 16.9164 15.9705 16.9181 15.9604C16.9181 15.9604 16.9222 15.9555 16.9333 15.9574C16.946 15.9493 16.9476 15.9392 16.9492 15.9291C16.9492 15.9291 16.9534 15.9242 16.9646 15.9261C16.9773 15.918 16.9789 15.9079 16.9805 15.8979C16.9805 15.8979 16.9839 15.8936 16.9951 15.895C17.0153 15.8795 17.0242 15.8627 17.0331 15.8458C17.0331 15.8458 17.0343 15.8481 17.0436 15.8469C17.0602 15.8307 17.0675 15.8157 17.0747 15.8007C17.0747 15.8007 17.0794 15.7983 17.0901 15.8006C17.1022 15.793 17.1037 15.783 17.1051 15.773C17.1051 15.773 17.1094 15.7674 17.1207 15.7695C17.1334 15.7616 17.1348 15.7517 17.1362 15.7418C17.1362 15.7418 17.1405 15.736 17.1519 15.7381C17.1646 15.7303 17.166 15.7205 17.1674 15.7106C17.1674 15.7106 17.1717 15.7047 17.1831 15.7068C17.1959 15.6991 17.1972 15.6892 17.1986 15.6794C17.1986 15.6794 17.2019 15.6742 17.2135 15.6757C17.234 15.6603 17.243 15.6435 17.2519 15.6267C17.2519 15.6267 17.2528 15.629 17.2593 15.6257C17.2718 15.6134 17.2778 15.6044 17.2838 15.5954C17.2838 15.5954 17.2844 15.5978 17.2938 15.5966C17.3105 15.5805 17.3179 15.5654 17.3253 15.5504C17.3253 15.5504 17.3298 15.5485 17.3404 15.5507C17.3525 15.5429 17.354 15.5328 17.3555 15.5227C17.3555 15.5227 17.3597 15.5174 17.371 15.5194C17.3837 15.5115 17.3851 15.5015 17.3866 15.4915C17.3866 15.4915 17.3909 15.4861 17.4022 15.4881C17.4149 15.4802 17.4164 15.4702 17.4179 15.4603C17.4179 15.4603 17.4221 15.4548 17.4334 15.4568C17.4462 15.4489 17.4476 15.439 17.4491 15.429C17.4491 15.429 17.4534 15.4235 17.4647 15.4255C17.4775 15.4176 17.4789 15.4077 17.4804 15.3977C17.4804 15.3977 17.4847 15.3923 17.496 15.3943C17.5092 15.3862 17.511 15.3761 17.5129 15.366C17.5129 15.366 17.5169 15.362 17.5278 15.3637C17.5403 15.3553 17.542 15.3451 17.5436 15.3349C17.5436 15.3349 17.5477 15.3303 17.5588 15.3321C17.5716 15.3238 17.5733 15.3137 17.575 15.3036C17.575 15.3036 17.5791 15.2991 17.5901 15.3009C17.6029 15.2925 17.6047 15.2824 17.6064 15.2722C17.6064 15.2722 17.6105 15.268 17.6215 15.2697C17.6342 15.2613 17.636 15.2512 17.6377 15.241C17.6377 15.241 17.6418 15.2367 17.6528 15.2384C17.6654 15.2301 17.6671 15.22 17.6688 15.2098C17.6688 15.2098 17.6729 15.2052 17.6839 15.2071C17.6967 15.1988 17.6983 15.1887 17.7 15.1786C17.7 15.1786 17.7034 15.1739 17.7156 15.176C17.7399 15.1566 17.7518 15.135 17.7638 15.1135C17.7638 15.1135 17.7679 15.1122 17.7785 15.1139C17.7913 15.1052 17.7934 15.0947 17.7955 15.0842C17.7955 15.0842 17.7993 15.0815 17.8099 15.0829C17.8225 15.0739 17.8246 15.0634 17.8267 15.053C17.8267 15.053 17.8305 15.0502 17.8411 15.0516C17.8537 15.0426 17.8558 15.0322 17.8579 15.0217C17.8579 15.0217 17.8617 15.0188 17.8723 15.0203C17.8849 15.0113 17.8869 15.0009 17.889 14.9905C17.889 14.9905 17.8928 14.9874 17.9036 14.9889C17.9166 14.9799 17.919 14.9694 17.9213 14.9589C17.9213 14.9589 17.925 14.957 17.9353 14.9583C17.948 14.9489 17.9503 14.9383 17.9526 14.9277C17.9526 14.9277 17.9559 14.9253 17.9672 14.9271C17.9905 14.9072 18.0025 14.8854 18.0144 14.8636C18.0144 14.8636 18.0184 14.8627 18.029 14.8642C18.0419 14.8551 18.0441 14.8445 18.0464 14.8339C18.0464 14.8339 18.05 14.832 18.0604 14.8332C18.0731 14.8238 18.0754 14.8132 18.0778 14.8026C18.0778 14.8026 18.0814 14.8007 18.0917 14.802C18.1043 14.7926 18.1066 14.7819 18.109 14.7713C18.109 14.7713 18.1126 14.7694 18.1229 14.7707C18.1356 14.7613 18.1379 14.7507 18.1402 14.7401C18.1402 14.7401 18.1439 14.7381 18.1542 14.7394C18.1668 14.73 18.1691 14.7194 18.1714 14.7088C18.1714 14.7088 18.1751 14.7068 18.1854 14.7081C18.1981 14.6988 18.2004 14.6882 18.2027 14.6776C18.2027 14.6776 18.206 14.6751 18.2173 14.6769C18.2415 14.6569 18.2544 14.6351 18.2673 14.6133C18.2673 14.6133 18.2698 14.6148 18.2799 14.6155C18.2924 14.6054 18.2949 14.5946 18.2973 14.5838C18.2973 14.5838 18.3008 14.5824 18.311 14.5834C18.3237 14.5738 18.3263 14.563 18.3289 14.5523C18.3289 14.5523 18.3324 14.5515 18.3424 14.5524C18.355 14.5426 18.3576 14.5318 18.3602 14.521C18.3602 14.521 18.3637 14.5202 18.3736 14.5211C18.3861 14.5113 18.3886 14.5006 18.3911 14.4898C18.3911 14.4898 18.3946 14.4885 18.4046 14.4896C18.4167 14.4801 18.4187 14.4695 18.4207 14.459C18.4207 14.459 18.4245 14.4559 18.4352 14.4574C18.4478 14.4485 18.4498 14.4381 18.4519 14.4276C18.4519 14.4276 18.4552 14.4252 18.4659 14.4262C18.4851 14.4099 18.4936 14.3926 18.5021 14.3753C18.5021 14.3753 18.503 14.3777 18.5102 14.3734C18.5221 14.3578 18.5269 14.3465 18.5317 14.3352C18.6589 14.0661 18.5775 13.856 18.3739 13.6531C16.832 12.1158 15.2959 10.5726 13.757 9.03223C13.5379 8.81293 13.2881 8.81157 13.07 9.02646C12.0869 9.99521 11.1048 10.965 10.1039 11.941C10.0786 11.9579 10.0718 11.9682 10.065 11.9785C10.065 11.9785 10.0645 11.9741 10.058 11.9768C10.0457 11.9895 10.0399 11.9996 10.0341 12.0096C10.0341 12.0096 10.0333 12.0055 10.0267 12.0081C10.0143 12.0208 10.0086 12.0308 10.0028 12.0409C10.0028 12.0409 10.002 12.0367 9.99541 12.0394C9.98304 12.0521 9.97729 12.0621 9.97155 12.0721C9.97155 12.0721 9.97074 12.068 9.96416 12.0707C9.95171 12.0833 9.94584 12.0932 9.93998 12.1031C9.93998 12.1031 9.93926 12.0991 9.93272 12.1017C9.92006 12.114 9.91393 12.1236 9.90779 12.1333C9.90779 12.1333 9.90727 12.1296 9.90075 12.1325C9.88833 12.1451 9.88243 12.1548 9.87653 12.1645C9.87653 12.1645 9.87599 12.1609 9.86948 12.1637C9.85684 12.1759 9.85071 12.1853 9.84457 12.1948C9.84457 12.1948 9.84416 12.1916 9.83766 12.1946C9.82519 12.2071 9.81921 12.2165 9.81323 12.2259C9.81323 12.2259 9.81307 12.2232 9.80318 12.224C9.76933 12.2671 9.74537 12.3094 9.72141 12.3517C9.72141 12.3517 9.7205 12.3484 9.71038 12.3528C9.63703 12.4652 9.62003 12.5726 9.70384 12.6788C9.70384 12.6788 9.69853 12.6786 9.69553 12.691C9.71207 12.7298 9.73162 12.7563 9.75118 12.7828C9.75118 12.7828 9.74887 12.7836 9.74984 12.7933C9.77387 12.8263 9.79693 12.8497 9.81998 12.8731C9.81998 12.8731 9.81538 12.8742 9.81771 12.8807C9.8301 12.8931 9.84018 12.899 9.85025 12.9049C9.85025 12.9049 9.84596 12.9057 9.84856 12.9123C9.86126 12.9247 9.87135 12.9304 9.88145 12.9362C9.88145 12.9362 9.87724 12.937 9.87965 12.9436C9.8917 12.9564 9.90132 12.9627 9.91095 12.9689C9.91095 12.9689 9.90731 12.9695 9.91014 12.976C9.92253 12.9885 9.93209 12.9945 9.94165 13.0005C9.94165 13.0005 9.93823 13.001 9.94131 13.0076C9.95421 13.0198 9.96403 13.0254 9.97385 13.0311C9.97385 13.0311 9.97001 13.0318 9.97308 13.0385C9.98617 13.0512 9.9962 13.0573 10.0062 13.0634C10.0161 13.0637 10.0236 13.068 10.0332 13.0914C10.0472 13.1129 10.0569 13.1194 10.0665 13.1259C10.0665 13.1259 10.0631 13.1263 10.0661 13.1327C10.0783 13.1453 10.0876 13.1515 10.0968 13.1577C10.0968 13.1577 10.0939 13.158 10.0973 13.1646C10.1102 13.1772 10.1198 13.1832 10.1294 13.1891C10.1775 13.2341 10.2257 13.279 10.2784 13.3437C10.3039 13.3784 10.3247 13.3932 10.3456 13.4079C10.3456 13.4079 10.3432 13.4091 10.3445 13.4184C10.3607 13.4354 10.3758 13.443 10.3908 13.4507C10.3908 13.4507 10.3919 13.4549 10.3899 13.4654C10.3982 13.4778 10.4086 13.4797 10.4189 13.4815C10.4189 13.4815 10.4225 13.4855 10.4209 13.4963C10.4294 13.5088 10.4397 13.5105 10.4499 13.5122C10.4499 13.5122 10.4537 13.5155 10.4524 13.5266C10.468 13.5465 10.4849 13.5554 10.5019 13.5643C10.5019 13.5643 10.4995 13.5654 10.5008 13.5747C10.5171 13.5917 10.5321 13.5994 10.5472 13.607C10.5472 13.607 10.5483 13.6112 10.5463 13.6217C10.5547 13.6341 10.565 13.6361 10.5754 13.638C10.5754 13.638 10.5789 13.6419 10.5772 13.6526C10.5857 13.6647 10.5958 13.6662 10.606 13.6677C10.606 13.6677 10.6113 13.672 10.6093 13.6834C10.6174 13.6965 10.6275 13.6983 10.6377 13.7C10.6377 13.7 10.6416 13.7041 10.6399 13.715C10.6484 13.7276 10.6586 13.7293 10.6689 13.731C10.6689 13.731 10.6733 13.7351 10.6714 13.7461C10.6798 13.7588 10.69 13.7605 10.7002 13.7622C10.7002 13.7622 10.7046 13.7663 10.7027 13.7774C10.7111 13.7901 10.7212 13.7918 10.7314 13.7935C10.7314 13.7935 10.7359 13.7976 10.734 13.8086C10.7423 13.8213 10.7524 13.823 10.7626 13.8246C10.7626 13.8246 10.7672 13.8288 10.7653 13.8399C10.7736 13.8527 10.7837 13.8543 10.7939 13.856C10.7939 13.856 10.7984 13.8601 10.7965 13.8712C10.8049 13.884 10.8151 13.8857 10.8253 13.8874C10.8253 13.8874 10.8288 13.8907 10.8276 13.902C10.8439 13.9221 10.8613 13.931 10.8787 13.9399C10.8965 13.9542 10.9143 13.9685 10.9359 14.0017C10.9547 14.0282 10.9699 14.0359 10.985 14.0435C10.985 14.0435 10.9874 14.0482 10.985 14.0591C10.9927 14.0716 11.0028 14.0733 11.013 14.075C11.013 14.075 11.0172 14.0791 11.0154 14.09C11.0237 14.1025 11.0338 14.104 11.0439 14.1056C11.0439 14.1056 11.0491 14.1098 11.0471 14.121C11.0551 14.1338 11.0651 14.1353 11.0752 14.1369C11.0752 14.1369 11.0803 14.1411 11.0783 14.1524C11.0864 14.1654 11.0965 14.1671 11.1066 14.1688C11.1066 14.1688 11.111 14.1729 11.1091 14.184C11.1175 14.1967 11.1277 14.1984 11.1379 14.2001C11.1379 14.2001 11.1422 14.2042 11.1404 14.2152C11.1487 14.2277 11.1588 14.2292 11.169 14.2307C11.169 14.2307 11.1741 14.2349 11.1721 14.2461C11.1802 14.2589 11.1902 14.2605 11.2003 14.262C11.2003 14.262 11.2054 14.2662 11.2034 14.2774C11.2114 14.2901 11.2214 14.2916 11.2314 14.2932C11.2314 14.2932 11.2366 14.2974 11.2346 14.3087C11.2428 14.3219 11.253 14.3237 11.2631 14.3256C11.2631 14.3256 11.267 14.3296 11.2653 14.3405C11.2738 14.3532 11.2841 14.3549 11.2943 14.3567C11.2943 14.3567 11.2984 14.3607 11.2966 14.3717C11.3051 14.3844 11.3153 14.3862 11.3256 14.3879C11.3256 14.3879 11.3292 14.3912 11.3279 14.4022C11.3437 14.422 11.3608 14.4308 11.3779 14.4395C11.3779 14.4395 11.3756 14.4404 11.379 14.447C11.3918 14.4596 11.4012 14.4656 11.4105 14.4715C11.4284 14.4857 11.4462 14.4998 11.4664 14.5351C11.4701 14.5822 11.4714 14.6082 11.4727 14.6343C11.4727 14.6343 11.4723 14.6313 11.4652 14.6343C11.4523 14.6471 11.4465 14.657 11.4408 14.6669C11.4408 14.6669 11.4401 14.663 11.4335 14.6658C11.4211 14.6784 11.4153 14.6883 11.4095 14.6983C11.4095 14.6983 11.4088 14.6943 11.4022 14.6971C11.3899 14.7099 11.3842 14.7199 11.3785 14.7299C11.3785 14.7299 11.3778 14.7258 11.3712 14.7285C11.3589 14.7413 11.3532 14.7514 11.3475 14.7614C11.3475 14.7614 11.3467 14.7573 11.3401 14.7599C11.3277 14.7726 11.322 14.7827 11.3162 14.7927C11.3162 14.7927 11.3154 14.7885 11.3088 14.7912C11.2964 14.8039 11.2906 14.8139 11.2849 14.8239C11.2849 14.8239 11.2841 14.8197 11.2775 14.8224C11.2651 14.8351 11.2594 14.8451 11.2536 14.8552C11.2536 14.8552 11.2528 14.851 11.2462 14.8536C11.2337 14.8661 11.2277 14.8759 11.2217 14.8857C11.2217 14.8857 11.2211 14.8818 11.2145 14.8848C11.2026 14.898 11.1973 14.9083 11.192 14.9185C11.192 14.9185 11.1911 14.9142 11.1843 14.9168C11.1721 14.9297 11.1666 14.94 11.1611 14.9503C11.1611 14.9503 11.1601 14.9459 11.1533 14.9483C11.141 14.961 11.1354 14.9713 11.1298 14.9816C11.1298 14.9816 11.1288 14.9772 11.1221 14.9796C11.1097 14.9922 11.104 15.0024 11.0983 15.0127C11.0983 15.0127 11.098 15.0089 11.0881 15.0086C11.0539 15.0407 11.0297 15.0732 11.0054 15.1057C11.0054 15.1057 11.0037 15.1023 10.9968 15.1045C10.9841 15.1169 10.9785 15.1271 10.9728 15.1372C10.9728 15.1372 10.9719 15.1329 10.9652 15.1355C10.9531 15.1485 10.9477 15.1589 10.9423 15.1693C10.9423 15.1693 10.9421 15.1655 10.9321 15.1651C10.8878 15.2079 10.8535 15.2511 10.8192 15.2944C10.8192 15.2944 10.8172 15.291 10.81 15.293C10.7975 15.3054 10.7922 15.3159 10.7868 15.3265C10.7868 15.3265 10.7855 15.3219 10.7787 15.3241C10.7664 15.3367 10.7609 15.3472 10.7554 15.3576C10.7554 15.3576 10.7542 15.353 10.7474 15.3553C10.7355 15.3684 10.7305 15.3791 10.7254 15.3898C10.7254 15.3898 10.724 15.3853 10.7169 15.3872C10.7045 15.3997 10.6991 15.4103 10.6936 15.4209C10.6936 15.4209 10.6923 15.4162 10.6853 15.4183C10.6733 15.4311 10.6682 15.4418 10.6631 15.4526C10.6631 15.4526 10.6616 15.448 10.6545 15.4499C10.6422 15.4625 10.637 15.4732 10.6318 15.4839C10.6318 15.4839 10.6313 15.4796 10.6215 15.4789C10.5763 15.5216 10.541 15.5651 10.5057 15.6085C10.5057 15.6085 10.5047 15.6036 10.4965 15.6053C10.4737 15.6287 10.4592 15.6503 10.4447 15.672C10.4447 15.672 10.4428 15.6675 10.4357 15.6692C10.4237 15.6817 10.4188 15.6926 10.4138 15.7034C10.4138 15.7034 10.4121 15.699 10.4049 15.7006C10.3926 15.7131 10.3876 15.7239 10.3825 15.7347C10.3825 15.7347 10.3809 15.7302 10.3737 15.7319C10.3617 15.7446 10.3569 15.7555 10.3521 15.7664C10.3521 15.7664 10.3507 15.7619 10.342 15.763C10.319 15.7859 10.3047 15.8078 10.2904 15.8297C10.2904 15.8297 10.288 15.8257 10.2806 15.8268C10.2685 15.8388 10.2638 15.8498 10.2591 15.8608C10.2591 15.8608 10.257 15.8568 10.2495 15.8579C10.237 15.8698 10.2319 15.8807 10.2269 15.8915C10.2269 15.8915 10.225 15.8871 10.2177 15.8887C10.2061 15.9014 10.2018 15.9125 10.1975 15.9236C10.1975 15.9236 10.194 15.9187 10.1869 15.9203C10.1753 15.933 10.1708 15.944 10.1663 15.955C10.1663 15.955 10.1629 15.9504 10.1557 15.9518C10.1441 15.9643 10.1396 15.9753 10.1352 15.9864C10.1352 15.9864 10.1312 15.9815 10.1243 15.9831C10.1128 15.9956 10.1083 16.0066 10.1038 16.0176C10.1038 16.0176 10.1003 16.013 10.0932 16.0144C10.0815 16.0268 10.077 16.0379 10.0725 16.0489C10.0725 16.0489 10.0705 16.044 10.0616 16.045C10.0391 16.0682 10.0255 16.0905 10.0119 16.1127C10.0119 16.1127 10.0036 16.1094 9.99818 16.1097C9.98869 16.1212 9.98459 16.1323 9.98049 16.1434C9.98049 16.1434 9.96932 16.1354 9.96546 16.1384C9.95752 16.1525 9.95344 16.1636 9.94937 16.1747C9.94937 16.1747 9.94607 16.1765 9.93625 16.1725C9.89304 16.2121 9.85965 16.2558 9.82626 16.2994C9.82626 16.2994 9.82541 16.2989 9.81525 16.2983C9.80103 16.3088 9.79698 16.3199 9.79292 16.331C9.79292 16.331 9.78103 16.3227 9.77748 16.3259C9.76992 16.3401 9.76591 16.3512 9.76189 16.3624C9.76189 16.3624 9.7596 16.3503 9.75023 16.3548C9.72807 16.3817 9.71528 16.4041 9.70249 16.4264C9.70249 16.4264 9.70172 16.4198 9.69135 16.4217C9.67791 16.4346 9.67483 16.4457 9.67176 16.4568C9.67176 16.4568 9.66887 16.4557 9.6594 16.4554C9.64679 16.4661 9.64363 16.4771 9.64047 16.4881C9.64047 16.4881 9.63743 16.4867 9.62804 16.4866C9.61545 16.4974 9.61225 16.5084 9.60905 16.5194C9.60905 16.5194 9.60428 16.5182 9.59488 16.5174C9.56171 16.5491 9.53794 16.5816 9.51418 16.6141C9.51418 16.6141 9.51554 16.609 9.50442 16.6101C9.49036 16.6222 9.48742 16.6333 9.48448 16.6444C9.48448 16.6444 9.48147 16.6437 9.47196 16.6432C9.45943 16.6538 9.45642 16.6648 9.4534 16.6758C9.4534 16.6758 9.45037 16.6751 9.4408 16.6746C9.42828 16.6851 9.42532 16.6961 9.42236 16.707C9.42236 16.707 9.41926 16.7076 9.4088 16.7061C9.38502 16.7266 9.3717 16.7486 9.35838 16.7706C9.35838 16.7706 9.35867 16.7647 9.34784 16.7661C9.33395 16.7786 9.33088 16.7897 9.32781 16.8008C9.32781 16.8008 9.3248 16.8011 9.31457 16.7997C9.2915 16.8203 9.27866 16.8425 9.26581 16.8646C9.26581 16.8646 9.26359 16.8616 9.25364 16.8616C9.2412 16.8726 9.23872 16.8835 9.23624 16.8945C9.23624 16.8945 9.2328 16.8955 9.22279 16.8945C9.21021 16.9043 9.20765 16.9151 9.20509 16.9259C9.20509 16.9259 9.20162 16.9268 9.19157 16.9258C9.17902 16.9356 9.17652 16.9463 9.17402 16.9571C9.17402 16.9571 9.17051 16.9583 9.16039 16.9572C9.1478 16.9669 9.14532 16.9776 9.14284 16.9884C9.14284 16.9884 9.13931 16.9896 9.12916 16.9885C9.11655 16.9982 9.11409 17.0089 9.11163 17.0196C9.11163 17.0196 9.10809 17.0209 9.09793 17.0198C9.08533 17.0294 9.08288 17.0402 9.08043 17.0509C9.08043 17.0509 9.07689 17.0524 9.06684 17.0512C9.05496 17.0605 9.05311 17.0711 9.05127 17.0816C9.05127 17.0816 9.04733 17.0853 9.03651 17.0836C9.02382 17.0923 9.02195 17.1026 9.02008 17.1129C9.02008 17.1129 9.0167 17.1168 9.00476 17.1147C8.98126 17.1343 8.96971 17.1559 8.95815 17.1775C8.95815 17.1775 8.95367 17.1799 8.9428 17.1779C8.93009 17.1861 8.92825 17.1964 8.92641 17.2067C8.92641 17.2067 8.92241 17.2105 8.91152 17.2088C8.89878 17.2174 8.89691 17.2277 8.89504 17.238C8.89504 17.238 8.89105 17.2417 8.8802 17.24C8.86746 17.2487 8.86558 17.259 8.8637 17.2693C8.8637 17.2693 8.85973 17.273 8.84894 17.2713C8.83644 17.2798 8.83473 17.2901 8.83302 17.3003C8.83302 17.3003 8.82894 17.3047 8.81791 17.3029C8.80521 17.3112 8.80355 17.3214 8.80188 17.3316C8.80188 17.3316 8.79778 17.336 8.78673 17.3342C8.77398 17.3425 8.77228 17.3527 8.77058 17.3629C8.77058 17.3629 8.76646 17.3672 8.75531 17.3654C8.74191 17.374 8.73965 17.3844 8.7374 17.3948C8.7374 17.3948 8.73365 17.397 8.72326 17.3957C8.7109 17.4048 8.70892 17.4153 8.70694 17.4258C8.70694 17.4258 8.70305 17.429 8.69236 17.4274C8.67965 17.4362 8.67764 17.4466 8.67563 17.4571C8.67563 17.4571 8.67174 17.4602 8.66105 17.4586C8.64837 17.4675 8.64637 17.4779 8.64437 17.4883C8.64437 17.4883 8.64048 17.4915 8.62978 17.4899C8.61714 17.4987 8.61519 17.5091 8.61324 17.5195C8.61324 17.5195 8.60932 17.5228 8.59856 17.5212C8.58587 17.53 8.58393 17.5404 8.58199 17.5508C8.58199 17.5508 8.57871 17.5544 8.56691 17.5524C8.54355 17.5721 8.53198 17.5937 8.52042 17.6154C8.52042 17.6154 8.51588 17.6177 8.50494 17.6157C8.49205 17.6239 8.49009 17.6342 8.48813 17.6445C8.48813 17.6445 8.48421 17.6479 8.47346 17.6463C8.461 17.655 8.45928 17.6653 8.45757 17.6756C8.45757 17.6756 8.45353 17.6797 8.44257 17.678C8.42984 17.6865 8.42808 17.6967 8.42631 17.7069C8.42631 17.7069 8.42226 17.711 8.41131 17.7093C8.39864 17.7177 8.39692 17.7279 8.39519 17.7381C8.39519 17.7381 8.39112 17.7424 8.38013 17.7406C8.36748 17.749 8.36582 17.7592 8.36416 17.7693C8.36416 17.7693 8.36004 17.7739 8.34897 17.772C8.33627 17.7803 8.33464 17.7904 8.33301 17.8006C8.33301 17.8006 8.32965 17.8046 8.31848 17.8033C8.29844 17.8189 8.28956 17.8358 8.28068 17.8527C8.28068 17.8527 8.27943 17.8502 8.27015 17.8515C8.25351 17.8677 8.24615 17.8827 8.23879 17.8977C8.23879 17.8977 8.23419 17.8999 8.2235 17.8976C8.21124 17.9054 8.20967 17.9155 8.20809 17.9256C8.20809 17.9256 8.20392 17.9305 8.19275 17.9285C8.18004 17.9367 8.17849 17.9467 8.17695 17.9568C8.17695 17.9568 8.17275 17.9619 8.16155 17.9599C8.14887 17.9679 8.1474 17.9779 8.14593 17.9879C8.14593 17.9879 8.14168 17.9933 8.13037 17.9913C8.11761 17.9992 8.11617 18.0092 8.11473 18.0192C8.11473 18.0192 8.11047 18.0246 8.09913 18.0226C8.08633 18.0305 8.08488 18.0405 8.08343 18.0504C8.08343 18.0504 8.07917 18.0559 8.06785 18.0538C8.05505 18.0618 8.05358 18.0717 8.05212 18.0817C8.05212 18.0817 8.04876 18.0864 8.03737 18.085C8.01702 18.1003 8.00805 18.1171 7.99908 18.1339C7.99908 18.1339 7.99797 18.1316 7.98865 18.1328C7.97208 18.149 7.96483 18.1641 7.95759 18.1791C7.95759 18.1791 7.95339 18.1823 7.94053 18.1783C7.91734 18.1963 7.907 18.2183 7.89666 18.2402C7.89666 18.2402 7.89164 18.2441 7.8803 18.2417C7.86753 18.2493 7.86611 18.2593 7.86469 18.2693C7.86469 18.2693 7.86041 18.2749 7.84898 18.2728C7.83594 18.2808 7.83433 18.2908 7.83272 18.3009C7.83272 18.3009 7.82856 18.3055 7.81743 18.3037C7.80465 18.3119 7.803 18.322 7.80136 18.3322C7.80136 18.3322 7.79722 18.3368 7.78612 18.3349C7.77334 18.3432 7.77166 18.3533 7.76998 18.3635C7.76998 18.3635 7.76672 18.3681 7.75458 18.366C7.73137 18.3854 7.72029 18.4069 7.70921 18.4284C7.70921 18.4284 7.70399 18.4326 7.69266 18.4299C7.68004 18.437 7.67874 18.4468 7.67744 18.4567C7.67744 18.4567 7.6741 18.4619 7.66243 18.4605C7.64196 18.476 7.63315 18.4929 7.62434 18.5098C7.62434 18.5098 7.62303 18.5072 7.6138 18.5083C7.5974 18.5245 7.59024 18.5395 7.58307 18.5544C7.58307 18.5544 7.57884 18.5562 7.56771 18.5545C7.54767 18.5703 7.53875 18.5876 7.52982 18.605C7.49529 18.6431 7.46075 18.6812 7.40646 18.7238C7.37216 18.7494 7.3576 18.7705 7.34304 18.7915C7.34304 18.7915 7.34181 18.7889 7.33236 18.7901C7.30853 18.8127 7.29415 18.8341 7.27978 18.8555C7.2793 18.8658 7.27467 18.8737 7.25099 18.884C7.22971 18.898 7.22333 18.9072 7.21695 18.9164C7.21695 18.9164 7.21664 18.9139 7.20719 18.915C7.18356 18.937 7.16937 18.9579 7.15519 18.9789C7.15519 18.9789 7.15431 18.9765 7.14765 18.9799C7.13506 18.9929 7.12913 19.0024 7.12321 19.0119C7.12272 19.0222 7.11806 19.0302 7.0916 19.0383C7.05941 19.062 7.04484 19.0831 7.03028 19.1041C7.03028 19.1041 7.02897 19.1015 7.01974 19.1025C7.00308 19.1187 6.99566 19.1337 6.98824 19.1487C6.98824 19.1487 6.98415 19.1497 6.97324 19.1483C6.95346 19.1643 6.9446 19.1818 6.93574 19.1993C6.93511 19.2097 6.93037 19.2176 6.90397 19.2258C6.87883 19.2435 6.87125 19.2586 6.86367 19.2737C6.86367 19.2737 6.85871 19.2768 6.84786 19.2741C6.83575 19.2812 6.8345 19.2911 6.83325 19.3009C6.83325 19.3009 6.82887 19.3072 6.81733 19.305C6.8045 19.3126 6.80322 19.3224 6.80193 19.3322C6.80193 19.3322 6.79859 19.3376 6.78691 19.3361C6.76638 19.3515 6.75752 19.3683 6.74866 19.3852C6.74866 19.3852 6.74739 19.3826 6.73791 19.3839C6.71413 19.4066 6.69983 19.428 6.68553 19.4494C6.66119 19.4772 6.63686 19.505 6.59308 19.537C6.55906 19.5623 6.54448 19.5834 6.52991 19.6044C6.52991 19.6044 6.52901 19.602 6.52233 19.6054C6.50968 19.6182 6.50373 19.6277 6.49777 19.6372C6.4221 19.7166 6.34642 19.7961 6.25311 19.8828C6.22914 19.8997 6.22281 19.9094 6.21648 19.9191C6.18205 19.957 6.14762 19.9949 6.0933 20.0373C6.05861 20.0634 6.04381 20.085 6.02902 20.1066C6.02861 20.1168 6.02409 20.1246 6.00039 20.1351C5.97903 20.1498 5.97271 20.1595 5.96639 20.1691C5.94222 20.1969 5.91805 20.2246 5.87448 20.2563C5.84753 20.2754 5.83997 20.2906 5.83241 20.3057C5.83241 20.3057 5.82714 20.3095 5.81612 20.3065C5.8023 20.3064 5.7971 20.3094 5.79719 20.3123C5.79741 20.319 5.80013 20.3257 5.80184 20.3324C5.80184 20.3324 5.79857 20.3385 5.78661 20.337C5.76592 20.3524 5.75719 20.3694 5.74846 20.3864C5.74846 20.3864 5.7475 20.384 5.74073 20.3873C5.72805 20.4004 5.72214 20.4101 5.71623 20.4198C5.71595 20.4299 5.7115 20.4376 5.68796 20.4478C5.66664 20.4619 5.66024 20.4713 5.65385 20.4807C5.65385 20.4807 5.6536 20.4778 5.6471 20.4809C5.63463 20.4934 5.62866 20.5027 5.62269 20.512C5.62269 20.512 5.62237 20.5091 5.61584 20.5122C5.60336 20.5247 5.59739 20.534 5.59143 20.5433C5.59143 20.5433 5.5911 20.5404 5.58458 20.5435C5.5721 20.556 5.56614 20.5653 5.56018 20.5746C5.56018 20.5746 5.55984 20.5717 5.55331 20.5749C5.54095 20.5875 5.53512 20.597 5.52928 20.6064C5.52928 20.6064 5.52888 20.6032 5.52237 20.6063C5.5099 20.6188 5.50394 20.6282 5.49798 20.6377C5.49798 20.6377 5.49753 20.6345 5.49092 20.6377C5.47826 20.6507 5.47221 20.6604 5.46616 20.6701ZM10.922 9.53261C11.4969 8.96555 12.0728 8.39951 12.6463 7.83102C12.9437 7.53615 12.9407 7.28284 12.6412 6.9865C12.4153 6.76296 12.1871 6.54177 11.9613 6.31807C11.6217 5.98149 11.3695 5.98019 11.0289 6.31242C9.73507 7.57484 8.4408 8.83685 7.1463 10.0986C6.87525 10.3628 6.86834 10.6466 7.13377 10.9138C7.39812 11.1799 7.66642 11.4422 7.93245 11.7066C8.19987 11.9725 8.46141 11.9716 8.73063 11.7046C9.4556 10.9855 10.181 10.2669 10.922 9.53261ZM16.9843 20.4001C17.1476 20.3882 17.2781 20.3158 17.3934 20.1996C17.9914 19.597 18.5926 18.9974 19.1926 18.3968C19.8516 17.7372 20.5112 17.0782 21.1692 16.4177C21.4465 16.1393 21.4461 15.8664 21.1713 15.5906C20.9286 15.3471 20.6845 15.105 20.4416 14.8618C20.1569 14.5767 19.8567 14.5759 19.571 14.8615C18.3147 16.117 17.0586 17.3728 15.8025 18.6286C15.5251 18.9059 15.5245 19.1952 15.8028 19.4701C16.0474 19.7116 16.2979 19.9473 16.5382 20.193C16.6571 20.3145 16.7892 20.3917 16.9843 20.4001Z"/><mask id="path-3-outside-1_228_1558" width="162" height="20" x="33" y="6" fill="black" maskUnits="userSpaceOnUse"><rect width="162" height="20" x="33" y="6" fill="white"/><path d="M35.948 21H33.491V6.993H43.088V9.156H35.948V12.789H42.941V14.952H35.948V21ZM47.11 21H44.905V10.857H47.11V12.348C47.866 11.382 49.084 10.626 50.407 10.626V12.81C50.218 12.768 49.987 12.747 49.714 12.747C48.79 12.747 47.551 13.377 47.11 14.091V21ZM51.2403 15.918C51.2403 12.978 53.3823 10.605 56.3853 10.605C59.4303 10.605 61.3833 12.936 61.3833 16.128V16.653H53.5503C53.7183 18.186 54.8733 19.446 56.7843 19.446C57.7713 19.446 58.9473 19.047 59.6613 18.333L60.6693 19.782C59.6613 20.748 58.1703 21.252 56.5533 21.252C53.5083 21.252 51.2403 19.131 51.2403 15.918ZM56.3853 12.411C54.4953 12.411 53.6343 13.86 53.5293 15.099H59.2413C59.1993 13.902 58.3803 12.411 56.3853 12.411ZM62.6147 15.918C62.6147 12.978 64.7567 10.605 67.7597 10.605C70.8047 10.605 72.7577 12.936 72.7577 16.128V16.653H64.9247C65.0927 18.186 66.2477 19.446 68.1587 19.446C69.1457 19.446 70.3217 19.047 71.0357 18.333L72.0437 19.782C71.0357 20.748 69.5447 21.252 67.9277 21.252C64.8827 21.252 62.6147 19.131 62.6147 15.918ZM67.7597 12.411C65.8697 12.411 65.0087 13.86 64.9037 15.099H70.6157C70.5737 13.902 69.7547 12.411 67.7597 12.411ZM88.3917 21H79.7607V6.993H82.2177V18.837H88.3917V21ZM89.2937 15.918C89.2937 12.978 91.4357 10.605 94.4387 10.605C97.4837 10.605 99.4367 12.936 99.4367 16.128V16.653H91.6037C91.7717 18.186 92.9267 19.446 94.8377 19.446C95.8247 19.446 97.0007 19.047 97.7147 18.333L98.7227 19.782C97.7147 20.748 96.2237 21.252 94.6067 21.252C91.5617 21.252 89.2937 19.131 89.2937 15.918ZM94.4387 12.411C92.5487 12.411 91.6877 13.86 91.5827 15.099H97.2947C97.2527 13.902 96.4337 12.411 94.4387 12.411ZM101.172 23.604L102.201 22.008C103.02 22.953 104.07 23.31 105.414 23.31C106.863 23.31 108.417 22.638 108.417 20.559V19.341C107.64 20.349 106.485 21.021 105.162 21.021C102.579 21.021 100.668 19.152 100.668 15.813C100.668 12.537 102.558 10.605 105.162 10.605C106.443 10.605 107.598 11.193 108.417 12.264V10.857H110.622V20.475C110.622 24.129 107.913 25.116 105.414 25.116C103.692 25.116 102.411 24.738 101.172 23.604ZM108.417 17.703V13.923C107.934 13.167 106.842 12.558 105.813 12.558C104.07 12.558 102.957 13.86 102.957 15.813C102.957 17.766 104.07 19.068 105.813 19.068C106.842 19.068 107.934 18.459 108.417 17.703ZM121.565 21H119.36V19.908C118.604 20.769 117.428 21.252 116.084 21.252C114.425 21.252 112.556 20.139 112.556 17.892C112.556 15.561 114.425 14.595 116.084 14.595C117.449 14.595 118.625 15.036 119.36 15.897V14.385C119.36 13.209 118.394 12.495 116.987 12.495C115.853 12.495 114.866 12.915 113.984 13.776L113.081 12.243C114.257 11.13 115.727 10.605 117.344 10.605C119.591 10.605 121.565 11.55 121.565 14.28V21ZM119.36 18.69V17.157C118.856 16.464 117.911 16.107 116.945 16.107C115.706 16.107 114.782 16.821 114.782 17.934C114.782 19.026 115.706 19.74 116.945 19.74C117.911 19.74 118.856 19.383 119.36 18.69ZM126.314 21H124.109V6.993H126.314V21ZM146.601 21H143.913L142.884 18.312H136.248L135.219 21H132.531L138.033 6.993H141.099L146.601 21ZM142.191 16.149L139.566 9.072L136.941 16.149H142.191ZM157.097 21H154.892V19.614C154.115 20.622 152.939 21.252 151.637 21.252C149.033 21.252 147.122 19.278 147.122 15.939C147.122 12.663 149.012 10.605 151.637 10.605C152.897 10.605 154.073 11.193 154.892 12.264V6.993H157.097V21ZM154.892 17.955V13.923C154.388 13.167 153.317 12.558 152.267 12.558C150.524 12.558 149.411 13.965 149.411 15.939C149.411 17.892 150.524 19.299 152.267 19.299C153.317 19.299 154.388 18.711 154.892 17.955ZM164.68 21H162.307L158.17 10.857H160.522L163.483 18.459L166.444 10.857H168.817L164.68 21ZM170.978 9.177C170.243 9.177 169.613 8.568 169.613 7.812C169.613 7.056 170.243 6.447 170.978 6.447C171.734 6.447 172.343 7.056 172.343 7.812C172.343 8.568 171.734 9.177 170.978 9.177ZM172.091 21H169.886V10.857H172.091V21ZM174.007 15.918C174.007 12.852 176.17 10.605 179.257 10.605C181.231 10.605 182.428 11.445 183.142 12.411L181.693 13.755C181.126 12.957 180.349 12.558 179.362 12.558C177.514 12.558 176.296 13.944 176.296 15.918C176.296 17.892 177.514 19.299 179.362 19.299C180.349 19.299 181.126 18.879 181.693 18.102L183.142 19.446C182.428 20.412 181.231 21.252 179.257 21.252C176.17 21.252 174.007 19.005 174.007 15.918ZM184.13 15.918C184.13 12.978 186.272 10.605 189.275 10.605C192.32 10.605 194.273 12.936 194.273 16.128V16.653H186.44C186.608 18.186 187.763 19.446 189.674 19.446C190.661 19.446 191.837 19.047 192.551 18.333L193.559 19.782C192.551 20.748 191.06 21.252 189.443 21.252C186.398 21.252 184.13 19.131 184.13 15.918ZM189.275 12.411C187.385 12.411 186.524 13.86 186.419 15.099H192.131C192.089 13.902 191.27 12.411 189.275 12.411Z"/></mask><path fill="#FEFEFF" d="M35.948 21H33.491V6.993H43.088V9.156H35.948V12.789H42.941V14.952H35.948V21ZM47.11 21H44.905V10.857H47.11V12.348C47.866 11.382 49.084 10.626 50.407 10.626V12.81C50.218 12.768 49.987 12.747 49.714 12.747C48.79 12.747 47.551 13.377 47.11 14.091V21ZM51.2403 15.918C51.2403 12.978 53.3823 10.605 56.3853 10.605C59.4303 10.605 61.3833 12.936 61.3833 16.128V16.653H53.5503C53.7183 18.186 54.8733 19.446 56.7843 19.446C57.7713 19.446 58.9473 19.047 59.6613 18.333L60.6693 19.782C59.6613 20.748 58.1703 21.252 56.5533 21.252C53.5083 21.252 51.2403 19.131 51.2403 15.918ZM56.3853 12.411C54.4953 12.411 53.6343 13.86 53.5293 15.099H59.2413C59.1993 13.902 58.3803 12.411 56.3853 12.411ZM62.6147 15.918C62.6147 12.978 64.7567 10.605 67.7597 10.605C70.8047 10.605 72.7577 12.936 72.7577 16.128V16.653H64.9247C65.0927 18.186 66.2477 19.446 68.1587 19.446C69.1457 19.446 70.3217 19.047 71.0357 18.333L72.0437 19.782C71.0357 20.748 69.5447 21.252 67.9277 21.252C64.8827 21.252 62.6147 19.131 62.6147 15.918ZM67.7597 12.411C65.8697 12.411 65.0087 13.86 64.9037 15.099H70.6157C70.5737 13.902 69.7547 12.411 67.7597 12.411ZM88.3917 21H79.7607V6.993H82.2177V18.837H88.3917V21ZM89.2937 15.918C89.2937 12.978 91.4357 10.605 94.4387 10.605C97.4837 10.605 99.4367 12.936 99.4367 16.128V16.653H91.6037C91.7717 18.186 92.9267 19.446 94.8377 19.446C95.8247 19.446 97.0007 19.047 97.7147 18.333L98.7227 19.782C97.7147 20.748 96.2237 21.252 94.6067 21.252C91.5617 21.252 89.2937 19.131 89.2937 15.918ZM94.4387 12.411C92.5487 12.411 91.6877 13.86 91.5827 15.099H97.2947C97.2527 13.902 96.4337 12.411 94.4387 12.411ZM101.172 23.604L102.201 22.008C103.02 22.953 104.07 23.31 105.414 23.31C106.863 23.31 108.417 22.638 108.417 20.559V19.341C107.64 20.349 106.485 21.021 105.162 21.021C102.579 21.021 100.668 19.152 100.668 15.813C100.668 12.537 102.558 10.605 105.162 10.605C106.443 10.605 107.598 11.193 108.417 12.264V10.857H110.622V20.475C110.622 24.129 107.913 25.116 105.414 25.116C103.692 25.116 102.411 24.738 101.172 23.604ZM108.417 17.703V13.923C107.934 13.167 106.842 12.558 105.813 12.558C104.07 12.558 102.957 13.86 102.957 15.813C102.957 17.766 104.07 19.068 105.813 19.068C106.842 19.068 107.934 18.459 108.417 17.703ZM121.565 21H119.36V19.908C118.604 20.769 117.428 21.252 116.084 21.252C114.425 21.252 112.556 20.139 112.556 17.892C112.556 15.561 114.425 14.595 116.084 14.595C117.449 14.595 118.625 15.036 119.36 15.897V14.385C119.36 13.209 118.394 12.495 116.987 12.495C115.853 12.495 114.866 12.915 113.984 13.776L113.081 12.243C114.257 11.13 115.727 10.605 117.344 10.605C119.591 10.605 121.565 11.55 121.565 14.28V21ZM119.36 18.69V17.157C118.856 16.464 117.911 16.107 116.945 16.107C115.706 16.107 114.782 16.821 114.782 17.934C114.782 19.026 115.706 19.74 116.945 19.74C117.911 19.74 118.856 19.383 119.36 18.69ZM126.314 21H124.109V6.993H126.314V21ZM146.601 21H143.913L142.884 18.312H136.248L135.219 21H132.531L138.033 6.993H141.099L146.601 21ZM142.191 16.149L139.566 9.072L136.941 16.149H142.191ZM157.097 21H154.892V19.614C154.115 20.622 152.939 21.252 151.637 21.252C149.033 21.252 147.122 19.278 147.122 15.939C147.122 12.663 149.012 10.605 151.637 10.605C152.897 10.605 154.073 11.193 154.892 12.264V6.993H157.097V21ZM154.892 17.955V13.923C154.388 13.167 153.317 12.558 152.267 12.558C150.524 12.558 149.411 13.965 149.411 15.939C149.411 17.892 150.524 19.299 152.267 19.299C153.317 19.299 154.388 18.711 154.892 17.955ZM164.68 21H162.307L158.17 10.857H160.522L163.483 18.459L166.444 10.857H168.817L164.68 21ZM170.978 9.177C170.243 9.177 169.613 8.568 169.613 7.812C169.613 7.056 170.243 6.447 170.978 6.447C171.734 6.447 172.343 7.056 172.343 7.812C172.343 8.568 171.734 9.177 170.978 9.177ZM172.091 21H169.886V10.857H172.091V21ZM174.007 15.918C174.007 12.852 176.17 10.605 179.257 10.605C181.231 10.605 182.428 11.445 183.142 12.411L181.693 13.755C181.126 12.957 180.349 12.558 179.362 12.558C177.514 12.558 176.296 13.944 176.296 15.918C176.296 17.892 177.514 19.299 179.362 19.299C180.349 19.299 181.126 18.879 181.693 18.102L183.142 19.446C182.428 20.412 181.231 21.252 179.257 21.252C176.17 21.252 174.007 19.005 174.007 15.918ZM184.13 15.918C184.13 12.978 186.272 10.605 189.275 10.605C192.32 10.605 194.273 12.936 194.273 16.128V16.653H186.44C186.608 18.186 187.763 19.446 189.674 19.446C190.661 19.446 191.837 19.047 192.551 18.333L193.559 19.782C192.551 20.748 191.06 21.252 189.443 21.252C186.398 21.252 184.13 19.131 184.13 15.918ZM189.275 12.411C187.385 12.411 186.524 13.86 186.419 15.099H192.131C192.089 13.902 191.27 12.411 189.275 12.411Z"/><path fill="#FEFEFF" d="M35.948 21V21.2H36.148V21H35.948ZM33.491 21H33.291V21.2H33.491V21ZM33.491 6.993V6.793H33.291V6.993H33.491ZM43.088 6.993H43.288V6.793H43.088V6.993ZM43.088 9.156V9.356H43.288V9.156H43.088ZM35.948 9.156V8.956H35.748V9.156H35.948ZM35.948 12.789H35.748V12.989H35.948V12.789ZM42.941 12.789H43.141V12.589H42.941V12.789ZM42.941 14.952V15.152H43.141V14.952H42.941ZM35.948 14.952V14.752H35.748V14.952H35.948ZM35.948 21V20.8H33.491V21V21.2H35.948V21ZM33.491 21H33.691V6.993H33.491H33.291V21H33.491ZM33.491 6.993V7.193H43.088V6.993V6.793H33.491V6.993ZM43.088 6.993H42.888V9.156H43.088H43.288V6.993H43.088ZM43.088 9.156V8.956H35.948V9.156V9.356H43.088V9.156ZM35.948 9.156H35.748V12.789H35.948H36.148V9.156H35.948ZM35.948 12.789V12.989H42.941V12.789V12.589H35.948V12.789ZM42.941 12.789H42.741V14.952H42.941H43.141V12.789H42.941ZM42.941 14.952V14.752H35.948V14.952V15.152H42.941V14.952ZM35.948 14.952H35.748V21H35.948H36.148V14.952H35.948ZM47.11 21V21.2H47.31V21H47.11ZM44.905 21H44.705V21.2H44.905V21ZM44.905 10.857V10.657H44.705V10.857H44.905ZM47.11 10.857H47.31V10.657H47.11V10.857ZM47.11 12.348H46.91V12.9281L47.2675 12.4713L47.11 12.348ZM50.407 10.626H50.607V10.426H50.407V10.626ZM50.407 12.81L50.3636 13.0052L50.607 13.0593V12.81H50.407ZM47.11 14.091L46.9398 13.9859L46.91 14.0342V14.091H47.11ZM47.11 21V20.8H44.905V21V21.2H47.11V21ZM44.905 21H45.105V10.857H44.905H44.705V21H44.905ZM44.905 10.857V11.057H47.11V10.857V10.657H44.905V10.857ZM47.11 10.857H46.91V12.348H47.11H47.31V10.857H47.11ZM47.11 12.348L47.2675 12.4713C47.9949 11.5418 49.1592 10.826 50.407 10.826V10.626V10.426C49.0088 10.426 47.7371 11.2222 46.9525 12.2247L47.11 12.348ZM50.407 10.626H50.207V12.81H50.407H50.607V10.626H50.407ZM50.407 12.81L50.4504 12.6148C50.2427 12.5686 49.9961 12.547 49.714 12.547V12.747V12.947C49.9778 12.947 50.1933 12.9674 50.3636 13.0052L50.407 12.81ZM49.714 12.747V12.547C49.2117 12.547 48.6394 12.7166 48.1395 12.9733C47.6414 13.2292 47.1866 13.5863 46.9398 13.9859L47.11 14.091L47.2802 14.1961C47.4744 13.8817 47.8596 13.5668 48.3223 13.3292C48.7831 13.0924 49.2923 12.947 49.714 12.947V12.747ZM47.11 14.091H46.91V21H47.11H47.31V14.091H47.11ZM61.3833 16.653V16.853H61.5833V16.653H61.3833ZM53.5503 16.653V16.453H53.3272L53.3515 16.6748L53.5503 16.653ZM59.6613 18.333L59.8254 18.2188L59.6889 18.0225L59.5198 18.1916L59.6613 18.333ZM60.6693 19.782L60.8076 19.9264L60.9311 19.8081L60.8334 19.6678L60.6693 19.782ZM53.5293 15.099L53.33 15.0821L53.3116 15.299H53.5293V15.099ZM59.2413 15.099V15.299H59.4484L59.4411 15.092L59.2413 15.099ZM51.2403 15.918H51.4403C51.4403 13.0783 53.5026 10.805 56.3853 10.805V10.605V10.405C53.2619 10.405 51.0403 12.8777 51.0403 15.918H51.2403ZM56.3853 10.605V10.805C57.8533 10.805 59.0473 11.3652 59.8764 12.302C60.7075 13.2412 61.1833 14.5721 61.1833 16.128H61.3833H61.5833C61.5833 14.4919 61.0825 13.0613 60.1759 12.037C59.2673 11.0103 57.9623 10.405 56.3853 10.405V10.605ZM61.3833 16.128H61.1833V16.653H61.3833H61.5833V16.128H61.3833ZM61.3833 16.653V16.453H53.5503V16.653V16.853H61.3833V16.653ZM53.5503 16.653L53.3515 16.6748C53.53 18.3039 54.766 19.646 56.7843 19.646V19.446V19.246C54.9805 19.246 53.9065 18.0681 53.7491 16.6312L53.5503 16.653ZM56.7843 19.446V19.646C57.8136 19.646 59.0442 19.2329 59.8027 18.4744L59.6613 18.333L59.5198 18.1916C58.8503 18.8611 57.7289 19.246 56.7843 19.246V19.446ZM59.6613 18.333L59.4971 18.4472L60.5051 19.8962L60.6693 19.782L60.8334 19.6678L59.8254 18.2188L59.6613 18.333ZM60.6693 19.782L60.5309 19.6376C59.5687 20.5597 58.1319 21.052 56.5533 21.052V21.252V21.452C58.2086 21.452 59.7539 20.9363 60.8076 19.9264L60.6693 19.782ZM56.5533 21.252V21.052C55.078 21.052 53.8018 20.5388 52.8951 19.6473C51.9891 18.7563 51.4403 17.4757 51.4403 15.918H51.2403H51.0403C51.0403 17.5733 51.6255 18.9597 52.6147 19.9325C53.6033 20.9047 54.9836 21.452 56.5533 21.452V21.252ZM56.3853 12.411V12.211C55.3835 12.211 54.6417 12.5974 54.1391 13.1567C53.6409 13.7113 53.3855 14.4265 53.33 15.0821L53.5293 15.099L53.7286 15.1159C53.778 14.5325 54.0057 13.9037 54.4367 13.424C54.8633 12.9491 55.497 12.611 56.3853 12.611V12.411ZM53.5293 15.099V15.299H59.2413V15.099V14.899H53.5293V15.099ZM59.2413 15.099L59.4411 15.092C59.4188 14.4544 59.1901 13.7361 58.6958 13.1741C58.197 12.6068 57.4379 12.211 56.3853 12.211V12.411V12.611C57.3276 12.611 57.9756 12.9607 58.3955 13.4382C58.8199 13.9209 59.0218 14.5466 59.0414 15.106L59.2413 15.099ZM72.7577 16.653V16.853H72.9577V16.653H72.7577ZM64.9247 16.653V16.453H64.7016L64.7259 16.6748L64.9247 16.653ZM71.0357 18.333L71.1999 18.2188L71.0634 18.0225L70.8943 18.1916L71.0357 18.333ZM72.0437 19.782L72.1821 19.9264L72.3055 19.8081L72.2079 19.6678L72.0437 19.782ZM64.9037 15.099L64.7044 15.0821L64.6861 15.299H64.9037V15.099ZM70.6157 15.099V15.299H70.8229L70.8156 15.092L70.6157 15.099ZM62.6147 15.918H62.8147C62.8147 13.0783 64.8771 10.805 67.7597 10.805V10.605V10.405C64.6363 10.405 62.4147 12.8777 62.4147 15.918H62.6147ZM67.7597 10.605V10.805C69.2277 10.805 70.4217 11.3652 71.2508 12.302C72.082 13.2412 72.5577 14.5721 72.5577 16.128H72.7577H72.9577C72.9577 14.4919 72.457 13.0613 71.5504 12.037C70.6417 11.0103 69.3367 10.405 67.7597 10.405V10.605ZM72.7577 16.128H72.5577V16.653H72.7577H72.9577V16.128H72.7577ZM72.7577 16.653V16.453H64.9247V16.653V16.853H72.7577V16.653ZM64.9247 16.653L64.7259 16.6748C64.9044 18.3039 66.1404 19.646 68.1587 19.646V19.446V19.246C66.355 19.246 65.281 18.0681 65.1235 16.6312L64.9247 16.653ZM68.1587 19.446V19.646C69.188 19.646 70.4187 19.2329 71.1771 18.4744L71.0357 18.333L70.8943 18.1916C70.2248 18.8611 69.1034 19.246 68.1587 19.246V19.446ZM71.0357 18.333L70.8715 18.4472L71.8795 19.8962L72.0437 19.782L72.2079 19.6678L71.1999 18.2188L71.0357 18.333ZM72.0437 19.782L71.9053 19.6376C70.9431 20.5597 69.5063 21.052 67.9277 21.052V21.252V21.452C69.5831 21.452 71.1283 20.9363 72.1821 19.9264L72.0437 19.782ZM67.9277 21.252V21.052C66.4524 21.052 65.1762 20.5388 64.2696 19.6473C63.3635 18.7563 62.8147 17.4757 62.8147 15.918H62.6147H62.4147C62.4147 17.5733 62.9999 18.9597 63.9891 19.9325C64.9777 20.9047 66.358 21.452 67.9277 21.452V21.252ZM67.7597 12.411V12.211C66.758 12.211 66.0161 12.5974 65.5136 13.1567C65.0153 13.7113 64.76 14.4265 64.7044 15.0821L64.9037 15.099L65.103 15.1159C65.1524 14.5325 65.3801 13.9037 65.8111 13.424C66.2378 12.9491 66.8715 12.611 67.7597 12.611V12.411ZM64.9037 15.099V15.299H70.6157V15.099V14.899H64.9037V15.099ZM70.6157 15.099L70.8156 15.092C70.7932 14.4544 70.5645 13.7361 70.0703 13.1741C69.5714 12.6068 68.8124 12.211 67.7597 12.211V12.411V12.611C68.7021 12.611 69.35 12.9607 69.7699 13.4382C70.1944 13.9209 70.3962 14.5466 70.4158 15.106L70.6157 15.099ZM88.3917 21V21.2H88.5917V21H88.3917ZM79.7607 21H79.5607V21.2H79.7607V21ZM79.7607 6.993V6.793H79.5607V6.993H79.7607ZM82.2177 6.993H82.4177V6.793H82.2177V6.993ZM82.2177 18.837H82.0177V19.037H82.2177V18.837ZM88.3917 18.837H88.5917V18.637H88.3917V18.837ZM88.3917 21V20.8H79.7607V21V21.2H88.3917V21ZM79.7607 21H79.9607V6.993H79.7607H79.5607V21H79.7607ZM79.7607 6.993V7.193H82.2177V6.993V6.793H79.7607V6.993ZM82.2177 6.993H82.0177V18.837H82.2177H82.4177V6.993H82.2177ZM82.2177 18.837V19.037H88.3917V18.837V18.637H82.2177V18.837ZM88.3917 18.837H88.1917V21H88.3917H88.5917V18.837H88.3917ZM99.4367 16.653V16.853H99.6367V16.653H99.4367ZM91.6037 16.653V16.453H91.3806L91.4049 16.6748L91.6037 16.653ZM97.7147 18.333L97.8789 18.2188L97.7424 18.0225L97.5733 18.1916L97.7147 18.333ZM98.7227 19.782L98.8611 19.9264L98.9845 19.8081L98.8869 19.6678L98.7227 19.782ZM91.5827 15.099L91.3835 15.0821L91.3651 15.299H91.5827V15.099ZM97.2947 15.099V15.299H97.5019L97.4946 15.092L97.2947 15.099ZM89.2937 15.918H89.4937C89.4937 13.0783 91.5561 10.805 94.4387 10.805V10.605V10.405C91.3154 10.405 89.0937 12.8777 89.0937 15.918H89.2937ZM94.4387 10.605V10.805C95.9067 10.805 97.1007 11.3652 97.9298 12.302C98.761 13.2412 99.2367 14.5721 99.2367 16.128H99.4367H99.6367C99.6367 14.4919 99.136 13.0613 98.2294 12.037C97.3207 11.0103 96.0157 10.405 94.4387 10.405V10.605ZM99.4367 16.128H99.2367V16.653H99.4367H99.6367V16.128H99.4367ZM99.4367 16.653V16.453H91.6037V16.653V16.853H99.4367V16.653ZM91.6037 16.653L91.4049 16.6748C91.5835 18.3039 92.8195 19.646 94.8377 19.646V19.446V19.246C93.034 19.246 91.96 18.0681 91.8026 16.6312L91.6037 16.653ZM94.8377 19.446V19.646C95.8671 19.646 97.0977 19.2329 97.8562 18.4744L97.7147 18.333L97.5733 18.1916C96.9038 18.8611 95.7824 19.246 94.8377 19.246V19.446ZM97.7147 18.333L97.5506 18.4472L98.5586 19.8962L98.7227 19.782L98.8869 19.6678L97.8789 18.2188L97.7147 18.333ZM98.7227 19.782L98.5844 19.6376C97.6221 20.5597 96.1854 21.052 94.6067 21.052V21.252V21.452C96.2621 21.452 97.8074 20.9363 98.8611 19.9264L98.7227 19.782ZM94.6067 21.252V21.052C93.1315 21.052 91.8552 20.5388 90.9486 19.6473C90.0425 18.7563 89.4937 17.4757 89.4937 15.918H89.2937H89.0937C89.0937 17.5733 89.6789 18.9597 90.6681 19.9325C91.6568 20.9047 93.037 21.452 94.6067 21.452V21.252ZM94.4387 12.411V12.211C93.437 12.211 92.6952 12.5974 92.1926 13.1567C91.6943 13.7113 91.439 14.4265 91.3835 15.0821L91.5827 15.099L91.782 15.1159C91.8315 14.5325 92.0591 13.9037 92.4901 13.424C92.9168 12.9491 93.5505 12.611 94.4387 12.611V12.411ZM91.5827 15.099V15.299H97.2947V15.099V14.899H91.5827V15.099ZM97.2947 15.099L97.4946 15.092C97.4723 14.4544 97.2436 13.7361 96.7493 13.1741C96.2504 12.6068 95.4914 12.211 94.4387 12.211V12.411V12.611C95.3811 12.611 96.0291 12.9607 96.4489 13.4382C96.8734 13.9209 97.0752 14.5466 97.0949 15.106L97.2947 15.099ZM101.172 23.604L101.004 23.4956L100.913 23.6375L101.037 23.7515L101.172 23.604ZM102.201 22.008L102.352 21.877L102.178 21.6754L102.033 21.8996L102.201 22.008ZM108.417 19.341H108.617V18.7539L108.259 19.2189L108.417 19.341ZM108.417 12.264L108.258 12.3855L108.617 12.8548V12.264H108.417ZM108.417 10.857V10.657H108.217V10.857H108.417ZM110.622 10.857H110.822V10.657H110.622V10.857ZM108.417 17.703L108.586 17.8107L108.617 17.7614V17.703H108.417ZM108.417 13.923H108.617V13.8646L108.586 13.8153L108.417 13.923ZM101.172 23.604L101.34 23.7124L102.369 22.1164L102.201 22.008L102.033 21.8996L101.004 23.4956L101.172 23.604ZM102.201 22.008L102.05 22.139C102.917 23.1397 104.03 23.51 105.414 23.51V23.31V23.11C104.11 23.11 103.123 22.7663 102.352 21.877L102.201 22.008ZM105.414 23.31V23.51C106.165 23.51 106.964 23.3365 107.579 22.874C108.204 22.4047 108.617 21.655 108.617 20.559H108.417H108.217C108.217 21.542 107.853 22.1678 107.339 22.5542C106.815 22.9475 106.112 23.11 105.414 23.11V23.31ZM108.417 20.559H108.617V19.341H108.417H108.217V20.559H108.417ZM108.417 19.341L108.259 19.2189C107.513 20.1858 106.414 20.821 105.162 20.821V21.021V21.221C106.557 21.221 107.767 20.5122 108.576 19.4631L108.417 19.341ZM105.162 21.021V20.821C103.921 20.821 102.854 20.3733 102.095 19.5349C101.335 18.695 100.868 17.4448 100.868 15.813H100.668H100.468C100.468 17.5202 100.957 18.874 101.798 19.8033C102.641 20.7342 103.82 21.221 105.162 21.221V21.021ZM100.668 15.813H100.868C100.868 14.213 101.329 12.9621 102.088 12.1138C102.845 11.2673 103.912 10.805 105.162 10.805V10.605V10.405C103.808 10.405 102.629 10.9087 101.79 11.8472C100.952 12.7839 100.468 14.137 100.468 15.813H100.668ZM105.162 10.605V10.805C106.377 10.805 107.475 11.361 108.258 12.3855L108.417 12.264L108.576 12.1425C107.721 11.025 106.509 10.405 105.162 10.405V10.605ZM108.417 12.264H108.617V10.857H108.417H108.217V12.264H108.417ZM108.417 10.857V11.057H110.622V10.857V10.657H108.417V10.857ZM110.622 10.857H110.422V20.475H110.622H110.822V10.857H110.622ZM110.622 20.475H110.422C110.422 22.2453 109.77 23.3412 108.839 24.0027C107.897 24.6725 106.643 24.916 105.414 24.916V25.116V25.316C106.685 25.316 108.034 25.066 109.071 24.3288C110.12 23.5833 110.822 22.3587 110.822 20.475H110.622ZM105.414 25.116V24.916C103.73 24.916 102.501 24.5492 101.307 23.4565L101.172 23.604L101.037 23.7515C102.321 24.9268 103.655 25.316 105.414 25.316V25.116ZM108.417 17.703H108.617V13.923H108.417H108.217V17.703H108.417ZM108.417 13.923L108.586 13.8153C108.064 12.9991 106.907 12.358 105.813 12.358V12.558V12.758C106.777 12.758 107.804 13.3349 108.249 14.0307L108.417 13.923ZM105.813 12.558V12.358C104.888 12.358 104.118 12.7052 103.581 13.3218C103.046 13.9356 102.757 14.7996 102.757 15.813H102.957H103.157C103.157 14.8734 103.425 14.1099 103.882 13.5845C104.338 13.0618 104.995 12.758 105.813 12.758V12.558ZM102.957 15.813H102.757C102.757 16.8264 103.046 17.6904 103.581 18.3042C104.118 18.9208 104.888 19.268 105.813 19.268V19.068V18.868C104.995 18.868 104.338 18.5642 103.882 18.0415C103.425 17.5161 103.157 16.7526 103.157 15.813H102.957ZM105.813 19.068V19.268C106.907 19.268 108.064 18.6269 108.586 17.8107L108.417 17.703L108.249 17.5953C107.804 18.2911 106.777 18.868 105.813 18.868V19.068ZM121.565 21V21.2H121.765V21H121.565ZM119.36 21H119.16V21.2H119.36V21ZM119.36 19.908H119.56V19.3771L119.21 19.776L119.36 19.908ZM119.36 15.897L119.208 16.0269L119.56 16.4393V15.897H119.36ZM113.984 13.776L113.812 13.8775L113.941 14.0973L114.124 13.9191L113.984 13.776ZM113.081 12.243L112.943 12.0977L112.828 12.2072L112.909 12.3445L113.081 12.243ZM119.36 18.69L119.522 18.8076L119.56 18.755V18.69H119.36ZM119.36 17.157H119.56V17.092L119.522 17.0394L119.36 17.157ZM121.565 21V20.8H119.36V21V21.2H121.565V21ZM119.36 21H119.56V19.908H119.36H119.16V21H119.36ZM119.36 19.908L119.21 19.776C118.498 20.5863 117.381 21.052 116.084 21.052V21.252V21.452C117.475 21.452 118.71 20.9517 119.51 20.04L119.36 19.908ZM116.084 21.252V21.052C114.499 21.052 112.756 19.995 112.756 17.892H112.556H112.356C112.356 20.283 114.351 21.452 116.084 21.452V21.252ZM112.556 17.892H112.756C112.756 16.7868 113.196 16.0207 113.822 15.5263C114.454 15.0268 115.29 14.795 116.084 14.795V14.595V14.395C115.219 14.395 114.291 14.6462 113.574 15.2124C112.85 15.7838 112.356 16.6662 112.356 17.892H112.556ZM116.084 14.595V14.795C117.409 14.795 118.521 15.2227 119.208 16.0269L119.36 15.897L119.512 15.7671C118.728 14.8493 117.489 14.395 116.084 14.395V14.595ZM119.36 15.897H119.56V14.385H119.36H119.16V15.897H119.36ZM119.36 14.385H119.56C119.56 13.7363 119.291 13.2052 118.824 12.8413C118.362 12.4813 117.722 12.295 116.987 12.295V12.495V12.695C117.659 12.695 118.205 12.8657 118.578 13.1567C118.946 13.4438 119.16 13.8577 119.16 14.385H119.36ZM116.987 12.495V12.295C115.796 12.295 114.76 12.7388 113.844 13.6329L113.984 13.776L114.124 13.9191C114.972 13.0912 115.91 12.695 116.987 12.695V12.495ZM113.984 13.776L114.156 13.6745L113.253 12.1415L113.081 12.243L112.909 12.3445L113.812 13.8775L113.984 13.776ZM113.081 12.243L113.218 12.3883C114.353 11.3139 115.773 10.805 117.344 10.805V10.605V10.405C115.681 10.405 114.16 10.9461 112.943 12.0977L113.081 12.243ZM117.344 10.605V10.805C118.444 10.805 119.451 11.0371 120.177 11.5791C120.894 12.1138 121.365 12.9693 121.365 14.28H121.565H121.765C121.765 12.8607 121.248 11.8787 120.417 11.2584C119.595 10.6454 118.491 10.405 117.344 10.405V10.605ZM121.565 14.28H121.365V21H121.565H121.765V14.28H121.565ZM119.36 18.69H119.56V17.157H119.36H119.16V18.69H119.36ZM119.36 17.157L119.522 17.0394C118.968 16.2779 117.951 15.907 116.945 15.907V16.107V16.307C117.871 16.307 118.744 16.6501 119.198 17.2746L119.36 17.157ZM116.945 16.107V15.907C116.288 15.907 115.7 16.0962 115.272 16.4487C114.84 16.804 114.582 17.3172 114.582 17.934H114.782H114.982C114.982 17.4378 115.186 17.0375 115.526 16.7575C115.869 16.4748 116.362 16.307 116.945 16.307V16.107ZM114.782 17.934H114.582C114.582 18.5415 114.841 19.0494 115.272 19.4014C115.7 19.7509 116.288 19.94 116.945 19.94V19.74V19.54C116.362 19.54 115.869 19.3721 115.525 19.0916C115.185 18.8136 114.982 18.4185 114.982 17.934H114.782ZM116.945 19.74V19.94C117.951 19.94 118.968 19.5691 119.522 18.8076L119.36 18.69L119.198 18.5724C118.744 19.1969 117.871 19.54 116.945 19.54V19.74ZM126.314 21V21.2H126.514V21H126.314ZM124.109 21H123.909V21.2H124.109V21ZM124.109 6.993V6.793H123.909V6.993H124.109ZM126.314 6.993H126.514V6.793H126.314V6.993ZM126.314 21V20.8H124.109V21V21.2H126.314V21ZM124.109 21H124.309V6.993H124.109H123.909V21H124.109ZM124.109 6.993V7.193H126.314V6.993V6.793H124.109V6.993ZM126.314 6.993H126.114V21H126.314H126.514V6.993H126.314ZM146.601 21V21.2H146.894L146.787 20.9269L146.601 21ZM143.913 21L143.726 21.0715L143.775 21.2H143.913V21ZM142.884 18.312L143.07 18.2405L143.021 18.112H142.884V18.312ZM136.248 18.312V18.112H136.11L136.061 18.2405L136.248 18.312ZM135.219 21V21.2H135.356L135.405 21.0715L135.219 21ZM132.531 21L132.344 20.9269L132.237 21.2H132.531V21ZM138.033 6.993V6.793H137.896L137.846 6.91988L138.033 6.993ZM141.099 6.993L141.285 6.91988L141.235 6.793H141.099V6.993ZM142.191 16.149V16.349H142.478L142.378 16.0794L142.191 16.149ZM139.566 9.072L139.753 9.00245L139.566 8.4969L139.378 9.00245L139.566 9.072ZM136.941 16.149L136.753 16.0794L136.653 16.349H136.941V16.149ZM146.601 21V20.8H143.913V21V21.2H146.601V21ZM143.913 21L144.099 20.9285L143.07 18.2405L142.884 18.312L142.697 18.3835L143.726 21.0715L143.913 21ZM142.884 18.312V18.112H136.248V18.312V18.512H142.884V18.312ZM136.248 18.312L136.061 18.2405L135.032 20.9285L135.219 21L135.405 21.0715L136.434 18.3835L136.248 18.312ZM135.219 21V20.8H132.531V21V21.2H135.219V21ZM132.531 21L132.717 21.0731L138.219 7.06612L138.033 6.993L137.846 6.91988L132.344 20.9269L132.531 21ZM138.033 6.993V7.193H141.099V6.993V6.793H138.033V6.993ZM141.099 6.993L140.912 7.06612L146.414 21.0731L146.601 21L146.787 20.9269L141.285 6.91988L141.099 6.993ZM142.191 16.149L142.378 16.0794L139.753 9.00245L139.566 9.072L139.378 9.14155L142.003 16.2186L142.191 16.149ZM139.566 9.072L139.378 9.00245L136.753 16.0794L136.941 16.149L137.128 16.2186L139.753 9.14155L139.566 9.072ZM136.941 16.149V16.349H142.191V16.149V15.949H136.941V16.149ZM157.097 21V21.2H157.297V21H157.097ZM154.892 21H154.692V21.2H154.892V21ZM154.892 19.614H155.092V19.0269L154.734 19.4919L154.892 19.614ZM154.892 12.264L154.734 12.3855L155.092 12.8548V12.264H154.892ZM154.892 6.993V6.793H154.692V6.993H154.892ZM157.097 6.993H157.297V6.793H157.097V6.993ZM154.892 17.955L155.059 18.0659L155.092 18.0156V17.955H154.892ZM154.892 13.923H155.092V13.8624L155.059 13.8121L154.892 13.923ZM157.097 21V20.8H154.892V21V21.2H157.097V21ZM154.892 21H155.092V19.614H154.892H154.692V21H154.892ZM154.892 19.614L154.734 19.4919C153.992 20.4546 152.873 21.052 151.637 21.052V21.252V21.452C153.006 21.452 154.239 20.7894 155.051 19.7361L154.892 19.614ZM151.637 21.252V21.052C150.389 21.052 149.316 20.5802 148.553 19.7153C147.789 18.8486 147.322 17.571 147.322 15.939H147.122H146.922C146.922 17.646 147.411 19.0249 148.253 19.9799C149.097 20.9368 150.282 21.452 151.637 21.452V21.252ZM147.122 15.939H147.322C147.322 14.3387 147.784 13.055 148.547 12.1745C149.308 11.2961 150.381 10.805 151.637 10.805V10.605V10.405C150.269 10.405 149.085 10.9429 148.244 11.9125C147.406 12.88 146.922 14.2633 146.922 15.939H147.122ZM151.637 10.605V10.805C152.832 10.805 153.951 11.3615 154.734 12.3855L154.892 12.264L155.051 12.1425C154.196 11.0245 152.963 10.405 151.637 10.405V10.605ZM154.892 12.264H155.092V6.993H154.892H154.692V12.264H154.892ZM154.892 6.993V7.193H157.097V6.993V6.793H154.892V6.993ZM157.097 6.993H156.897V21H157.097H157.297V6.993H157.097ZM154.892 17.955H155.092V13.923H154.892H154.692V17.955H154.892ZM154.892 13.923L155.059 13.8121C154.518 13.0002 153.384 12.358 152.267 12.358V12.558V12.758C153.251 12.758 154.259 13.3338 154.726 14.0339L154.892 13.923ZM152.267 12.558V12.358C151.337 12.358 150.567 12.7355 150.032 13.3806C149.5 14.0223 149.211 14.9158 149.211 15.939H149.411H149.611C149.611 14.9882 149.88 14.1912 150.34 13.6359C150.797 13.084 151.455 12.758 152.267 12.758V12.558ZM149.411 15.939H149.211C149.211 16.9521 149.5 17.8404 150.032 18.4793C150.567 19.1216 151.338 19.499 152.267 19.499V19.299V19.099C151.454 19.099 150.797 18.7729 150.34 18.2234C149.879 17.6706 149.611 16.8789 149.611 15.939H149.411ZM152.267 19.299V19.499C153.381 19.499 154.516 18.88 155.059 18.0659L154.892 17.955L154.726 17.8441C154.261 18.542 153.254 19.099 152.267 19.099V19.299ZM164.68 21V21.2H164.814L164.865 21.0755L164.68 21ZM162.307 21L162.121 21.0755L162.172 21.2H162.307V21ZM158.17 10.857V10.657H157.872L157.984 10.9325L158.17 10.857ZM160.522 10.857L160.708 10.7844L160.658 10.657H160.522V10.857ZM163.483 18.459L163.296 18.5316L163.483 19.01L163.669 18.5316L163.483 18.459ZM166.444 10.857V10.657H166.307L166.257 10.7844L166.444 10.857ZM168.817 10.857L169.002 10.9325L169.114 10.657H168.817V10.857ZM164.68 21V20.8H162.307V21V21.2H164.68V21ZM162.307 21L162.492 20.9245L158.355 10.7815L158.17 10.857L157.984 10.9325L162.121 21.0755L162.307 21ZM158.17 10.857V11.057H160.522V10.857V10.657H158.17V10.857ZM160.522 10.857L160.335 10.9296L163.296 18.5316L163.483 18.459L163.669 18.3864L160.708 10.7844L160.522 10.857ZM163.483 18.459L163.669 18.5316L166.63 10.9296L166.444 10.857L166.257 10.7844L163.296 18.3864L163.483 18.459ZM166.444 10.857V11.057H168.817V10.857V10.657H166.444V10.857ZM168.817 10.857L168.631 10.7815L164.494 20.9245L164.68 21L164.865 21.0755L169.002 10.9325L168.817 10.857ZM172.091 21V21.2H172.291V21H172.091ZM169.886 21H169.686V21.2H169.886V21ZM169.886 10.857V10.657H169.686V10.857H169.886ZM172.091 10.857H172.291V10.657H172.091V10.857ZM170.978 9.177V8.977C170.352 8.977 169.813 8.45555 169.813 7.812H169.613H169.413C169.413 8.68045 170.135 9.377 170.978 9.377V9.177ZM169.613 7.812H169.813C169.813 7.16845 170.352 6.647 170.978 6.647V6.447V6.247C170.135 6.247 169.413 6.94355 169.413 7.812H169.613ZM170.978 6.447V6.647C171.624 6.647 172.143 7.16646 172.143 7.812H172.343H172.543C172.543 6.94554 171.845 6.247 170.978 6.247V6.447ZM172.343 7.812H172.143C172.143 8.45754 171.624 8.977 170.978 8.977V9.177V9.377C171.845 9.377 172.543 8.67846 172.543 7.812H172.343ZM172.091 21V20.8H169.886V21V21.2H172.091V21ZM169.886 21H170.086V10.857H169.886H169.686V21H169.886ZM169.886 10.857V11.057H172.091V10.857V10.657H169.886V10.857ZM172.091 10.857H171.891V21H172.091H172.291V10.857H172.091ZM183.142 12.411L183.278 12.5576L183.409 12.436L183.302 12.2921L183.142 12.411ZM181.693 13.755L181.53 13.8708L181.662 14.0566L181.829 13.9016L181.693 13.755ZM181.693 18.102L181.829 17.9554L181.664 17.8024L181.531 17.9841L181.693 18.102ZM183.142 19.446L183.302 19.5649L183.409 19.421L183.278 19.2994L183.142 19.446ZM174.007 15.918H174.207C174.207 12.9587 176.284 10.805 179.257 10.805V10.605V10.405C176.055 10.405 173.807 12.7453 173.807 15.918H174.007ZM179.257 10.605V10.805C181.163 10.805 182.302 11.6118 182.981 12.5299L183.142 12.411L183.302 12.2921C182.553 11.2782 181.298 10.405 179.257 10.405V10.605ZM183.142 12.411L183.006 12.2644L181.557 13.6084L181.693 13.755L181.829 13.9016L183.278 12.5576L183.142 12.411ZM181.693 13.755L181.856 13.6392C181.251 12.7878 180.413 12.358 179.362 12.358V12.558V12.758C180.284 12.758 181 13.1262 181.53 13.8708L181.693 13.755ZM179.362 12.558V12.358C178.385 12.358 177.563 12.7258 176.987 13.3637C176.413 13.9998 176.096 14.8903 176.096 15.918H176.296H176.496C176.496 14.9717 176.787 14.1822 177.284 13.6318C177.779 13.0832 178.491 12.758 179.362 12.758V12.558ZM176.296 15.918H176.096C176.096 16.9457 176.413 17.841 176.987 18.4821C177.562 19.1252 178.384 19.499 179.362 19.499V19.299V19.099C178.492 19.099 177.78 18.7693 177.285 18.2154C176.787 17.6595 176.496 16.8643 176.496 15.918H176.296ZM179.362 19.299V19.499C180.415 19.499 181.251 19.0462 181.854 18.2199L181.693 18.102L181.531 17.9841C181 18.7118 180.282 19.099 179.362 19.099V19.299ZM181.693 18.102L181.557 18.2486L183.006 19.5926L183.142 19.446L183.278 19.2994L181.829 17.9554L181.693 18.102ZM183.142 19.446L182.981 19.3271C182.302 20.2452 181.163 21.052 179.257 21.052V21.252V21.452C181.298 21.452 182.553 20.5788 183.302 19.5649L183.142 19.446ZM179.257 21.252V21.052C176.284 21.052 174.207 18.8988 174.207 15.918H174.007H173.807C173.807 19.1112 176.055 21.452 179.257 21.452V21.252ZM194.273 16.653V16.853H194.473V16.653H194.273ZM186.44 16.653V16.453H186.217L186.241 16.6748L186.44 16.653ZM192.551 18.333L192.715 18.2188L192.579 18.0225L192.41 18.1916L192.551 18.333ZM193.559 19.782L193.697 19.9264L193.821 19.8081L193.723 19.6678L193.559 19.782ZM186.419 15.099L186.22 15.0821L186.201 15.299H186.419V15.099ZM192.131 15.099V15.299H192.338L192.331 15.092L192.131 15.099ZM184.13 15.918H184.33C184.33 13.0783 186.392 10.805 189.275 10.805V10.605V10.405C186.152 10.405 183.93 12.8777 183.93 15.918H184.13ZM189.275 10.605V10.805C190.743 10.805 191.937 11.3652 192.766 12.302C193.597 13.2412 194.073 14.5721 194.073 16.128H194.273H194.473C194.473 14.4919 193.972 13.0613 193.066 12.037C192.157 11.0103 190.852 10.405 189.275 10.405V10.605ZM194.273 16.128H194.073V16.653H194.273H194.473V16.128H194.273ZM194.273 16.653V16.453H186.44V16.653V16.853H194.273V16.653ZM186.44 16.653L186.241 16.6748C186.42 18.3039 187.656 19.646 189.674 19.646V19.446V19.246C187.87 19.246 186.796 18.0681 186.639 16.6312L186.44 16.653ZM189.674 19.446V19.646C190.703 19.646 191.934 19.2329 192.693 18.4744L192.551 18.333L192.41 18.1916C191.74 18.8611 190.619 19.246 189.674 19.246V19.446ZM192.551 18.333L192.387 18.4472L193.395 19.8962L193.559 19.782L193.723 19.6678L192.715 18.2188L192.551 18.333ZM193.559 19.782L193.421 19.6376C192.458 20.5597 191.022 21.052 189.443 21.052V21.252V21.452C191.098 21.452 192.644 20.9363 193.697 19.9264L193.559 19.782ZM189.443 21.252V21.052C187.968 21.052 186.692 20.5388 185.785 19.6473C184.879 18.7563 184.33 17.4757 184.33 15.918H184.13H183.93C183.93 17.5733 184.515 18.9597 185.504 19.9325C186.493 20.9047 187.873 21.452 189.443 21.452V21.252ZM189.275 12.411V12.211C188.273 12.211 187.531 12.5974 187.029 13.1567C186.531 13.7113 186.275 14.4265 186.22 15.0821L186.419 15.099L186.618 15.1159C186.668 14.5325 186.895 13.9037 187.326 13.424C187.753 12.9491 188.387 12.611 189.275 12.611V12.411ZM186.419 15.099V15.299H192.131V15.099V14.899H186.419V15.099ZM192.131 15.099L192.331 15.092C192.309 14.4544 192.08 13.7361 191.586 13.1741C191.087 12.6068 190.328 12.211 189.275 12.211V12.411V12.611C190.217 12.611 190.865 12.9607 191.285 13.4382C191.71 13.9209 191.912 14.5466 191.931 15.106L192.131 15.099Z" mask="url(#path-3-outside-1_228_1558)"/></svg>