<svg xmlns="http://www.w3.org/2000/svg" width="196" height="30" fill="none" viewBox="0 0 196 30"><ellipse cx="14.1733" cy="14.4409" fill="#FEFEFF" rx="12.6176" ry="12.383"/><path fill="black" d="M5.46616 21.17C5.46584 21.1801 5.46139 21.1878 5.43789 21.1978C5.41654 21.212 5.4101 21.2214 5.40367 21.2308C5.40367 21.2308 5.40342 21.2278 5.39694 21.231C5.38446 21.2434 5.37846 21.2527 5.37247 21.2619C5.37247 21.2619 5.37211 21.2591 5.36549 21.2624C5.3529 21.2754 5.34693 21.285 5.34095 21.2946C5.3168 21.3221 5.29264 21.3497 5.25159 21.3838C5.22839 21.4001 5.22208 21.4098 5.21577 21.4195C5.16082 21.478 5.10586 21.5366 5.03354 21.6021C5.0098 21.6184 5.00343 21.6277 4.99705 21.6371C4.99705 21.6371 4.99683 21.6342 4.99032 21.6374C4.97783 21.6498 4.97185 21.6591 4.96587 21.6683C4.96587 21.6683 4.96557 21.6656 4.95904 21.6687C4.94657 21.6811 4.94062 21.6904 4.93468 21.6997C4.93468 21.6997 4.93436 21.6969 4.92784 21.7C4.91534 21.7124 4.90937 21.7217 4.90339 21.731C4.90339 21.731 4.90308 21.7281 4.89656 21.7313C4.88406 21.7437 4.87808 21.7529 4.87211 21.7622C4.87211 21.7622 4.87176 21.7594 4.86513 21.7627C4.85254 21.7757 4.84658 21.7853 4.84062 21.7949C4.76495 21.8741 4.68929 21.9533 4.59595 22.04C4.57195 22.0571 4.56563 22.0669 4.5593 22.0767C4.5589 22.0868 4.55436 22.0946 4.53077 22.1046C4.5095 22.1187 4.50312 22.128 4.49674 22.1374C4.49674 22.1374 4.49647 22.1346 4.48981 22.1379C4.47721 22.1509 4.47127 22.1605 4.46532 22.1701C4.46474 22.1804 4.46006 22.1882 4.42954 22.1951C4.36919 22.2042 4.33057 22.2119 4.29195 22.2196C4.29195 22.2196 4.28885 22.2151 4.29154 22.203C4.274 22.1743 4.25376 22.1578 4.23352 22.1413C4.23352 22.1413 4.23783 22.139 4.2368 22.1322C4.22609 22.1189 4.21641 22.1122 4.20674 22.1056C4.20674 22.1056 4.21089 22.1048 4.20819 22.0983C4.19589 22.0854 4.18628 22.0789 4.17668 22.0724C4.16582 22.0714 4.158 22.0659 4.152 22.0371C4.12795 21.9947 4.10513 21.9712 4.08231 21.9477C4.07179 21.9467 4.06414 21.9415 4.05746 21.9143C4.03326 21.8722 4.01096 21.8478 3.98866 21.8234C3.98866 21.8234 3.99182 21.8231 3.99188 21.8137C3.95975 21.7689 3.92756 21.7334 3.89536 21.698C3.89536 21.698 3.89835 21.6978 3.89801 21.6885C3.88271 21.6703 3.86775 21.6614 3.85278 21.6526C3.85278 21.6526 3.85156 21.6485 3.85564 21.6368C3.84083 21.6078 3.82194 21.5904 3.80305 21.573C3.80305 21.573 3.80595 21.5717 3.80598 21.5614C3.78368 21.5275 3.76137 21.504 3.73905 21.4804C3.73905 21.4804 3.74218 21.4788 3.74203 21.4695C3.71937 21.4358 3.69686 21.4113 3.67435 21.3869C3.67435 21.3869 3.67785 21.3862 3.67806 21.377C3.66338 21.3583 3.64849 21.3489 3.63359 21.3395C3.63359 21.3395 3.63376 21.3359 3.63616 21.3254C3.62943 21.3079 3.6203 21.3008 3.61117 21.2938C3.61117 21.2938 3.61467 21.293 3.61532 21.2831C3.5803 21.233 3.54464 21.1928 3.50898 21.1526C3.50898 21.1526 3.50856 21.1486 3.51107 21.138C3.50464 21.1201 3.4957 21.1129 3.48675 21.1057C3.48675 21.1057 3.49005 21.1051 3.49058 21.0957C3.46941 21.061 3.44771 21.0356 3.42601 21.0102C3.42601 21.0102 3.42906 21.0099 3.42921 21.0006C3.40808 20.966 3.38681 20.9407 3.36554 20.9153C3.36554 20.9153 3.36815 20.915 3.36758 20.9051C3.33442 20.8502 3.30184 20.8053 3.26925 20.7603C3.26925 20.7603 3.27245 20.7599 3.27261 20.7502C3.24057 20.6948 3.20837 20.6491 3.17617 20.6035C3.17617 20.6035 3.17914 20.6032 3.17911 20.5942C3.16657 20.5711 3.15406 20.5569 3.14155 20.5428C3.14155 20.5428 3.14624 20.5418 3.14477 20.5358C3.13531 20.5222 3.12731 20.5147 3.11931 20.5072C3.11931 20.5072 3.11939 20.5073 3.1193 20.4961C3.10298 20.4667 3.08673 20.4486 3.07048 20.4306C3.07048 20.4306 3.07143 20.4277 3.07391 20.4178C3.06803 20.4001 3.05967 20.3923 3.0513 20.3846C3.0513 20.3846 3.05416 20.3844 3.05408 20.3754C3.04169 20.3521 3.0294 20.3378 3.01711 20.3235C3.01711 20.3235 3.02095 20.3228 3.02134 20.3127C2.9488 20.1732 2.87587 20.0439 2.80293 19.9145C2.80293 19.9145 2.80551 19.9142 2.80501 19.9054C2.79336 19.8817 2.7822 19.8668 2.77104 19.8519C2.77104 19.8519 2.77364 19.8519 2.77397 19.8408C2.70595 19.6981 2.6376 19.5664 2.56924 19.4348C2.56924 19.4348 2.56635 19.4281 2.57267 19.4138C2.54824 19.3426 2.51747 19.2855 2.48671 19.2285C2.48671 19.2285 2.48998 19.2278 2.49109 19.2168C2.46522 19.1574 2.43825 19.1089 2.41128 19.0605C2.41128 19.0605 2.40832 19.0529 2.41603 19.0377C2.34042 18.8202 2.25711 18.6177 2.17379 18.4153C2.17379 18.4153 2.17718 18.4147 2.17833 18.4029C2.17435 18.3451 2.17757 18.2962 2.16284 18.2535C1.9429 17.6151 1.78015 16.9627 1.70982 16.2909C1.64901 15.7099 1.58784 15.1278 1.5629 14.5447C1.54704 14.1738 1.59141 13.7996 1.61923 13.4277C1.64468 13.0875 1.65057 12.7407 1.72455 12.4101C1.87474 11.739 2.06563 11.077 2.23808 10.4107C2.25469 10.3465 2.25963 10.2793 2.26999 10.2135C2.26999 10.2135 2.27105 10.2169 2.27962 10.2124C2.38632 9.94912 2.48445 9.69036 2.58258 9.4316C2.58258 9.4316 2.58363 9.43509 2.59208 9.43069C2.64181 9.32299 2.6831 9.2197 2.7244 9.1164C2.7244 9.1164 2.72425 9.11119 2.73595 9.11076C2.74953 9.09147 2.7514 9.0726 2.75328 9.05374C2.75328 9.05374 2.75424 9.04802 2.7667 9.04761C2.78711 9.01938 2.79505 8.99157 2.80299 8.96376C2.80299 8.96376 2.80391 8.96686 2.81164 8.96228C2.82373 8.93836 2.8281 8.91901 2.83246 8.89966C2.83246 8.89966 2.83366 8.90331 2.84145 8.89926C2.8543 8.876 2.85936 8.85679 2.86441 8.83757C2.86441 8.83757 2.86552 8.84115 2.87319 8.83697C2.88596 8.8137 2.89108 8.79462 2.89619 8.77554C2.89619 8.77554 2.8971 8.77863 2.90635 8.77506C2.93062 8.73181 2.94565 8.69212 2.96067 8.65243C2.96067 8.65243 2.96149 8.65485 2.96893 8.65026C2.98186 8.62741 2.98734 8.60916 2.99282 8.5909C2.99282 8.5909 2.99391 8.59294 3.00308 8.58856C3.03565 8.53294 3.05904 8.48169 3.08243 8.43045C3.08243 8.43045 3.08367 8.43408 3.09143 8.43023C3.10475 8.40747 3.1103 8.38855 3.11584 8.36963C3.11584 8.36963 3.11672 8.37243 3.12354 8.36866C3.1315 8.35379 3.13264 8.3427 3.13378 8.33161C3.13378 8.33161 3.13493 8.32932 3.14641 8.33021C3.17457 8.29134 3.19125 8.25158 3.20793 8.21182C3.20793 8.21182 3.20914 8.21543 3.21672 8.21157C3.2303 8.18921 3.23629 8.17072 3.24228 8.15222C3.24228 8.15222 3.24355 8.15483 3.25358 8.15342C3.28769 8.09988 3.31177 8.04777 3.33585 7.99565C3.33585 7.99565 3.3368 7.99811 3.34554 7.9943C3.36844 7.96035 3.38261 7.93021 3.39677 7.90006C3.39677 7.90006 3.39781 7.90335 3.40531 7.89924C3.41893 7.87671 3.42507 7.8583 3.4312 7.83989C3.43026 7.83028 3.43294 7.82182 3.45527 7.8082C3.4784 7.78322 3.48551 7.76453 3.49262 7.74584C3.49262 7.74584 3.49359 7.74818 3.50031 7.74446C3.51158 7.73039 3.51613 7.72004 3.52068 7.70969C3.52068 7.70969 3.52144 7.7142 3.5281 7.71098C3.53534 7.69675 3.53592 7.68573 3.53649 7.67471C3.53649 7.67471 3.53867 7.67067 3.5508 7.6719C3.58119 7.63486 3.59944 7.5966 3.6177 7.55833C3.6177 7.55833 3.6188 7.56063 3.62548 7.55686C3.63672 7.54276 3.64127 7.53242 3.64583 7.52209C3.64583 7.52209 3.6465 7.52672 3.65506 7.52392C3.67862 7.49084 3.69363 7.46055 3.70864 7.43027C3.70864 7.43027 3.70962 7.43357 3.71842 7.43062C3.74249 7.39785 3.75777 7.36804 3.77305 7.33823C3.77305 7.33823 3.77435 7.3412 3.78432 7.33993C3.80833 7.30756 3.82236 7.27646 3.83639 7.24536C3.83639 7.24536 3.83746 7.24773 3.84413 7.24428C3.85603 7.23094 3.86127 7.22105 3.8665 7.21116C3.8665 7.21116 3.86712 7.21531 3.87422 7.2115C3.88787 7.18994 3.89442 7.17218 3.90098 7.15443C3.90098 7.15443 3.90123 7.15493 3.90816 7.15112C3.92019 7.13791 3.92529 7.12853 3.93038 7.11914C3.93038 7.11914 3.93081 7.12221 3.93747 7.11866C3.94874 7.10462 3.95335 7.09414 3.95796 7.08366C3.95796 7.08366 3.95884 7.08831 3.96571 7.08534C3.97541 7.07102 3.97824 7.05966 3.98106 7.04831C3.98106 7.04831 3.98118 7.05629 3.99084 7.05273C4.00817 7.03098 4.01584 7.01278 4.02351 6.99458C4.02351 6.99458 4.02442 6.99708 4.03122 6.99373C4.0431 6.98025 4.04819 6.97012 4.05328 6.95999C4.05328 6.95999 4.05385 6.9644 4.06223 6.9615C4.08633 6.92906 4.10206 6.89951 4.11779 6.86996C4.11779 6.86996 4.1187 6.8724 4.1254 6.86896C4.13737 6.85562 4.14265 6.84574 4.14793 6.83585C4.14793 6.83585 4.14811 6.83914 4.15837 6.83893C4.19337 6.79705 4.21812 6.75537 4.24286 6.7137C4.24286 6.7137 4.24389 6.71612 4.25052 6.71275C4.26272 6.69975 4.26829 6.69013 4.27385 6.6805C4.27385 6.6805 4.27434 6.68401 4.28098 6.68065C4.29233 6.66677 4.29704 6.65626 4.30175 6.64574C4.30175 6.64574 4.30241 6.65042 4.31094 6.64808C4.32948 6.62288 4.33949 6.60001 4.3495 6.57714C4.3495 6.57714 4.3531 6.57677 4.36347 6.57759C4.38222 6.56088 4.39059 6.54334 4.39896 6.5258C4.39896 6.5258 4.4 6.52825 4.40666 6.52509C4.41902 6.51239 4.42472 6.50286 4.43042 6.49334C4.43042 6.49334 4.43086 6.49657 4.43756 6.49307C4.44868 6.47896 4.45311 6.46835 4.45754 6.45774C4.45754 6.45774 4.45862 6.46228 4.46562 6.45974C4.47698 6.44618 4.48132 6.43516 4.48567 6.42413C4.48567 6.42413 4.48676 6.42872 4.49582 6.42737C4.51501 6.40343 4.52514 6.38085 4.53526 6.35827C4.53526 6.35827 4.53915 6.35639 4.55026 6.35754C4.57019 6.34109 4.579 6.3235 4.5878 6.30591C4.58808 6.29572 4.59242 6.28774 4.61586 6.27699C4.63711 6.26241 4.64335 6.25282 4.64959 6.24322C4.64959 6.24322 4.64992 6.24654 4.6565 6.24319C4.66826 6.2297 4.67343 6.21956 4.67861 6.20943C4.67861 6.20943 4.67925 6.21368 4.68768 6.2111C4.71873 6.17548 4.74135 6.14243 4.76398 6.10938C4.76398 6.10938 4.76884 6.11827 4.77682 6.11547C4.79668 6.09021 4.80857 6.06773 4.82045 6.04526C4.82045 6.04526 4.82348 6.04612 4.83353 6.04687C4.84598 6.03682 4.84837 6.02602 4.85076 6.01522C4.85076 6.01522 4.85429 6.01346 4.8643 6.01469C4.87598 6.00551 4.87764 5.9951 4.87931 5.9847C4.87931 5.9847 4.88337 5.98005 4.89435 5.98195C4.90674 5.97385 4.90815 5.96385 4.90956 5.95386C4.90956 5.95386 4.91384 5.94806 4.92523 5.95019C4.93798 5.94242 4.93934 5.93254 4.94069 5.92265C4.94069 5.92265 4.945 5.91675 4.95643 5.91888C4.96919 5.91115 4.97051 5.90129 4.97183 5.89143C4.97183 5.89143 4.97516 5.88624 4.9868 5.88767C5.00719 5.8721 5.01592 5.85509 5.02466 5.83808C5.02466 5.83808 5.02559 5.84051 5.0322 5.83725C5.04461 5.82459 5.05041 5.81518 5.05621 5.80577C5.05621 5.80577 5.05658 5.80883 5.06309 5.80579C5.07562 5.79342 5.08164 5.78409 5.08765 5.77475C5.08765 5.77475 5.08804 5.77772 5.09469 5.77437C5.10728 5.76129 5.11321 5.75155 5.11914 5.74182C5.11952 5.73171 5.12402 5.724 5.14754 5.71397C5.16885 5.69986 5.17524 5.69046 5.18163 5.68106C5.18163 5.68106 5.18193 5.68401 5.18854 5.68067C5.20113 5.66773 5.20711 5.65814 5.2131 5.64855C5.21366 5.63833 5.2183 5.63054 5.24197 5.62016C5.26322 5.60561 5.26952 5.59608 5.27581 5.58655C5.27627 5.57623 5.28088 5.56834 5.3046 5.55774C5.32583 5.54309 5.33211 5.53356 5.33839 5.52404C5.33896 5.51365 5.34366 5.50572 5.37007 5.49763C5.39561 5.47984 5.40358 5.46466 5.41156 5.44948C5.41156 5.44948 5.41599 5.4478 5.42651 5.45002C5.43872 5.44207 5.44042 5.4319 5.44212 5.42173C5.44212 5.42173 5.44551 5.41717 5.45763 5.41933C5.48281 5.39991 5.49587 5.37832 5.50892 5.35673C5.50892 5.35673 5.51192 5.35806 5.52275 5.35946C5.54849 5.3394 5.5634 5.31794 5.57832 5.29648C5.57832 5.29648 5.58129 5.30011 5.59016 5.30001C5.61555 5.27789 5.63207 5.25586 5.64859 5.23384C6.35941 4.57046 7.15045 4.0192 8.00253 3.55405C9.16297 2.92057 10.3973 2.50209 11.6986 2.2701C12.8262 2.06907 13.9603 2.00793 15.1006 2.0925C17.7478 2.28884 20.1395 3.16473 22.2199 4.8304C24.4262 6.59689 25.8492 8.86555 26.5001 11.6157C26.6666 12.3192 26.7584 13.0346 26.7801 13.7812C26.7663 14.088 26.7608 14.3709 26.761 14.6537C26.7611 14.7389 26.7772 14.824 26.786 14.9092C26.738 15.4048 26.7073 15.9028 26.6387 16.3956C26.4672 17.6283 26.0618 18.7889 25.5072 19.8989C24.785 21.3447 23.8089 22.5971 22.6114 23.6796C21.1252 25.0231 19.4124 25.9533 17.4855 26.4931C16.6285 26.7332 15.7561 26.8719 14.8664 26.9236C12.5452 27.0584 10.3744 26.5351 8.32317 25.4653C8.27813 25.4418 8.21496 25.4297 8.16616 25.4401C6.3535 25.8258 4.54155 26.2149 2.72939 26.603C2.69584 26.6101 2.66099 26.6112 2.65735 26.6116C2.82325 26.4336 3.00294 26.2409 3.20113 26.0412C3.22676 26.024 3.23388 26.0136 3.241 26.0032C3.241 26.0032 3.24132 26.0079 3.24779 26.0052C3.26026 25.9925 3.26626 25.9825 3.27227 25.9726C3.27227 25.9726 3.27296 25.9768 3.27947 25.9741C3.29183 25.9613 3.29767 25.9513 3.30352 25.9413C3.30352 25.9413 3.30421 25.9456 3.31073 25.9427C3.32293 25.9298 3.3286 25.9196 3.33427 25.9095C3.33427 25.9095 3.33506 25.9139 3.34162 25.9112C3.35405 25.8985 3.35992 25.8885 3.3658 25.8784C3.3658 25.8784 3.36681 25.8829 3.37353 25.8797C3.38614 25.8656 3.39203 25.8547 3.39792 25.8439C3.39758 25.8347 3.40134 25.8278 3.42444 25.8193C3.44653 25.8053 3.4534 25.7951 3.46028 25.7849C3.46028 25.7849 3.46064 25.7894 3.46709 25.7865C3.47941 25.7737 3.48527 25.7637 3.49113 25.7537C3.49113 25.7537 3.49183 25.7579 3.49833 25.7552C3.51079 25.7426 3.51675 25.7327 3.5227 25.7228C3.5227 25.7228 3.52333 25.7269 3.52982 25.7241C3.54231 25.7115 3.54831 25.7018 3.55431 25.692C3.55431 25.692 3.55487 25.6959 3.56137 25.693C3.57359 25.68 3.57931 25.67 3.58504 25.6601C3.58504 25.6601 3.5857 25.6642 3.59222 25.6614C3.60459 25.6487 3.61045 25.6387 3.6163 25.6287C3.6163 25.6287 3.61698 25.6329 3.62349 25.6301C3.63582 25.6173 3.64163 25.6073 3.64745 25.5973C3.64745 25.5973 3.64815 25.6016 3.65466 25.5988C3.66702 25.586 3.67286 25.576 3.67871 25.566C3.67871 25.566 3.67942 25.5703 3.68591 25.5675C3.6984 25.555 3.70442 25.5451 3.71043 25.5353C3.71043 25.5353 3.71104 25.5393 3.7175 25.5365C3.73001 25.524 3.73608 25.5143 3.74214 25.5046C3.74214 25.5046 3.74266 25.5085 3.74912 25.5055C3.76145 25.4927 3.7673 25.4829 3.77316 25.473C3.77316 25.473 3.77372 25.477 3.7802 25.4741C3.7927 25.4616 3.79872 25.4519 3.80475 25.4422C3.80475 25.4422 3.80525 25.446 3.81174 25.4429C3.82397 25.43 3.8297 25.4201 3.83544 25.4102C3.83544 25.4102 3.83606 25.4142 3.84254 25.4114C3.85507 25.3989 3.86113 25.3892 3.86719 25.3794C3.86719 25.3794 3.86769 25.3833 3.87416 25.3804C3.88661 25.3678 3.89259 25.3581 3.89857 25.3484C3.89857 25.3484 3.89908 25.3522 3.90554 25.3492C3.91797 25.3366 3.92392 25.3269 3.92987 25.3172C3.92987 25.3172 3.93037 25.3209 3.93684 25.318C3.94927 25.3053 3.95524 25.2956 3.9612 25.286C3.9612 25.286 3.96169 25.2897 3.96815 25.2867C3.98059 25.2741 3.98658 25.2645 3.99256 25.2548C3.99256 25.2548 3.99303 25.2585 3.99949 25.2555C4.01196 25.243 4.01798 25.2334 4.024 25.2238C4.024 25.2238 4.02443 25.2274 4.03089 25.2243C4.04332 25.2117 4.04929 25.2021 4.05525 25.1925C4.05525 25.1925 4.0557 25.1961 4.06216 25.193C4.07454 25.1803 4.08046 25.1707 4.08639 25.161C4.08639 25.161 4.08685 25.1647 4.09329 25.1617C4.10571 25.149 4.11168 25.1394 4.11765 25.1297C4.11765 25.1297 4.11809 25.1334 4.12456 25.1304C4.13698 25.1178 4.14292 25.1081 4.14886 25.0984C4.14886 25.0984 4.14936 25.1021 4.15581 25.0992C4.16834 25.0867 4.17441 25.0772 4.18048 25.0676C4.18048 25.0676 4.18091 25.0711 4.18735 25.0681C4.1998 25.0555 4.2058 25.046 4.21181 25.0365C4.21181 25.0365 4.21221 25.0399 4.21864 25.0369C4.23116 25.0244 4.23724 25.015 4.24332 25.0056C4.24332 25.0056 4.24367 25.0088 4.25013 25.0057C4.26258 24.9932 4.26858 24.9837 4.27458 24.9743C4.27458 24.9743 4.27493 24.9775 4.28139 24.9744C4.29384 24.9619 4.29981 24.9524 4.30579 24.9429C4.30579 24.9429 4.30615 24.9462 4.31264 24.9431C4.32492 24.9302 4.33071 24.9205 4.33649 24.9109C4.33649 24.9109 4.33696 24.9145 4.34342 24.9116C4.35599 24.8992 4.36211 24.8897 4.36822 24.8802C4.36822 24.8802 4.36861 24.8836 4.37509 24.8805C4.3875 24.8679 4.39344 24.8583 4.39937 24.8488C4.39937 24.8488 4.39978 24.8522 4.40626 24.8492C4.4187 24.8366 4.42468 24.8271 4.43066 24.8175C4.43066 24.8175 4.43107 24.821 4.43752 24.8179C4.45 24.8054 4.45603 24.7959 4.46207 24.7865C4.46207 24.7865 4.46245 24.7898 4.4689 24.7867C4.4813 24.7741 4.48725 24.7645 4.4932 24.755C4.4932 24.755 4.49361 24.7584 4.50005 24.7554C4.51255 24.7429 4.51861 24.7335 4.52467 24.724C4.52467 24.724 4.52504 24.7273 4.5315 24.7242C4.54395 24.7117 4.54994 24.7022 4.55592 24.6928C4.55592 24.6928 4.55629 24.696 4.56277 24.6929C4.57518 24.6803 4.58111 24.6708 4.58704 24.6612C4.58704 24.6612 4.58745 24.6646 4.59389 24.6616C4.60636 24.649 4.61238 24.6396 4.61841 24.6301C4.61841 24.6301 4.61877 24.6334 4.62523 24.6304C4.63771 24.6179 4.64375 24.6084 4.64978 24.599C4.64978 24.599 4.65022 24.6023 4.6568 24.5989C4.66938 24.5857 4.67538 24.5759 4.68137 24.566C4.69516 24.5487 4.70896 24.5314 4.7391 24.5084C4.76201 24.4931 4.76857 24.4836 4.77513 24.4741C4.77513 24.4741 4.77537 24.4774 4.78181 24.4742C4.79428 24.4617 4.8003 24.4523 4.80632 24.443C4.80632 24.443 4.80665 24.4461 4.81309 24.4429C4.82559 24.4305 4.83164 24.4212 4.8377 24.4119C4.8377 24.4119 4.838 24.4149 4.84445 24.4117C4.85694 24.3993 4.86297 24.39 4.869 24.3807C4.869 24.3807 4.86929 24.3836 4.87575 24.3805C4.88823 24.368 4.89425 24.3587 4.90028 24.3494C4.90028 24.3494 4.90057 24.3524 4.90703 24.3492C4.9195 24.3367 4.92552 24.3274 4.93154 24.3181C4.93154 24.3181 4.93162 24.3207 4.9411 24.3199C4.96484 24.298 4.9791 24.277 4.99336 24.2559C4.99336 24.2559 4.99404 24.2584 5.0007 24.2553C5.01338 24.243 5.0194 24.2337 5.02543 24.2244C5.02543 24.2244 5.02571 24.2273 5.03219 24.2242C5.04467 24.2117 5.05067 24.2024 5.05667 24.1931C5.05667 24.1931 5.05696 24.1961 5.06343 24.1929C5.07588 24.1803 5.08187 24.171 5.08786 24.1617C5.08786 24.1617 5.08791 24.1643 5.09742 24.1635C5.12114 24.1416 5.13536 24.1205 5.14958 24.0994C5.14958 24.0994 5.15032 24.1019 5.15707 24.0986C5.16982 24.0857 5.17582 24.076 5.18182 24.0663C5.19578 24.0489 5.20973 24.0314 5.23997 24.0081C5.26269 23.9929 5.26912 23.9835 5.27555 23.974C5.27555 23.974 5.27578 23.9771 5.28223 23.9739C5.2947 23.9615 5.30072 23.9521 5.30674 23.9428C5.30674 23.9428 5.30709 23.9458 5.31361 23.9425C5.32618 23.9296 5.33222 23.9201 5.33826 23.9105C5.33858 23.9002 5.34313 23.8923 5.36682 23.8821C5.38809 23.8679 5.39446 23.8586 5.40083 23.8494C5.40083 23.8494 5.40109 23.8522 5.40765 23.8488C5.42019 23.8357 5.42616 23.826 5.43214 23.8164C5.4461 23.7989 5.46005 23.7814 5.49028 23.7581C5.51294 23.7428 5.51933 23.7333 5.52573 23.7239C5.52573 23.7239 5.52596 23.727 5.53242 23.7238C5.54488 23.7113 5.55089 23.702 5.5569 23.6926C5.5569 23.6926 5.5572 23.6957 5.56367 23.6925C5.57617 23.6801 5.58222 23.6708 5.58826 23.6615C5.58826 23.6615 5.58859 23.6645 5.59515 23.6611C5.60773 23.6481 5.61375 23.6385 5.61977 23.6289C5.65419 23.5911 5.68861 23.5533 5.74004 23.5088C5.76343 23.4928 5.76981 23.4836 5.77619 23.4743C5.77619 23.4743 5.77638 23.4771 5.78285 23.4738C5.79534 23.4614 5.80136 23.4522 5.80739 23.4431C5.80739 23.4431 5.80766 23.4458 5.81424 23.4423C5.8268 23.4294 5.83279 23.4199 5.83878 23.4104C5.83916 23.4 5.84378 23.3921 5.87025 23.3841C5.89568 23.3664 5.90351 23.3512 5.91134 23.336C5.91134 23.336 5.9154 23.3351 5.92624 23.3366C5.94596 23.3207 5.95484 23.3032 5.96372 23.2857C5.97788 23.268 5.99203 23.2503 6.02237 23.2267C6.04494 23.2115 6.05131 23.2023 6.05769 23.193C6.05769 23.193 6.05791 23.1957 6.06449 23.1922C6.07704 23.1792 6.083 23.1697 6.08895 23.1602C6.08923 23.1498 6.09375 23.1419 6.12028 23.1337C6.15281 23.1094 6.16757 23.0879 6.18233 23.0663C6.20651 23.0387 6.2307 23.011 6.27178 22.9767C6.29499 22.9604 6.3013 22.9507 6.30761 22.941C6.32169 22.9235 6.33578 22.906 6.36606 22.8826C6.38858 22.8673 6.39492 22.8579 6.40125 22.8486C6.40125 22.8486 6.4015 22.8514 6.40803 22.8482C6.42052 22.8358 6.42648 22.8266 6.43243 22.8173C6.43243 22.8173 6.43277 22.8199 6.44221 22.819C6.46586 22.797 6.48007 22.776 6.49428 22.755C6.49428 22.755 6.49511 22.7575 6.50188 22.7542C6.51455 22.7412 6.52046 22.7315 6.52637 22.7219C6.52681 22.7117 6.53134 22.7039 6.55488 22.6937C6.57611 22.6796 6.58245 22.6703 6.5888 22.661C6.5888 22.661 6.5891 22.6636 6.59868 22.6625C6.62261 22.6401 6.63696 22.6187 6.65132 22.5973C6.69614 22.5491 6.74095 22.5009 6.80308 22.4456C6.82666 22.4289 6.83293 22.4193 6.8392 22.4097C6.83973 22.3994 6.84435 22.3915 6.86794 22.3812C6.88911 22.367 6.8954 22.3578 6.90169 22.3485C6.90169 22.3485 6.90196 22.3511 6.91136 22.3502C6.92815 22.3342 6.93556 22.3191 6.94296 22.304C6.94296 22.304 6.94707 22.3029 6.95775 22.3045C6.97712 22.289 6.98581 22.2719 6.99451 22.2547C6.99451 22.2547 6.99541 22.2572 7.00215 22.2538C7.01485 22.2409 7.02081 22.2313 7.02676 22.2217C7.02717 22.2115 7.03169 22.2037 7.05534 22.1933C7.07669 22.1787 7.08302 22.169 7.08935 22.1594C7.08983 22.1491 7.09442 22.1413 7.11799 22.131C7.13918 22.1168 7.14549 22.1075 7.1518 22.0982C7.1518 22.0982 7.15208 22.101 7.15871 22.0976C7.17128 22.0846 7.17722 22.0751 7.18316 22.0655C7.21752 22.0276 7.25188 21.9897 7.30338 21.945C7.32684 21.9285 7.33316 21.919 7.33948 21.9094C7.38404 21.8611 7.4286 21.8129 7.49046 21.7577C7.51411 21.7414 7.52046 21.7319 7.52682 21.7225C7.52682 21.7225 7.52709 21.7255 7.53359 21.7224C7.54607 21.71 7.55204 21.7006 7.55802 21.6913C7.55802 21.6913 7.55838 21.6943 7.56505 21.6909C7.57767 21.678 7.58363 21.6683 7.5896 21.6586C7.59007 21.6485 7.59465 21.6407 7.6183 21.6304C7.63959 21.6158 7.64591 21.6062 7.65223 21.5966C7.71767 21.5276 7.78311 21.4587 7.86608 21.3825C7.88991 21.3658 7.89623 21.3563 7.90254 21.3468C7.94721 21.2985 7.99187 21.2502 8.05384 21.1948C8.07746 21.1781 8.08376 21.1685 8.09006 21.1589C8.13487 21.1107 8.17967 21.0625 8.24174 21.0072C8.26528 20.9906 8.27155 20.981 8.27781 20.9715C8.30211 20.9438 8.3264 20.916 8.36734 20.8818C8.39026 20.8662 8.39653 20.8571 8.4028 20.8479C8.4028 20.8479 8.40327 20.8504 8.4126 20.8493C8.42911 20.8333 8.4363 20.8183 8.44349 20.8034C8.44349 20.8034 8.44767 20.8017 8.45872 20.8033C8.4787 20.7876 8.48763 20.7703 8.49656 20.753C8.54165 20.7046 8.58674 20.6563 8.65159 20.6032C8.67894 20.5834 8.68651 20.5683 8.69409 20.5532C8.69409 20.5532 8.69886 20.5505 8.70958 20.553C8.72177 20.5455 8.72323 20.5356 8.72468 20.5257C8.72468 20.5257 8.72894 20.5201 8.74026 20.5221C8.75303 20.5143 8.75448 20.5044 8.75592 20.4944C8.75592 20.4944 8.75928 20.4896 8.77076 20.491C8.79108 20.4755 8.79992 20.4586 8.80876 20.4417C8.80876 20.4417 8.80974 20.4441 8.81625 20.4408C8.8287 20.4283 8.83464 20.4192 8.84058 20.4101C8.84058 20.4101 8.84107 20.4126 8.8504 20.4116C8.8669 20.3956 8.87407 20.3806 8.88124 20.3656C8.88124 20.3656 8.88617 20.3626 8.89705 20.3652C8.90932 20.3579 8.91072 20.348 8.91212 20.3381C8.91212 20.3381 8.91641 20.3324 8.92781 20.3344C8.94063 20.3266 8.94206 20.3167 8.94348 20.3068C8.94348 20.3068 8.94775 20.3012 8.95914 20.3032C8.97205 20.2953 8.97359 20.2853 8.97513 20.2753C8.97513 20.2753 8.97934 20.2703 8.99063 20.2722C9.00371 20.264 9.00551 20.2538 9.00731 20.2437C9.00731 20.2437 9.01134 20.2397 9.02223 20.2414C9.03474 20.233 9.03636 20.2228 9.03799 20.2126C9.03799 20.2126 9.04213 20.2079 9.05324 20.2098C9.06598 20.2016 9.06761 20.1915 9.06923 20.1814C9.06923 20.1814 9.07338 20.1766 9.0845 20.1785C9.09726 20.1703 9.0989 20.1602 9.10054 20.1501C9.10054 20.1501 9.1047 20.1455 9.11591 20.1473C9.12931 20.1388 9.13148 20.1285 9.13366 20.1181C9.13366 20.1181 9.13747 20.1157 9.14797 20.117C9.16056 20.108 9.16265 20.0975 9.16474 20.087C9.16474 20.087 9.16857 20.0842 9.17913 20.0856C9.19179 20.0766 9.19388 20.0662 9.19597 20.0557C9.19597 20.0557 9.19981 20.0529 9.21038 20.0543C9.223 20.0454 9.22504 20.035 9.22707 20.0245C9.22707 20.0245 9.23041 20.0212 9.24214 20.0231C9.26579 20.0034 9.2777 19.9818 9.28961 19.9601C9.28961 19.9601 9.29369 19.9588 9.3043 19.9605C9.31706 19.9516 9.31923 19.9411 9.32139 19.9306C9.32139 19.9306 9.32516 19.9281 9.3356 19.9295C9.34798 19.9204 9.34992 19.91 9.35185 19.8996C9.35185 19.8996 9.35577 19.8961 9.3665 19.8977C9.3792 19.8889 9.38116 19.8786 9.38312 19.8682C9.38312 19.8682 9.38705 19.8649 9.39782 19.8665C9.41068 19.8576 9.41278 19.8472 9.41488 19.8368C9.41488 19.8368 9.41872 19.834 9.42931 19.8355C9.442 19.8265 9.44411 19.816 9.44622 19.8056C9.44622 19.8056 9.45003 19.8028 9.46053 19.8042C9.47286 19.7953 9.47469 19.785 9.47653 19.7746C9.47653 19.7746 9.48053 19.7707 9.49149 19.7724C9.50463 19.7637 9.50682 19.7533 9.50901 19.7429C9.50901 19.7429 9.51279 19.7405 9.52328 19.7419C9.53595 19.7327 9.53813 19.7222 9.54032 19.7117C9.54032 19.7117 9.54408 19.7091 9.55449 19.7105C9.56681 19.7016 9.5687 19.6912 9.5706 19.6808C9.5706 19.6808 9.57394 19.6777 9.58483 19.6788C9.60475 19.663 9.61377 19.6461 9.6228 19.6291C9.62361 19.6181 9.62865 19.6098 9.65561 19.601C9.68106 19.5829 9.68881 19.5678 9.69656 19.5527C9.69656 19.5527 9.70059 19.5519 9.71093 19.5536C9.72333 19.545 9.72538 19.5346 9.72742 19.5242C9.72742 19.5242 9.73129 19.5212 9.74192 19.5227C9.75459 19.5138 9.75662 19.5034 9.75866 19.493C9.75866 19.493 9.76253 19.4899 9.7732 19.4914C9.78589 19.4825 9.78792 19.4721 9.78994 19.4617C9.78994 19.4617 9.79381 19.4586 9.80446 19.4601C9.81713 19.4512 9.81916 19.4408 9.82118 19.4304C9.82118 19.4304 9.82505 19.4273 9.83569 19.4288C9.84828 19.42 9.85024 19.4096 9.85219 19.3992C9.85219 19.3992 9.85611 19.3958 9.86687 19.3974C9.8797 19.3886 9.88177 19.3782 9.88385 19.3678C9.88385 19.3678 9.88769 19.3648 9.89825 19.3664C9.91059 19.3576 9.91238 19.3472 9.91417 19.3369C9.91417 19.3369 9.91819 19.3328 9.92913 19.3345C9.94183 19.3261 9.9436 19.3159 9.94537 19.3056C9.94537 19.3056 9.94941 19.3015 9.96035 19.3033C9.97308 19.2948 9.97487 19.2846 9.97666 19.2744C9.97666 19.2744 9.98003 19.2708 9.991 19.2721C10.0109 19.2566 10.0199 19.2398 10.0289 19.2229C10.0289 19.2229 10.0299 19.225 10.0393 19.2238C10.0563 19.2075 10.0638 19.1925 10.0714 19.1775C10.0714 19.1775 10.0756 19.1764 10.0861 19.1782C10.0987 19.1697 10.1007 19.1593 10.1028 19.1489C10.1028 19.1489 10.1067 19.1461 10.1173 19.1475C10.13 19.1385 10.1321 19.1281 10.1342 19.1176C10.1342 19.1176 10.138 19.1148 10.1486 19.1163C10.1612 19.1073 10.1633 19.0968 10.1654 19.0864C10.1654 19.0864 10.1688 19.0833 10.1804 19.0853C10.214 19.0551 10.2359 19.023 10.2578 18.9908C10.2578 18.9908 10.2623 18.9882 10.2732 18.9903C10.2858 18.9821 10.2876 18.9719 10.2894 18.9617C10.2894 18.9617 10.2934 18.9576 10.3045 18.9594C10.3176 18.9507 10.3197 18.9404 10.3217 18.93C10.3217 18.93 10.3256 18.9273 10.3362 18.9287C10.3489 18.9196 10.3511 18.9092 10.3532 18.8987C10.3532 18.8987 10.357 18.8961 10.3675 18.8975C10.3801 18.8884 10.3822 18.878 10.3843 18.8675C10.3843 18.8675 10.3881 18.8646 10.3987 18.8661C10.4114 18.8571 10.4135 18.8467 10.4155 18.8362C10.4155 18.8362 10.4194 18.8334 10.43 18.8348C10.4427 18.8258 10.4448 18.8154 10.4469 18.8049C10.4469 18.8049 10.4507 18.8021 10.4612 18.8036C10.4737 18.7947 10.4756 18.7843 10.4775 18.7739C10.4775 18.7739 10.4809 18.7701 10.4927 18.7721C10.5165 18.7525 10.5283 18.7308 10.5402 18.7092C10.5402 18.7092 10.5443 18.7078 10.555 18.7095C10.5677 18.7007 10.5698 18.6903 10.5719 18.6798C10.5719 18.6798 10.5758 18.6771 10.5864 18.6785C10.5994 18.6694 10.6018 18.6588 10.6042 18.6483C10.6042 18.6483 10.6078 18.6466 10.6181 18.6478C10.6308 18.6383 10.6332 18.6277 10.6356 18.617C10.6356 18.617 10.6392 18.6154 10.6495 18.6166C10.6622 18.6071 10.6647 18.5964 10.6673 18.5857C10.6673 18.5857 10.6708 18.5845 10.6809 18.5855C10.6935 18.5759 10.696 18.5652 10.6985 18.5544C10.6985 18.5544 10.702 18.5532 10.7121 18.5542C10.7247 18.5446 10.7272 18.5339 10.7296 18.5232C10.7296 18.5232 10.7332 18.5217 10.7433 18.5228C10.7555 18.5134 10.7576 18.5028 10.7597 18.4922C10.7597 18.4922 10.7634 18.4895 10.774 18.4909C10.7866 18.4819 10.7887 18.4714 10.7909 18.4609C10.7909 18.4609 10.7942 18.4579 10.8059 18.4599C10.8399 18.4296 10.8621 18.3975 10.8844 18.3653C10.8844 18.3653 10.8885 18.364 10.8991 18.3656C10.9123 18.3567 10.9148 18.3461 10.9173 18.3355C10.9173 18.3355 10.9209 18.3342 10.9309 18.3353C10.9431 18.3258 10.9452 18.3152 10.9473 18.3046C10.9473 18.3046 10.9511 18.3019 10.9616 18.3033C10.9743 18.2943 10.9764 18.2838 10.9785 18.2733C10.9785 18.2733 10.9823 18.2706 10.9929 18.272C11.0056 18.263 11.0077 18.2525 11.0098 18.2421C11.0098 18.2421 11.0136 18.2393 11.0241 18.2407C11.0363 18.2318 11.0381 18.2215 11.0399 18.2112C11.0399 18.2112 11.0439 18.207 11.0548 18.2088C11.0676 18.2003 11.0694 18.19 11.0712 18.1798C11.0712 18.1798 11.0753 18.1759 11.0861 18.1776C11.0988 18.169 11.1007 18.1588 11.1025 18.1486C11.1025 18.1486 11.1065 18.1446 11.1175 18.1463C11.1307 18.1376 11.133 18.1272 11.1352 18.1169C11.1352 18.1169 11.139 18.1146 11.1495 18.1159C11.1621 18.1067 11.1643 18.0962 11.1666 18.0856C11.1666 18.0856 11.1698 18.0829 11.1813 18.0847C11.2045 18.0649 11.2162 18.0431 11.2279 18.0214C11.2279 18.0214 11.2322 18.0197 11.2429 18.0215C11.2555 18.0129 11.2575 18.0025 11.2594 17.9921C11.2594 17.9921 11.2633 17.9887 11.274 17.9903C11.2867 17.9815 11.2886 17.9712 11.2905 17.9608C11.2905 17.9608 11.2945 17.9574 11.3053 17.9589C11.3184 17.9501 11.3206 17.9397 11.3229 17.9292C11.3229 17.9292 11.3266 17.9269 11.337 17.9283C11.3496 17.9191 11.3518 17.9086 11.354 17.8981C11.354 17.8981 11.3578 17.8955 11.3683 17.8969C11.3809 17.8878 11.3831 17.8773 11.3852 17.8668C11.3852 17.8668 11.389 17.8642 11.3995 17.8656C11.4121 17.8565 11.4142 17.8461 11.4163 17.8356C11.4163 17.8356 11.4201 17.8328 11.4306 17.8342C11.4432 17.8253 11.4452 17.8148 11.4472 17.8044C11.4472 17.8044 11.4511 17.8012 11.4617 17.8027C11.4744 17.7939 11.4764 17.7835 11.4784 17.7731C11.4784 17.7731 11.4823 17.7699 11.493 17.7715C11.5057 17.7626 11.5076 17.7523 11.5096 17.7419C11.5096 17.7419 11.5135 17.7385 11.5242 17.7401C11.5369 17.7313 11.5389 17.7209 11.5409 17.7106C11.5409 17.7106 11.5448 17.7073 11.5555 17.7089C11.5681 17.7001 11.5701 17.6897 11.5721 17.6794C11.5721 17.6794 11.576 17.676 11.5867 17.6776C11.5994 17.6688 11.6014 17.6584 11.6033 17.6481C11.6033 17.6481 11.6073 17.6447 11.618 17.6463C11.6307 17.6375 11.6326 17.6272 11.6346 17.6168C11.6346 17.6168 11.6385 17.6134 11.6492 17.615C11.6619 17.6063 11.6638 17.5959 11.6657 17.5856C11.6657 17.5856 11.6696 17.582 11.6804 17.5836C11.693 17.575 11.6948 17.5647 11.6966 17.5544C11.6966 17.5544 11.7006 17.5505 11.7115 17.5522C11.7242 17.5436 11.726 17.5334 11.7278 17.5231C11.7278 17.5231 11.7312 17.52 11.7423 17.521C11.7623 17.5047 11.7712 17.4873 11.7801 17.4699C11.7808 17.4594 11.7856 17.4514 11.8121 17.4429C11.8442 17.4191 11.8588 17.3981 11.8733 17.3772C11.8733 17.3772 11.8742 17.3795 11.8807 17.3762C11.8932 17.3638 11.8991 17.3548 11.9051 17.3457C11.9051 17.3457 11.9056 17.3482 11.9149 17.3471C11.9314 17.3311 11.9386 17.3162 11.9458 17.3012C11.9458 17.3012 11.9507 17.2982 11.9616 17.3008C11.9738 17.2934 11.9753 17.2835 11.9767 17.2736C11.9767 17.2736 11.981 17.2679 11.9923 17.27C12.0051 17.2622 12.0065 17.2523 12.008 17.2424C12.008 17.2424 12.0114 17.2376 12.023 17.2389C12.0436 17.223 12.0526 17.2058 12.0615 17.1886C12.148 17.0985 12.2345 17.0084 12.341 16.9134C12.3689 16.8935 12.3767 16.8784 12.3844 16.8633C12.3844 16.8633 12.3891 16.861 12.3996 16.8634C12.4116 16.8558 12.413 16.8459 12.4143 16.8359C12.4143 16.8359 12.4186 16.83 12.4301 16.8321C12.4428 16.8244 12.4442 16.8145 12.4455 16.8047C12.4455 16.8047 12.4489 16.7998 12.4607 16.8011C12.4814 16.785 12.4903 16.7676 12.4992 16.7503C12.5647 16.6812 12.6303 16.6121 12.7132 16.5359C12.7368 16.5195 12.743 16.5102 12.7493 16.501C12.7493 16.501 12.7495 16.5036 12.756 16.5005C12.7685 16.4881 12.7744 16.4788 12.7804 16.4696C12.7804 16.4696 12.7808 16.4723 12.7929 16.4725C12.8404 16.4726 12.8759 16.4724 12.9114 16.4723C12.9218 16.4729 12.9298 16.4776 12.9382 16.5041C12.962 16.5363 12.983 16.5509 13.004 16.5654C13.004 16.5654 13.0014 16.5667 13.0026 16.5759C13.0187 16.5923 13.0336 16.5994 13.0486 16.6065C13.0486 16.6065 13.0506 16.6107 13.0489 16.6219C13.0646 16.642 13.082 16.6509 13.0993 16.6598C13.117 16.6741 13.1347 16.6885 13.1561 16.7217C13.1749 16.7481 13.19 16.7558 13.2051 16.7635C13.2051 16.7635 13.2079 16.7683 13.2053 16.7791C13.2128 16.7914 13.2228 16.793 13.2328 16.7946C13.2328 16.7946 13.2378 16.7987 13.2359 16.8099C13.244 16.8227 13.254 16.8244 13.2641 16.826C13.2641 16.826 13.269 16.8301 13.267 16.8413C13.2752 16.8541 13.2853 16.8557 13.2953 16.8573C13.2953 16.8573 13.3001 16.8614 13.2983 16.8726C13.3066 16.8856 13.3168 16.8874 13.327 16.8892C13.327 16.8892 13.3309 16.8932 13.3292 16.9041C13.3377 16.9167 13.3479 16.9184 13.3581 16.9201C13.3581 16.9201 13.3626 16.9242 13.3607 16.9352C13.3691 16.9479 13.3792 16.9496 13.3894 16.9513C13.3894 16.9513 13.3938 16.9554 13.392 16.9665C13.4004 16.9794 13.4106 16.9811 13.4208 16.9829C13.4208 16.9829 13.4248 16.987 13.4231 16.9979C13.4316 17.0107 13.4418 17.0125 13.452 17.0143C13.452 17.0143 13.4561 17.0183 13.4543 17.0292C13.4628 17.0419 13.473 17.0437 13.4833 17.0455C13.4833 17.0455 13.4874 17.0495 13.4856 17.0604C13.4941 17.0731 13.5043 17.0749 13.5145 17.0766C13.5145 17.0766 13.5187 17.0807 13.5169 17.0917C13.5254 17.1044 13.5356 17.1061 13.5458 17.1079C13.5458 17.1079 13.55 17.1119 13.5482 17.1229C13.5566 17.1357 13.5668 17.1374 13.5771 17.1392C13.5771 17.1392 13.5813 17.1432 13.5795 17.1542C13.5879 17.167 13.5981 17.1689 13.6083 17.1707C13.6083 17.1707 13.6123 17.1747 13.6106 17.1856C13.6191 17.1984 13.6293 17.2002 13.6396 17.202C13.6396 17.202 13.6435 17.206 13.6418 17.217C13.6505 17.23 13.6609 17.2321 13.6712 17.2342C13.6712 17.2342 13.6743 17.2376 13.6724 17.2492C13.713 17.2938 13.7557 17.3267 13.7983 17.3596C13.7983 17.3596 13.7991 17.3635 13.7976 17.3739C13.8066 17.3867 13.8172 17.3889 13.8278 17.3912C13.8278 17.3912 13.8299 17.3949 13.8286 17.4052C13.8378 17.4177 13.8483 17.4198 13.8588 17.4219C13.8588 17.4219 13.8617 17.4257 13.8602 17.4363C13.8693 17.4493 13.8798 17.4516 13.8904 17.4539C13.8904 17.4539 13.8923 17.4576 13.8911 17.4679C13.9004 17.4806 13.911 17.4829 13.9216 17.4852C13.9216 17.4852 13.9235 17.4889 13.9223 17.4992C13.9317 17.5118 13.9423 17.5141 13.9529 17.5165C13.9529 17.5165 13.9549 17.5201 13.9536 17.5304C13.963 17.5431 13.9736 17.5454 13.9841 17.5476C13.9841 17.5476 13.9862 17.5513 13.9849 17.5617C13.9942 17.5743 14.0048 17.5765 14.0153 17.5788C14.0153 17.5788 14.0176 17.5825 14.0163 17.5929C14.0255 17.6056 14.0361 17.6079 14.0466 17.6101C14.0466 17.6101 14.0488 17.6138 14.0475 17.6242C14.0568 17.6369 14.0674 17.6393 14.078 17.6416C14.078 17.6416 14.0799 17.6452 14.0787 17.6555C14.0879 17.6676 14.0983 17.6696 14.1088 17.6715C14.1088 17.6715 14.1123 17.6754 14.1107 17.6863C14.1196 17.6994 14.13 17.7017 14.1405 17.7039C14.1405 17.7039 14.1425 17.7076 14.1412 17.718C14.1506 17.7307 14.1612 17.733 14.1718 17.7353C14.1718 17.7353 14.1738 17.7389 14.1725 17.7492C14.1817 17.7614 14.1922 17.7634 14.2026 17.7653C14.2026 17.7653 14.2061 17.7692 14.2045 17.78C14.2132 17.7927 14.2236 17.7946 14.2339 17.7965C14.2339 17.7965 14.2374 17.8004 14.2358 17.8112C14.2446 17.824 14.2549 17.8259 14.2653 17.8279C14.2653 17.8279 14.2685 17.8318 14.267 17.8425C14.2758 17.8552 14.2862 17.8572 14.2966 17.8592C14.2966 17.8592 14.2998 17.8631 14.2982 17.8738C14.3071 17.8865 14.3175 17.8885 14.3279 17.8906C14.3279 17.8906 14.331 17.8944 14.3295 17.9051C14.3383 17.9179 14.3487 17.9199 14.3591 17.922C14.3591 17.922 14.3622 17.9259 14.3607 17.9365C14.3695 17.9492 14.38 17.9512 14.3904 17.9532C14.3904 17.9532 14.3934 17.9571 14.3919 17.9678C14.4009 17.9805 14.4113 17.9825 14.4218 17.9846C14.4218 17.9846 14.4247 17.9884 14.4232 17.999C14.4321 18.0117 14.4426 18.0138 14.453 18.0158C14.453 18.0158 14.4563 18.0191 14.4543 18.0307C14.4741 18.0538 14.4958 18.0652 14.5175 18.0766C14.5175 18.0766 14.5203 18.0813 14.5181 18.0923C14.526 18.105 14.5362 18.1067 14.5464 18.1084C14.5464 18.1084 14.55 18.1117 14.5488 18.1229C14.565 18.1424 14.5824 18.1508 14.5998 18.1593C14.5998 18.1593 14.5973 18.1601 14.6007 18.1669C14.6146 18.1783 14.6249 18.183 14.6353 18.1876C14.6353 18.1876 14.6306 18.1885 14.6342 18.196C14.6564 18.2095 14.6751 18.2155 14.6938 18.2215C14.6938 18.2215 14.6911 18.2223 14.6954 18.232C14.8905 18.352 15.0373 18.3404 15.1403 18.207C15.1403 18.207 15.1438 18.2074 15.1539 18.2099C15.1714 18.2035 15.1787 18.1947 15.186 18.1859C15.186 18.1859 15.1869 18.19 15.1932 18.1878C15.2064 18.1766 15.2131 18.1676 15.2198 18.1586C15.2198 18.1586 15.2201 18.1612 15.2295 18.1602C15.2473 18.1441 15.2557 18.1291 15.2642 18.114C15.2642 18.114 15.2675 18.1147 15.2776 18.1161C15.2901 18.1068 15.2925 18.0962 15.2949 18.0855C15.2949 18.0855 15.2985 18.0838 15.3088 18.085C15.3214 18.0755 15.3238 18.0649 15.3262 18.0542C15.3262 18.0542 15.3298 18.0527 15.3401 18.0538C15.3528 18.0442 15.3554 18.0335 15.3579 18.0228C15.3579 18.0228 15.3612 18.0213 15.3723 18.023C15.4272 17.9714 15.471 17.9183 15.5148 17.8651C15.5148 17.8651 15.518 17.8658 15.5281 17.8667C15.5409 17.8568 15.5437 17.846 15.5464 17.8351C15.5464 17.8351 15.5497 17.8348 15.5596 17.8356C15.5722 17.8256 15.5749 17.8147 15.5777 17.8039C15.5777 17.8039 15.581 17.8036 15.5909 17.8043C15.6035 17.7943 15.6062 17.7834 15.6089 17.7726C15.6089 17.7726 15.6123 17.7723 15.6221 17.7731C15.6347 17.763 15.6374 17.7522 15.6401 17.7413C15.6401 17.7413 15.6435 17.7409 15.6533 17.7417C15.6659 17.7317 15.6686 17.7209 15.6712 17.7101C15.6712 17.7101 15.6746 17.7094 15.6845 17.7103C15.697 17.7005 15.6997 17.6897 15.7023 17.6789C15.7023 17.6789 15.7055 17.6774 15.7164 17.679C15.7395 17.6588 15.7515 17.6368 15.7636 17.6149C15.7636 17.6149 15.7673 17.6144 15.7786 17.6162C15.8126 17.5857 15.8353 17.5534 15.858 17.521C15.858 17.521 15.8616 17.5208 15.8726 17.5225C15.8952 17.5023 15.9068 17.4804 15.9184 17.4586C15.9184 17.4586 15.9227 17.4566 15.9334 17.4585C15.9462 17.4499 15.9483 17.4395 15.9503 17.4291C15.9503 17.4291 15.9542 17.4261 15.9648 17.4276C15.9775 17.4187 15.9796 17.4082 15.9816 17.3978C15.9816 17.3978 15.9855 17.3949 15.9962 17.3964C16.0093 17.3873 16.0117 17.3768 16.0142 17.3662C16.0142 17.3662 16.0178 17.3647 16.0281 17.3659C16.0409 17.3563 16.0435 17.3456 16.046 17.3349C16.046 17.3349 16.0495 17.3339 16.0596 17.3349C16.0722 17.3251 16.0748 17.3144 16.0774 17.3036C16.0774 17.3036 16.0808 17.3027 16.0909 17.3037C16.1036 17.2938 16.1063 17.2831 16.109 17.2723C16.109 17.2723 16.112 17.2698 16.1241 17.2731C16.1474 17.254 16.1586 17.2316 16.1699 17.2092C16.1699 17.2092 16.1735 17.2088 16.1842 17.2099C16.1976 17.2001 16.2003 17.1893 16.203 17.1785C16.203 17.1785 16.2063 17.1781 16.2162 17.1789C16.2289 17.1689 16.2316 17.158 16.2343 17.1472C16.2343 17.1472 16.2377 17.1468 16.2476 17.1476C16.2604 17.1376 16.2633 17.1268 16.2662 17.1159C16.2662 17.1159 16.2693 17.1153 16.28 17.1168C16.3136 17.0857 16.3365 17.0532 16.3594 17.0207C16.3594 17.0207 16.3627 17.0214 16.3735 17.0228C16.3959 17.0023 16.4075 16.9803 16.4192 16.9583C16.4192 16.9583 16.4233 16.9568 16.434 16.9585C16.4475 16.9495 16.4502 16.9389 16.453 16.9282C16.453 16.9282 16.4563 16.9278 16.4663 16.9286C16.4789 16.9187 16.4816 16.9079 16.4842 16.8971C16.4842 16.8971 16.4876 16.8965 16.4977 16.8974C16.5108 16.8874 16.5139 16.8765 16.5171 16.8657C16.5171 16.8657 16.5201 16.8652 16.5304 16.8667C16.5526 16.8461 16.5645 16.824 16.5764 16.8019C16.5764 16.8019 16.5802 16.8012 16.5905 16.8026C16.6029 16.7935 16.6049 16.783 16.6069 16.7726C16.6069 16.7726 16.6103 16.7691 16.6221 16.7711C16.6563 16.741 16.6787 16.7088 16.701 16.6767C16.701 16.6767 16.705 16.6756 16.7155 16.6772C16.7282 16.6683 16.7304 16.6577 16.7326 16.6472C16.7326 16.6472 16.7364 16.6449 16.7468 16.6462C16.7595 16.637 16.7617 16.6265 16.7639 16.6159C16.7639 16.6159 16.7676 16.6135 16.7781 16.6149C16.7907 16.6057 16.7928 16.5952 16.795 16.5847C16.795 16.5847 16.7988 16.5821 16.8092 16.5835C16.8217 16.5745 16.8237 16.564 16.8257 16.5536C16.8257 16.5536 16.8296 16.5504 16.8402 16.5519C16.8526 16.5431 16.8544 16.5328 16.8562 16.5225C16.8562 16.5225 16.8602 16.5185 16.8711 16.5202C16.8838 16.5117 16.8856 16.5015 16.8873 16.4913C16.8873 16.4913 16.8914 16.4871 16.9023 16.4889C16.9148 16.4805 16.9164 16.4704 16.9181 16.4602C16.9181 16.4602 16.9222 16.4554 16.9333 16.4573C16.946 16.4491 16.9476 16.4391 16.9492 16.429C16.9492 16.429 16.9534 16.4241 16.9646 16.426C16.9773 16.4178 16.9789 16.4078 16.9805 16.3977C16.9805 16.3977 16.9839 16.3935 16.9951 16.3949C17.0153 16.3794 17.0242 16.3625 17.0331 16.3457C17.0331 16.3457 17.0343 16.348 17.0436 16.3468C17.0602 16.3306 17.0675 16.3155 17.0747 16.3005C17.0747 16.3005 17.0794 16.2981 17.0901 16.3005C17.1022 16.2928 17.1037 16.2828 17.1051 16.2729C17.1051 16.2729 17.1094 16.2673 17.1207 16.2694C17.1334 16.2615 17.1348 16.2516 17.1362 16.2417C17.1362 16.2417 17.1405 16.2359 17.1519 16.238C17.1646 16.2302 17.166 16.2204 17.1674 16.2105C17.1674 16.2105 17.1717 16.2046 17.1831 16.2067C17.1959 16.199 17.1972 16.1891 17.1986 16.1793C17.1986 16.1793 17.2019 16.1741 17.2135 16.1756C17.234 16.1602 17.243 16.1434 17.2519 16.1266C17.2519 16.1266 17.2528 16.1289 17.2593 16.1256C17.2718 16.1133 17.2778 16.1043 17.2838 16.0953C17.2838 16.0953 17.2844 16.0977 17.2938 16.0965C17.3105 16.0803 17.3179 16.0653 17.3253 16.0503C17.3253 16.0503 17.3298 16.0484 17.3404 16.0506C17.3525 16.0427 17.354 16.0327 17.3555 16.0226C17.3555 16.0226 17.3597 16.0173 17.371 16.0193C17.3837 16.0113 17.3851 16.0014 17.3866 15.9914C17.3866 15.9914 17.3909 15.9859 17.4022 15.988C17.4149 15.9801 17.4164 15.9701 17.4179 15.9602C17.4179 15.9602 17.4221 15.9547 17.4334 15.9567C17.4462 15.9488 17.4476 15.9388 17.4491 15.9289C17.4491 15.9289 17.4534 15.9234 17.4647 15.9254C17.4775 15.9175 17.4789 15.9076 17.4804 15.8976C17.4804 15.8976 17.4847 15.8922 17.496 15.8942C17.5092 15.8861 17.511 15.876 17.5129 15.8659C17.5129 15.8659 17.5169 15.8619 17.5278 15.8636C17.5403 15.8551 17.542 15.845 17.5436 15.8348C17.5436 15.8348 17.5477 15.8301 17.5588 15.832C17.5716 15.8237 17.5733 15.8136 17.575 15.8034C17.575 15.8034 17.5791 15.7989 17.5901 15.8008C17.6029 15.7924 17.6047 15.7823 17.6064 15.7721C17.6064 15.7721 17.6105 15.7678 17.6215 15.7696C17.6342 15.7612 17.636 15.751 17.6377 15.7409C17.6377 15.7409 17.6418 15.7365 17.6528 15.7383C17.6654 15.73 17.6671 15.7198 17.6688 15.7097C17.6688 15.7097 17.6729 15.7051 17.6839 15.7069C17.6967 15.6987 17.6983 15.6886 17.7 15.6785C17.7 15.6785 17.7034 15.6737 17.7156 15.6759C17.7399 15.6565 17.7518 15.6349 17.7638 15.6134C17.7638 15.6134 17.7679 15.6121 17.7785 15.6138C17.7913 15.605 17.7934 15.5946 17.7955 15.5841C17.7955 15.5841 17.7993 15.5814 17.8099 15.5828C17.8225 15.5738 17.8246 15.5633 17.8267 15.5529C17.8267 15.5529 17.8305 15.55 17.8411 15.5515C17.8537 15.5425 17.8558 15.5321 17.8579 15.5216C17.8579 15.5216 17.8617 15.5187 17.8723 15.5202C17.8849 15.5112 17.8869 15.5008 17.889 15.4904C17.889 15.4904 17.8928 15.4873 17.9036 15.4888C17.9166 15.4798 17.919 15.4693 17.9213 15.4588C17.9213 15.4588 17.925 15.4569 17.9353 15.4582C17.948 15.4488 17.9503 15.4382 17.9526 15.4276C17.9526 15.4276 17.9559 15.4252 17.9672 15.427C17.9905 15.407 18.0025 15.3853 18.0144 15.3635C18.0144 15.3635 18.0184 15.3625 18.029 15.3641C18.0419 15.355 18.0441 15.3444 18.0464 15.3338C18.0464 15.3338 18.05 15.3319 18.0604 15.3331C18.0731 15.3237 18.0754 15.3131 18.0778 15.3025C18.0778 15.3025 18.0814 15.3006 18.0917 15.3018C18.1043 15.2924 18.1066 15.2818 18.109 15.2712C18.109 15.2712 18.1126 15.2693 18.1229 15.2705C18.1356 15.2612 18.1379 15.2506 18.1402 15.2399C18.1402 15.2399 18.1439 15.238 18.1542 15.2392C18.1668 15.2299 18.1691 15.2193 18.1714 15.2087C18.1714 15.2087 18.1751 15.2066 18.1854 15.2079C18.1981 15.1986 18.2004 15.188 18.2027 15.1775C18.2027 15.1775 18.206 15.175 18.2173 15.1768C18.2415 15.1568 18.2544 15.135 18.2673 15.1131C18.2673 15.1131 18.2698 15.1146 18.2799 15.1154C18.2924 15.1053 18.2949 15.0945 18.2973 15.0836C18.2973 15.0836 18.3008 15.0823 18.311 15.0833C18.3237 15.0736 18.3263 15.0629 18.3289 15.0521C18.3289 15.0521 18.3324 15.0513 18.3424 15.0523C18.355 15.0424 18.3576 15.0317 18.3602 15.0209C18.3602 15.0209 18.3637 15.02 18.3736 15.021C18.3861 15.0112 18.3886 15.0005 18.3911 14.9897C18.3911 14.9897 18.3946 14.9884 18.4046 14.9895C18.4167 14.98 18.4187 14.9694 18.4207 14.9588C18.4207 14.9588 18.4245 14.9558 18.4352 14.9573C18.4478 14.9484 18.4498 14.9379 18.4519 14.9275C18.4519 14.9275 18.4552 14.925 18.4659 14.9261C18.4851 14.9098 18.4936 14.8925 18.5021 14.8752C18.5021 14.8752 18.503 14.8775 18.5102 14.8733C18.5221 14.8577 18.5269 14.8464 18.5317 14.8351C18.6589 14.566 18.5775 14.3559 18.3739 14.1529C16.832 12.6157 15.2959 11.0725 13.757 9.53211C13.5379 9.3128 13.2881 9.31145 13.07 9.52634C12.0869 10.4951 11.1048 11.4648 10.1039 12.4409C10.0786 12.4578 10.0718 12.4681 10.065 12.4784C10.065 12.4784 10.0645 12.4739 10.058 12.4767C10.0457 12.4894 10.0399 12.4994 10.0341 12.5095C10.0341 12.5095 10.0333 12.5053 10.0267 12.508C10.0143 12.5207 10.0086 12.5307 10.0028 12.5407C10.0028 12.5407 10.002 12.5366 9.99541 12.5393C9.98304 12.552 9.97729 12.562 9.97155 12.572C9.97155 12.572 9.97074 12.5679 9.96416 12.5705C9.95171 12.5831 9.94584 12.5931 9.93998 12.603C9.93998 12.603 9.93926 12.599 9.93272 12.6016C9.92006 12.6138 9.91393 12.6235 9.90779 12.6332C9.90779 12.6332 9.90727 12.6295 9.90075 12.6324C9.88833 12.645 9.88243 12.6547 9.87653 12.6643C9.87653 12.6643 9.87599 12.6607 9.86948 12.6635C9.85684 12.6758 9.85071 12.6852 9.84457 12.6947C9.84457 12.6947 9.84416 12.6915 9.83766 12.6945C9.82519 12.707 9.81921 12.7164 9.81323 12.7258C9.81323 12.7258 9.81307 12.7231 9.80318 12.7239C9.76933 12.767 9.74537 12.8093 9.72141 12.8516C9.72141 12.8516 9.7205 12.8483 9.71038 12.8527C9.63703 12.9651 9.62003 13.0725 9.70384 13.1787C9.70384 13.1787 9.69853 13.1785 9.69553 13.1909C9.71207 13.2297 9.73162 13.2562 9.75118 13.2827C9.75118 13.2827 9.74887 13.2834 9.74984 13.2931C9.77387 13.3262 9.79693 13.3496 9.81998 13.3729C9.81998 13.3729 9.81538 13.374 9.81771 13.3806C9.8301 13.393 9.84018 13.3989 9.85025 13.4047C9.85025 13.4047 9.84596 13.4056 9.84856 13.4122C9.86126 13.4246 9.87135 13.4303 9.88145 13.436C9.88145 13.436 9.87724 13.4369 9.87965 13.4435C9.89169 13.4563 9.90132 13.4625 9.91095 13.4688C9.91095 13.4688 9.90731 13.4693 9.91014 13.4758C9.92253 13.4884 9.93209 13.4944 9.94165 13.5004C9.94165 13.5004 9.93823 13.5009 9.9413 13.5074C9.95421 13.5197 9.96403 13.5253 9.97385 13.531C9.97385 13.531 9.97001 13.5317 9.97308 13.5383C9.98617 13.5511 9.9962 13.5572 10.0062 13.5633C10.0161 13.5635 10.0236 13.5678 10.0332 13.5913C10.0472 13.6128 10.0569 13.6193 10.0665 13.6258C10.0665 13.6258 10.0631 13.6261 10.0661 13.6326C10.0783 13.6452 10.0876 13.6514 10.0968 13.6575C10.0968 13.6575 10.0939 13.6579 10.0973 13.6645C10.1102 13.6771 10.1198 13.683 10.1294 13.689C10.1775 13.7339 10.2257 13.7788 10.2784 13.8436C10.3039 13.8782 10.3247 13.893 10.3456 13.9078C10.3456 13.9078 10.3432 13.9089 10.3445 13.9183C10.3607 13.9352 10.3758 13.9429 10.3908 13.9505C10.3908 13.9505 10.3919 13.9548 10.3899 13.9653C10.3982 13.9776 10.4086 13.9795 10.4189 13.9814C10.4189 13.9814 10.4225 13.9854 10.4209 13.9962C10.4294 14.0087 10.4397 14.0104 10.4499 14.0121C10.4499 14.0121 10.4537 14.0154 10.4524 14.0264C10.468 14.0464 10.4849 14.0553 10.5019 14.0642C10.5019 14.0642 10.4995 14.0653 10.5008 14.0746C10.5171 14.0916 10.5321 14.0992 10.5472 14.1069C10.5472 14.1069 10.5483 14.1111 10.5463 14.1216C10.5547 14.134 10.565 14.1359 10.5754 14.1379C10.5754 14.1379 10.5789 14.1418 10.5772 14.1525C10.5857 14.1646 10.5958 14.1661 10.606 14.1676C10.606 14.1676 10.6113 14.1719 10.6093 14.1832C10.6174 14.1964 10.6275 14.1982 10.6377 14.1999C10.6377 14.1999 10.6416 14.204 10.6399 14.2149C10.6484 14.2275 10.6586 14.2292 10.6689 14.2308C10.6689 14.2308 10.6733 14.2349 10.6714 14.246C10.6798 14.2587 10.69 14.2604 10.7002 14.2621C10.7002 14.2621 10.7046 14.2662 10.7027 14.2772C10.7111 14.29 10.7212 14.2917 10.7314 14.2934C10.7314 14.2934 10.7359 14.2975 10.734 14.3085C10.7423 14.3212 10.7524 14.3229 10.7626 14.3245C10.7626 14.3245 10.7672 14.3286 10.7653 14.3398C10.7736 14.3525 10.7837 14.3542 10.7939 14.3559C10.7939 14.3559 10.7984 14.36 10.7965 14.3711C10.8049 14.3838 10.8151 14.3855 10.8253 14.3872C10.8253 14.3872 10.8288 14.3906 10.8276 14.4018C10.8439 14.422 10.8613 14.4309 10.8787 14.4398C10.8965 14.4541 10.9143 14.4684 10.9359 14.5016C10.9547 14.5281 10.9699 14.5357 10.985 14.5434C10.985 14.5434 10.9874 14.5481 10.985 14.5589C10.9927 14.5715 11.0028 14.5732 11.013 14.5749C11.013 14.5749 11.0172 14.5789 11.0154 14.5899C11.0237 14.6024 11.0338 14.6039 11.0439 14.6054C11.0439 14.6054 11.0491 14.6096 11.0471 14.6209C11.0551 14.6337 11.0651 14.6352 11.0752 14.6367C11.0752 14.6367 11.0803 14.641 11.0783 14.6522C11.0864 14.6653 11.0965 14.667 11.1066 14.6687C11.1066 14.6687 11.111 14.6728 11.1091 14.6838C11.1175 14.6966 11.1277 14.6983 11.1379 14.7C11.1379 14.7 11.1422 14.7041 11.1404 14.7151C11.1487 14.7276 11.1588 14.7291 11.169 14.7306C11.169 14.7306 11.1741 14.7348 11.1721 14.746C11.1802 14.7588 11.1902 14.7603 11.2003 14.7619C11.2003 14.7619 11.2054 14.7661 11.2034 14.7773C11.2114 14.79 11.2214 14.7915 11.2314 14.793C11.2314 14.793 11.2366 14.7973 11.2346 14.8086C11.2428 14.8218 11.253 14.8236 11.2631 14.8254C11.2631 14.8254 11.267 14.8294 11.2653 14.8404C11.2738 14.853 11.2841 14.8548 11.2943 14.8566C11.2943 14.8566 11.2984 14.8606 11.2966 14.8716C11.3051 14.8843 11.3153 14.8861 11.3256 14.8878C11.3256 14.8878 11.3292 14.8911 11.3279 14.9021C11.3437 14.9219 11.3608 14.9306 11.3779 14.9394C11.3779 14.9394 11.3756 14.9403 11.379 14.9469C11.3918 14.9595 11.4012 14.9654 11.4105 14.9714C11.4284 14.9855 11.4462 14.9997 11.4664 15.0349C11.4701 15.0821 11.4714 15.1081 11.4727 15.1342C11.4727 15.1342 11.4723 15.1312 11.4652 15.1342C11.4523 15.147 11.4465 15.1569 11.4408 15.1668C11.4408 15.1668 11.4401 15.1629 11.4335 15.1657C11.4211 15.1783 11.4153 15.1882 11.4095 15.1981C11.4095 15.1981 11.4088 15.1942 11.4022 15.197C11.3899 15.2098 11.3842 15.2197 11.3785 15.2297C11.3785 15.2297 11.3778 15.2257 11.3712 15.2284C11.3589 15.2412 11.3532 15.2513 11.3475 15.2613C11.3475 15.2613 11.3467 15.2571 11.3401 15.2598C11.3277 15.2725 11.322 15.2826 11.3162 15.2926C11.3162 15.2926 11.3154 15.2884 11.3088 15.2911C11.2964 15.3037 11.2906 15.3138 11.2849 15.3238C11.2849 15.3238 11.2841 15.3196 11.2775 15.3223C11.2651 15.335 11.2594 15.345 11.2536 15.355C11.2536 15.355 11.2528 15.3509 11.2462 15.3535C11.2337 15.3659 11.2277 15.3758 11.2217 15.3856C11.2217 15.3856 11.2211 15.3817 11.2145 15.3846C11.2026 15.3979 11.1973 15.4081 11.192 15.4184C11.192 15.4184 11.1911 15.4141 11.1843 15.4166C11.1721 15.4295 11.1666 15.4399 11.1611 15.4502C11.1611 15.4502 11.1601 15.4458 11.1533 15.4482C11.141 15.4609 11.1354 15.4712 11.1298 15.4815C11.1298 15.4815 11.1288 15.477 11.1221 15.4794C11.1097 15.4921 11.104 15.5023 11.0983 15.5125C11.0983 15.5125 11.098 15.5087 11.0881 15.5084C11.0539 15.5406 11.0297 15.5731 11.0054 15.6056C11.0054 15.6056 11.0037 15.6022 10.9968 15.6044C10.9841 15.6168 10.9785 15.627 10.9728 15.6371C10.9728 15.6371 10.9719 15.6328 10.9652 15.6354C10.9531 15.6484 10.9477 15.6588 10.9423 15.6691C10.9423 15.6691 10.9421 15.6654 10.9321 15.6649C10.8878 15.7078 10.8535 15.751 10.8192 15.7943C10.8192 15.7943 10.8172 15.7909 10.81 15.7928C10.7975 15.8053 10.7922 15.8158 10.7868 15.8263C10.7868 15.8263 10.7855 15.8218 10.7787 15.824C10.7664 15.8366 10.7609 15.8471 10.7554 15.8575C10.7554 15.8575 10.7542 15.8528 10.7474 15.8552C10.7355 15.8683 10.7305 15.879 10.7254 15.8897C10.7254 15.8897 10.724 15.8852 10.7169 15.8871C10.7045 15.8996 10.6991 15.9102 10.6936 15.9207C10.6936 15.9207 10.6923 15.9161 10.6853 15.9182C10.6733 15.931 10.6682 15.9417 10.6631 15.9524C10.6631 15.9524 10.6616 15.9479 10.6545 15.9498C10.6422 15.9624 10.637 15.9731 10.6318 15.9837C10.6318 15.9837 10.6313 15.9795 10.6215 15.9788C10.5763 16.0215 10.541 16.065 10.5057 16.1084C10.5057 16.1084 10.5047 16.1035 10.4965 16.1052C10.4737 16.1285 10.4592 16.1502 10.4447 16.1719C10.4447 16.1719 10.4428 16.1674 10.4357 16.169C10.4237 16.1816 10.4188 16.1924 10.4138 16.2033C10.4138 16.2033 10.4121 16.1988 10.4049 16.2005C10.3926 16.213 10.3876 16.2238 10.3825 16.2346C10.3825 16.2346 10.3809 16.2301 10.3737 16.2318C10.3617 16.2445 10.3569 16.2554 10.3521 16.2663C10.3521 16.2663 10.3507 16.2618 10.342 16.2628C10.319 16.2858 10.3047 16.3077 10.2904 16.3296C10.2904 16.3296 10.288 16.3256 10.2806 16.3266C10.2685 16.3387 10.2638 16.3497 10.2591 16.3606C10.2591 16.3606 10.257 16.3566 10.2495 16.3578C10.237 16.3697 10.2319 16.3805 10.2269 16.3914C10.2269 16.3914 10.225 16.387 10.2177 16.3886C10.2061 16.4013 10.2018 16.4124 10.1975 16.4235C10.1975 16.4235 10.194 16.4186 10.1869 16.4202C10.1753 16.4328 10.1708 16.4439 10.1663 16.4549C10.1663 16.4549 10.1629 16.4503 10.1557 16.4517C10.1441 16.4642 10.1396 16.4752 10.1352 16.4863C10.1352 16.4863 10.1312 16.4814 10.1243 16.4829C10.1128 16.4955 10.1083 16.5065 10.1038 16.5175C10.1038 16.5175 10.1003 16.5129 10.0932 16.5143C10.0815 16.5267 10.077 16.5377 10.0725 16.5488C10.0725 16.5488 10.0705 16.5438 10.0616 16.5449C10.0391 16.5681 10.0255 16.5903 10.0119 16.6126C10.0119 16.6126 10.0036 16.6093 9.99818 16.6096C9.98869 16.6211 9.98459 16.6322 9.98049 16.6433C9.98049 16.6433 9.96932 16.6353 9.96546 16.6383C9.95752 16.6524 9.95344 16.6635 9.94937 16.6746C9.94937 16.6746 9.94607 16.6764 9.93625 16.6724C9.89304 16.712 9.85965 16.7556 9.82626 16.7993C9.82626 16.7993 9.82541 16.7988 9.81525 16.7981C9.80103 16.8086 9.79698 16.8198 9.79292 16.8309C9.79292 16.8309 9.78103 16.8226 9.77748 16.8258C9.76992 16.84 9.76591 16.8511 9.76189 16.8622C9.76189 16.8622 9.7596 16.8502 9.75023 16.8547C9.72807 16.8816 9.71528 16.9039 9.70249 16.9263C9.70249 16.9263 9.70172 16.9196 9.69135 16.9216C9.67791 16.9345 9.67483 16.9456 9.67176 16.9567C9.67176 16.9567 9.66887 16.9556 9.6594 16.9553C9.64679 16.966 9.64363 16.977 9.64047 16.988C9.64047 16.988 9.63743 16.9866 9.62804 16.9864C9.61545 16.9973 9.61225 17.0083 9.60905 17.0193C9.60905 17.0193 9.60428 17.0181 9.59487 17.0173C9.56171 17.049 9.53794 17.0815 9.51418 17.1139C9.51418 17.1139 9.51554 17.1089 9.50442 17.1099C9.49036 17.1221 9.48742 17.1332 9.48448 17.1443C9.48448 17.1443 9.48147 17.1435 9.47196 17.1431C9.45943 17.1537 9.45642 17.1647 9.4534 17.1756C9.4534 17.1756 9.45037 17.1749 9.4408 17.1745C9.42828 17.185 9.42532 17.1959 9.42236 17.2069C9.42236 17.2069 9.41926 17.2075 9.4088 17.206C9.38502 17.2265 9.3717 17.2485 9.35838 17.2705C9.35838 17.2705 9.35867 17.2646 9.34784 17.266C9.33395 17.2785 9.33088 17.2896 9.32781 17.3007C9.32781 17.3007 9.3248 17.301 9.31457 17.2995C9.2915 17.3202 9.27866 17.3423 9.26581 17.3645C9.26581 17.3645 9.26359 17.3615 9.25364 17.3615C9.2412 17.3725 9.23872 17.3834 9.23624 17.3943C9.23624 17.3943 9.2328 17.3954 9.22279 17.3944C9.21021 17.4042 9.20765 17.415 9.20509 17.4257C9.20509 17.4257 9.20162 17.4267 9.19157 17.4257C9.17902 17.4355 9.17652 17.4462 9.17402 17.457C9.17402 17.457 9.17051 17.4582 9.16039 17.4571C9.1478 17.4667 9.14532 17.4775 9.14284 17.4882C9.14284 17.4882 9.13931 17.4895 9.12916 17.4884C9.11655 17.498 9.11409 17.5088 9.11163 17.5195C9.11163 17.5195 9.10808 17.5208 9.09793 17.5197C9.08533 17.5293 9.08288 17.54 9.08043 17.5508C9.08043 17.5508 9.07689 17.5522 9.06684 17.5511C9.05496 17.5604 9.05311 17.5709 9.05127 17.5814C9.05127 17.5814 9.04733 17.5852 9.03651 17.5835C9.02382 17.5922 9.02195 17.6025 9.02008 17.6128C9.02008 17.6128 9.0167 17.6166 9.00476 17.6146C8.98126 17.6342 8.96971 17.6558 8.95815 17.6773C8.95815 17.6773 8.95367 17.6798 8.9428 17.6778C8.93009 17.686 8.92825 17.6963 8.92641 17.7066C8.92641 17.7066 8.92241 17.7104 8.91152 17.7087C8.89878 17.7173 8.89691 17.7276 8.89504 17.7379C8.89504 17.7379 8.89105 17.7416 8.8802 17.7399C8.86746 17.7485 8.86558 17.7588 8.8637 17.7692C8.8637 17.7692 8.85973 17.7728 8.84894 17.7711C8.83644 17.7797 8.83473 17.7899 8.83302 17.8002C8.83302 17.8002 8.82894 17.8046 8.81791 17.8027C8.80521 17.8111 8.80355 17.8213 8.80188 17.8315C8.80188 17.8315 8.79778 17.8359 8.78673 17.8341C8.77398 17.8424 8.77228 17.8526 8.77058 17.8628C8.77058 17.8628 8.76646 17.8671 8.75531 17.8653C8.74191 17.8739 8.73965 17.8843 8.7374 17.8946C8.7374 17.8946 8.73365 17.8969 8.72326 17.8955C8.71089 17.9047 8.70892 17.9152 8.70694 17.9256C8.70694 17.9256 8.70305 17.9289 8.69236 17.9273C8.67965 17.9361 8.67764 17.9465 8.67563 17.9569C8.67563 17.9569 8.67174 17.9601 8.66105 17.9585C8.64837 17.9674 8.64637 17.9778 8.64437 17.9882C8.64437 17.9882 8.64048 17.9914 8.62978 17.9898C8.61714 17.9986 8.61519 18.009 8.61324 18.0194C8.61324 18.0194 8.60932 18.0227 8.59856 18.0211C8.58587 18.0299 8.58393 18.0403 8.58199 18.0506C8.58199 18.0506 8.57871 18.0543 8.56691 18.0523C8.54355 18.0719 8.53198 18.0936 8.52042 18.1152C8.52042 18.1152 8.51588 18.1176 8.50494 18.1155C8.49205 18.1237 8.49009 18.134 8.48813 18.1443C8.48813 18.1443 8.48421 18.1477 8.47346 18.1461C8.461 18.1549 8.45928 18.1652 8.45757 18.1755C8.45757 18.1755 8.45353 18.1796 8.44257 18.1778C8.42984 18.1863 8.42808 18.1966 8.42631 18.2068C8.42631 18.2068 8.42226 18.2109 8.41132 18.2091C8.39864 18.2176 8.39692 18.2278 8.39519 18.238C8.39519 18.238 8.39112 18.2423 8.38013 18.2405C8.36748 18.2489 8.36582 18.259 8.36416 18.2692C8.36416 18.2692 8.36004 18.2738 8.34897 18.2719C8.33627 18.2802 8.33464 18.2903 8.33301 18.3005C8.33301 18.3005 8.32965 18.3045 8.31848 18.3032C8.29844 18.3187 8.28956 18.3356 8.28068 18.3525C8.28068 18.3525 8.27943 18.3501 8.27015 18.3514C8.25351 18.3676 8.24615 18.3826 8.23879 18.3976C8.23879 18.3976 8.23419 18.3997 8.2235 18.3974C8.21124 18.4052 8.20967 18.4153 8.20809 18.4254C8.20809 18.4254 8.20392 18.4303 8.19275 18.4284C8.18004 18.4365 8.17849 18.4466 8.17695 18.4567C8.17695 18.4567 8.17275 18.4617 8.16155 18.4597C8.14887 18.4678 8.1474 18.4778 8.14593 18.4878C8.14593 18.4878 8.14168 18.4932 8.13037 18.4912C8.11761 18.4991 8.11617 18.5091 8.11473 18.519C8.11473 18.519 8.11047 18.5245 8.09913 18.5224C8.08633 18.5304 8.08488 18.5403 8.08343 18.5503C8.08343 18.5503 8.07917 18.5558 8.06785 18.5537C8.05505 18.5616 8.05358 18.5716 8.05212 18.5816C8.05212 18.5816 8.04876 18.5863 8.03737 18.5848C8.01702 18.6002 8.00805 18.617 7.99908 18.6338C7.99908 18.6338 7.99797 18.6315 7.98865 18.6327C7.97208 18.6489 7.96483 18.6639 7.95759 18.679C7.95759 18.679 7.95339 18.6821 7.94053 18.6782C7.91734 18.6962 7.907 18.7181 7.89665 18.7401C7.89665 18.7401 7.89164 18.744 7.8803 18.7416C7.86753 18.7492 7.86611 18.7592 7.86469 18.7691C7.86469 18.7691 7.86041 18.7748 7.84898 18.7727C7.83594 18.7807 7.83433 18.7907 7.83272 18.8007C7.83272 18.8007 7.82856 18.8054 7.81743 18.8035C7.80465 18.8118 7.803 18.8219 7.80136 18.832C7.80136 18.832 7.79722 18.8367 7.78612 18.8348C7.77334 18.8431 7.77166 18.8532 7.76998 18.8633C7.76998 18.8633 7.76672 18.868 7.75458 18.8658C7.73137 18.8853 7.72029 18.9068 7.70921 18.9283C7.70921 18.9283 7.70399 18.9325 7.69266 18.9298C7.68004 18.9369 7.67874 18.9467 7.67744 18.9565C7.67744 18.9565 7.6741 18.9618 7.66243 18.9604C7.64196 18.9758 7.63315 18.9928 7.62434 19.0097C7.62434 19.0097 7.62303 19.0071 7.6138 19.0082C7.5974 19.0243 7.59024 19.0393 7.58307 19.0543C7.58307 19.0543 7.57884 19.0561 7.56771 19.0544C7.54767 19.0701 7.53875 19.0875 7.52982 19.1049C7.49529 19.143 7.46075 19.1811 7.40646 19.2237C7.37216 19.2492 7.3576 19.2703 7.34304 19.2914C7.34304 19.2914 7.34181 19.2887 7.33236 19.2899C7.30853 19.3126 7.29415 19.334 7.27978 19.3554C7.2793 19.3657 7.27467 19.3736 7.25099 19.3839C7.22971 19.3979 7.22333 19.4071 7.21695 19.4163C7.21695 19.4163 7.21664 19.4138 7.20719 19.4149C7.18356 19.4369 7.16937 19.4578 7.15519 19.4787C7.15519 19.4787 7.15431 19.4764 7.14765 19.4798C7.13506 19.4928 7.12913 19.5023 7.12321 19.5117C7.12272 19.5221 7.11806 19.5301 7.0916 19.5382C7.05941 19.5619 7.04484 19.583 7.03028 19.604C7.03028 19.604 7.02897 19.6013 7.01974 19.6024C7.00308 19.6185 6.99566 19.6336 6.98824 19.6486C6.98824 19.6486 6.98415 19.6496 6.97324 19.6481C6.95346 19.6641 6.9446 19.6816 6.93574 19.6991C6.93511 19.7095 6.93037 19.7175 6.90397 19.7256C6.87883 19.7433 6.87125 19.7584 6.86367 19.7735C6.86367 19.7735 6.85871 19.7766 6.84786 19.774C6.83575 19.7811 6.8345 19.791 6.83325 19.8008C6.83325 19.8008 6.82887 19.8071 6.81733 19.8049C6.8045 19.8125 6.80322 19.8223 6.80193 19.8321C6.80193 19.8321 6.79859 19.8374 6.78691 19.8359C6.76638 19.8513 6.75752 19.8682 6.74866 19.8851C6.74866 19.8851 6.74739 19.8825 6.73791 19.8838C6.71413 19.9065 6.69983 19.9279 6.68553 19.9493C6.66119 19.9771 6.63686 20.0049 6.59308 20.0369C6.55906 20.0622 6.54448 20.0832 6.52991 20.1043C6.52991 20.1043 6.52901 20.1019 6.52233 20.1053C6.50968 20.1181 6.50373 20.1276 6.49777 20.1371C6.4221 20.2165 6.34642 20.2959 6.25311 20.3826C6.22914 20.3996 6.22281 20.4093 6.21648 20.4189C6.18205 20.4568 6.14762 20.4947 6.0933 20.5372C6.05861 20.5633 6.04381 20.5848 6.02902 20.6064C6.02861 20.6167 6.02409 20.6245 6.00039 20.635C5.97903 20.6497 5.97271 20.6594 5.96639 20.669C5.94222 20.6967 5.91805 20.7245 5.87448 20.7562C5.84753 20.7753 5.83997 20.7904 5.83241 20.8055C5.83241 20.8055 5.82714 20.8094 5.81612 20.8064C5.8023 20.8063 5.7971 20.8093 5.79719 20.8122C5.79741 20.8189 5.80013 20.8256 5.80184 20.8323C5.80184 20.8323 5.79857 20.8384 5.78661 20.8368C5.76592 20.8523 5.75719 20.8693 5.74846 20.8863C5.74846 20.8863 5.7475 20.8839 5.74073 20.8872C5.72805 20.9003 5.72214 20.9099 5.71623 20.9196C5.71595 20.9298 5.7115 20.9375 5.68796 20.9476C5.66664 20.9618 5.66025 20.9712 5.65385 20.9806C5.65385 20.9806 5.6536 20.9777 5.6471 20.9808C5.63463 20.9933 5.62866 21.0026 5.62269 21.0119C5.62269 21.0119 5.62237 21.009 5.61584 21.0121C5.60336 21.0245 5.59739 21.0339 5.59143 21.0432C5.59143 21.0432 5.5911 21.0403 5.58458 21.0434C5.5721 21.0558 5.56614 21.0652 5.56018 21.0745C5.56018 21.0745 5.55984 21.0716 5.55331 21.0747C5.54095 21.0874 5.53512 21.0969 5.52928 21.1063C5.52928 21.1063 5.52888 21.1031 5.52237 21.1062C5.5099 21.1187 5.50394 21.1281 5.49798 21.1376C5.49798 21.1376 5.49753 21.1343 5.49092 21.1376C5.47826 21.1506 5.47221 21.1603 5.46616 21.17ZM10.922 10.0325C11.4969 9.46543 12.0728 8.89939 12.6463 8.3309C12.9437 8.03603 12.9407 7.78271 12.6412 7.48637C12.4153 7.26284 12.1871 7.04165 11.9613 6.81794C11.6217 6.48136 11.3695 6.48007 11.0289 6.8123C9.73507 8.07472 8.4408 9.33673 7.1463 10.5985C6.87525 10.8627 6.86834 11.1464 7.13377 11.4137C7.39812 11.6798 7.66642 11.942 7.93245 12.2065C8.19987 12.4724 8.46141 12.4715 8.73063 12.2045C9.4556 11.4854 10.181 10.7668 10.922 10.0325ZM16.9843 20.9C17.1476 20.8881 17.2781 20.8157 17.3934 20.6995C17.9914 20.0968 18.5926 19.4973 19.1926 18.8967C19.8516 18.2371 20.5112 17.5781 21.1692 16.9176C21.4465 16.6392 21.4461 16.3663 21.1713 16.0905C20.9286 15.8469 20.6845 15.6049 20.4416 15.3616C20.1569 15.0765 19.8567 15.0758 19.571 15.3613C18.3147 16.6169 17.0586 17.8727 15.8025 19.1284C15.5251 19.4058 15.5245 19.6951 15.8028 19.97C16.0474 20.2115 16.2979 20.4472 16.5382 20.6928C16.6571 20.8144 16.7892 20.8916 16.9843 20.9Z"/><mask id="path-3-outside-1_228_1088" width="162" height="20" x="33" y="6.5" fill="black" maskUnits="userSpaceOnUse"><rect width="162" height="20" x="33" y="6.5" fill="white"/><path d="M35.948 21.5H33.491V7.493H43.088V9.656H35.948V13.289H42.941V15.452H35.948V21.5ZM47.11 21.5H44.905V11.357H47.11V12.848C47.866 11.882 49.084 11.126 50.407 11.126V13.31C50.218 13.268 49.987 13.247 49.714 13.247C48.79 13.247 47.551 13.877 47.11 14.591V21.5ZM51.2403 16.418C51.2403 13.478 53.3823 11.105 56.3853 11.105C59.4303 11.105 61.3833 13.436 61.3833 16.628V17.153H53.5503C53.7183 18.686 54.8733 19.946 56.7843 19.946C57.7713 19.946 58.9473 19.547 59.6613 18.833L60.6693 20.282C59.6613 21.248 58.1703 21.752 56.5533 21.752C53.5083 21.752 51.2403 19.631 51.2403 16.418ZM56.3853 12.911C54.4953 12.911 53.6343 14.36 53.5293 15.599H59.2413C59.1993 14.402 58.3803 12.911 56.3853 12.911ZM62.6147 16.418C62.6147 13.478 64.7567 11.105 67.7597 11.105C70.8047 11.105 72.7577 13.436 72.7577 16.628V17.153H64.9247C65.0927 18.686 66.2477 19.946 68.1587 19.946C69.1457 19.946 70.3217 19.547 71.0357 18.833L72.0437 20.282C71.0357 21.248 69.5447 21.752 67.9277 21.752C64.8827 21.752 62.6147 19.631 62.6147 16.418ZM67.7597 12.911C65.8697 12.911 65.0087 14.36 64.9037 15.599H70.6157C70.5737 14.402 69.7547 12.911 67.7597 12.911ZM88.3917 21.5H79.7607V7.493H82.2177V19.337H88.3917V21.5ZM89.2937 16.418C89.2937 13.478 91.4357 11.105 94.4387 11.105C97.4837 11.105 99.4367 13.436 99.4367 16.628V17.153H91.6037C91.7717 18.686 92.9267 19.946 94.8377 19.946C95.8247 19.946 97.0007 19.547 97.7147 18.833L98.7227 20.282C97.7147 21.248 96.2237 21.752 94.6067 21.752C91.5617 21.752 89.2937 19.631 89.2937 16.418ZM94.4387 12.911C92.5487 12.911 91.6877 14.36 91.5827 15.599H97.2947C97.2527 14.402 96.4337 12.911 94.4387 12.911ZM101.172 24.104L102.201 22.508C103.02 23.453 104.07 23.81 105.414 23.81C106.863 23.81 108.417 23.138 108.417 21.059V19.841C107.64 20.849 106.485 21.521 105.162 21.521C102.579 21.521 100.668 19.652 100.668 16.313C100.668 13.037 102.558 11.105 105.162 11.105C106.443 11.105 107.598 11.693 108.417 12.764V11.357H110.622V20.975C110.622 24.629 107.913 25.616 105.414 25.616C103.692 25.616 102.411 25.238 101.172 24.104ZM108.417 18.203V14.423C107.934 13.667 106.842 13.058 105.813 13.058C104.07 13.058 102.957 14.36 102.957 16.313C102.957 18.266 104.07 19.568 105.813 19.568C106.842 19.568 107.934 18.959 108.417 18.203ZM121.565 21.5H119.36V20.408C118.604 21.269 117.428 21.752 116.084 21.752C114.425 21.752 112.556 20.639 112.556 18.392C112.556 16.061 114.425 15.095 116.084 15.095C117.449 15.095 118.625 15.536 119.36 16.397V14.885C119.36 13.709 118.394 12.995 116.987 12.995C115.853 12.995 114.866 13.415 113.984 14.276L113.081 12.743C114.257 11.63 115.727 11.105 117.344 11.105C119.591 11.105 121.565 12.05 121.565 14.78V21.5ZM119.36 19.19V17.657C118.856 16.964 117.911 16.607 116.945 16.607C115.706 16.607 114.782 17.321 114.782 18.434C114.782 19.526 115.706 20.24 116.945 20.24C117.911 20.24 118.856 19.883 119.36 19.19ZM126.314 21.5H124.109V7.493H126.314V21.5ZM146.601 21.5H143.913L142.884 18.812H136.248L135.219 21.5H132.531L138.033 7.493H141.099L146.601 21.5ZM142.191 16.649L139.566 9.572L136.941 16.649H142.191ZM157.097 21.5H154.892V20.114C154.115 21.122 152.939 21.752 151.637 21.752C149.033 21.752 147.122 19.778 147.122 16.439C147.122 13.163 149.012 11.105 151.637 11.105C152.897 11.105 154.073 11.693 154.892 12.764V7.493H157.097V21.5ZM154.892 18.455V14.423C154.388 13.667 153.317 13.058 152.267 13.058C150.524 13.058 149.411 14.465 149.411 16.439C149.411 18.392 150.524 19.799 152.267 19.799C153.317 19.799 154.388 19.211 154.892 18.455ZM164.68 21.5H162.307L158.17 11.357H160.522L163.483 18.959L166.444 11.357H168.817L164.68 21.5ZM170.978 9.677C170.243 9.677 169.613 9.068 169.613 8.312C169.613 7.556 170.243 6.947 170.978 6.947C171.734 6.947 172.343 7.556 172.343 8.312C172.343 9.068 171.734 9.677 170.978 9.677ZM172.091 21.5H169.886V11.357H172.091V21.5ZM174.007 16.418C174.007 13.352 176.17 11.105 179.257 11.105C181.231 11.105 182.428 11.945 183.142 12.911L181.693 14.255C181.126 13.457 180.349 13.058 179.362 13.058C177.514 13.058 176.296 14.444 176.296 16.418C176.296 18.392 177.514 19.799 179.362 19.799C180.349 19.799 181.126 19.379 181.693 18.602L183.142 19.946C182.428 20.912 181.231 21.752 179.257 21.752C176.17 21.752 174.007 19.505 174.007 16.418ZM184.13 16.418C184.13 13.478 186.272 11.105 189.275 11.105C192.32 11.105 194.273 13.436 194.273 16.628V17.153H186.44C186.608 18.686 187.763 19.946 189.674 19.946C190.661 19.946 191.837 19.547 192.551 18.833L193.559 20.282C192.551 21.248 191.06 21.752 189.443 21.752C186.398 21.752 184.13 19.631 184.13 16.418ZM189.275 12.911C187.385 12.911 186.524 14.36 186.419 15.599H192.131C192.089 14.402 191.27 12.911 189.275 12.911Z"/></mask><path fill="black" d="M35.948 21.5H33.491V7.493H43.088V9.656H35.948V13.289H42.941V15.452H35.948V21.5ZM47.11 21.5H44.905V11.357H47.11V12.848C47.866 11.882 49.084 11.126 50.407 11.126V13.31C50.218 13.268 49.987 13.247 49.714 13.247C48.79 13.247 47.551 13.877 47.11 14.591V21.5ZM51.2403 16.418C51.2403 13.478 53.3823 11.105 56.3853 11.105C59.4303 11.105 61.3833 13.436 61.3833 16.628V17.153H53.5503C53.7183 18.686 54.8733 19.946 56.7843 19.946C57.7713 19.946 58.9473 19.547 59.6613 18.833L60.6693 20.282C59.6613 21.248 58.1703 21.752 56.5533 21.752C53.5083 21.752 51.2403 19.631 51.2403 16.418ZM56.3853 12.911C54.4953 12.911 53.6343 14.36 53.5293 15.599H59.2413C59.1993 14.402 58.3803 12.911 56.3853 12.911ZM62.6147 16.418C62.6147 13.478 64.7567 11.105 67.7597 11.105C70.8047 11.105 72.7577 13.436 72.7577 16.628V17.153H64.9247C65.0927 18.686 66.2477 19.946 68.1587 19.946C69.1457 19.946 70.3217 19.547 71.0357 18.833L72.0437 20.282C71.0357 21.248 69.5447 21.752 67.9277 21.752C64.8827 21.752 62.6147 19.631 62.6147 16.418ZM67.7597 12.911C65.8697 12.911 65.0087 14.36 64.9037 15.599H70.6157C70.5737 14.402 69.7547 12.911 67.7597 12.911ZM88.3917 21.5H79.7607V7.493H82.2177V19.337H88.3917V21.5ZM89.2937 16.418C89.2937 13.478 91.4357 11.105 94.4387 11.105C97.4837 11.105 99.4367 13.436 99.4367 16.628V17.153H91.6037C91.7717 18.686 92.9267 19.946 94.8377 19.946C95.8247 19.946 97.0007 19.547 97.7147 18.833L98.7227 20.282C97.7147 21.248 96.2237 21.752 94.6067 21.752C91.5617 21.752 89.2937 19.631 89.2937 16.418ZM94.4387 12.911C92.5487 12.911 91.6877 14.36 91.5827 15.599H97.2947C97.2527 14.402 96.4337 12.911 94.4387 12.911ZM101.172 24.104L102.201 22.508C103.02 23.453 104.07 23.81 105.414 23.81C106.863 23.81 108.417 23.138 108.417 21.059V19.841C107.64 20.849 106.485 21.521 105.162 21.521C102.579 21.521 100.668 19.652 100.668 16.313C100.668 13.037 102.558 11.105 105.162 11.105C106.443 11.105 107.598 11.693 108.417 12.764V11.357H110.622V20.975C110.622 24.629 107.913 25.616 105.414 25.616C103.692 25.616 102.411 25.238 101.172 24.104ZM108.417 18.203V14.423C107.934 13.667 106.842 13.058 105.813 13.058C104.07 13.058 102.957 14.36 102.957 16.313C102.957 18.266 104.07 19.568 105.813 19.568C106.842 19.568 107.934 18.959 108.417 18.203ZM121.565 21.5H119.36V20.408C118.604 21.269 117.428 21.752 116.084 21.752C114.425 21.752 112.556 20.639 112.556 18.392C112.556 16.061 114.425 15.095 116.084 15.095C117.449 15.095 118.625 15.536 119.36 16.397V14.885C119.36 13.709 118.394 12.995 116.987 12.995C115.853 12.995 114.866 13.415 113.984 14.276L113.081 12.743C114.257 11.63 115.727 11.105 117.344 11.105C119.591 11.105 121.565 12.05 121.565 14.78V21.5ZM119.36 19.19V17.657C118.856 16.964 117.911 16.607 116.945 16.607C115.706 16.607 114.782 17.321 114.782 18.434C114.782 19.526 115.706 20.24 116.945 20.24C117.911 20.24 118.856 19.883 119.36 19.19ZM126.314 21.5H124.109V7.493H126.314V21.5ZM146.601 21.5H143.913L142.884 18.812H136.248L135.219 21.5H132.531L138.033 7.493H141.099L146.601 21.5ZM142.191 16.649L139.566 9.572L136.941 16.649H142.191ZM157.097 21.5H154.892V20.114C154.115 21.122 152.939 21.752 151.637 21.752C149.033 21.752 147.122 19.778 147.122 16.439C147.122 13.163 149.012 11.105 151.637 11.105C152.897 11.105 154.073 11.693 154.892 12.764V7.493H157.097V21.5ZM154.892 18.455V14.423C154.388 13.667 153.317 13.058 152.267 13.058C150.524 13.058 149.411 14.465 149.411 16.439C149.411 18.392 150.524 19.799 152.267 19.799C153.317 19.799 154.388 19.211 154.892 18.455ZM164.68 21.5H162.307L158.17 11.357H160.522L163.483 18.959L166.444 11.357H168.817L164.68 21.5ZM170.978 9.677C170.243 9.677 169.613 9.068 169.613 8.312C169.613 7.556 170.243 6.947 170.978 6.947C171.734 6.947 172.343 7.556 172.343 8.312C172.343 9.068 171.734 9.677 170.978 9.677ZM172.091 21.5H169.886V11.357H172.091V21.5ZM174.007 16.418C174.007 13.352 176.17 11.105 179.257 11.105C181.231 11.105 182.428 11.945 183.142 12.911L181.693 14.255C181.126 13.457 180.349 13.058 179.362 13.058C177.514 13.058 176.296 14.444 176.296 16.418C176.296 18.392 177.514 19.799 179.362 19.799C180.349 19.799 181.126 19.379 181.693 18.602L183.142 19.946C182.428 20.912 181.231 21.752 179.257 21.752C176.17 21.752 174.007 19.505 174.007 16.418ZM184.13 16.418C184.13 13.478 186.272 11.105 189.275 11.105C192.32 11.105 194.273 13.436 194.273 16.628V17.153H186.44C186.608 18.686 187.763 19.946 189.674 19.946C190.661 19.946 191.837 19.547 192.551 18.833L193.559 20.282C192.551 21.248 191.06 21.752 189.443 21.752C186.398 21.752 184.13 19.631 184.13 16.418ZM189.275 12.911C187.385 12.911 186.524 14.36 186.419 15.599H192.131C192.089 14.402 191.27 12.911 189.275 12.911Z"/><path fill="black" d="M35.948 21.5V21.7H36.148V21.5H35.948ZM33.491 21.5H33.291V21.7H33.491V21.5ZM33.491 7.493V7.293H33.291V7.493H33.491ZM43.088 7.493H43.288V7.293H43.088V7.493ZM43.088 9.656V9.856H43.288V9.656H43.088ZM35.948 9.656V9.456H35.748V9.656H35.948ZM35.948 13.289H35.748V13.489H35.948V13.289ZM42.941 13.289H43.141V13.089H42.941V13.289ZM42.941 15.452V15.652H43.141V15.452H42.941ZM35.948 15.452V15.252H35.748V15.452H35.948ZM35.948 21.5V21.3H33.491V21.5V21.7H35.948V21.5ZM33.491 21.5H33.691V7.493H33.491H33.291V21.5H33.491ZM33.491 7.493V7.693H43.088V7.493V7.293H33.491V7.493ZM43.088 7.493H42.888V9.656H43.088H43.288V7.493H43.088ZM43.088 9.656V9.456H35.948V9.656V9.856H43.088V9.656ZM35.948 9.656H35.748V13.289H35.948H36.148V9.656H35.948ZM35.948 13.289V13.489H42.941V13.289V13.089H35.948V13.289ZM42.941 13.289H42.741V15.452H42.941H43.141V13.289H42.941ZM42.941 15.452V15.252H35.948V15.452V15.652H42.941V15.452ZM35.948 15.452H35.748V21.5H35.948H36.148V15.452H35.948ZM47.11 21.5V21.7H47.31V21.5H47.11ZM44.905 21.5H44.705V21.7H44.905V21.5ZM44.905 11.357V11.157H44.705V11.357H44.905ZM47.11 11.357H47.31V11.157H47.11V11.357ZM47.11 12.848H46.91V13.4281L47.2675 12.9713L47.11 12.848ZM50.407 11.126H50.607V10.926H50.407V11.126ZM50.407 13.31L50.3636 13.5052L50.607 13.5593V13.31H50.407ZM47.11 14.591L46.9398 14.4859L46.91 14.5342V14.591H47.11ZM47.11 21.5V21.3H44.905V21.5V21.7H47.11V21.5ZM44.905 21.5H45.105V11.357H44.905H44.705V21.5H44.905ZM44.905 11.357V11.557H47.11V11.357V11.157H44.905V11.357ZM47.11 11.357H46.91V12.848H47.11H47.31V11.357H47.11ZM47.11 12.848L47.2675 12.9713C47.9949 12.0418 49.1592 11.326 50.407 11.326V11.126V10.926C49.0088 10.926 47.7371 11.7222 46.9525 12.7247L47.11 12.848ZM50.407 11.126H50.207V13.31H50.407H50.607V11.126H50.407ZM50.407 13.31L50.4504 13.1148C50.2427 13.0686 49.9961 13.047 49.714 13.047V13.247V13.447C49.9778 13.447 50.1933 13.4674 50.3636 13.5052L50.407 13.31ZM49.714 13.247V13.047C49.2117 13.047 48.6394 13.2166 48.1395 13.4733C47.6414 13.7292 47.1866 14.0863 46.9398 14.4859L47.11 14.591L47.2802 14.6961C47.4744 14.3817 47.8596 14.0668 48.3222 13.8292C48.7831 13.5924 49.2923 13.447 49.714 13.447V13.247ZM47.11 14.591H46.91V21.5H47.11H47.31V14.591H47.11ZM61.3833 17.153V17.353H61.5833V17.153H61.3833ZM53.5503 17.153V16.953H53.3272L53.3515 17.1748L53.5503 17.153ZM59.6613 18.833L59.8254 18.7188L59.6889 18.5225L59.5198 18.6916L59.6613 18.833ZM60.6693 20.282L60.8076 20.4264L60.9311 20.3081L60.8334 20.1678L60.6693 20.282ZM53.5293 15.599L53.33 15.5821L53.3116 15.799H53.5293V15.599ZM59.2413 15.599V15.799H59.4484L59.4411 15.592L59.2413 15.599ZM51.2403 16.418H51.4403C51.4403 13.5783 53.5026 11.305 56.3853 11.305V11.105V10.905C53.2619 10.905 51.0403 13.3777 51.0403 16.418H51.2403ZM56.3853 11.105V11.305C57.8533 11.305 59.0473 11.8652 59.8764 12.802C60.7075 13.7412 61.1833 15.0721 61.1833 16.628H61.3833H61.5833C61.5833 14.9919 61.0825 13.5613 60.1759 12.537C59.2673 11.5103 57.9623 10.905 56.3853 10.905V11.105ZM61.3833 16.628H61.1833V17.153H61.3833H61.5833V16.628H61.3833ZM61.3833 17.153V16.953H53.5503V17.153V17.353H61.3833V17.153ZM53.5503 17.153L53.3515 17.1748C53.53 18.8039 54.766 20.146 56.7843 20.146V19.946V19.746C54.9805 19.746 53.9065 18.5681 53.7491 17.1312L53.5503 17.153ZM56.7843 19.946V20.146C57.8136 20.146 59.0442 19.7329 59.8027 18.9744L59.6613 18.833L59.5198 18.6916C58.8503 19.3611 57.7289 19.746 56.7843 19.746V19.946ZM59.6613 18.833L59.4971 18.9472L60.5051 20.3962L60.6693 20.282L60.8334 20.1678L59.8254 18.7188L59.6613 18.833ZM60.6693 20.282L60.5309 20.1376C59.5687 21.0597 58.1319 21.552 56.5533 21.552V21.752V21.952C58.2086 21.952 59.7539 21.4363 60.8076 20.4264L60.6693 20.282ZM56.5533 21.752V21.552C55.078 21.552 53.8018 21.0388 52.8951 20.1473C51.9891 19.2563 51.4403 17.9757 51.4403 16.418H51.2403H51.0403C51.0403 18.0733 51.6255 19.4597 52.6147 20.4325C53.6033 21.4047 54.9836 21.952 56.5533 21.952V21.752ZM56.3853 12.911V12.711C55.3835 12.711 54.6417 13.0974 54.1391 13.6567C53.6409 14.2113 53.3855 14.9265 53.33 15.5821L53.5293 15.599L53.7286 15.6159C53.778 15.0325 54.0057 14.4037 54.4367 13.924C54.8633 13.4491 55.497 13.111 56.3853 13.111V12.911ZM53.5293 15.599V15.799H59.2413V15.599V15.399H53.5293V15.599ZM59.2413 15.599L59.4411 15.592C59.4188 14.9544 59.1901 14.2361 58.6958 13.6741C58.197 13.1068 57.4379 12.711 56.3853 12.711V12.911V13.111C57.3276 13.111 57.9756 13.4607 58.3955 13.9382C58.8199 14.4209 59.0218 15.0466 59.0414 15.606L59.2413 15.599ZM72.7577 17.153V17.353H72.9577V17.153H72.7577ZM64.9247 17.153V16.953H64.7016L64.7259 17.1748L64.9247 17.153ZM71.0357 18.833L71.1999 18.7188L71.0634 18.5225L70.8943 18.6916L71.0357 18.833ZM72.0437 20.282L72.1821 20.4264L72.3055 20.3081L72.2079 20.1678L72.0437 20.282ZM64.9037 15.599L64.7044 15.5821L64.6861 15.799H64.9037V15.599ZM70.6157 15.599V15.799H70.8229L70.8156 15.592L70.6157 15.599ZM62.6147 16.418H62.8147C62.8147 13.5783 64.8771 11.305 67.7597 11.305V11.105V10.905C64.6363 10.905 62.4147 13.3777 62.4147 16.418H62.6147ZM67.7597 11.105V11.305C69.2277 11.305 70.4217 11.8652 71.2508 12.802C72.082 13.7412 72.5577 15.0721 72.5577 16.628H72.7577H72.9577C72.9577 14.9919 72.457 13.5613 71.5504 12.537C70.6417 11.5103 69.3367 10.905 67.7597 10.905V11.105ZM72.7577 16.628H72.5577V17.153H72.7577H72.9577V16.628H72.7577ZM72.7577 17.153V16.953H64.9247V17.153V17.353H72.7577V17.153ZM64.9247 17.153L64.7259 17.1748C64.9044 18.8039 66.1404 20.146 68.1587 20.146V19.946V19.746C66.355 19.746 65.281 18.5681 65.1235 17.1312L64.9247 17.153ZM68.1587 19.946V20.146C69.188 20.146 70.4187 19.7329 71.1771 18.9744L71.0357 18.833L70.8943 18.6916C70.2248 19.3611 69.1034 19.746 68.1587 19.746V19.946ZM71.0357 18.833L70.8715 18.9472L71.8795 20.3962L72.0437 20.282L72.2079 20.1678L71.1999 18.7188L71.0357 18.833ZM72.0437 20.282L71.9053 20.1376C70.9431 21.0597 69.5063 21.552 67.9277 21.552V21.752V21.952C69.5831 21.952 71.1283 21.4363 72.1821 20.4264L72.0437 20.282ZM67.9277 21.752V21.552C66.4524 21.552 65.1762 21.0388 64.2696 20.1473C63.3635 19.2563 62.8147 17.9757 62.8147 16.418H62.6147H62.4147C62.4147 18.0733 62.9999 19.4597 63.9891 20.4325C64.9777 21.4047 66.358 21.952 67.9277 21.952V21.752ZM67.7597 12.911V12.711C66.758 12.711 66.0161 13.0974 65.5136 13.6567C65.0153 14.2113 64.76 14.9265 64.7044 15.5821L64.9037 15.599L65.103 15.6159C65.1524 15.0325 65.3801 14.4037 65.8111 13.924C66.2378 13.4491 66.8715 13.111 67.7597 13.111V12.911ZM64.9037 15.599V15.799H70.6157V15.599V15.399H64.9037V15.599ZM70.6157 15.599L70.8156 15.592C70.7932 14.9544 70.5645 14.2361 70.0703 13.6741C69.5714 13.1068 68.8124 12.711 67.7597 12.711V12.911V13.111C68.7021 13.111 69.35 13.4607 69.7699 13.9382C70.1944 14.4209 70.3962 15.0466 70.4158 15.606L70.6157 15.599ZM88.3917 21.5V21.7H88.5917V21.5H88.3917ZM79.7607 21.5H79.5607V21.7H79.7607V21.5ZM79.7607 7.493V7.293H79.5607V7.493H79.7607ZM82.2177 7.493H82.4177V7.293H82.2177V7.493ZM82.2177 19.337H82.0177V19.537H82.2177V19.337ZM88.3917 19.337H88.5917V19.137H88.3917V19.337ZM88.3917 21.5V21.3H79.7607V21.5V21.7H88.3917V21.5ZM79.7607 21.5H79.9607V7.493H79.7607H79.5607V21.5H79.7607ZM79.7607 7.493V7.693H82.2177V7.493V7.293H79.7607V7.493ZM82.2177 7.493H82.0177V19.337H82.2177H82.4177V7.493H82.2177ZM82.2177 19.337V19.537H88.3917V19.337V19.137H82.2177V19.337ZM88.3917 19.337H88.1917V21.5H88.3917H88.5917V19.337H88.3917ZM99.4367 17.153V17.353H99.6367V17.153H99.4367ZM91.6037 17.153V16.953H91.3806L91.4049 17.1748L91.6037 17.153ZM97.7147 18.833L97.8789 18.7188L97.7424 18.5225L97.5733 18.6916L97.7147 18.833ZM98.7227 20.282L98.8611 20.4264L98.9845 20.3081L98.8869 20.1678L98.7227 20.282ZM91.5827 15.599L91.3835 15.5821L91.3651 15.799H91.5827V15.599ZM97.2947 15.599V15.799H97.5019L97.4946 15.592L97.2947 15.599ZM89.2937 16.418H89.4937C89.4937 13.5783 91.5561 11.305 94.4387 11.305V11.105V10.905C91.3154 10.905 89.0937 13.3777 89.0937 16.418H89.2937ZM94.4387 11.105V11.305C95.9068 11.305 97.1007 11.8652 97.9298 12.802C98.761 13.7412 99.2367 15.0721 99.2367 16.628H99.4367H99.6367C99.6367 14.9919 99.136 13.5613 98.2294 12.537C97.3207 11.5103 96.0157 10.905 94.4387 10.905V11.105ZM99.4367 16.628H99.2367V17.153H99.4367H99.6367V16.628H99.4367ZM99.4367 17.153V16.953H91.6037V17.153V17.353H99.4367V17.153ZM91.6037 17.153L91.4049 17.1748C91.5835 18.8039 92.8195 20.146 94.8377 20.146V19.946V19.746C93.034 19.746 91.96 18.5681 91.8026 17.1312L91.6037 17.153ZM94.8377 19.946V20.146C95.8671 20.146 97.0977 19.7329 97.8562 18.9744L97.7147 18.833L97.5733 18.6916C96.9038 19.3611 95.7824 19.746 94.8377 19.746V19.946ZM97.7147 18.833L97.5506 18.9472L98.5586 20.3962L98.7227 20.282L98.8869 20.1678L97.8789 18.7188L97.7147 18.833ZM98.7227 20.282L98.5844 20.1376C97.6221 21.0597 96.1854 21.552 94.6067 21.552V21.752V21.952C96.2621 21.952 97.8073 21.4363 98.8611 20.4264L98.7227 20.282ZM94.6067 21.752V21.552C93.1315 21.552 91.8552 21.0388 90.9486 20.1473C90.0425 19.2563 89.4937 17.9757 89.4937 16.418H89.2937H89.0937C89.0937 18.0733 89.6789 19.4597 90.6681 20.4325C91.6568 21.4047 93.037 21.952 94.6067 21.952V21.752ZM94.4387 12.911V12.711C93.437 12.711 92.6952 13.0974 92.1926 13.6567C91.6943 14.2113 91.439 14.9265 91.3835 15.5821L91.5827 15.599L91.782 15.6159C91.8315 15.0325 92.0591 14.4037 92.4901 13.924C92.9168 13.4491 93.5505 13.111 94.4387 13.111V12.911ZM91.5827 15.599V15.799H97.2947V15.599V15.399H91.5827V15.599ZM97.2947 15.599L97.4946 15.592C97.4722 14.9544 97.2436 14.2361 96.7493 13.6741C96.2504 13.1068 95.4914 12.711 94.4387 12.711V12.911V13.111C95.3811 13.111 96.0291 13.4607 96.4489 13.9382C96.8734 14.4209 97.0752 15.0466 97.0949 15.606L97.2947 15.599ZM101.172 24.104L101.004 23.9956L100.913 24.1375L101.037 24.2515L101.172 24.104ZM102.201 22.508L102.352 22.377L102.178 22.1754L102.033 22.3996L102.201 22.508ZM108.417 19.841H108.617V19.2539L108.259 19.7189L108.417 19.841ZM108.417 12.764L108.258 12.8855L108.617 13.3548V12.764H108.417ZM108.417 11.357V11.157H108.217V11.357H108.417ZM110.622 11.357H110.822V11.157H110.622V11.357ZM108.417 18.203L108.586 18.3107L108.617 18.2614V18.203H108.417ZM108.417 14.423H108.617V14.3646L108.586 14.3153L108.417 14.423ZM101.172 24.104L101.34 24.2124L102.369 22.6164L102.201 22.508L102.033 22.3996L101.004 23.9956L101.172 24.104ZM102.201 22.508L102.05 22.639C102.917 23.6397 104.03 24.01 105.414 24.01V23.81V23.61C104.11 23.61 103.123 23.2663 102.352 22.377L102.201 22.508ZM105.414 23.81V24.01C106.165 24.01 106.964 23.8365 107.579 23.374C108.204 22.9047 108.617 22.155 108.617 21.059H108.417H108.217C108.217 22.042 107.853 22.6678 107.339 23.0542C106.815 23.4475 106.112 23.61 105.414 23.61V23.81ZM108.417 21.059H108.617V19.841H108.417H108.217V21.059H108.417ZM108.417 19.841L108.259 19.7189C107.513 20.6858 106.414 21.321 105.162 21.321V21.521V21.721C106.557 21.721 107.767 21.0122 108.576 19.9631L108.417 19.841ZM105.162 21.521V21.321C103.921 21.321 102.854 20.8733 102.095 20.0349C101.335 19.195 100.868 17.9448 100.868 16.313H100.668H100.468C100.468 18.0202 100.957 19.374 101.798 20.3033C102.641 21.2342 103.82 21.721 105.162 21.721V21.521ZM100.668 16.313H100.868C100.868 14.713 101.329 13.4621 102.088 12.6138C102.845 11.7673 103.912 11.305 105.162 11.305V11.105V10.905C103.808 10.905 102.629 11.4087 101.79 12.3472C100.952 13.2839 100.468 14.637 100.468 16.313H100.668ZM105.162 11.105V11.305C106.377 11.305 107.475 11.861 108.258 12.8855L108.417 12.764L108.576 12.6425C107.721 11.525 106.509 10.905 105.162 10.905V11.105ZM108.417 12.764H108.617V11.357H108.417H108.217V12.764H108.417ZM108.417 11.357V11.557H110.622V11.357V11.157H108.417V11.357ZM110.622 11.357H110.422V20.975H110.622H110.822V11.357H110.622ZM110.622 20.975H110.422C110.422 22.7453 109.77 23.8412 108.839 24.5027C107.897 25.1725 106.643 25.416 105.414 25.416V25.616V25.816C106.685 25.816 108.034 25.566 109.071 24.8288C110.12 24.0833 110.822 22.8587 110.822 20.975H110.622ZM105.414 25.616V25.416C103.73 25.416 102.501 25.0492 101.307 23.9565L101.172 24.104L101.037 24.2515C102.321 25.4268 103.655 25.816 105.414 25.816V25.616ZM108.417 18.203H108.617V14.423H108.417H108.217V18.203H108.417ZM108.417 14.423L108.586 14.3153C108.064 13.4991 106.907 12.858 105.813 12.858V13.058V13.258C106.777 13.258 107.804 13.8349 108.249 14.5307L108.417 14.423ZM105.813 13.058V12.858C104.888 12.858 104.118 13.2052 103.581 13.8218C103.046 14.4356 102.757 15.2996 102.757 16.313H102.957H103.157C103.157 15.3734 103.425 14.6099 103.882 14.0845C104.338 13.5618 104.995 13.258 105.813 13.258V13.058ZM102.957 16.313H102.757C102.757 17.3264 103.046 18.1904 103.581 18.8042C104.118 19.4208 104.888 19.768 105.813 19.768V19.568V19.368C104.995 19.368 104.338 19.0642 103.882 18.5415C103.425 18.0161 103.157 17.2526 103.157 16.313H102.957ZM105.813 19.568V19.768C106.907 19.768 108.064 19.1269 108.586 18.3107L108.417 18.203L108.249 18.0953C107.804 18.7911 106.777 19.368 105.813 19.368V19.568ZM121.565 21.5V21.7H121.765V21.5H121.565ZM119.36 21.5H119.16V21.7H119.36V21.5ZM119.36 20.408H119.56V19.8771L119.21 20.276L119.36 20.408ZM119.36 16.397L119.208 16.5269L119.56 16.9393V16.397H119.36ZM113.984 14.276L113.812 14.3775L113.941 14.5973L114.124 14.4191L113.984 14.276ZM113.081 12.743L112.943 12.5977L112.828 12.7072L112.909 12.8445L113.081 12.743ZM119.36 19.19L119.522 19.3076L119.56 19.255V19.19H119.36ZM119.36 17.657H119.56V17.592L119.522 17.5394L119.36 17.657ZM121.565 21.5V21.3H119.36V21.5V21.7H121.565V21.5ZM119.36 21.5H119.56V20.408H119.36H119.16V21.5H119.36ZM119.36 20.408L119.21 20.276C118.498 21.0863 117.381 21.552 116.084 21.552V21.752V21.952C117.475 21.952 118.71 21.4517 119.51 20.54L119.36 20.408ZM116.084 21.752V21.552C114.499 21.552 112.756 20.495 112.756 18.392H112.556H112.356C112.356 20.783 114.351 21.952 116.084 21.952V21.752ZM112.556 18.392H112.756C112.756 17.2868 113.196 16.5207 113.822 16.0263C114.454 15.5268 115.29 15.295 116.084 15.295V15.095V14.895C115.219 14.895 114.291 15.1462 113.574 15.7124C112.85 16.2838 112.356 17.1662 112.356 18.392H112.556ZM116.084 15.095V15.295C117.409 15.295 118.521 15.7227 119.208 16.5269L119.36 16.397L119.512 16.2671C118.728 15.3493 117.489 14.895 116.084 14.895V15.095ZM119.36 16.397H119.56V14.885H119.36H119.16V16.397H119.36ZM119.36 14.885H119.56C119.56 14.2363 119.291 13.7052 118.824 13.3413C118.362 12.9813 117.722 12.795 116.987 12.795V12.995V13.195C117.659 13.195 118.205 13.3657 118.578 13.6567C118.946 13.9438 119.16 14.3577 119.16 14.885H119.36ZM116.987 12.995V12.795C115.796 12.795 114.76 13.2388 113.844 14.1329L113.984 14.276L114.124 14.4191C114.972 13.5912 115.91 13.195 116.987 13.195V12.995ZM113.984 14.276L114.156 14.1745L113.253 12.6415L113.081 12.743L112.909 12.8445L113.812 14.3775L113.984 14.276ZM113.081 12.743L113.218 12.8883C114.353 11.8139 115.773 11.305 117.344 11.305V11.105V10.905C115.681 10.905 114.16 11.4461 112.943 12.5977L113.081 12.743ZM117.344 11.105V11.305C118.444 11.305 119.451 11.5371 120.177 12.0791C120.894 12.6138 121.365 13.4693 121.365 14.78H121.565H121.765C121.765 13.3607 121.248 12.3787 120.417 11.7584C119.595 11.1454 118.491 10.905 117.344 10.905V11.105ZM121.565 14.78H121.365V21.5H121.565H121.765V14.78H121.565ZM119.36 19.19H119.56V17.657H119.36H119.16V19.19H119.36ZM119.36 17.657L119.522 17.5394C118.968 16.7779 117.951 16.407 116.945 16.407V16.607V16.807C117.871 16.807 118.744 17.1501 119.198 17.7746L119.36 17.657ZM116.945 16.607V16.407C116.288 16.407 115.7 16.5962 115.272 16.9487C114.84 17.304 114.582 17.8172 114.582 18.434H114.782H114.982C114.982 17.9378 115.186 17.5375 115.526 17.2575C115.869 16.9748 116.362 16.807 116.945 16.807V16.607ZM114.782 18.434H114.582C114.582 19.0415 114.841 19.5494 115.272 19.9014C115.7 20.2509 116.288 20.44 116.945 20.44V20.24V20.04C116.362 20.04 115.869 19.8721 115.525 19.5916C115.185 19.3136 114.982 18.9185 114.982 18.434H114.782ZM116.945 20.24V20.44C117.951 20.44 118.968 20.0691 119.522 19.3076L119.36 19.19L119.198 19.0724C118.744 19.6969 117.871 20.04 116.945 20.04V20.24ZM126.314 21.5V21.7H126.514V21.5H126.314ZM124.109 21.5H123.909V21.7H124.109V21.5ZM124.109 7.493V7.293H123.909V7.493H124.109ZM126.314 7.493H126.514V7.293H126.314V7.493ZM126.314 21.5V21.3H124.109V21.5V21.7H126.314V21.5ZM124.109 21.5H124.309V7.493H124.109H123.909V21.5H124.109ZM124.109 7.493V7.693H126.314V7.493V7.293H124.109V7.493ZM126.314 7.493H126.114V21.5H126.314H126.514V7.493H126.314ZM146.601 21.5V21.7H146.894L146.787 21.4269L146.601 21.5ZM143.913 21.5L143.726 21.5715L143.775 21.7H143.913V21.5ZM142.884 18.812L143.07 18.7405L143.021 18.612H142.884V18.812ZM136.248 18.812V18.612H136.11L136.061 18.7405L136.248 18.812ZM135.219 21.5V21.7H135.356L135.405 21.5715L135.219 21.5ZM132.531 21.5L132.344 21.4269L132.237 21.7H132.531V21.5ZM138.033 7.493V7.293H137.896L137.846 7.41988L138.033 7.493ZM141.099 7.493L141.285 7.41988L141.235 7.293H141.099V7.493ZM142.191 16.649V16.849H142.478L142.378 16.5794L142.191 16.649ZM139.566 9.572L139.753 9.50245L139.566 8.9969L139.378 9.50245L139.566 9.572ZM136.941 16.649L136.753 16.5794L136.653 16.849H136.941V16.649ZM146.601 21.5V21.3H143.913V21.5V21.7H146.601V21.5ZM143.913 21.5L144.099 21.4285L143.07 18.7405L142.884 18.812L142.697 18.8835L143.726 21.5715L143.913 21.5ZM142.884 18.812V18.612H136.248V18.812V19.012H142.884V18.812ZM136.248 18.812L136.061 18.7405L135.032 21.4285L135.219 21.5L135.405 21.5715L136.434 18.8835L136.248 18.812ZM135.219 21.5V21.3H132.531V21.5V21.7H135.219V21.5ZM132.531 21.5L132.717 21.5731L138.219 7.56612L138.033 7.493L137.846 7.41988L132.344 21.4269L132.531 21.5ZM138.033 7.493V7.693H141.099V7.493V7.293H138.033V7.493ZM141.099 7.493L140.912 7.56612L146.414 21.5731L146.601 21.5L146.787 21.4269L141.285 7.41988L141.099 7.493ZM142.191 16.649L142.378 16.5794L139.753 9.50245L139.566 9.572L139.378 9.64155L142.003 16.7186L142.191 16.649ZM139.566 9.572L139.378 9.50245L136.753 16.5794L136.941 16.649L137.128 16.7186L139.753 9.64155L139.566 9.572ZM136.941 16.649V16.849H142.191V16.649V16.449H136.941V16.649ZM157.097 21.5V21.7H157.297V21.5H157.097ZM154.892 21.5H154.692V21.7H154.892V21.5ZM154.892 20.114H155.092V19.5269L154.734 19.9919L154.892 20.114ZM154.892 12.764L154.734 12.8855L155.092 13.3548V12.764H154.892ZM154.892 7.493V7.293H154.692V7.493H154.892ZM157.097 7.493H157.297V7.293H157.097V7.493ZM154.892 18.455L155.059 18.5659L155.092 18.5156V18.455H154.892ZM154.892 14.423H155.092V14.3624L155.059 14.3121L154.892 14.423ZM157.097 21.5V21.3H154.892V21.5V21.7H157.097V21.5ZM154.892 21.5H155.092V20.114H154.892H154.692V21.5H154.892ZM154.892 20.114L154.734 19.9919C153.992 20.9546 152.873 21.552 151.637 21.552V21.752V21.952C153.006 21.952 154.239 21.2894 155.051 20.2361L154.892 20.114ZM151.637 21.752V21.552C150.389 21.552 149.316 21.0802 148.553 20.2153C147.789 19.3486 147.322 18.071 147.322 16.439H147.122H146.922C146.922 18.146 147.411 19.5249 148.253 20.4799C149.097 21.4368 150.282 21.952 151.637 21.952V21.752ZM147.122 16.439H147.322C147.322 14.8387 147.784 13.555 148.547 12.6745C149.308 11.7961 150.381 11.305 151.637 11.305V11.105V10.905C150.269 10.905 149.085 11.4429 148.244 12.4125C147.406 13.38 146.922 14.7632 146.922 16.439H147.122ZM151.637 11.105V11.305C152.832 11.305 153.951 11.8615 154.734 12.8855L154.892 12.764L155.051 12.6425C154.196 11.5245 152.963 10.905 151.637 10.905V11.105ZM154.892 12.764H155.092V7.493H154.892H154.692V12.764H154.892ZM154.892 7.493V7.693H157.097V7.493V7.293H154.892V7.493ZM157.097 7.493H156.897V21.5H157.097H157.297V7.493H157.097ZM154.892 18.455H155.092V14.423H154.892H154.692V18.455H154.892ZM154.892 14.423L155.059 14.3121C154.518 13.5002 153.384 12.858 152.267 12.858V13.058V13.258C153.251 13.258 154.259 13.8338 154.726 14.5339L154.892 14.423ZM152.267 13.058V12.858C151.337 12.858 150.567 13.2355 150.032 13.8806C149.5 14.5223 149.211 15.4158 149.211 16.439H149.411H149.611C149.611 15.4882 149.88 14.6912 150.34 14.1359C150.797 13.584 151.455 13.258 152.267 13.258V13.058ZM149.411 16.439H149.211C149.211 17.4521 149.5 18.3404 150.032 18.9793C150.567 19.6216 151.338 19.999 152.267 19.999V19.799V19.599C151.454 19.599 150.797 19.2729 150.34 18.7234C149.879 18.1706 149.611 17.3789 149.611 16.439H149.411ZM152.267 19.799V19.999C153.381 19.999 154.516 19.38 155.059 18.5659L154.892 18.455L154.726 18.3441C154.261 19.042 153.254 19.599 152.267 19.599V19.799ZM164.68 21.5V21.7H164.814L164.865 21.5755L164.68 21.5ZM162.307 21.5L162.121 21.5755L162.172 21.7H162.307V21.5ZM158.17 11.357V11.157H157.872L157.984 11.4325L158.17 11.357ZM160.522 11.357L160.708 11.2844L160.658 11.157H160.522V11.357ZM163.483 18.959L163.296 19.0316L163.483 19.5101L163.669 19.0316L163.483 18.959ZM166.444 11.357V11.157H166.307L166.257 11.2844L166.444 11.357ZM168.817 11.357L169.002 11.4325L169.114 11.157H168.817V11.357ZM164.68 21.5V21.3H162.307V21.5V21.7H164.68V21.5ZM162.307 21.5L162.492 21.4245L158.355 11.2815L158.17 11.357L157.984 11.4325L162.121 21.5755L162.307 21.5ZM158.17 11.357V11.557H160.522V11.357V11.157H158.17V11.357ZM160.522 11.357L160.335 11.4296L163.296 19.0316L163.483 18.959L163.669 18.8864L160.708 11.2844L160.522 11.357ZM163.483 18.959L163.669 19.0316L166.63 11.4296L166.444 11.357L166.257 11.2844L163.296 18.8864L163.483 18.959ZM166.444 11.357V11.557H168.817V11.357V11.157H166.444V11.357ZM168.817 11.357L168.631 11.2815L164.494 21.4245L164.68 21.5L164.865 21.5755L169.002 11.4325L168.817 11.357ZM172.091 21.5V21.7H172.291V21.5H172.091ZM169.886 21.5H169.686V21.7H169.886V21.5ZM169.886 11.357V11.157H169.686V11.357H169.886ZM172.091 11.357H172.291V11.157H172.091V11.357ZM170.978 9.677V9.477C170.352 9.477 169.813 8.95555 169.813 8.312H169.613H169.413C169.413 9.18045 170.135 9.877 170.978 9.877V9.677ZM169.613 8.312H169.813C169.813 7.66845 170.352 7.147 170.978 7.147V6.947V6.747C170.135 6.747 169.413 7.44355 169.413 8.312H169.613ZM170.978 6.947V7.147C171.624 7.147 172.143 7.66646 172.143 8.312H172.343H172.543C172.543 7.44554 171.845 6.747 170.978 6.747V6.947ZM172.343 8.312H172.143C172.143 8.95754 171.624 9.477 170.978 9.477V9.677V9.877C171.845 9.877 172.543 9.17846 172.543 8.312H172.343ZM172.091 21.5V21.3H169.886V21.5V21.7H172.091V21.5ZM169.886 21.5H170.086V11.357H169.886H169.686V21.5H169.886ZM169.886 11.357V11.557H172.091V11.357V11.157H169.886V11.357ZM172.091 11.357H171.891V21.5H172.091H172.291V11.357H172.091ZM183.142 12.911L183.278 13.0576L183.409 12.936L183.302 12.7921L183.142 12.911ZM181.693 14.255L181.53 14.3708L181.662 14.5566L181.829 14.4016L181.693 14.255ZM181.693 18.602L181.829 18.4554L181.664 18.3024L181.531 18.4841L181.693 18.602ZM183.142 19.946L183.302 20.0649L183.409 19.921L183.278 19.7994L183.142 19.946ZM174.007 16.418H174.207C174.207 13.4587 176.284 11.305 179.257 11.305V11.105V10.905C176.055 10.905 173.807 13.2453 173.807 16.418H174.007ZM179.257 11.105V11.305C181.163 11.305 182.302 12.1118 182.981 13.0299L183.142 12.911L183.302 12.7921C182.553 11.7782 181.298 10.905 179.257 10.905V11.105ZM183.142 12.911L183.006 12.7644L181.557 14.1084L181.693 14.255L181.829 14.4016L183.278 13.0576L183.142 12.911ZM181.693 14.255L181.856 14.1392C181.251 13.2878 180.413 12.858 179.362 12.858V13.058V13.258C180.284 13.258 181 13.6262 181.53 14.3708L181.693 14.255ZM179.362 13.058V12.858C178.385 12.858 177.563 13.2258 176.987 13.8637C176.413 14.4998 176.096 15.3903 176.096 16.418H176.296H176.496C176.496 15.4717 176.787 14.6822 177.284 14.1318C177.779 13.5832 178.491 13.258 179.362 13.258V13.058ZM176.296 16.418H176.096C176.096 17.4457 176.413 18.341 176.987 18.9821C177.562 19.6252 178.384 19.999 179.362 19.999V19.799V19.599C178.492 19.599 177.78 19.2693 177.285 18.7154C176.787 18.1595 176.496 17.3643 176.496 16.418H176.296ZM179.362 19.799V19.999C180.415 19.999 181.251 19.5462 181.854 18.7199L181.693 18.602L181.531 18.4841C181 19.2118 180.282 19.599 179.362 19.599V19.799ZM181.693 18.602L181.557 18.7486L183.006 20.0926L183.142 19.946L183.278 19.7994L181.829 18.4554L181.693 18.602ZM183.142 19.946L182.981 19.8271C182.302 20.7452 181.163 21.552 179.257 21.552V21.752V21.952C181.298 21.952 182.553 21.0788 183.302 20.0649L183.142 19.946ZM179.257 21.752V21.552C176.284 21.552 174.207 19.3988 174.207 16.418H174.007H173.807C173.807 19.6112 176.055 21.952 179.257 21.952V21.752ZM194.273 17.153V17.353H194.473V17.153H194.273ZM186.44 17.153V16.953H186.217L186.241 17.1748L186.44 17.153ZM192.551 18.833L192.715 18.7188L192.579 18.5225L192.41 18.6916L192.551 18.833ZM193.559 20.282L193.697 20.4264L193.821 20.3081L193.723 20.1678L193.559 20.282ZM186.419 15.599L186.22 15.5821L186.201 15.799H186.419V15.599ZM192.131 15.599V15.799H192.338L192.331 15.592L192.131 15.599ZM184.13 16.418H184.33C184.33 13.5783 186.392 11.305 189.275 11.305V11.105V10.905C186.152 10.905 183.93 13.3777 183.93 16.418H184.13ZM189.275 11.105V11.305C190.743 11.305 191.937 11.8652 192.766 12.802C193.597 13.7412 194.073 15.0721 194.073 16.628H194.273H194.473C194.473 14.9919 193.972 13.5613 193.066 12.537C192.157 11.5103 190.852 10.905 189.275 10.905V11.105ZM194.273 16.628H194.073V17.153H194.273H194.473V16.628H194.273ZM194.273 17.153V16.953H186.44V17.153V17.353H194.273V17.153ZM186.44 17.153L186.241 17.1748C186.42 18.8039 187.656 20.146 189.674 20.146V19.946V19.746C187.87 19.746 186.796 18.5681 186.639 17.1312L186.44 17.153ZM189.674 19.946V20.146C190.703 20.146 191.934 19.7329 192.692 18.9744L192.551 18.833L192.41 18.6916C191.74 19.3611 190.619 19.746 189.674 19.746V19.946ZM192.551 18.833L192.387 18.9472L193.395 20.3962L193.559 20.282L193.723 20.1678L192.715 18.7188L192.551 18.833ZM193.559 20.282L193.421 20.1376C192.458 21.0597 191.022 21.552 189.443 21.552V21.752V21.952C191.098 21.952 192.644 21.4363 193.697 20.4264L193.559 20.282ZM189.443 21.752V21.552C187.968 21.552 186.692 21.0388 185.785 20.1473C184.879 19.2563 184.33 17.9757 184.33 16.418H184.13H183.93C183.93 18.0733 184.515 19.4597 185.504 20.4325C186.493 21.4047 187.873 21.952 189.443 21.952V21.752ZM189.275 12.911V12.711C188.273 12.711 187.531 13.0974 187.029 13.6567C186.531 14.2113 186.275 14.9265 186.22 15.5821L186.419 15.599L186.618 15.6159C186.668 15.0325 186.895 14.4037 187.326 13.924C187.753 13.4491 188.387 13.111 189.275 13.111V12.911ZM186.419 15.599V15.799H192.131V15.599V15.399H186.419V15.599ZM192.131 15.599L192.331 15.592C192.309 14.9544 192.08 14.2361 191.586 13.6741C191.087 13.1068 190.328 12.711 189.275 12.711V12.911V13.111C190.217 13.111 190.865 13.4607 191.285 13.9382C191.71 14.4209 191.912 15.0466 191.931 15.606L192.131 15.599Z" mask="url(#path-3-outside-1_228_1088)"/></svg>