<svg xmlns="http://www.w3.org/2000/svg" width="64" height="66" fill="none" viewBox="0 0 64 66"><path fill="#086EE9" stroke="black" stroke-linecap="round" stroke-linejoin="round" stroke-miterlimit="10" d="M61.0615 56.3386C60.6115 56.2488 60.1315 56.2788 59.6715 56.3086C59.2615 56.3386 58.8215 56.3787 58.4414 56.5288C58.4215 56.4087 58.4015 56.2886 58.3815 56.1687C58.1016 54.4788 57.8215 52.7788 57.5415 51.0886C57.2715 49.4387 57.0916 47.7788 56.0916 46.3687C55.5615 45.6086 54.9314 44.9287 54.3315 44.2288C53.2815 43.0088 52.1016 41.5488 51.9915 39.9187C51.9414 39.6787 51.9015 39.4387 51.8516 39.1887C53.9314 35.6086 55.3015 31.8486 56.1615 28.1887C57.0215 27.9888 57.8715 27.7788 58.7314 27.5586C58.7715 27.7488 58.8115 27.9287 58.8416 28.1086C59.1315 29.5886 59.4215 31.0688 59.7214 32.5488C60.0715 34.3586 60.4314 36.1687 60.7815 37.9688C60.7915 37.9888 60.7915 38.0088 60.7915 38.0288C61.3015 39.5886 60.7314 41.3486 60.2014 42.8188C59.9015 43.6687 59.5615 44.5088 59.3416 45.3987C58.9314 47.0288 59.3815 48.6487 59.7415 50.2788C60.1115 51.9587 60.4714 53.6387 60.8416 55.3188C60.9115 55.6587 60.9915 55.9988 61.0615 56.3386Z"/><path fill="#086EE9" stroke="black" stroke-linecap="round" stroke-linejoin="round" stroke-miterlimit="10" d="M63.161 62.6783C62.771 63.6483 61.8609 64.2383 60.911 64.4483C59.9809 64.6483 58.5009 64.9283 58.061 63.7183C57.571 62.3482 57.5009 60.5684 57.3809 59.1382C57.321 58.4083 57.291 57.6182 57.6909 57.0684C57.8809 56.8082 58.151 56.6382 58.4409 56.5284C58.821 56.3782 59.261 56.3382 59.671 56.3082C60.1309 56.2784 60.6109 56.2484 61.061 56.3382C61.331 56.3882 61.581 56.4883 61.821 56.6483C62.6809 57.2383 62.9609 58.4483 63.161 59.5184C63.351 60.5882 63.541 61.7283 63.161 62.6783Z"/><path fill="#086EE9" stroke="black" stroke-linecap="round" stroke-linejoin="round" stroke-miterlimit="10" d="M61.8711 26.3284C61.1711 26.9285 60.2611 27.1685 59.3711 27.3985C59.1611 27.4485 58.941 27.5086 58.7311 27.5584C57.8711 27.7786 57.0211 27.9886 56.1611 28.1885C56.4211 27.1285 56.6311 26.0687 56.8112 25.0186C56.951 24.1385 57.0712 23.2586 57.1711 22.3985C57.931 22.2486 58.681 22.1085 59.441 21.9585C60.0111 21.8484 60.5912 21.7386 61.1611 21.8685C62.0111 22.0687 62.3811 22.9385 62.6511 23.6885C63.0011 24.6385 62.5712 25.7186 61.8711 26.3284Z"/><path stroke="black" stroke-linecap="round" stroke-linejoin="round" stroke-miterlimit="10" d="M52.0986 39.467C54.8425 38.8728 57.5864 38.2787 60.3303 37.6846"/><path stroke="black" stroke-linecap="round" stroke-linejoin="round" stroke-miterlimit="10" d="M9.58136 23.3386C8.44122 23.2188 7.30133 23.0986 6.16131 22.9788C5.86126 20.9688 5.67132 18.9487 5.57135 16.9287C5.49127 15.4387 5.46124 13.9387 5.48126 12.4487C5.49127 11.4187 5.17132 9.79883 5.9013 8.94873C6.59137 8.1687 7.76129 7.85864 8.72125 7.52881C8.89129 7.46875 9.16131 7.34863 9.48126 7.21875C9.16131 7.56885 8.95123 8.04883 8.91131 8.56885C8.73126 11.1987 8.72125 13.8486 8.86126 16.4888C8.98126 18.7788 9.21124 21.0688 9.58136 23.3386Z"/><path stroke="black" stroke-linecap="round" stroke-linejoin="round" stroke-miterlimit="10" d="M34.6008 54.1482C33.8208 54.5881 32.8208 55.0381 31.9208 55.1082C31.0308 55.1682 30.0308 54.7881 29.2207 54.4983C25.5908 53.2083 22.3907 51.1182 19.4108 48.7283C16.5208 46.4182 14.0608 43.5881 12.1307 40.4282C9.91077 36.8081 8.35083 32.8081 7.30078 28.6982C8.46069 28.8184 9.62073 28.8982 10.7908 28.9783C11.8208 32.8381 13.3308 36.5781 15.4208 39.9883C17.9108 44.0381 21.2307 47.5381 25.2307 50.1082C26.8008 51.1082 28.4907 51.9082 30.2007 52.6282C31.0908 53.0083 31.9807 53.3682 32.8807 53.7283C33.4807 53.9783 34.0208 54.2083 34.6008 54.1482Z"/><path stroke="black" stroke-linecap="round" stroke-linejoin="round" stroke-miterlimit="10" d="M57.1708 22.3986C57.0708 23.2587 56.9507 24.1386 56.8108 25.0187C56.6307 26.0688 56.4208 27.1286 56.1608 28.1886C55.3008 31.8485 53.9307 35.6086 51.8508 39.1886C48.5007 44.9587 43.2808 50.2787 35.2707 53.9687C35.0408 54.0785 34.8208 54.1286 34.6008 54.1486C34.0207 54.2087 33.4807 53.9787 32.8807 53.7287C31.9807 53.3686 31.0908 53.0087 30.2007 52.6286C28.4907 51.9086 26.8008 51.1086 25.2307 50.1086C21.2307 47.5385 17.9108 44.0385 15.4208 39.9887C13.3308 36.5785 11.8208 32.8385 10.7908 28.9787C11.7507 29.0287 12.7207 29.0785 13.6907 29.1286C14.6008 29.1786 15.5508 29.2187 16.3907 28.8485C17.2407 28.4787 17.9707 27.5688 17.9208 26.5585C17.8508 25.1086 17.2507 24.5187 15.8108 24.2287C14.4208 23.9486 13.0207 23.7087 11.6107 23.5585C10.9307 23.4887 10.2607 23.4086 9.5808 23.3385C9.21068 21.0688 8.9807 18.7787 8.86071 16.4887C8.72069 13.8485 8.7307 11.1986 8.91076 8.56876C8.95067 8.04874 9.16076 7.56876 9.4807 7.21866C9.89074 6.77872 10.4607 6.5087 11.1008 6.49869C15.2507 6.45865 24.9507 5.83853 31.3607 1.39859C32.0408 0.928622 32.9108 0.868563 33.6507 1.24869C36.2908 2.59854 43.3308 5.47867 54.5708 5.09854C55.6807 5.0585 56.6608 5.84854 56.8408 6.94864C57.3008 9.83853 57.9407 15.6586 57.1708 22.3986Z"/><path fill="#086EE9" stroke="black" stroke-linecap="round" stroke-linejoin="round" stroke-miterlimit="10" d="M13.0307 29.0981C13.0207 29.2783 13.0007 29.4683 12.9807 29.6482C12.8207 31.1582 12.6607 32.6582 12.5007 34.1582C12.3107 35.9883 12.1207 37.8184 11.9207 39.6582V39.7183C11.9406 41.3481 10.8807 42.8582 9.94062 44.1182C9.4007 44.8381 8.83076 45.5381 8.36066 46.3184C7.49067 47.7683 7.44062 49.4382 7.30073 51.1082C7.1507 52.8184 7.01069 54.5381 6.86066 56.2483C6.83076 56.5881 6.80073 56.9382 6.7707 57.2783C6.37067 57.0684 5.9007 56.9482 5.46064 56.8481C5.06074 56.7483 4.63068 56.6682 4.22065 56.6982C4.24067 56.5781 4.25068 56.4583 4.2707 56.3381C4.50068 54.6282 4.73066 52.9282 4.96064 51.2283C5.18061 49.5781 5.50068 47.9382 4.97065 46.2983C4.68061 45.4082 4.28071 44.5781 3.91071 43.7283C3.2707 42.2583 2.57075 40.5083 2.94062 38.9182C3.12067 37.3582 3.30073 35.7983 3.48066 34.2383C3.6507 32.7783 3.82075 31.3081 3.98066 29.8481C4.04072 29.3281 4.10078 28.8081 4.16071 28.2783C5.20063 28.4583 6.25068 28.5881 7.30073 28.6982C8.46064 28.8184 9.62067 28.8982 10.7907 28.9783C11.5307 29.0183 12.2807 29.0581 13.0307 29.0981Z"/><path fill="#086EE9" stroke="black" stroke-linecap="round" stroke-linejoin="round" stroke-miterlimit="10" d="M7.84074 60.9488C7.71061 62.0188 7.56071 63.1587 6.91069 63.9688C6.26066 64.7789 5.21061 65.0689 4.24064 64.9888C3.29069 64.9087 1.79069 64.7388 1.73064 63.4588C1.66069 61.9988 2.13066 60.2789 2.43058 58.8787C2.58073 58.1687 2.8007 57.3987 3.34074 56.9888C3.61064 56.7989 3.91069 56.7088 4.22062 56.6988C4.63066 56.6687 5.06071 56.7488 5.46061 56.8487C5.90068 56.9488 6.37065 57.0689 6.77067 57.2789C7.01066 57.4187 7.23063 57.5887 7.41069 57.8086C8.06071 58.6287 7.97062 59.8587 7.84074 60.9488Z"/><path fill="#086EE9" stroke="black" stroke-linecap="round" stroke-linejoin="round" stroke-miterlimit="10" d="M17.9211 26.5582C17.9711 27.5685 17.2411 28.4784 16.3911 28.8483C15.5511 29.2184 14.6012 29.1784 13.691 29.1283C13.4711 29.1183 13.2511 29.1083 13.0311 29.0983C12.2811 29.0582 11.5311 29.0184 10.7911 28.9784C9.62108 28.8983 8.46105 28.8185 7.30114 28.6984C6.25109 28.5883 5.20104 28.4584 4.16112 28.2785C3.96105 28.2484 3.75109 28.2184 3.55114 28.1784C2.0111 27.8883 0.831169 26.6483 1.18102 25.0084C1.35119 24.2584 1.85119 23.5883 2.5111 23.2084C2.58117 23.1683 2.66112 23.1283 2.73107 23.0983C3.60118 22.7184 4.59118 22.8082 5.54113 22.9083C5.75109 22.9284 5.95104 22.9484 6.16112 22.9784C7.30114 23.0983 8.44103 23.2184 9.58117 23.3383C10.2611 23.4083 10.931 23.4884 11.6111 23.5582C13.0211 23.7084 14.4211 23.9484 15.8111 24.2284C17.2511 24.5184 17.8512 25.1083 17.9211 26.5582Z"/><path stroke="black" stroke-linecap="round" stroke-linejoin="round" stroke-miterlimit="10" d="M3.18457 38.5215C5.98166 38.7627 8.77874 39.0039 11.5758 39.2451"/><path stroke="black" stroke-linecap="round" stroke-linejoin="round" stroke-miterlimit="10" d="M33.1472 39.9281C40.3677 39.9281 46.2211 34.0747 46.2211 26.8542C46.2211 19.6337 40.3677 13.7803 33.1472 13.7803C25.9266 13.7803 20.0732 19.6337 20.0732 26.8542C20.0732 34.0747 25.9266 39.9281 33.1472 39.9281Z"/><path stroke="black" stroke-linecap="round" stroke-linejoin="round" stroke-miterlimit="10" d="M29.5879 26.3521L32.2882 29.7634L38.3185 22.8193"/></svg>