<svg width="260" height="23" viewBox="0 0 260 23" fill="none" xmlns="http://www.w3.org/2000/svg">
<path d="M0 0H8.9586C10.9774 0 13.2802 0.252748 14.952 1.48489C16.8447 2.875 17.7279 5.02335 17.7279 7.36126C17.7279 9.35165 16.9709 11.2788 15.5514 12.669C13.9111 14.3434 12.0815 14.7541 9.8103 14.7541H6.71895V18.956H9.17941V22.5577H0V18.956H2.42892V3.60165H0V0ZM6.71895 10.8681H9.27404C10.3466 10.8681 11.3244 10.8365 12.1761 10.1099C12.9963 9.41484 13.4064 8.40385 13.4064 7.36126C13.4064 6.2555 12.8701 5.21291 11.9869 4.61264C11.0721 3.94918 10.1257 3.91758 9.08478 3.91758H6.71895V10.8681ZM24.9077 0V18.956H27.0843V22.5577H18.725V18.956H21.0593V3.60165H18.8828V0H24.9077ZM42.0932 22.5577V20.283C40.863 22.147 38.8757 23 36.6676 23C31.8413 23 28.0245 18.9876 28.0245 14.217C28.0245 9.32006 31.936 5.24451 36.8569 5.24451C39.0334 5.24451 40.9261 6.25549 42.0932 8.08791V5.68681H48.1182V9.28846H46.0047V18.956H48.1182V22.5577H42.0932ZM37.0146 19.2404C39.9167 19.2404 42.1563 16.9025 42.1563 14.0275C42.1563 11.2473 39.8536 9.00412 37.0777 9.00412C34.2072 9.00412 31.9991 11.3736 31.9991 14.217C31.9991 16.9657 34.3018 19.2404 37.0146 19.2404ZM51.183 18.956V9.28846H49.0064V5.68681H55.0314V8.08791C56.0408 6.2239 57.9334 5.30769 60.0154 5.30769C61.8449 5.30769 63.643 6.06593 64.8732 7.39286C66.2612 8.94093 66.2927 10.4258 66.2927 12.353V18.956H68.4693V22.5577H60.2677V18.956H62.4443V13.4904C62.4443 12.4478 62.4443 11.3736 61.7819 10.4574C61.0879 9.54121 59.9523 9.0989 58.8167 9.0989C57.6495 9.0989 56.4509 9.5728 55.7569 10.5206C55.0314 11.4684 55.0314 12.9217 55.0314 14.0591V18.956H57.2079V22.5577H49.0064V18.956H51.183ZM75.5241 9.28846V18.956H78.5839V22.5577H71.6757V9.28846H69.026V5.68681H71.6757V0H75.5241V5.68681H78.3947V9.28846H75.5241ZM92.5847 17.5975H96.5908C95.266 20.8201 92.1431 23 88.6416 23C83.7207 23 79.7777 19.1456 79.7777 14.1854C79.7777 9.19368 83.5314 5.18132 88.547 5.18132C90.8813 5.18132 93.2156 6.2239 94.8559 7.89835C96.5277 9.66758 97.2217 11.8159 97.2217 14.217L97.0955 15.5756H83.4684C83.9731 17.9135 86.1181 19.6195 88.5155 19.6195C90.1873 19.6195 91.6384 18.9876 92.5847 17.5975ZM83.4368 12.6058H93.6572C92.9948 10.1731 90.8497 8.625 88.3577 8.625C86.0865 8.625 83.91 10.3942 83.4368 12.6058ZM112.145 22.5577V20.0302C110.883 21.9258 108.864 22.8104 106.624 22.8104C101.924 22.8104 98.0443 18.7981 98.0443 14.1223C98.0443 9.41483 101.83 5.40247 106.593 5.40247C108.738 5.40247 110.82 6.41346 112.145 8.1511V3.60165H109.937V0H115.993V18.956H118.17V22.5577H112.145ZM107.129 19.272C110 19.272 112.239 16.9025 112.239 14.0591C112.239 11.2788 109.937 9.00412 107.192 9.00412C104.322 9.00412 102.05 11.3104 102.05 14.1854C102.05 16.9657 104.322 19.272 107.129 19.272ZM128.673 0H137.631C139.65 0 141.953 0.252748 143.625 1.48489C145.517 2.875 146.401 5.02335 146.401 7.36126C146.401 9.35165 145.644 11.2788 144.224 12.669C142.584 14.3434 140.754 14.7541 138.483 14.7541H135.392V18.956H137.852V22.5577H128.673V18.956H131.102V3.60165H128.673V0ZM135.392 10.8681H137.947C139.019 10.8681 139.997 10.8365 140.849 10.1099C141.669 9.41484 142.079 8.40385 142.079 7.36126C142.079 6.2555 141.543 5.21291 140.66 4.61264C139.745 3.94918 138.798 3.91758 137.757 3.91758H135.392V10.8681ZM161.309 22.5577V20.283C160.079 22.147 158.091 23 155.883 23C151.057 23 147.24 18.9876 147.24 14.217C147.24 9.32006 151.151 5.24451 156.072 5.24451C158.249 5.24451 160.142 6.25549 161.309 8.08791V5.68681H167.334V9.28846H165.22V18.956H167.334V22.5577H161.309ZM156.23 19.2404C159.132 19.2404 161.372 16.9025 161.372 14.0275C161.372 11.2473 159.069 9.00412 156.293 9.00412C153.423 9.00412 151.215 11.3736 151.215 14.217C151.215 16.9657 153.517 19.2404 156.23 19.2404ZM173.963 5.68681V8.56181C174.941 6.57143 176.834 5.59203 179.01 5.49725V9.44643C177.78 9.50962 176.644 9.82555 175.698 10.6786C174.436 11.7527 174.247 13.1113 174.247 14.6909V18.956H176.423V22.5577H168.222V18.956H170.398V9.28846H168.222V5.68681H173.963ZM186.545 9.28846V18.956H189.605V22.5577H182.697V9.28846H180.047V5.68681H182.697V0H186.545V5.68681H189.416V9.28846H186.545ZM197.045 5.68681V18.956H199.221V22.5577H190.988V18.956H193.196V9.28846H191.02V5.68681H197.045ZM213.189 16.8709H217.479C216.438 20.4409 212.811 23 209.12 23C204.231 23 200.225 19.0508 200.225 14.1223C200.225 9.44643 203.915 5.18132 208.71 5.18132C210.603 5.18132 212.275 5.93956 213.536 7.29808V5.68681H216.849V11.3104H213.252C212.779 10.6154 212.148 10.0467 211.454 9.63599C210.729 9.22528 209.909 9.00412 209.057 9.00412C206.187 9.00412 204.073 11.3104 204.073 14.1223C204.073 16.9973 206.344 19.2088 209.152 19.2088C210.792 19.2088 212.464 18.3558 213.189 16.8709ZM224.863 0V18.956H227.04V22.5577H218.681V18.956H221.015V3.60165H218.838V0H224.863ZM240.819 17.5975H244.825C243.5 20.8201 240.377 23 236.876 23C231.955 23 228.012 19.1456 228.012 14.1854C228.012 9.19368 231.765 5.18132 236.781 5.18132C239.115 5.18132 241.449 6.2239 243.09 7.89835C244.762 9.66758 245.456 11.8159 245.456 14.217L245.329 15.5756H231.702C232.207 17.9135 234.352 19.6195 236.749 19.6195C238.421 19.6195 239.872 18.9876 240.819 17.5975ZM231.671 12.6058H241.891C241.229 10.1731 239.084 8.625 236.592 8.625C234.32 8.625 232.144 10.3942 231.671 12.6058ZM246.688 17.6607H250.631C250.758 19.1772 251.767 20.1882 253.344 20.1882C254.511 20.1882 255.647 19.3668 255.647 18.103C255.647 16.4286 254.07 16.1442 252.776 15.7967C249.843 15.0385 246.625 14.1223 246.625 10.4258C246.625 7.2033 249.338 5.33929 252.335 5.33929C253.849 5.33929 255.205 5.65522 256.152 6.85577V5.68681H258.991V10.2679H255.268C255.205 9.06731 254.29 8.27747 253.092 8.27747C252.051 8.27747 250.947 8.87775 250.947 10.0467C250.947 11.6264 252.492 11.9739 253.723 12.2582C256.751 12.9533 260 13.9011 260 17.6923C260 21.1044 257.129 23 253.975 23C252.272 23 250.726 22.4629 249.622 21.1676V22.5577H246.688V17.6607Z" fill="#21CA5A"/>
</svg>
