<svg xmlns="http://www.w3.org/2000/svg" width="69" height="66" fill="none" viewBox="0 0 69 66"><path stroke="#36394A" stroke-linecap="round" stroke-linejoin="round" stroke-miterlimit="10" d="M23.4307 40.4407C23.8111 39.6037 24.5324 39.0004 25.0954 38.2898C25.7305 37.488 26.3656 36.6863 27.0007 35.8845C27.7978 34.8782 28.595 33.8718 29.3922 32.8654C30.2984 31.7214 31.2046 30.5775 32.1108 29.4335C33.0729 28.2189 34.035 27.0043 34.9972 25.7897C35.9621 24.5714 36.9272 23.3532 37.8922 22.1349C38.807 20.98 39.7219 19.8251 40.6367 18.6702C41.4483 17.6456 42.2599 16.621 43.0716 15.5964C43.7269 14.7691 44.3822 13.9418 45.0375 13.1145C45.4835 12.5515 45.9295 11.9885 46.3755 11.4255C46.6933 11.0243 47.0936 10.7211 47.6356 10.7149C48.6764 10.7031 49.164 11.7765 49.6744 12.5159C50.2536 13.3551 50.8328 14.1943 51.4121 15.0335C52.1586 16.1151 52.9052 17.1967 53.6517 18.2783C54.5032 19.512 55.3547 20.7456 56.2062 21.9793C57.1003 23.2747 57.9944 24.5701 58.8886 25.8655C59.7629 27.1323 60.6373 28.3991 61.5117 29.6659C62.6299 31.286 63.7826 32.8819 64.9391 34.4747C65.5252 35.2819 66.1124 36.0883 66.6966 36.8968C66.9665 37.2704 67.2267 37.648 67.4893 38.0252C67.6103 38.1991 67.9904 38.6226 67.9151 38.8648C67.7825 39.2917 64.2857 39.1853 63.7609 39.2097C60.6801 39.3529 57.597 39.4402 54.5137 39.5056C48.411 39.635 42.3062 39.6769 36.2054 39.8905C34.2833 39.9578 32.3612 40.0251 30.4391 40.0924C29.039 40.1414 27.6389 40.1904 26.2388 40.2395C25.3029 40.2722 24.3643 40.4298 23.4307 40.4407Z"/><path stroke="#36394A" stroke-linecap="round" stroke-linejoin="round" stroke-miterlimit="10" d="M29.4736 36.8413C32.1354 33.4391 34.7972 30.0369 37.459 26.6347C39.2408 24.3572 41.0227 22.0797 42.8045 19.8022C43.9593 18.3262 45.0668 16.8274 46.2507 15.367C46.5021 15.0569 46.7826 14.7279 47.1716 14.6378C48.0074 14.4443 48.6206 15.3166 48.9989 15.9063C50.2421 17.8436 51.4427 19.7794 52.74 21.6813C54.5905 24.3942 56.4411 27.1071 58.2916 29.82C59.7111 31.9011 61.1307 33.9822 62.5502 36.0633"/><path fill="#0870EE" d="M2.40589 59.0205L1.74316 40.0908L23.3802 40.4559L24.2394 64.9974"/><path stroke="#36394A" stroke-linecap="round" stroke-linejoin="round" stroke-miterlimit="10" d="M2.40589 59.0205L1.74316 40.0908L23.3802 40.4559L24.2394 64.9974"/><path stroke="#36394A" stroke-linecap="round" stroke-linejoin="round" stroke-miterlimit="10" d="M40.413 61.8771C40.3798 60.9303 40.3466 59.9835 40.3135 59.0368C40.2519 57.2785 40.1904 55.5202 40.1288 53.7619C40.1105 53.2378 40.074 52.7124 40.0737 52.1879C40.0734 51.7759 40.0302 51.3576 40.054 50.9414C40.1057 50.0397 40.446 49.1422 41.0491 48.3507C42.151 46.9046 44.2293 45.6386 46.5292 45.6544C49.1462 45.6725 50.959 47.1466 51.5768 48.9333C51.9524 50.0194 51.9543 51.2062 52.0536 52.3305C52.1616 53.5513 52.2434 54.7739 52.2991 55.9975C52.4107 58.4447 52.4178 60.8962 52.3204 63.347"/><path fill="#0870EE" stroke="#36394A" stroke-linecap="round" stroke-linejoin="round" stroke-miterlimit="10" d="M47.0455 10.8584L23.3829 40.4581C22.5624 40.4365 21.7421 40.426 20.9325 40.4152C18.9893 40.3827 17.0462 40.3503 15.1031 40.3179C12.8038 40.2747 10.5045 40.2423 8.19431 40.1993C6.29446 40.1666 4.38375 40.1345 2.48383 40.1021C2.11675 40.0913 1.74977 40.0913 1.37197 40.0804C0.842944 40.0804 0.238445 39.994 0.799814 39.4327C0.983287 39.2492 1.14524 39.0334 1.30713 38.8389C1.78211 38.2991 2.25709 37.7488 2.74287 37.2091C4.07072 35.6868 5.39848 34.154 6.72624 32.6318C8.26991 30.8723 9.80282 29.1129 11.3357 27.3531C12.7174 25.7663 14.0992 24.1903 15.4809 22.6035C16.0423 21.9665 16.6036 21.3187 17.1542 20.6819C17.1542 20.9626 17.1542 21.2433 17.165 21.524C17.1757 22.2039 16.9059 23.9204 17.2945 24.5139C17.7263 25.1185 19.1621 24.8486 19.8421 24.8486C24.009 24.8811 28.1758 24.471 32.2672 23.6397C32.9796 23.4993 33.7028 23.3374 34.4262 23.1646C34.4369 23.0784 34.4369 23.0027 34.4477 22.9274C34.5233 22.3444 34.5988 21.7722 34.6852 21.1893C34.9227 19.5808 35.2034 17.9724 35.538 16.3747C35.7 15.5975 35.8618 14.8095 36.0562 14.0215C36.5096 13.8918 36.9521 13.773 37.4055 13.6436C38.1396 13.4385 38.8629 13.2332 39.5861 13.0282L41.594 12.4452C42.1769 12.2834 42.7707 12.1108 43.3535 11.9379C43.8501 11.7977 44.3467 11.6464 44.8325 11.5062C45.2211 11.3981 45.5989 11.2795 45.9767 11.1715C46.2359 11.0959 46.4841 11.0202 46.7324 10.9448C46.8404 10.9124 46.9375 10.8908 47.0455 10.8584Z"/><path stroke="#36394A" stroke-linecap="round" stroke-linejoin="round" stroke-miterlimit="10" d="M16.6924 46.9629L19.5407 47.239"/><path stroke="#36394A" stroke-linecap="round" stroke-linejoin="round" stroke-miterlimit="10" d="M15.6201 44.3887L18.1479 44.6338"/><path stroke="#36394A" stroke-linecap="round" stroke-linejoin="round" stroke-miterlimit="10" d="M17.3242 44.8418L17.3893 46.6994"/><path stroke="#36394A" stroke-linecap="round" stroke-linejoin="round" stroke-miterlimit="10" d="M7.68359 55.1914L10.5318 55.4676"/><path stroke="#36394A" stroke-linecap="round" stroke-linejoin="round" stroke-miterlimit="10" d="M6.61133 52.6162L9.13916 52.8613"/><path stroke="#36394A" stroke-linecap="round" stroke-linejoin="round" stroke-miterlimit="10" d="M8.31641 53.0693L8.38144 54.9269"/><path stroke="#36394A" stroke-linecap="round" stroke-linejoin="round" stroke-miterlimit="10" d="M66.1748 39.4326V63.4999"/><path stroke="#36394A" stroke-linecap="round" stroke-linejoin="round" stroke-miterlimit="10" d="M40.8428 49.2017C41.877 48.6908 42.9924 48.2939 44.1456 48.2643C45.2988 48.2347 46.4984 48.6106 47.2869 49.4526C48.3649 50.6036 48.4798 52.3285 48.5357 53.9045C48.6258 56.4408 48.7159 58.9771 48.8059 61.5134"/><path fill="#F2F2F2" stroke="#36394A" stroke-linecap="round" stroke-linejoin="round" stroke-miterlimit="10" d="M36.1213 35.6664C43.0938 35.3507 50.0663 35.0351 57.0387 34.7194C57.1332 34.6016 57.2234 34.4882 57.187 34.3416C56.0548 29.7851 51.4947 26.178 46.7831 26.1954C44.3227 26.2044 41.9054 27.1855 40.0259 28.7732C38.1464 30.3609 36.7944 32.5294 36.0364 34.8701C35.9812 35.0405 35.8628 35.1283 35.9057 35.3022C35.9485 35.4762 35.9557 35.598 36.1213 35.6664Z"/><path stroke="#36394A" stroke-linecap="round" stroke-linejoin="round" stroke-miterlimit="10" d="M46.3994 26.8496L46.6561 34.1804"/><path stroke="#36394A" stroke-linecap="round" stroke-linejoin="round" stroke-miterlimit="10" d="M37.7549 32.4463C43.4282 30.5846 49.6592 30.4612 55.4018 32.097"/><path stroke="#36394A" stroke-linecap="round" stroke-linejoin="round" stroke-miterlimit="10" d="M39.7689 4.11178C39.5422 4.59749 39.2292 5.06187 38.9917 5.53678C37.6099 8.1815 36.7355 11.0961 36.0554 14.0217C35.8611 14.8098 35.6992 15.5978 35.5373 16.375C35.2026 17.9726 34.922 19.5811 34.6845 21.1895C34.5981 21.7725 34.5226 22.3446 34.447 22.9276C34.4362 23.003 34.4362 23.0786 34.4254 23.1648C33.7021 23.3377 32.9789 23.4995 32.2664 23.64C28.1751 24.4712 24.0083 24.8813 19.8414 24.8489C19.1613 24.8489 17.7256 25.1187 17.2938 24.5142C16.9052 23.9206 17.175 22.2042 17.1642 21.5242C17.1535 21.2435 17.1535 20.9628 17.1535 20.6822C17.1427 18.6634 17.2075 16.634 17.3478 14.6153C17.5529 11.8411 17.8983 9.07757 18.3949 6.34641C18.6432 4.94301 18.9346 3.53961 19.2693 2.15782C19.4744 1.30498 19.388 1.32658 20.1328 1.09994C20.7914 0.905702 21.7413 1.04617 22.4214 1.04617C25.9082 1.02456 29.4057 1.3482 32.8602 1.82338C34.2527 2.01761 35.6453 2.23346 37.0378 2.47092C37.7611 2.61139 40.3734 2.79482 39.7689 4.11178Z"/><path stroke="#36394A" stroke-linecap="round" stroke-linejoin="round" stroke-miterlimit="10" d="M19.9649 24.7915C20.0167 24.8885 20.1046 24.8529 20.2414 24.8529C20.4074 24.8528 20.5733 24.8522 20.7392 24.8508C21.0583 24.8482 21.3774 24.8431 21.6964 24.8354C22.9724 24.8046 24.2475 24.7333 25.519 24.6217C26.6507 24.5223 27.7796 24.3909 28.9039 24.2278C29.4725 24.1453 30.0398 24.0547 30.6058 23.9559C30.7519 23.9304 32.2616 23.7022 32.2617 23.643C32.2715 18.7927 32.705 13.8978 33.8344 9.18895C33.8915 8.93176 33.7915 8.67623 33.5685 8.5436C32.7151 8.06424 32.1571 7.23577 32.0382 6.26426C32.0093 6.02866 32.0057 5.79029 32.0223 5.55362C32.0369 5.34615 32.1701 5.02521 32.1357 4.82999C32.0674 4.44304 31.5993 4.33479 31.2847 4.25784C30.8559 4.15295 30.4231 4.06398 29.9877 3.99098C29.1408 3.84895 28.2837 3.76738 27.4252 3.74656C26.6127 3.72685 25.7988 3.76159 24.9909 3.85115C24.5033 3.9052 23.4525 3.81927 23.3898 4.47561C23.3678 4.70566 23.4274 4.9482 23.4023 5.18487C23.3548 5.6341 23.2025 6.07304 22.9535 6.45057C22.7462 6.765 22.4732 7.03456 22.16 7.24333C21.8334 7.46108 21.4439 7.49179 21.1214 7.67232C20.555 7.9895 20.5036 8.99726 20.4335 9.60611C20.1483 12.0864 19.9705 14.5789 19.9004 17.0745C19.8647 18.3459 19.857 19.618 19.8772 20.8897C19.8877 21.547 19.9714 22.2003 20.0037 22.8565C20.0194 23.1762 20.0153 23.4965 20.0038 23.8163C19.9983 23.9698 19.9908 24.1233 19.9831 24.2767C19.977 24.3979 19.9099 24.6678 19.9649 24.7915Z"/><path fill="#0870EE" stroke="#36394A" stroke-linecap="round" stroke-linejoin="round" stroke-miterlimit="10" d="M29.0148 12.1906C29.0164 12.2918 28.9717 12.3935 28.8797 12.4963C28.7882 12.5986 28.6957 12.651 28.6027 12.652C28.5226 12.653 28.4332 12.6186 28.335 12.5477C28.0539 12.3411 27.7605 12.1577 27.4574 11.9994C27.1532 11.8407 26.8372 11.7107 26.5104 11.6094C26.5114 11.9686 26.514 12.3288 26.5191 12.6895C26.5237 13.0507 26.5263 13.413 26.5273 13.7763C26.5356 13.7763 26.5705 13.7783 26.6316 13.7814C26.6928 13.7845 26.7786 13.7897 26.888 13.7968C28.6043 13.8714 29.6438 14.491 30.006 15.6564C30.0857 15.9092 30.1268 16.162 30.1304 16.4154C30.1365 16.8717 30.0173 17.3254 29.7743 17.7765C29.3082 18.6444 28.5853 19.2245 27.6054 19.5164C27.2724 19.6135 26.9312 19.6649 26.5803 19.6695L26.5864 20.5821C26.588 20.7049 26.5458 20.8036 26.4605 20.8786C26.3742 20.9536 26.2786 20.9921 26.1733 20.9932C26.0633 20.9947 25.9678 20.9562 25.8866 20.8765C25.8095 20.8015 25.7668 20.4264 25.7576 19.7502C25.7566 19.6952 25.7561 19.6402 25.7555 19.5858C25.1831 19.4578 24.6672 19.1999 24.2079 18.8109C23.7485 18.4219 23.4078 17.9733 23.1858 17.4651C23.1509 17.3901 23.1329 17.3202 23.1319 17.257C23.1309 17.1594 23.1776 17.0715 23.2742 16.9919C23.3703 16.9128 23.4792 16.8722 23.602 16.8706C23.75 16.8686 23.8631 16.9554 23.9412 17.1322C24.2993 17.9471 24.9 18.4795 25.7437 18.7302C25.7386 18.0334 25.7334 17.3377 25.7288 16.6425C25.7237 15.9473 25.7185 15.251 25.7134 14.5542C24.8923 14.4767 24.2855 14.2752 23.8924 13.951C23.303 13.4608 23.0044 12.9403 22.9973 12.3915C22.9942 12.1932 23.0296 11.9917 23.1031 11.7882C23.2377 11.4106 23.4772 11.109 23.8235 10.8849C24.1688 10.6604 24.6015 10.5448 25.121 10.5376C25.2982 10.5355 25.4842 10.5478 25.679 10.5751C25.6764 10.3762 25.6908 10.1953 25.7227 10.0319C25.7545 9.86906 25.8737 9.78581 26.0808 9.78325C26.1908 9.7817 26.2874 9.8223 26.3706 9.90297C26.4539 9.98416 26.4965 10.0797 26.4975 10.1897L26.5052 10.7472C27.3407 10.9815 28.112 11.3602 28.8206 11.8823C28.9491 11.9737 29.0133 12.0765 29.0148 12.1906ZM25.1189 11.3556C24.9036 11.3582 24.695 11.4003 24.493 11.481C24.2916 11.5622 24.1251 11.6716 23.9941 11.8109C23.8626 11.9501 23.7983 12.1125 23.8004 12.2985C23.8014 12.3704 23.8153 12.4434 23.8415 12.5189C23.9515 12.8262 24.1344 13.0857 24.3913 13.2979C24.6513 13.5137 25.0886 13.6561 25.7021 13.7239L25.6841 11.4049C25.4806 11.3695 25.2921 11.353 25.1189 11.3556ZM26.5695 18.8453C27.3551 18.835 28.0164 18.5689 28.5549 18.0463C29.0636 17.5494 29.3144 17.0222 29.3072 16.4642C29.3046 16.2828 29.2743 16.0952 29.2168 15.9015C29.0051 15.2114 28.4162 14.8009 27.4512 14.6704C27.333 14.6508 27.1784 14.6349 26.9882 14.6226C26.7981 14.6103 26.6476 14.6031 26.5381 14.6005C26.5433 15.306 26.5484 16.0135 26.5535 16.7232C26.5592 17.4328 26.5638 18.1398 26.5695 18.8453Z"/><path stroke="#36394A" stroke-linecap="round" stroke-linejoin="round" stroke-miterlimit="10" d="M17.9719 24.8193C17.4886 24.8979 16.8951 24.8064 16.4092 24.7461"/><path stroke="#36394A" stroke-linecap="round" stroke-linejoin="round" stroke-miterlimit="10" d="M34.3477 23.2541C34.672 23.1883 34.9964 23.1225 35.3208 23.0566"/><path stroke="#36394A" stroke-linecap="round" stroke-linejoin="round" stroke-miterlimit="10" d="M59.752 47.5762L62.5533 47.6303"/><path stroke="#36394A" stroke-linecap="round" stroke-linejoin="round" stroke-miterlimit="10" d="M58.8506 44.7422L61.3368 44.7902"/><path stroke="#36394A" stroke-linecap="round" stroke-linejoin="round" stroke-miterlimit="10" d="M60.5085 45.1016L60.458 47.2119"/></svg>