<svg xmlns="http://www.w3.org/2000/svg" width="36" height="36" fill="none" viewBox="0 0 36 36"><g clip-path="url(#clip0_28_31169)"><path fill="black" d="M2.86668 -0.0368436C3.00236 -0.0372686 3.13803 -0.0378156 3.27371 -0.0384738C3.64584 -0.0399196 4.01795 -0.0396126 4.39008 -0.0390109C4.79169 -0.038664 5.1933 -0.0399316 5.59491 -0.040985C6.38145 -0.0427779 7.16798 -0.0430297 7.95452 -0.0427006C8.59387 -0.0424498 9.23321 -0.0426958 9.87256 -0.0432946C9.96356 -0.0433783 10.0546 -0.043462 10.1483 -0.0435482C10.3332 -0.0437186 10.518 -0.0438894 10.7029 -0.0440605C11.9441 -0.0451555 13.1854 -0.0457067 14.4266 -0.0451409C14.4751 -0.0451189 14.5236 -0.0450969 14.5736 -0.0450743C14.8195 -0.044961 15.0655 -0.044842 15.3114 -0.0447208C15.3846 -0.0446848 15.3846 -0.0446848 15.4594 -0.0446479C15.5581 -0.0445992 15.6569 -0.0445502 15.7556 -0.0445009C17.2922 -0.0437476 18.8287 -0.0448626 20.3653 -0.0474587C22.0925 -0.0503735 23.8196 -0.0518758 25.5467 -0.0513153C26.4609 -0.0510464 27.3751 -0.0513969 28.2893 -0.0533845C29.0676 -0.0550596 29.8458 -0.0552579 30.6241 -0.0535547C31.0211 -0.0527263 31.4181 -0.0525726 31.8151 -0.0542581C32.1787 -0.0557843 32.5424 -0.0553499 32.9061 -0.0533776C33.0374 -0.0530051 33.1687 -0.053339 33.3 -0.0544654C34.1096 -0.060928 34.7947 -0.0198237 35.4363 0.544094C35.9711 1.09724 36.0425 1.74 36.0375 2.47833C36.0378 2.56645 36.038 2.65458 36.0383 2.74537C36.0385 2.97817 36.0374 3.21092 36.0358 3.44372C36.0353 3.58566 36.0358 3.72754 36.0368 3.86948C36.0385 4.14407 36.0383 4.41858 36.0375 4.69318C36.0381 4.77713 36.0386 4.86108 36.0392 4.94758C36.0313 5.65572 35.8555 6.17173 35.3717 6.69406C34.7357 7.24699 34.0887 7.242 33.2579 7.242C33.2579 14.3422 33.2579 21.4423 33.2579 28.7576C33.5596 28.7576 33.8612 28.7576 34.172 28.7576C34.8889 28.9094 35.3371 29.2187 35.7733 29.8035C35.9551 30.1185 36.0178 30.4232 36.0228 30.7837C36.0241 30.8626 36.0255 30.9415 36.0269 31.0227C36.0278 31.1493 36.0278 31.1493 36.0287 31.2784C36.0295 31.3664 36.0303 31.4543 36.0311 31.5449C36.0325 31.7308 36.0334 31.9167 36.0339 32.1027C36.0345 32.2918 36.0365 32.4809 36.0397 32.6701C36.044 32.9445 36.0455 33.2188 36.0463 33.4933C36.0489 33.6186 36.0489 33.6186 36.0515 33.7464C36.0481 34.3904 35.8851 34.9321 35.4641 35.4323C35.3442 35.5439 35.223 35.6289 35.0861 35.7186C35.0473 35.7441 35.0086 35.7696 34.9687 35.796C34.403 36.1024 33.7578 36.0392 33.1336 36.0365C32.9979 36.0369 32.8622 36.0375 32.7266 36.0381C32.3544 36.0396 31.9823 36.0392 31.6102 36.0386C31.2086 36.0383 30.807 36.0396 30.4054 36.0406C29.6188 36.0424 28.8323 36.0427 28.0457 36.0423C27.4064 36.0421 26.7671 36.0423 26.1277 36.0429C26.0367 36.043 25.9457 36.0431 25.852 36.0432C25.6671 36.0434 25.4822 36.0435 25.2974 36.0437C24.0561 36.0448 22.8149 36.0453 21.5737 36.0448C21.5009 36.0447 21.5009 36.0447 21.4266 36.0447C21.1807 36.0446 20.9348 36.0445 20.6889 36.0444C20.6156 36.0443 20.6156 36.0443 20.5409 36.0443C20.4421 36.0442 20.3434 36.0442 20.2446 36.0441C18.7081 36.0434 17.1715 36.0445 15.635 36.0471C13.9078 36.05 12.1807 36.0515 10.4535 36.0509C9.53934 36.0507 8.62516 36.051 7.71098 36.053C6.9327 36.0547 6.15444 36.0549 5.37615 36.0532C4.97916 36.0524 4.5822 36.0522 4.18521 36.0539C3.82152 36.0554 3.45788 36.055 3.0942 36.053C2.9629 36.0526 2.83159 36.053 2.7003 36.0541C1.89063 36.0606 1.20553 36.0195 0.564015 35.4555C0.0291789 34.9024 -0.0422259 34.2596 -0.037219 33.5213C-0.0374881 33.4332 -0.0377572 33.3451 -0.0380344 33.2543C-0.0382736 33.0215 -0.0371505 32.7887 -0.0355711 32.5559C-0.0350222 32.414 -0.0355694 32.2721 -0.0365324 32.1302C-0.0382771 31.8556 -0.0380575 31.581 -0.037219 31.3065C-0.0377884 31.2225 -0.0383577 31.1386 -0.0389442 31.0521C-0.0310505 30.3437 0.145056 29.8285 0.628278 29.3056C1.27073 28.7481 1.90014 28.7576 2.74232 28.7576C2.74232 21.6575 2.74232 14.5573 2.74232 7.242C2.44068 7.242 2.13904 7.242 1.82826 7.242C1.11141 7.0902 0.663173 6.78092 0.227002 6.19611C0.0452092 5.88115 -0.0175061 5.57643 -0.0225248 5.21595C-0.0238759 5.13706 -0.025227 5.05817 -0.026619 4.97689C-0.0272166 4.89251 -0.0278142 4.80813 -0.02843 4.72119C-0.0292316 4.63327 -0.0300331 4.54535 -0.030859 4.45477C-0.0321857 4.26883 -0.0331566 4.08292 -0.0336485 3.89698C-0.0342642 3.70779 -0.0362145 3.51869 -0.0394163 3.32953C-0.0437289 3.05511 -0.0451896 2.7808 -0.0460081 2.50635C-0.0477444 2.42282 -0.0494806 2.3393 -0.0512695 2.25324C-0.0478813 1.60918 0.115188 1.06748 0.536173 0.567301C0.656117 0.455734 0.777294 0.370766 0.914197 0.281067C0.972287 0.242753 0.972287 0.242753 1.03155 0.203666C1.59731 -0.102778 2.24243 -0.0396079 2.86668 -0.0368436ZM2.10951 2.10919C2.10951 3.08372 2.10951 4.05825 2.10951 5.06232C12.5973 5.06232 23.0851 5.06232 33.8908 5.06232C33.8908 4.08779 33.8908 3.11325 33.8908 2.10919C23.4029 2.10919 12.9151 2.10919 2.10951 2.10919ZM4.92201 7.242C4.92201 14.3422 4.92201 21.4423 4.92201 28.7576C13.5536 28.7576 22.1851 28.7576 31.0783 28.7576C31.0783 21.6575 31.0783 14.5573 31.0783 7.242C22.4467 7.242 13.8151 7.242 4.92201 7.242ZM2.10951 30.9373C2.10951 31.9118 2.10951 32.8864 2.10951 33.8904C12.5973 33.8904 23.0851 33.8904 33.8908 33.8904C33.8908 32.9159 33.8908 31.9414 33.8908 30.9373C23.4029 30.9373 12.9151 30.9373 2.10951 30.9373Z"/><path fill="black" d="M18.422 9.2812C18.7304 9.43829 18.9319 9.62776 19.1252 9.91401C19.1889 10.1145 19.2041 10.2951 19.2034 10.5047C19.2034 10.5652 19.2034 10.6258 19.2034 10.6881C19.2031 10.7528 19.2027 10.8175 19.2023 10.8841C19.2022 10.9842 19.2022 10.9842 19.202 11.0863C19.2016 11.299 19.2008 11.5118 19.1999 11.7246C19.1995 11.8689 19.1992 12.0133 19.1989 12.1577C19.1981 12.5114 19.1969 12.865 19.1955 13.2187C19.2641 13.2181 19.3328 13.2175 19.4035 13.2168C20.0511 13.2111 20.6987 13.2069 21.3463 13.2041C21.6793 13.2027 22.0122 13.2007 22.3451 13.1975C22.6665 13.1944 22.9879 13.1927 23.3093 13.192C23.4318 13.1915 23.5543 13.1905 23.6768 13.189C23.8487 13.1869 24.0205 13.1866 24.1924 13.1868C24.2428 13.1858 24.2932 13.1847 24.3452 13.1837C24.7004 13.1866 24.8999 13.275 25.172 13.5C25.2806 13.631 25.2806 13.631 25.3572 13.7641C25.3999 13.8377 25.3999 13.8377 25.4433 13.9128C25.5676 14.1444 25.6839 14.3784 25.7947 14.6167C25.8188 14.668 25.843 14.7192 25.8679 14.772C25.9454 14.9367 26.0224 15.1016 26.0993 15.2666C26.1526 15.3805 26.206 15.4945 26.2594 15.6085C26.3647 15.8335 26.4698 16.0586 26.5746 16.2839C26.6629 16.4737 26.7515 16.6633 26.8407 16.8527C26.9399 17.0635 27.0383 17.2745 27.1364 17.4858C27.1641 17.5444 27.1918 17.603 27.2203 17.6634C27.6344 18.5658 27.7032 19.5119 27.3742 20.4584C27.0286 21.253 26.4122 21.8625 25.626 22.2212C24.7563 22.5627 23.8483 22.5093 22.9923 22.1484C22.1463 21.7155 21.6597 21.1263 21.3048 20.25C20.9322 19.0285 21.3881 17.9829 21.9025 16.8837C21.9506 16.7794 21.9987 16.675 22.0467 16.5706C22.2391 16.1534 22.4352 15.7391 22.6408 15.3281C21.5038 15.3281 20.3669 15.3281 19.1955 15.3281C19.1955 18.3677 19.1955 21.4073 19.1955 24.539C20.0308 24.539 20.8661 24.539 21.7267 24.539C22.3897 24.9534 22.3897 24.9534 22.5002 25.3125C22.5541 25.6858 22.5324 26.0077 22.3139 26.3239C22.1168 26.5596 21.8676 26.6958 21.5679 26.7446C21.383 26.7552 21.2001 26.7567 21.015 26.7551C20.9102 26.7558 20.9102 26.7558 20.8034 26.7566C20.5737 26.7578 20.344 26.757 20.1142 26.7561C19.9539 26.7562 19.7936 26.7565 19.6332 26.7569C19.2976 26.7573 18.9619 26.7567 18.6263 26.7554C18.1968 26.7538 17.7675 26.7547 17.338 26.7564C17.007 26.7574 16.6761 26.7571 16.3451 26.7563C16.1868 26.7561 16.0285 26.7564 15.8702 26.757C15.6486 26.7578 15.427 26.7567 15.2054 26.7551C15.1405 26.7557 15.0755 26.7562 15.0086 26.7568C14.5895 26.7514 14.2731 26.6732 13.922 26.4375C13.7158 26.2016 13.6493 25.9348 13.6056 25.6289C13.6493 25.3229 13.7158 25.0561 13.922 24.8203C14.4845 24.539 14.4845 24.539 17.0158 24.539C17.0158 21.4994 17.0158 18.4598 17.0158 15.3281C15.8788 15.3513 14.7419 15.3745 13.5705 15.3984C13.7111 15.7 13.8518 16.0017 13.9967 16.3125C14.558 17.5211 14.558 17.5211 14.779 18.0175C14.8148 18.0977 14.8506 18.1778 14.8875 18.2603C15.2445 19.1875 15.2356 20.1808 14.8361 21.0937C14.711 21.3187 14.5708 21.5225 14.4142 21.7265C14.3736 21.7874 14.333 21.8483 14.2912 21.9111C13.7626 22.4691 12.9917 22.9172 12.2104 22.9386C11.0555 22.9635 10.2191 22.7582 9.34293 21.9726C8.65742 21.2597 8.42669 20.353 8.41211 19.396C8.47849 18.6915 8.75413 18.0825 9.05728 17.4506C9.09744 17.3658 9.13754 17.2809 9.17758 17.1959C9.26187 17.0173 9.34647 16.8388 9.43126 16.6603C9.5654 16.3776 9.69757 16.094 9.82935 15.8101C9.85123 15.763 9.87311 15.7159 9.89566 15.6674C9.9811 15.4834 10.0665 15.2995 10.1519 15.1155C10.3451 14.6998 10.5393 14.2845 10.7396 13.8721C10.7659 13.8177 10.7922 13.7634 10.8193 13.7074C10.9582 13.4671 11.148 13.3401 11.3908 13.2187C11.5689 13.2122 11.745 13.2099 11.9231 13.2107C12.0054 13.2107 12.0054 13.2107 12.0894 13.2107C12.2713 13.2107 12.4531 13.2113 12.635 13.2118C12.7609 13.212 12.8868 13.2121 13.0127 13.2121C13.3445 13.2124 13.6762 13.2131 14.008 13.2139C14.3464 13.2146 14.6847 13.2149 15.0231 13.2153C15.6873 13.216 16.3516 13.2172 17.0158 13.2187C17.0152 13.1791 17.0145 13.1395 17.0139 13.0988C17.0077 12.6858 17.0034 12.2729 17.0003 11.86C16.9989 11.706 16.997 11.552 16.9946 11.398C16.9911 11.1764 16.9896 10.9547 16.9883 10.733C16.9869 10.6645 16.9854 10.5959 16.9839 10.5253C16.9838 10.1097 17.0235 9.88058 17.297 9.56245C17.6348 9.26562 17.9871 9.22758 18.422 9.2812ZM11.7423 16.875C11.5933 17.1915 11.4444 17.508 11.2956 17.8247C11.245 17.9324 11.1943 18.0401 11.1436 18.1477C11.0707 18.3025 10.9979 18.4573 10.9252 18.6122C10.9025 18.6603 10.8798 18.7084 10.8564 18.758C10.675 19.1451 10.5602 19.4667 10.6173 19.8984C10.7616 20.2874 11.0214 20.5575 11.3908 20.7421C11.7603 20.779 12.069 20.7889 12.4059 20.6235C12.7377 20.3241 12.92 20.099 12.9599 19.646C12.9546 19.2783 12.8102 18.9895 12.652 18.6635C12.6093 18.5723 12.6093 18.5723 12.5658 18.4793C12.5077 18.3555 12.4492 18.2319 12.3903 18.1085C12.2866 17.8914 12.1854 17.6731 12.0843 17.4548C11.9945 17.2611 11.9036 17.068 11.8127 16.875C11.7894 16.875 11.7662 16.875 11.7423 16.875ZM24.3283 16.875C24.1985 17.1459 24.0697 17.4173 23.9416 17.6891C23.898 17.7813 23.8541 17.8734 23.81 17.9654C23.7464 18.0983 23.6837 18.2316 23.621 18.365C23.5831 18.4449 23.5452 18.5248 23.5061 18.6071C23.3697 18.9584 23.3118 19.2265 23.4186 19.5908C23.5976 19.9026 23.7741 20.1165 24.1275 20.2266C24.4644 20.2846 24.7102 20.2577 24.9957 20.0646C25.2556 19.8295 25.3748 19.6004 25.3979 19.2509C25.3814 18.9572 25.3133 18.7754 25.188 18.5105C25.168 18.4679 25.148 18.4252 25.1275 18.3812C25.0855 18.2919 25.043 18.2027 25.0002 18.1138C24.9345 17.9775 24.8702 17.8407 24.8062 17.7037C24.6136 17.2585 24.6136 17.2585 24.3283 16.875Z"/></g><defs><clipPath id="clip0_28_31169"><rect width="36" height="36" fill="white"/></clipPath></defs></svg>