<svg xmlns="http://www.w3.org/2000/svg" width="56" height="64" fill="none" viewBox="0 0 56 64"><path stroke="black" stroke-linecap="round" stroke-linejoin="round" stroke-miterlimit="10" d="M54.4907 26.0834C53.5791 37.5353 44.5222 46.3791 33.4579 47.407C33.1864 47.407 32.9246 47.3876 32.6531 47.3488C32.3234 47.3002 31.984 47.2323 31.664 47.1355C27.8046 46.1464 24.5464 42.8978 24.4398 38.7571V38.6603C24.4301 37.7197 24.5561 36.7986 24.6046 35.8675C24.6531 34.9075 24.6046 33.9184 24.2167 33.0263C23.8288 32.144 23.0531 31.3876 22.1028 31.2323C20.6386 30.9804 19.8822 32.2699 19.2131 33.327C19.2422 32.3282 19.3101 31.4264 18.864 30.505C18.4567 29.6324 17.7295 28.9051 16.8277 28.5562C15.538 28.0519 14.0058 28.362 12.9489 29.2349C12.5997 29.5064 12.3088 29.8457 12.0858 30.2337C11.6204 28.8275 10.0398 27.8675 8.57553 28.1099C6.62643 28.43 5.75368 30.3597 5.44343 32.3961C5.43372 32.4349 5.43372 32.4735 5.42402 32.5026C4.26037 29.3997 3.73676 25.996 4.01795 22.4761C4.50279 16.3379 7.344 10.9366 11.5719 7.11605C12.2895 6.44701 13.0458 5.83598 13.841 5.29289C14.2289 5.01164 14.6361 4.74034 15.0531 4.48821C15.3149 4.3232 15.5767 4.16813 15.8483 4.01307C16.1101 3.86747 16.3719 3.73182 16.6337 3.59593C16.6628 3.57652 16.6919 3.56705 16.7307 3.54763C17.041 3.39233 17.3416 3.23726 17.6616 3.10161C17.9719 2.95601 18.2919 2.82036 18.6119 2.69418C18.6313 2.68447 18.6603 2.67476 18.6895 2.66506C18.9416 2.56823 19.184 2.47117 19.4362 2.38381C19.6786 2.29669 19.9306 2.20933 20.1828 2.13191C20.2216 2.12197 20.2604 2.1125 20.2895 2.10256C20.5804 2.00573 20.8616 1.92808 21.1525 1.85066C21.2592 1.82154 21.3561 1.79242 21.4531 1.77301C22.161 1.58883 22.8786 1.44323 23.6058 1.3367C23.9937 1.27846 24.3719 1.22022 24.7598 1.18139C25.0604 1.15227 25.3707 1.12339 25.681 1.11368C25.8264 1.10398 25.9719 1.09427 26.1173 1.09427C26.4567 1.07486 26.7864 1.06515 27.1258 1.06515C27.6689 1.04574 28.2216 1.05545 28.784 1.09427C29.0264 1.06515 29.2785 1.04574 29.5307 1.03603C30.7137 0.948675 31.9064 0.948675 33.1283 1.04574C45.9379 2.05426 55.5088 13.264 54.4907 26.0834Z"/><path stroke="black" stroke-linecap="round" stroke-linejoin="round" stroke-miterlimit="10" d="M50.2439 24.3284C50.2439 35.6156 42.2633 45.0219 31.6646 47.1357C27.8052 46.1466 24.547 42.898 24.4403 38.7574V38.6606C24.4306 37.72 24.5567 36.7989 24.6051 35.8677C24.6537 34.9078 24.6051 33.9186 24.2173 33.0266C23.8294 32.1443 23.0537 31.3879 22.1034 31.2326C20.6391 30.9807 19.8827 32.2702 19.2136 33.3273C19.2428 32.3284 19.3106 31.4267 18.8646 30.5053C18.4573 29.6327 17.73 28.9054 16.8282 28.5564C15.5385 28.0522 14.0064 28.3623 12.9494 29.2352C12.6003 29.5067 12.3094 29.846 12.0864 30.234C11.6209 28.8277 10.0403 27.8677 8.57608 28.1102C6.62698 28.4302 5.75423 30.3599 5.44398 32.3964C4.51305 29.8848 4.00879 27.1696 4.00879 24.3284C4.00879 15.931 8.43061 8.58058 15.0537 4.48848C15.3155 4.32348 15.5773 4.16841 15.8488 4.01335C16.1106 3.86775 16.3724 3.7321 16.6343 3.59621C16.6633 3.57679 16.6924 3.56732 16.7312 3.54791C17.0415 3.39261 17.3421 3.23754 17.6621 3.10189C17.9724 2.95629 18.2925 2.82064 18.6124 2.69445C18.6318 2.68475 18.6609 2.67504 18.69 2.66533C18.9421 2.56851 19.1846 2.47144 19.4367 2.38408C19.6791 2.29696 19.9312 2.20961 20.1833 2.13219C20.2222 2.12225 20.2609 2.11278 20.29 2.10283C20.5809 2.00601 20.8621 1.92836 21.153 1.85094C21.2597 1.82182 21.3567 1.7927 21.4536 1.77329C22.1615 1.5891 22.8791 1.44351 23.6064 1.33697C23.9942 1.27873 24.3724 1.2205 24.7603 1.18167C25.5361 1.10426 26.3312 1.06543 27.1264 1.06543C39.8973 1.06543 50.2439 11.48 50.2439 24.3284Z"/><path fill="black" stroke="black" stroke-linecap="round" stroke-linejoin="round" stroke-miterlimit="10" stroke-width="0.35" d="M31.7233 18.0305C31.7148 18.2104 31.6234 18.3865 31.4501 18.5584C31.2763 18.7308 31.1068 18.8132 30.9416 18.8051C30.7995 18.7985 30.6452 18.7275 30.4785 18.5916C30.0012 18.1929 29.5017 17.8364 28.979 17.522C28.4563 17.2076 27.9108 16.9429 27.3421 16.7279C27.3043 17.3652 27.2702 18.0044 27.2399 18.646C27.2091 19.2871 27.1741 19.9301 27.1367 20.5745C27.1513 20.5755 27.2129 20.5821 27.3213 20.5944C27.4297 20.6072 27.5813 20.6257 27.7759 20.6503C30.8123 20.968 32.5888 22.1806 33.1054 24.2866C33.2186 24.7435 33.265 25.1967 33.2437 25.647C33.2048 26.4571 32.9454 27.2488 32.4648 28.0229C31.5448 29.5125 30.1987 30.4632 28.4274 30.8752C27.8265 31.0115 27.2157 31.0655 26.5931 31.0357L26.5046 32.6555C26.4941 32.8728 26.4089 33.0433 26.2489 33.1678C26.0888 33.2914 25.9155 33.3491 25.728 33.3401C25.533 33.3311 25.3672 33.2516 25.2313 33.102C25.1035 32.9609 25.0675 32.2899 25.1243 31.0901C25.1291 30.9921 25.1338 30.8946 25.1385 30.7975C24.1371 30.5087 23.2498 29.995 22.4771 29.2554C21.7044 28.5158 21.1485 27.6825 20.8095 26.7573C20.7555 26.6195 20.7318 26.494 20.737 26.3818C20.7451 26.209 20.8388 26.0575 21.0178 25.9273C21.1968 25.7966 21.3952 25.7364 21.613 25.7469C21.8753 25.7592 22.0666 25.9263 22.1859 26.2478C22.7323 27.7327 23.7399 28.7426 25.211 29.2786C25.2773 28.0414 25.344 26.8056 25.4103 25.5721C25.4761 24.3392 25.5424 23.1039 25.6092 21.8662C24.1608 21.6394 23.1068 21.217 22.4444 20.5996C21.4515 19.6654 20.978 18.7099 21.0244 17.7346C21.0415 17.3823 21.1262 17.0295 21.2782 16.6758C21.5571 16.0201 22.0154 15.512 22.6528 15.1517C23.2905 14.7909 24.0704 14.6323 24.9927 14.6763C25.3076 14.6915 25.6367 14.7336 25.9795 14.8027C25.9965 14.4505 26.0415 14.1309 26.1149 13.8449C26.1887 13.5594 26.4099 13.4244 26.7773 13.4419C26.9719 13.4514 27.139 13.5328 27.2787 13.6863C27.4179 13.8392 27.4828 14.0134 27.4733 14.208L27.4264 15.1986C28.8833 15.7043 30.2115 16.459 31.4113 17.4632C31.6291 17.6389 31.7328 17.8278 31.7233 18.0305ZM24.9013 16.1266C24.5188 16.1081 24.1442 16.1602 23.7778 16.2819C23.4108 16.4041 23.1035 16.5807 22.8559 16.8132C22.6078 17.0456 22.4761 17.3264 22.4605 17.6569C22.4544 17.7843 22.4709 17.9164 22.5088 18.0542C22.6703 18.6105 22.9671 19.0906 23.399 19.4945C23.8379 19.906 24.5978 20.2057 25.6793 20.3922L25.898 16.2757C25.541 16.1905 25.2086 16.1413 24.9013 16.1266ZM26.6627 29.5736C28.0576 29.6399 29.2607 29.2383 30.2721 28.369C31.229 27.5433 31.7304 26.6346 31.7778 25.6451C31.7929 25.3221 31.7602 24.986 31.6793 24.6365C31.3777 23.3894 30.3777 22.5972 28.6797 22.2601C28.4719 22.2128 28.1992 22.1683 27.863 22.1261C27.5268 22.084 27.2617 22.0542 27.0666 22.0376C26.9993 23.29 26.9321 24.5456 26.8644 25.8051C26.7967 27.065 26.7295 28.3212 26.6627 29.5736Z"/><path stroke="black" stroke-linecap="round" stroke-linejoin="round" stroke-miterlimit="10" d="M39.8288 31.8723C36.813 36.5172 31.5379 39.3098 25.9718 38.8638C25.4579 38.825 24.944 38.757 24.4397 38.6602C24.43 37.7196 24.5561 36.7984 24.6045 35.8673C24.6531 34.9073 24.6045 33.9182 24.2167 33.0262C23.8288 32.1438 23.053 31.3875 22.1028 31.2322C20.6385 30.9803 19.8821 32.2698 19.213 33.3268C19.2421 32.328 19.31 31.4263 18.8639 30.5049C18.4567 29.6322 17.7294 28.905 16.8276 28.556C15.5379 28.0518 14.0057 28.3619 12.9488 29.2348C12.1052 27.1304 11.727 24.8032 11.9209 22.3886C12.2312 18.5293 14.0155 14.8735 16.8858 12.2748C19.5815 9.82141 23.7415 7.94996 27.4264 8.16302C30.2579 8.31833 33.0409 9.20067 35.4361 10.7232C42.6797 15.3001 44.4446 24.7449 39.8288 31.8723Z"/><path stroke="black" stroke-linecap="round" stroke-linejoin="round" stroke-miterlimit="10" d="M47.1191 36.1064C48.1745 36.4404 49.1868 36.9098 50.1236 37.4995"/><path stroke="black" stroke-linecap="round" stroke-linejoin="round" stroke-miterlimit="10" d="M50.3672 27.7627C51.4612 28.0473 52.5051 28.523 53.4377 29.1617"/><path stroke="black" stroke-linecap="round" stroke-linejoin="round" stroke-miterlimit="10" d="M50.0635 19.5318C51.4798 19.3913 52.9398 19.7347 54.1451 20.4919"/><path stroke="black" stroke-linecap="round" stroke-linejoin="round" stroke-miterlimit="10" d="M46.1621 10.754C47.5465 10.6445 48.9476 10.7492 50.3003 11.0633"/><path fill="#0870EE" d="M9.51546 51.8557C8.99256 51.4872 8.46409 51.4267 7.85394 51.3394C7.28493 51.2579 6.76676 51.2811 6.26292 51.6125C5.60548 52.0451 5.22823 52.8683 5.32991 53.6487C5.42852 54.4058 5.94148 55.0656 6.5821 55.4811C7.22273 55.8966 7.98084 56.0944 8.7361 56.2069C11.2972 56.5886 13.9881 56.0287 16.1844 54.6571"/><path stroke="black" stroke-linecap="round" stroke-linejoin="round" stroke-miterlimit="10" d="M9.51546 51.8557C8.99256 51.4872 8.46409 51.4267 7.85394 51.3394C7.28493 51.2579 6.76676 51.2811 6.26292 51.6125C5.60548 52.0451 5.22823 52.8683 5.32991 53.6487C5.42852 54.4058 5.94148 55.0656 6.5821 55.4811C7.22273 55.8966 7.98084 56.0944 8.7361 56.2069C11.2972 56.5886 13.9881 56.0287 16.1844 54.6571"/><path fill="#0870EE" d="M21.8505 63.0285C22.2093 61.1473 22.5778 59.2758 22.9366 57.3946C23.0724 56.7061 23.1014 56.3085 22.4324 56.1534C21.7826 56.0079 21.0942 55.9788 20.4348 55.8625C19.1063 55.6394 17.7972 55.3485 16.5075 54.98C13.9475 54.2334 11.4651 53.1667 9.23476 51.7025C4.92931 48.8903 1.53537 44.4879 0.652971 39.4261C0.478433 38.437 0.439607 37.3122 1.08935 36.5364C1.55478 35.974 2.31117 35.7219 3.04809 35.7025C3.78507 35.6831 4.67718 35.9837 5.3851 36.1679C5.26874 35.1788 5.22991 33.8213 5.42386 32.5025C5.43357 32.4734 5.43357 32.4346 5.44328 32.3958C5.75359 30.3594 6.62628 28.4297 8.57538 28.1097C10.0396 27.8673 11.6202 28.8273 12.0857 30.2334C12.3087 29.8455 12.5996 29.5061 12.9487 29.2346C14.0057 28.3619 15.5378 28.0516 16.8275 28.5558C17.7293 28.9049 18.4566 29.6322 18.8638 30.5049C19.3099 31.4261 19.242 32.3279 19.213 33.3267C19.8821 32.2697 20.6384 30.98 22.1027 31.2322C23.0529 31.3873 23.8287 32.1437 24.2166 33.0261C24.6045 33.9182 24.653 34.9073 24.6045 35.8673C24.556 36.7982 24.43 37.7194 24.4396 38.66C24.4396 38.6891 24.4396 38.7279 24.4396 38.757C24.5463 42.8976 27.8045 46.1461 31.6639 47.1352C31.9839 47.2322 32.3232 47.3 32.653 47.3485C32.9245 47.3873 33.1863 47.4067 33.4578 47.4067C35.6105 47.4455 37.8505 46.5728 39.5766 48.3473C40.4784 49.2782 40.876 50.6746 40.6045 51.9449C40.2651 53.4673 39.0821 54.7182 38.442 56.134C37.7536 57.6758 38.2093 59.6831 38.2869 61.3606"/><path stroke="black" stroke-linecap="round" stroke-linejoin="round" stroke-miterlimit="10" d="M21.8505 63.0285C22.2093 61.1473 22.5778 59.2758 22.9366 57.3946C23.0724 56.7061 23.1014 56.3085 22.4324 56.1534C21.7826 56.0079 21.0942 55.9788 20.4348 55.8625C19.1063 55.6394 17.7972 55.3485 16.5075 54.98C13.9475 54.2334 11.4651 53.1667 9.23476 51.7025C4.92931 48.8903 1.53537 44.4879 0.652971 39.4261C0.478433 38.437 0.439607 37.3122 1.08935 36.5364C1.55478 35.974 2.31117 35.7219 3.04809 35.7025C3.78507 35.6831 4.67718 35.9837 5.3851 36.1679C5.26874 35.1788 5.22991 33.8213 5.42386 32.5025C5.43357 32.4734 5.43357 32.4346 5.44328 32.3958C5.75359 30.3594 6.62628 28.4297 8.57538 28.1097C10.0396 27.8673 11.6202 28.8273 12.0857 30.2334C12.3087 29.8455 12.5996 29.5061 12.9487 29.2346C14.0057 28.3619 15.5378 28.0516 16.8275 28.5558C17.7293 28.9049 18.4566 29.6322 18.8638 30.5049C19.3099 31.4261 19.242 32.3279 19.213 33.3267C19.8821 32.2697 20.6384 30.98 22.1027 31.2322C23.0529 31.3873 23.8287 32.1437 24.2166 33.0261C24.6045 33.9182 24.653 34.9073 24.6045 35.8673C24.556 36.7982 24.43 37.7194 24.4396 38.66C24.4396 38.6891 24.4396 38.7279 24.4396 38.757C24.5463 42.8976 27.8045 46.1461 31.6639 47.1352C31.9839 47.2322 32.3232 47.3 32.653 47.3485C32.9245 47.3873 33.1863 47.4067 33.4578 47.4067C35.6105 47.4455 37.8505 46.5728 39.5766 48.3473C40.4784 49.2782 40.876 50.6746 40.6045 51.9449C40.2651 53.4673 39.0821 54.7182 38.442 56.134C37.7536 57.6758 38.2093 59.6831 38.2869 61.3606"/><path stroke="black" stroke-linecap="round" stroke-linejoin="round" stroke-miterlimit="10" d="M22.6387 56.218C24.4912 56.6651 26.8547 56.6439 28.6805 56.0977"/><path stroke="black" stroke-linecap="round" stroke-linejoin="round" stroke-miterlimit="10" d="M5.38965 36.1719C5.38965 36.1719 8.16113 44.5066 12.2809 47.5964"/><path stroke="black" stroke-linecap="round" stroke-linejoin="round" stroke-miterlimit="10" d="M12.0833 30.2383C12.0833 30.2383 10.9058 40.6089 16.5564 46.6742"/><path stroke="black" stroke-linecap="round" stroke-linejoin="round" stroke-miterlimit="10" d="M19.2172 33.3271C19.2172 33.3271 16.567 41.4756 21.8833 46.0862"/></svg>