<svg xmlns="http://www.w3.org/2000/svg" width="34" height="34" fill="none" viewBox="0 0 34 34"><path fill="black" d="M22.542 1.03125C24.865 0.863511 27.005 1.35643 28.8457 2.83984C30.3078 4.109 31.2589 5.77551 31.6299 7.68164C31.6603 8.12829 31.6593 8.56516 31.6299 9.01172C31.7258 9.014 31.8221 9.0162 31.9209 9.01855C32.4424 9.16342 32.6856 9.43743 32.96 9.89844C33.0504 10.2619 33.0481 10.6093 33.041 10.9824C33.0416 11.0884 33.0423 11.1945 33.043 11.3037C33.0442 11.653 33.0408 12.0023 33.0371 12.3516C33.0367 12.5957 33.036 12.8398 33.0361 13.084C33.0356 13.5956 33.0328 14.1076 33.0283 14.6191C33.0227 15.2718 33.0222 15.9245 33.0225 16.5771C33.0224 17.0816 33.02 17.5864 33.0176 18.0908C33.0165 18.3311 33.0159 18.5713 33.0156 18.8115C33.0107 21.0942 32.7578 22.7411 31.1318 24.4541C30.8812 24.722 30.6511 24.9947 30.4248 25.2832C30.0645 25.7417 29.6905 26.1856 29.3096 26.627C28.8146 27.2007 28.3287 27.7803 27.8516 28.3691C27.6733 28.5879 27.4916 28.8027 27.3076 29.0166C27.0682 29.2832 27.0686 29.284 26.9756 29.627C27.0823 29.6231 27.1889 29.6192 27.2988 29.6152C27.4388 29.6122 27.5794 29.6086 27.7236 29.6055C27.8624 29.6016 28.0016 29.5977 28.1445 29.5937C28.5592 29.6289 28.6805 29.6716 28.9697 29.959C29.0271 30.2236 29.0278 30.2237 29.0293 30.5332C29.0302 30.7011 29.0304 30.7017 29.0312 30.873C29.0287 31.0479 29.028 31.048 29.0254 31.2266C29.028 31.4011 29.0286 31.4012 29.0312 31.5791C29.0307 31.6912 29.0299 31.8035 29.0293 31.9189C29.0288 32.0213 29.0279 32.124 29.0273 32.2295C28.953 32.5905 28.8121 32.7242 28.5273 32.9512C28.2433 32.9997 28.2428 32.9997 27.9727 32.9512L27.6406 32.6191V30.9561H19.6602V32.5078C19.3277 32.9511 19.3276 32.9515 18.9951 33C18.6628 32.9515 18.6625 32.9517 18.4785 32.8203C18.2755 32.5451 18.2873 32.3564 18.2861 32.0166C18.2857 31.8992 18.2856 31.7812 18.2852 31.6602C18.2871 31.4766 18.2861 31.4765 18.2881 31.2891C18.2868 31.1666 18.2865 31.0441 18.2852 30.918C18.2856 30.8005 18.2857 30.6825 18.2861 30.5615C18.2865 30.454 18.2867 30.3461 18.2871 30.2353C18.3301 29.959 18.3307 29.9593 18.6631 29.627H19.6602C19.6236 28.3835 19.5865 27.1395 19.5488 25.8584C18.8486 26.3306 18.8486 26.3309 18.1504 26.8066C18.0622 26.8651 17.9737 26.9232 17.8828 26.9834C17.7934 27.0438 17.7034 27.1048 17.6113 27.167C17.2653 27.331 17.0474 27.3438 16.668 27.2988C16.389 27.1666 16.3889 27.1663 16.1182 26.9834C16.0298 26.9249 15.9406 26.8669 15.8496 26.8066C15.6853 26.694 15.6853 26.6932 15.5176 26.5781C15.1657 26.3405 14.8137 26.1032 14.4512 25.8584C14.4146 27.1019 14.3775 28.3458 14.3398 29.627H15.2266C15.5002 29.7555 15.5003 29.7552 15.6699 29.959C15.7255 30.2356 15.7262 30.2356 15.7256 30.5615C15.7257 30.679 15.7255 30.797 15.7256 30.918C15.7234 31.0404 15.721 31.1629 15.7187 31.2891C15.7195 31.4115 15.7199 31.534 15.7207 31.6602C15.7136 32.5595 15.7137 32.5602 15.5215 32.8203C15.232 33.0273 15.0173 33.0014 14.6729 32.9512C14.3404 32.5079 14.3398 32.5076 14.3398 30.9561H6.36035V32.6191C6.02793 32.9516 6.02756 32.9515 5.69531 33C5.36295 32.9515 5.36276 32.9513 5.17871 32.7637C5.00154 32.4583 4.98762 32.2703 4.98633 31.9189C4.98569 31.7508 4.98503 31.7506 4.98437 31.5791C4.98566 31.4628 4.98696 31.3464 4.98828 31.2266C4.987 31.1099 4.9857 30.9932 4.98437 30.873C4.9848 30.7611 4.98589 30.6485 4.98633 30.5332C4.9867 30.4311 4.98692 30.3289 4.9873 30.2236C5.0303 29.9591 5.02973 29.9587 5.17383 29.7588C5.48846 29.5375 5.84553 29.592 6.21484 29.6055C6.29251 29.607 6.37018 29.6088 6.45019 29.6103C6.64181 29.6143 6.83384 29.6206 7.02539 29.627C6.70369 28.9689 6.2633 28.4852 5.76562 27.9512C5.40524 27.5577 5.07147 27.1464 4.73633 26.7314C4.45087 26.3809 4.15906 26.0358 3.86621 25.6914C1.0329 22.3492 1.03242 22.3489 1.0166 19.9004C1.01552 19.7937 1.01479 19.687 1.01367 19.5771C1.01037 19.2248 1.00795 18.8719 1.00586 18.5195C1.00513 18.3988 1.00466 18.2777 1.00391 18.1533C1.0003 17.5151 0.997281 16.8765 0.995117 16.2383C0.993139 15.7106 0.988919 15.1829 0.983398 14.6553C0.976732 14.0172 0.973732 13.3793 0.972656 12.7412C0.971708 12.4985 0.970049 12.2554 0.966797 12.0127C0.962485 11.6729 0.962018 11.333 0.962891 10.9932C0.959566 10.8435 0.959447 10.8432 0.956055 10.6904C0.963315 10.0608 1.09518 9.72611 1.52539 9.26367C1.79129 9.054 2.03758 9.01964 2.37012 9.01172C2.36555 8.87456 2.36116 8.73702 2.35645 8.5957C2.36609 6.54308 3.25063 4.77162 4.64258 3.29297C7.70699 0.329445 12.3231 0.263631 15.5596 3.02637C15.9941 3.41742 16.3923 3.80728 16.709 4.30078C16.7981 4.43794 16.7987 4.4382 16.8896 4.57812H17.1113C17.2816 4.38436 17.2813 4.38392 17.457 4.13477C18.7009 2.50181 20.4831 1.33072 22.542 1.03125ZM2.8457 10.333C2.68749 10.3352 2.5283 10.3371 2.37012 10.3408C2.36076 11.5815 2.35337 12.8227 2.34863 14.0635C2.3464 14.6971 2.3444 15.3312 2.33984 15.9648C2.33492 16.5845 2.33078 17.2046 2.3291 17.8242C2.32866 18.061 2.32798 18.2984 2.32715 18.5352C2.31213 19.9907 2.25719 21.2395 3.00879 22.5352C3.07688 22.6237 3.14289 22.71 3.20898 22.7959C3.65443 23.3766 4.12574 23.9361 4.60254 24.4912C4.86593 24.7971 5.12766 25.1052 5.38867 25.4131C5.44098 25.4749 5.49219 25.5348 5.54297 25.5947C5.91747 26.0363 6.28688 26.4817 6.65137 26.9316C6.97823 27.3374 7.32168 27.7143 7.68359 28.0889C7.93875 28.3268 7.93911 28.327 8.13379 28.6289C8.20912 28.9679 8.28235 29.2969 8.35547 29.626H13.0107C13.0129 28.9522 13.0145 28.2782 13.0156 27.6045C13.0161 27.3295 13.017 27.0543 13.0176 26.7793C13.019 26.3741 13.0209 25.9687 13.0215 25.5635C13.0216 25.4325 13.0213 25.3048 13.0215 25.1777C13.0221 25.0509 13.0229 24.9278 13.0234 24.8047C13.0234 24.6283 13.0234 24.6279 13.0234 24.4551C13.0265 23.1826 12.4727 22.3895 11.5957 21.5059C11.4967 21.4085 11.4008 21.3133 11.3047 21.2187C11.0455 20.9598 10.786 20.7009 10.5254 20.4434C10.2549 20.1767 9.9844 19.9092 9.71582 19.6406C9.50469 19.4294 9.29291 19.2183 9.08105 19.0078C8.97732 18.9048 8.87705 18.8041 8.77637 18.7041C8.17099 18.1003 7.55784 17.4121 6.80371 16.9912C6.41225 16.92 6.05875 16.921 5.69531 17.1025C5.37225 17.3913 5.07317 17.6811 4.97949 18.1143C4.96944 18.6581 5.09753 18.9344 5.46875 19.3242C5.558 19.4121 5.64482 19.4977 5.73145 19.583C5.92926 19.7791 6.12783 19.9754 6.32617 20.1709C6.79396 20.6319 7.25957 21.095 7.71387 21.5693C7.7869 21.6491 7.85782 21.7272 7.92871 21.8047C8.11576 21.9988 8.11658 21.9987 8.24512 22.2002C8.26001 22.5767 8.25935 22.5773 8.13379 22.8652C7.78167 22.977 7.78101 22.9776 7.3584 22.9766C7.14159 22.8571 6.98658 22.7158 6.80859 22.5439C6.74436 22.4772 6.68148 22.4125 6.61914 22.3477C6.48206 22.2112 6.34458 22.0735 6.20801 21.9365C5.9974 21.7189 5.78638 21.5013 5.57129 21.2881C4.87325 20.5995 4.17266 19.9597 3.85937 19.0059C3.70657 18.2357 3.7368 17.5676 4.14355 16.8809C4.39432 16.6927 4.63124 16.5108 4.85742 16.293C5.13144 15.8184 5.13237 15.8177 4.91797 14.5078C4.85986 14.1813 4.80466 13.8555 4.75684 13.5273C4.7217 13.2757 4.6858 13.0239 4.64941 12.7725C4.63076 12.6454 4.61186 12.5218 4.59375 12.3984C4.56716 12.2148 4.5671 12.2143 4.54102 12.0342C4.5226 11.918 4.50518 11.8051 4.4873 11.6924C4.42085 11.26 4.32656 11.0021 4.0332 10.6738C3.72679 10.4696 3.48425 10.3479 3.11328 10.3281C2.97852 10.3306 2.97754 10.3306 2.8457 10.333ZM31.1514 10.3369C30.7399 10.3328 30.4405 10.3459 30.0791 10.5625C29.6459 10.9462 29.6458 10.9473 29.4746 11.9609C29.4541 12.0884 29.434 12.2122 29.4141 12.3359C29.3381 12.7919 29.2643 13.2484 29.1992 13.7061C29.1766 13.8682 29.1532 14.0304 29.1299 14.1924C29.0525 14.6628 28.975 15.1321 28.9453 15.6084C28.973 16.0358 29.0312 16.172 29.332 16.4678C29.4703 16.5678 29.6084 16.6687 29.7461 16.7695C30.0689 17.2204 30.2181 17.6416 30.2451 18.1963C30.1561 19.4759 29.5071 20.2041 28.6318 21.0732C28.4156 21.2845 28.199 21.4961 27.9863 21.7109C27.8462 21.853 27.705 21.9951 27.5635 22.1357C27.4946 22.2038 27.4272 22.2699 27.3603 22.3359C27.1279 22.5712 26.9055 22.771 26.6436 22.9766C26.3448 23.0406 26.3437 23.0406 26.0889 22.9766C25.8672 22.8658 25.8676 22.8651 25.7568 22.6436C25.7815 22.2615 25.8247 22.0354 26.0576 21.7275C26.1816 21.6091 26.1819 21.6085 26.3037 21.4922C26.4406 21.359 26.4408 21.3583 26.5752 21.2275C26.7698 21.0432 26.9636 20.8573 27.1553 20.6699C27.3433 20.4856 27.5318 20.3007 27.7207 20.1172C28.0977 19.7516 28.4738 19.3894 28.8213 18.9951C29.0779 18.5981 29.0592 18.3366 28.9707 17.8779C28.6854 17.45 28.3824 17.0555 27.8623 16.9443C27.2324 16.9218 26.8642 17.1286 26.4043 17.5342C26.3225 17.6158 26.2424 17.6952 26.1631 17.7744C26.0694 17.8673 25.9786 17.9586 25.8877 18.0488C25.7881 18.1489 25.6905 18.2466 25.5937 18.3437C25.3328 18.6041 25.0717 18.8648 24.8115 19.126C24.5407 19.3982 24.2692 19.6705 23.9971 19.9414C23.784 20.1534 23.5708 20.3664 23.3584 20.5791C23.2544 20.6833 23.1527 20.7846 23.0518 20.8857C22.9524 20.9847 22.8553 21.0807 22.7588 21.1768C21.6223 22.3219 20.9529 23.1967 20.9531 24.8545C20.9549 24.9789 20.9563 25.1 20.958 25.2207C20.9595 25.6138 20.9618 26.0073 20.9658 26.4004C20.9687 26.6731 20.971 26.9461 20.9727 27.2187C20.9767 28.0212 20.9826 28.8236 20.9902 29.626H25.6455C25.7014 29.1787 25.702 29.178 25.7568 28.7393C25.9778 28.5183 25.9781 28.5176 26.1709 28.2842C26.5969 27.7567 27.0286 27.2347 27.4707 26.7207C27.9235 26.1955 28.3738 25.6688 28.8115 25.1309C29.0753 24.8057 29.3409 24.4818 29.6123 24.1631C29.8233 23.9158 30.0338 23.6676 30.2432 23.4189C30.3379 23.3062 30.4305 23.1964 30.5225 23.0869C31.6283 21.7911 31.694 20.5255 31.6777 18.8818C31.6753 18.6488 31.6737 18.4157 31.6728 18.1826C31.6717 17.5698 31.6689 16.9566 31.6641 16.3437C31.659 15.7093 31.6556 15.0739 31.6533 14.4395C31.6485 13.0734 31.6412 11.7068 31.6309 10.3408C31.5607 10.3399 31.4919 10.3397 31.4238 10.3389C31.2866 10.3378 31.2855 10.3379 31.1514 10.3369ZM26.7812 3.10937C25.2199 2.34982 23.423 2.02028 21.7305 2.57227C20.1629 3.21533 18.6847 4.24862 17.9404 5.81934C17.7881 6.15803 17.6434 6.48192 17.4434 6.79492C17.08 6.94756 17.0792 6.94724 16.668 6.90527C16.5405 6.78981 16.5403 6.78967 16.4521 6.58008C15.8263 5.25173 15.0385 4.27827 13.8672 3.38965C11.127 1.56308 7.57816 2.16877 5.3457 4.49414C4.17259 5.86775 3.63998 7.33167 3.7002 9.12207C3.77441 9.15258 3.8469 9.1823 3.91895 9.21191C4.01862 9.25661 4.11614 9.30037 4.21289 9.34375C4.51412 9.46346 4.51494 9.46344 4.80859 9.67578C5.28976 10.1699 5.54859 10.6519 5.67285 11.3281C5.68753 11.4236 5.70157 11.5167 5.71582 11.6094C5.93547 12.8805 6.08497 14.1624 6.22559 15.4443C6.23354 15.518 6.2413 15.5896 6.24902 15.6611C7.50258 15.7431 8.34282 16.4531 9.19824 17.3193C9.3085 17.4312 9.42012 17.5423 9.53125 17.6533C9.76603 17.8872 10.0003 18.1219 10.2334 18.3574C10.5331 18.661 10.8341 18.964 11.1367 19.2646C11.3745 19.5008 11.6113 19.7381 11.8477 19.9756C11.9609 20.0896 12.0751 20.2044 12.1885 20.3184C13.1189 21.243 13.8173 22.0435 14.1182 23.3437C14.2148 23.7659 14.2666 24.0134 14.5791 24.3174C14.6862 24.389 14.7906 24.4588 14.8945 24.5283C15.0977 24.6703 15.3012 24.8119 15.5068 24.9502C15.581 24.9997 15.6536 25.0477 15.7256 25.0957C16.1632 25.393 16.5939 25.7223 17.1113 25.8584C17.4848 25.6717 17.4853 25.671 17.7109 25.5098C17.8684 25.3968 18.0282 25.285 18.1934 25.1836C18.3399 25.0949 18.4861 25.0046 18.6309 24.9131C19.3327 24.4487 19.7771 24.0786 19.9512 23.2324C20.1172 22.1131 20.6728 21.4822 21.4551 20.6914C21.6132 20.5344 21.7723 20.3775 21.9297 20.2197C22.1536 19.995 22.3776 19.7696 22.6025 19.5459C22.8922 19.2582 23.182 18.9703 23.4697 18.6807C23.6957 18.4532 23.9225 18.2255 24.1494 17.999C24.2584 17.8905 24.3677 17.7815 24.4766 17.6729C25.2186 16.9259 25.9596 16.111 26.9824 15.7695L27.2598 15.7305C27.4025 15.7083 27.4034 15.7083 27.5439 15.6865C27.648 15.6739 27.6487 15.6735 27.751 15.6611C27.8126 15.1915 27.875 14.7215 27.9375 14.252C27.9632 14.0591 27.989 13.8657 28.0146 13.6729C28.0517 13.3908 28.0883 13.1082 28.126 12.8262C28.1443 12.6895 28.1441 12.689 28.1621 12.5547C28.2493 11.8834 28.3526 11.2175 28.5273 10.5625C28.8612 9.85476 29.3832 9.52484 30.0811 9.21191C30.1554 9.18136 30.2286 9.15173 30.3008 9.12207C30.34 8.37054 30.2963 7.70312 30.0752 6.98144C29.4588 5.27392 28.3944 3.93536 26.7812 3.10937ZM14.8564 9.19141C16.0833 8.33805 17.5581 8.2999 18.8838 9.01074C19.7344 9.58607 20.2709 10.3537 20.5469 11.3389C20.7075 12.6473 20.49 13.5613 19.7705 14.6631C19.5788 14.8721 19.579 14.8729 19.4385 14.9961C19.5388 15.0564 19.6398 15.1165 19.7432 15.1787C20.9497 15.9192 22.0851 16.7473 22.6523 18.0996C22.6593 18.4871 22.6596 18.488 22.542 18.7646C22.1839 19.0034 22.0708 19.048 21.6553 18.9863C21.4591 18.7996 21.4584 18.7988 21.2812 18.543C21.2149 18.4521 21.1484 18.3602 21.0801 18.2666C21.014 18.1748 20.947 18.0828 20.8789 17.9883C20.0827 16.9438 19.0879 16.2991 17.7754 16.1045C16.7144 16.0082 15.7303 16.0069 14.7832 16.5479C14.6984 16.5948 14.6137 16.6421 14.5264 16.6904C13.6404 17.2295 13.0009 18.0033 12.4561 18.875C12.3452 18.9858 12.345 18.986 12.0264 19.0137C11.6801 18.986 11.6796 18.9859 11.4648 18.8682C11.3173 18.5988 11.3222 18.3992 11.3818 18.1006C11.8853 16.6341 13.2824 15.7217 14.5615 14.9961C14.4611 14.8934 14.3603 14.7904 14.2568 14.6846C13.5221 13.8103 13.3415 12.7817 13.3975 11.6641C13.5311 10.6207 14.0418 9.84114 14.8564 9.19141ZM17.9287 10.0293C17.0659 9.72577 16.2885 9.79057 15.5596 10.3408C15.0373 10.8776 14.7695 11.4628 14.7275 12.2041C14.7561 12.9554 15.0245 13.5661 15.5498 14.1045C16.1277 14.5521 16.6358 14.6227 17.3555 14.6084C17.9685 14.4978 18.3741 14.1267 18.7734 13.666C19.2358 13.0069 19.334 12.3533 19.2168 11.5605C18.9846 10.8992 18.4952 10.4205 17.9287 10.0293Z"/><path fill="black" d="M22.542 1.03125L22.5042 0.507613L22.4852 0.508982L22.4664 0.511717L22.542 1.03125ZM28.8457 2.83984L29.1898 2.44337L29.1826 2.43709L29.1751 2.43107L28.8457 2.83984ZM31.6299 7.68164L32.1537 7.64597L32.1514 7.61339L32.1452 7.58134L31.6299 7.68164ZM31.6299 9.01172L31.106 8.97718L31.07 9.52354L31.6174 9.53657L31.6299 9.01172ZM31.9209 9.01855L32.0614 8.51271L31.9986 8.49526L31.9334 8.4937L31.9209 9.01855ZM32.96 9.89844L33.4694 9.77172L33.4507 9.69653L33.4111 9.62996L32.96 9.89844ZM33.041 10.9824L32.5159 10.9725L32.516 10.9855L33.041 10.9824ZM33.043 11.3037L33.568 11.3019L33.568 11.3006L33.043 11.3037ZM33.0371 12.3516L32.5121 12.346L32.5121 12.3507L33.0371 12.3516ZM33.0361 13.084L33.5611 13.0845V13.0838L33.0361 13.084ZM33.0283 14.6191L32.5033 14.6146V14.6146L33.0283 14.6191ZM33.0225 16.5771L33.5475 16.5772V16.5769L33.0225 16.5771ZM33.0176 18.0908L32.4926 18.0883L32.4926 18.0885L33.0176 18.0908ZM33.0156 18.8115L33.5406 18.8127L33.5406 18.8121L33.0156 18.8115ZM31.1318 24.4541L30.751 24.0927L30.7485 24.0954L31.1318 24.4541ZM30.4248 25.2832L30.8376 25.6076L30.8379 25.6072L30.4248 25.2832ZM29.3096 26.627L28.9121 26.2839L28.912 26.284L29.3096 26.627ZM27.8516 28.3691L28.2585 28.7008L28.2595 28.6997L27.8516 28.3691ZM27.3076 29.0166L27.6983 29.3675L27.7056 29.359L27.3076 29.0166ZM26.9756 29.627L26.4689 29.4895L26.2823 30.1773L26.9945 30.1516L26.9756 29.627ZM27.2988 29.6152L27.2876 29.0903L27.2799 29.0906L27.2988 29.6152ZM27.7236 29.6055L27.7349 30.1304L27.7382 30.1303L27.7236 29.6055ZM28.1445 29.5937L28.1889 29.0706L28.1595 29.0681L28.13 29.069L28.1445 29.5937ZM28.9697 29.959L29.4828 29.8478L29.4499 29.696L29.3397 29.5865L28.9697 29.959ZM29.0293 30.5332L28.5043 30.5358V30.5359L29.0293 30.5332ZM29.0312 30.873L29.5563 30.8808L29.5562 30.8704L29.0312 30.873ZM29.0254 31.2266L28.5004 31.2189L28.5003 31.2266L28.5004 31.2343L29.0254 31.2266ZM29.0312 31.5791L29.5563 31.5818L29.5562 31.5714L29.0312 31.5791ZM29.0293 31.9189L28.5043 31.9163V31.9164L29.0293 31.9189ZM29.0273 32.2295L29.5416 32.3353L29.5521 32.2842L29.5523 32.2321L29.0273 32.2295ZM28.5273 32.9512L28.6157 33.4687L28.7489 33.4459L28.8546 33.3617L28.5273 32.9512ZM27.9727 32.9512L27.6014 33.3224L27.7178 33.4388L27.8799 33.4679L27.9727 32.9512ZM27.6406 32.6191H27.1156V32.8366L27.2694 32.9904L27.6406 32.6191ZM27.6406 30.9561H28.1656V30.4311H27.6406V30.9561ZM19.6602 30.9561V30.4311H19.1352V30.9561H19.6602ZM19.6602 32.5078L20.0802 32.8228L20.1852 32.6828V32.5078H19.6602ZM18.9951 33L18.9194 33.5195L18.9951 33.5305L19.0709 33.5195L18.9951 33ZM18.4785 32.8203L18.0561 33.132L18.1056 33.1991L18.1734 33.2475L18.4785 32.8203ZM18.2861 32.0166L18.8111 32.0148L18.8111 32.0147L18.2861 32.0166ZM18.2852 31.6602L17.7601 31.6546L17.7602 31.6621L18.2852 31.6602ZM18.2881 31.2891L18.8132 31.2946L18.8131 31.2836L18.2881 31.2891ZM18.2852 30.918L17.7601 30.9161L17.7602 30.9235L18.2852 30.918ZM18.2861 30.5615L18.8111 30.5634L18.8111 30.5634L18.2861 30.5615ZM18.2871 30.2353L17.7683 30.1547L17.7622 30.1939L17.7621 30.2335L18.2871 30.2353ZM18.6631 29.627V29.102H18.4456L18.2919 29.2557L18.6631 29.627ZM19.6602 29.627V30.152H20.2008L20.1849 29.6115L19.6602 29.627ZM19.5488 25.8584L20.0736 25.843L20.0456 24.8902L19.2553 25.4231L19.5488 25.8584ZM18.1504 26.8066L18.4403 27.2444L18.446 27.2405L18.1504 26.8066ZM17.8828 26.9834L17.5929 26.5457L17.589 26.5483L17.8828 26.9834ZM17.6113 27.167L17.8362 27.6414L17.8721 27.6244L17.9051 27.6021L17.6113 27.167ZM16.668 27.2988L16.4431 27.7732L16.5208 27.8101L16.6062 27.8202L16.668 27.2988ZM16.1182 26.9834L16.412 26.5483L16.408 26.5457L16.1182 26.9834ZM15.8496 26.8066L15.5526 27.2396L15.5597 27.2444L15.8496 26.8066ZM15.5176 26.5781L15.8145 26.1452L15.8114 26.143L15.5176 26.5781ZM14.4512 25.8584L14.745 25.4233L13.9544 24.8894L13.9264 25.843L14.4512 25.8584ZM14.3398 29.627L13.8151 29.6115L13.7992 30.152H14.3398V29.627ZM15.2266 29.627L15.4498 29.1518L15.3438 29.102H15.2266V29.627ZM15.6699 29.959L16.1846 29.8555L16.1584 29.7253L16.0735 29.6232L15.6699 29.959ZM15.7256 30.5615L15.2006 30.5605L15.2006 30.5618L15.7256 30.5615ZM15.7256 30.918L16.2506 30.9275L16.2506 30.9176L15.7256 30.918ZM15.7187 31.2891L15.1937 31.2796L15.1938 31.2924L15.7187 31.2891ZM15.7207 31.6602L16.2457 31.6643L16.2457 31.6568L15.7207 31.6602ZM15.5215 32.8203L15.8268 33.2474L15.8943 33.1991L15.9437 33.1324L15.5215 32.8203ZM14.6729 32.9512L14.2529 33.2662L14.3828 33.4394L14.5971 33.4707L14.6729 32.9512ZM14.3398 30.9561H14.8648V30.4311H14.3398V30.9561ZM6.36035 30.9561V30.4311H5.83535V30.9561H6.36035ZM6.36035 32.6191L6.73158 32.9904L6.88535 32.8366V32.6191H6.36035ZM5.69531 33L5.61955 33.5195L5.69531 33.5305L5.77107 33.5195L5.69531 33ZM5.17871 32.7637L4.72462 33.0272L4.75772 33.0842L4.80391 33.1313L5.17871 32.7637ZM4.98633 31.9189L5.51132 31.917V31.9169L4.98633 31.9189ZM4.98437 31.5791L4.45935 31.5733L4.45938 31.5811L4.98437 31.5791ZM4.98828 31.2266L5.51338 31.2324L5.51325 31.2208L4.98828 31.2266ZM4.98437 30.873L4.45932 30.871L4.45941 30.8788L4.98437 30.873ZM4.98633 30.5332L5.51132 30.5352V30.5351L4.98633 30.5332ZM4.9873 30.2236L4.4691 30.1394L4.46246 30.1803L4.46231 30.2217L4.9873 30.2236ZM5.17383 29.7588L4.87185 29.3293L4.79959 29.3801L4.74793 29.4518L5.17383 29.7588ZM6.21484 29.6055L6.19574 30.1302L6.20472 30.1304L6.21484 29.6055ZM6.45019 29.6103L6.46091 29.0855L6.46032 29.0854L6.45019 29.6103ZM7.02539 29.627L7.00796 30.1517L7.88046 30.1806L7.49704 29.3964L7.02539 29.627ZM5.76562 27.9512L5.37847 28.3058L5.38154 28.3091L5.76562 27.9512ZM4.73633 26.7314L5.14475 26.4016L5.14342 26.3999L4.73633 26.7314ZM3.86621 25.6914L3.46575 26.0309L3.46628 26.0315L3.86621 25.6914ZM1.0166 19.9004L1.54159 19.897L1.54157 19.8951L1.0166 19.9004ZM1.01367 19.5771L0.488695 19.5821L0.488699 19.5825L1.01367 19.5771ZM1.00586 18.5195L1.53085 18.5164L1.53085 18.5164L1.00586 18.5195ZM1.00391 18.1533L0.478915 18.1563L0.478916 18.1565L1.00391 18.1533ZM0.995117 16.2383L1.52011 16.2365L1.52011 16.2363L0.995117 16.2383ZM0.983398 14.6553L0.458427 14.6608L0.458427 14.6608L0.983398 14.6553ZM0.972656 12.7412L1.49766 12.7403L1.49765 12.7392L0.972656 12.7412ZM0.966797 12.0127L0.441839 12.0194L0.441844 12.0197L0.966797 12.0127ZM0.962891 10.9932L1.48805 10.9945L1.48776 10.9815L0.962891 10.9932ZM0.956055 10.6904L0.43109 10.6844L0.430988 10.6932L0.431184 10.7021L0.956055 10.6904ZM1.52539 9.26367L1.20032 8.85142L1.16856 8.87646L1.14101 8.90608L1.52539 9.26367ZM2.37012 9.01172L2.38261 9.53657L2.91248 9.52395L2.89483 8.99423L2.37012 9.01172ZM2.35645 8.5957L1.83145 8.59324L1.8314 8.60322L1.83174 8.61319L2.35645 8.5957ZM4.64258 3.29297L4.27761 2.91558L4.26875 2.92414L4.26031 2.93311L4.64258 3.29297ZM15.5596 3.02637L15.9109 2.63601L15.9004 2.62706L15.5596 3.02637ZM16.709 4.30078L16.2671 4.58434L16.2688 4.5869L16.709 4.30078ZM16.8896 4.57812L16.4495 4.86424L16.6047 5.10312H16.8896V4.57812ZM17.1113 4.57812V5.10312H17.3489L17.5057 4.92468L17.1113 4.57812ZM17.457 4.13477L17.0394 3.81663L17.0336 3.82428L17.028 3.83214L17.457 4.13477ZM2.8457 10.333L2.85306 10.858L2.85526 10.8579L2.8457 10.333ZM2.37012 10.3408L2.35766 9.81597L1.84897 9.82804L1.84513 10.3369L2.37012 10.3408ZM2.34863 14.0635L1.82364 14.0615L1.82364 14.0616L2.34863 14.0635ZM2.33984 15.9648L2.86483 15.969L2.86483 15.9686L2.33984 15.9648ZM2.3291 17.8242L1.8041 17.8228L1.8041 17.8232L2.3291 17.8242ZM2.32715 18.5352L2.85213 18.5406L2.85215 18.537L2.32715 18.5352ZM3.00879 22.5352L2.55466 22.7986L2.57181 22.8281L2.59263 22.8552L3.00879 22.5352ZM3.20898 22.7959L3.62555 22.4764L3.62514 22.4758L3.20898 22.7959ZM4.60254 24.4912L4.20429 24.8333L4.2047 24.8338L4.60254 24.4912ZM5.38867 25.4131L5.78934 25.0738L5.78916 25.0736L5.38867 25.4131ZM5.54297 25.5947L5.14229 25.934L5.14259 25.9343L5.54297 25.5947ZM6.65137 26.9316L7.06022 26.6023L7.0593 26.6012L6.65137 26.9316ZM7.68359 28.0889L7.30602 28.4536L7.31554 28.4635L7.32556 28.4728L7.68359 28.0889ZM8.13379 28.6289L8.64629 28.515L8.62591 28.4233L8.57503 28.3444L8.13379 28.6289ZM8.35547 29.626L7.84297 29.7399L7.93433 30.151H8.35547V29.626ZM13.0107 29.626V30.151H13.5341L13.5357 29.6276L13.0107 29.626ZM13.0156 27.6045L13.5406 27.6054V27.6054L13.0156 27.6045ZM13.0176 26.7793L12.4926 26.7775L12.4926 26.7782L13.0176 26.7793ZM13.0215 25.5635L13.5465 25.5643V25.5641L13.0215 25.5635ZM13.0215 25.1777L12.4965 25.1753L12.4965 25.1771L13.0215 25.1777ZM13.0234 24.8047L13.5484 24.8071V24.8047L13.0234 24.8047ZM13.0234 24.4551L12.4984 24.4538V24.455L13.0234 24.4551ZM11.5957 21.5059L11.9684 21.136L11.9638 21.1315L11.5957 21.5059ZM11.3047 21.2187L10.9336 21.5902L10.9366 21.5931L11.3047 21.2187ZM10.5254 20.4434L10.8944 20.0699L10.894 20.0695L10.5254 20.4434ZM9.71582 19.6406L9.34447 20.0117L9.34457 20.0118L9.71582 19.6406ZM9.08105 19.0078L9.45113 18.6354L9.45092 18.6352L9.08105 19.0078ZM8.77637 18.7041L8.40561 19.0758L8.4065 19.0767L8.77637 18.7041ZM6.80371 16.9912L7.05957 16.5328L6.98343 16.4903L6.89764 16.4747L6.80371 16.9912ZM5.69531 17.1025L5.46067 16.6329L5.39782 16.6643L5.34544 16.7111L5.69531 17.1025ZM4.97949 18.1143L4.46636 18.0033L4.45553 18.0533L4.45458 18.1046L4.97949 18.1143ZM5.46875 19.3242L5.08857 19.6863L5.09434 19.6923L5.1003 19.6982L5.46875 19.3242ZM5.73145 19.583L6.10101 19.2101L6.09989 19.209L5.73145 19.583ZM6.32617 20.1709L5.95761 20.5448L5.95767 20.5448L6.32617 20.1709ZM7.71387 21.5693L8.10127 21.2148L8.09302 21.2062L7.71387 21.5693ZM7.92871 21.8047L7.54129 22.1592L7.55062 22.1689L7.92871 21.8047ZM8.24512 22.2002L8.76971 22.1794L8.76409 22.0375L8.6877 21.9178L8.24512 22.2002ZM8.13379 22.8652L8.29264 23.3656L8.51977 23.2935L8.61502 23.0751L8.13379 22.8652ZM7.3584 22.9766L7.10496 23.4363L7.22268 23.5012L7.3571 23.5016L7.3584 22.9766ZM6.80859 22.5439L6.43018 22.9079L6.43691 22.9149L6.4439 22.9216L6.80859 22.5439ZM6.61914 22.3477L6.99764 21.9837L6.98947 21.9755L6.61914 22.3477ZM6.20801 21.9365L5.83073 22.3017L5.83629 22.3073L6.20801 21.9365ZM5.57129 21.2881L5.94087 20.9152L5.93998 20.9143L5.57129 21.2881ZM3.85937 19.0059L3.34441 19.108L3.35063 19.1393L3.36059 19.1697L3.85937 19.0059ZM4.14355 16.8809L3.82842 16.461L3.745 16.5236L3.69185 16.6133L4.14355 16.8809ZM4.85742 16.293L5.22162 16.6711L5.27501 16.6197L5.31207 16.5555L4.85742 16.293ZM4.91797 14.5078L5.43612 14.423L5.43485 14.4158L4.91797 14.5078ZM4.75684 13.5273L4.23687 13.6L4.23732 13.603L4.75684 13.5273ZM4.64941 12.7725L5.169 12.6973L5.16885 12.6962L4.64941 12.7725ZM4.59375 12.3984L4.07417 12.4737L4.07432 12.4747L4.59375 12.3984ZM4.54102 12.0342L5.06064 11.9589L5.05954 11.952L4.54102 12.0342ZM4.4873 11.6924L3.96839 11.7721L3.96878 11.7746L4.4873 11.6924ZM4.0332 10.6738L4.42467 10.324L4.38009 10.2741L4.32442 10.237L4.0332 10.6738ZM3.11328 10.3281L3.14126 9.80387L3.1225 9.80287L3.10372 9.80321L3.11328 10.3281ZM31.1514 10.3369L31.1462 10.8619L31.1473 10.8619L31.1514 10.3369ZM30.0791 10.5625L29.8092 10.1122L29.7674 10.1372L29.731 10.1695L30.0791 10.5625ZM29.4746 11.9609L28.9569 11.8735L28.9563 11.8774L29.4746 11.9609ZM29.4141 12.3359L29.9319 12.4222L29.9324 12.4194L29.4141 12.3359ZM29.1992 13.7061L28.6795 13.6321L28.6792 13.6336L29.1992 13.7061ZM29.1299 14.1924L29.648 14.2776L29.6495 14.2673L29.1299 14.1924ZM28.9453 15.6084L28.4213 15.5758L28.4193 15.6091L28.4214 15.6424L28.9453 15.6084ZM29.332 16.4678L28.9639 16.8421L28.9922 16.8699L29.0244 16.8932L29.332 16.4678ZM29.7461 16.7695L30.1729 16.4639L30.124 16.3956L30.0562 16.3459L29.7461 16.7695ZM30.2451 18.1963L30.7689 18.2327L30.771 18.2018L30.7695 18.1708L30.2451 18.1963ZM28.6318 21.0732L28.9988 21.4488L29.0018 21.4458L28.6318 21.0732ZM27.9863 21.7109L27.6133 21.3415L27.6126 21.3422L27.9863 21.7109ZM27.5635 22.1357L27.9325 22.5092L27.9336 22.5081L27.5635 22.1357ZM27.3603 22.3359L26.9913 21.9625L26.9869 21.967L27.3603 22.3359ZM26.6436 22.9766L26.7536 23.4899L26.8722 23.4645L26.9676 23.3896L26.6436 22.9766ZM26.0889 22.9766L25.8541 23.4461L25.9054 23.4718L25.961 23.4857L26.0889 22.9766ZM25.7568 22.6436L25.2329 22.6097L25.2238 22.7514L25.2873 22.8783L25.7568 22.6436ZM26.0576 21.7275L25.6949 21.348L25.6644 21.3771L25.6389 21.4108L26.0576 21.7275ZM26.3037 21.4922L26.6664 21.8718L26.6698 21.8685L26.3037 21.4922ZM26.5752 21.2275L26.214 20.8464L26.2091 20.8512L26.5752 21.2275ZM27.1553 20.6699L27.5223 21.0453L27.5228 21.0448L27.1553 20.6699ZM27.7207 20.1172L27.3552 19.7403L27.3549 19.7406L27.7207 20.1172ZM28.8213 18.9951L29.2152 19.3422L29.241 19.3129L29.2622 19.2801L28.8213 18.9951ZM28.9707 17.8779L29.4862 17.7784L29.4662 17.6747L29.4075 17.5867L28.9707 17.8779ZM27.8623 16.9443L27.972 16.4309L27.927 16.4213L27.8811 16.4197L27.8623 16.9443ZM26.4043 17.5342L26.057 17.1404L26.0449 17.1511L26.0335 17.1625L26.4043 17.5342ZM26.1631 17.7744L26.5329 18.1471L26.5339 18.1461L26.1631 17.7744ZM25.8877 18.0488L25.5179 17.6762L25.5156 17.6785L25.8877 18.0488ZM25.5937 18.3437L25.9646 18.7154L25.9658 18.7141L25.5937 18.3437ZM24.8115 19.126L24.4396 18.7555L24.4394 18.7556L24.8115 19.126ZM23.9971 19.9414L24.3674 20.3135L24.3674 20.3135L23.9971 19.9414ZM23.3584 20.5791L22.9869 20.2082L22.9868 20.2083L23.3584 20.5791ZM23.0518 20.8857L23.4221 21.2578L23.4234 21.2566L23.0518 20.8857ZM22.7588 21.1768L22.3884 20.8047L22.3861 20.8069L22.7588 21.1768ZM20.9531 24.8545L20.4281 24.8546L20.4282 24.8619L20.9531 24.8545ZM20.958 25.2207L21.483 25.2187L21.483 25.2133L20.958 25.2207ZM20.9658 26.4004L20.4408 26.4058L20.4408 26.4059L20.9658 26.4004ZM20.9727 27.2187L21.4976 27.2161L21.4976 27.2155L20.9727 27.2187ZM20.9902 29.626L20.4653 29.631L20.4702 30.151H20.9902V29.626ZM25.6455 29.626V30.151H26.109L26.1665 29.6911L25.6455 29.626ZM25.7568 28.7393L25.3856 28.368L25.2582 28.4954L25.2359 28.6741L25.7568 28.7393ZM26.1709 28.2842L26.5757 28.6185L26.5793 28.6141L26.1709 28.2842ZM27.4707 26.7207L27.0731 26.3779L27.0727 26.3783L27.4707 26.7207ZM28.8115 25.1309L29.2187 25.4622L29.2192 25.4616L28.8115 25.1309ZM29.6123 24.1631L29.213 23.8223L29.2126 23.8227L29.6123 24.1631ZM30.2432 23.4189L30.6448 23.757L30.6452 23.7565L30.2432 23.4189ZM30.5225 23.0869L30.1231 22.7461L30.1204 22.7493L30.5225 23.0869ZM31.6777 18.8818L32.2027 18.8766L32.2027 18.8764L31.6777 18.8818ZM31.6728 18.1826L31.1479 18.1836L31.1479 18.1845L31.6728 18.1826ZM31.6641 16.3437L32.189 16.3396V16.3396L31.6641 16.3437ZM31.6533 14.4395L31.1283 14.4413V14.4414L31.6533 14.4395ZM31.6309 10.3408L32.1558 10.3369L32.152 9.82251L31.6376 9.81586L31.6309 10.3408ZM31.4238 10.3389L31.4306 9.8139L31.4278 9.81388L31.4238 10.3389ZM26.7812 3.10937L27.0206 2.64197L27.0109 2.63728L26.7812 3.10937ZM21.7305 2.57227L21.5677 2.07314L21.5492 2.07917L21.5312 2.08655L21.7305 2.57227ZM17.9404 5.81934L17.4659 5.59449L17.4616 5.60401L17.9404 5.81934ZM17.4434 6.79492L17.6467 7.27894L17.7976 7.21555L17.8857 7.07766L17.4434 6.79492ZM16.668 6.90527L16.3155 7.29436L16.4432 7.41006L16.6147 7.42756L16.668 6.90527ZM16.4521 6.58008L16.9361 6.37663L16.9318 6.36638L16.9271 6.35631L16.4521 6.58008ZM13.8672 3.38965L14.1845 2.97139L14.1717 2.9617L14.1584 2.9528L13.8672 3.38965ZM5.3457 4.49414L4.96698 4.13055L4.9564 4.14157L4.94648 4.15319L5.3457 4.49414ZM3.7002 9.12207L3.17549 9.13972L3.18689 9.47869L3.50059 9.60765L3.7002 9.12207ZM3.91895 9.21191L4.13374 8.73286L4.1262 8.72948L4.11855 8.72634L3.91895 9.21191ZM4.21289 9.34375L3.9981 9.8228L4.00845 9.82744L4.019 9.83163L4.21289 9.34375ZM4.80859 9.67578L5.18474 9.30953L5.15304 9.27697L5.11622 9.25035L4.80859 9.67578ZM5.67285 11.3281L6.19175 11.2483L6.19059 11.2408L6.18921 11.2332L5.67285 11.3281ZM5.71582 11.6094L5.19683 11.6892L5.19849 11.6988L5.71582 11.6094ZM6.22559 15.4443L6.74755 15.3879L6.74746 15.3871L6.22559 15.4443ZM6.24902 15.6611L5.72706 15.7175L5.77445 16.1562L6.21479 16.185L6.24902 15.6611ZM9.19824 17.3193L9.57221 16.9509L9.57179 16.9504L9.19824 17.3193ZM9.53125 17.6533L9.16017 18.0247L9.16074 18.0253L9.53125 17.6533ZM10.2334 18.3574L10.607 17.9886L10.6066 17.9881L10.2334 18.3574ZM11.1367 19.2646L10.7667 19.637L10.7668 19.6372L11.1367 19.2646ZM11.8477 19.9756L12.2202 19.6057L12.2198 19.6053L11.8477 19.9756ZM12.1885 20.3184L11.8163 20.6886L11.8184 20.6907L12.1885 20.3184ZM14.1182 23.3437L14.6299 23.2266L14.6297 23.2254L14.1182 23.3437ZM14.5791 24.3174L14.213 24.6937L14.2474 24.7271L14.2872 24.7537L14.5791 24.3174ZM14.8945 24.5283L15.1953 24.0979L15.1864 24.092L14.8945 24.5283ZM15.5068 24.9502L15.2138 25.3858L15.2154 25.3869L15.5068 24.9502ZM15.7256 25.0957L16.0206 24.6614L16.017 24.659L15.7256 25.0957ZM17.1113 25.8584L16.9778 26.3661L17.1691 26.4165L17.3461 26.328L17.1113 25.8584ZM17.7109 25.5098L18.0162 25.9369L18.017 25.9363L17.7109 25.5098ZM18.1934 25.1836L17.9215 24.7345L17.9187 24.7362L18.1934 25.1836ZM18.6309 24.9131L18.9115 25.3569L18.9205 25.3509L18.6309 24.9131ZM19.9512 23.2324L20.4654 23.3382L20.4683 23.3239L20.4705 23.3094L19.9512 23.2324ZM21.4551 20.6914L21.0851 20.3189L21.0818 20.3222L21.4551 20.6914ZM21.9297 20.2197L22.3013 20.5906L22.3016 20.5902L21.9297 20.2197ZM22.6025 19.5459L22.2326 19.1734L22.2323 19.1737L22.6025 19.5459ZM23.4697 18.6807L23.8422 19.0507L23.8422 19.0506L23.4697 18.6807ZM24.1494 17.999L23.7789 17.6271L23.7786 17.6274L24.1494 17.999ZM24.4766 17.6729L24.8474 18.0445L24.849 18.0429L24.4766 17.6729ZM26.9824 15.7695L26.9092 15.2497L26.8617 15.2564L26.8162 15.2716L26.9824 15.7695ZM27.2598 15.7305L27.333 16.2504L27.3403 16.2493L27.2598 15.7305ZM27.5439 15.6865L27.4808 15.1653L27.4721 15.1664L27.4634 15.1677L27.5439 15.6865ZM27.751 15.6611L27.8141 16.1823L28.2185 16.1334L28.2715 15.7295L27.751 15.6611ZM27.9375 14.252L27.4171 14.1826L27.4171 14.1827L27.9375 14.252ZM28.0146 13.6729L28.5351 13.742L28.5352 13.7411L28.0146 13.6729ZM28.126 12.8262L27.6056 12.7566L27.6056 12.7567L28.126 12.8262ZM28.1621 12.5547L28.6825 12.6243L28.6827 12.6223L28.1621 12.5547ZM28.5273 10.5625L28.0525 10.3385L28.0323 10.3814L28.0201 10.4271L28.5273 10.5625ZM30.0811 9.21191L29.8815 8.72633L29.8738 8.72948L29.8662 8.73287L30.0811 9.21191ZM30.3008 9.12207L30.5004 9.60764L30.8077 9.4813L30.8251 9.14944L30.3008 9.12207ZM30.0752 6.98144L30.5772 6.82768L30.5734 6.81533L30.569 6.80318L30.0752 6.98144ZM14.8564 9.19141L14.5567 8.76042L14.5425 8.77023L14.5291 8.78095L14.8564 9.19141ZM18.8838 9.01074L19.1779 8.57587L19.1556 8.56078L19.1319 8.54806L18.8838 9.01074ZM20.5469 11.3389L21.068 11.2749L21.0631 11.2355L21.0524 11.1973L20.5469 11.3389ZM19.7705 14.6631L20.1574 15.0179L20.1865 14.9862L20.2101 14.9502L19.7705 14.6631ZM19.4385 14.9961L19.0923 14.6014L18.5519 15.0753L19.1678 15.4459L19.4385 14.9961ZM19.7432 15.1787L20.0178 14.7312L20.0138 14.7289L19.7432 15.1787ZM22.6523 18.0996L23.1773 18.0902L23.1755 17.9895L23.1365 17.8965L22.6523 18.0996ZM22.542 18.7646L22.8332 19.2015L22.9638 19.1144L23.0252 18.97L22.542 18.7646ZM21.6553 18.9863L21.2934 19.3667L21.4138 19.4812L21.5781 19.5056L21.6553 18.9863ZM21.2812 18.543L21.713 18.244L21.7053 18.2334L21.2812 18.543ZM21.0801 18.2666L20.654 18.5734L20.656 18.5761L21.0801 18.2666ZM20.8789 17.9883L21.3049 17.6815L21.3008 17.6757L21.2964 17.67L20.8789 17.9883ZM17.7754 16.1045L17.8524 15.5852L17.8377 15.583L17.8228 15.5816L17.7754 16.1045ZM14.7832 16.5479L15.0376 17.0071L15.0436 17.0037L14.7832 16.5479ZM14.5264 16.6904L14.272 16.2312L14.2626 16.2364L14.2535 16.2419L14.5264 16.6904ZM12.4561 18.875L12.8273 19.2462L12.8696 19.204L12.9012 19.1533L12.4561 18.875ZM12.0264 19.0137L11.9845 19.537L12.0282 19.5405L12.0718 19.5367L12.0264 19.0137ZM11.4648 18.8682L11.0044 19.1204L11.078 19.2548L11.2124 19.3285L11.4648 18.8682ZM11.3818 18.1006L10.8853 17.9301L10.8739 17.9634L10.867 17.9978L11.3818 18.1006ZM14.5615 14.9961L14.8206 15.4527L15.4134 15.1164L14.9369 14.6291L14.5615 14.9961ZM14.2568 14.6846L13.8549 15.0224L13.8676 15.0375L13.8815 15.0516L14.2568 14.6846ZM13.3975 11.6641L12.8767 11.5974L12.8741 11.6175L12.8731 11.6378L13.3975 11.6641ZM17.9287 10.0293L18.227 9.59729L18.1692 9.55736L18.1029 9.53405L17.9287 10.0293ZM15.5596 10.3408L15.2433 9.9218L15.2113 9.94596L15.1833 9.97471L15.5596 10.3408ZM14.7275 12.2041L14.2034 12.1744L14.202 12.1992L14.2029 12.2241L14.7275 12.2041ZM15.5498 14.1045L15.174 14.4711L15.1995 14.4972L15.2283 14.5196L15.5498 14.1045ZM17.3555 14.6084L17.3659 15.1333L17.4076 15.1325L17.4487 15.1251L17.3555 14.6084ZM18.7734 13.666L19.1702 14.0099L19.1878 13.9895L19.2032 13.9675L18.7734 13.666ZM19.2168 11.5605L19.7361 11.4837L19.7288 11.434L19.7122 11.3866L19.2168 11.5605ZM22.542 1.03125L22.5798 1.55489C24.7993 1.39462 26.7997 1.86524 28.5163 3.24862L28.8457 2.83984L29.1751 2.43107C27.2103 0.847623 24.9306 0.332403 22.5042 0.507613L22.542 1.03125ZM28.8457 2.83984L28.5016 3.23631C29.8734 4.42715 30.7655 5.98865 31.1146 7.78194L31.6299 7.68164L32.1452 7.58134C31.7523 5.56238 30.7422 3.79085 29.1898 2.44337L28.8457 2.83984ZM31.6299 7.68164L31.1061 7.71731C31.1348 8.13946 31.134 8.55284 31.106 8.97718L31.6299 9.01172L32.1537 9.04626C32.1847 8.57748 32.1858 8.11712 32.1537 7.64597L31.6299 7.68164ZM31.6299 9.01172L31.6174 9.53657C31.6655 9.53772 31.7137 9.53884 31.7621 9.53997C31.8105 9.5411 31.8591 9.54223 31.9084 9.54341L31.9209 9.01855L31.9334 8.4937C31.8838 8.49252 31.8349 8.49138 31.7865 8.49025C31.7381 8.48912 31.6902 8.48801 31.6424 8.48687L31.6299 9.01172ZM31.9209 9.01855L31.7804 9.5244C31.9731 9.57792 32.0894 9.64688 32.1819 9.73019C32.283 9.82118 32.3803 9.95091 32.5088 10.1669L32.96 9.89844L33.4111 9.62996C33.2653 9.38496 33.1038 9.14718 32.8843 8.94969C32.6563 8.74453 32.3903 8.60405 32.0614 8.51271L31.9209 9.01855ZM32.96 9.89844L32.4505 10.0252C32.5221 10.3131 32.5232 10.5961 32.5161 10.9725L33.041 10.9824L33.5659 10.9924C33.5729 10.6226 33.5786 10.2106 33.4694 9.77172L32.96 9.89844ZM33.041 10.9824L32.516 10.9855C32.5163 11.0386 32.5167 11.0917 32.517 11.1451C32.5173 11.1985 32.5177 11.2523 32.518 11.3068L33.043 11.3037L33.568 11.3006C33.5676 11.2459 33.5673 11.192 33.567 11.1386C33.5666 11.0852 33.5663 11.0323 33.566 10.9793L33.041 10.9824ZM33.043 11.3037L32.518 11.3056C32.5192 11.6507 32.5159 11.9966 32.5121 12.346L33.0371 12.3516L33.5621 12.3572C33.5658 12.008 33.5692 11.6553 33.568 11.3019L33.043 11.3037ZM33.0371 12.3516L32.5121 12.3507C32.5117 12.5941 32.511 12.8393 32.5111 13.0842L33.0361 13.084L33.5611 13.0838C33.561 12.8404 33.5617 12.5973 33.5621 12.3524L33.0371 12.3516ZM33.0361 13.084L32.5111 13.0835C32.5106 13.5935 32.5078 14.1041 32.5033 14.6146L33.0283 14.6191L33.5533 14.6237C33.5578 14.111 33.5606 13.5977 33.5611 13.0845L33.0361 13.084ZM33.0283 14.6191L32.5033 14.6146C32.4977 15.2698 32.4972 15.9245 32.4975 16.5774L33.0225 16.5771L33.5475 16.5769C33.5472 15.9244 33.5477 15.2738 33.5533 14.6237L33.0283 14.6191ZM33.0225 16.5771L32.4975 16.5771C32.4974 17.0801 32.495 17.5837 32.4926 18.0883L33.0176 18.0908L33.5426 18.0933C33.545 17.5891 33.5474 17.0831 33.5475 16.5772L33.0225 16.5771ZM33.0176 18.0908L32.4926 18.0885C32.4915 18.3293 32.4909 18.5702 32.4906 18.811L33.0156 18.8115L33.5406 18.8121C33.5409 18.5724 33.5415 18.3328 33.5426 18.0931L33.0176 18.0908ZM33.0156 18.8115L32.4906 18.8104C32.4882 19.9388 32.4234 20.8608 32.1778 21.6988C31.9357 22.5247 31.5105 23.2926 30.751 24.0927L31.1318 24.4541L31.5126 24.8155C32.3791 23.9026 32.8933 22.9905 33.1854 21.9941C33.474 21.0097 33.5381 19.967 33.5406 18.8127L33.0156 18.8115ZM31.1318 24.4541L30.7485 24.0954C30.4857 24.3763 30.2457 24.6609 30.0117 24.9592L30.4248 25.2832L30.8379 25.6072C31.0565 25.3285 31.2767 25.0677 31.5152 24.8128L31.1318 24.4541ZM30.4248 25.2832L30.012 24.9588C29.6588 25.4083 29.2906 25.8454 28.9121 26.2839L29.3096 26.627L29.707 26.97C30.0903 26.5259 30.4703 26.0751 30.8376 25.6076L30.4248 25.2832ZM29.3096 26.627L28.912 26.284C28.4139 26.8615 27.9244 27.4453 27.4437 28.0386L27.8516 28.3691L28.2595 28.6997C28.7329 28.1154 29.2153 27.5399 29.7071 26.9699L29.3096 26.627ZM27.8516 28.3691L27.4446 28.0375C27.2702 28.2514 27.0918 28.4625 26.9096 28.6742L27.3076 29.0166L27.7056 29.359C27.8915 29.1429 28.0763 28.9244 28.2585 28.7008L27.8516 28.3691ZM27.3076 29.0166L26.917 28.6658C26.8132 28.7814 26.7029 28.8996 26.6252 29.0428C26.5478 29.1856 26.5089 29.3422 26.4689 29.4895L26.9756 29.627L27.4823 29.7644C27.5068 29.674 27.5207 29.623 27.5331 29.5843C27.5386 29.5669 27.5424 29.5568 27.5448 29.551C27.5469 29.5457 27.548 29.5438 27.5482 29.5435C27.5483 29.5432 27.5494 29.5412 27.5526 29.5365C27.5563 29.5313 27.5627 29.5226 27.5743 29.5085C27.5999 29.4771 27.6355 29.4372 27.6982 29.3674L27.3076 29.0166ZM26.9756 29.627L26.9945 30.1516C27.0479 30.1497 27.1013 30.1477 27.1551 30.1458C27.2088 30.1438 27.2629 30.1419 27.3178 30.1399L27.2988 29.6152L27.2799 29.0906C27.2249 29.0926 27.1707 29.0945 27.1169 29.0965C27.0632 29.0984 27.0099 29.1004 26.9566 29.1023L26.9756 29.627ZM27.2988 29.6152L27.3101 30.1401C27.3808 30.1386 27.4516 30.1369 27.5221 30.1352C27.5929 30.1336 27.6635 30.1319 27.7349 30.1303L27.7236 29.6055L27.7124 29.0806C27.6395 29.0821 27.5677 29.0839 27.4972 29.0855C27.4264 29.0872 27.3569 29.0889 27.2876 29.0904L27.2988 29.6152ZM27.7236 29.6055L27.7382 30.1303C27.8076 30.1283 27.8771 30.1264 27.9471 30.1244C28.0171 30.1225 28.0877 30.1205 28.1591 30.1185L28.1445 29.5937L28.13 29.069C28.0584 29.0709 27.9879 29.0729 27.9179 29.0749C27.8479 29.0768 27.7784 29.0787 27.7091 29.0807L27.7236 29.6055ZM28.1445 29.5937L28.1001 30.1169C28.3078 30.1345 28.3644 30.1502 28.3964 30.1639C28.4209 30.1745 28.4663 30.1989 28.5997 30.3314L28.9697 29.959L29.3397 29.5865C29.1839 29.4317 29.024 29.2911 28.812 29.1997C28.6073 29.1115 28.3959 29.0882 28.1889 29.0706L28.1445 29.5937ZM28.9697 29.959L28.4566 30.0702C28.4875 30.2128 28.4944 30.2471 28.4983 30.2841C28.5025 30.3239 28.5035 30.371 28.5043 30.5358L29.0293 30.5332L29.5543 30.5306C29.5536 30.3859 29.5535 30.2783 29.5426 30.1745C29.5314 30.0678 29.5093 29.9698 29.4828 29.8478L28.9697 29.959ZM29.0293 30.5332L28.5043 30.5359C28.5047 30.6201 28.505 30.6625 28.5053 30.7052C28.5055 30.7476 28.5058 30.7904 28.5063 30.8757L29.0312 30.873L29.5562 30.8704C29.5558 30.7844 29.5555 30.7412 29.5553 30.6985C29.555 30.6561 29.5547 30.6142 29.5543 30.5305L29.0293 30.5332ZM29.0312 30.873L28.5063 30.8653C28.505 30.9519 28.5042 30.9949 28.5034 31.0387C28.5026 31.0833 28.5018 31.1287 28.5004 31.2189L29.0254 31.2266L29.5503 31.2343C29.5516 31.1459 29.5524 31.1019 29.5532 31.0581C29.5541 31.0136 29.5549 30.9691 29.5562 30.8808L29.0312 30.873ZM29.0254 31.2266L28.5004 31.2343C28.5017 31.3224 28.5026 31.3668 28.5034 31.4113C28.5042 31.455 28.505 31.4988 28.5063 31.5868L29.0312 31.5791L29.5562 31.5714C29.5549 31.4815 29.554 31.4363 29.5532 31.3918C29.5524 31.3481 29.5516 31.3052 29.5503 31.2188L29.0254 31.2266ZM29.0312 31.5791L28.5063 31.5764C28.506 31.6322 28.5056 31.688 28.5053 31.7446C28.5049 31.801 28.5046 31.8582 28.5043 31.9163L29.0293 31.9189L29.5543 31.9216C29.5546 31.8642 29.5549 31.8075 29.5553 31.7509C29.5556 31.6945 29.556 31.6381 29.5562 31.5818L29.0312 31.5791ZM29.0293 31.9189L28.5043 31.9164C28.5041 31.9669 28.5037 32.0176 28.5033 32.0694C28.503 32.121 28.5026 32.1736 28.5023 32.2269L29.0273 32.2295L29.5523 32.2321C29.5526 32.18 29.553 32.1285 29.5533 32.0767C29.5537 32.0252 29.554 31.9733 29.5543 31.9215L29.0293 31.9189ZM29.0273 32.2295L28.5131 32.1237C28.4878 32.2469 28.4597 32.2943 28.4361 32.3258C28.4013 32.3722 28.3454 32.4248 28.2001 32.5406L28.5273 32.9512L28.8546 33.3617C28.994 33.2506 29.1509 33.1229 29.2764 32.9554C29.413 32.7731 29.4926 32.5731 29.5416 32.3353L29.0273 32.2295ZM28.5273 32.9512L28.439 32.4337C28.2795 32.4609 28.2594 32.4625 28.2448 32.4625C28.2326 32.4625 28.2174 32.4617 28.0654 32.4344L27.9727 32.9512L27.8799 33.4679C27.9981 33.4891 28.1182 33.5125 28.2448 33.5125C28.369 33.5125 28.4912 33.4899 28.6157 33.4687L28.5273 32.9512ZM27.9727 32.9512L28.3439 32.5799L28.0119 32.2479L27.6406 32.6191L27.2694 32.9904L27.6014 33.3224L27.9727 32.9512ZM27.6406 32.6191H28.1656V30.9561H27.6406H27.1156V32.6191H27.6406ZM27.6406 30.9561V30.4311H19.6602V30.9561V31.4811H27.6406V30.9561ZM19.6602 30.9561H19.1352V32.5078H19.6602H20.1852V30.9561H19.6602ZM19.6602 32.5078L19.2402 32.1928C19.1541 32.3076 19.1 32.3795 19.0573 32.4313C19.0145 32.4834 19.0051 32.4875 19.0152 32.4801C19.0224 32.4747 19.0326 32.4684 19.0442 32.4631C19.055 32.4581 19.0611 32.4567 19.058 32.4575C19.0415 32.4619 19.013 32.4668 18.9194 32.4805L18.9951 33L19.0709 33.5195C19.2043 33.5 19.4311 33.4787 19.6401 33.3239C19.7333 33.2548 19.807 33.1727 19.8681 33.0985C19.9294 33.0241 20 32.9297 20.0802 32.8228L19.6602 32.5078ZM18.9951 33L19.0709 32.4805C18.9844 32.4679 18.9318 32.4602 18.8923 32.4531C18.854 32.4463 18.8479 32.4434 18.8534 32.4453C18.8736 32.4523 18.8904 32.4693 18.7837 32.3931L18.4785 32.8203L18.1734 33.2475C18.2506 33.3027 18.3595 33.3853 18.509 33.4372C18.6329 33.4802 18.7788 33.499 18.9194 33.5195L18.9951 33ZM18.4785 32.8203L18.901 32.5086C18.8422 32.429 18.83 32.3864 18.8231 32.3487C18.8111 32.2824 18.8118 32.21 18.8111 32.0148L18.2861 32.0166L17.7611 32.0184C17.7616 32.1631 17.757 32.3549 17.7901 32.5367C17.8284 32.7471 17.9118 32.9365 18.0561 33.132L18.4785 32.8203ZM18.2861 32.0166L18.8111 32.0147C18.8109 31.9564 18.8108 31.8979 18.8106 31.8385C18.8105 31.7793 18.8104 31.7192 18.8102 31.6582L18.2852 31.6602L17.7602 31.6621C17.7604 31.7222 17.7605 31.7816 17.7606 31.8409C17.7608 31.9002 17.7609 31.9594 17.7611 32.0185L18.2861 32.0166ZM18.2852 31.6602L18.8101 31.6657C18.8111 31.5726 18.8113 31.5257 18.8116 31.4788C18.8118 31.433 18.8121 31.3871 18.8131 31.2946L18.2881 31.2891L17.7631 31.2836C17.7621 31.3785 17.7619 31.4263 17.7616 31.4733C17.7614 31.5192 17.7611 31.5641 17.7602 31.6546L18.2852 31.6602ZM18.2881 31.2891L18.8131 31.2836C18.8124 31.2235 18.812 31.1633 18.8116 31.1014C18.8112 31.0399 18.8108 30.9767 18.8101 30.9125L18.2852 30.918L17.7602 30.9235C17.7608 30.9854 17.7612 31.0465 17.7616 31.1084C17.7621 31.1699 17.7625 31.2321 17.7631 31.2946L18.2881 31.2891ZM18.2852 30.918L18.8102 30.9199C18.8104 30.8607 18.8105 30.8015 18.8106 30.7423C18.8108 30.6829 18.8109 30.6235 18.8111 30.5634L18.2861 30.5615L17.7611 30.5596C17.7609 30.6205 17.7608 30.6806 17.7606 30.7399C17.7605 30.7993 17.7604 30.8578 17.7602 30.9161L18.2852 30.918ZM18.2861 30.5615L18.8111 30.5634C18.8113 30.5094 18.8115 30.4553 18.8116 30.4011C18.8118 30.3468 18.8119 30.2924 18.8121 30.2372L18.2871 30.2353L17.7621 30.2335C17.7619 30.2891 17.7618 30.344 17.7616 30.3982C17.7615 30.4525 17.7613 30.5061 17.7611 30.5597L18.2861 30.5615ZM18.2871 30.2353L18.8059 30.316C18.8308 30.156 18.8317 30.1982 18.8129 30.2286C18.8097 30.2338 18.8152 30.2233 18.8545 30.181C18.894 30.1386 18.9483 30.0842 19.0343 29.9982L18.6631 29.627L18.2919 29.2557C18.1501 29.3975 18.008 29.5341 17.9202 29.6757C17.8073 29.8581 17.7864 30.0383 17.7683 30.1547L18.2871 30.2353ZM18.6631 29.627V30.152H19.6602V29.627V29.102H18.6631V29.627ZM19.6602 29.627L20.1849 29.6115C20.1666 28.9897 20.1482 28.3678 20.1297 27.7413C20.1111 27.1147 20.0924 26.4835 20.0736 25.843L19.5488 25.8584L19.0241 25.8738C19.0429 26.5145 19.0616 27.1458 19.0801 27.7723C19.0987 28.3989 19.1171 29.0207 19.1354 29.6424L19.6602 29.627ZM19.5488 25.8584L19.2553 25.4231C18.5542 25.8959 18.5535 25.8967 17.8548 26.3728L18.1504 26.8066L18.446 27.2405C19.1437 26.7651 19.143 26.7653 19.8423 26.2937L19.5488 25.8584ZM18.1504 26.8066L17.8605 26.3689C17.8169 26.3978 17.7731 26.4267 17.7285 26.4561C17.684 26.4855 17.6388 26.5153 17.5929 26.5457L17.8828 26.9834L18.1727 27.4211C18.2177 27.3913 18.2622 27.362 18.3067 27.3326C18.3512 27.3033 18.3957 27.2739 18.4403 27.2444L18.1504 26.8066ZM17.8828 26.9834L17.589 26.5483C17.5441 26.5787 17.499 26.6092 17.4538 26.6397C17.4086 26.6703 17.3633 26.701 17.3175 26.7319L17.6113 27.167L17.9051 27.6021C17.9514 27.5708 17.9972 27.5399 18.0423 27.5093C18.0876 27.4787 18.1322 27.4485 18.1766 27.4185L17.8828 26.9834ZM17.6113 27.167L17.3865 26.6926C17.2496 26.7574 17.1632 26.7808 17.0873 26.7903C17.0053 26.8005 16.9056 26.7983 16.7297 26.7775L16.668 27.2988L16.6062 27.8202C16.8097 27.8443 17.0087 27.8582 17.217 27.8322C17.4315 27.8055 17.627 27.7405 17.8362 27.6414L17.6113 27.167ZM16.668 27.2988L16.8929 26.8244C16.7471 26.7553 16.6984 26.7318 16.6514 26.7048C16.6032 26.6771 16.5539 26.6441 16.412 26.5483L16.1182 26.9834L15.8243 27.4185C15.9532 27.5055 16.0394 27.5642 16.1286 27.6154C16.2191 27.6673 16.3099 27.7101 16.4431 27.7732L16.668 27.2988ZM16.1182 26.9834L16.408 26.5457C16.3628 26.5157 16.3175 26.486 16.2729 26.4567C16.2281 26.4273 16.1839 26.3983 16.1395 26.3689L15.8496 26.8066L15.5597 27.2444C15.6063 27.2752 15.6523 27.3054 15.6969 27.3346C15.7418 27.3641 15.7852 27.3926 15.8283 27.4211L16.1182 26.9834ZM15.8496 26.8066L16.1466 26.3737C16.0651 26.3178 16.0245 26.2898 15.9832 26.2613C15.9415 26.2324 15.899 26.2031 15.8145 26.1452L15.5176 26.5781L15.2206 27.0111C15.3039 27.0682 15.3453 27.0968 15.3866 27.1253C15.4283 27.1541 15.4699 27.1828 15.5527 27.2396L15.8496 26.8066ZM15.5176 26.5781L15.8114 26.143C15.6354 26.0242 15.4593 25.9054 15.282 25.7858C15.1047 25.6661 14.9261 25.5456 14.745 25.4233L14.4512 25.8584L14.1574 26.2935C14.3387 26.416 14.5174 26.5365 14.6947 26.6562C14.8721 26.7758 15.0479 26.8945 15.2238 27.0132L15.5176 26.5781ZM14.4512 25.8584L13.9264 25.843C13.9081 26.4646 13.8897 27.0864 13.8712 27.713C13.8526 28.3396 13.8339 28.9709 13.8151 29.6115L14.3398 29.627L14.8646 29.6424C14.8835 29.0019 14.9021 28.3706 14.9207 27.7441C14.9392 27.1175 14.9577 26.4956 14.9759 25.8738L14.4512 25.8584ZM14.3398 29.627V30.152H15.2266V29.627V29.102H14.3398V29.627ZM15.2266 29.627L15.0033 30.1021C15.0753 30.136 15.1162 30.1552 15.1466 30.1709C15.1741 30.1851 15.1771 30.1884 15.1728 30.1852C15.167 30.1808 15.1673 30.1796 15.1809 30.1943C15.1984 30.2134 15.2211 30.2404 15.2664 30.2948L15.6699 29.959L16.0735 29.6232C16.0022 29.5375 15.9174 29.4309 15.8017 29.3443C15.693 29.2631 15.565 29.2059 15.4498 29.1518L15.2266 29.627ZM15.6699 29.959L15.1552 30.0624C15.185 30.2106 15.1922 30.249 15.1961 30.2907C15.2003 30.3354 15.2009 30.3879 15.2006 30.5605L15.7256 30.5615L16.2506 30.5625C16.2509 30.4092 16.2515 30.2988 16.2416 30.1929C16.2314 30.0839 16.2104 29.984 16.1846 29.8555L15.6699 29.959ZM15.7256 30.5615L15.2006 30.5618C15.2006 30.6203 15.2006 30.6789 15.2006 30.7382C15.2006 30.7975 15.2005 30.8575 15.2006 30.9183L15.7256 30.918L16.2506 30.9176C16.2505 30.8574 16.2506 30.7979 16.2506 30.7386C16.2506 30.6793 16.2506 30.6202 16.2506 30.5612L15.7256 30.5615ZM15.7256 30.918L15.2007 30.9085C15.1996 30.9695 15.1984 31.0306 15.1973 31.0924C15.1961 31.154 15.195 31.2163 15.1938 31.2796L15.7187 31.2891L16.2437 31.2985C16.2448 31.2356 16.246 31.1736 16.2471 31.1119C16.2482 31.0502 16.2494 30.9888 16.2505 30.9275L15.7256 30.918ZM15.7187 31.2891L15.1938 31.2924C15.1941 31.3531 15.1944 31.4139 15.1947 31.4757C15.195 31.5373 15.1953 31.5999 15.1957 31.6635L15.7207 31.6602L16.2457 31.6568C16.2453 31.5942 16.245 31.5325 16.2447 31.4708C16.2444 31.4091 16.2441 31.3475 16.2437 31.2857L15.7187 31.2891ZM15.7207 31.6602L15.1957 31.656C15.1919 32.133 15.1887 32.2999 15.1731 32.3912C15.1705 32.406 15.1688 32.411 15.169 32.4102C15.1695 32.4088 15.1702 32.4073 15.1698 32.4081C15.1643 32.4184 15.1537 32.4347 15.0993 32.5083L15.5215 32.8203L15.9437 33.1324C16.0439 32.9968 16.1605 32.8455 16.208 32.5687C16.2421 32.3698 16.2423 32.0867 16.2457 31.6643L15.7207 31.6602ZM15.5215 32.8203L15.2162 32.3932C15.1382 32.4489 15.0983 32.4565 15.0662 32.4597C15.0082 32.4654 14.9331 32.4586 14.7486 32.4317L14.6729 32.9512L14.5971 33.4707C14.7571 33.494 14.9615 33.5252 15.1694 33.5046C15.403 33.4816 15.6152 33.3986 15.8268 33.2474L15.5215 32.8203ZM14.6729 32.9512L15.0929 32.6362C14.9305 32.4197 14.9186 32.3968 14.8995 32.2827C14.867 32.0883 14.8648 31.7596 14.8648 30.9561H14.3398H13.8148C13.8148 31.7041 13.813 32.1513 13.8639 32.4558C13.9282 32.8406 14.0828 33.0394 14.2529 33.2662L14.6729 32.9512ZM14.3398 30.9561V30.4311H6.36035V30.9561V31.4811H14.3398V30.9561ZM6.36035 30.9561H5.83535V32.6191H6.36035H6.88535V30.9561H6.36035ZM6.36035 32.6191L5.98912 32.2479C5.90274 32.3343 5.84999 32.3868 5.80873 32.4246C5.76889 32.461 5.76007 32.4644 5.76698 32.4604C5.78013 32.4529 5.7893 32.4518 5.77443 32.4553C5.74827 32.4613 5.71042 32.4672 5.61955 32.4805L5.69531 33L5.77107 33.5195C5.90776 33.4996 6.10134 33.4789 6.28856 33.3717C6.44821 33.2803 6.59071 33.1312 6.73158 32.9904L6.36035 32.6191ZM5.69531 33L5.77107 32.4805C5.68295 32.4676 5.63557 32.4606 5.60164 32.4539C5.57064 32.4478 5.5789 32.447 5.59989 32.4567C5.62591 32.4686 5.64043 32.4817 5.63575 32.4776C5.62333 32.4667 5.60478 32.4483 5.55351 32.396L5.17871 32.7637L4.80391 33.1313C4.87308 33.2018 4.9911 33.3328 5.16289 33.4114C5.31307 33.4801 5.48979 33.5006 5.61955 33.5195L5.69531 33ZM5.17871 32.7637L5.63281 32.5002C5.56692 32.3866 5.54369 32.3173 5.53139 32.2557C5.51671 32.1822 5.51197 32.094 5.51132 31.917L4.98633 31.9189L4.46133 31.9209C4.46197 32.0953 4.46484 32.2767 4.50174 32.4614C4.54101 32.658 4.61334 32.8354 4.72462 33.0272L5.17871 32.7637ZM4.98633 31.9189L5.51132 31.9169C5.511 31.8319 5.51067 31.7891 5.51034 31.7463C5.51002 31.7042 5.5097 31.6619 5.50937 31.5771L4.98437 31.5791L4.45938 31.5811C4.45971 31.6678 4.46004 31.7114 4.46037 31.7543C4.46069 31.7965 4.46101 31.8378 4.46133 31.921L4.98633 31.9189ZM4.98437 31.5791L5.50934 31.5849C5.50999 31.5268 5.51063 31.4686 5.51128 31.41C5.51193 31.3514 5.51259 31.2923 5.51325 31.2324L4.98828 31.2266L4.46331 31.2208C4.46265 31.2807 4.462 31.3397 4.46135 31.3983C4.4607 31.4569 4.46005 31.5151 4.45941 31.5733L4.98437 31.5791ZM4.98828 31.2266L5.51325 31.2208C5.51261 31.1624 5.51196 31.1041 5.51131 31.0453C5.51066 30.9865 5.51 30.9273 5.50934 30.8673L4.98437 30.873L4.45941 30.8788C4.46007 30.9389 4.46072 30.9982 4.46137 31.0569C4.46203 31.1157 4.46267 31.174 4.46331 31.2323L4.98828 31.2266ZM4.98437 30.873L5.50937 30.8751C5.50958 30.82 5.50995 30.7646 5.51033 30.7079C5.51071 30.6515 5.5111 30.5938 5.51132 30.5352L4.98633 30.5332L4.46133 30.5312C4.46111 30.588 4.46074 30.6442 4.46036 30.7009C4.45998 30.7573 4.4596 30.8142 4.45938 30.871L4.98437 30.873ZM4.98633 30.5332L5.51132 30.5351C5.51151 30.4838 5.51166 30.4325 5.51181 30.3811C5.51196 30.3296 5.51211 30.2779 5.5123 30.2256L4.9873 30.2236L4.46231 30.2217C4.46211 30.2746 4.46196 30.3266 4.46181 30.3781C4.46166 30.4296 4.46152 30.4804 4.46133 30.5313L4.98633 30.5332ZM4.9873 30.2236L5.5055 30.3079C5.51698 30.2373 5.52308 30.2001 5.5287 30.1726C5.53352 30.149 5.53444 30.1511 5.53015 30.1618C5.52534 30.1739 5.52171 30.1777 5.53076 30.1637C5.54289 30.1449 5.56109 30.1194 5.59972 30.0658L5.17383 29.7588L4.74793 29.4518C4.68906 29.5335 4.60756 29.641 4.55515 29.7721C4.50527 29.8969 4.48649 30.0324 4.4691 30.1394L4.9873 30.2236ZM5.17383 29.7588L5.47581 30.1882C5.53192 30.1488 5.59856 30.1258 5.71086 30.1178C5.84828 30.1081 5.96968 30.1219 6.19574 30.1301L6.21484 29.6055L6.23395 29.0808C6.09069 29.0756 5.8489 29.0554 5.6368 29.0704C5.39958 29.0872 5.13037 29.1475 4.87185 29.3293L5.17383 29.7588ZM6.21484 29.6055L6.20472 30.1304C6.24288 30.1311 6.28113 30.1319 6.32036 30.1328C6.35941 30.1336 6.3994 30.1345 6.44007 30.1353L6.45019 29.6103L6.46032 29.0854C6.42098 29.0847 6.38212 29.0839 6.34291 29.083C6.30389 29.0822 6.26448 29.0813 6.22497 29.0806L6.21484 29.6055ZM6.45019 29.6103L6.43948 30.1352C6.62722 30.1391 6.81598 30.1453 7.00796 30.1517L7.02539 29.627L7.04282 29.1022C6.8517 29.0959 6.6564 29.0894 6.46091 29.0855L6.45019 29.6103ZM7.02539 29.627L7.49704 29.3964C7.1369 28.6597 6.64485 28.1246 6.14971 27.5933L5.76562 27.9512L5.38154 28.3091C5.88176 28.8459 6.27048 29.2782 6.55374 29.8575L7.02539 29.627ZM5.76562 27.9512L6.15277 27.5966C5.80495 27.2168 5.48083 26.8177 5.14475 26.4016L4.73633 26.7314L4.32791 27.0613C4.6621 27.4751 5.00553 27.8986 5.37848 28.3058L5.76562 27.9512ZM4.73633 26.7314L5.14342 26.3999C4.8542 26.0448 4.55934 25.696 4.26614 25.3513L3.86621 25.6914L3.46628 26.0315C3.75879 26.3755 4.04753 26.717 4.32924 27.063L4.73633 26.7314ZM3.86621 25.6914L4.26667 25.3519C2.82588 23.6523 2.1758 22.879 1.85589 22.2289C1.56189 21.6315 1.54965 21.1452 1.54159 19.897L1.0166 19.9004L0.491613 19.9038C0.499368 21.1041 0.495284 21.8421 0.913797 22.6926C1.30641 23.4904 2.07323 24.3883 3.46575 26.0309L3.86621 25.6914ZM1.0166 19.9004L1.54157 19.8951C1.54104 19.8422 1.54059 19.7893 1.54013 19.7355C1.53967 19.6818 1.53921 19.6273 1.53864 19.5718L1.01367 19.5771L0.488699 19.5825C0.489251 19.6369 0.48971 19.6907 0.490168 19.7445C0.490625 19.7981 0.491083 19.8519 0.491629 19.9057L1.0166 19.9004ZM1.01367 19.5771L1.53865 19.5722C1.53535 19.2207 1.53294 18.8685 1.53085 18.5164L1.00586 18.5195L0.480869 18.5227C0.482966 18.8753 0.485383 19.2288 0.488695 19.5821L1.01367 19.5771ZM1.00586 18.5195L1.53085 18.5164C1.53049 18.4563 1.53019 18.3962 1.52988 18.3352C1.52958 18.2743 1.52927 18.2126 1.5289 18.1502L1.00391 18.1533L0.478916 18.1565C0.479289 18.2183 0.479594 18.2795 0.479898 18.3404C0.480201 18.4013 0.480503 18.462 0.480869 18.5227L1.00586 18.5195ZM1.00391 18.1533L1.5289 18.1504C1.5253 17.5124 1.52228 16.8743 1.52011 16.2365L0.995117 16.2383L0.47012 16.2401C0.472285 16.8788 0.475309 17.5177 0.478915 18.1563L1.00391 18.1533ZM0.995117 16.2383L1.52011 16.2363C1.51813 15.7072 1.5139 15.1783 1.50837 14.6498L0.983398 14.6553L0.458427 14.6608C0.463939 15.1876 0.468149 15.714 0.470121 16.2402L0.995117 16.2383ZM0.983398 14.6553L1.50837 14.6498C1.50172 14.0137 1.49873 13.3774 1.49766 12.7403L0.972656 12.7412L0.447657 12.7421C0.448735 13.3812 0.45174 14.0208 0.458427 14.6608L0.983398 14.6553ZM0.972656 12.7412L1.49765 12.7392C1.4967 12.4955 1.49503 12.2506 1.49175 12.0057L0.966797 12.0127L0.441844 12.0197C0.445066 12.2602 0.446716 12.5015 0.44766 12.7433L0.972656 12.7412ZM0.966797 12.0127L1.49175 12.006C1.48749 11.67 1.48702 11.3331 1.48789 10.9945L0.962891 10.9932L0.437892 10.9918C0.437017 11.3329 0.437479 11.6758 0.441839 12.0194L0.966797 12.0127ZM0.962891 10.9932L1.48776 10.9815C1.48609 10.9065 1.48523 10.8688 1.48436 10.8309C1.48349 10.7931 1.48262 10.755 1.48093 10.6788L0.956055 10.6904L0.431184 10.7021C0.432884 10.7786 0.433765 10.817 0.434636 10.855C0.435504 10.8928 0.436362 10.9301 0.43802 11.0048L0.962891 10.9932ZM0.956055 10.6904L1.48102 10.6965C1.48425 10.416 1.51514 10.2461 1.56989 10.1085C1.62455 9.97121 1.71879 9.82656 1.90978 9.62127L1.52539 9.26367L1.14101 8.90608C0.90178 9.16323 0.714986 9.41712 0.594346 9.72017C0.473797 10.023 0.435116 10.3352 0.43109 10.6844L0.956055 10.6904ZM1.52539 9.26367L1.85046 9.67593C1.98244 9.57186 2.08929 9.54355 2.38261 9.53657L2.37012 9.01172L2.35762 8.48687C1.98587 8.49572 1.60015 8.53614 1.20032 8.85142L1.52539 9.26367ZM2.37012 9.01172L2.89483 8.99423C2.89255 8.92587 2.89031 8.85738 2.88805 8.78815C2.8858 8.71898 2.88352 8.64908 2.88115 8.57821L2.35645 8.5957L1.83174 8.61319C1.83408 8.68364 1.83635 8.75317 1.83861 8.82239C1.84087 8.89155 1.84312 8.96041 1.84541 9.02921L2.37012 9.01172ZM2.35645 8.5957L2.88144 8.59817C2.89032 6.70795 3.70152 5.05858 5.02485 3.65282L4.64258 3.29297L4.26031 2.93311C2.79973 4.48467 1.84186 6.3782 1.83145 8.59324L2.35645 8.5957ZM4.64258 3.29297L5.00754 3.67036C7.87096 0.901219 12.181 0.832638 15.2187 3.42567L15.5596 3.02637L15.9004 2.62706C12.4651 -0.305376 7.54302 -0.242329 4.27761 2.91558L4.64258 3.29297ZM15.5596 3.02637L15.2084 3.41659C15.6355 3.801 15.99 4.15247 16.2671 4.58434L16.709 4.30078L17.1508 4.01723C16.7946 3.46208 16.3527 3.03385 15.9108 2.63614L15.5596 3.02637ZM16.709 4.30078L16.2688 4.5869C16.3136 4.65588 16.3363 4.69055 16.359 4.7254C16.3816 4.75993 16.4042 4.79467 16.4495 4.86424L16.8896 4.57812L17.3298 4.29201C17.2841 4.22165 17.261 4.18629 17.2383 4.15143C17.2157 4.11688 17.1935 4.08284 17.1492 4.01466L16.709 4.30078ZM16.8896 4.57812V5.10312H17.1113V4.57812V4.05312H16.8896V4.57812ZM17.1113 4.57812L17.5057 4.92468C17.5882 4.83082 17.6418 4.76989 17.6964 4.69965C17.7491 4.63198 17.8017 4.55701 17.886 4.43739L17.457 4.13477L17.028 3.83214C16.9366 3.96169 16.9015 4.01151 16.8678 4.05479C16.8361 4.09549 16.8048 4.13167 16.717 4.23157L17.1113 4.57812ZM17.457 4.13477L17.8747 4.4529C19.0469 2.91399 20.7126 1.82787 22.6176 1.55078L22.542 1.03125L22.4664 0.511717C20.2537 0.833569 18.3549 2.08964 17.0394 3.81663L17.457 4.13477ZM2.8457 10.333L2.83834 9.80806C2.68197 9.81025 2.51914 9.81214 2.35766 9.81597L2.37012 10.3408L2.38257 10.8657C2.53746 10.862 2.69302 10.8602 2.85306 10.858L2.8457 10.333ZM2.37012 10.3408L1.84513 10.3369C1.83577 11.5781 1.82838 12.82 1.82364 14.0615L2.34863 14.0635L2.87363 14.0655C2.87836 12.8255 2.88575 11.5849 2.8951 10.3448L2.37012 10.3408ZM2.34863 14.0635L1.82364 14.0616C1.82141 14.6956 1.8194 15.3286 1.81486 15.9611L2.33984 15.9648L2.86483 15.9686C2.86939 15.3338 2.8714 14.6986 2.87363 14.0653L2.34863 14.0635ZM2.33984 15.9648L1.81486 15.9607C1.80994 16.5807 1.80579 17.2018 1.8041 17.8228L2.3291 17.8242L2.8541 17.8256C2.85578 17.2073 2.85991 16.5883 2.86483 15.969L2.33984 15.9648ZM2.3291 17.8242L1.8041 17.8232C1.80366 18.0597 1.80298 18.2968 1.80215 18.5333L2.32715 18.5352L2.85215 18.537C2.85297 18.3 2.85366 18.0623 2.8541 17.8252L2.3291 17.8242ZM2.32715 18.5352L1.80218 18.5297C1.78749 19.9538 1.71808 21.3564 2.55466 22.7986L3.00879 22.5352L3.46292 22.2717C2.7963 21.1225 2.83678 20.0277 2.85212 18.5406L2.32715 18.5352ZM3.00879 22.5352L2.59263 22.8552C2.62645 22.8992 2.65978 22.9426 2.69309 22.9861C2.72633 23.0294 2.75955 23.0727 2.79283 23.116L3.20898 22.7959L3.62514 22.4758C3.59233 22.4332 3.5595 22.3904 3.52619 22.347C3.49294 22.3036 3.45922 22.2597 3.42494 22.2151L3.00879 22.5352ZM3.20898 22.7959L2.79242 23.1154C3.24698 23.708 3.72596 24.2764 4.20429 24.8333L4.60254 24.4912L5.00079 24.1491C4.52552 23.5958 4.06188 23.0452 3.62555 22.4764L3.20898 22.7959ZM4.60254 24.4912L4.2047 24.8338C4.46669 25.138 4.72733 25.4448 4.98819 25.7525L5.38867 25.4131L5.78916 25.0736C5.52799 24.7655 5.26517 24.4562 5.00038 24.1487L4.60254 24.4912ZM5.38867 25.4131L4.988 25.7523C5.01463 25.7838 5.04092 25.8147 5.06655 25.8448C5.09231 25.8751 5.11739 25.9046 5.14229 25.934L5.54297 25.5947L5.94364 25.2555C5.91777 25.2249 5.89186 25.1945 5.86624 25.1644C5.8405 25.1341 5.81502 25.1042 5.78934 25.0738L5.38867 25.4131ZM5.54297 25.5947L5.14259 25.9343C5.51458 26.3729 5.88148 26.8153 6.24343 27.2621L6.65137 26.9316L7.0593 26.6012C6.69229 26.1481 6.32036 25.6996 5.94335 25.2551L5.54297 25.5947ZM6.65137 26.9316L6.24252 27.261C6.58243 27.6829 6.93732 28.072 7.30602 28.4536L7.68359 28.0889L8.06117 27.7241C7.70603 27.3565 7.37403 26.9919 7.06022 26.6023L6.65137 26.9316ZM7.68359 28.0889L7.32556 28.4728C7.46215 28.6002 7.49773 28.6346 7.52819 28.6711C7.55918 28.7083 7.58855 28.7521 7.69255 28.9134L8.13379 28.6289L8.57503 28.3444C8.48435 28.2038 8.41619 28.0965 8.33455 27.9986C8.25237 27.9001 8.16019 27.8154 8.04162 27.7049L7.68359 28.0889ZM8.13379 28.6289L7.62129 28.7428C7.65897 28.9123 7.69612 29.0794 7.73298 29.2451C7.76984 29.4109 7.80642 29.5754 7.84297 29.7399L8.35547 29.626L8.86797 29.5121C8.8314 29.3475 8.7948 29.183 8.75794 29.0172C8.72108 28.8514 8.68394 28.6845 8.64629 28.515L8.13379 28.6289ZM8.35547 29.626V30.151H13.0107V29.626V29.101H8.35547V29.626ZM13.0107 29.626L13.5357 29.6276C13.5379 28.9536 13.5395 28.2794 13.5406 27.6054L13.0156 27.6045L12.4906 27.6036C12.4895 28.2771 12.4879 28.9508 12.4857 29.6243L13.0107 29.626ZM13.0156 27.6045L13.5406 27.6054C13.5411 27.3298 13.542 27.0571 13.5426 26.7804L13.0176 26.7793L12.4926 26.7782C12.492 27.0516 12.4911 27.3292 12.4906 27.6036L13.0156 27.6045ZM13.0176 26.7793L13.5426 26.7811C13.544 26.3767 13.5459 25.9702 13.5465 25.5643L13.0215 25.5635L12.4965 25.5627C12.4959 25.9672 12.494 26.3714 12.4926 26.7775L13.0176 26.7793ZM13.0215 25.5635L13.5465 25.5641C13.5466 25.4981 13.5465 25.4329 13.5465 25.3688C13.5464 25.3046 13.5464 25.2414 13.5465 25.1784L13.0215 25.1777L12.4965 25.1771C12.4964 25.2412 12.4964 25.3054 12.4965 25.3695C12.4965 25.4337 12.4966 25.4979 12.4965 25.5628L13.0215 25.5635ZM13.0215 25.1777L13.5465 25.1802C13.5468 25.117 13.5471 25.0548 13.5475 24.9927C13.5478 24.9307 13.5481 24.8689 13.5484 24.8071L13.0234 24.8047L12.4984 24.8022C12.4982 24.8635 12.4978 24.9248 12.4975 24.9869C12.4971 25.0489 12.4968 25.1116 12.4965 25.1753L13.0215 25.1777ZM13.0234 24.8047L13.5484 24.8047C13.5484 24.7165 13.5484 24.6723 13.5484 24.6285C13.5484 24.5848 13.5484 24.5415 13.5484 24.4551L13.0234 24.4551L12.4984 24.455C12.4984 24.5415 12.4984 24.5848 12.4984 24.6286C12.4984 24.6723 12.4984 24.7165 12.4984 24.8046L13.0234 24.8047ZM13.0234 24.4551L13.5484 24.4563C13.552 22.9799 12.8853 22.06 11.9683 21.136L11.5957 21.5059L11.2231 21.8757C12.0602 22.7191 12.501 23.3853 12.4984 24.4538L13.0234 24.4551ZM11.5957 21.5059L11.9638 21.1315C11.9148 21.0834 11.8665 21.0356 11.8181 20.9878C11.7698 20.9401 11.7214 20.8922 11.6728 20.8444L11.3047 21.2187L10.9366 21.5931C10.9841 21.6398 11.0316 21.6868 11.0801 21.7347C11.1284 21.7824 11.1776 21.831 11.2276 21.8802L11.5957 21.5059ZM11.3047 21.2187L11.6757 20.8473C11.4165 20.5884 11.1561 20.3285 10.8944 20.0699L10.5254 20.4434L10.1564 20.8168C10.4158 21.0732 10.6745 21.3313 10.9336 21.5902L11.3047 21.2187ZM10.5254 20.4434L10.894 20.0695C10.6238 19.8031 10.3543 19.5367 10.0871 19.2694L9.71582 19.6406L9.34457 20.0118C9.61448 20.2818 9.88604 20.5503 10.1568 20.8172L10.5254 20.4434ZM9.71582 19.6406L10.0872 19.2695C9.87552 19.0577 9.6633 18.8463 9.45113 18.6354L9.08105 19.0078L8.71098 19.3802C8.92252 19.5904 9.13386 19.801 9.34447 20.0117L9.71582 19.6406ZM9.08105 19.0078L9.45092 18.6352C9.39972 18.5844 9.34929 18.534 9.29859 18.4834C9.24807 18.4329 9.19725 18.3822 9.14623 18.3315L8.77637 18.7041L8.4065 19.0767C8.45616 19.126 8.50582 19.1756 8.55654 19.2263C8.60708 19.2767 8.65865 19.3282 8.71119 19.3804L9.08105 19.0078ZM8.77637 18.7041L9.14712 18.3324C8.57716 17.7639 7.89542 16.9993 7.05957 16.5328L6.80371 16.9912L6.54785 17.4496C7.22026 17.8249 7.76481 18.4367 8.40562 19.0758L8.77637 18.7041ZM6.80371 16.9912L6.89764 16.4747C6.4463 16.3926 5.96442 16.3812 5.46067 16.6329L5.69531 17.1025L5.92995 17.5722C6.15309 17.4607 6.37821 17.4474 6.70978 17.5077L6.80371 16.9912ZM5.69531 17.1025L5.34544 16.7111C5.02899 16.994 4.60007 17.3851 4.46636 18.0033L4.97949 18.1143L5.49263 18.2252C5.54627 17.9772 5.71551 17.7886 6.04518 17.494L5.69531 17.1025ZM4.97949 18.1143L4.45458 18.1046C4.44876 18.4195 4.48199 18.7031 4.5963 18.9784C4.70906 19.2499 4.88347 19.4709 5.08857 19.6863L5.46875 19.3242L5.84893 18.9622C5.68281 18.7877 5.60756 18.6757 5.56598 18.5756C5.52596 18.4793 5.50017 18.3528 5.5044 18.124L4.97949 18.1143ZM5.46875 19.3242L5.1003 19.6982C5.19731 19.7938 5.26864 19.864 5.363 19.957L5.73145 19.583L6.09989 19.209C6.02099 19.1313 5.91868 19.0305 5.8372 18.9502L5.46875 19.3242ZM5.73145 19.583L5.36189 19.9559C5.55999 20.1522 5.7589 20.3489 5.95761 20.5448L6.32617 20.1709L6.69473 19.797C6.49676 19.6019 6.29853 19.4059 6.101 19.2101L5.73145 19.583ZM6.32617 20.1709L5.95767 20.5448C6.42472 21.0051 6.88589 21.4638 7.33471 21.9325L7.71387 21.5693L8.09302 21.2062C7.63325 20.7261 7.1632 20.2587 6.69467 19.797L6.32617 20.1709ZM7.71387 21.5693L7.32657 21.9238C7.3627 21.9632 7.39836 22.0024 7.43413 22.0416C7.46979 22.0807 7.50558 22.12 7.54141 22.1591L7.92871 21.8047L8.31601 21.4502C8.28095 21.4119 8.24584 21.3734 8.21005 21.3342C8.17438 21.295 8.13806 21.2552 8.10117 21.2149L7.71387 21.5693ZM7.92871 21.8047L7.55062 22.1689C7.65181 22.274 7.67829 22.302 7.69935 22.3282C7.7176 22.351 7.73388 22.375 7.80254 22.4826L8.24512 22.2002L8.6877 21.9178C8.62781 21.8239 8.57941 21.7473 8.51836 21.6712C8.46012 21.5986 8.39266 21.5296 8.3068 21.4404L7.92871 21.8047ZM8.24512 22.2002L7.72053 22.2209C7.72439 22.3187 7.72661 22.3779 7.72666 22.4231C7.72671 22.4653 7.72463 22.4774 7.7244 22.4788C7.72342 22.4846 7.72409 22.4913 7.65256 22.6554L8.13379 22.8652L8.61502 23.0751C8.66904 22.9512 8.73282 22.8136 8.75985 22.653C8.78503 22.5034 8.77621 22.344 8.76971 22.1794L8.24512 22.2002ZM8.13379 22.8652L7.97493 22.3648C7.78462 22.4253 7.74247 22.4371 7.69759 22.4436C7.64742 22.4508 7.58671 22.4521 7.3597 22.4516L7.3584 22.9766L7.3571 23.5016C7.55269 23.502 7.70361 23.5036 7.84746 23.4828C7.99659 23.4613 8.13084 23.417 8.29264 23.3656L8.13379 22.8652ZM7.3584 22.9766L7.61183 22.5168C7.45968 22.4329 7.34638 22.3334 7.17329 22.1663L6.80859 22.5439L6.4439 22.9216C6.62677 23.0982 6.82351 23.2812 7.10496 23.4363L7.3584 22.9766ZM6.80859 22.5439L7.187 22.18C7.15432 22.146 7.12205 22.1127 7.09058 22.0801C7.05894 22.0474 7.02814 22.0156 6.99755 21.9837L6.61914 22.3477L6.24073 22.7116C6.27248 22.7446 6.30429 22.7775 6.33574 22.81C6.36735 22.8427 6.39864 22.8751 6.43018 22.9079L6.80859 22.5439ZM6.61914 22.3477L6.98947 21.9755C6.85318 21.8399 6.71634 21.7027 6.57972 21.5658L6.20801 21.9365L5.83629 22.3073C5.97282 22.4441 6.11094 22.5826 6.24881 22.7198L6.61914 22.3477ZM6.20801 21.9365L6.58525 21.5714C6.37496 21.3541 6.16036 21.1328 5.94087 20.9152L5.57129 21.2881L5.20171 21.661C5.41239 21.8698 5.61983 22.0837 5.83077 22.3016L6.20801 21.9365ZM5.57129 21.2881L5.93998 20.9143C5.21278 20.197 4.62355 19.65 4.35816 18.842L3.85937 19.0059L3.36059 19.1697C3.72177 20.2693 4.53371 21.002 5.20259 21.6618L5.57129 21.2881ZM3.85937 19.0059L4.37434 18.9037C4.2377 18.215 4.27465 17.6897 4.59526 17.1484L4.14355 16.8809L3.69185 16.6133C3.19895 17.4454 3.17543 18.2563 3.34441 19.108L3.85937 19.0059ZM4.14355 16.8809L4.45869 17.3008C4.71004 17.1121 4.97 16.9134 5.22162 16.6711L4.85742 16.293L4.49323 15.9148C4.29249 16.1082 4.0786 16.2732 3.82842 16.461L4.14355 16.8809ZM4.85742 16.293L5.31207 16.5555C5.4463 16.323 5.58284 16.1006 5.59554 15.7317C5.6055 15.4424 5.53811 15.0464 5.43607 14.423L4.91797 14.5078L4.39986 14.5926C4.51223 15.2791 4.55157 15.5384 4.54616 15.6956C4.5435 15.7731 4.54256 15.7884 4.40277 16.0304L4.85742 16.293ZM4.91797 14.5078L5.43485 14.4158C5.3772 14.0919 5.32305 13.7721 5.27635 13.4516L4.75684 13.5273L4.23732 13.603C4.28627 13.9389 4.34253 14.2708 4.40109 14.5998L4.91797 14.5078ZM4.75684 13.5273L5.27679 13.4547C5.24151 13.2021 5.20549 12.9495 5.169 12.6973L4.64941 12.7725L4.12982 12.8476C4.16611 13.0984 4.20188 13.3493 4.23688 13.5999L4.75684 13.5273ZM4.64941 12.7725L5.16885 12.6962C5.15939 12.6318 5.14988 12.5683 5.14058 12.5062C5.13124 12.4439 5.1221 12.3829 5.11318 12.3222L4.59375 12.3984L4.07432 12.4747C4.0835 12.5373 4.09287 12.5998 4.10217 12.6618C4.11151 12.7242 4.12078 12.7861 4.12998 12.8487L4.64941 12.7725ZM4.59375 12.3984L5.11333 12.3232C5.10004 12.2314 5.09338 12.1854 5.08678 12.1398C5.08018 12.0942 5.07364 12.049 5.0606 11.959L4.54102 12.0342L4.02143 12.1094C4.03447 12.1995 4.04101 12.2446 4.04761 12.2902C4.05421 12.3358 4.06087 12.3818 4.07417 12.4737L4.59375 12.3984ZM4.54102 12.0342L5.05954 11.952C5.05043 11.8945 5.04155 11.8378 5.03265 11.7809C5.02377 11.7241 5.01486 11.6672 5.00583 11.6102L4.4873 11.6924L3.96878 11.7746C3.97762 11.8303 3.98636 11.8862 3.99527 11.9431C4.00415 11.9999 4.01319 12.0577 4.02249 12.1164L4.54102 12.0342ZM4.4873 11.6924L5.00621 11.6126C4.97006 11.3774 4.9215 11.1551 4.82771 10.9368C4.73198 10.714 4.60014 10.5204 4.42467 10.324L4.0332 10.6738L3.64173 11.0237C3.75963 11.1556 3.82161 11.255 3.86298 11.3513C3.90629 11.4521 3.9381 11.575 3.9684 11.7721L4.4873 11.6924ZM4.0332 10.6738L4.32442 10.237C3.98103 10.0081 3.64581 9.8308 3.14126 9.80387L3.11328 10.3281L3.0853 10.8524C3.32268 10.865 3.47254 10.931 3.74199 11.1107L4.0332 10.6738ZM3.11328 10.3281L3.10372 9.80321C2.98688 9.80534 2.94996 9.80602 2.83614 9.80809L2.8457 10.333L2.85526 10.8579C3.00512 10.8552 2.97015 10.8558 3.12284 10.853L3.11328 10.3281ZM31.1514 10.3369L31.1566 9.81194C30.7267 9.80767 30.3019 9.81682 29.8092 10.1122L30.0791 10.5625L30.349 11.0128C30.5791 10.8749 30.753 10.858 31.1462 10.8619L31.1514 10.3369ZM30.0791 10.5625L29.731 10.1695C29.5314 10.3463 29.3264 10.5168 29.1966 10.8173C29.0891 11.0661 29.0365 11.4025 28.9569 11.8735L29.4746 11.9609L29.9923 12.0484C30.0839 11.5058 30.1169 11.3348 30.1605 11.2337C30.1819 11.1843 30.1936 11.1624 30.4272 10.9555L30.0791 10.5625ZM29.4746 11.9609L28.9563 11.8774C28.9461 11.941 28.9359 12.0037 28.9258 12.0661C28.9158 12.1284 28.9057 12.1904 28.8957 12.2524L29.4141 12.3359L29.9324 12.4194C29.9423 12.3578 29.9523 12.296 29.9624 12.2336C29.9725 12.1713 29.9826 12.1083 29.9929 12.0444L29.4746 11.9609ZM29.4141 12.3359L28.8962 12.2497C28.82 12.7069 28.7455 13.1683 28.6795 13.6321L29.1992 13.7061L29.719 13.78C29.7832 13.3286 29.8562 12.8768 29.9319 12.4222L29.4141 12.3359ZM29.1992 13.7061L28.6792 13.6336C28.6569 13.7943 28.6337 13.9552 28.6103 14.1174L29.1299 14.1924L29.6495 14.2673C29.6728 14.1055 29.6964 13.9421 29.7192 13.7785L29.1992 13.7061ZM29.1299 14.1924L28.6118 14.1071C28.5352 14.5729 28.4529 15.0685 28.4213 15.5758L28.9453 15.6084L29.4693 15.641C29.497 15.1957 29.5697 14.7527 29.6479 14.2776L29.1299 14.1924ZM28.9453 15.6084L28.4214 15.6424C28.4359 15.8657 28.4608 16.0865 28.5569 16.3016C28.6542 16.5193 28.8029 16.6838 28.9639 16.8421L29.332 16.4678L29.7001 16.0934C29.5603 15.956 29.5295 15.9045 29.5156 15.8732C29.5005 15.8395 29.4824 15.7785 29.4692 15.5744L28.9453 15.6084ZM29.332 16.4678L29.0244 16.8932C29.1613 16.9922 29.2983 17.0924 29.436 17.1931L29.7461 16.7695L30.0562 16.3459C29.9184 16.245 29.7793 16.1434 29.6397 16.0424L29.332 16.4678ZM29.7461 16.7695L29.3192 17.0752C29.5843 17.4454 29.6987 17.7696 29.7207 18.2218L30.2451 18.1963L30.7695 18.1708C30.7375 17.5136 30.5536 16.9954 30.1729 16.4639L29.7461 16.7695ZM30.2451 18.1963L29.7214 18.1599C29.6468 19.2319 29.1284 19.8402 28.2619 20.7007L28.6318 21.0732L29.0018 21.4458C29.8857 20.5679 30.6654 19.7199 30.7689 18.2327L30.2451 18.1963ZM28.6318 21.0732L28.2649 20.6977C28.0493 20.9085 27.8295 21.1232 27.6133 21.3415L27.9863 21.7109L28.3594 22.0803C28.5685 21.8691 28.782 21.6605 28.9987 21.4487L28.6318 21.0732ZM27.9863 21.7109L27.6126 21.3422C27.4733 21.4834 27.3333 21.6243 27.1934 21.7634L27.5635 22.1357L27.9336 22.5081C28.0766 22.3659 28.2191 22.2225 28.36 22.0797L27.9863 21.7109ZM27.5635 22.1357L27.1945 21.7623C27.1605 21.7959 27.1267 21.8291 27.0929 21.8624C27.0591 21.8956 27.0252 21.929 26.9913 21.9625L27.3603 22.3359L27.7294 22.7094C27.7624 22.6768 27.7955 22.6441 27.8294 22.6107C27.8632 22.5775 27.8976 22.5436 27.9325 22.5092L27.5635 22.1357ZM27.3603 22.3359L26.9869 21.967C26.7692 22.1873 26.5632 22.3723 26.3195 22.5635L26.6436 22.9766L26.9676 23.3896C27.2479 23.1697 27.4867 22.955 27.7338 22.7049L27.3603 22.3359ZM26.6436 22.9766L26.5335 22.4632C26.455 22.4801 26.4105 22.4895 26.3769 22.4953C26.3465 22.5006 26.3429 22.4996 26.3498 22.4996C26.3588 22.4996 26.3608 22.5011 26.3426 22.4975C26.3182 22.4927 26.2852 22.4846 26.2168 22.4674L26.0889 22.9766L25.961 23.4857C26.0671 23.5124 26.2012 23.5496 26.3496 23.5496C26.4882 23.5496 26.628 23.5168 26.7536 23.4899L26.6436 22.9766ZM26.0889 22.9766L26.3237 22.507C26.2953 22.4928 26.2742 22.4822 26.2563 22.473C26.2385 22.4638 26.2286 22.4584 26.2229 22.4551C26.213 22.4493 26.2307 22.4585 26.2536 22.4815C26.2764 22.5043 26.2852 22.5219 26.279 22.5111C26.2756 22.5051 26.27 22.4949 26.2607 22.4768C26.2513 22.4586 26.2407 22.4374 26.2264 22.4088L25.7568 22.6436L25.2873 22.8783C25.3262 22.9563 25.3938 23.1058 25.509 23.2217C25.6251 23.3386 25.7744 23.4063 25.8541 23.4461L26.0889 22.9766ZM25.7568 22.6436L26.2807 22.6774C26.2926 22.4937 26.307 22.3916 26.3318 22.3091C26.3538 22.2361 26.3905 22.1577 26.4763 22.0443L26.0576 21.7275L25.6389 21.4108C25.4918 21.6052 25.3905 21.7938 25.3264 22.0063C25.2653 22.2094 25.2457 22.4113 25.2329 22.6097L25.7568 22.6436ZM26.0576 21.7275L26.4203 22.1071C26.4824 22.0477 26.5136 22.0179 26.5445 21.9884C26.5752 21.9589 26.6057 21.9298 26.6664 21.8717L26.3037 21.4922L25.941 21.1126C25.88 21.1709 25.8493 21.2003 25.8185 21.2298C25.7877 21.2592 25.7567 21.2889 25.6949 21.348L26.0576 21.7275ZM26.3037 21.4922L26.6698 21.8685C26.7386 21.8016 26.7731 21.7678 26.8072 21.7345C26.8411 21.7015 26.8744 21.6689 26.9413 21.6038L26.5752 21.2275L26.2091 20.8512C26.1416 20.9169 26.1077 20.9501 26.0736 20.9834C26.0397 21.0164 26.0057 21.0496 25.9376 21.1159L26.3037 21.4922ZM26.5752 21.2275L26.9363 21.6086C27.1323 21.4229 27.3282 21.2351 27.5223 21.0453L27.1553 20.6699L26.7883 20.2945C26.599 20.4795 26.4072 20.6635 26.2141 20.8465L26.5752 21.2275ZM27.1553 20.6699L27.5228 21.0448C27.7111 20.8602 27.8986 20.6762 28.0865 20.4938L27.7207 20.1172L27.3549 19.7406C27.1649 19.9251 26.9755 20.1109 26.7877 20.295L27.1553 20.6699ZM27.7207 20.1172L28.0862 20.494C28.4593 20.1321 28.8514 19.755 29.2152 19.3422L28.8213 18.9951L28.4274 18.648C28.0962 19.0239 27.736 19.371 27.3552 19.7403L27.7207 20.1172ZM28.8213 18.9951L29.2622 19.2801C29.4256 19.0274 29.5221 18.783 29.5481 18.5092C29.5722 18.2543 29.5305 18.0079 29.4862 17.7784L28.9707 17.8779L28.4552 17.9774C28.4994 18.2066 28.5113 18.3203 28.5028 18.4101C28.496 18.4809 28.4736 18.5659 28.3804 18.7101L28.8213 18.9951ZM28.9707 17.8779L29.4075 17.5867C29.1254 17.1635 28.7197 16.5907 27.972 16.4309L27.8623 16.9443L27.7526 17.4577C28.0451 17.5202 28.2455 17.7366 28.5339 18.1691L28.9707 17.8779ZM27.8623 16.9443L27.8811 16.4197C27.4997 16.406 27.1703 16.462 26.8596 16.5975C26.5576 16.7292 26.3025 16.9239 26.057 17.1404L26.4043 17.5342L26.7516 17.9279C26.9659 17.7389 27.1249 17.6273 27.2794 17.5599C27.4253 17.4963 27.5949 17.4601 27.8436 17.469L27.8623 16.9443ZM26.4043 17.5342L26.0335 17.1625C25.9929 17.203 25.9527 17.243 25.9125 17.283C25.8724 17.323 25.8322 17.3629 25.7923 17.4028L26.1631 17.7744L26.5339 18.1461C26.5733 18.1068 26.6129 18.0674 26.6531 18.0273C26.6932 17.9874 26.7339 17.9469 26.7751 17.9058L26.4043 17.5342ZM26.1631 17.7744L25.7933 17.4018C25.7458 17.4489 25.6991 17.4955 25.6534 17.5411C25.6075 17.587 25.5627 17.6317 25.5179 17.6762L25.8877 18.0488L26.2575 18.4215C26.3036 18.3757 26.3496 18.3298 26.3953 18.2841C26.4412 18.2384 26.4867 18.1929 26.5329 18.1471L26.1631 17.7744ZM25.8877 18.0488L25.5156 17.6785C25.466 17.7283 25.4169 17.7776 25.3679 17.8267C25.319 17.8757 25.2702 17.9246 25.2217 17.9734L25.5937 18.3437L25.9658 18.7141C26.014 18.6658 26.0624 18.6172 26.1113 18.5681C26.1603 18.5191 26.2098 18.4695 26.2598 18.4192L25.8877 18.0488ZM25.5937 18.3437L25.2229 17.9721C24.962 18.2325 24.7003 18.4937 24.4396 18.7555L24.8115 19.126L25.1835 19.4965C25.443 19.236 25.7037 18.9758 25.9646 18.7154L25.5937 18.3437ZM24.8115 19.126L24.4394 18.7556C24.1686 19.0277 23.8979 19.2993 23.6267 19.5693L23.9971 19.9414L24.3674 20.3135C24.6405 20.0417 24.9127 19.7686 25.1837 19.4963L24.8115 19.126ZM23.9971 19.9414L23.6267 19.5693C23.4132 19.7818 23.1996 19.9951 22.9869 20.2082L23.3584 20.5791L23.7299 20.95C23.942 20.7377 24.1548 20.5251 24.3674 20.3135L23.9971 19.9414ZM23.3584 20.5791L22.9868 20.2083C22.9351 20.26 22.884 20.3111 22.8329 20.3621C22.7819 20.4131 22.731 20.464 22.6801 20.5149L23.0518 20.8857L23.4234 21.2566C23.4735 21.2064 23.5239 21.156 23.575 21.105C23.626 21.054 23.6777 21.0024 23.73 20.9499L23.3584 20.5791ZM23.0518 20.8857L22.6814 20.5136C22.632 20.5628 22.5832 20.6113 22.5344 20.6597C22.4857 20.708 22.437 20.7563 22.3884 20.8047L22.7588 21.1768L23.1292 21.5489C23.1771 21.5012 23.2252 21.4534 23.274 21.405C23.3227 21.3567 23.3721 21.3076 23.4221 21.2578L23.0518 20.8857ZM22.7588 21.1768L22.3861 20.8069C21.8132 21.3843 21.3158 21.9336 20.9685 22.5726C20.6132 23.226 20.428 23.9468 20.4281 24.8546L20.9531 24.8545L21.4781 24.8544C21.478 24.1044 21.6274 23.5589 21.8909 23.0741C22.1623 22.575 22.5679 22.1144 23.1314 21.5466L22.7588 21.1768ZM20.9531 24.8545L20.4282 24.8619C20.4291 24.9237 20.4298 24.9848 20.4306 25.0457C20.4314 25.1066 20.4322 25.1674 20.4331 25.2282L20.958 25.2207L21.483 25.2133C21.4821 25.1533 21.4813 25.0932 21.4805 25.0322C21.4798 24.9713 21.479 24.9096 21.4781 24.847L20.9531 24.8545ZM20.958 25.2207L20.433 25.2227C20.4345 25.6164 20.4368 26.0112 20.4408 26.4058L20.9658 26.4004L21.4908 26.395C21.4868 26.0034 21.4845 25.6111 21.483 25.2187L20.958 25.2207ZM20.9658 26.4004L20.4408 26.4059C20.4437 26.6778 20.446 26.9501 20.4477 27.222L20.9727 27.2187L21.4976 27.2155C21.496 26.9421 21.4937 26.6683 21.4908 26.3948L20.9658 26.4004ZM20.9727 27.2187L20.4477 27.2214C20.4517 28.0246 20.4576 28.8278 20.4653 29.631L20.9902 29.626L21.5152 29.621C21.5076 28.8193 21.5016 28.0177 21.4976 27.2161L20.9727 27.2187ZM20.9902 29.626V30.151H25.6455V29.626V29.101H20.9902V29.626ZM25.6455 29.626L26.1665 29.6911C26.1944 29.4677 26.2085 29.3559 26.2224 29.2451C26.2364 29.1341 26.2503 29.024 26.2778 28.8044L25.7568 28.7393L25.2359 28.6741C25.2085 28.8932 25.1947 29.0029 25.1807 29.1137C25.1667 29.2248 25.1525 29.337 25.1246 29.5609L25.6455 29.626ZM25.7568 28.7393L26.1281 29.1105C26.2354 29.0031 26.3008 28.9378 26.3629 28.8696C26.425 28.8012 26.4824 28.7315 26.5757 28.6185L26.1709 28.2842L25.7661 27.9499C25.6667 28.0703 25.6275 28.1176 25.586 28.1632C25.5444 28.2089 25.4992 28.2544 25.3856 28.368L25.7568 28.7393ZM26.1709 28.2842L26.5793 28.6141C27.0029 28.0897 27.431 27.5719 27.8687 27.0631L27.4707 26.7207L27.0727 26.3783C26.6262 26.8974 26.191 27.4238 25.7625 27.9543L26.1709 28.2842ZM27.4707 26.7207L27.8683 27.0635C28.3217 26.5377 28.776 26.0063 29.2187 25.4622L28.8115 25.1309L28.4043 24.7995C27.9716 25.3313 27.5254 25.8533 27.0731 26.3779L27.4707 26.7207ZM28.8115 25.1309L29.2192 25.4616C29.482 25.1377 29.7446 24.8175 30.012 24.5034L29.6123 24.1631L29.2126 23.8227C28.9372 24.1461 28.6685 24.4738 28.4038 24.8001L28.8115 25.1309ZM29.6123 24.1631L30.0116 24.5039C30.2233 24.2558 30.4346 24.0067 30.6448 23.757L30.2432 23.4189L29.8415 23.0809C29.633 23.3286 29.4233 23.5758 29.213 23.8223L29.6123 24.1631ZM30.2432 23.4189L30.6452 23.7565C30.6923 23.7005 30.7389 23.6451 30.7855 23.5898C30.8319 23.5346 30.8783 23.4796 30.9245 23.4245L30.5225 23.0869L30.1204 22.7493C30.0747 22.8037 30.0288 22.8583 29.9822 22.9136C29.9358 22.9687 29.8887 23.0246 29.8411 23.0814L30.2432 23.4189ZM30.5225 23.0869L30.9218 23.4277C32.1615 21.9751 32.2191 20.5345 32.2027 18.8766L31.6777 18.8818L31.1528 18.887C31.1689 20.5164 31.0952 21.6071 30.1231 22.7461L30.5225 23.0869ZM31.6777 18.8818L32.2027 18.8764C32.2003 18.6445 32.1987 18.4125 32.1978 18.1808L31.6728 18.1826L31.1479 18.1845C31.1487 18.4188 31.1503 18.6531 31.1528 18.8872L31.6777 18.8818ZM31.6728 18.1826L32.1978 18.1816C32.1967 17.5678 32.1939 16.9536 32.189 16.3396L31.6641 16.3437L31.1391 16.3479C31.1439 16.9596 31.1467 17.5717 31.1479 18.1836L31.6728 18.1826ZM31.6641 16.3437L32.189 16.3396C32.184 15.706 32.1806 15.0714 32.1783 14.4375L31.6533 14.4395L31.1283 14.4414C31.1306 15.0764 31.134 15.7126 31.1391 16.3479L31.6641 16.3437ZM31.6533 14.4395L32.1783 14.4376C32.1735 13.0709 32.1661 11.7036 32.1558 10.3369L31.6309 10.3408L31.1059 10.3448C31.1162 11.7101 31.1235 13.0759 31.1283 14.4413L31.6533 14.4395ZM31.6309 10.3408L31.6376 9.81586C31.601 9.81539 31.5649 9.81511 31.5306 9.81485C31.4959 9.81458 31.463 9.81433 31.4306 9.81391L31.4238 10.3389L31.4171 10.8638C31.4527 10.8643 31.4883 10.8646 31.5225 10.8648C31.5572 10.8651 31.5906 10.8653 31.6241 10.8658L31.6309 10.3408ZM31.4238 10.3389L31.4278 9.81388C31.359 9.81335 31.3243 9.81312 31.29 9.81289C31.2559 9.81267 31.2222 9.81244 31.1554 9.81193L31.1514 10.3369L31.1473 10.8619C31.2147 10.8624 31.2487 10.8626 31.2829 10.8629C31.317 10.8631 31.3514 10.8633 31.4198 10.8639L31.4238 10.3389ZM26.7812 3.10937L27.0109 2.63728C25.3687 1.83838 23.4277 1.46654 21.5677 2.07314L21.7305 2.57227L21.8932 3.07139C23.4184 2.57402 25.0711 2.86126 26.5516 3.58147L26.7812 3.10937ZM21.7305 2.57227L21.5312 2.08655C19.9009 2.75534 18.2884 3.85888 17.466 5.59454L17.9404 5.81934L18.4149 6.04414C19.081 4.63836 20.4248 3.67532 21.9297 3.05799L21.7305 2.57227ZM17.9404 5.81934L17.4616 5.60401C17.3065 5.94897 17.1768 6.23706 17.001 6.51218L17.4434 6.79492L17.8857 7.07766C18.11 6.72678 18.2697 6.36708 18.4192 6.03466L17.9404 5.81934ZM17.4434 6.79492L17.24 6.3109C17.0349 6.39707 17.0147 6.40118 16.9999 6.40327C16.9977 6.4036 16.9849 6.40548 16.9407 6.40302C16.892 6.4003 16.8288 6.39396 16.7213 6.38299L16.668 6.90527L16.6147 7.42756C16.7935 7.44581 16.9719 7.46774 17.1473 7.44288C17.3266 7.41746 17.4885 7.34542 17.6467 7.27894L17.4434 6.79492ZM16.668 6.90527L17.0204 6.51619C16.9847 6.48383 16.973 6.47299 16.966 6.46591C16.9641 6.46402 16.9729 6.47282 16.9826 6.48751C16.9903 6.49911 16.991 6.50309 16.982 6.48353C16.9721 6.46205 16.9594 6.4321 16.9361 6.37663L16.4521 6.58008L15.9682 6.78352C16.0032 6.86681 16.0467 6.97619 16.108 7.06844C16.1787 7.17488 16.2661 7.24962 16.3155 7.29436L16.668 6.90527ZM16.4521 6.58008L16.9271 6.35631C16.2652 4.95153 15.4234 3.91129 14.1845 2.97139L13.8672 3.38965L13.5499 3.8079C14.6536 4.64525 15.3874 5.55194 15.9772 6.80384L16.4521 6.58008ZM13.8672 3.38965L14.1584 2.9528C11.1829 0.969397 7.35504 1.64311 4.96698 4.13055L5.3457 4.49414L5.72442 4.85773C7.80128 2.69443 11.0711 2.15676 13.576 3.82649L13.8672 3.38965ZM5.3457 4.49414L4.94648 4.15319C3.69157 5.62257 3.1107 7.21327 3.17549 9.13972L3.7002 9.12207L4.2249 9.10442C4.16926 7.45007 4.6536 6.11292 5.74492 4.83509L5.3457 4.49414ZM3.7002 9.12207L3.50059 9.60765C3.53783 9.62295 3.57461 9.63805 3.611 9.65299C3.64743 9.66795 3.68345 9.68273 3.71934 9.69749L3.91895 9.21191L4.11855 8.72634C4.0824 8.71148 4.04615 8.6966 4.00977 8.68166C3.97335 8.66671 3.93678 8.6517 3.8998 8.63649L3.7002 9.12207ZM3.91895 9.21191L3.70415 9.69096C3.78245 9.72607 3.92252 9.78891 3.9981 9.8228L4.21289 9.34375L4.42769 8.8647C4.30977 8.81183 4.25479 8.78714 4.13374 8.73286L3.91895 9.21191ZM4.21289 9.34375L4.019 9.83163C4.1808 9.89594 4.22005 9.9125 4.25826 9.93376C4.2994 9.95666 4.34418 9.98784 4.50097 10.1012L4.80859 9.67578L5.11622 9.25035C4.97935 9.15138 4.8769 9.07641 4.76891 9.0163C4.65799 8.95456 4.54621 8.91128 4.40678 8.85586L4.21289 9.34375ZM4.80859 9.67578L4.43245 10.042C4.84488 10.4656 5.05202 10.8545 5.1565 11.423L5.67285 11.3281L6.18921 11.2332C6.04516 10.4494 5.73463 9.87427 5.18474 9.30953L4.80859 9.67578ZM5.67285 11.3281L5.15395 11.4079C5.16122 11.4552 5.16835 11.502 5.17548 11.5488C5.1826 11.5956 5.18973 11.6424 5.19692 11.6892L5.71582 11.6094L6.23472 11.5296C6.22767 11.4837 6.22065 11.4376 6.21351 11.3908C6.2064 11.344 6.19916 11.2965 6.19175 11.2483L5.67285 11.3281ZM5.71582 11.6094L5.19849 11.6988C5.41513 12.9526 5.56318 14.2204 5.70372 15.5016L6.22559 15.4443L6.74746 15.3871C6.60675 14.1044 6.4558 12.8085 6.23315 11.52L5.71582 11.6094ZM6.22559 15.4443L5.70362 15.5007C5.70761 15.5376 5.71154 15.5739 5.71544 15.61C5.71933 15.646 5.7232 15.6818 5.72706 15.7175L6.24902 15.6611L6.77099 15.6047C6.76712 15.5689 6.76325 15.5331 6.75935 15.4971C6.75545 15.461 6.75152 15.4248 6.74755 15.3879L6.22559 15.4443ZM6.24902 15.6611L6.21479 16.185C7.25974 16.2533 7.97962 16.8325 8.82469 17.6882L9.19824 17.3193L9.57179 16.9504C8.70602 16.0737 7.74541 15.2328 6.28326 15.1372L6.24902 15.6611ZM9.19824 17.3193L8.82427 17.6878C8.9364 17.8016 9.05018 17.9148 9.16017 18.0247L9.53125 17.6533L9.90233 17.2819C9.79007 17.1698 9.68059 17.0609 9.57221 16.9509L9.19824 17.3193ZM9.53125 17.6533L9.16074 18.0253C9.39482 18.2584 9.6282 18.4922 9.86023 18.7267L10.2334 18.3574L10.6066 17.9881C10.3724 17.7515 10.1372 17.5159 9.90175 17.2814L9.53125 17.6533ZM10.2334 18.3574L9.85978 18.7262C10.1603 19.0306 10.4625 19.3348 10.7667 19.637L11.1367 19.2646L11.5068 18.8922C11.2057 18.5931 10.9059 18.2914 10.607 17.9886L10.2334 18.3574ZM11.1367 19.2646L10.7668 19.6372C11.0034 19.8722 11.2395 20.1087 11.4755 20.3459L11.8477 19.9756L12.2198 19.6053C11.9831 19.3675 11.7455 19.1293 11.5067 18.8921L11.1367 19.2646ZM11.8477 19.9756L11.4751 20.3455C11.5886 20.4598 11.703 20.5748 11.8163 20.6886L12.1885 20.3184L12.5607 19.9481C12.4473 19.8341 12.3332 19.7195 12.2202 19.6057L11.8477 19.9756ZM12.1885 20.3184L11.8184 20.6907C12.7351 21.6017 13.341 22.3139 13.6067 23.4621L14.1182 23.3437L14.6297 23.2254C14.2936 21.7731 13.5027 20.8842 12.5585 19.946L12.1885 20.3184ZM14.1182 23.3437L13.6064 23.4609C13.6513 23.6571 13.6981 23.8746 13.7836 24.0782C13.8772 24.301 14.0104 24.4966 14.213 24.6937L14.5791 24.3174L14.9452 23.9411C14.8353 23.8342 14.7864 23.7541 14.7517 23.6716C14.709 23.5699 14.6816 23.4526 14.6299 23.2266L14.1182 23.3437ZM14.5791 24.3174L14.2872 24.7537C14.3408 24.7896 14.3937 24.825 14.4462 24.8601C14.4987 24.8952 14.5507 24.93 14.6026 24.9647L14.8945 24.5283L15.1864 24.092C15.1344 24.0572 15.0823 24.0223 15.0298 23.9872C14.9773 23.9521 14.9245 23.9168 14.871 23.881L14.5791 24.3174ZM14.8945 24.5283L14.5938 24.9587C14.7972 25.1008 15.004 25.2447 15.2138 25.3858L15.5068 24.9502L15.7999 24.5146C15.5984 24.379 15.3982 24.2398 15.1952 24.098L14.8945 24.5283ZM15.5068 24.9502L15.2154 25.3869C15.2531 25.412 15.2902 25.4367 15.3266 25.4608C15.3631 25.4851 15.3988 25.5088 15.4342 25.5324L15.7256 25.0957L16.017 24.659C15.9804 24.6346 15.9438 24.6103 15.9075 24.5861C15.871 24.5619 15.8348 24.5379 15.7982 24.5135L15.5068 24.9502ZM15.7256 25.0957L15.4306 25.53C15.8281 25.8 16.3506 26.2011 16.9778 26.3661L17.1113 25.8584L17.2449 25.3507C16.8373 25.2434 16.4984 24.986 16.0206 24.6614L15.7256 25.0957ZM17.1113 25.8584L17.3461 26.328C17.5258 26.2381 17.6377 26.1824 17.7307 26.1282C17.8308 26.0699 17.908 26.0142 18.0162 25.9369L17.7109 25.5098L17.4057 25.0826C17.2883 25.1665 17.2524 25.1917 17.2025 25.2208C17.1454 25.254 17.0703 25.292 16.8765 25.3888L17.1113 25.8584ZM17.7109 25.5098L18.017 25.9363C18.1722 25.8249 18.3196 25.7222 18.4681 25.631L18.1934 25.1836L17.9187 24.7362C17.7368 24.8478 17.5646 24.9686 17.4049 25.0832L17.7109 25.5098ZM18.1934 25.1836L18.4652 25.6327C18.6144 25.5424 18.7635 25.4504 18.9114 25.3568L18.6309 24.9131L18.3503 24.4693C18.2087 24.5589 18.0654 24.6474 17.9215 24.7345L18.1934 25.1836ZM18.6309 24.9131L18.9205 25.3509C19.2747 25.1167 19.615 24.8743 19.8869 24.5584C20.1703 24.229 20.3618 23.8416 20.4654 23.3382L19.9512 23.2324L19.4369 23.1266C19.3664 23.4694 19.2487 23.6902 19.091 23.8735C18.9217 24.0703 18.6889 24.2452 18.3412 24.4752L18.6309 24.9131ZM19.9512 23.2324L20.4705 23.3094C20.6101 22.3682 21.0566 21.8407 21.8283 21.0606L21.4551 20.6914L21.0818 20.3222C20.289 21.1236 19.6243 21.8581 19.4319 23.1554L19.9512 23.2324ZM21.4551 20.6914L21.8251 21.0639C21.9812 20.9087 22.1429 20.7493 22.3013 20.5906L21.9297 20.2197L21.5581 19.8489C21.4017 20.0056 21.2451 20.16 21.0851 20.319L21.4551 20.6914ZM21.9297 20.2197L22.3016 20.5902C22.526 20.365 22.749 20.1407 22.9728 19.9181L22.6025 19.5459L22.2323 19.1737C22.0063 19.3985 21.7811 19.625 21.5577 19.8492L21.9297 20.2197ZM22.6025 19.5459L22.9725 19.9184C23.262 19.6309 23.5531 19.3417 23.8422 19.0507L23.4697 18.6807L23.0973 18.3107C22.811 18.5988 22.5224 18.8856 22.2326 19.1734L22.6025 19.5459ZM23.4697 18.6807L23.8422 19.0506C24.0678 18.8235 24.294 18.5964 24.5202 18.3707L24.1494 17.999L23.7786 17.6274C23.5509 17.8546 23.3235 18.0829 23.0972 18.3107L23.4697 18.6807ZM24.1494 17.999L24.5199 18.371C24.629 18.2623 24.7384 18.1533 24.8474 18.0445L24.4766 17.6729L24.1057 17.3012C23.9969 17.4098 23.8878 17.5186 23.7789 17.6271L24.1494 17.999ZM24.4766 17.6729L24.849 18.0429C25.6262 17.2606 26.2712 16.5605 27.1487 16.2675L26.9824 15.7695L26.8162 15.2716C25.648 15.6615 24.8111 16.5912 24.1041 17.3028L24.4766 17.6729ZM26.9824 15.7695L27.0556 16.2894L27.333 16.2503L27.2598 15.7305L27.1865 15.2106L26.9092 15.2497L26.9824 15.7695ZM27.2598 15.7305L27.3403 16.2493C27.4114 16.2382 27.4471 16.2327 27.4826 16.2272C27.5184 16.2217 27.5539 16.2163 27.6245 16.2053L27.5439 15.6865L27.4634 15.1677C27.3934 15.1786 27.3583 15.184 27.3228 15.1895C27.287 15.195 27.2509 15.2006 27.1792 15.2117L27.2598 15.7305ZM27.5439 15.6865L27.6071 16.2077C27.6598 16.2013 27.6866 16.198 27.7128 16.1947C27.7385 16.1916 27.7637 16.1884 27.8141 16.1823L27.751 15.6611L27.6879 15.1399C27.636 15.1462 27.6097 15.1495 27.5834 15.1527C27.5578 15.1559 27.5321 15.1591 27.4808 15.1653L27.5439 15.6865ZM27.751 15.6611L28.2715 15.7295C28.3331 15.2603 28.3954 14.7906 28.4579 14.3212L27.9375 14.252L27.4171 14.1827C27.3546 14.6523 27.2922 15.1227 27.2304 15.5928L27.751 15.6611ZM27.9375 14.252L28.4579 14.3213C28.4836 14.1286 28.5094 13.935 28.5351 13.742L28.0146 13.6729L27.4942 13.6037C27.4686 13.7964 27.4428 13.9896 27.4171 14.1826L27.9375 14.252ZM28.0146 13.6729L28.5352 13.7411C28.5723 13.4581 28.6088 13.1769 28.6464 12.8956L28.126 12.8262L27.6056 12.7567C27.5679 13.0395 27.531 13.3234 27.4941 13.6046L28.0146 13.6729ZM28.126 12.8262L28.6463 12.8958C28.6555 12.8271 28.6601 12.7926 28.6646 12.7584C28.6691 12.7246 28.6735 12.6911 28.6825 12.6243L28.1621 12.5547L27.6417 12.4851C27.6327 12.5525 27.6282 12.5865 27.6237 12.6206C27.6192 12.6545 27.6147 12.6885 27.6056 12.7566L28.126 12.8262ZM28.1621 12.5547L28.6827 12.6223C28.7691 11.9574 28.8689 11.3188 29.0346 10.6979L28.5273 10.5625L28.0201 10.4271C27.8363 11.1161 27.7295 11.8094 27.6415 12.4871L28.1621 12.5547ZM28.5273 10.5625L29.0022 10.7865C29.2562 10.248 29.6392 9.98539 30.2959 9.69096L30.0811 9.21191L29.8662 8.73287C29.1271 9.06429 28.4662 9.46155 28.0525 10.3385L28.5273 10.5625ZM30.0811 9.21191L30.2806 9.69749C30.317 9.68254 30.3533 9.66776 30.39 9.65279C30.4265 9.6379 30.4635 9.6228 30.5004 9.60764L30.3008 9.12207L30.1012 8.63649C30.0659 8.651 30.0302 8.66554 29.9935 8.68053C29.957 8.69542 29.9194 8.71074 29.8815 8.72633L30.0811 9.21191ZM30.3008 9.12207L30.8251 9.14944C30.8664 8.35726 30.8214 7.62486 30.5772 6.82768L30.0752 6.98144L29.5732 7.13521C29.7712 7.78137 29.8136 8.38383 29.7765 9.0947L30.3008 9.12207ZM30.0752 6.98144L30.569 6.80318C29.9141 4.98913 28.7686 3.53712 27.0205 2.64207L26.7812 3.10937L26.542 3.57668C28.0203 4.3336 29.0034 5.55871 29.5814 7.15971L30.0752 6.98144ZM14.8564 9.19141L15.1562 9.62239C16.2089 8.89014 17.4708 8.84881 18.6357 9.47343L18.8838 9.01074L19.1319 8.54806C17.6453 7.75099 15.9576 7.78595 14.5567 8.76042L14.8564 9.19141ZM18.8838 9.01074L18.5897 9.44561C19.3331 9.94846 19.7975 10.61 20.0413 11.4805L20.5469 11.3389L21.0524 11.1973C20.7443 10.0973 20.1357 9.22368 19.1779 8.57587L18.8838 9.01074ZM20.5469 11.3389L20.0258 11.4028C20.1006 12.0126 20.0843 12.5037 19.9776 12.9586C19.8709 13.4138 19.667 13.8614 19.3309 14.376L19.7705 14.6631L20.2101 14.9502C20.5935 14.363 20.8582 13.8027 20.9999 13.1983C21.1417 12.5937 21.1537 11.9736 21.068 11.2749L20.5469 11.3389ZM19.7705 14.6631L19.3836 14.3082C19.2834 14.4174 19.245 14.4595 19.213 14.4916C19.1861 14.5186 19.1643 14.5382 19.0923 14.6014L19.4385 14.9961L19.7846 15.3908C19.8532 15.3307 19.9015 15.2883 19.9576 15.2319C20.0086 15.1806 20.0659 15.1178 20.1574 15.0179L19.7705 14.6631ZM19.4385 14.9961L19.1678 15.4459C19.2186 15.4765 19.2696 15.507 19.3202 15.5373C19.371 15.5676 19.4215 15.5979 19.4725 15.6286L19.7432 15.1787L20.0138 14.7289C19.9615 14.6974 19.9098 14.6665 19.8592 14.6362C19.8084 14.6058 19.7586 14.576 19.7091 14.5462L19.4385 14.9961ZM19.7432 15.1787L19.4685 15.6262C20.6658 16.3609 21.6702 17.1155 22.1682 18.3027L22.6523 18.0996L23.1365 17.8965C22.5 16.3791 21.2336 15.4775 20.0178 14.7313L19.7432 15.1787ZM22.6523 18.0996L22.1274 18.109C22.1292 18.2093 22.1303 18.2721 22.1296 18.3206C22.129 18.3669 22.1267 18.3829 22.1259 18.3881C22.1244 18.3969 22.1246 18.4044 22.0588 18.5593L22.542 18.7646L23.0252 18.97C23.0769 18.8482 23.1358 18.717 23.1618 18.5593C23.1853 18.4171 23.1803 18.2612 23.1773 18.0902L22.6523 18.0996ZM22.542 18.7646L22.2508 18.3278C22.0651 18.4516 22.0147 18.4729 21.985 18.4808C21.9678 18.4854 21.924 18.4955 21.7324 18.467L21.6553 18.9863L21.5781 19.5056C21.8021 19.5389 22.0226 19.5575 22.2553 19.4955C22.4756 19.4368 22.6608 19.3164 22.8332 19.2015L22.542 18.7646ZM21.6553 18.9863L22.0172 18.606C21.9124 18.5063 21.8868 18.4809 21.8624 18.4521C21.8355 18.4202 21.8074 18.3806 21.7128 18.2441L21.2812 18.543L20.8497 18.8419C20.9323 18.9612 20.9931 19.05 21.0598 19.1291C21.1291 19.2113 21.2019 19.2796 21.2934 19.3667L21.6553 18.9863ZM21.2812 18.543L21.7053 18.2334C21.6725 18.1885 21.6396 18.1432 21.6061 18.0971C21.5727 18.0512 21.5387 18.0044 21.5041 17.9571L21.0801 18.2666L20.656 18.5761C20.6899 18.6225 20.7233 18.6684 20.7568 18.7145C20.7901 18.7604 20.8237 18.8066 20.8572 18.8525L21.2812 18.543ZM21.0801 18.2666L21.5061 17.9598C21.4726 17.9133 21.4389 17.8667 21.4055 17.8206C21.3719 17.7742 21.3385 17.7281 21.3049 17.6815L20.8789 17.9883L20.4529 18.2951C20.4874 18.343 20.5216 18.3902 20.555 18.4364C20.5886 18.4828 20.6215 18.5282 20.654 18.5734L21.0801 18.2666ZM20.8789 17.9883L21.2964 17.67C20.4264 16.5287 19.3145 15.802 17.8524 15.5852L17.7754 16.1045L17.6984 16.6238C18.8613 16.7963 19.739 17.359 20.4614 18.3066L20.8789 17.9883ZM17.7754 16.1045L17.8228 15.5816C16.7427 15.4836 15.6182 15.4663 14.5228 16.092L14.7832 16.5479L15.0436 17.0037C15.8424 16.5475 16.6861 16.5328 17.7279 16.6273L17.7754 16.1045ZM14.7832 16.5479L14.5288 16.0886C14.4861 16.1123 14.4433 16.136 14.4007 16.1597C14.358 16.1835 14.3153 16.2072 14.272 16.2312L14.5264 16.6904L14.7807 17.1497C14.8248 17.1253 14.8681 17.1012 14.9108 17.0775C14.9535 17.0537 14.9956 17.0304 15.0376 17.0071L14.7832 16.5479ZM14.5264 16.6904L14.2535 16.2419C13.2701 16.8403 12.5781 17.6893 12.0109 18.5967L12.4561 18.875L12.9012 19.1533C13.4237 18.3174 14.0106 17.6188 14.7993 17.1389L14.5264 16.6904ZM12.4561 18.875L12.0848 18.5038C12.0697 18.5189 12.0627 18.5258 12.0574 18.5309C12.0528 18.5353 12.0561 18.5318 12.0644 18.5253C12.0739 18.5179 12.0885 18.5077 12.1075 18.4975C12.1266 18.4873 12.1441 18.4803 12.1578 18.4759C12.1705 18.4718 12.1777 18.4706 12.1757 18.471C12.1734 18.4714 12.1657 18.4727 12.1492 18.4747C12.1135 18.479 12.0642 18.4834 11.9809 18.4906L12.0264 19.0137L12.0718 19.5367C12.1959 19.5259 12.3546 19.5157 12.4804 19.4751C12.6724 19.4131 12.7838 19.2897 12.8273 19.2462L12.4561 18.875ZM12.0264 19.0137L12.0682 18.4903C11.9786 18.4832 11.9227 18.4786 11.8803 18.474C11.8393 18.4695 11.8282 18.4665 11.8279 18.4665C11.8279 18.4665 11.828 18.4665 11.8283 18.4665C11.8285 18.4666 11.8288 18.4667 11.8291 18.4668C11.8297 18.467 11.8302 18.4672 11.8303 18.4672C11.8305 18.4673 11.8278 18.4663 11.8204 18.4628C11.8011 18.4536 11.7754 18.4397 11.7173 18.4078L11.4648 18.8682L11.2124 19.3285C11.3051 19.3793 11.4188 19.4451 11.5647 19.4829C11.6904 19.5155 11.8339 19.525 11.9845 19.537L12.0264 19.0137ZM11.4648 18.8682L11.9253 18.6159C11.8816 18.5362 11.8719 18.4899 11.869 18.4531C11.8652 18.4059 11.8697 18.3385 11.8967 18.2033L11.3818 18.1006L10.867 17.9978C10.8344 18.1612 10.8067 18.343 10.8224 18.5376C10.8389 18.7426 10.9005 18.9308 11.0044 19.1204L11.4648 18.8682ZM11.3818 18.1006L11.8784 18.2711C12.31 17.0138 13.5293 16.1852 14.8206 15.4527L14.5615 14.9961L14.3025 14.5394C13.0355 15.2581 11.4605 16.2545 10.8853 17.9301L11.3818 18.1006ZM14.5615 14.9961L14.9369 14.6291C14.8866 14.5776 14.8363 14.5262 14.7856 14.4744C14.7349 14.4226 14.6839 14.3704 14.6322 14.3175L14.2568 14.6846L13.8815 15.0516C13.9332 15.1046 13.9843 15.1568 14.035 15.2086C14.0857 15.2604 14.136 15.3118 14.1861 15.3631L14.5615 14.9961ZM14.2568 14.6846L14.6587 14.3468C14.0413 13.6122 13.8694 12.7354 13.9218 11.6903L13.3975 11.6641L12.8731 11.6378C12.8135 12.828 13.0028 14.0085 13.8549 15.0224L14.2568 14.6846ZM13.3975 11.6641L13.9182 11.7307C14.0315 10.8459 14.4561 10.1822 15.1838 9.60186L14.8564 9.19141L14.5291 8.78095C13.6274 9.50007 13.0306 10.3956 12.8767 11.5974L13.3975 11.6641ZM17.9287 10.0293L18.1029 9.53405C17.1013 9.1817 16.1342 9.2493 15.2433 9.9218L15.5596 10.3408L15.8759 10.7598C16.4429 10.3318 17.0304 10.2698 17.7545 10.5245L17.9287 10.0293ZM15.5596 10.3408L15.1833 9.97471C14.5771 10.5978 14.2528 11.3009 14.2034 12.1744L14.7275 12.2041L15.2517 12.2338C15.2862 11.6247 15.4976 11.1574 15.9359 10.7069L15.5596 10.3408ZM14.7275 12.2041L14.2029 12.2241C14.2366 13.1085 14.56 13.8419 15.174 14.4711L15.5498 14.1045L15.9256 13.7378C15.4889 13.2903 15.2757 12.8023 15.2522 12.1841L14.7275 12.2041ZM15.5498 14.1045L15.2283 14.5196C15.9409 15.0715 16.5889 15.1487 17.3659 15.1333L17.3555 14.6084L17.3451 14.0835C16.6827 14.0966 16.3145 14.0327 15.8713 13.6894L15.5498 14.1045ZM17.3555 14.6084L17.4487 15.1251C18.2456 14.9813 18.752 14.4924 19.1702 14.0099L18.7734 13.666L18.3767 13.3222C17.9963 13.7611 17.6914 14.0143 17.2623 14.0917L17.3555 14.6084ZM18.7734 13.666L19.2032 13.9675C19.7586 13.1758 19.8686 12.3792 19.7361 11.4837L19.2168 11.5605L18.6974 11.6374C18.7995 12.3273 18.7129 12.8381 18.3436 13.3645L18.7734 13.666ZM19.2168 11.5605L19.7122 11.3866C19.4276 10.5762 18.8363 10.0181 18.227 9.59729L17.9287 10.0293L17.6304 10.4613C18.154 10.8229 18.5416 11.2223 18.7214 11.7344L19.2168 11.5605Z"/></svg>